<?xml version="1.0" encoding="utf-8"?>
<!-- Generator: Adobe Illustrator 18.1.0, SVG Export Plug-In . SVG Version: 6.00 Build 0)  -->
<!DOCTYPE svg PUBLIC "-//W3C//DTD SVG 1.1//EN" "http://www.w3.org/Graphics/SVG/1.1/DTD/svg11.dtd">
<svg version="1.1" id="Layer_1" xmlns="http://www.w3.org/2000/svg" xmlns:xlink="http://www.w3.org/1999/xlink" x="0px" y="0px"
	 viewBox="135 0 530 530" enable-background="new 135 0 530 530" xml:space="preserve">
<g>
	<path fill="#737390" d="M520.5,236.7L520.5,236.7c-0.1-2-1.3-4-3-5.2c-22.2-14.3-46.5-23.1-72.6-26.3c-7.6-1-7.6,11,0,12
		c20.8,2.5,40.4,9.4,58.4,19.7c-1,0.5-1.8,1.1-2.8,1.6c-10.2,5.3-21.3,8.8-32.4,11c-42.4,8.7-86.8,0.1-127.5-13.5
		c18.7-9.3,39.6-15.1,59.9-18.1c7.6-1.2,4.3-12.7-3.2-11.6c-22.2,3.4-45.3,10.1-65.5,20.7c-1.3-48.9-14.3-104.9-58-132.3
		c-3.1-1.9-6.3-3.7-9.6-4.9c-2.5-1-5.4,0.6-6.8,2.8c-19.1,30.1-29.4,67.4-9.1,99.6c13.5,21.4,35.8,35.9,58.6,45.7
		c4.2,1.8,8.6,3.6,13,5.1c-0.2,24.2,0.7,48.3,2.8,72.4c1.6,17.8,3.6,35.9,8.3,53.2c2.9,10.7,7,20.5,14.7,28.5
		c24.2,25,64,52.2,100.7,40.7c14.9-4.7,29.6-14.6,41.1-24.9c9.3-8.4,16.9-17.9,21-29.7C524.7,336.9,525.6,284.9,520.5,236.7z
		 M261.4,101.7c0,0.1-0.3,0-1-0.5C260.6,101.3,260.9,101.5,261.4,101.7z M248.9,156.9c-1.1-19.2,6.3-37.2,15.9-53.4
		c1.7,1,3.3,1.9,4.9,3c7.8,5.3,14.7,12.2,20.6,19.6C313,155.4,319.5,194,320,230.4C286.9,219.1,251.1,193.6,248.9,156.9z M500,370
		c-1.3,4.3-2.7,8.6-4.1,12.7c-1.5,3.9,0,1.3-2.3,4.9c-10.8,16.6-28.1,28.8-46.1,36.8c-31.7,14-69.6-12.1-91.2-33.8
		c-17.4-17.6-18.8-46.9-21-70.2c-2.3-24.8-3.4-49.8-3.3-74.8c55,19.2,124.2,31.9,177.3,1.8c0.1-0.1,0.2-0.1,0.3-0.2
		C512.9,288.2,511.4,330.4,500,370z"/>
	<path fill="#737390" d="M438.8,337.7c6.5-4.1,0.5-14.5-6-10.4c-10.2,6.5-22.7,7.4-32.8,0.1c-6.3-4.6-12.3,5.8-6,10.4
		C407.3,347.5,425.3,346.2,438.8,337.7z"/>
	<path fill="#737390" d="M497,320.5c-5.3,3.7-11.7,7.6-18.3,6.3c-1.5-0.3-2.7-0.8-3.9-1.6c-0.3-0.1-0.4-0.2-0.5-0.2
		c0-0.1-0.1-0.1-0.3-0.3c-5.5-5.4-14,3.1-8.5,8.5c10.6,10.4,27.2,5.2,37.7-2.3C509.3,326.5,503.3,316.1,497,320.5z"/>
	<path fill="#737390" d="M461.3,342.9C461.3,342.8,461.3,342.8,461.3,342.9L461.3,342.9z"/>
	<path fill="#737390" d="M450.8,381.8c8.9-0.8,20.7-4.1,19.9-15.4c-0.3-4.2-2.8-6.4-4.9-10c-1.7-2.9-2.8-5.8-3.6-9
		c-0.3-1.2-0.5-2.3-0.7-3.6c-0.1-0.4-0.1-1-0.2-1.1c0,0.1,0,0.2,0,0.3c-0.7-7.6-12.8-7.7-12,0c0.7,7.8,3.4,16.4,8.3,22.7
		c0.3,0.4,0.7,1,1.2,1.4c-1.1,0.8-5.2,2.2-7.9,2.4C443.1,370.5,443,382.6,450.8,381.8z M458.5,366.9c0.1,0.3,0.2,0.4,0.2,0.5
		C458.6,366.9,458.3,366.2,458.5,366.9z"/>
	<path fill="#737390" d="M464.3,391.1c-11.3,8.8-28.5,5.5-40.5-0.6c-6.9-3.6-12.9,6.8-6,10.4c17.3,9,39,11.2,55-1.2
		C478.9,395,470.4,386.5,464.3,391.1z"/>
	<path fill="#737390" d="M400.7,137.2c10.7-24,52-17.7,46.3,10.9c-2.4,11.9-15.3,15.3-22.8,23.2c-7.7,8.2-10.2,18.9-8.5,29.8
		c1.2,7.6,12.7,4.3,11.6-3.2c-3-19.6,17.6-23.2,26.6-36.1c7.1-10.2,7-24.2,1.2-34.9c-13.7-25.4-53.5-21.1-64.8,4.1
		C387.3,138.1,397.7,144.3,400.7,137.2z"/>
	<path fill="#737390" d="M425.9,219.8c-0.5-0.2-1.2-0.5-1.8-0.7c-0.8-0.2-1.7-0.2-2.5-0.1c-1.5,0.2-2.9,0.8-3.9,1.9
		c-2.1,2.2-2.9,5.5-1.3,8.3c1.3,2.1,3.5,3.5,6,3.6c2.5,0,4.8-1.3,6.1-3.4c1-1.6,1-3.6,0.3-5.3c0-0.2,0-0.4-0.1-0.5
		C428.2,222.1,427.3,220.5,425.9,219.8z M421.5,230.8c-0.1,0-0.2,0-0.4-0.1c-0.3-0.1-0.7-0.3-1.1-0.4
		C420.5,230.4,421,230.7,421.5,230.8z"/>
</g>
</svg>
