<?xml version="1.0" encoding="utf-8"?>
<!-- Generator: Adobe Illustrator 18.1.0, SVG Export Plug-In . SVG Version: 6.00 Build 0)  -->
<!DOCTYPE svg PUBLIC "-//W3C//DTD SVG 1.1//EN" "http://www.w3.org/Graphics/SVG/1.1/DTD/svg11.dtd">
<svg version="1.1" id="Layer_1" xmlns="http://www.w3.org/2000/svg" xmlns:xlink="http://www.w3.org/1999/xlink" x="0px" y="0px"
	 viewBox="150 15 500 500" enable-background="new 150 15 500 500" xml:space="preserve">
<g>
	<path fill="#191526" d="M503,242.1L503,242.1c-0.1-2-1.3-4.1-3.1-5.3c-22.6-14.6-47.4-23.6-74-26.9c-7.8-1.1-7.8,11.2,0,12.3
		c21.2,2.6,41.3,9.6,59.5,20.1c-1.1,0.5-1.9,1.1-2.8,1.6c-10.4,5.4-21.7,9-33,11.2c-43.3,8.8-88.5,0.1-130-13.8
		c19.1-9.5,40.4-15.4,61.1-18.5c7.8-1.2,4.4-13-3.3-11.8c-22.6,3.4-46.2,10.3-66.8,21.1c-1.3-49.9-14.6-107-59.2-135
		c-3.2-1.9-6.4-3.8-9.8-5c-2.6-1.1-5.5,0.6-7,2.8c-19.5,30.7-29.9,68.7-9.3,101.6c13.8,21.8,36.5,36.7,59.8,46.6
		c4.2,1.9,8.7,3.7,13.2,5.2c-0.2,24.6,0.7,49.3,2.8,73.8c1.6,18.2,3.7,36.7,8.5,54.2c2.9,11,7.2,20.9,15,29.1
		c24.6,25.5,65.3,53.3,102.7,41.5c15.2-4.8,30.2-14.9,42-25.4c9.5-8.6,17.2-18.3,21.4-30.3C507.2,344.3,508.2,291.3,503,242.1z
		 M238.7,104.4c0,0.1-0.3,0-1.1-0.5C237.9,104,238.1,104.2,238.7,104.4z M225.9,160.8c-1.1-19.6,6.4-38,16.3-54.5
		c1.8,1.1,3.4,1.9,5,3.1c7.9,5.4,15,12.5,21,20c23.1,29.9,29.8,69.3,30.3,106.4C264.6,224.2,228.2,198.2,225.9,160.8z M482,378.1
		c-1.3,4.4-2.7,8.7-4.2,13c-1.5,4,0,1.3-2.4,5c-11,17-28.6,29.4-47,37.5c-32.3,14.3-71-12.4-93-34.5c-17.8-17.9-19.2-47.9-21.4-71.6
		c-2.4-25.3-3.4-50.8-3.4-76.3c56.1,19.6,126.7,32.5,180.8,1.9c0.1-0.1,0.2-0.1,0.3-0.2C495.2,294.7,493.7,337.7,482,378.1z"/>
	<path fill="#191526" d="M442.5,350.5C442.5,350.3,442.5,350.3,442.5,350.5L442.5,350.5z"/>
	<path fill="#191526" d="M380.7,140.6c11-24.5,53-18,47.3,11.1c-2.5,12.1-15.6,15.6-23.2,23.7c-7.9,8.4-10.4,19.3-8.7,30.4
		c1.2,7.8,13,4.4,11.8-3.3c-3.1-20,17.9-23.7,27.1-36.8c7.2-10.4,7.2-24.6,1.2-35.6c-14-25.9-54.6-21.6-66.1,4.2
		C367.1,141.6,377.7,147.9,380.7,140.6z"/>
	<path fill="#191526" d="M406.4,224.9c-0.5-0.2-1.2-0.5-1.9-0.7c-0.8-0.2-1.8-0.2-2.6-0.1c-1.5,0.2-2.9,0.8-4,1.9
		c-2.1,2.2-2.9,5.7-1.3,8.5c1.3,2.1,3.5,3.5,6.1,3.7c2.6,0,4.9-1.3,6.2-3.4c1.1-1.6,1.1-3.7,0.3-5.4c0-0.2,0-0.4-0.1-0.5
		C408.8,227.3,407.8,225.6,406.4,224.9z M401.9,236.1c-0.1,0-0.2,0-0.4-0.1c-0.3-0.1-0.7-0.3-1.1-0.4
		C400.9,235.7,401.5,236,401.9,236.1z"/>
</g>
<g>
	<g>
		<path fill="#191526" d="M376.3,346.7c12.4,8.9,29.5,7.8,41.9-0.4c4.7-3.2,0.3-10.8-4.4-7.6c-9.9,6.6-23,7.6-32.9,0.4
			C376.1,335.7,371.7,343.4,376.3,346.7L376.3,346.7z"/>
	</g>
	<g>
		<path fill="#191526" d="M445.4,341.9c9.8,9.5,25.2,4.2,34.6-2.6c4.5-3.4,0.2-11-4.4-7.6c-5.3,3.9-11.7,7.7-18.5,6.4
			c-1.6-0.3-2.9-0.9-4.2-1.6c-0.4-0.2-1.5-1-0.5-0.4c-0.2-0.1-0.4-0.3-0.5-0.4C447.5,331.7,441.3,338,445.4,341.9L445.4,341.9z"/>
	</g>
	<g>
		<path fill="#191526" d="M430.4,352.6c0.9,8.3,4.2,15.9,9.2,22.6c-0.3-0.4,0.2-0.9,0.1,0.4c0-0.2,0,0.8,0,0.9
			c-1.2,2.2-6,2.9-8.9,3.2c-5.7,0.5-5.7,9.4,0,8.8c8-0.8,19.8-4.3,17.6-14.8c-0.7-3.5-3.5-5.9-5.2-9c-1.4-2.7-2.4-5.6-3.1-8.6
			c-0.3-1-0.4-1.9-0.6-3c-0.2-1.1-0.1-0.2-0.1-0.5C438.7,347.1,429.7,347,430.4,352.6L430.4,352.6z"/>
	</g>
	<g>
		<path fill="#191526" d="M399.8,407.3c15.9,8.2,36.8,10.6,51.3-1.3c4.4-3.6-1.9-9.8-6.3-6.3c-11.1,9.2-28.7,6.2-40.6,0
			C399.2,397.1,394.8,404.7,399.8,407.3L399.8,407.3z"/>
	</g>
</g>
<text transform="matrix(1 0 0 1 -270.7334 226.8335)" font-family="'MyriadPro-Regular'" font-size="10.6">737390</text>
</svg>
