<?xml version="1.0" encoding="utf-8"?>
<!-- Generator: Adobe Illustrator 19.2.0, SVG Export Plug-In . SVG Version: 6.00 Build 0)  -->
<svg version="1.1" id="Layer_1" xmlns="http://www.w3.org/2000/svg" xmlns:xlink="http://www.w3.org/1999/xlink" x="0px" y="0px"
	 viewBox="0 0 500 500" style="enable-background:new 0 0 500 500;" xml:space="preserve">
<style type="text/css">
	.st0{fill:#F74D4D;}
</style>
<g>
	<path class="st0" d="M359,250.1c-0.1-2-1.3-4.1-3.1-5.3c-22.6-14.6-47.3-24-74-26.9c-44.7-4.8-91,8.8-115.3,22.2
		c-1.3-49.9-14.6-107-59.2-135c-3.2-1.9-6.4-3.8-9.8-5c-2.6-1.1-5.5,0.6-7,2.8c-19.5,30.7-29.9,68.7-9.3,101.6
		c13.8,21.8,36.5,36.7,59.8,46.6c4.2,1.9,8.7,3.7,13.2,5.2c-0.2,24.6,0.7,49.3,2.8,73.8c1.6,18.2,3.7,36.7,8.5,54.2
		c2.9,11,7.2,20.9,15,29.1c24.6,25.5,65.3,53.3,102.7,41.5c15.2-4.8,30.2-14.9,42-25.4c9.5-8.6,17.2-18.3,21.4-30.3
		C363.2,352.3,364.2,299.3,359,250.1z M94.7,112.4c0,0.1-0.3,0-1.1-0.5C93.9,112,94.1,112.2,94.7,112.4z M81.9,168.8
		c-1.1-19.6,6.4-38,16.3-54.5c1.8,1.1,3.4,1.9,5,3.1c7.9,5.4,15,12.5,21,20c23.1,29.9,29.8,69.3,30.3,106.4
		C120.6,232.2,84.2,206.2,81.9,168.8z M341.4,250.3c-1.1,0.5-1.9,1.1-2.8,1.6c-10.4,5.4-21.7,9-33,11.2c-43.3,8.8-88.5,0.1-130-13.8
		c10-5,43.5-20.5,87.1-19.9C307.4,230,332.7,245.3,341.4,250.3z M338,386.1c-1.3,4.4-2.7,8.7-4.2,13c-1.5,4,0,1.3-2.4,5
		c-11,17-28.6,29.4-47,37.5c-32.3,14.3-71-12.4-93-34.5c-17.8-17.9-19.2-47.9-21.4-71.6c-2.4-25.3-3.4-50.8-3.4-76.3
		c56.1,19.6,126.7,32.5,180.8,1.9c0.1-0.1,0.2-0.1,0.3-0.2C351.2,302.7,349.7,345.7,338,386.1z"/>
	<g>
		<g>
			<path class="st0" d="M232.3,346.7c12.4,8.9,29.5,7.8,41.9-0.4c4.7-3.2,0.3-10.8-4.4-7.6c-9.9,6.6-23,7.6-32.9,0.4
				C232.1,335.7,227.7,343.4,232.3,346.7L232.3,346.7z"/>
		</g>
		<g>
			<path class="st0" d="M301.4,341.9c9.8,9.5,25.2,4.2,34.6-2.6c4.5-3.4,0.2-11-4.4-7.6c-5.3,3.9-11.7,7.7-18.5,6.4
				c-1.6-0.3-2.9-0.9-4.2-1.6c-0.4-0.2-1.5-1-0.5-0.4c-0.2-0.1-0.4-0.3-0.5-0.4C303.5,331.7,297.3,338,301.4,341.9L301.4,341.9z"/>
		</g>
		<g>
			<path class="st0" d="M286.4,352.6c0.9,8.3,4.2,15.9,9.2,22.6c-0.3-0.4,0.2-0.9,0.1,0.4c0-0.2,0,0.8,0,0.9c-1.2,2.2-6,2.9-8.9,3.2
				c-5.7,0.5-5.7,9.4,0,8.8c8-0.8,19.8-4.3,17.6-14.8c-0.7-3.5-3.5-5.9-5.2-9c-1.4-2.7-2.4-5.6-3.1-8.6c-0.3-1-0.4-1.9-0.6-3
				s-0.1-0.2-0.1-0.5C294.7,347.1,285.7,347,286.4,352.6L286.4,352.6z"/>
		</g>
		<g>
			<path class="st0" d="M255.8,407.3c15.9,8.2,36.8,10.6,51.3-1.3c4.4-3.6-1.9-9.8-6.3-6.3c-11.1,9.2-28.7,6.2-40.6,0
				C255.2,397.1,250.8,404.7,255.8,407.3L255.8,407.3z"/>
		</g>
	</g>
</g>
<g>
	<g>
		<g>
		</g>
		<g>
		</g>
		<g>
		</g>
		<g>
		</g>
	</g>
</g>
</svg>
