<?xml version="1.0" encoding="utf-8"?>
<!-- Generator: Adobe Illustrator 18.1.0, SVG Export Plug-In . SVG Version: 6.00 Build 0)  -->
<!DOCTYPE svg PUBLIC "-//W3C//DTD SVG 1.1//EN" "http://www.w3.org/Graphics/SVG/1.1/DTD/svg11.dtd">
<svg version="1.1" id="Layer_1" xmlns="http://www.w3.org/2000/svg" xmlns:xlink="http://www.w3.org/1999/xlink" x="0px" y="0px"
	 viewBox="0 0 200 200" enable-background="new 0 0 200 200" xml:space="preserve">
<g>
	<path fill="#FFFFFF" d="M86.8,68.7c1.1,0,2.2,0.4,3.1,1.1c2.2,1.7,2.5,4.9,0.8,7L72.4,99.9l18.3,23.3c1.7,2.2,1.3,5.3-0.8,7
		c-2.2,1.7-5.3,1.3-7-0.8L62.1,103c-1.4-1.8-1.4-4.4,0-6.2l20.8-26.3C83.8,69.3,85.3,68.7,86.8,68.7z"/>
</g>
<g>
	<path fill="#FFFFFF" d="M68.6,95H131c2.8,0,5,2.2,5,5c0,2.8-2.2,5-5,5H68.6c-2.8,0-5-2.2-5-5C63.6,97.2,65.8,95,68.6,95z"/>
</g>
</svg>
