<?xml version="1.0" encoding="utf-8"?>
<!-- Generator: Adobe Illustrator 18.1.1, SVG Export Plug-In . SVG Version: 6.00 Build 0)  -->
<!DOCTYPE svg PUBLIC "-//W3C//DTD SVG 1.1//EN" "http://www.w3.org/Graphics/SVG/1.1/DTD/svg11.dtd">
<svg version="1.1" id="Layer_1" xmlns="http://www.w3.org/2000/svg" xmlns:xlink="http://www.w3.org/1999/xlink" x="0px" y="0px"
	 width="700px" height="700px" viewBox="0 0 700 700" enable-background="new 0 0 700 700" xml:space="preserve">
<g>
	<path fill="#FFFFFF" d="M303.8,240.4c3.8,0,7.7,1.4,10.8,3.9c7.7,5.9,8.8,17.1,2.8,24.5l-64.1,80.9l64,81.5
		c5.9,7.7,4.6,18.6-2.8,24.5c-7.7,5.9-18.5,4.6-24.5-2.8l-72.8-92.4c-4.9-6.3-4.9-15.4,0-21.7l72.8-92.1
		C293.3,242.6,298.6,240.4,303.8,240.4z"/>
</g>
<g>
	<path fill="#FFFFFF" d="M240.1,332.5h218.4c9.8,0,17.5,7.7,17.5,17.5s-7.7,17.5-17.5,17.5H240.1c-9.8,0-17.5-7.7-17.5-17.5
		S230.3,332.5,240.1,332.5z"/>
</g>
</svg>
