<?xml version="1.0" encoding="utf-8"?>
<!-- Generator: Adobe Illustrator 18.1.0, SVG Export Plug-In . SVG Version: 6.00 Build 0)  -->
<!DOCTYPE svg PUBLIC "-//W3C//DTD SVG 1.1//EN" "http://www.w3.org/Graphics/SVG/1.1/DTD/svg11.dtd">
<svg version="1.1" id="Layer_1" xmlns="http://www.w3.org/2000/svg" xmlns:xlink="http://www.w3.org/1999/xlink" x="0px" y="0px"
	 viewBox="0 0 200 200" enable-background="new 0 0 200 200" xml:space="preserve">
<g>
	<path fill="#FFFFFF" d="M110.2,131.3c-1.1,0-2.2-0.4-3.1-1.1c-2.2-1.7-2.5-4.9-0.8-7l18.3-23.2l-18.3-23.3c-1.7-2.2-1.3-5.3,0.8-7
		c2.2-1.7,5.3-1.3,7,0.8L134.9,97c1.4,1.8,1.4,4.4,0,6.2l-20.8,26.3C113.2,130.7,111.7,131.3,110.2,131.3z"/>
</g>
<g>
	<path fill="#FFFFFF" d="M128.4,105H66c-2.8,0-5-2.2-5-5c0-2.8,2.2-5,5-5h62.4c2.8,0,5,2.2,5,5C133.4,102.8,131.1,105,128.4,105z"/>
</g>
</svg>
