<?xml version="1.0" encoding="utf-8"?>
<!-- Generator: Adobe Illustrator 18.1.1, SVG Export Plug-In . SVG Version: 6.00 Build 0)  -->
<!DOCTYPE svg PUBLIC "-//W3C//DTD SVG 1.1//EN" "http://www.w3.org/Graphics/SVG/1.1/DTD/svg11.dtd">
<svg version="1.1" id="Layer_1" xmlns="http://www.w3.org/2000/svg" xmlns:xlink="http://www.w3.org/1999/xlink" x="0px" y="0px"
	 width="700px" height="700px" viewBox="0 0 700 700" enable-background="new 0 0 700 700" xml:space="preserve">
<g id="back">
</g>
<g id="Layer_1_1_">
	<path d="M245.7,205.8c13.3,0,25.9,1.4,37.1,3.5c11.2,2.1,21,6.3,28.7,11.9c7.7,5.6,14,12.6,18.9,21.7c4.2,9.1,6.3,20.3,6.3,33.6
		c0,14-3.5,26.6-9.8,35.7c-6.3,9.8-16.1,17.5-29.4,23.8c17.5,4.9,30.8,14,39.2,26.6c8.4,12.6,12.6,28,12.6,45.5
		c0,14.7-2.8,26.6-8.4,37.1c-5.6,10.5-13.3,18.9-22.4,25.9c-9.1,7-20.3,11.9-32.2,14.7c-11.9,3.5-24.5,4.9-37.1,4.9H111.3V205.8
		H245.7z M237.3,321.3c11.2,0,20.3-2.8,27.3-7.7c7-5.6,10.5-14,10.5-25.9c0-6.3-1.4-11.9-3.5-16.1c-2.1-4.2-5.6-7.7-9.8-9.8
		c-4.2-2.1-8.4-4.2-14-4.9c-4.9-0.7-10.5-1.4-16.1-1.4h-58.8V322h64.4V321.3z M240.8,442.4c6.3,0,11.9-0.7,17.5-2.1
		c5.6-1.4,10.5-3.5,14.7-6.3s7.7-6.3,10.5-11.2c2.8-4.9,3.5-11.2,3.5-18.2c0-14.7-4.2-25.2-12.6-31.5c-8.4-6.3-18.9-9.1-32.9-9.1
		h-67.9v78.4L240.8,442.4L240.8,442.4z"/>
	<path d="M439.6,441.7c8.4,8.4,21,12.6,36.4,12.6c11.2,0,21-2.8,29.4-8.4c8.4-5.6,13.3-11.9,15.4-18.2h49.7
		c-7.7,24.5-20.3,42.7-37.1,53.2C517.3,491.4,497,497,473.9,497c-16.1,0-30.8-2.8-44.1-7.7c-13.3-4.9-23.8-12.6-33.6-22.4
		c-9.1-9.8-16.1-21-21-34.3c-4.9-13.3-7.7-28-7.7-44.1c0-15.4,2.8-30.1,7.7-43.4s12.6-25.2,21.7-34.3c9.1-9.8,20.3-17.5,33.6-23.1
		c13.3-5.6,27.3-8.4,43.4-8.4c17.5,0,32.9,3.5,46.2,10.5c13.3,7,23.8,16.1,32.2,27.3c8.4,11.2,14.7,24.5,18.2,39.2
		c3.5,14.7,4.9,30.1,4.2,46.2H425.6C425.6,417.9,431.2,433.3,439.6,441.7z M504.7,333.2c-7-7.7-18.2-11.2-32.2-11.2
		c-9.1,0-16.8,1.4-22.4,4.9c-5.6,2.8-10.5,7-14.7,11.2c-3.5,4.9-6.3,9.1-7.7,14.7c-1.4,4.9-2.1,9.8-2.8,13.3H518
		C516.6,351.4,511.7,340.9,504.7,333.2z"/>
	<rect x="413.7" y="225.4" width="115.5" height="28"/>
</g>
<g id="Layer_3" display="none">
	
		<rect x="10233.3" y="-4368.7" display="inline" fill="none" stroke="#616162" stroke-miterlimit="10" width="2180.5" height="1057"/>
	<rect x="5212.9" y="-3233.3" display="inline" fill="none" stroke="#616162" stroke-miterlimit="10" width="1813" height="1022"/>
</g>
</svg>
