<?xml version="1.0" encoding="utf-8"?>
<!-- Generator: Adobe Illustrator 18.1.0, SVG Export Plug-In . SVG Version: 6.00 Build 0)  -->
<!DOCTYPE svg PUBLIC "-//W3C//DTD SVG 1.1//EN" "http://www.w3.org/Graphics/SVG/1.1/DTD/svg11.dtd">
<svg version="1.1" xmlns="http://www.w3.org/2000/svg" xmlns:xlink="http://www.w3.org/1999/xlink" x="0px" y="0px"
	 viewBox="0 0 100 100" enable-background="new 0 0 100 100" xml:space="preserve">
<g id="back">
</g>
<g id="Layer_1">
	<path fill="#FFFFFF" d="M35.1,29.4c1.9,0,3.7,0.2,5.3,0.5c1.6,0.3,3,0.9,4.1,1.7c1.1,0.8,2,1.8,2.7,3.1c0.6,1.3,0.9,2.9,0.9,4.8
		c0,2-0.5,3.8-1.4,5.1c-0.9,1.4-2.3,2.5-4.2,3.4c2.5,0.7,4.4,2,5.6,3.8c1.2,1.8,1.8,4,1.8,6.5c0,2.1-0.4,3.8-1.2,5.3
		c-0.8,1.5-1.9,2.7-3.2,3.7c-1.3,1-2.9,1.7-4.6,2.1c-1.7,0.5-3.5,0.7-5.3,0.7H15.9V29.4H35.1z M33.9,45.9c1.6,0,2.9-0.4,3.9-1.1
		c1-0.8,1.5-2,1.5-3.7c0-0.9-0.2-1.7-0.5-2.3c-0.3-0.6-0.8-1.1-1.4-1.4c-0.6-0.3-1.2-0.6-2-0.7c-0.7-0.1-1.5-0.2-2.3-0.2h-8.4v9.5
		H33.9z M34.4,63.2c0.9,0,1.7-0.1,2.5-0.3c0.8-0.2,1.5-0.5,2.1-0.9c0.6-0.4,1.1-0.9,1.5-1.6c0.4-0.7,0.5-1.6,0.5-2.6
		c0-2.1-0.6-3.6-1.8-4.5c-1.2-0.9-2.7-1.3-4.7-1.3h-9.7v11.2H34.4z"/>
	<path fill="#FFFFFF" d="M62.8,63.1c1.2,1.2,3,1.8,5.2,1.8c1.6,0,3-0.4,4.2-1.2c1.2-0.8,1.9-1.7,2.2-2.6h7.1
		c-1.1,3.5-2.9,6.1-5.3,7.6c-2.3,1.5-5.2,2.3-8.5,2.3c-2.3,0-4.4-0.4-6.3-1.1c-1.9-0.7-3.4-1.8-4.8-3.2c-1.3-1.4-2.3-3-3-4.9
		c-0.7-1.9-1.1-4-1.1-6.3c0-2.2,0.4-4.3,1.1-6.2c0.7-1.9,1.8-3.6,3.1-4.9c1.3-1.4,2.9-2.5,4.8-3.3c1.9-0.8,3.9-1.2,6.2-1.2
		c2.5,0,4.7,0.5,6.6,1.5c1.9,1,3.4,2.3,4.6,3.9c1.2,1.6,2.1,3.5,2.6,5.6c0.5,2.1,0.7,4.3,0.6,6.6H60.8
		C60.8,59.7,61.6,61.9,62.8,63.1z M72.1,47.6c-1-1.1-2.6-1.6-4.6-1.6c-1.3,0-2.4,0.2-3.2,0.7c-0.8,0.4-1.5,1-2.1,1.6
		c-0.5,0.7-0.9,1.3-1.1,2.1c-0.2,0.7-0.3,1.4-0.4,1.9H74C73.8,50.2,73.1,48.7,72.1,47.6z"/>
	<rect x="59.1" y="32.2" fill="#FFFFFF" width="16.5" height="4"/>
</g>
<g id="Layer_3" display="none">
	<rect x="1461.9" y="-624.1" display="inline" fill="none" stroke="#616162" stroke-miterlimit="10" width="311.5" height="151"/>
	<rect x="744.7" y="-461.9" display="inline" fill="none" stroke="#616162" stroke-miterlimit="10" width="259" height="146"/>
</g>
</svg>
