<?xml version="1.0" encoding="utf-8"?>
<!-- Generator: Adobe Illustrator 18.1.1, SVG Export Plug-In . SVG Version: 6.00 Build 0)  -->
<!DOCTYPE svg PUBLIC "-//W3C//DTD SVG 1.1//EN" "http://www.w3.org/Graphics/SVG/1.1/DTD/svg11.dtd">
<svg version="1.1" id="Layer_1" xmlns="http://www.w3.org/2000/svg" xmlns:xlink="http://www.w3.org/1999/xlink" x="0px" y="0px"
	 width="700px" height="700px" viewBox="0 0 700 700" enable-background="new 0 0 700 700" xml:space="preserve">
<rect fill="#FAB93B" width="699.3" height="699.3"/>
<g id="XMLID_1_">
	<g>
		<path fill="#FFFFFF" d="M656.1,634c-4.2,3.7-11.9,3.3-17.2,7c-6.3,4.6-24.1,18.6-29.6,24.5c-5.4,5.8-7.7,2.5-13.5-1.6
			c-7.3-4.9-28.5-25.6-34.7-23.3c-6.1,2.3-15.8,32.4-18.7,36c-3.8-10-5.6-19.8-17.3-21.5c-11.9-1.8-24,9.1-34.8,6.6
			c9.4-8.2,18.4-17.3,26.4-27.5c2.1-2.6,6.1-6.3,5.9-10.1c-0.3-5.1-5.8-6-7.9-9.8c-4.5-8.4,6.8-12.1,12.8-15c7.3-3.7,13.7-4.9,13-14
			c-0.7-8.9-2.3-15,0.3-24c2.5-8.4,5.1-17,8-25.4c2.5-6.8,11.9-18.4,12.1-19.1c0.2,0.5,15.9,18.7,21.2,26.1
			c6.3,8.4,10.2,17.5,16.3,26.1c7.3,10.7,11.7,6.7,27.1,15.4C634.7,589.5,651.5,622.6,656.1,634z"/>
		<path fill="#231F20" d="M699.3,699.3H187.4l63.2-63.6c5.9-33.9,5.8-68.1,5.6-102.5c-2.6,2.1-5.4,3.5-8.4,3.5c-4,0-9.1-3.7-7.9-7.2
			c0.9-2.8,1.4-10,1.4-10.5c-0.2-8.2-9.4-6-19.2-1.8c-0.7,0.9-2.8,5.4-3.5,6.5c-3.9,6.3-14.4,0.7-18.2,5.1c-1.8,1.8-5.9,3.3-8,1.6
			c-6.7-5.6,0.5-12.2,5.8-15.9c4-2.8,8-5.2,12.1-7.9c9.3-6.1,9.3-11.4,5.8-17.3c-1.9,1.9-4,3.7-6.3,5.4c-1.2,0.9-6.6,3.3-8,1.6
			c-0.5,0.2-1.1,0.5-1.4,0.7c-4.4,1.9-9.8,1.6-10-3.7c-0.2-5.8,17.5-17.5,25-21.3c4.7-2.3,15.2-8.6,15.9-9.3
			c4.6-5.1,6.8-10.5-4.2-9.6c-5.6,0.5-10.9,1.4-16.4,1.4c-3.2,0-5.9-3-2.6-5.4c7.2-5.2,11.6-11.9,17.7-18c0.5-0.4,0.9-0.9,1.4-1.2
			c-2.8,1.6-5.6,3.3-8.4,5.1c-1.2,0.9-6.3,2.8-7.5,1.2c-4.9-6.1,3-12.1,7.9-15.2c3-2.1,6.1-4,9.6-5.6c11-4.7,16.6-10.9,22.4-19.6
			c-4.7,1.4-9.1,2.6-11.4,2.8c-1.9,0.3-4.9-1.2-3.7-3.7c1.4-2.5,15.1-17,19.2-22.4c8.9-11.7,11.6-22.1,12.2-36.6
			c0.2-3.1,5.6-4.5,7.7-2.8c7.5,6,5.1,19.6,8,27.8c2.3,6.3,14,27.5,22.9,38.5c1.2,1.4-5.2,2.8-6.1,2.8c-4.2,0.2-8.1-0.5-11.9-1.9
			c-1.4-0.5-3.5-1.6-5.8-2.5c0.4,7.5,33.8,34.1,37.3,39.2c1.9,2.6-5.1,8.2-10.5,7c-6.1-1.4-12.1-2.8-17.5-5.8
			c0.4,1.2,0.9,2.5,1.4,3.7c4.4,8.4,11.7,14,20.5,17.5c7.3,3,12.9,6.5,12.2,15.2c-0.2,1.1-1.8,1.9-2.6,2.3c-2.4,1-12.4,4.7-14.5,1.4
			c-4.7-7.5-20.3-12.2-20.6-12.1c10.9,9.1,15.6,19.1,16.3,21.7c1.1,3.5-1.4,5.2-4.2,6.5c3.1,7,1.8,8.2-3.3,10.1
			c10,12.1,25.4,16.3,34.8,29.1c1.9,2.6-4.2,4-5.6,4c-4.6,0-8.9,0.4-13.3,1.4c-1.4,0.5-5.2,1.6-5.9-0.5
			c-2.5-7.2-10.7-13.1-18.7-17.1c-0.7,5.4-1.9,10.5-4.4,14.3c-1,1.8-7.4,4-8.2,1c-0.7-1.9-5.1-9.6-6.5-8.8c-0.5,19.8-1,33.1,0.2,53
			c0.7,10.8,1.6,21.7,2.6,32.5c5.2-7,12.2-14.5,18.9-17.3c7-3,17.1-1.6,21.7-8.8c3.5-5.4,2.1-13.3,3.1-19.2
			c2.1-13.1,6.1-24.5,18.7-25.4c10.3-0.7,35.9-56.9,39.7-62.3c6.8-9.6,10.2-18.9,15.9-28.9c1.9-3.3,4-14.4,7-16.6
			c3.5-2.8,24.7,34.3,32.2,38.1c5.8,2.8,12.4,9.8,15.2,15.2c3.5,6.6,3.7,13.6,8.4,19.6c7.4,9.3,29.4,27.8,42.4,43.1
			c2.3-1.6,4.7-3.3,7-5.1c10.5-7.9,59.3-56.2,61.3-57.4c7.7,7.7,12.6,22.9,17.5,32.5c7.2,14,16.8,24.7,28.3,35.7
			c4.9,4.7,22.4,6,26.6,11.4c5.4,6.8,17.3,40.8,25.4,49.2C662.7,619.1,692.5,680.9,699.3,699.3z M638.9,641c5.2-3.7,13-3.3,17.2-7
			c-4.5-11.4-21.4-44.4-30.5-49.5c-15.4-8.8-19.8-4.7-27.1-15.4c-6.1-8.6-10-17.7-16.3-26.1c-5.2-7.3-21-25.5-21.2-26.1
			c-0.2,0.7-9.6,12.2-12.1,19.1c-3,8.4-5.6,17-8,25.4c-2.6,8.9-1,15.1-0.3,24c0.7,9.1-5.6,10.3-13,14c-6,3-17.3,6.7-12.8,15
			c2.1,3.9,7.5,4.7,7.9,9.8c0.2,3.8-3.8,7.5-5.9,10.1c-8,10.2-17,19.2-26.4,27.5c10.9,2.5,22.9-8.4,34.8-6.6
			c11.7,1.8,13.5,11.5,17.3,21.5c3-3.7,12.6-33.8,18.7-36c6.1-2.3,27.3,18.4,34.7,23.3c5.8,4,8,7.3,13.5,1.6
			C614.8,659.5,632.6,645.5,638.9,641z M462.5,543.5c0.7-10.7-9.3-15.2-15-22.4c-4.7-5.9-9.1-12.4-13.3-18.7
			c-4.2-6.1-8.8-11.7-15.1-16.1c-6.3-4.4-7.9-8.6-12.8-13.5c-2.3,1.8-7,4.4-8.6,7.2c-2.1,3.7-0.7,6.8,0.2,11.5
			c0.9,4.2,2.1,11.2,2.1,11.2s-9.1,5.4-9.1,11.7c0.2,4.7,3.5,8.2,3,13.3c-0.5,4.9-4.7,14-7.4,16.5c-4.5,4.2-24.3,6-30.3,7.7
			c7,2.4,23.1,9.1,23.5,17.3c0.4,10-7.7,13.3-7.4,23.3c0.2,6.3,22.9,4,24.5-4.9c1.2-7,8.9-21.7,17.3-24.1c10.3-3,21.7,15.4,31.7,8.9
			c3-1.9,11-12.8,7.5-18c-1.9-3.1-2.5-6.3-2.5-6.3s8.4-3.3,11.5-4V543.5z"/>
		<path fill="#FFFFFF" d="M447.5,521.1c5.8,7.2,15.8,11.7,15,22.4v0.5c-3.1,0.7-11.5,4-11.5,4s0.5,3.2,2.5,6.3
			c3.5,5.2-4.6,16.1-7.5,18c-10,6.5-21.4-11.9-31.7-8.9c-8.4,2.5-16.1,17.1-17.3,24.1c-1.6,8.9-24.3,11.2-24.5,4.9
			c-0.4-10,7.7-13.3,7.4-23.3c-0.4-8.2-16.5-14.9-23.5-17.3c6-1.8,25.7-3.5,30.3-7.7c2.6-2.5,6.8-11.5,7.4-16.5
			c0.5-5.1-2.8-8.6-3-13.3c0-6.3,9.1-11.7,9.1-11.7s-1.2-7-2.1-11.2c-0.9-4.7-2.3-7.9-0.2-11.5c1.6-2.8,6.3-5.4,8.6-7.2
			c4.9,4.9,6.5,9.1,12.8,13.5c6.3,4.4,10.9,10,15.1,16.1C438.4,508.7,442.8,515.2,447.5,521.1z"/>
	</g>
	<g>
	</g>
</g>
</svg>
