<?xml version="1.0" encoding="utf-8"?>
<!-- Generator: Adobe Illustrator 18.1.0, SVG Export Plug-In . SVG Version: 6.00 Build 0)  -->
<!DOCTYPE svg PUBLIC "-//W3C//DTD SVG 1.1//EN" "http://www.w3.org/Graphics/SVG/1.1/DTD/svg11.dtd">
<svg version="1.1" id="Layer_1" xmlns="http://www.w3.org/2000/svg" xmlns:xlink="http://www.w3.org/1999/xlink" x="0px" y="0px"
	 viewBox="0 0 400 400" enable-background="new 0 0 400 400" xml:space="preserve">
<rect x="0" y="0.4" fill="#FAB93B" width="399.6" height="399.6"/>
<path fill="#231F20" d="M120.1,301.3c-2.3,1.5-4.6,2.9-6.9,4.5c-3,2.1-7.1,5.9-3.3,9.1c1.2,1,3.6,0.1,4.6-0.9
	c2.2-2.5,8.2,0.7,10.4-2.9c0.4-0.6,1.6-3.2,2-3.7c5.6-2.4,10.9-3.7,11,1c0,0.3-0.3,4.4-0.8,6c-0.7,2,2.2,4.1,4.5,4.1
	c1.7,0,3.3-0.8,4.8-2c0.1,19.7,0.2,39.2-3.2,58.6L107.1,400h292.5c-3.9-10.5-20.9-34.4-21.9-35.4c-4.6-4.8-11.4-24.2-14.5-28.1
	c-2.4-3.1-12.4-3.8-15.2-6.5c-6.6-6.3-12.1-12.4-16.2-20.4c-2.8-5.5-5.6-14.2-10-18.6c-1.1,0.7-29,28.3-35,32.8c-1.3,1-2.7,2-4,2.9
	c-7.4-8.7-20-19.3-24.2-24.6c-2.7-3.4-2.8-7.4-4.8-11.2c-1.6-3.1-5.4-7.1-8.7-8.7c-4.3-2.2-16.4-23.4-18.4-21.8
	c-1.7,1.3-2.9,7.6-4,9.5c-3.3,5.7-5.2,11-9.1,16.5c-2.2,3.1-16.8,35.2-22.7,35.6c-7.2,0.5-9.5,7-10.7,14.5c-0.6,3.4,0.2,7.9-1.8,11
	c-2.6,4.1-8.4,3.3-12.4,5c-3.8,1.6-7.8,5.9-10.8,9.9c-0.6-6.2-1.1-12.4-1.5-18.6c-0.7-11.4-0.4-19-0.1-30.3c0.8-0.5,3.3,3.9,3.7,5
	c0.5,1.7,4.1,0.4,4.7-0.6c1.4-2.2,2.1-5.1,2.5-8.2c4.6,2.3,9.3,5.7,10.7,9.8c0.4,1.2,2.6,0.6,3.4,0.3c2.5-0.6,5-0.8,7.6-0.8
	c0.8,0,4.3-0.8,3.2-2.3c-5.4-7.3-14.2-9.7-19.9-16.6c2.9-1.1,3.7-1.8,1.9-5.8c1.6-0.7,3-1.7,2.4-3.7c-0.4-1.5-3.1-7.2-9.3-12.4
	c0.2-0.1,9.1,2.6,11.8,6.9c1.2,1.9,6.9-0.2,8.3-0.8c0.5-0.2,1.4-0.7,1.5-1.3c0.4-5-2.8-7-7-8.7c-5-2-9.2-5.2-11.7-10
	c-0.3-0.7-0.6-1.4-0.8-2.1c3.1,1.7,6.5,2.5,10,3.3c3.1,0.7,7.1-2.5,6-4c-2-2.9-21.1-18.1-21.3-22.4c1.3,0.5,2.5,1.1,3.3,1.4
	c2.2,0.8,4.4,1.2,6.8,1.1c0.5,0,4.2-0.8,3.5-1.6c-5.1-6.3-11.8-18.4-13.1-22c-1.7-4.7-0.3-12.5-4.6-15.9c-1.2-1-4.3-0.2-4.4,1.6
	c-0.4,8.3-1.9,14.2-7,20.9c-2.4,3.1-10.2,11.4-11,12.8c-0.7,1.4,1,2.3,2.1,2.1c1.3-0.1,3.8-0.8,6.5-1.6c-3.3,5-6.5,8.5-12.8,11.2
	c-2,0.9-3.8,2-5.5,3.2c-2.8,1.8-7.3,5.2-4.5,8.7c0.7,0.9,3.6-0.2,4.3-0.7c1.6-1,3.2-2,4.8-2.9c-0.3,0.2-0.5,0.5-0.8,0.7
	c-3.5,3.5-6,7.3-10.1,10.3c-1.9,1.4-0.3,3.1,1.5,3.1c3.2,0,6.2-0.5,9.4-0.8c6.3-0.5,5,2.6,2.4,5.5c-0.4,0.4-6.4,4-9.1,5.3
	c-4.3,2.2-14.4,8.9-14.3,12.2c0.1,3,3.2,3.2,5.7,2.1c0.2-0.1,0.5-0.3,0.8-0.4c0.8,1,3.9-0.4,4.6-0.9c1.3-1,2.5-2,3.6-3.1
	C125.4,294.8,125.4,297.8,120.1,301.3z M295.3,374.3c1.2-1.5,3.5-3.6,3.4-5.8c-0.2-2.9-3.3-3.4-4.5-5.6c-2.6-4.8,3.9-6.9,7.3-8.6
	c4.2-2.1,7.8-2.8,7.4-8c-0.4-5.1-1.3-8.6,0.2-13.7c1.4-4.8,2.9-9.7,4.6-14.5c1.4-3.9,6.8-10.5,6.9-10.9c0.1,0.3,9.1,10.7,12.1,14.9
	c3.6,4.8,5.8,10,9.3,14.9c4.2,6.1,6.7,3.8,15.5,8.8c5.2,2.9,14.8,21.8,17.4,28.3c-2.4,2.1-6.8,1.9-9.8,4c-3.6,2.6-13.8,10.6-16.9,14
	c-3.1,3.3-4.4,1.4-7.7-0.9c-4.2-2.8-16.3-14.6-19.8-13.3c-3.5,1.3-9,18.5-10.7,20.6c-2.2-5.7-3.2-11.3-9.9-12.3
	c-6.8-1-13.7,5.2-19.9,3.8C285.6,385.3,290.7,380.1,295.3,374.3z M220.9,322.8c1.5-1.4,3.9-6.6,4.2-9.4c0.3-2.9-1.6-4.9-1.7-7.6
	c0-3.6,5.2-6.7,5.2-6.7s-0.7-4-1.2-6.4c-0.5-2.7-1.3-4.5-0.1-6.6c0.9-1.6,3.6-3.1,4.9-4.1c2.8,2.8,3.7,5.2,7.3,7.7
	c3.6,2.5,6.2,5.7,8.6,9.2c2.4,3.6,4.9,7.3,7.6,10.7c3.3,4.1,9,6.7,8.6,12.8v0.3c-1.8,0.4-6.6,2.3-6.6,2.3s0.3,1.8,1.4,3.6
	c2,3-2.6,9.2-4.3,10.3c-5.7,3.7-12.2-6.8-18.1-5.1c-4.8,1.4-9.2,9.8-9.9,13.8c-0.9,5.1-13.9,6.4-14,2.8c-0.2-5.7,4.4-7.6,4.2-13.3
	c-0.2-4.7-9.4-8.5-13.4-9.9C207,326.2,218.3,325.2,220.9,322.8z"/>
</svg>
