<?xml version="1.0" encoding="utf-8"?>
<!-- Generator: Adobe Illustrator 18.1.1, SVG Export Plug-In . SVG Version: 6.00 Build 0)  -->
<!DOCTYPE svg PUBLIC "-//W3C//DTD SVG 1.1//EN" "http://www.w3.org/Graphics/SVG/1.1/DTD/svg11.dtd">
<svg version="1.1" id="Layer_1" xmlns="http://www.w3.org/2000/svg" xmlns:xlink="http://www.w3.org/1999/xlink" x="0px" y="0px"
	 width="800px" height="530px" viewBox="0 0 800 530" enable-background="new 0 0 800 530" xml:space="preserve">
<rect x="0.5" fill="#C9DBDE" width="800" height="530"/>
<g>
	<g>
		<g>
			<path fill="#FFD749" d="M325.7,185.4l-15,17.5c-0.5,0.6,0,1.5,0.8,1.4c5.2-1,17.4-2.9,25,0.5
				C346.3,209.3,325.7,185.4,325.7,185.4z"/>
		</g>
		<g>
			<path fill="#92654D" d="M407.2,351.9c-0.6,0-1.2-0.2-1.7-0.6c-1.2-1-1.4-2.7-0.4-3.8l14.4-17.7l-1.5-17.5c-0.1-1.5,1-2.8,2.5-3
				c1.5-0.1,2.8,1,3,2.5l1.6,18.6c0.1,0.7-0.2,1.4-0.6,2l-15.1,18.6C408.7,351.5,407.9,351.9,407.2,351.9z"/>
		</g>
		<g>
			<polygon fill="#92654D" points="425.8,351.9 423.9,348.2 388.4,348.2 379.4,351.9 			"/>
		</g>
		<g>
			<path fill="#AD785C" d="M393.6,360.1c-0.6,0-1.2-0.2-1.7-0.6c-1.2-1-1.4-2.7-0.4-3.8l14.4-17.7l-1.5-17.5c-0.1-1.5,1-2.8,2.5-3
				c1.5-0.1,2.8,1,3,2.5l1.6,18.6c0.1,0.7-0.2,1.4-0.6,2l-15.1,18.6C395.1,359.7,394.4,360.1,393.6,360.1z"/>
		</g>
		<g>
			<ellipse fill="#E3E4E5" cx="412.2" cy="304.9" rx="24.5" ry="21.8"/>
		</g>
		<g opacity="0.9">
			<path fill="#CECECD" d="M381.9,308.2c9.7,4.8,17.1,11.4,32.8,11.4c12.3,0,25-4,33.7-8.6L381.9,308.2z"/>
		</g>
		<g>
			<path fill="#CC3B38" d="M365.2,161c-1.2,0-3.9,0.3-4.8,0.9c0,0,0,0,0,0c0-5.1-4.1-9.2-9.2-9.2c-5.1,0-9.2,4.1-9.2,9.2
				c0,0,0,0,0,0c-1-0.5-4.2-0.9-5.4-0.8c-9.4,0.9-7.9,19.9-7.8,20.4l42.3,2.1c0.1-0.5,2.1-7.4,1-15.7C371.5,164.1,369,161,365.2,161
				z"/>
		</g>
		<g>
			<path fill="#FFFFFF" d="M353.1,240.9v25c0,6.5,1.5,12.9,4.4,18.7c7.8,15.2,26.7,32.5,63.3,32.5c38.3,0,59.2-33,62.5-32.8
				l36.3-1.4L364.1,178.2c-5-3.8-9.7-8.7-18.2-7.3c-12,1.9-13.7,6.6-20.2,14.3l11,19.8C341.2,213.1,353.1,231.7,353.1,240.9z"/>
		</g>
		<g>
			<path fill="#E8E8E9" d="M325.7,185.2c0,0,9.9-8.7,21.5-7.7c11.6,1.1,14.5,7.7,14.5,7.7s-21.1,26-25.1,19.6
				C329.4,193.5,325.7,185.2,325.7,185.2z"/>
		</g>
		<g>
			<circle fill="#231F20" cx="344" cy="183.5" r="2.1"/>
		</g>
		<g>
			<path fill="#E8E8E9" d="M495.5,228h-117c-5.5,0-10.3,5-10.8,11.8c-0.3,4.7,1.4,8.8,4.1,11.4c-2.2,2.1,62.8,33.1,78.8,40.6
				c6,2.9,13.1-1.8,13.8-9.7c0-0.5,0.8-4.2-1.2-7.7h12.5c5.7,0,10.8-5.4,10.9-12.5c0.1-3-0.7-5.8-2.1-8H495
				c5.4,0,10.3-4.9,10.8-11.6C506.4,234.5,501.5,228,495.5,228z"/>
		</g>
		<g>
			<polygon fill="#AD785C" points="412.2,361 410.3,357.3 374.8,357.3 365.8,361 			"/>
		</g>
		<g>
			<path fill="#CC3B38" d="M336.7,205c0,0-8.9,7.7-5.7,10.8c3.2,3.2,5.7-5.4,5.7-5.4s-6.1,11.1-1.4,11.9
				C340,223.1,341.1,213,336.7,205z"/>
		</g>
	</g>
	<g>
		<path fill="#CECECD" d="M463.2,274.6l-40.5-8.3c0,0,41.5,11.7,41.7,11.5C464.5,277.4,463.2,274.6,463.2,274.6z"/>
	</g>
	<g>
		<path fill="#CECECD" d="M484.7,254l-55.9-7.2c0,0,57.2,10.1,57.2,9.8S484.7,254,484.7,254z"/>
	</g>
</g>
</svg>
