<?xml version="1.0" encoding="utf-8"?>
<!-- Generator: Adobe Illustrator 18.1.1, SVG Export Plug-In . SVG Version: 6.00 Build 0)  -->
<!DOCTYPE svg PUBLIC "-//W3C//DTD SVG 1.1//EN" "http://www.w3.org/Graphics/SVG/1.1/DTD/svg11.dtd">
<svg version="1.1" id="Layer_1" xmlns="http://www.w3.org/2000/svg" xmlns:xlink="http://www.w3.org/1999/xlink" x="0px" y="0px"
	 width="100px" height="100px" viewBox="0 0 100 100" enable-background="new 0 0 100 100" xml:space="preserve">
<g>
	<path fill="#414042" d="M50,10.6c-21.7,0-39.4,17.7-39.4,39.4c0,21.7,17.7,39.4,39.4,39.4c21.7,0,39.4-17.7,39.4-39.4
		C89.4,28.3,71.7,10.6,50,10.6z M50,84.4C31,84.4,15.6,69,15.6,50S31,15.6,50,15.6S84.4,31,84.4,50S69,84.4,50,84.4z"/>
	<path fill="#414042" d="M65.1,34.9c-1-1-2.6-1-3.5,0L50,46.5L38.4,34.9c-1-1-2.6-1-3.5,0c-1,1-1,2.6,0,3.5L46.5,50L34.9,61.6
		c-1,1-1,2.6,0,3.5c0.5,0.5,1.1,0.7,1.8,0.7s1.3-0.2,1.8-0.7L50,53.5l11.6,11.6c0.5,0.5,1.1,0.7,1.8,0.7s1.3-0.2,1.8-0.7
		c1-1,1-2.6,0-3.5L53.5,50l11.6-11.6C66.1,37.5,66.1,35.9,65.1,34.9z"/>
</g>
</svg>
