<?xml version="1.0" encoding="utf-8"?>
<!-- Generator: Adobe Illustrator 18.1.1, SVG Export Plug-In . SVG Version: 6.00 Build 0)  -->
<!DOCTYPE svg PUBLIC "-//W3C//DTD SVG 1.1//EN" "http://www.w3.org/Graphics/SVG/1.1/DTD/svg11.dtd">
<svg version="1.1" id="ball_1_" xmlns="http://www.w3.org/2000/svg" xmlns:xlink="http://www.w3.org/1999/xlink" x="0px" y="0px"
	 width="700px" height="700px" viewBox="0 0 700 700" enable-background="new 0 0 700 700" xml:space="preserve">
<g id="ball">
	<g>
		<path d="M364,123.2c-124.6,0-226.8,101.5-226.8,226.8S239.4,576.1,364,576.1s226.8-101.5,226.8-226.8S489.3,123.2,364,123.2z
			 M513.8,227.5c26.6,32.9,43.4,74.9,43.4,120.4c-6.3-1.4-70-14-134.4-6.3c-1.4-3.5-2.8-6.3-4.2-9.8c-4.2-9.1-8.4-18.9-12.6-28
			C477.4,274.4,509.6,233.1,513.8,227.5z M364,156.1c49,0,93.8,18.2,128.1,49c-3.5,4.9-32.9,44.1-101.5,70
			c-31.5-58.1-66.5-106.4-72.1-113.4C333.2,158.2,348.6,156.1,364,156.1z M282.1,175c4.9,7,39.9,54.6,71.4,112
			c-90.3,23.8-170.1,23.8-179.2,23.8C187.6,249.9,227.5,200.2,282.1,175z M170.8,350c0-2.1,0-4.2,0-5.6c8.4,0,102.2,1.4,198.8-27.3
			c5.6,10.5,10.5,21.7,15.4,32.9c-2.8,0.7-4.9,1.4-7.7,2.1c-100.1,32.2-152.6,120.4-157.5,127.4C189.7,445.2,170.8,399.7,170.8,350z
			 M364,543.2c-44.8,0-86.1-15.4-119-40.6c3.5-7,42.7-82.6,151.9-121.1c0.7,0,0.7,0,1.4-0.7c27.3,70.7,38.5,129.5,41.3,147
			C416.5,537.6,391.3,543.2,364,543.2z M472.5,510.3c-2.1-11.9-12.6-68.6-37.8-137.9c60.9-9.8,114.1,6.3,120.4,8.4
			C546.7,434.7,515.9,480.9,472.5,510.3z"/>
	</g>
</g>
</svg>
