<?xml version="1.0" encoding="utf-8"?>
<!-- Generator: Adobe Illustrator 18.1.0, SVG Export Plug-In . SVG Version: 6.00 Build 0)  -->
<!DOCTYPE svg PUBLIC "-//W3C//DTD SVG 1.1//EN" "http://www.w3.org/Graphics/SVG/1.1/DTD/svg11.dtd">
<svg version="1.1" id="ball_1_" xmlns="http://www.w3.org/2000/svg" xmlns:xlink="http://www.w3.org/1999/xlink" x="0px" y="0px"
	 viewBox="0 0 100 100" enable-background="new 0 0 100 100" xml:space="preserve">
<g id="ball">
	<g>
		<path fill="#FFFFFF" d="M52,17.6c-17.8,0-32.4,14.5-32.4,32.4S34.2,82.3,52,82.3s32.4-14.5,32.4-32.4S69.9,17.6,52,17.6z
			 M73.4,32.5c3.8,4.7,6.2,10.7,6.2,17.2c-0.9-0.2-10-2-19.2-0.9c-0.2-0.5-0.4-0.9-0.6-1.4c-0.6-1.3-1.2-2.7-1.8-4
			C68.2,39.2,72.8,33.3,73.4,32.5z M52,22.3c7,0,13.4,2.6,18.3,7c-0.5,0.7-4.7,6.3-14.5,10c-4.5-8.3-9.5-15.2-10.3-16.2
			C47.6,22.6,49.8,22.3,52,22.3z M40.3,25c0.7,1,5.7,7.8,10.2,16c-12.9,3.4-24.3,3.4-25.6,3.4C26.8,35.7,32.5,28.6,40.3,25z
			 M24.4,50c0-0.3,0-0.6,0-0.8c1.2,0,14.6,0.2,28.4-3.9c0.8,1.5,1.5,3.1,2.2,4.7c-0.4,0.1-0.7,0.2-1.1,0.3
			c-14.3,4.6-21.8,17.2-22.5,18.2C27.1,63.6,24.4,57.1,24.4,50z M52,77.6c-6.4,0-12.3-2.2-17-5.8c0.5-1,6.1-11.8,21.7-17.3
			c0.1,0,0.1,0,0.2-0.1c3.9,10.1,5.5,18.5,5.9,21C59.5,76.8,55.9,77.6,52,77.6z M67.5,72.9c-0.3-1.7-1.8-9.8-5.4-19.7
			c8.7-1.4,16.3,0.9,17.2,1.2C78.1,62.1,73.7,68.7,67.5,72.9z"/>
	</g>
</g>
</svg>
