<?xml version="1.0" encoding="utf-8"?>
<!-- Generator: Adobe Illustrator 18.1.1, SVG Export Plug-In . SVG Version: 6.00 Build 0)  -->
<!DOCTYPE svg PUBLIC "-//W3C//DTD SVG 1.1//EN" "http://www.w3.org/Graphics/SVG/1.1/DTD/svg11.dtd">
<svg version="1.1" id="Layer_1" xmlns="http://www.w3.org/2000/svg" xmlns:xlink="http://www.w3.org/1999/xlink" x="0px" y="0px"
	 width="800px" height="530px" viewBox="0 0 800 530" enable-background="new 0 0 800 530" xml:space="preserve">
<rect x="0.5" fill="#DDD3ED" width="800" height="530"/>
<g>
	<g>
		<g>
			<path fill="#FFFFFF" d="M349.7,218.2c-4.2-4.2-8.4-6.2-12.7-6.2l-0.1,0l-0.1,0c-4.3,0-8.4,2-12.7,6.2
				c-9.8,9.6-16.4,28.3-16.5,39.8c-0.1,7.8,3,15.2,8.6,20.7c5.6,5.6,12.9,8.7,20.7,8.7c7.8-0.1,15.2-3.1,20.7-8.7
				c5.6-5.6,8.6-13,8.6-20.7C366.2,246.6,359.5,227.9,349.7,218.2z"/>
		</g>
		<g>
			<path fill="#F4F4F4" d="M330.6,278.7c-19.2-17-15.4-43.9-2.7-63.6c-1.2,0.9-2.5,1.9-3.7,3.1c-9.8,9.6-16.4,28.3-16.5,39.8
				c-0.1,7.8,3,15.2,8.6,20.7c5.6,5.6,12.9,8.7,20.7,8.7c1.9,0,3.8-0.2,5.6-0.6C338.3,284.6,334.3,281.9,330.6,278.7z"/>
		</g>
	</g>
	<g>
		<g>
			<path fill="#FFFFFF" d="M413.3,218.2c-4.2-4.2-8.4-6.2-12.7-6.2l-0.1,0l-0.1,0c-4.3,0-8.4,2-12.7,6.2
				c-9.8,9.6-16.4,28.3-16.5,39.8c-0.1,7.8,3,15.2,8.6,20.7c5.6,5.6,12.9,8.7,20.7,8.7c7.8-0.1,15.2-3.1,20.7-8.7
				c5.6-5.6,8.6-13,8.6-20.7C429.7,246.6,423,227.9,413.3,218.2z"/>
		</g>
		<g>
			<path fill="#F4F4F4" d="M394.1,278.7c-19.2-17-15.4-43.9-2.7-63.6c-1.2,0.9-2.5,1.9-3.7,3.1c-9.8,9.6-16.4,28.3-16.5,39.8
				c-0.1,7.8,3,15.2,8.6,20.7c5.6,5.6,12.9,8.7,20.7,8.7c1.9,0,3.8-0.2,5.6-0.6C401.8,284.6,397.8,281.9,394.1,278.7z"/>
		</g>
	</g>
	<g>
		<g>
			<path fill="#FFFFFF" d="M476.8,218.2c-4.2-4.2-8.4-6.2-12.7-6.2l-0.1,0l-0.1,0c-4.3,0-8.4,2-12.7,6.2
				c-9.8,9.6-16.4,28.3-16.5,39.8c-0.1,7.8,3,15.2,8.6,20.7c5.6,5.6,12.9,8.7,20.7,8.7c7.8-0.1,15.2-3.1,20.7-8.7
				c5.6-5.6,8.6-13,8.6-20.7C493.3,246.6,486.6,227.9,476.8,218.2z"/>
		</g>
		<g>
			<path fill="#F4F4F4" d="M457.7,278.7c-19.2-17-15.4-43.9-2.7-63.6c-1.2,0.9-2.5,1.9-3.7,3.1c-9.8,9.6-16.4,28.3-16.5,39.8
				c-0.1,7.8,3,15.2,8.6,20.7c5.6,5.6,12.9,8.7,20.7,8.7c1.9,0,3.8-0.2,5.6-0.6C465.4,284.6,461.3,281.9,457.7,278.7z"/>
		</g>
	</g>
	<g>
		<polygon fill="#E4D8C6" points="507.3,271 293.7,271 303.2,239 497.8,239 		"/>
	</g>
	<g>
		<polygon fill="#C4B39D" points="482.1,314.2 465.3,318 445.5,314.2 441,299 425.1,299 419.9,314.2 402.1,318 382.4,314.2 
			377.7,299 361.9,299 356.7,314.2 337,318 317.3,314.2 304,271 495.4,271 		"/>
	</g>
	<g opacity="0.6">
		<polygon fill="#B7A591" points="493,278.7 495.4,271 304,271 306.4,278.7 		"/>
	</g>
	<g opacity="0.6">
		<polygon fill="#B7A591" points="306.4,278.7 333.5,278.7 337,318 317.3,314.2 		"/>
	</g>
	<g opacity="0.6">
		<polygon fill="#B7A591" points="371.5,278.7 398.6,278.7 402.1,318 382.4,314.2 		"/>
	</g>
	<g opacity="0.6">
		<polygon fill="#B7A591" points="434.7,278.7 461.9,278.7 465.3,318 445.7,314.2 		"/>
	</g>
	<g>
		<path fill="#C4B39D" d="M438.5,239h-12.2v-4.6c0-1.1,0.9-2,2-2h8.2c1.1,0,2,0.9,2,2V239z"/>
	</g>
	<g>
		<path fill="#C4B39D" d="M374.8,239h-12.2v-4.6c0-1.1,0.9-2,2-2h8.2c1.1,0,2,0.9,2,2V239z"/>
	</g>
	<g opacity="0.8">
		<path fill="#C4B39D" d="M338,251.3h-1c1.1,0,1.9,0.9,1.9,1.9v2.6c0,1.1-0.9,1.9-1.9,1.9h-7.6c-1.1,0-1.9-0.9-1.9-1.9v-2.6
			c0-1.1,0.9-1.9,1.9-1.9h-1c-1.1,0-1.9,0.9-1.9,1.9v3.8c0,1.1,0.9,1.9,1.9,1.9h9.7c1.1,0,1.9-0.9,1.9-1.9v-3.8
			C340,252.1,339.1,251.3,338,251.3z"/>
	</g>
	<g opacity="0.8">
		<path fill="#C4B39D" d="M404.5,251.3h-1c1.1,0,1.9,0.9,1.9,1.9v2.6c0,1.1-0.9,1.9-1.9,1.9h-7.6c-1.1,0-1.9-0.9-1.9-1.9v-2.6
			c0-1.1,0.9-1.9,1.9-1.9h-1c-1.1,0-1.9,0.9-1.9,1.9v3.8c0,1.1,0.9,1.9,1.9,1.9h9.7c1.1,0,1.9-0.9,1.9-1.9v-3.8
			C406.5,252.1,405.6,251.3,404.5,251.3z"/>
	</g>
	<g opacity="0.8">
		<path fill="#C4B39D" d="M468.9,251.3h-1c1.1,0,1.9,0.9,1.9,1.9v2.6c0,1.1-0.9,1.9-1.9,1.9h-7.6c-1.1,0-1.9-0.9-1.9-1.9v-2.6
			c0-1.1,0.9-1.9,1.9-1.9h-1c-1.1,0-1.9,0.9-1.9,1.9v3.8c0,1.1,0.9,1.9,1.9,1.9h9.7c1.1,0,1.9-0.9,1.9-1.9v-3.8
			C470.8,252.1,470,251.3,468.9,251.3z"/>
	</g>
</g>
</svg>
