<?xml version="1.0" encoding="utf-8"?>
<!-- Generator: Adobe Illustrator 18.1.1, SVG Export Plug-In . SVG Version: 6.00 Build 0)  -->
<!DOCTYPE svg PUBLIC "-//W3C//DTD SVG 1.1//EN" "http://www.w3.org/Graphics/SVG/1.1/DTD/svg11.dtd">
<svg version="1.1" id="Layer_1" xmlns="http://www.w3.org/2000/svg" xmlns:xlink="http://www.w3.org/1999/xlink" x="0px" y="0px"
	 width="800px" height="530px" viewBox="0 0 800 530" enable-background="new 0 0 800 530" xml:space="preserve">
<rect x="-0.6" fill="#5D6270" width="800" height="530"/>
<g>
	<g>
		<path fill="#FFFFFF" d="M238.8,206.9c0.6,0.2,1.2-0.2,1.3-0.8c0.1-0.6-0.2-1.2-0.8-1.3c-0.6-0.2-1.2,0.2-1.3,0.8
			C237.8,206.1,238.2,206.7,238.8,206.9z"/>
	</g>
	<g>
		<g>
			<path fill="#F38582" d="M287.3,222.8c0.2-1.3,0.3-2.5,0.3-3.8c0-1.6-0.2-3.3-0.5-5.2c-1.5,0.5-2.2,1.3-2.9,2.1
				c-1,1.1-2.2,2.4-4.9,3c-2.8,0.5-4.4-0.3-5.7-1c-1.1-0.6-2.1-1.1-3.9-0.9c-1.8,0.1-2.7,0.8-3.7,1.6c-1.2,0.9-2.6,2-5.4,2
				c-2.8,0-4.2-1.1-5.4-2c-1-0.8-1.9-1.4-3.6-1.6c-1.8-0.2-2.8,0.3-3.9,0.9c-1.4,0.7-2.9,1.5-5.7,1c-2.8-0.6-3.9-1.9-5-3
				c-0.7-0.8-1.3-1.4-2.4-1.9c-0.3,1.8-0.4,3.5-0.4,5c0,1.3,0.1,2.5,0.3,3.7C251.3,229.9,270.4,229.9,287.3,222.8z"/>
		</g>
		<g>
			<path fill="#F38582" d="M251.7,235.5l0.3-0.1l0.3,0.1c2.6,1.3,5.4,2.5,8.3,3.5c2.8-1,5.6-2.2,8.3-3.5l0.3-0.1l0.3,0.1
				c2.9,0.6,5.9,1,9,1.2c1.8-1.2,3.6-2.6,5.3-4c1.4-2.2,2.4-4.6,3-7.2c-8.3,3.2-17,4.9-25.7,4.9c-8.8,0-17.7-1.7-26-5
				c0.7,2.9,1.9,5.6,3.6,8.2c1.4,1.1,2.8,2.1,4.3,3.1C245.8,236.6,248.8,236.1,251.7,235.5z"/>
		</g>
		<g>
			<path fill="#F38582" d="M238.8,214.3c0.9,1,1.6,1.8,3.6,2.3c1.9,0.3,2.9-0.2,4.1-0.8c1.3-0.7,2.7-1.4,5.2-1.1
				c2.5,0.2,3.8,1.2,4.9,2.1c1.1,0.8,1.9,1.5,3.9,1.5c2,0,2.8-0.7,3.9-1.5c1.1-0.9,2.4-1.9,4.9-2.1c2.5-0.3,3.9,0.5,5.2,1.1
				c1.2,0.6,2.2,1.1,4.2,0.8c1.9-0.4,2.7-1.2,3.6-2.2c0.9-1.1,2-2.2,4.3-2.9c-0.9-4.4-2.4-9.2-4.4-13.8c-7,2.1-14.1,3.2-21.2,3.2
				c-7.2,0-14.4-1.1-21.3-3.2l0.3-1.1c-2.3,5-4.1,10.3-5,15.1C237,212.3,238,213.3,238.8,214.3z M281.9,204.8
				c0.6-0.2,1.2,0.2,1.3,0.8c0.2,0.6-0.2,1.2-0.8,1.3c-0.6,0.2-1.2-0.2-1.3-0.8C281,205.5,281.3,204.9,281.9,204.8z M271.3,206.8
				c0.6-0.1,1.1,0.3,1.2,0.9c0.1,0.6-0.3,1.1-1,1.2c-0.6,0.1-1.2-0.3-1.2-0.9C270.3,207.4,270.7,206.9,271.3,206.8z M260.6,207.5
				c0.6,0,1.1,0.5,1.1,1.1c0,0.6-0.5,1.1-1.1,1.1c-0.6,0-1.1-0.5-1.1-1.1C259.5,208,260,207.5,260.6,207.5z M249.9,206.8
				c0.6,0.1,1,0.6,1,1.2c-0.1,0.6-0.6,1-1.2,0.9c-0.6-0.1-1-0.6-1-1.2C248.8,207.2,249.3,206.7,249.9,206.8z M238,205.5
				c0.2-0.6,0.8-0.9,1.3-0.8c0.6,0.2,0.9,0.7,0.8,1.3c-0.1,0.6-0.7,0.9-1.3,0.8C238.2,206.7,237.8,206.1,238,205.5z"/>
		</g>
		<g>
			<path fill="#F38582" d="M281.2,195.4c-0.7-1.4-1.4-2.7-2.2-4.1c-1.6,0.1-2.5-0.4-3.4-0.7c-1-0.4-1.8-0.8-3.4-0.7
				c-1.6,0.1-2.4,0.6-3.3,1.2c-0.9,0.6-2,1.3-4,1.4c-2.1,0.1-3.1-0.6-4.1-1.1c-0.9-0.5-1.7-1-3.3-1c-1.6,0-2.4,0.4-3.4,0.9
				c-1,0.5-2.1,1.1-4.1,0.9c-2-0.2-3.1-0.9-3.9-1.6c-0.6-0.5-1.2-0.9-2.2-1.2c-1.2,1.9-2.4,3.9-3.4,6
				C253.9,199.4,267.9,199.4,281.2,195.4z"/>
		</g>
		<g>
			<path fill="#F38582" d="M278.6,238.6c-3.1-0.2-6.2-0.6-9.2-1.2c-2.7,1.4-5.6,2.6-8.5,3.5l-0.3,0.1l-0.3-0.1
				c-2.9-1-5.8-2.2-8.5-3.6c-3,0.6-6,1-9.1,1.2c5,4.6,11.4,7.2,18.1,7.3c6.8,0,13.3-2.7,18.3-7.4l-0.2,0.1L278.6,238.6z"/>
		</g>
		<g>
			<path fill="#F38582" d="M250.2,190.8c1.7,0.1,2.5-0.3,3.4-0.8c1-0.5,2-1.1,4-1c2,0.1,3,0.7,4,1.2c0.9,0.5,1.7,1,3.4,0.9
				c1.7,0,2.4-0.5,3.3-1.1c0.9-0.6,1.9-1.3,3.9-1.4c2-0.2,3.1,0.3,4.1,0.8c0.6,0.3,1.2,0.5,2.1,0.6c-1.7-2.8-3.7-5.3-5.7-7.3
				c-3.9-3.8-7.6-5.7-11.5-5.7l-0.1,0l-0.1,0c-4,0-7.6,1.8-11.6,5.7c-1.6,1.6-3.1,3.5-4.6,5.5c1,0.3,1.6,0.8,2.2,1.3
				C247.8,190.1,248.5,190.7,250.2,190.8z"/>
		</g>
		<g>
			<path fill="#FFFFFF" d="M237,215.9c1,1.1,2.2,2.4,5,3c2.8,0.5,4.3-0.3,5.7-1c1.1-0.6,2.1-1.1,3.9-0.9c1.8,0.1,2.6,0.8,3.6,1.6
				c1.2,0.9,2.6,2,5.4,2c2.8,0,4.2-1.1,5.4-2c1-0.8,1.9-1.4,3.7-1.6c1.8-0.2,2.8,0.3,3.9,0.9c1.4,0.7,2.9,1.5,5.7,1
				c2.8-0.6,3.9-1.9,4.9-3c0.8-0.9,1.5-1.6,2.9-2.1c-0.1-0.8-0.3-1.6-0.4-2.4c-2.3,0.7-3.4,1.9-4.3,2.9c-0.9,1-1.6,1.8-3.6,2.2
				c-2,0.3-3-0.1-4.2-0.8c-1.3-0.6-2.7-1.4-5.2-1.1c-2.5,0.2-3.8,1.2-4.9,2.1c-1.1,0.8-1.9,1.5-3.9,1.5c-2,0-2.9-0.7-3.9-1.5
				c-1.1-0.9-2.4-1.9-4.9-2.1c-2.5-0.3-3.9,0.5-5.2,1.1c-1.2,0.6-2.2,1.1-4.1,0.8c-2-0.4-2.7-1.2-3.6-2.3c-0.9-1-1.8-2.1-3.8-2.7
				c-0.2,0.8-0.3,1.6-0.4,2.4C235.7,214.5,236.4,215.1,237,215.9z"/>
		</g>
		<g>
			<path fill="#F0634E" d="M237,215.9c1,1.1,2.2,2.4,5,3c2.8,0.5,4.3-0.3,5.7-1c1.1-0.6,2.1-1.1,3.9-0.9c1.8,0.1,2.6,0.8,3.6,1.6
				c1.2,0.9,2.6,2,5.4,2c2.8,0,4.2-1.1,5.4-2c1-0.8,1.9-1.4,3.7-1.6c1.8-0.2,2.8,0.3,3.9,0.9c1.4,0.7,2.9,1.5,5.7,1
				c2.8-0.6,3.9-1.9,4.9-3c0.8-0.9,1.5-1.6,2.9-2.1c-0.1-0.8-0.3-1.6-0.4-2.4c-2.3,0.7-3.4,1.9-4.3,2.9c-0.9,1-1.6,1.8-3.6,2.2
				c-2,0.3-3-0.1-4.2-0.8c-1.3-0.6-2.7-1.4-5.2-1.1c-2.5,0.2-3.8,1.2-4.9,2.1c-1.1,0.8-1.9,1.5-3.9,1.5c-2,0-2.9-0.7-3.9-1.5
				c-1.1-0.9-2.4-1.9-4.9-2.1c-2.5-0.3-3.9,0.5-5.2,1.1c-1.2,0.6-2.2,1.1-4.1,0.8c-2-0.4-2.7-1.2-3.6-2.3c-0.9-1-1.8-2.1-3.8-2.7
				c-0.2,0.8-0.3,1.6-0.4,2.4C235.7,214.5,236.4,215.1,237,215.9z"/>
		</g>
		<g>
			<path fill="#5BCAF4" d="M244.7,188.2c-0.3,0.4-0.5,0.8-0.7,1.1c0,0,0,0,0,0C244.2,189,244.4,188.6,244.7,188.2
				C244.7,188.2,244.7,188.2,244.7,188.2z"/>
		</g>
		<g>
			<path fill="#FFFFFF" d="M250,192.1c2,0.2,3.2-0.4,4.1-0.9c0.9-0.5,1.7-0.9,3.4-0.9c1.7,0,2.4,0.5,3.3,1c0.9,0.6,2,1.2,4.1,1.1
				c2.1-0.1,3.1-0.7,4-1.4c0.9-0.6,1.6-1.1,3.3-1.2c1.6-0.1,2.5,0.2,3.4,0.7c0.9,0.4,1.8,0.8,3.4,0.7c-0.3-0.4-0.5-0.9-0.8-1.3
				c-0.8-0.1-1.4-0.3-2.1-0.6c-1-0.4-2.1-1-4.1-0.8c-2,0.2-3,0.8-3.9,1.4c-0.9,0.6-1.6,1.1-3.3,1.1c-1.7,0-2.5-0.4-3.4-0.9
				c-0.9-0.6-2-1.2-4-1.2c-2-0.1-3.1,0.5-4,1c-0.9,0.5-1.7,0.9-3.4,0.8c-1.7-0.1-2.4-0.7-3.2-1.3c-0.6-0.4-1.2-0.9-2.2-1.3
				c-0.3,0.4-0.5,0.7-0.7,1.1c0.9,0.3,1.5,0.7,2.2,1.2C247,191.2,248,191.9,250,192.1z"/>
		</g>
		<g>
			<path fill="#FFFFFF" d="M250,192.1c2,0.2,3.2-0.4,4.1-0.9c0.9-0.5,1.7-0.9,3.4-0.9c1.7,0,2.4,0.5,3.3,1c0.9,0.6,2,1.2,4.1,1.1
				c2.1-0.1,3.1-0.7,4-1.4c0.9-0.6,1.6-1.1,3.3-1.2c1.6-0.1,2.5,0.2,3.4,0.7c0.9,0.4,1.8,0.8,3.4,0.7c-0.3-0.4-0.5-0.9-0.8-1.3
				c-0.8-0.1-1.4-0.3-2.1-0.6c-1-0.4-2.1-1-4.1-0.8c-2,0.2-3,0.8-3.9,1.4c-0.9,0.6-1.6,1.1-3.3,1.1c-1.7,0-2.5-0.4-3.4-0.9
				c-0.9-0.6-2-1.2-4-1.2c-2-0.1-3.1,0.5-4,1c-0.9,0.5-1.7,0.9-3.4,0.8c-1.7-0.1-2.4-0.7-3.2-1.3c-0.6-0.4-1.2-0.9-2.2-1.3
				c-0.3,0.4-0.5,0.7-0.7,1.1c0.9,0.3,1.5,0.7,2.2,1.2C247,191.2,248,191.9,250,192.1z"/>
		</g>
		<g>
			<path fill="#F0634E" d="M261,200.8c7.1,0,14.3-1.1,21.2-3.2c-0.3-0.7-0.7-1.5-1-2.2c-13.3,4-27.4,4-40.7-0.1
				c-0.2,0.4-0.4,0.8-0.5,1.1l-0.5,1.1C246.5,199.7,253.8,200.8,261,200.8z"/>
		</g>
		<g>
			<path fill="#FFFFFF" d="M286.8,225.6c0.2-0.9,0.4-1.9,0.6-2.8c-16.9,7.1-36,7.1-52.9-0.1c0.1,1,0.3,1.9,0.5,2.8
				c8.4,3.3,17.2,5,26,5C269.8,230.5,278.5,228.9,286.8,225.6z"/>
		</g>
		<g>
			<path fill="#FFFFFF" d="M282.4,206.9c0.6-0.2,1-0.8,0.8-1.3c-0.2-0.6-0.8-0.9-1.3-0.8c-0.6,0.2-0.9,0.7-0.8,1.3
				C281.2,206.7,281.8,207,282.4,206.9z"/>
		</g>
		<g>
			<path fill="#FFFFFF" d="M271.6,209c0.6-0.1,1-0.6,1-1.2c-0.1-0.6-0.6-1-1.2-0.9c-0.6,0.1-1,0.6-1,1.2
				C270.4,208.6,271,209,271.6,209z"/>
		</g>
		<g>
			<path fill="#FFFFFF" d="M260.6,209.7c0.6,0,1.1-0.5,1.1-1.1c0-0.6-0.5-1.1-1.1-1.1c-0.6,0-1.1,0.5-1.1,1.1
				C259.5,209.2,260,209.7,260.6,209.7z"/>
		</g>
		<g>
			<path fill="#FFFFFF" d="M249.6,209c0.6,0.1,1.2-0.3,1.2-0.9c0.1-0.6-0.4-1.1-1-1.2c-0.6-0.1-1.1,0.3-1.2,0.9
				C248.6,208.3,249,208.9,249.6,209z"/>
		</g>
		<g>
			<path fill="#F0634E" d="M283.8,232.8c-1.7,1.4-3.5,2.7-5.3,4c-3-0.2-6-0.6-9-1.2l-0.3-0.1l-0.3,0.1c-2.7,1.3-5.4,2.5-8.3,3.5
				c-2.8-1-5.6-2.2-8.3-3.5l-0.3-0.1l-0.3,0.1c-2.9,0.6-5.9,1-8.9,1.2c-1.5-1-2.9-2-4.3-3.1c1,1.5,2.1,2.9,3.4,4.2
				c0.2,0.2,0.5,0.5,0.8,0.7c3.1-0.2,6.1-0.6,9.1-1.2c2.7,1.4,5.6,2.6,8.5,3.6l0.3,0.1l0.3-0.1c2.9-1,5.8-2.2,8.5-3.5
				c3,0.6,6.1,1,9.2,1.2l0.3,0l0.2-0.1c0.2-0.2,0.4-0.4,0.6-0.6C281.3,236.3,282.6,234.6,283.8,232.8z"/>
		</g>
		<g opacity="0.25">
			<path fill="#F0634E" d="M255.1,237.9c-17.5-15.5-14.1-40-2.5-58c-1.1,0.8-2.2,1.7-3.4,2.8c-8.9,8.8-15,25.8-15.1,36.2
				c-0.1,7.1,2.7,13.8,7.8,18.9c5.1,5.1,11.8,7.9,18.9,7.9c1.7,0,3.4-0.2,5.1-0.5C262.1,243.3,258.4,240.8,255.1,237.9z"/>
		</g>
	</g>
</g>
<g>
	<g>
		<path fill="#65C19B" d="M471.7,222.6c0.2-1.3,0.3-2.6,0.3-3.9c0-1.6-0.2-3.4-0.5-5.2c-1.5,0.5-2.2,1.3-3,2.1c-1,1.2-2.2,2.5-5,3
			c-2.8,0.5-4.4-0.3-5.8-1c-1.1-0.6-2.1-1.1-3.9-0.9c-1.8,0.1-2.7,0.8-3.7,1.6c-1.2,0.9-2.6,2-5.4,2c-2.9,0-4.2-1.1-5.4-2
			c-1-0.8-1.9-1.4-3.7-1.6c-1.8-0.2-2.8,0.3-3.9,0.9c-1.4,0.7-2.9,1.5-5.7,1c-2.8-0.6-4-1.9-5-3c-0.7-0.8-1.3-1.5-2.4-1.9
			c-0.3,1.8-0.4,3.5-0.4,5c0,1.3,0.1,2.5,0.3,3.7C435.5,229.7,454.7,229.8,471.7,222.6z"/>
	</g>
	<g>
		<path fill="#65C19B" d="M435.9,235.4l0.3-0.1l0.3,0.1c2.7,1.4,5.5,2.5,8.3,3.5c2.9-1,5.7-2.2,8.3-3.5l0.3-0.1l0.3,0.1
			c2.9,0.6,6,1,9,1.2c1.9-1.2,3.6-2.6,5.3-4c1.4-2.3,2.4-4.7,3-7.2c-8.3,3.3-17.1,4.9-25.9,4.9c-8.9,0-17.8-1.7-26.2-5
			c0.7,2.9,1.9,5.7,3.6,8.2c1.4,1.1,2.8,2.2,4.3,3.1C430,236.5,433,236.1,435.9,235.4z"/>
	</g>
	<g>
		<path fill="#65C19B" d="M422.9,214.1c0.9,1,1.6,1.9,3.6,2.3c2,0.3,2.9-0.2,4.2-0.8c1.3-0.7,2.7-1.4,5.3-1.1
			c2.5,0.2,3.8,1.2,4.9,2.1c1.1,0.8,2,1.5,4,1.5c2,0,2.8-0.7,3.9-1.5c1.1-0.9,2.4-1.9,4.9-2.1c2.5-0.3,3.9,0.5,5.2,1.1
			c1.2,0.6,2.2,1.1,4.2,0.8c2-0.4,2.7-1.2,3.6-2.3c0.9-1.1,2-2.2,4.3-2.9c-0.9-4.4-2.4-9.3-4.5-13.9c-7,2.1-14.2,3.2-21.4,3.2
			c-7.2,0-14.4-1.1-21.5-3.2l0.3-1.1c-2.3,5-4.1,10.4-5,15.2C421.1,212,422.1,213.1,422.9,214.1z M466.3,204.5
			c0.6-0.2,1.2,0.2,1.4,0.8c0.2,0.6-0.2,1.2-0.8,1.3c-0.6,0.2-1.2-0.2-1.4-0.8C465.3,205.2,465.7,204.6,466.3,204.5z M455.6,206.5
			c0.6-0.1,1.2,0.3,1.2,0.9c0.1,0.6-0.3,1.1-1,1.2c-0.6,0.1-1.2-0.3-1.2-0.9C454.6,207.2,455,206.6,455.6,206.5z M444.9,207.2
			c0.6,0,1.1,0.5,1.1,1.1c0,0.6-0.5,1.1-1.1,1.1c-0.6,0-1.1-0.5-1.1-1.1C443.8,207.7,444.3,207.2,444.9,207.2z M434.1,206.5
			c0.6,0.1,1,0.6,1,1.2c-0.1,0.6-0.6,1-1.2,0.9c-0.6-0.1-1-0.6-1-1.2C432.9,206.9,433.5,206.5,434.1,206.5z M422.1,205.3
			c0.2-0.6,0.8-0.9,1.4-0.8c0.6,0.2,1,0.7,0.8,1.3c-0.1,0.6-0.7,0.9-1.4,0.8C422.3,206.4,421.9,205.8,422.1,205.3z"/>
	</g>
	<g>
		<path fill="#65C19B" d="M465.6,195.1c-0.7-1.4-1.4-2.8-2.2-4.1c-1.6,0.1-2.6-0.4-3.4-0.7c-1-0.4-1.8-0.8-3.5-0.7
			c-1.7,0.1-2.4,0.6-3.3,1.2c-0.9,0.6-2,1.3-4,1.4c-2.1,0.1-3.2-0.6-4.1-1.1c-0.9-0.5-1.7-1-3.3-1.1c-1.7,0-2.5,0.4-3.4,0.9
			c-1,0.5-2.1,1.1-4.2,0.9c-2.1-0.2-3.1-0.9-4-1.6c-0.6-0.5-1.2-0.9-2.2-1.2c-1.2,1.9-2.4,3.9-3.4,6
			C438.1,199.1,452.2,199.1,465.6,195.1z"/>
	</g>
	<g>
		<path fill="#65C19B" d="M463,238.5c-3.1-0.2-6.2-0.6-9.3-1.2c-2.8,1.4-5.6,2.6-8.6,3.6l-0.3,0.1l-0.3-0.1c-2.9-1-5.8-2.2-8.6-3.6
			c-3,0.6-6,1-9.1,1.2c5,4.7,11.4,7.3,18.3,7.3c6.9,0,13.4-2.7,18.4-7.4l-0.2,0.1L463,238.5z"/>
	</g>
	<g>
		<path fill="#65C19B" d="M434.3,190.4c1.7,0.1,2.5-0.3,3.4-0.8c1-0.5,2.1-1.1,4.1-1c2,0.1,3.1,0.7,4,1.2c0.9,0.5,1.7,1,3.4,1
			c1.7,0,2.4-0.6,3.3-1.1c0.9-0.6,1.9-1.3,3.9-1.5c2-0.2,3.1,0.3,4.1,0.8c0.6,0.3,1.2,0.5,2.1,0.6c-1.7-2.8-3.7-5.3-5.8-7.4
			c-3.9-3.8-7.7-5.7-11.6-5.7l-0.1,0l-0.1,0c-4,0-7.7,1.8-11.6,5.7c-1.6,1.6-3.2,3.5-4.6,5.6c1,0.3,1.6,0.8,2.2,1.3
			C431.9,189.8,432.7,190.3,434.3,190.4z"/>
	</g>
	<g>
		<path fill="#FFFFFF" d="M421.1,215.7c1,1.2,2.2,2.5,5,3c2.8,0.5,4.3-0.3,5.7-1c1.1-0.6,2.1-1.1,3.9-0.9c1.8,0.1,2.7,0.8,3.7,1.6
			c1.2,0.9,2.6,2,5.4,2c2.8,0,4.2-1.1,5.4-2c1-0.8,1.9-1.4,3.7-1.6c1.8-0.2,2.8,0.3,3.9,0.9c1.4,0.7,2.9,1.5,5.8,1
			c2.8-0.6,3.9-1.9,5-3c0.8-0.9,1.5-1.6,3-2.1c-0.1-0.8-0.3-1.6-0.4-2.4c-2.3,0.7-3.4,1.9-4.3,2.9c-0.9,1-1.7,1.9-3.6,2.3
			c-2,0.4-3-0.1-4.2-0.8c-1.3-0.7-2.7-1.4-5.2-1.1c-2.5,0.2-3.8,1.2-4.9,2.1c-1.1,0.8-2,1.5-3.9,1.5c-2,0-2.9-0.7-4-1.5
			c-1.1-0.9-2.4-1.9-4.9-2.1c-2.5-0.3-4,0.5-5.3,1.1c-1.2,0.6-2.2,1.1-4.2,0.8c-2-0.4-2.7-1.2-3.6-2.3c-0.9-1-1.8-2.1-3.8-2.8
			c-0.2,0.8-0.3,1.6-0.4,2.4C419.8,214.2,420.4,214.9,421.1,215.7z"/>
	</g>
	<g>
		<path fill="#00A999" d="M421.1,215.7c1,1.2,2.2,2.5,5,3c2.8,0.5,4.3-0.3,5.7-1c1.1-0.6,2.1-1.1,3.9-0.9c1.8,0.1,2.7,0.8,3.7,1.6
			c1.2,0.9,2.6,2,5.4,2c2.8,0,4.2-1.1,5.4-2c1-0.8,1.9-1.4,3.7-1.6c1.8-0.2,2.8,0.3,3.9,0.9c1.4,0.7,2.9,1.5,5.8,1
			c2.8-0.6,3.9-1.9,5-3c0.8-0.9,1.5-1.6,3-2.1c-0.1-0.8-0.3-1.6-0.4-2.4c-2.3,0.7-3.4,1.9-4.3,2.9c-0.9,1-1.7,1.9-3.6,2.3
			c-2,0.4-3-0.1-4.2-0.8c-1.3-0.7-2.7-1.4-5.2-1.1c-2.5,0.2-3.8,1.2-4.9,2.1c-1.1,0.8-2,1.5-3.9,1.5c-2,0-2.9-0.7-4-1.5
			c-1.1-0.9-2.4-1.9-4.9-2.1c-2.5-0.3-4,0.5-5.3,1.1c-1.2,0.6-2.2,1.1-4.2,0.8c-2-0.4-2.7-1.2-3.6-2.3c-0.9-1-1.8-2.1-3.8-2.8
			c-0.2,0.8-0.3,1.6-0.4,2.4C419.8,214.2,420.4,214.9,421.1,215.7z"/>
	</g>
	<g>
		<path fill="#5BCAF4" d="M428.8,187.8c-0.3,0.4-0.5,0.8-0.7,1.1c0,0,0,0,0,0C428.3,188.6,428.6,188.2,428.8,187.8
			C428.8,187.8,428.8,187.8,428.8,187.8z"/>
	</g>
	<g>
		<path fill="#FFFFFF" d="M434.2,191.7c2.1,0.2,3.2-0.4,4.2-0.9c0.9-0.5,1.7-0.9,3.4-0.9c1.7,0,2.4,0.5,3.3,1.1
			c0.9,0.6,2,1.2,4.1,1.1c2.1-0.1,3.1-0.8,4-1.4c0.9-0.6,1.6-1.1,3.3-1.2c1.7-0.1,2.5,0.2,3.5,0.7c0.9,0.4,1.9,0.8,3.4,0.7
			c-0.3-0.4-0.5-0.9-0.8-1.3c-0.8-0.1-1.4-0.3-2.1-0.6c-1-0.5-2.1-1-4.1-0.8c-2,0.2-3,0.8-3.9,1.5c-0.9,0.6-1.6,1.1-3.3,1.1
			c-1.7,0-2.5-0.4-3.4-1c-0.9-0.6-2-1.2-4-1.2c-2-0.1-3.1,0.5-4.1,1c-0.9,0.5-1.8,0.9-3.4,0.8c-1.7-0.1-2.4-0.7-3.3-1.3
			c-0.6-0.4-1.3-0.9-2.2-1.3c-0.3,0.4-0.5,0.8-0.7,1.1c1,0.3,1.5,0.7,2.2,1.2C431.2,190.8,432.2,191.6,434.2,191.7z"/>
	</g>
	<g>
		<path fill="#FFFFFF" d="M434.2,191.7c2.1,0.2,3.2-0.4,4.2-0.9c0.9-0.5,1.7-0.9,3.4-0.9c1.7,0,2.4,0.5,3.3,1.1
			c0.9,0.6,2,1.2,4.1,1.1c2.1-0.1,3.1-0.8,4-1.4c0.9-0.6,1.6-1.1,3.3-1.2c1.7-0.1,2.5,0.2,3.5,0.7c0.9,0.4,1.9,0.8,3.4,0.7
			c-0.3-0.4-0.5-0.9-0.8-1.3c-0.8-0.1-1.4-0.3-2.1-0.6c-1-0.5-2.1-1-4.1-0.8c-2,0.2-3,0.8-3.9,1.5c-0.9,0.6-1.6,1.1-3.3,1.1
			c-1.7,0-2.5-0.4-3.4-1c-0.9-0.6-2-1.2-4-1.2c-2-0.1-3.1,0.5-4.1,1c-0.9,0.5-1.8,0.9-3.4,0.8c-1.7-0.1-2.4-0.7-3.3-1.3
			c-0.6-0.4-1.3-0.9-2.2-1.3c-0.3,0.4-0.5,0.8-0.7,1.1c1,0.3,1.5,0.7,2.2,1.2C431.2,190.8,432.2,191.6,434.2,191.7z"/>
	</g>
	<g>
		<path fill="#00A999" d="M445.3,200.5c7.2,0,14.4-1.1,21.4-3.2c-0.3-0.7-0.7-1.5-1-2.2c-13.4,4-27.6,4-40.9-0.1
			c-0.2,0.4-0.4,0.8-0.5,1.1l-0.5,1.1C430.7,199.4,438.1,200.5,445.3,200.5z"/>
	</g>
	<g>
		<path fill="#FFFFFF" d="M471.2,225.5c0.2-0.9,0.4-1.9,0.6-2.8c-17,7.1-36.2,7.1-53.2-0.1c0.1,1,0.3,1.9,0.5,2.8
			c8.4,3.4,17.3,5,26.2,5C454.1,230.4,462.9,228.7,471.2,225.5z"/>
	</g>
	<g>
		<path fill="#FFFFFF" d="M422.9,206.6c0.6,0.2,1.2-0.2,1.4-0.8c0.1-0.6-0.2-1.2-0.8-1.3c-0.6-0.2-1.2,0.2-1.4,0.8
			C421.9,205.8,422.3,206.4,422.9,206.6z"/>
	</g>
	<g>
		<path fill="#FFFFFF" d="M466.8,206.6c0.6-0.2,1-0.8,0.8-1.3c-0.2-0.6-0.8-0.9-1.4-0.8c-0.6,0.2-1,0.7-0.8,1.3
			C465.6,206.4,466.2,206.8,466.8,206.6z"/>
	</g>
	<g>
		<path fill="#FFFFFF" d="M455.9,208.7c0.6-0.1,1-0.6,1-1.2c-0.1-0.6-0.6-1-1.2-0.9c-0.6,0.1-1,0.6-1,1.2
			C454.7,208.4,455.3,208.8,455.9,208.7z"/>
	</g>
	<g>
		<path fill="#FFFFFF" d="M444.9,209.4c0.6,0,1.1-0.5,1.1-1.1c0-0.6-0.5-1.1-1.1-1.1c-0.6,0-1.1,0.5-1.1,1.1
			C443.7,208.9,444.2,209.4,444.9,209.4z"/>
	</g>
	<g>
		<path fill="#FFFFFF" d="M433.8,208.7c0.6,0.1,1.2-0.3,1.2-0.9c0.1-0.6-0.4-1.1-1-1.2c-0.6-0.1-1.2,0.3-1.2,0.9
			C432.8,208.1,433.2,208.6,433.8,208.7z"/>
	</g>
	<g>
		<path fill="#00A999" d="M468.1,232.7c-1.7,1.4-3.5,2.8-5.3,4c-3-0.2-6.1-0.6-9-1.2l-0.3-0.1l-0.3,0.1c-2.7,1.4-5.5,2.5-8.3,3.5
			c-2.9-1-5.7-2.2-8.3-3.5l-0.3-0.1l-0.3,0.1c-2.9,0.6-6,1-9,1.2c-1.5-1-2.9-2-4.3-3.1c1,1.5,2.2,2.9,3.5,4.2
			c0.2,0.2,0.5,0.5,0.8,0.7c3.1-0.2,6.1-0.6,9.1-1.2c2.7,1.4,5.6,2.6,8.6,3.6l0.3,0.1l0.3-0.1c2.9-1,5.8-2.2,8.6-3.6
			c3,0.6,6.1,1,9.3,1.2l0.3,0l0.2-0.1c0.2-0.2,0.4-0.4,0.6-0.6C465.7,236.2,467,234.5,468.1,232.7z"/>
	</g>
	<g opacity="0.25">
		<path fill="#00A999" d="M439.3,237.8c-17.6-15.6-14.2-40.2-2.5-58.4c-1.1,0.8-2.3,1.7-3.4,2.9c-9,8.9-15.1,26-15.2,36.5
			c-0.1,7.1,2.7,13.9,7.9,19c5.1,5.1,11.9,8,19,8c1.7,0,3.5-0.2,5.1-0.5C446.4,243.2,442.7,240.8,439.3,237.8z"/>
	</g>
</g>
<g>
	<g>
		<path fill="#A1BABC" d="M271.8,292.1c-3.9-3.7-7.6-5.5-11.5-5.5l-0.1,0l-0.1,0c-3.9,0-7.5,1.9-11.4,5.7
			c-8.8,8.8-14.6,25.8-14.6,36.1c0,7,2.8,13.7,7.9,18.7c5.1,5,11.8,7.7,18.8,7.7c7.1-0.1,13.7-3,18.7-8.1c5-5.1,7.7-11.8,7.5-18.8
			C287,317.6,280.7,300.7,271.8,292.1z"/>
	</g>
	<g>
		<path fill="#93B0AF" d="M255.1,347c-17.5-15.1-14.4-39.5-3-57.5c-1.1,0.8-2.2,1.7-3.3,2.9c-8.8,8.8-14.6,25.8-14.6,36.1
			c0,7,2.8,13.7,7.9,18.7c5.1,5,11.8,7.7,18.8,7.7c1.7,0,3.4-0.2,5.1-0.6C262.1,352.2,258.5,349.9,255.1,347z"/>
	</g>
	<g>
		<g>
			<path fill="#6B8281" d="M253.5,328.2c0,0,0,0.1,0,0.1c0.1,0.2,0.7,0.1,0.8,0.1c0.1,0-0.4-0.4-0.7-0.4
				C253.5,328,253.5,328.1,253.5,328.2z"/>
		</g>
		<g>
			<path fill="#6B8281" d="M269.5,303.7c0,0,0,0.1,0,0.1c0.1,0.2,0.2,0.4,0.3,0.6c0,0,0.1-0.1,0.1-0.1c0.1-0.1,0.1-0.2,0.2-0.3
				c0.1-0.1,0.1,0,0.2,0c0.1,0,0.2,0,0.2,0c0.1-0.1,0.1-0.2,0.1-0.3c0-0.1-0.1-0.1-0.1-0.1c-0.3,0-0.6,0-0.9,0
				C269.5,303.6,269.5,303.7,269.5,303.7z"/>
		</g>
		<g>
			<path fill="#6B8281" d="M262.8,328.5c0,0,0,0.1,0,0.1c-0.1,0.2-0.8,0.1-0.8,0.1c-0.1,0-0.2,0-0.2,0c-0.1,0-0.1-0.2-0.1-0.2
				c0,0,0.1-0.1,0.1-0.1C262,328.4,262.4,328.4,262.8,328.5C262.7,328.4,262.7,328.5,262.8,328.5z"/>
		</g>
		<g>
			<path fill="#6B8281" d="M250.6,325.8c0,0,0,0.1,0,0.1c0.1,0.2,0.1,0.3,0.2,0.5c0,0,0-0.1,0-0.1c0-0.1,0-0.2,0.1-0.2
				c0,0,0.1,0,0.1,0c0,0,0.1,0,0.1,0c0,0,0.1-0.2,0-0.2c0,0,0-0.1,0-0.1C251,325.6,250.8,325.7,250.6,325.8
				C250.7,325.7,250.6,325.7,250.6,325.8z"/>
		</g>
		<g>
			<path fill="#6B8281" d="M263.7,345.6c0,0,0,0.1,0,0.1c0.1,0.2,0.1,0.3,0.2,0.5c0,0,0-0.1,0-0.1c0-0.1,0-0.2,0.1-0.2
				c0,0,0.1,0,0.1,0c0,0,0.1,0,0.1,0c0,0,0.1-0.2,0-0.2c0,0,0-0.1,0-0.1C264,345.5,263.9,345.5,263.7,345.6
				C263.7,345.5,263.7,345.5,263.7,345.6z"/>
		</g>
		<g>
			<path fill="#6B8281" d="M274.7,328.6c0,0,0,0.1,0,0.1c0.1,0.2,0.4,0.5,0.4,0.5c0.1-0.1,0.1-0.2,0.2-0.3c0.1-0.1,0.1,0,0.2,0
				c0.1,0,0.2,0,0.2,0c0.1-0.1,0.1-0.2,0.1-0.3c0-0.1-0.1-0.1-0.1-0.1c-0.3,0-0.6,0-0.9,0C274.8,328.5,274.7,328.6,274.7,328.6z"/>
		</g>
		<g>
			<path fill="#6B8281" d="M261.5,318.5c0.1,0,0.2,0,0.3,0c0.2,0,0.2,0.1,0.2,0.2c0,0,0,0,0.1,0.1c0.1,0.1,0.2,0.1,0.3,0.1
				c0.1,0,0.2,0,0.3-0.1c0,0,0,0,0-0.1c-0.2-0.1-0.3-0.1-0.3-0.3c0-0.1-0.2-0.1-0.4-0.1c-0.2,0-0.3,0-0.5,0c0,0-0.1,0-0.1,0.1
				C261.3,318.4,261.3,318.4,261.5,318.5z"/>
		</g>
		<g>
			<path fill="#6B8281" d="M265.6,335.3C265.7,335.3,265.7,335.3,265.6,335.3c0.1-0.1,0.1-0.2,0.2-0.2c0-0.1,0-0.1-0.1-0.1
				c-0.2-0.1-0.6-0.1-0.9,0.1c0,0-0.1,0.1-0.1,0.2c0,0.1,0,0.1,0.1,0.1c0.1,0.1,0.3,0,0.4,0C265.4,335.3,265.5,335.3,265.6,335.3z"
				/>
		</g>
		<g>
			<path fill="#6B8281" d="M270.4,329.6C270.4,329.6,270.5,329.5,270.4,329.6c0.1-0.1,0.1-0.2,0.1-0.2c0-0.1,0-0.1,0-0.1
				c-0.1-0.1-0.3-0.1-0.4,0.1c0,0,0,0.1,0,0.2c0,0.1,0,0.1,0,0.1c0.1,0.1,0.1,0,0.2,0C270.3,329.6,270.4,329.6,270.4,329.6z"/>
		</g>
		<g>
			<path fill="#6B8281" d="M259.5,300.4c0,0,0-0.1,0-0.1c0-0.1,0-0.2,0-0.3c0-0.1,0-0.2,0-0.2c0.1-0.1,0.3-0.1,0.4,0.1
				c0,0,0,0.2,0,0.3c0,0.1,0,0.2,0,0.2c-0.1,0.2-0.1,0-0.2,0.1C259.6,300.4,259.5,300.4,259.5,300.4z"/>
		</g>
		<g>
			<path fill="#6B8281" d="M268.8,323.2c0-0.1,0-0.2-0.1-0.3c-0.1,0-0.3,0-0.4,0c0,0-0.1,0.1-0.1,0.1c0,0.1,0,0.2,0.1,0.3
				c0.1,0,0.1,0,0.2,0c0.1,0,0.1,0,0.2,0C268.7,323.3,268.8,323.3,268.8,323.2z"/>
		</g>
		<g>
			<path fill="#6B8281" d="M276,317.3c0-0.1,0-0.2-0.1-0.3c-0.1,0-0.3,0-0.4,0c0,0-0.1,0.1-0.1,0.1c0,0.1,0,0.2,0.1,0.3
				c0.1,0,0.1,0,0.2,0c0.1,0,0.1,0,0.2,0C276,317.5,276,317.4,276,317.3z"/>
		</g>
		<g>
			<path fill="#6B8281" d="M264.2,310.9c0-0.1,0-0.2-0.1-0.3c-0.1,0-0.3,0-0.4,0c0,0-0.1,0.1-0.1,0.1c0,0.1,0,0.2,0.1,0.3
				c0.1,0,0.1,0,0.2,0c0.1,0,0.1,0,0.2,0C264.2,311,264.2,310.9,264.2,310.9z"/>
		</g>
		<g>
			<path fill="#6B8281" d="M269.7,341.5c-0.1,0-0.2,0.2-0.1,0.3c0,0.2,0.1,0.2,0.1,0.1c0.1,0,0.2,0,0.2,0c0,0,0-0.1,0.1-0.1
				c0-0.1,0-0.3-0.1-0.3C269.8,341.4,269.7,341.5,269.7,341.5z"/>
		</g>
		<g>
			<path fill="#6B8281" d="M253.1,311.1c-0.1,0-0.2,0.2-0.1,0.3c0,0.2,0.1,0.2,0.1,0.1c0.1,0,0.2,0,0.2,0c0,0,0-0.1,0.1-0.1
				c0-0.1,0-0.3-0.1-0.3C253.2,311,253.2,311.1,253.1,311.1z"/>
		</g>
		<g>
			<path fill="#6B8281" d="M246.2,323.8c-0.3,0-0.5,0.2-0.4,0.3c0.1,0.2,0.2,0.2,0.4,0.1c0.2,0,0.4,0,0.7,0c0.1,0,0.1-0.1,0.2-0.1
				c0.1-0.1,0-0.3-0.1-0.3C246.7,323.7,246.5,323.8,246.2,323.8z"/>
		</g>
		<g>
			<path fill="#6B8281" d="M255.7,339.3c-0.1,0-0.2,0.1-0.2,0.3c0,0.1,0.1,0.2,0.2,0.1c0.1,0,0.2,0,0.3,0c0,0,0.1-0.1,0.1-0.1
				c0-0.1,0-0.2-0.1-0.2C255.9,339.3,255.8,339.3,255.7,339.3z"/>
		</g>
		<g>
			<path fill="#6B8281" d="M243.6,338.3c-0.1,0-0.2,0.1-0.2,0.3c0,0.1,0.1,0.2,0.2,0.1c0.1,0,0.2,0,0.3,0c0,0,0.1-0.1,0.1-0.1
				c0-0.1,0-0.2-0.1-0.2C243.8,338.3,243.7,338.3,243.6,338.3z"/>
		</g>
		<g>
			<path fill="#6B8281" d="M254.2,319.3c0,0,0-0.1,0-0.1c0,0-0.1-0.1-0.1-0.1c-0.1,0-0.2,0-0.3,0c0,0-0.1,0.1-0.1,0.1
				c0,0,0,0.1,0,0.1C253.8,319.5,254.1,319.4,254.2,319.3z"/>
		</g>
		<g>
			<path fill="#6B8281" d="M277.4,330.3c0.1,0,0.1,0.1,0.2,0.1c0.1,0.1,0.2,0,0.3-0.2c-0.1,0-0.1-0.1-0.2-0.1
				C277.6,330.1,277.5,330.1,277.4,330.3z"/>
		</g>
		<g>
			<path fill="#6B8281" d="M275.8,315.9c0.1,0,0.1,0.1,0.2,0.1c0.1,0.1,0.2,0,0.3-0.2c-0.1,0-0.1-0.1-0.2-0.1
				C276,315.7,275.9,315.7,275.8,315.9z"/>
		</g>
		<g>
			<path fill="#6B8281" d="M256.3,324c-0.1-0.1-0.2,0-0.3,0.2c0.1,0,0.1,0.1,0.2,0.1c0.1,0.1,0.2,0,0.3-0.2
				C256.4,324.1,256.3,324,256.3,324z"/>
		</g>
		<g>
			<path fill="#6B8281" d="M247.2,337.6c-0.1-0.1-0.2,0-0.3,0.2c0.1,0,0.1,0.1,0.2,0.1c0.1,0.1,0.2,0,0.3-0.2
				C247.3,337.7,247.2,337.7,247.2,337.6z"/>
		</g>
		<g>
			<path fill="#6B8281" d="M251.7,317.9c-0.1,0-0.1-0.1-0.2-0.1c-0.1-0.1-0.2,0-0.3,0.2c0.1,0,0.1,0.1,0.2,0.1
				C251.5,318.1,251.6,318.1,251.7,317.9z"/>
		</g>
		<g>
			<path fill="#6B8281" d="M254.6,320.2c0,0.1,0.1,0.1,0.2,0.1c0.1-0.1,0.2-0.2,0.1-0.3c-0.1,0-0.1-0.1-0.2-0.1
				C254.6,320,254.5,320.1,254.6,320.2z"/>
		</g>
		<g>
			<path fill="#6B8281" d="M268.6,341.3c0,0.1,0.1,0.1,0.2,0.1c0.1-0.1,0.2-0.2,0.1-0.3c-0.1,0-0.1-0.1-0.2-0.1
				C268.6,341.1,268.6,341.2,268.6,341.3z"/>
		</g>
		<g>
			<path fill="#6B8281" d="M244.5,340.3c0,0.1,0.1,0.1,0.2,0.1c0.1-0.1,0.2-0.2,0.1-0.3c-0.1,0-0.1-0.1-0.2-0.1
				C244.5,340.1,244.5,340.2,244.5,340.3z"/>
		</g>
		<g>
			<path fill="#6B8281" d="M271.2,340.5c0,0.1,0.1,0.1,0.2,0.1c0.1-0.1,0.2-0.2,0.1-0.3c-0.1,0-0.1-0.1-0.2-0.1
				C271.2,340.3,271.1,340.4,271.2,340.5z"/>
		</g>
		<g>
			<path fill="#6B8281" d="M255.6,310c0,0.1,0.1,0.1,0.2,0.1c0.1-0.1,0.2-0.2,0.1-0.3c-0.1,0-0.1-0.1-0.2-0.1
				C255.6,309.8,255.6,309.9,255.6,310z"/>
		</g>
		<g>
			<path fill="#6B8281" d="M246.3,309.8c0,0.1,0.1,0.1,0.2,0.1c0.1-0.1,0.2-0.2,0.1-0.3c-0.1,0-0.1-0.1-0.2-0.1
				C246.3,309.6,246.3,309.7,246.3,309.8z"/>
		</g>
	</g>
</g>
<g>
	<g>
		<path fill="#E5DCC7" d="M364.4,292c-3.9-3.8-7.6-5.6-11.5-5.6l-0.1,0l-0.1,0c-3.9,0-7.6,1.8-11.5,5.6c-8.9,8.8-14.9,25.7-15,36.1
			c-0.1,7.1,2.7,13.8,7.8,18.8c5,5.1,11.7,7.9,18.8,7.9c7.1,0,13.8-2.9,18.8-7.9c5.1-5.1,7.8-11.8,7.8-18.8
			C379.3,317.7,373.3,300.7,364.4,292z"/>
	</g>
	<g>
		<path fill="#D8D2C3" d="M347,346.9c-17.5-15.4-14-39.8-2.4-57.8c-1.1,0.8-2.2,1.7-3.4,2.8c-8.9,8.8-14.9,25.7-15,36.1
			c-0.1,7.1,2.7,13.8,7.8,18.8c5,5.1,11.7,7.9,18.8,7.9c1.7,0,3.4-0.2,5.1-0.5C354,352.2,350.3,349.8,347,346.9z"/>
	</g>
	<g>
		<path fill="#857F7A" d="M332.4,314.8c0,0.1,0,0.1,0,0.2c0,0.1,0,0.1,0,0.2c0.1,0.1,0.1,0.1,0.2,0.2c0.1,0.1,0.1,0.1,0.3,0.1
			c0.1,0,0.2,0,0.3,0c0.2,0.2,0.2,0.2,0.4,0.2c0.1,0,0.1,0,0.2,0c0.1,0.1,0.2,0.1,0.2,0.2c0.3,0,0.7,0,1,0c0.1,0,0.3,0,0.4,0
			c0,0,0.1,0,0.1,0.1c0.1,0.1,0.1,0.1,0.3,0.1c0.4,0,0.7,0,1.1,0c0.1,0,0.1,0,0.2,0.1c0.2,0.2,0.4,0.1,0.6,0.1c0,0,0,0,0.1-0.1
			c-0.1-0.1-0.3-0.2-0.4-0.4c-0.1-0.1-0.1-0.1-0.4-0.2c-0.1,0-0.1-0.1-0.1-0.3c0-0.1,0-0.1,0.1-0.2c0.2-0.1,0.2,0,0.4-0.2
			c0.1-0.1,0.1-0.1,0.2,0c0.1,0.1,0.1,0.1,0.2,0c0-0.1,0.1-0.1,0.1-0.2c0,0,0.1-0.1,0.1-0.1c0-0.1-0.1-0.1-0.2-0.1
			c-0.4,0-0.7,0-1.1,0c-0.1,0-0.2,0-0.3-0.1c-0.1-0.1-0.1-0.1-0.2-0.1c-0.2,0-0.2-0.1-0.2-0.2c0,0,0-0.1,0-0.1c0-0.1,0-0.3,0-0.4
			c0.1-0.1,0.2-0.1,0.3-0.1c0.4-0.2,0.4-0.2,0.6-0.2c0.1,0,0.3,0,0.4,0c0,0,0,0,0.1-0.1c0.1-0.1,0.1-0.1,0.3-0.1c0.1,0,0.1,0,0.2,0
			c0.1,0,0.2-0.1,0.2-0.2c0-0.1,0-0.2-0.2-0.2c0,0-0.1,0-0.1,0c0,0-0.1,0-0.1,0c-0.1-0.1-0.1-0.2-0.3-0.2c-0.2,0-0.2-0.1-0.3-0.2
			c-0.1-0.1-0.2-0.1-0.2-0.2c0,0-0.1,0-0.1-0.1c0-0.1,0-0.1,0-0.2c0-0.1,0.1-0.1,0.1-0.1c0.1,0,0.2,0,0.3,0.1
			c0.1,0.1,0.1,0.1,0.3,0.1c0.1,0,0.3,0,0.4,0c0.1,0,0.1,0,0.2-0.1c-0.1,0-0.1-0.1-0.2-0.1c-0.1-0.1-0.2-0.2-0.4-0.2
			c-0.3,0-0.6,0-0.8,0c-0.2,0-0.3-0.1-0.5-0.2c-0.4,0-0.8,0-1.3,0c0,0-0.1,0-0.1,0.1c-0.1,0.1-0.1,0.2,0,0.3
			c0.1,0.1,0.2,0.2,0.3,0.3c0.1,0.1,0.1,0.1,0,0.2c0,0-0.1,0-0.1,0c-0.2,0-0.5,0-0.7,0c-0.1,0-0.1,0-0.2-0.1c0,0,0-0.1-0.1-0.1
			c-0.1,0-0.2,0-0.3,0c-0.1,0.1-0.2,0.2-0.3,0.2c-0.1,0-0.2,0.3-0.1,0.3c0.1,0.1,0.3,0.2,0.4,0.4c0,0,0,0.1,0,0.1
			c0,0-0.1,0.1-0.1,0.1c-0.3,0-0.6,0-0.8,0c-0.2,0.2-0.3,0.3-0.5,0.5c0.1,0.1,0.2,0.2,0.3,0.3c0,0,0.1,0,0.1,0c0.1,0,0.1,0,0.2,0
			c0.1,0,0.1,0,0.2,0.1c0.1,0.1,0.1,0.2,0,0.3c0,0,0,0.1-0.1,0.1c-0.3,0-0.6,0-0.8,0c0,0-0.1,0-0.1,0.1c0,0,0,0.1,0,0.1
			C332.3,314.7,332.4,314.7,332.4,314.8z M333.7,314.1C333.7,314.1,333.7,314.1,333.7,314.1c0.1-0.1,0.1-0.1,0.1-0.1
			c0.1,0.1,0.2,0.2,0.3,0.3c0,0-0.1,0.1-0.1,0.1c-0.1,0.1-0.2,0.1-0.3,0C333.7,314.4,333.7,314.2,333.7,314.1z"/>
	</g>
	<g>
		<path fill="#857F7A" d="M371.1,301c-0.5-0.9-0.8-1.4-1.2-2.1c-0.2-0.4-0.6-0.8-0.8-1.2c0,0-0.1,0.1-0.1,0.2
			c-0.1,0.1-0.2,0.2-0.3,0.2c-0.1,0-0.2,0.3-0.1,0.3c0.1,0.1,0.3,0.2,0.4,0.4c0,0,0,0.1,0,0.1c0,0-0.1,0.1-0.1,0.1
			c-0.3,0-0.6,0-0.8,0c-0.2,0.2-0.3,0.3-0.5,0.5c0.1,0.1,0.2,0.2,0.3,0.3c0,0,0.1,0,0.1,0c0.1,0,0.1,0,0.2,0c0.1,0,0.1,0,0.2,0.1
			c0.1,0.1,0.1,0.2,0,0.3c0,0,0,0.1-0.1,0.1c-0.3,0-0.6,0-0.8,0c0,0-0.1,0-0.1,0.1c0,0,0,0.1,0,0.1c0,0.1,0.1,0.1,0.1,0.1
			c0,0.1,0,0.1,0,0.2c0,0.1,0,0.1,0,0.2c0.1,0.1,0.1,0.1,0.2,0.2c0.1,0.1,0.1,0.1,0.3,0.1c0.1,0,0.2,0,0.3,0
			c0.2,0.2,0.2,0.2,0.4,0.2c0.1,0,0.1,0,0.2,0c0.1,0.1,0.2,0.1,0.2,0.2c0.3,0,0.7,0,1,0c0.1,0,0.3,0,0.4,0c0,0,0.1,0,0.1,0.1
			c0.1,0.1,0.1,0.1,0.3,0.1c0.2,0,0.4,0,0.7,0C371.6,301.7,371.2,301.1,371.1,301z"/>
	</g>
	<g>
		<path fill="#857F7A" d="M363.1,296.1C363.1,296,363.2,296,363.1,296.1c0.1-0.1,0.1-0.1,0.1-0.1c0.1,0.1,0.2,0.2,0.3,0.3
			c0,0-0.1,0.1-0.1,0.1c-0.1,0.1-0.2,0.1-0.3,0C363.1,296.3,363.1,296.2,363.1,296.1z"/>
	</g>
	<g>
		<path fill="#857F7A" d="M337.5,322.9c-0.1-0.1-0.2-0.1-0.2-0.2c-0.2,0-0.4,0-0.6,0c-0.1-0.1-0.2-0.1-0.2-0.2c-0.1,0-0.1,0-0.2,0
			c-0.2,0-0.2,0-0.4-0.2c0,0-0.1,0-0.1,0c-0.2,0-0.4,0-0.5,0c-0.1,0-0.2-0.1-0.2-0.2c0-0.1,0-0.1-0.1-0.2c0,0-0.1,0-0.1,0.1
			c-0.1,0.1-0.2,0.2-0.3,0.3c0,0-0.1,0-0.1,0c-0.1,0-0.1,0-0.2,0c-0.1,0-0.1,0-0.2,0.1c0,0.1-0.1,0.1-0.1,0.2c-0.1,0-0.2,0-0.3,0
			c-0.1,0-0.1,0-0.2,0.1c0,0,0,0.1,0.1,0.1c0.1,0,0.1,0.1,0.1,0.2c0,0.1,0,0.2,0,0.3c0.1,0.1,0.2,0.2,0.3,0.3c0,0,0.1,0,0.1,0
			c0.2,0,0.4,0,0.5,0c0,0,0.1,0,0.1,0c0.1,0.1,0.2,0.2,0.4,0.2c0.1,0,0.1,0.1,0.2,0.1c0.1,0.1,0.1,0.1,0.2,0.1c0.1,0,0.1,0,0.2-0.1
			c0-0.1,0.1-0.1,0.1-0.1c0.1,0,0.1,0,0.2,0c0.1,0.2,0.4,0.2,0.3,0.5c0,0.1,0.1,0.1,0.1,0.1c0.1,0,0.2,0,0.3,0c0.2,0,0.2,0,0.5,0.2
			c0,0,0.1,0,0.1,0c0.3,0,0.6,0,0.9,0c0,0,0.1,0,0.1,0c0.1-0.1,0.1-0.1,0-0.2c-0.1-0.1-0.2-0.1-0.2-0.2c0,0-0.1,0-0.1-0.1
			c-0.1-0.1-0.1-0.2,0-0.3c0-0.1,0.1-0.1,0.2-0.1c0.3,0,0.6,0,0.8,0c0.1,0,0.2,0.1,0.3,0.1c0,0,0.1,0.1,0.1,0c0.1,0,0.1-0.1,0.1-0.2
			c0-0.2-0.1-0.2-0.3-0.2c-0.1,0-0.3,0-0.4,0c0,0-0.1,0-0.1,0c-0.1-0.1-0.2-0.2-0.4-0.2c-0.1,0-0.1-0.1-0.2-0.1
			C337.9,323.1,337.8,322.9,337.5,322.9z"/>
	</g>
	<g>
		<path fill="#857F7A" d="M338.5,338.5c0.1-0.1,0.2-0.1,0.2-0.2c0.2,0,0.4,0,0.6,0c0.1-0.1,0.2-0.1,0.2-0.2c0.1,0,0.1,0,0.2,0
			c0.2,0,0.2,0,0.4-0.2c0,0,0.1,0,0.1,0c0.2,0,0.4,0,0.5,0c0.1,0,0.2-0.1,0.2-0.2c0-0.1,0-0.1,0.1-0.2c0,0,0.1,0,0.1,0.1
			c0.1,0.1,0.2,0.2,0.3,0.3c0,0,0.1,0,0.1,0c0.1,0,0.1,0,0.2,0c0.1,0,0.1,0,0.2,0.1c0,0.1,0.1,0.1,0.1,0.2c0.1,0,0.2,0,0.3,0
			c0.1,0,0.1,0,0.2,0.1c0,0,0,0.1-0.1,0.1c-0.1,0-0.1,0.1-0.1,0.2c0,0.1,0,0.2,0,0.3c-0.1,0.1-0.2,0.2-0.3,0.3c0,0-0.1,0-0.1,0
			c-0.2,0-0.4,0-0.5,0c0,0-0.1,0-0.1,0c-0.1,0.1-0.2,0.2-0.4,0.2c-0.1,0-0.1,0.1-0.2,0.1c-0.1,0.1-0.1,0.1-0.2,0.1
			c-0.1,0-0.1,0-0.2-0.1c0-0.1-0.1-0.1-0.1-0.1c-0.1,0-0.1,0-0.2,0c-0.1,0.2-0.4,0.2-0.3,0.5c0,0.1-0.1,0.1-0.1,0.1
			c-0.1,0-0.2,0-0.3,0c-0.2,0-0.2,0-0.5,0.2c0,0-0.1,0-0.1,0c-0.3,0-0.6,0-0.9,0c0,0-0.1,0-0.1,0c-0.1-0.1-0.1-0.1,0-0.2
			c0.1-0.1,0.2-0.1,0.2-0.2c0,0,0.1,0,0.1-0.1c0.1-0.1,0.1-0.2,0-0.3c0-0.1-0.1-0.1-0.2-0.1c-0.3,0-0.6,0-0.8,0
			c-0.1,0-0.2,0.1-0.3,0.1c0,0-0.1,0.1-0.1,0c-0.1,0-0.1-0.1-0.1-0.2c0-0.2,0.1-0.2,0.3-0.2c0.1,0,0.3,0,0.4,0c0,0,0.1,0,0.1,0
			c0.1-0.1,0.2-0.2,0.4-0.2c0.1,0,0.1-0.1,0.2-0.1C338.1,338.6,338.2,338.4,338.5,338.5z"/>
	</g>
	<g>
		<path fill="#857F7A" d="M344.3,316.3c0.1,0.1,0.1,0.1,0.3,0.1c0.5,0,1,0,1.5,0c0.1,0,0.1,0,0.2,0.1c0.1,0.1,0.1,0.1,0.3,0.1
			c0.1,0,0.3,0,0.4,0c0.1,0,0.2-0.1,0.2-0.2c0-0.1-0.1-0.2-0.2-0.2c-0.1,0-0.2,0-0.3,0c0,0-0.1,0-0.1,0c-0.1-0.2-0.3-0.2-0.5-0.2
			c-0.1,0-0.2,0-0.3,0c0,0-0.1,0-0.1,0c0,0,0-0.1,0-0.1c0,0,0-0.1,0.1-0.1c0.1,0,0.1,0,0.2,0c0.1,0,0.1,0,0.2,0
			c0.1-0.1,0.2-0.1,0.2-0.2c0,0,0.1,0.1,0.1,0.1c0,0,0.1,0.1,0.1,0.1c0.1,0,0.1,0,0.2,0c0.2,0,0.4,0,0.5,0c0.1,0,0.1,0,0.2-0.1
			c0-0.1,0-0.2,0-0.3c-0.1,0-0.1-0.1-0.2-0.1c0-0.1,0.1-0.1,0.1-0.2c0.1-0.1,0.1-0.1,0-0.1c0,0-0.1,0-0.1,0c-0.3,0-0.3,0-0.4,0.1
			c-0.2,0.2-0.2,0.2-0.4,0.2c-0.1,0-0.1,0-0.2,0c-0.2-0.1-0.3-0.3-0.5-0.4c0,0-0.1,0-0.1,0c-0.1,0-0.2,0-0.2,0.2
			c0,0.2-0.1,0.2-0.2,0.2c-0.2,0-0.3,0-0.5,0.2c0,0.1-0.1,0.1-0.1,0.2c0,0.1,0,0.3,0,0.4c0,0,0,0.1-0.1,0.1c0,0-0.1,0-0.1,0
			c-0.1,0-0.1-0.1-0.2-0.1c-0.1,0-0.1,0-0.2,0c0,0-0.1,0-0.1,0.1c-0.1,0.1-0.1,0.2,0,0.3C344.2,316.2,344.2,316.3,344.3,316.3z"/>
	</g>
	<g>
		<path fill="#857F7A" d="M373.1,329.1c-0.1-0.1-0.2-0.2-0.4-0.3c-0.8,0-1.6-0.1-2.4-0.2c-0.1,0-0.2-0.1-0.3-0.2
			c-0.2-0.2-0.2-0.2-0.4-0.2c-0.2,0-0.5,0-0.7-0.1c-0.2,0-0.3,0.1-0.3,0.3c0,0.2,0.1,0.4,0.2,0.4c0.2,0,0.3,0,0.5,0
			c0,0,0.1,0,0.1,0.1c0.2,0.3,0.4,0.3,0.7,0.3c0.2,0,0.3,0,0.5,0c0,0,0.1,0.1,0.1,0.1c0,0,0.1,0.1,0,0.1c0,0-0.1,0.1-0.1,0.1
			c-0.1,0-0.2,0-0.3,0c-0.1,0-0.2,0-0.3,0c-0.1,0.1-0.3,0.2-0.4,0.3c-0.1-0.1-0.1-0.2-0.2-0.3c0,0-0.1-0.1-0.1-0.1
			c-0.1,0-0.2,0-0.3,0c-0.3,0-0.6,0-0.9-0.1c-0.1,0-0.2,0-0.3,0.1c-0.1,0.1-0.1,0.3,0,0.5c0.1,0.1,0.1,0.2,0.2,0.3
			c-0.1,0.1-0.2,0.2-0.2,0.2c-0.1,0.1-0.1,0.2,0,0.2c0,0,0.1,0,0.2,0.1c0.4,0.1,0.6,0,0.7,0c0.3-0.2,0.3-0.2,0.6-0.2
			c0.1,0,0.2,0,0.3,0c0.2,0.2,0.5,0.5,0.7,0.7c0,0,0.1,0,0.2,0c0.2,0,0.3,0,0.3-0.3c0.1-0.3,0.1-0.4,0.4-0.3c0.3,0,0.6,0,0.8-0.2
			c0.1-0.1,0.2-0.2,0.3-0.2c0-0.2,0-0.4,0.1-0.7c0,0,0.1-0.1,0.1-0.1c0,0,0.1,0,0.1,0c0.1,0.1,0.1,0.2,0.2,0.3c0.1,0.1,0.2,0,0.3,0
			c0,0,0.1,0,0.1-0.1c0.1-0.1,0.1-0.4,0.1-0.5C373.2,329.2,373.2,329.2,373.1,329.1z"/>
	</g>
	<g>
		<path fill="#857F7A" d="M339.7,315.4c0,0.1,0.1,0.1,0.1,0.1c0.1,0,0.2,0,0.3-0.1c0.1-0.1,0.3-0.2,0.4-0.1c0.3,0.2,0.5,0.5,0.8,0.7
			c0,0,0,0,0.1,0c0.2-0.2,0.3-0.4,0.5-0.5c0-0.1,0-0.1,0-0.2c-0.2-0.2-0.4-0.3-0.5-0.5c-0.2,0-0.4,0-0.6,0c0,0-0.1,0.1-0.1,0.2
			c0,0.1-0.1,0.1-0.2,0.1c-0.1,0-0.1,0-0.2-0.1c0,0,0,0-0.1-0.1c-0.1-0.1-0.2-0.1-0.3,0c-0.1,0-0.1,0.1-0.1,0.2
			C339.6,315.2,339.6,315.3,339.7,315.4z"/>
	</g>
	<g>
		<path fill="#857F7A" d="M353.7,295.9c0,0.1,0.1,0.1,0.1,0.1c0.1,0,0.2,0,0.3-0.1c0.1-0.1,0.3-0.2,0.4-0.1c0.3,0.2,0.5,0.5,0.8,0.7
			c0,0,0,0,0.1,0c0.2-0.2,0.3-0.4,0.5-0.5c0-0.1,0-0.1,0-0.2c-0.2-0.2-0.4-0.3-0.5-0.5c-0.2,0-0.4,0-0.6,0c0,0-0.1,0.1-0.1,0.2
			c0,0.1-0.1,0.1-0.2,0.1c-0.1,0-0.1,0-0.2-0.1c0,0,0,0-0.1-0.1c-0.1-0.1-0.2-0.1-0.3,0c-0.1,0-0.1,0.1-0.1,0.2
			C353.7,295.7,353.6,295.8,353.7,295.9z"/>
	</g>
	<g>
		<path fill="#857F7A" d="M346.6,313.9c0.2,0,0.5,0,0.7,0c0.2,0,0.5,0,0.7,0c0.1,0,0.1,0,0.2-0.1c0-0.1,0-0.2,0-0.3
			c0,0-0.1-0.1-0.2-0.1c0,0-0.1-0.1-0.1-0.1c0,0.1-0.1,0.1-0.1,0.2c0,0-0.1,0-0.1,0.1c-0.1,0-0.3,0-0.4,0c-0.1,0-0.1-0.1-0.2-0.1
			c0,0-0.1,0-0.1,0c-0.2,0-0.3,0-0.5,0c-0.1,0-0.2,0.1-0.2,0.2c0,0.1,0,0.1,0,0.2C346.4,313.8,346.4,313.9,346.6,313.9z"/>
	</g>
	<g>
		<path fill="#857F7A" d="M346.4,307.6c0.2,0,0.5,0,0.7,0c0.2,0,0.5,0,0.7,0c0.1,0,0.1,0,0.2-0.1c0-0.1,0-0.2,0-0.3
			c0,0-0.1-0.1-0.2-0.1c0,0-0.1-0.1-0.1-0.1c0,0.1-0.1,0.1-0.1,0.2c0,0-0.1,0-0.1,0.1c-0.1,0-0.3,0-0.4,0c-0.1,0-0.1-0.1-0.2-0.1
			c0,0-0.1,0-0.1,0c-0.2,0-0.3,0-0.5,0c-0.1,0-0.2,0.1-0.2,0.2c0,0.1,0,0.1,0,0.2C346.1,307.5,346.2,307.6,346.4,307.6z"/>
	</g>
	<g>
		<path fill="#857F7A" d="M366.4,308.4c-0.1,0-0.2,0-0.2,0.2c-0.2,0.4-0.5,0.9-0.7,1.3c0,0.1-0.1,0.1-0.2,0.1
			c-0.2,0-0.2,0.1-0.2,0.2c-0.1,0.1-0.1,0.2-0.2,0.4c-0.1,0.1,0,0.2,0.1,0.3c0.1,0.1,0.2,0.1,0.3,0c0.1-0.1,0.1-0.2,0.2-0.3
			c0,0,0-0.1,0.1-0.1c0.2,0,0.3-0.1,0.4-0.3c0-0.1,0.1-0.2,0.2-0.3c0,0,0.1,0,0.1,0c0,0,0.1,0,0.1,0c0,0,0,0.1,0,0.1
			c0,0.1-0.1,0.1-0.1,0.2c0,0.1-0.1,0.1-0.1,0.2c0,0.1,0,0.2,0.1,0.3c-0.1,0-0.1,0-0.2,0.1c0,0-0.1,0-0.1,0c0,0.1-0.1,0.1-0.1,0.2
			c-0.1,0.2-0.2,0.3-0.3,0.5c0,0.1-0.1,0.1,0,0.2c0.1,0.1,0.1,0.1,0.3,0.1c0.1,0,0.1,0,0.2-0.1c0,0.1,0.1,0.1,0.1,0.2
			c0,0.1,0,0.1,0.1,0.1c0,0,0.1,0,0.1-0.1c0.1-0.2,0.2-0.3,0.2-0.4c-0.1-0.2-0.1-0.2,0-0.4c0-0.1,0.1-0.1,0.1-0.2
			c0.2-0.1,0.4-0.1,0.6-0.2c0,0,0-0.1,0.1-0.1c0.1-0.1,0.1-0.2-0.1-0.3c-0.2-0.1-0.2-0.2-0.1-0.3c0.1-0.2,0.2-0.3,0.1-0.5
			c0-0.1,0-0.1-0.1-0.2c-0.1-0.1-0.2-0.1-0.4-0.2c0,0,0-0.1,0-0.1c0,0,0,0,0.1-0.1c0.1,0,0.1,0,0.2-0.1c0.1,0,0.1-0.1,0.1-0.2
			c0,0,0-0.1,0-0.1c0-0.1-0.2-0.2-0.2-0.2C366.5,308.4,366.4,308.4,366.4,308.4z"/>
	</g>
	<g>
		<path fill="#857F7A" d="M367.5,311.8c0.2,0,0.5,0,0.7,0c0.2,0,0.5,0,0.7,0c0.1,0,0.1,0,0.2-0.1c0-0.1,0-0.2,0-0.3
			c0,0-0.1-0.1-0.2-0.1c0,0-0.1-0.1-0.1-0.1c0,0.1-0.1,0.1-0.1,0.1c0,0-0.1,0-0.1,0.1c-0.1,0-0.3,0-0.4,0c-0.1,0-0.1-0.1-0.2-0.1
			c0,0-0.1,0-0.1,0c-0.2,0-0.3,0-0.5,0c-0.1,0-0.2,0.1-0.2,0.2c0,0.1,0,0.1,0,0.2C367.3,311.7,367.3,311.8,367.5,311.8z"/>
	</g>
	<g>
		<path fill="#857F7A" d="M332.7,325.3c0.2,0,0.5,0,0.7,0c0.2,0,0.5,0,0.7,0c0.1,0,0.1,0,0.2-0.1c0-0.1,0-0.2,0-0.3
			c0,0-0.1-0.1-0.2-0.1c0,0-0.1-0.1-0.1-0.1c0,0.1-0.1,0.1-0.1,0.2c0,0-0.1,0-0.1,0.1c-0.1,0-0.3,0-0.4,0c-0.1,0-0.1-0.1-0.2-0.1
			c0,0-0.1,0-0.1,0c-0.2,0-0.3,0-0.5,0c-0.1,0-0.2,0.1-0.2,0.2c0,0.1,0,0.1,0,0.2C332.5,325.3,332.5,325.3,332.7,325.3z"/>
	</g>
	<g>
		<path fill="#857F7A" d="M366.6,325.8c0.1-0.1,0.1-0.2,0.2-0.2c0.1-0.1,0.1-0.1,0-0.1c0-0.1-0.1-0.1-0.2-0.1c-0.1,0-0.1,0-0.2,0
			c-0.1,0-0.1,0-0.2,0.1c0,0,0,0.1,0.1,0.1C366.4,325.6,366.5,325.7,366.6,325.8z"/>
	</g>
	<g>
		<path fill="#857F7A" d="M348.1,315.7c0,0.1,0.1,0.2,0.2,0.2c0.2,0,0.3-0.1,0.3-0.2c0-0.1-0.1-0.2-0.2-0.2
			C348.2,315.5,348.1,315.6,348.1,315.7z"/>
	</g>
	<g>
		<path fill="#857F7A" d="M361.3,341.8c0.1,0.1,0.1,0.1,0.3,0.1c0.5,0,1,0,1.5,0c0.1,0,0.1,0,0.2,0.1c0.1,0.1,0.1,0.1,0.3,0.1
			c0.1,0,0.3,0,0.4,0c0.1,0,0.2-0.1,0.2-0.2c0-0.1-0.1-0.2-0.2-0.2c-0.1,0-0.2,0-0.3,0c0,0-0.1,0-0.1,0c-0.1-0.2-0.3-0.2-0.5-0.2
			c-0.1,0-0.2,0-0.3,0c0,0-0.1,0-0.1,0c0,0,0-0.1,0-0.1c0,0,0-0.1,0.1-0.1c0.1,0,0.1,0,0.2,0c0.1,0,0.1,0,0.2,0
			c0.1-0.1,0.2-0.1,0.2-0.2c0,0,0.1,0.1,0.1,0.1c0,0,0.1,0.1,0.1,0.1c0.1,0,0.1,0,0.2,0c0.2,0,0.4,0,0.5,0c0.1,0,0.1,0,0.2-0.1
			c0-0.1,0-0.2,0-0.3c-0.1,0-0.1-0.1-0.2-0.1c0-0.1,0.1-0.1,0.1-0.2c0.1-0.1,0.1-0.1,0-0.1c0,0-0.1,0-0.1,0c-0.3,0-0.3,0-0.4,0.1
			c-0.2,0.2-0.2,0.2-0.4,0.2c-0.1,0-0.1,0-0.2,0c-0.2-0.1-0.3-0.3-0.5-0.4c0,0-0.1,0-0.1,0c-0.1,0-0.2,0-0.2,0.2
			c0,0.2-0.1,0.2-0.2,0.2c-0.2,0-0.3,0-0.5,0.2c0,0.1-0.1,0.1-0.1,0.2c0,0.1,0,0.3,0,0.4c0,0,0,0.1-0.1,0.1c0,0-0.1,0-0.1,0
			c-0.1,0-0.1-0.1-0.2-0.1c-0.1,0-0.1,0-0.2,0c0,0-0.1,0-0.1,0.1c-0.1,0.1-0.1,0.2,0,0.3C361.2,341.7,361.3,341.7,361.3,341.8z"/>
	</g>
	<g>
		<path fill="#857F7A" d="M365.1,341.2c0,0.1,0.1,0.2,0.2,0.2c0.2,0,0.3-0.1,0.3-0.2c0-0.1-0.1-0.2-0.2-0.2
			C365.2,340.9,365.1,341,365.1,341.2z"/>
	</g>
	<g>
		<path fill="#857F7A" d="M369.2,327.2c0,0.1,0.1,0.2,0.2,0.2c0.2,0,0.3-0.1,0.3-0.2c0-0.1-0.1-0.2-0.2-0.2
			C369.3,327,369.2,327.1,369.2,327.2z"/>
	</g>
	<g>
		<path fill="#857F7A" d="M368,327.2c0.1,0.1,0.1,0.1,0.1,0c0,0,0-0.1,0-0.1c0-0.1,0-0.1,0-0.2c-0.1-0.1-0.2-0.1-0.3-0.1
			c0,0-0.1,0-0.1,0.1c0,0,0,0.1,0,0.1C367.9,327,368,327.1,368,327.2z"/>
	</g>
	<g>
		<path fill="#857F7A" d="M368.7,326.1c0.1,0,0.1,0,0.2,0c0.1,0,0.1,0,0.2,0c0,0,0.1,0,0.1-0.1c0,0,0-0.1-0.1-0.1
			c-0.1,0-0.3,0-0.4,0c0,0-0.1,0-0.1,0.1C368.6,326.1,368.6,326.1,368.7,326.1z"/>
	</g>
	<g>
		<path fill="#857F7A" d="M375.5,318.1c0.1-0.1,0.1-0.2,0.2-0.2c0.1-0.1,0.1-0.1,0-0.1c0-0.1-0.1-0.1-0.2-0.1c-0.1,0-0.1,0-0.2,0
			c-0.1,0-0.1,0-0.2,0.1c0,0,0,0.1,0.1,0.1C375.3,318,375.4,318.1,375.5,318.1z"/>
	</g>
	<g>
		<path fill="#857F7A" d="M355.5,309.3c0.1,0.1,0.1,0.1,0.1,0c0,0,0-0.1,0-0.1c0-0.1,0-0.1,0-0.2c-0.1-0.1-0.2-0.1-0.3-0.1
			c0,0-0.1,0-0.1,0.1c0,0,0,0.1,0,0.1C355.4,309.2,355.5,309.2,355.5,309.3z"/>
	</g>
	<g>
		<path fill="#857F7A" d="M354.1,313.2c0.1,0.1,0.1,0.1,0.1,0c0,0,0-0.1,0-0.1c0-0.1,0-0.1,0-0.2c-0.1-0.1-0.2-0.1-0.3-0.1
			c0,0-0.1,0-0.1,0.1c0,0,0,0.1,0,0.1C353.9,313.1,354,313.1,354.1,313.2z"/>
	</g>
	<g>
		<path fill="#857F7A" d="M359.7,309.3c0.1,0.1,0.1,0.1,0.1,0c0,0,0-0.1,0-0.1c0-0.1,0-0.1,0-0.2c-0.1-0.1-0.2-0.1-0.3-0.1
			c0,0-0.1,0-0.1,0.1c0,0,0,0.1,0,0.1C359.6,309.2,359.7,309.2,359.7,309.3z"/>
	</g>
	<g>
		<path fill="#857F7A" d="M373.4,309.5c0.1,0.1,0.1,0.1,0.1,0c0,0,0-0.1,0-0.1c0-0.1,0-0.1,0-0.2c-0.1-0.1-0.2-0.1-0.3-0.1
			c0,0-0.1,0-0.1,0.1c0,0,0,0.1,0,0.1C373.2,309.4,373.3,309.4,373.4,309.5z"/>
	</g>
	<g>
		<path fill="#857F7A" d="M357,306.2c0.1,0,0.1,0,0.2,0c0.1,0,0.1,0,0.2,0c0,0,0.1,0,0.1-0.1c0,0,0-0.1-0.1-0.1c-0.1,0-0.3,0-0.4,0
			c0,0-0.1,0-0.1,0.1C356.8,306.1,356.9,306.1,357,306.2z"/>
	</g>
	<g>
		<path fill="#857F7A" d="M348.7,336.7c0.1-0.1,0.1-0.2,0.2-0.2c0.1-0.1,0.1-0.1,0-0.1c0-0.1-0.1-0.1-0.2-0.1c-0.1,0-0.1,0-0.2,0
			c-0.1,0-0.1,0-0.2,0.1c0,0,0,0.1,0.1,0.1C348.6,336.5,348.7,336.6,348.7,336.7z"/>
	</g>
	<g>
		<path fill="#857F7A" d="M354.3,335.7c0.1,0.1,0.1,0.1,0.1,0c0,0,0-0.1,0-0.1c0-0.1,0-0.1,0-0.2c-0.1-0.1-0.2-0.1-0.3-0.1
			c0,0-0.1,0-0.1,0.1c0,0,0,0.1,0,0.1C354.2,335.5,354.3,335.6,354.3,335.7z"/>
	</g>
	<g>
		<path fill="#857F7A" d="M357.9,331.5c0.1,0.1,0.1,0.1,0.1,0c0,0,0-0.1,0-0.1c0-0.1,0-0.1,0-0.2c-0.1-0.1-0.2-0.1-0.3-0.1
			c0,0-0.1,0-0.1,0.1c0,0,0,0.1,0,0.1C357.7,331.4,357.8,331.5,357.9,331.5z"/>
	</g>
	<g>
		<path fill="#857F7A" d="M340,306.5c0.1,0.1,0.1,0.1,0.1,0c0,0,0-0.1,0-0.1c0-0.1,0-0.1,0-0.2c-0.1-0.1-0.2-0.1-0.3-0.1
			c0,0-0.1,0-0.1,0.1c0,0,0,0.1,0,0.1C339.8,306.4,339.9,306.4,340,306.5z"/>
	</g>
	<g>
		<path fill="#857F7A" d="M354.9,337.7c0.1,0.1,0.1,0.1,0.1,0c0,0,0-0.1,0-0.1c0-0.1,0-0.1,0-0.2c-0.1-0.1-0.2-0.1-0.3-0.1
			c0,0-0.1,0-0.1,0.1c0,0,0,0.1,0,0.1C354.8,337.5,354.9,337.6,354.9,337.7z"/>
	</g>
	<g>
		<path fill="#857F7A" d="M359.5,326.9c0.1,0.1,0.1,0.1,0.1,0c0,0,0-0.1,0-0.1c0-0.1,0-0.1,0-0.2c-0.1-0.1-0.2-0.1-0.3-0.1
			c0,0-0.1,0-0.1,0.1c0,0,0,0.1,0,0.1C359.4,326.8,359.5,326.9,359.5,326.9z"/>
	</g>
	<g>
		<path fill="#857F7A" d="M356.5,334.9c0.1,0,0.1,0,0.2,0c0.1,0,0.1,0,0.2,0c0,0,0.1,0,0.1-0.1c0,0,0-0.1-0.1-0.1
			c-0.1,0-0.3,0-0.4,0c0,0-0.1,0-0.1,0.1C356.3,334.8,356.4,334.9,356.5,334.9z"/>
	</g>
	<g>
		<path fill="#857F7A" d="M352,340.9c0.1-0.1,0.1-0.2,0.2-0.2c0.1-0.1,0.1-0.1,0-0.1c0-0.1-0.1-0.1-0.2-0.1c-0.1,0-0.1,0-0.2,0
			c-0.1,0-0.1,0-0.2,0.1c0,0,0,0.1,0.1,0.1C351.9,340.7,351.9,340.8,352,340.9z"/>
	</g>
	<g>
		<path fill="#857F7A" d="M353.6,347c0.1-0.1,0.1-0.2,0.2-0.2c0.1-0.1,0.1-0.1,0-0.1c0-0.1-0.1-0.1-0.2-0.1c-0.1,0-0.1,0-0.2,0
			c-0.1,0-0.1,0-0.2,0.1c0,0,0,0.1,0.1,0.1C353.5,346.9,353.6,347,353.6,347z"/>
	</g>
	<g>
		<path fill="#857F7A" d="M353.4,342.2c0.1,0.1,0.1,0.1,0.1,0c0,0,0-0.1,0-0.1c0-0.1,0-0.1,0-0.2c-0.1-0.1-0.2-0.1-0.3-0.1
			c0,0-0.1,0-0.1,0.1c0,0,0,0.1,0,0.1C353.3,342.1,353.4,342.2,353.4,342.2z"/>
	</g>
	<g>
		<path fill="#857F7A" d="M360.7,347.2c0.1,0.1,0.1,0.1,0.1,0c0,0,0-0.1,0-0.1c0-0.1,0-0.1,0-0.2c-0.1-0.1-0.2-0.1-0.3-0.1
			c0,0-0.1,0-0.1,0.1c0,0,0,0.1,0,0.1C360.6,347,360.7,347.1,360.7,347.2z"/>
	</g>
	<g>
		<path fill="#857F7A" d="M342.4,346c0.1,0.1,0.1,0.1,0.1,0c0,0,0-0.1,0-0.1c0-0.1,0-0.1,0-0.2c-0.1-0.1-0.2-0.1-0.3-0.1
			c0,0-0.1,0-0.1,0.1c0,0,0,0.1,0,0.1C342.2,345.9,342.3,345.9,342.4,346z"/>
	</g>
	<g>
		<path fill="#857F7A" d="M354.1,341.2c0.1,0,0.1,0,0.2,0c0.1,0,0.1,0,0.2,0c0,0,0.1,0,0.1-0.1c0,0,0-0.1-0.1-0.1
			c-0.1,0-0.3,0-0.4,0c0,0-0.1,0-0.1,0.1C354,341.1,354,341.2,354.1,341.2z"/>
	</g>
	<g>
		<path fill="#857F7A" d="M356.7,320.1c0.1,0.1,0.1,0.1,0.1,0c0,0,0-0.1,0-0.1c0-0.1,0-0.1,0-0.2c-0.1-0.1-0.2-0.1-0.3-0.1
			c0,0-0.1,0-0.1,0.1c0,0,0,0.1,0,0.1C356.5,320,356.6,320,356.7,320.1z"/>
	</g>
	<g>
		<path fill="#857F7A" d="M357.4,319.1c0.1,0,0.1,0,0.2,0c0.1,0,0.1,0,0.2,0c0,0,0.1,0,0.1-0.1c0,0,0-0.1-0.1-0.1
			c-0.1,0-0.3,0-0.4,0c0,0-0.1,0-0.1,0.1C357.3,319,357.3,319.1,357.4,319.1z"/>
	</g>
	<g>
		<path fill="#857F7A" d="M372.6,333.4c0.1-0.1,0.1-0.2,0.2-0.2c0.1-0.1,0.1-0.1,0-0.1c0-0.1-0.1-0.1-0.2-0.1c-0.1,0-0.1,0-0.2,0
			c-0.1,0-0.1,0-0.2,0.1c0,0,0,0.1,0.1,0.1C372.4,333.2,372.5,333.3,372.6,333.4z"/>
	</g>
	<g>
		<path fill="#857F7A" d="M359.9,334.5c0-0.1,0.1-0.2,0.1-0.2c0-0.1,0.1-0.1,0-0.1c0-0.1-0.1-0.1-0.1-0.1c0,0-0.1,0-0.1,0
			c0,0-0.1,0-0.1,0.1c0,0,0,0.1,0,0.1C359.8,334.4,359.9,334.4,359.9,334.5z"/>
	</g>
	<g>
		<path fill="#857F7A" d="M374,334.7c0.1,0.1,0.1,0.1,0.1,0c0,0,0-0.1,0-0.1c0-0.1,0-0.1,0-0.2c-0.1-0.1-0.2-0.1-0.3-0.1
			c0,0-0.1,0-0.1,0.1c0,0,0,0.1,0,0.1C373.9,334.6,373.9,334.7,374,334.7z"/>
	</g>
	<g>
		<path fill="#857F7A" d="M377.3,327.8c0.1,0.1,0.1,0.1,0.1,0c0,0,0-0.1,0-0.1c0-0.1,0-0.1,0-0.2c-0.1-0.1-0.2-0.1-0.3-0.1
			c0,0-0.1,0-0.1,0.1c0,0,0,0.1,0,0.1C377.2,327.7,377.3,327.7,377.3,327.8z"/>
	</g>
	<g>
		<path fill="#857F7A" d="M374.7,333.7c0.1,0,0.1,0,0.2,0c0.1,0,0.1,0,0.2,0c0,0,0.1,0,0.1-0.1c0,0,0-0.1-0.1-0.1
			c-0.1,0-0.3,0-0.4,0c0,0-0.1,0-0.1,0.1C374.6,333.6,374.6,333.7,374.7,333.7z"/>
	</g>
	<g>
		<path fill="#857F7A" d="M374.4,339.8c0.1,0,0.1,0,0.2,0c0.1,0,0.1,0,0.2,0c0,0,0.1,0,0.1-0.1c0,0,0-0.1-0.1-0.1
			c-0.1,0-0.3,0-0.4,0c0,0-0.1,0-0.1,0.1C374.3,339.7,374.3,339.7,374.4,339.8z"/>
	</g>
	<g>
		<path fill="#857F7A" d="M333.9,331.8c0.1-0.1,0.1-0.2,0.2-0.2c0.1-0.1,0.1-0.1,0-0.1c0-0.1-0.1-0.1-0.2-0.1c-0.1,0-0.1,0-0.2,0
			c-0.1,0-0.1,0-0.2,0.1c0,0,0,0.1,0.1,0.1C333.7,331.7,333.8,331.8,333.9,331.8z"/>
	</g>
	<g>
		<path fill="#857F7A" d="M339.7,331.4c0.1-0.1,0.1-0.2,0.2-0.2c0.1-0.1,0.1-0.1,0-0.1c0-0.1-0.1-0.1-0.2-0.1c-0.1,0-0.1,0-0.2,0
			c-0.1,0-0.1,0-0.2,0.1c0,0,0,0.1,0.1,0.1C339.6,331.3,339.6,331.3,339.7,331.4z"/>
	</g>
	<g>
		<path fill="#857F7A" d="M335.5,320.4c0.1-0.1,0.1-0.2,0.2-0.2c0.1-0.1,0.1-0.1,0-0.1c0-0.1-0.1-0.1-0.2-0.1c-0.1,0-0.1,0-0.2,0
			c-0.1,0-0.1,0-0.2,0.1c0,0,0,0.1,0.1,0.1C335.3,320.3,335.4,320.3,335.5,320.4z"/>
	</g>
	<g>
		<path fill="#857F7A" d="M342.4,328.9c0.1-0.1,0.1-0.2,0.2-0.2c0.1-0.1,0.1-0.1,0-0.1c0-0.1-0.1-0.1-0.2-0.1c-0.1,0-0.1,0-0.2,0
			c-0.1,0-0.1,0-0.2,0.1c0,0,0,0.1,0.1,0.1C342.2,328.8,342.3,328.9,342.4,328.9z"/>
	</g>
	<g>
		<path fill="#857F7A" d="M339.5,335.2c0.1,0.1,0.1,0.1,0.1,0c0,0,0-0.1,0-0.1c0-0.1,0-0.1,0-0.2c-0.1-0.1-0.2-0.1-0.3-0.1
			c0,0-0.1,0-0.1,0.1c0,0,0,0.1,0,0.1C339.4,335,339.5,335.1,339.5,335.2z"/>
	</g>
	<g>
		<path fill="#857F7A" d="M340.2,334.1c0.1,0,0.1,0,0.2,0c0.1,0,0.1,0,0.2,0c0,0,0.1,0,0.1-0.1c0,0,0-0.1-0.1-0.1
			c-0.1,0-0.3,0-0.4,0c0,0-0.1,0-0.1,0.1C340.1,334.1,340.1,334.1,340.2,334.1z"/>
	</g>
	<g>
		<path fill="#857F7A" d="M334.2,339.6c0.1,0,0.1,0,0.2,0c0.1,0,0.1,0,0.2,0c0,0,0.1,0,0.1-0.1c0,0,0-0.1-0.1-0.1
			c-0.1,0-0.3,0-0.4,0c0,0-0.1,0-0.1,0.1C334.1,339.6,334.1,339.6,334.2,339.6z"/>
	</g>
	<g>
		<path fill="#857F7A" d="M330,336.6c0.1,0,0.1,0,0.2,0c0.1,0,0.1,0,0.2,0c0,0,0.1,0,0.1-0.1c0,0,0-0.1-0.1-0.1c-0.1,0-0.3,0-0.4,0
			c0,0-0.1,0-0.1,0.1C329.9,336.5,330,336.5,330,336.6z"/>
	</g>
	<g>
		<path fill="#857F7A" d="M342.1,313c0.1-0.1,0.1-0.2,0.2-0.2c0.1-0.1,0.1-0.1,0-0.1c0-0.1-0.1-0.1-0.2-0.1c-0.1,0-0.1,0-0.2,0
			c-0.1,0-0.1,0-0.2,0.1c0,0,0,0.1,0.1,0.1C341.9,312.9,342,313,342.1,313z"/>
	</g>
	<g>
		<path fill="#857F7A" d="M343.5,314.4c0.1,0.1,0.1,0.1,0.1,0c0,0,0-0.1,0-0.1c0-0.1,0-0.1,0-0.2c-0.1-0.1-0.2-0.1-0.3-0.1
			c0,0-0.1,0-0.1,0.1c0,0,0,0.1,0,0.1C343.4,314.3,343.4,314.3,343.5,314.4z"/>
	</g>
	<g>
		<path fill="#857F7A" d="M351.2,304.2c0.1,0.1,0.1,0.1,0.1,0c0,0,0-0.1,0-0.1c0-0.1,0-0.1,0-0.2c-0.1-0.1-0.2-0.1-0.3-0.1
			c0,0-0.1,0-0.1,0.1c0,0,0,0.1,0,0.1C351.1,304.1,351.2,304.1,351.2,304.2z"/>
	</g>
	<g>
		<path fill="#857F7A" d="M358.4,298.8c0.1,0.1,0.1,0.1,0.1,0c0,0,0-0.1,0-0.1c0-0.1,0-0.1,0-0.2c-0.1-0.1-0.2-0.1-0.3-0.1
			c0,0-0.1,0-0.1,0.1c0,0,0,0.1,0,0.1C358.2,298.7,358.3,298.7,358.4,298.8z"/>
	</g>
	<g>
		<path fill="#857F7A" d="M342.2,302.7c0,0.3,0.3,0.4,0.6,0.4c0.4,0,0.7-0.1,1-0.4c0.4-0.5,1-0.6,1.3-0.3c0.5,0.5,0.9,1.4,1.4,1.9
			c0.4,0.4,1,0.5,1.5,0.9c0.1,0.1,0.2,0.1,0.3,0.2c0.6-0.7,1.2-1.4,1.9-2c0-0.3,0-0.5-0.1-0.8c-0.7-0.6-1.3-1.3-2-1.9
			c-0.8,0-1.6,0-2.4,0.1c-0.2,0.2-0.3,0.4-0.5,0.6c-0.2,0.2-0.4,0.3-0.7,0.3c-0.3,0-0.5-0.1-0.7-0.3c-0.1-0.1-0.2-0.2-0.3-0.3
			c-0.3-0.3-0.7-0.2-1.1-0.1c-0.3,0.1-0.3,0.4-0.3,0.7C342.2,301.9,342.1,302.3,342.2,302.7z"/>
	</g>
	<g>
		<path fill="#857F7A" d="M346.2,298.7c0.1-0.1,0.1-0.2,0.2-0.2c0.1-0.1,0.1-0.1,0-0.1c0-0.1-0.1-0.1-0.2-0.1c-0.1,0-0.1,0-0.2,0
			c-0.1,0-0.1,0-0.2,0.1c0,0,0,0.1,0.1,0.1C346.1,298.5,346.2,298.6,346.2,298.7z"/>
	</g>
	<g>
		<path fill="#857F7A" d="M347.7,300c0.1,0.1,0.1,0.1,0.1,0c0,0,0-0.1,0-0.1c0-0.1,0-0.1,0-0.2c-0.1-0.1-0.2-0.1-0.3-0.1
			c0,0-0.1,0-0.1,0.1c0,0,0,0.1,0,0.1C347.5,299.9,347.6,299.9,347.7,300z"/>
	</g>
	<g>
		<path fill="#857F7A" d="M344.2,313.4c0.1,0,0.1,0,0.2,0c0.1,0,0.1,0,0.2,0c0,0,0.1,0,0.1-0.1c0,0,0-0.1-0.1-0.1
			c-0.1,0-0.3,0-0.4,0c0,0-0.1,0-0.1,0.1C344.1,313.3,344.1,313.4,344.2,313.4z"/>
	</g>
	<g>
		<path fill="#857F7A" d="M357.9,301.9c0.1,0,0.1,0,0.2,0c0.1,0,0.1,0,0.2,0c0,0,0.1,0,0.1-0.1c0,0,0-0.1-0.1-0.1
			c-0.1,0-0.3,0-0.4,0c0,0-0.1,0-0.1,0.1C357.7,301.8,357.8,301.8,357.9,301.9z"/>
	</g>
	<g>
		<path fill="#857F7A" d="M340.2,296.9c0.1,0.1,0.1,0.1,0.3,0.1c0.5,0,1,0,1.5,0c0.1,0,0.1,0,0.2,0.1c0.1,0.1,0.1,0.1,0.3,0.1
			c0.1,0,0.3,0,0.4,0c0.1,0,0.2-0.1,0.2-0.2c0-0.1-0.1-0.2-0.2-0.2c-0.1,0-0.2,0-0.3,0c0,0-0.1,0-0.1,0c-0.1-0.2-0.3-0.2-0.5-0.2
			c-0.1,0-0.2,0-0.3,0c0,0-0.1,0-0.1,0c0,0,0-0.1,0-0.1c0,0,0-0.1,0.1-0.1c0.1,0,0.1,0,0.2,0c0.1,0,0.1,0,0.2,0
			c0.1-0.1,0.2-0.1,0.2-0.2c0,0,0.1,0.1,0.1,0.1c0,0,0.1,0.1,0.1,0.1c0.1,0,0.1,0,0.2,0c0.2,0,0.4,0,0.5,0c0.1,0,0.1,0,0.2-0.1
			c0-0.1,0-0.2,0-0.3c-0.1,0-0.1-0.1-0.2-0.1c0-0.1,0.1-0.1,0.1-0.2c0.1-0.1,0.1-0.1,0-0.1c0,0-0.1,0-0.1,0c-0.3,0-0.3,0-0.4,0.1
			c-0.2,0.2-0.2,0.2-0.4,0.2c-0.1,0-0.1,0-0.2,0c-0.2-0.1-0.3-0.3-0.5-0.4c0,0-0.1,0-0.1,0c-0.1,0-0.2,0-0.2,0.2
			c0,0.2-0.1,0.2-0.2,0.2c-0.2,0-0.3,0-0.5,0.2c0,0.1-0.1,0.1-0.1,0.2c0,0.1,0,0.3,0,0.4c0,0,0,0.1-0.1,0.1c0,0-0.1,0-0.1,0
			c-0.1,0-0.1-0.1-0.2-0.1c-0.1,0-0.1,0-0.2,0c0,0-0.1,0-0.1,0.1c-0.1,0.1-0.1,0.2,0,0.3C340,296.8,340.1,296.8,340.2,296.9z"/>
	</g>
	<g>
		<path fill="#857F7A" d="M342.5,294.4c0.2,0,0.5,0,0.7,0c0.2,0,0.5,0,0.7,0c0.1,0,0.1,0,0.2-0.1c0-0.1,0-0.2,0-0.3
			c0,0-0.1-0.1-0.2-0.1c0,0-0.1-0.1-0.1-0.1c0,0.1-0.1,0.1-0.1,0.1c0,0-0.1,0-0.1,0.1c-0.1,0-0.3,0-0.4,0c-0.1,0-0.1-0.1-0.2-0.1
			c0,0-0.1,0-0.1,0c-0.2,0-0.3,0-0.5,0c-0.1,0-0.2,0.1-0.2,0.2c0,0.1,0,0.1,0,0.2C342.2,294.4,342.3,294.4,342.5,294.4z"/>
	</g>
	<g>
		<path fill="#857F7A" d="M344,296.3c0,0.1,0.1,0.2,0.2,0.2c0.2,0,0.3-0.1,0.3-0.2c0-0.1-0.1-0.2-0.2-0.2
			C344.1,296,344,296.1,344,296.3z"/>
	</g>
	<g>
		<path fill="#857F7A" d="M356.2,292.7c0,0.1,0.1,0.2,0.2,0.2c0.2,0,0.3-0.1,0.3-0.2c0-0.1-0.1-0.2-0.2-0.2
			C356.3,292.5,356.2,292.6,356.2,292.7z"/>
	</g>
	<g>
		<path fill="#857F7A" d="M364.3,302.9c0,0.1,0.1,0.2,0.2,0.2c0.2,0,0.3-0.1,0.3-0.2c0-0.1-0.1-0.2-0.2-0.2
			C364.4,302.7,364.3,302.8,364.3,302.9z"/>
	</g>
	<g>
		<path fill="#857F7A" d="M339.4,295c0.1,0.1,0.1,0.1,0.1,0c0,0,0-0.1,0-0.1c0-0.1,0-0.1,0-0.2c-0.1-0.1-0.2-0.1-0.3-0.1
			c0,0-0.1,0-0.1,0.1c0,0,0,0.1,0,0.1C339.2,294.8,339.3,294.9,339.4,295z"/>
	</g>
	<g>
		<path fill="#857F7A" d="M340.1,293.9c0.1,0,0.1,0,0.2,0c0.1,0,0.1,0,0.2,0c0,0,0.1,0,0.1-0.1c0,0,0-0.1-0.1-0.1
			c-0.1,0-0.3,0-0.4,0c0,0-0.1,0-0.1,0.1C339.9,293.9,340,293.9,340.1,293.9z"/>
	</g>
	<g>
		<path fill="#857F7A" d="M361.7,317.4c0,0-0.1-0.1-0.1-0.1c-0.1,0-0.2,0-0.3,0c0,0-0.1,0.1-0.1,0.1c0,0.1,0,0.2,0,0.3
			c0,0,0.1,0.1,0.1,0.1c0.2,0.2,0.3,0.4,0.6,0.3c0.1,0.1,0.2,0.1,0.2,0.2c0.1,0.1,0.2,0.1,0.2,0c0,0,0-0.1,0.1-0.1
			c0-0.1,0-0.2-0.1-0.3C362.1,317.8,361.9,317.6,361.7,317.4z"/>
	</g>
	<g>
		<path fill="#857F7A" d="M367.4,316.6c0-0.1,0-0.2,0-0.3c-0.1-0.1-0.2-0.2-0.3-0.3c-0.1-0.1-0.1-0.1-0.2-0.1
			c-0.1,0.1-0.1,0.2-0.1,0.3c0,0,0,0.1,0,0.2c0,0.1,0,0.1,0,0.2c0,0.2,0.2,0.3,0.4,0.3C367.3,316.8,367.4,316.7,367.4,316.6z"/>
	</g>
	<g>
		<path fill="#857F7A" d="M370.2,315.4c0-0.1-0.1-0.2-0.2-0.2c0,0-0.1,0-0.1,0c-0.1,0-0.2,0-0.3,0.1c-0.1,0.1-0.1,0.3,0,0.4
			c0.1,0.1,0.1,0.1,0.2,0.2c0.3,0.3,0.3,0.3,0.3,0.1c0-0.1,0-0.2,0-0.3C370.2,315.6,370.2,315.5,370.2,315.4z"/>
	</g>
	<g>
		<path fill="#857F7A" d="M363.6,337.2c-0.1-0.1-0.1-0.1-0.2,0c0,0.1-0.1,0.2,0,0.3c0,0,0,0.1,0.1,0.1c0.1,0.1,0.2,0.2,0.3,0.3
			c0.1,0.1,0.1,0.1,0.2,0c0,0,0-0.1,0-0.1c0-0.1,0-0.2-0.1-0.3C363.8,337.4,363.6,337.3,363.6,337.2z"/>
	</g>
	<g>
		<path fill="#857F7A" d="M367.8,322.5c-0.1,0-0.2-0.1-0.3,0c0,0-0.1,0-0.1,0c-0.1,0.1-0.1,0.1,0,0.2c0.1,0.1,0.2,0.1,0.2,0.2
			c0.1,0.1,0.2,0.1,0.2,0.1c0,0,0.1-0.1,0.1-0.1C367.9,322.7,368,322.6,367.8,322.5z"/>
	</g>
	<g>
		<path fill="#857F7A" d="M370.9,317.2c0,0,0-0.1,0-0.1c0-0.2,0-0.3-0.2-0.4c-0.1-0.1-0.2-0.1-0.1,0.3c0,0,0,0.1,0,0.1
			c0,0.1,0.1,0.2,0.2,0.2C370.8,317.3,370.8,317.2,370.9,317.2z"/>
	</g>
	<g>
		<path fill="#857F7A" d="M371.5,321.4c-0.1,0-0.1,0-0.2,0.1c0,0,0.1,0.1,0.1,0.1c0.1,0,0.1,0,0.2-0.1
			C371.6,321.5,371.6,321.5,371.5,321.4z"/>
	</g>
	<g>
		<path fill="#857F7A" d="M368.8,321.6c0,0,0.1,0.1,0.1,0.1c0.1,0,0.1,0,0.2-0.1c0,0-0.1-0.1-0.1-0.1
			C369,321.5,368.9,321.5,368.8,321.6z"/>
	</g>
	<g>
		<path fill="#857F7A" d="M370.6,316.6c0-0.1-0.1-0.1-0.2-0.1c0,0-0.1,0.1-0.1,0.1c0,0.1,0.1,0.1,0.1,0.2c0,0,0.1,0,0.1,0
			C370.6,316.7,370.6,316.6,370.6,316.6z"/>
	</g>
	<g>
		<path fill="#857F7A" d="M348.9,327c0,0-0.1,0-0.1,0.1c0,0.1-0.1,0.2-0.1,0.3c0,0,0,0.1,0,0.1c0.1,0.1,0.2,0.1,0.3,0.2
			c0,0,0.1,0,0.1,0c0.2-0.1,0.5-0.1,0.6-0.4c0.1,0,0.2-0.1,0.3-0.1c0.2,0,0.2-0.1,0.1-0.2c0,0-0.1-0.1-0.1-0.1
			c-0.1-0.1-0.2-0.1-0.3-0.1C349.5,326.9,349.2,326.9,348.9,327z"/>
	</g>
	<g>
		<path fill="#857F7A" d="M367.7,342.1c-0.1,0-0.2,0.1-0.2,0.1c-0.1,0.2-0.2,0.3-0.2,0.5c0,0.1,0,0.2,0.1,0.3
			c0.1,0.1,0.3,0.2,0.5,0.3c0.1,0,0.2,0,0.3,0c0.4-0.1,1-0.1,1.2-0.7c0.2-0.1,0.3-0.2,0.5-0.2c0.3,0,0.4-0.1,0.3-0.3
			c0-0.1-0.1-0.1-0.1-0.2c-0.2-0.1-0.3-0.2-0.5-0.2C368.8,341.8,368.2,341.9,367.7,342.1z"/>
	</g>
	<g>
		<path fill="#857F7A" d="M360.2,288.7c-0.1,0-0.2,0.1-0.2,0.1c-0.1,0.2-0.2,0.3-0.2,0.5c0,0.1,0,0.2,0.1,0.3
			c0.1,0.1,0.3,0.2,0.5,0.3c0.1,0,0.2,0,0.3,0c0.4-0.1,1,0.3,1.2-0.3C361.9,289.6,360.7,288.6,360.2,288.7z"/>
	</g>
	<g>
		<path fill="#857F7A" d="M346.7,326c-0.1-0.1-0.2-0.1-0.3-0.2c-0.1,0-0.3,0.1-0.4,0.1c-0.1,0-0.2,0.1-0.2,0.1
			c0,0.1,0.1,0.2,0.2,0.2c0,0,0.1,0,0.1,0.1c0,0,0.1,0,0.1,0.1c0.2,0.1,0.4,0,0.5-0.2C346.8,326.2,346.8,326.1,346.7,326z"/>
	</g>
	<g>
		<path fill="#857F7A" d="M347.1,323c-0.1,0-0.2,0-0.3,0c0,0,0,0.1-0.1,0.1c-0.1,0.1-0.1,0.2,0,0.3c0.1,0.1,0.2,0.2,0.4,0.2
			c0.1,0,0.2,0,0.3-0.1c0.4-0.1,0.4-0.1,0.2-0.2c-0.1-0.1-0.1-0.1-0.2-0.2C347.3,323.1,347.2,323,347.1,323z"/>
	</g>
	<g>
		<path fill="#857F7A" d="M351.4,324.8c-0.2,0-0.2,0.1-0.1,0.2c0,0.1,0.1,0.1,0.2,0.2c0,0,0.1,0,0.1,0c0.1,0,0.3-0.1,0.4-0.1
			c0.2,0,0.2-0.1,0.1-0.2c0,0-0.1-0.1-0.1-0.1c-0.1-0.1-0.2-0.1-0.3-0.1C351.6,324.7,351.5,324.8,351.4,324.8z"/>
	</g>
	<g>
		<path fill="#857F7A" d="M351.9,328.8c-0.1,0-0.1,0.1-0.2,0.2c0,0,0,0.1,0,0.1c0,0.2,0,0.2,0.2,0.1c0.1,0,0.2-0.1,0.3-0.1
			c0.1,0,0.2-0.1,0.2-0.1c0,0,0-0.1,0-0.1C352.1,328.8,352,328.7,351.9,328.8z"/>
	</g>
	<g>
		<path fill="#857F7A" d="M349,323.4c0,0-0.1-0.1-0.1-0.1c-0.1-0.1-0.3-0.1-0.4,0c-0.1,0.1-0.1,0.1,0.2,0.3c0,0,0.1,0.1,0.1,0.1
			c0.1,0,0.2,0,0.2-0.1C349.1,323.5,349,323.4,349,323.4z"/>
	</g>
	<g>
		<path fill="#857F7A" d="M352.9,325c-0.1,0-0.1,0.1,0,0.2c0,0,0.1,0,0.1,0c0.1,0,0.1-0.1,0-0.2C353,325,353,325,352.9,325z"/>
	</g>
	<g>
		<path fill="#857F7A" d="M351.7,327.4c0,0,0.1,0,0.1,0c0.1,0,0.1-0.1,0-0.2c0,0-0.1,0-0.1,0C351.6,327.2,351.6,327.3,351.7,327.4z"
			/>
	</g>
	<g>
		<path fill="#857F7A" d="M343.9,350.9c-0.1,0-0.1,0-0.2,0.1c-0.1,0.1-0.1,0.2-0.2,0.4c0,0.1,0,0.2,0.1,0.2c0.1,0.1,0.2,0.2,0.4,0.2
			c0.1,0,0.1,0,0.2,0c0.3-0.1,0.7-0.1,0.9-0.5c0.1-0.1,0.3-0.1,0.4-0.1c0.2,0,0.3-0.1,0.2-0.2c0-0.1-0.1-0.1-0.1-0.2
			c-0.1-0.1-0.3-0.2-0.4-0.1C344.8,350.7,344.4,350.8,343.9,350.9z"/>
	</g>
	<g>
		<path fill="#857F7A" d="M340.9,349.5c-0.1-0.1-0.2-0.1-0.4-0.2c-0.2,0.1-0.4,0.1-0.6,0.2c-0.2,0-0.3,0.1-0.2,0.2
			c0,0.1,0.1,0.2,0.3,0.3c0.1,0,0.1,0.1,0.2,0.1c0.1,0,0.1,0.1,0.2,0.1c0.3,0.2,0.5,0,0.6-0.3C341,349.8,341,349.6,340.9,349.5z"/>
	</g>
	<g>
		<path fill="#857F7A" d="M347.3,347.8c-0.2,0-0.3,0.1-0.1,0.3c0.1,0.1,0.2,0.2,0.3,0.3c0.1,0,0.1,0,0.2,0c0.2,0,0.4-0.1,0.6-0.1
			c0.2,0,0.3-0.1,0.1-0.3c0-0.1-0.1-0.1-0.1-0.1c-0.1-0.1-0.2-0.2-0.4-0.1C347.7,347.7,347.5,347.8,347.3,347.8z"/>
	</g>
	<g>
		<path fill="#857F7A" d="M364.3,350.2c-0.1,0.1-0.2,0.2-0.3,0.3c0,0.1,0,0.1,0,0.2c0,0.2,0.1,0.3,0.2,0.2c0.1-0.1,0.3-0.1,0.4-0.1
			c0.2,0,0.3-0.1,0.3-0.2c0-0.1,0-0.2-0.1-0.2C364.7,350.3,364.6,350.1,364.3,350.2z"/>
	</g>
	<g>
		<path fill="#857F7A" d="M344.5,346.1c-0.1,0.1-0.2,0.2-0.3,0.3c0,0.1,0,0.1,0,0.2c0,0.2,0.1,0.3,0.2,0.2c0.1-0.1,0.3-0.1,0.4-0.1
			c0.2,0,0.3-0.1,0.3-0.2c0-0.1,0-0.2-0.1-0.2C344.9,346.2,344.7,346,344.5,346.1z"/>
	</g>
	<g>
		<path fill="#857F7A" d="M328,332.6c-0.1,0.1-0.2,0.2-0.3,0.3c0,0.1,0,0.1,0,0.2c0,0.2,0.1,0.3,0.2,0.2c0.1-0.1,0.3-0.1,0.4-0.1
			c0.2,0,0.3-0.1,0.3-0.2c0-0.1,0-0.2-0.1-0.2C328.4,332.7,328.3,332.5,328,332.6z"/>
	</g>
	<g>
		<path fill="#857F7A" d="M372.1,324.7c-0.1,0.1-0.2,0.2-0.3,0.3c0,0.1,0,0.1,0,0.2c0,0.2,0.1,0.3,0.2,0.2c0.1-0.1,0.3-0.1,0.4-0.1
			c0.2,0,0.3-0.1,0.3-0.2c0-0.1,0-0.2-0.1-0.2C372.5,324.8,372.3,324.6,372.1,324.7z"/>
	</g>
	<g>
		<path fill="#857F7A" d="M351,291.1c-0.1,0.1-0.2,0.2-0.3,0.3c0,0.1,0,0.1,0,0.2c0,0.2,0.1,0.3,0.2,0.2c0.1-0.1,0.3-0.1,0.4-0.1
			c0.2,0,0.3-0.1,0.3-0.2c0-0.1,0-0.2-0.1-0.2C351.4,291.2,351.3,291,351,291.1z"/>
	</g>
	<g>
		<path fill="#857F7A" d="M333.3,307.3c-0.1,0.1-0.2,0.2-0.3,0.3c0,0.1,0,0.1,0,0.2c0,0.2,0.1,0.3,0.2,0.2c0.1-0.1,0.3-0.1,0.4-0.1
			c0.2,0,0.3-0.1,0.3-0.2c0-0.1,0-0.2-0.1-0.2C333.6,307.3,333.5,307.1,333.3,307.3z"/>
	</g>
	<g>
		<path fill="#857F7A" d="M349.5,348.2c-0.1,0.1-0.1,0.2,0,0.3c0.1,0,0.1,0,0.2-0.1c0.1,0,0.1-0.2,0-0.3
			C349.6,348.1,349.5,348.2,349.5,348.2z"/>
	</g>
	<g>
		<path fill="#857F7A" d="M347.7,351.5c0.1,0,0.1,0,0.2-0.1c0.1-0.1,0.1-0.2,0-0.3c-0.1,0-0.1,0-0.2,0.1
			C347.7,351.2,347.7,351.3,347.7,351.5z"/>
	</g>
	<g>
		<path fill="#857F7A" d="M348.3,323.3c-0.1,0-0.2,0-0.2,0.1c0,0,0,0.1,0,0.1c0.1,0,0.1,0,0.2,0c0,0,0.1-0.1,0.1-0.1
			C348.4,323.4,348.4,323.3,348.3,323.3z"/>
	</g>
</g>
<g>
	<g>
		<path fill="#23A8D7" d="M379.5,222.8c0.2-1.3,0.3-2.5,0.3-3.8c0-1.6-0.2-3.3-0.5-5.2c-1.5,0.5-2.2,1.3-2.9,2.1
			c-1,1.1-2.2,2.4-4.9,3c-2.8,0.5-4.4-0.3-5.7-1c-1.1-0.6-2.1-1.1-3.9-0.9c-1.8,0.1-2.7,0.8-3.7,1.6c-1.2,0.9-2.6,2-5.4,2
			c-2.8,0-4.2-1.1-5.4-2c-1-0.8-1.9-1.4-3.6-1.6c-1.8-0.2-2.8,0.3-3.9,0.9c-1.4,0.7-2.9,1.5-5.7,1c-2.8-0.6-3.9-1.9-5-3
			c-0.7-0.8-1.3-1.4-2.4-1.9c-0.3,1.8-0.4,3.5-0.4,5c0,1.3,0.1,2.5,0.3,3.7C343.5,229.8,362.5,229.9,379.5,222.8z"/>
	</g>
	<g>
		<path fill="#23A8D7" d="M343.9,235.5l0.3-0.1l0.3,0.1c2.7,1.3,5.4,2.5,8.3,3.5c2.9-1,5.6-2.2,8.3-3.5l0.3-0.1l0.3,0.1
			c2.9,0.6,5.9,1,9,1.2c1.8-1.2,3.6-2.6,5.3-4c1.4-2.2,2.4-4.7,3-7.2c-8.3,3.3-17,4.9-25.8,4.9c-8.8,0-17.7-1.7-26.1-5
			c0.7,2.9,1.9,5.6,3.6,8.2c1.4,1.1,2.8,2.1,4.3,3.1C337.9,236.6,340.9,236.1,343.9,235.5z"/>
	</g>
	<g>
		<path fill="#23A8D7" d="M330.9,214.3c0.9,1,1.6,1.8,3.6,2.3c2,0.3,2.9-0.2,4.1-0.8c1.3-0.7,2.7-1.4,5.2-1.1
			c2.5,0.2,3.8,1.2,4.9,2.1c1.1,0.8,1.9,1.5,3.9,1.5c2,0,2.8-0.7,3.9-1.5c1.1-0.9,2.4-1.9,4.9-2.1c2.5-0.3,3.9,0.5,5.2,1.1
			c1.2,0.6,2.2,1.1,4.2,0.8c1.9-0.4,2.7-1.2,3.6-2.2c0.9-1.1,2-2.2,4.3-2.9c-0.9-4.4-2.4-9.2-4.5-13.8c-7,2.1-14.1,3.2-21.3,3.2
			c-7.2,0-14.4-1.1-21.3-3.2l0.3-1.1c-2.3,5-4.1,10.3-5,15.1C329.1,212.2,330.1,213.3,330.9,214.3z M374,204.8
			c0.6-0.2,1.2,0.2,1.3,0.8c0.2,0.6-0.2,1.2-0.8,1.3c-0.6,0.2-1.2-0.2-1.3-0.8C373.1,205.5,373.5,204.9,374,204.8z M363.5,206.8
			c0.6-0.1,1.1,0.3,1.2,0.9c0.1,0.6-0.3,1.1-1,1.2c-0.6,0.1-1.2-0.3-1.2-0.9C362.4,207.4,362.9,206.9,363.5,206.8z M352.7,207.5
			c0.6,0,1.1,0.5,1.1,1.1c0,0.6-0.5,1.1-1.1,1.1c-0.6,0-1.1-0.5-1.1-1.1C351.6,208,352.1,207.5,352.7,207.5z M342,206.8
			c0.6,0.1,1,0.6,1,1.2c-0.1,0.6-0.6,1-1.2,0.9c-0.6-0.1-1-0.6-1-1.2C340.9,207.1,341.4,206.7,342,206.8z M330.1,205.5
			c0.2-0.6,0.8-0.9,1.3-0.8c0.6,0.2,0.9,0.7,0.8,1.3c-0.1,0.6-0.7,0.9-1.3,0.8C330.3,206.7,329.9,206.1,330.1,205.5z"/>
	</g>
	<g>
		<path fill="#23A8D7" d="M373.4,195.4c-0.7-1.4-1.4-2.8-2.2-4.1c-1.6,0.1-2.5-0.4-3.4-0.7c-1-0.4-1.8-0.8-3.4-0.7
			c-1.6,0.1-2.4,0.6-3.3,1.2c-0.9,0.6-2,1.3-4,1.4c-2.1,0.1-3.1-0.6-4.1-1.1c-0.9-0.5-1.7-1-3.3-1c-1.7,0-2.4,0.4-3.4,0.9
			c-1,0.5-2.1,1.1-4.1,0.9c-2-0.2-3.1-0.9-3.9-1.6c-0.6-0.5-1.2-0.9-2.2-1.2c-1.2,1.9-2.4,3.9-3.4,6
			C346,199.4,360.1,199.4,373.4,195.4z"/>
	</g>
	<g>
		<path fill="#23A8D7" d="M370.8,238.6c-3.1-0.2-6.2-0.6-9.2-1.2c-2.7,1.4-5.6,2.6-8.5,3.6l-0.3,0.1l-0.3-0.1
			c-2.9-1-5.8-2.2-8.5-3.6c-3,0.6-6,1-9.1,1.2c5,4.6,11.4,7.2,18.2,7.3c6.8,0,13.3-2.7,18.3-7.4l-0.2,0.1L370.8,238.6z"/>
	</g>
	<g>
		<path fill="#23A8D7" d="M342.3,190.8c1.7,0.1,2.5-0.3,3.4-0.8c1-0.5,2-1.1,4-1c2,0.1,3,0.7,4,1.2c0.9,0.5,1.7,1,3.4,0.9
			c1.7,0,2.4-0.5,3.3-1.1c0.9-0.6,1.9-1.3,3.9-1.4c2-0.2,3.1,0.3,4.1,0.8c0.6,0.3,1.2,0.5,2.1,0.6c-1.7-2.8-3.7-5.3-5.7-7.3
			c-3.9-3.8-7.7-5.7-11.6-5.7l-0.1,0l-0.1,0c-4,0-7.6,1.8-11.6,5.7c-1.6,1.6-3.1,3.5-4.6,5.5c1,0.3,1.6,0.8,2.2,1.3
			C339.9,190.1,340.6,190.6,342.3,190.8z"/>
	</g>
	<g>
		<path fill="#FFFFFF" d="M329.1,215.9c1,1.1,2.2,2.4,5,3c2.8,0.5,4.3-0.3,5.7-1c1.1-0.6,2.1-1.1,3.9-0.9c1.8,0.1,2.7,0.8,3.6,1.6
			c1.2,0.9,2.6,2,5.4,2c2.8,0,4.2-1.1,5.4-2c1-0.8,1.9-1.4,3.7-1.6c1.8-0.2,2.8,0.3,3.9,0.9c1.4,0.7,2.9,1.5,5.7,1
			c2.8-0.6,3.9-1.9,4.9-3c0.8-0.9,1.5-1.6,2.9-2.1c-0.1-0.8-0.3-1.6-0.4-2.4c-2.3,0.7-3.4,1.9-4.3,2.9c-0.9,1-1.6,1.8-3.6,2.2
			c-2,0.3-3-0.1-4.2-0.8c-1.3-0.6-2.7-1.4-5.2-1.1c-2.5,0.2-3.8,1.2-4.9,2.1c-1.1,0.8-1.9,1.5-3.9,1.5c-2,0-2.9-0.7-3.9-1.5
			c-1.1-0.9-2.4-1.9-4.9-2.1c-2.5-0.3-3.9,0.5-5.2,1.1c-1.2,0.6-2.2,1.1-4.1,0.8c-2-0.4-2.7-1.2-3.6-2.3c-0.9-1-1.8-2.1-3.8-2.7
			c-0.2,0.8-0.3,1.6-0.4,2.4C327.8,214.4,328.5,215.1,329.1,215.9z"/>
	</g>
	<g>
		<path fill="#0076AB" d="M329.1,215.9c1,1.1,2.2,2.4,5,3c2.8,0.5,4.3-0.3,5.7-1c1.1-0.6,2.1-1.1,3.9-0.9c1.8,0.1,2.7,0.8,3.6,1.6
			c1.2,0.9,2.6,2,5.4,2c2.8,0,4.2-1.1,5.4-2c1-0.8,1.9-1.4,3.7-1.6c1.8-0.2,2.8,0.3,3.9,0.9c1.4,0.7,2.9,1.5,5.7,1
			c2.8-0.6,3.9-1.9,4.9-3c0.8-0.9,1.5-1.6,2.9-2.1c-0.1-0.8-0.3-1.6-0.4-2.4c-2.3,0.7-3.4,1.9-4.3,2.9c-0.9,1-1.6,1.8-3.6,2.2
			c-2,0.3-3-0.1-4.2-0.8c-1.3-0.6-2.7-1.4-5.2-1.1c-2.5,0.2-3.8,1.2-4.9,2.1c-1.1,0.8-1.9,1.5-3.9,1.5c-2,0-2.9-0.7-3.9-1.5
			c-1.1-0.9-2.4-1.9-4.9-2.1c-2.5-0.3-3.9,0.5-5.2,1.1c-1.2,0.6-2.2,1.1-4.1,0.8c-2-0.4-2.7-1.2-3.6-2.3c-0.9-1-1.8-2.1-3.8-2.7
			c-0.2,0.8-0.3,1.6-0.4,2.4C327.8,214.4,328.5,215.1,329.1,215.9z"/>
	</g>
	<g>
		<path fill="#5BCAF4" d="M336.8,188.2c-0.3,0.4-0.5,0.8-0.7,1.1c0,0,0,0,0,0C336.3,188.9,336.6,188.6,336.8,188.2
			C336.8,188.2,336.8,188.2,336.8,188.2z"/>
	</g>
	<g>
		<path fill="#FFFFFF" d="M342.2,192.1c2,0.2,3.2-0.4,4.1-0.9c0.9-0.5,1.7-0.9,3.4-0.9c1.7,0,2.4,0.5,3.3,1c0.9,0.6,2,1.2,4.1,1.1
			c2.1-0.1,3.1-0.7,4-1.4c0.9-0.6,1.6-1.1,3.3-1.2c1.6-0.1,2.5,0.2,3.4,0.7c0.9,0.4,1.8,0.8,3.4,0.7c-0.3-0.4-0.5-0.9-0.8-1.3
			c-0.8-0.1-1.4-0.3-2.1-0.6c-1-0.4-2.1-1-4.1-0.8c-2,0.2-3,0.8-3.9,1.4c-0.9,0.6-1.6,1.1-3.3,1.1c-1.7,0-2.5-0.4-3.4-0.9
			c-0.9-0.6-2-1.2-4-1.2c-2-0.1-3.1,0.5-4,1c-0.9,0.5-1.7,0.9-3.4,0.8c-1.7-0.1-2.4-0.7-3.2-1.3c-0.6-0.4-1.2-0.9-2.2-1.3
			c-0.3,0.4-0.5,0.7-0.7,1.1c0.9,0.3,1.5,0.7,2.2,1.2C339.1,191.2,340.1,191.9,342.2,192.1z"/>
	</g>
	<g>
		<path fill="#FFFFFF" d="M342.2,192.1c2,0.2,3.2-0.4,4.1-0.9c0.9-0.5,1.7-0.9,3.4-0.9c1.7,0,2.4,0.5,3.3,1c0.9,0.6,2,1.2,4.1,1.1
			c2.1-0.1,3.1-0.7,4-1.4c0.9-0.6,1.6-1.1,3.3-1.2c1.6-0.1,2.5,0.2,3.4,0.7c0.9,0.4,1.8,0.8,3.4,0.7c-0.3-0.4-0.5-0.9-0.8-1.3
			c-0.8-0.1-1.4-0.3-2.1-0.6c-1-0.4-2.1-1-4.1-0.8c-2,0.2-3,0.8-3.9,1.4c-0.9,0.6-1.6,1.1-3.3,1.1c-1.7,0-2.5-0.4-3.4-0.9
			c-0.9-0.6-2-1.2-4-1.2c-2-0.1-3.1,0.5-4,1c-0.9,0.5-1.7,0.9-3.4,0.8c-1.7-0.1-2.4-0.7-3.2-1.3c-0.6-0.4-1.2-0.9-2.2-1.3
			c-0.3,0.4-0.5,0.7-0.7,1.1c0.9,0.3,1.5,0.7,2.2,1.2C339.1,191.2,340.1,191.9,342.2,192.1z"/>
	</g>
	<g>
		<path fill="#0076AB" d="M353.2,200.8c7.2,0,14.3-1.1,21.3-3.2c-0.3-0.7-0.7-1.5-1-2.2c-13.3,4-27.4,4-40.7-0.1
			c-0.2,0.4-0.4,0.8-0.5,1.1l-0.5,1.1C338.6,199.7,346,200.8,353.2,200.8z"/>
	</g>
	<g>
		<path fill="#FFFFFF" d="M378.9,225.6c0.2-0.9,0.4-1.9,0.6-2.8c-16.9,7.1-36,7.1-52.9-0.1c0.1,1,0.3,1.9,0.5,2.8
			c8.4,3.3,17.2,5,26.1,5C361.9,230.5,370.6,228.9,378.9,225.6z"/>
	</g>
	<g>
		<path fill="#FFFFFF" d="M330.9,206.8c0.6,0.2,1.2-0.2,1.3-0.8c0.1-0.6-0.2-1.2-0.8-1.3c-0.6-0.2-1.2,0.2-1.3,0.8
			C329.9,206.1,330.3,206.7,330.9,206.8z"/>
	</g>
	<g>
		<path fill="#FFFFFF" d="M374.6,206.8c0.6-0.2,1-0.8,0.8-1.3c-0.2-0.6-0.8-0.9-1.3-0.8c-0.6,0.2-0.9,0.7-0.8,1.3
			C373.4,206.6,374,207,374.6,206.8z"/>
	</g>
	<g>
		<path fill="#FFFFFF" d="M363.7,208.9c0.6-0.1,1-0.6,1-1.2c-0.1-0.6-0.6-1-1.2-0.9c-0.6,0.1-1,0.6-1,1.2
			C362.6,208.6,363.1,209,363.7,208.9z"/>
	</g>
	<g>
		<path fill="#FFFFFF" d="M352.7,209.6c0.6,0,1.1-0.5,1.1-1.1c0-0.6-0.5-1.1-1.1-1.1c-0.6,0-1.1,0.5-1.1,1.1
			C351.6,209.1,352.1,209.6,352.7,209.6z"/>
	</g>
	<g>
		<path fill="#FFFFFF" d="M341.8,208.9c0.6,0.1,1.2-0.3,1.2-0.9c0.1-0.6-0.4-1.1-1-1.2c-0.6-0.1-1.1,0.3-1.2,0.9
			C340.7,208.3,341.1,208.9,341.8,208.9z"/>
	</g>
	<g>
		<path fill="#0076AB" d="M375.9,232.8c-1.7,1.4-3.5,2.7-5.3,4c-3-0.2-6-0.6-9-1.2l-0.3-0.1l-0.3,0.1c-2.7,1.3-5.4,2.5-8.3,3.5
			c-2.9-1-5.6-2.2-8.3-3.5l-0.3-0.1l-0.3,0.1c-2.9,0.6-5.9,1-9,1.2c-1.5-1-2.9-2-4.3-3.1c1,1.5,2.1,2.9,3.4,4.2
			c0.2,0.2,0.5,0.5,0.8,0.7c3.1-0.2,6.1-0.6,9.1-1.2c2.7,1.4,5.6,2.6,8.5,3.6l0.3,0.1l0.3-0.1c2.9-1,5.8-2.2,8.5-3.6
			c3,0.6,6.1,1,9.2,1.2l0.3,0l0.2-0.1c0.2-0.2,0.4-0.4,0.6-0.6C373.5,236.3,374.8,234.6,375.9,232.8z"/>
	</g>
	<g opacity="0.2">
		<path fill="#0076AB" d="M347.2,237.9c-17.5-15.5-14.1-40-2.5-58c-1.1,0.8-2.2,1.7-3.4,2.9c-8.9,8.8-15,25.9-15.1,36.3
			c-0.1,7.1,2.7,13.8,7.8,18.9c5.1,5.1,11.8,7.9,18.9,8c1.7,0,3.4-0.2,5.1-0.5C354.2,243.3,350.6,240.8,347.2,237.9z"/>
	</g>
</g>
<g>
	<g>
		<path fill="#FFD749" d="M563.7,222.8c0.2-1.3,0.3-2.5,0.3-3.8c0-1.6-0.2-3.3-0.5-5.2c-1.5,0.5-2.2,1.3-2.9,2.1
			c-1,1.1-2.2,2.4-4.9,3c-2.8,0.5-4.3-0.3-5.7-1c-1.1-0.6-2.1-1.1-3.9-0.9c-1.8,0.1-2.7,0.8-3.7,1.6c-1.2,0.9-2.6,2-5.4,2
			c-2.8,0-4.2-1.1-5.4-2c-1-0.8-1.9-1.4-3.6-1.6c-1.8-0.2-2.8,0.3-3.9,0.9c-1.4,0.7-2.9,1.5-5.7,1c-2.8-0.6-3.9-1.9-5-3
			c-0.7-0.8-1.3-1.4-2.4-1.9c-0.3,1.8-0.4,3.5-0.4,5c0,1.3,0.1,2.5,0.3,3.7C527.7,229.9,546.8,229.9,563.7,222.8z"/>
	</g>
	<g>
		<path fill="#FFD749" d="M528.1,235.5l0.3-0.1l0.3,0.1c2.6,1.3,5.4,2.5,8.3,3.5c2.8-1,5.6-2.1,8.3-3.5l0.3-0.1l0.3,0.1
			c2.9,0.6,5.9,1,8.9,1.2c1.8-1.2,3.6-2.6,5.3-4c1.4-2.2,2.4-4.6,3-7.2c-8.3,3.2-17,4.9-25.7,4.9c-8.8,0-17.7-1.7-26-5
			c0.7,2.9,1.9,5.6,3.6,8.2c1.4,1.1,2.8,2.1,4.3,3.1C522.2,236.6,525.2,236.2,528.1,235.5z"/>
	</g>
	<g>
		<path fill="#FFD749" d="M515.2,214.3c0.9,1,1.6,1.8,3.6,2.3c1.9,0.3,2.9-0.2,4.1-0.8c1.3-0.7,2.7-1.4,5.2-1.1
			c2.5,0.2,3.7,1.2,4.9,2.1c1.1,0.8,1.9,1.5,3.9,1.5c2,0,2.8-0.7,3.9-1.5c1.1-0.9,2.4-1.9,4.9-2.1c2.5-0.3,3.9,0.5,5.2,1.1
			c1.2,0.6,2.2,1.1,4.2,0.8c1.9-0.4,2.7-1.2,3.6-2.2c0.9-1.1,2-2.2,4.3-2.9c-0.9-4.4-2.4-9.2-4.4-13.8c-6.9,2.1-14.1,3.2-21.2,3.2
			c-7.2,0-14.3-1.1-21.3-3.2l0.3-1.1c-2.3,5-4.1,10.3-5,15.1C513.4,212.3,514.3,213.4,515.2,214.3z M558.3,204.8
			c0.6-0.2,1.2,0.2,1.3,0.8c0.2,0.6-0.2,1.2-0.8,1.3c-0.6,0.2-1.2-0.2-1.3-0.8C557.3,205.5,557.7,205,558.3,204.8z M547.7,206.8
			c0.6-0.1,1.1,0.3,1.2,0.9c0.1,0.6-0.3,1.1-1,1.2c-0.6,0.1-1.2-0.3-1.2-0.9C546.7,207.4,547.1,206.9,547.7,206.8z M537,207.5
			c0.6,0,1.1,0.5,1.1,1.1c0,0.6-0.5,1.1-1.1,1.1c-0.6,0-1.1-0.5-1.1-1.1C535.9,208,536.4,207.5,537,207.5z M526.3,206.8
			c0.6,0.1,1,0.6,1,1.2c-0.1,0.6-0.6,1-1.2,0.9c-0.6-0.1-1-0.6-1-1.2C525.1,207.2,525.7,206.8,526.3,206.8z M514.4,205.6
			c0.2-0.6,0.8-0.9,1.3-0.8c0.6,0.2,0.9,0.7,0.8,1.3c-0.1,0.6-0.7,0.9-1.3,0.8C514.6,206.7,514.2,206.1,514.4,205.6z"/>
	</g>
	<g>
		<path fill="#FFD749" d="M557.6,195.4c-0.7-1.4-1.4-2.7-2.2-4.1c-1.6,0.1-2.5-0.3-3.4-0.7c-1-0.4-1.8-0.8-3.4-0.7
			c-1.6,0.1-2.4,0.6-3.3,1.2c-0.9,0.6-2,1.3-4,1.3c-2.1,0.1-3.1-0.6-4.1-1.1c-0.9-0.5-1.7-1-3.3-1c-1.6,0-2.4,0.4-3.4,0.9
			c-1,0.5-2.1,1.1-4.1,0.9c-2-0.2-3.1-0.9-3.9-1.6c-0.6-0.5-1.2-0.9-2.2-1.2c-1.2,1.9-2.4,3.9-3.4,6
			C530.3,199.4,544.3,199.5,557.6,195.4z"/>
	</g>
	<g>
		<path fill="#FFD749" d="M555,238.6c-3.1-0.2-6.2-0.6-9.2-1.2c-2.7,1.4-5.6,2.6-8.5,3.5L537,241l-0.3-0.1c-2.9-1-5.8-2.2-8.5-3.5
			c-3,0.6-6,1-9.1,1.2c5,4.6,11.4,7.2,18.1,7.3c6.8,0,13.3-2.7,18.3-7.4l-0.2,0.1L555,238.6z"/>
	</g>
	<g>
		<path fill="#FFD749" d="M526.5,190.8c1.7,0.1,2.5-0.3,3.4-0.8c1-0.5,2-1.1,4-1c2,0.1,3,0.7,4,1.2c0.9,0.5,1.7,1,3.4,0.9
			c1.7,0,2.4-0.5,3.3-1.1c0.9-0.6,1.9-1.3,3.9-1.4c2-0.2,3.1,0.3,4.1,0.8c0.6,0.3,1.2,0.5,2.1,0.6c-1.7-2.8-3.6-5.3-5.7-7.3
			c-3.9-3.8-7.6-5.7-11.5-5.7l-0.1,0l-0.1,0c-4,0-7.6,1.8-11.6,5.7c-1.6,1.6-3.1,3.5-4.6,5.5c1,0.3,1.6,0.8,2.2,1.3
			C524.1,190.2,524.9,190.7,526.5,190.8z"/>
	</g>
	<g>
		<path fill="#FFFFFF" d="M513.4,215.9c1,1.1,2.2,2.4,5,3c2.8,0.5,4.3-0.3,5.7-1c1.1-0.6,2.1-1.1,3.9-0.9c1.8,0.1,2.6,0.8,3.6,1.6
			c1.2,0.9,2.6,2,5.4,2c2.8,0,4.2-1.1,5.4-2c1-0.8,1.9-1.4,3.7-1.6c1.8-0.2,2.8,0.3,3.9,0.9c1.4,0.7,2.9,1.5,5.7,1
			c2.8-0.6,3.9-1.9,4.9-3c0.8-0.9,1.5-1.6,2.9-2.1c-0.1-0.8-0.3-1.6-0.4-2.4c-2.3,0.7-3.4,1.9-4.3,2.9c-0.9,1-1.6,1.8-3.6,2.2
			c-2,0.3-3-0.1-4.2-0.8c-1.3-0.6-2.7-1.4-5.2-1.1c-2.5,0.2-3.8,1.2-4.9,2.1c-1.1,0.8-1.9,1.5-3.9,1.5c-2,0-2.9-0.7-3.9-1.5
			c-1.1-0.9-2.4-1.9-4.9-2.1c-2.5-0.3-3.9,0.5-5.2,1.1c-1.2,0.6-2.2,1.1-4.1,0.8c-2-0.4-2.7-1.2-3.6-2.3c-0.9-1-1.8-2.1-3.8-2.7
			c-0.2,0.8-0.3,1.6-0.4,2.4C512.1,214.5,512.7,215.2,513.4,215.9z"/>
	</g>
	<g>
		<path fill="#EAB243" d="M513.4,215.9c1,1.1,2.2,2.4,5,3c2.8,0.5,4.3-0.3,5.7-1c1.1-0.6,2.1-1.1,3.9-0.9c1.8,0.1,2.6,0.8,3.6,1.6
			c1.2,0.9,2.6,2,5.4,2c2.8,0,4.2-1.1,5.4-2c1-0.8,1.9-1.4,3.7-1.6c1.8-0.2,2.8,0.3,3.9,0.9c1.4,0.7,2.9,1.5,5.7,1
			c2.8-0.6,3.9-1.9,4.9-3c0.8-0.9,1.5-1.6,2.9-2.1c-0.1-0.8-0.3-1.6-0.4-2.4c-2.3,0.7-3.4,1.9-4.3,2.9c-0.9,1-1.6,1.8-3.6,2.2
			c-2,0.3-3-0.1-4.2-0.8c-1.3-0.6-2.7-1.4-5.2-1.1c-2.5,0.2-3.8,1.2-4.9,2.1c-1.1,0.8-1.9,1.5-3.9,1.5c-2,0-2.9-0.7-3.9-1.5
			c-1.1-0.9-2.4-1.9-4.9-2.1c-2.5-0.3-3.9,0.5-5.2,1.1c-1.2,0.6-2.2,1.1-4.1,0.8c-2-0.4-2.7-1.2-3.6-2.3c-0.9-1-1.8-2.1-3.8-2.7
			c-0.2,0.8-0.3,1.6-0.4,2.4C512.1,214.5,512.7,215.2,513.4,215.9z"/>
	</g>
	<g>
		<path fill="#5BCAF4" d="M521,188.3c-0.3,0.4-0.5,0.7-0.7,1.1c0,0,0,0,0,0C520.6,189,520.8,188.6,521,188.3
			C521.1,188.3,521.1,188.3,521,188.3z"/>
	</g>
	<g>
		<path fill="#FFFFFF" d="M526.4,192.1c2,0.2,3.2-0.4,4.1-0.9c0.9-0.5,1.7-0.9,3.4-0.9c1.7,0,2.4,0.5,3.3,1c0.9,0.6,2,1.2,4.1,1.1
			c2.1-0.1,3.1-0.7,4-1.3c0.9-0.6,1.6-1.1,3.3-1.2c1.6-0.1,2.5,0.2,3.4,0.7c0.9,0.4,1.8,0.8,3.4,0.7c-0.3-0.4-0.5-0.9-0.8-1.3
			c-0.8-0.1-1.4-0.3-2.1-0.6c-1-0.4-2.1-1-4.1-0.8c-2,0.2-3,0.8-3.9,1.4c-0.9,0.6-1.6,1.1-3.3,1.1c-1.7,0-2.5-0.4-3.4-0.9
			c-0.9-0.6-2-1.2-4-1.2c-2-0.1-3.1,0.5-4,1c-0.9,0.5-1.7,0.9-3.4,0.8c-1.7-0.1-2.4-0.7-3.2-1.3c-0.6-0.4-1.2-0.9-2.2-1.3
			c-0.3,0.4-0.5,0.7-0.7,1.1c0.9,0.3,1.5,0.7,2.2,1.2C523.4,191.2,524.4,192,526.4,192.1z"/>
	</g>
	<g>
		<path fill="#FFFFFF" d="M526.4,192.1c2,0.2,3.2-0.4,4.1-0.9c0.9-0.5,1.7-0.9,3.4-0.9c1.7,0,2.4,0.5,3.3,1c0.9,0.6,2,1.2,4.1,1.1
			c2.1-0.1,3.1-0.7,4-1.3c0.9-0.6,1.6-1.1,3.3-1.2c1.6-0.1,2.5,0.2,3.4,0.7c0.9,0.4,1.8,0.8,3.4,0.7c-0.3-0.4-0.5-0.9-0.8-1.3
			c-0.8-0.1-1.4-0.3-2.1-0.6c-1-0.4-2.1-1-4.1-0.8c-2,0.2-3,0.8-3.9,1.4c-0.9,0.6-1.6,1.1-3.3,1.1c-1.7,0-2.5-0.4-3.4-0.9
			c-0.9-0.6-2-1.2-4-1.2c-2-0.1-3.1,0.5-4,1c-0.9,0.5-1.7,0.9-3.4,0.8c-1.7-0.1-2.4-0.7-3.2-1.3c-0.6-0.4-1.2-0.9-2.2-1.3
			c-0.3,0.4-0.5,0.7-0.7,1.1c0.9,0.3,1.5,0.7,2.2,1.2C523.4,191.2,524.4,192,526.4,192.1z"/>
	</g>
	<g>
		<path fill="#EAB243" d="M537.4,200.8c7.1,0,14.3-1.1,21.2-3.2c-0.3-0.7-0.7-1.5-1-2.2c-13.3,4-27.4,4-40.7-0.1
			c-0.2,0.4-0.4,0.8-0.5,1.1l-0.5,1.1C522.9,199.7,530.2,200.8,537.4,200.8z"/>
	</g>
	<g>
		<path fill="#FFFFFF" d="M563.1,225.6c0.2-0.9,0.4-1.9,0.6-2.8c-16.9,7.1-36,7.1-52.8-0.1c0.1,1,0.3,1.9,0.5,2.8
			c8.4,3.3,17.2,5,26,5C546.1,230.5,554.9,228.9,563.1,225.6z"/>
	</g>
	<g>
		<g>
			<path fill="#FFFFFF" d="M515.2,206.9c0.6,0.2,1.2-0.2,1.3-0.8c0.1-0.6-0.2-1.2-0.8-1.3c-0.6-0.2-1.2,0.2-1.3,0.8
				C514.2,206.1,514.6,206.7,515.2,206.9z"/>
		</g>
		<g>
			<path fill="#FFFFFF" d="M558.8,206.9c0.6-0.2,1-0.8,0.8-1.3c-0.2-0.6-0.8-0.9-1.3-0.8c-0.6,0.2-0.9,0.7-0.8,1.3
				C557.6,206.7,558.2,207,558.8,206.9z"/>
		</g>
		<g>
			<path fill="#FFFFFF" d="M548,209c0.6-0.1,1-0.6,1-1.2c-0.1-0.6-0.6-1-1.2-0.9c-0.6,0.1-1,0.6-1,1.2
				C546.8,208.6,547.4,209.1,548,209z"/>
		</g>
		<g>
			<path fill="#FFFFFF" d="M537,209.7c0.6,0,1.1-0.5,1.1-1.1c0-0.6-0.5-1.1-1.1-1.1c-0.6,0-1.1,0.5-1.1,1.1
				C535.9,209.2,536.4,209.7,537,209.7z"/>
		</g>
		<g>
			<path fill="#FFFFFF" d="M526,209c0.6,0.1,1.2-0.3,1.2-0.9c0.1-0.6-0.4-1.1-1-1.2c-0.6-0.1-1.1,0.3-1.2,0.9
				C525,208.4,525.4,208.9,526,209z"/>
		</g>
	</g>
	<g>
		<path fill="#EAB243" d="M560.1,232.8c-1.7,1.4-3.5,2.7-5.3,4c-3-0.2-6-0.6-8.9-1.2l-0.3-0.1l-0.3,0.1c-2.7,1.3-5.4,2.5-8.3,3.5
			c-2.8-1-5.6-2.2-8.3-3.5l-0.3-0.1l-0.3,0.1c-2.9,0.6-5.9,1-8.9,1.2c-1.5-1-2.9-2-4.3-3.1c1,1.5,2.1,2.9,3.4,4.2
			c0.2,0.2,0.5,0.5,0.8,0.7c3.1-0.2,6.1-0.6,9.1-1.2c2.7,1.4,5.6,2.6,8.5,3.5l0.3,0.1l0.3-0.1c2.9-1,5.8-2.2,8.5-3.5
			c3,0.6,6.1,1,9.2,1.2l0.3,0l0.2-0.1c0.2-0.2,0.4-0.4,0.6-0.6C557.7,236.3,559,234.6,560.1,232.8z"/>
	</g>
	<g opacity="0.25">
		<path fill="#EAB243" d="M531.5,237.8c-17.5-15.5-14.1-40-2.4-58c-1.1,0.8-2.2,1.7-3.4,2.8c-8.9,8.8-15,25.8-15.1,36.2
			c-0.1,7.1,2.7,13.8,7.8,18.9c5.1,5.1,11.8,7.9,18.9,7.9c1.7,0,3.4-0.2,5.1-0.5C538.5,243.1,534.8,240.7,531.5,237.8z"/>
	</g>
</g>
<g>
	<g>
		<g>
			<path fill="#FFFFFF" d="M548.7,291.7c-3.9-3.8-7.6-5.7-11.5-5.7l-0.1,0l-0.1,0c-4,0-7.6,1.8-11.6,5.7c-8.9,8.8-15,25.8-15.1,36.2
				c-0.1,7.1,2.7,13.8,7.8,18.9c5.1,5.1,11.8,7.9,18.9,7.9c7.1-0.1,13.8-2.9,18.9-7.9c5.1-5.1,7.9-11.8,7.8-18.9
				C563.7,317.5,557.6,300.5,548.7,291.7z"/>
		</g>
		<g>
			<path fill="#F4F4F4" d="M531.2,346.8c-17.5-15.5-14.1-40-2.5-58c-1.1,0.8-2.2,1.7-3.4,2.8c-8.9,8.8-15,25.8-15.1,36.2
				c-0.1,7.1,2.7,13.8,7.8,18.9c5.1,5.1,11.8,7.9,18.9,7.9c1.7,0,3.4-0.2,5.1-0.5C538.3,352.2,534.6,349.8,531.2,346.8z"/>
		</g>
	</g>
	<g>
		<polygon fill="#D1D1D1" points="555.4,300.6 546.8,298.5 538,304.7 531.6,302.3 538.1,306.1 547.3,299.6 556.3,302.3 		"/>
	</g>
</g>
<g>
	<g>
		<g>
			<g>
				<path fill="#D2C1B8" d="M456.6,291.7c-3.9-3.8-7.6-5.7-11.6-5.7l-0.1,0l-0.1,0c-4,0-7.6,1.8-11.6,5.7
					c-8.9,8.8-15,25.9-15.1,36.3c-0.1,7.1,2.7,13.8,7.8,18.9c5.1,5.1,11.8,7.9,18.9,8c7.1-0.1,13.8-2.9,18.9-8
					c5.1-5.1,7.9-11.8,7.8-18.9C471.6,317.5,465.5,300.5,456.6,291.7z"/>
			</g>
			<g>
				<path fill="#C9B7B0" d="M439.1,346.8c-17.5-15.5-14.1-40-2.5-58c-1.1,0.8-2.2,1.7-3.4,2.9c-8.9,8.8-15,25.9-15.1,36.3
					c-0.1,7.1,2.7,13.8,7.8,18.9c5.1,5.1,11.8,7.9,18.9,8c1.7,0,3.4-0.2,5.1-0.5C446.1,352.2,442.5,349.8,439.1,346.8z"/>
			</g>
		</g>
		<g opacity="0.2">
			<g>
				<path fill="#423E3C" d="M436.1,327.1c0,0.1,0,0.2,0,0.2c0.1,0.3,0.9,0.2,1,0.2c0.1,0-0.5-0.6-0.9-0.5
					C436.2,326.9,436.1,327,436.1,327.1z"/>
			</g>
			<g>
				<path fill="#423E3C" d="M456.4,296.2c0,0.1,0,0.2,0,0.2c0.1,0.3,0.3,0.5,0.4,0.8c0-0.1,0.1-0.1,0.1-0.2c0.1-0.1,0.1-0.3,0.2-0.4
					c0.1-0.1,0.2,0,0.3,0c0.1,0,0.2,0,0.3,0c0.1-0.1,0.1-0.2,0.1-0.4c0-0.1-0.1-0.2-0.1-0.2c-0.4,0-0.8,0-1.2,0.1
					C456.5,296,456.4,296.1,456.4,296.2z"/>
			</g>
			<g>
				<path fill="#423E3C" d="M447.9,327.5c0,0,0,0.1,0,0.2c-0.1,0.2-1,0.1-1.1,0.1c-0.1,0-0.2,0-0.3,0c-0.1-0.1-0.2-0.2-0.1-0.3
					c0-0.1,0.1-0.1,0.1-0.1c0.4,0,0.8,0,1.2,0C447.8,327.4,447.9,327.5,447.9,327.5z"/>
			</g>
			<g>
				<path fill="#423E3C" d="M432.5,324c0,0,0,0.1,0,0.1c0.1,0.2,0.1,0.4,0.2,0.6c0,0,0-0.1,0-0.1c0-0.1,0.1-0.2,0.1-0.3
					c0-0.1,0.1,0,0.1,0c0,0,0.1,0,0.1,0c0.1-0.1,0.1-0.2,0.1-0.3c0-0.1,0-0.1-0.1-0.1c-0.2,0-0.4,0-0.6,0
					C432.6,323.9,432.5,324,432.5,324z"/>
			</g>
			<g>
				<path fill="#423E3C" d="M449.1,349.1c0,0,0,0.1,0,0.1c0.1,0.2,0.1,0.4,0.2,0.6c0,0,0-0.1,0-0.1c0-0.1,0.1-0.2,0.1-0.3
					c0-0.1,0.1,0,0.1,0c0,0,0.1,0,0.1,0c0.1-0.1,0.1-0.2,0.1-0.3c0-0.1,0-0.1-0.1-0.1c-0.2,0-0.4,0-0.6,0
					C449.1,349,449.1,349.1,449.1,349.1z"/>
			</g>
			<g>
				<path fill="#423E3C" d="M463,327.7c0,0.1,0,0.2,0,0.2c0.1,0.3,0.5,0.7,0.5,0.6c0.1-0.1,0.1-0.3,0.2-0.4c0.1-0.1,0.2,0,0.3,0
					c0.1,0,0.2,0,0.3,0c0.1-0.1,0.1-0.2,0.1-0.4c0-0.1-0.1-0.2-0.1-0.2c-0.4,0-0.8,0-1.2,0.1C463.1,327.5,463,327.6,463,327.7z"/>
			</g>
			<g>
				<path fill="#423E3C" d="M446.2,314.8c0.1,0,0.3,0,0.4,0c0.2,0,0.2,0.1,0.2,0.3c0,0,0,0.1,0.1,0.1c0.1,0.1,0.2,0.1,0.4,0.1
					c0.2,0,0.3,0,0.4-0.1c0,0,0-0.1,0-0.1c-0.2-0.1-0.4-0.2-0.4-0.3c0-0.1-0.2-0.2-0.4-0.1c-0.2,0-0.4,0-0.6,0c-0.1,0-0.1,0-0.1,0.1
					C446,314.7,446.1,314.8,446.2,314.8z"/>
			</g>
			<g>
				<path fill="#423E3C" d="M451.5,336.1c0,0,0.1,0,0.1-0.1c0-0.1,0.1-0.1,0.1-0.2c0-0.1-0.1-0.2-0.1-0.2c-0.3-0.1-0.8-0.1-1.1,0.1
					c0,0-0.1,0.1-0.1,0.2c0,0.1,0,0.2,0.1,0.2c0.2,0.2,0.3,0,0.5,0.1C451.2,336.1,451.3,336.1,451.5,336.1z"/>
			</g>
			<g>
				<path fill="#423E3C" d="M457.6,328.9C457.6,328.9,457.6,328.8,457.6,328.9c0.1-0.1,0.1-0.2,0.1-0.3c0-0.1,0-0.2,0-0.2
					c-0.1-0.1-0.4-0.1-0.5,0.1c0,0,0,0.1,0,0.2c0,0.1,0,0.2,0,0.2c0.1,0.2,0.2,0,0.2,0.1C457.4,328.9,457.5,328.9,457.6,328.9z"/>
			</g>
			<g>
				<path fill="#423E3C" d="M443.7,291.9c0,0,0-0.1,0-0.2c0-0.1,0-0.2,0-0.3c0-0.1,0-0.3,0-0.3c0.1-0.2,0.3-0.1,0.5,0.1
					c0,0,0,0.2,0,0.3s0,0.2,0,0.3c-0.1,0.3-0.1,0.1-0.2,0.1C443.9,291.9,443.8,291.9,443.7,291.9z"/>
			</g>
			<g>
				<path fill="#423E3C" d="M455.5,320.8c0-0.1,0-0.3-0.1-0.4c-0.2,0-0.3,0-0.5,0c0,0-0.1,0.1-0.1,0.2c0,0.1,0,0.3,0.1,0.4
					c0.1,0.1,0.2,0,0.2,0c0.1,0,0.2,0,0.2,0C455.5,321,455.5,320.9,455.5,320.8z"/>
			</g>
			<g>
				<path fill="#423E3C" d="M464.7,313.4c0-0.1,0-0.3-0.1-0.4c-0.2,0-0.3,0-0.5,0c0,0-0.1,0.1-0.1,0.2c0,0.1,0,0.3,0.1,0.4
					c0.1,0.1,0.2,0,0.2,0c0.1,0,0.2,0,0.2,0C464.6,313.5,464.7,313.4,464.7,313.4z"/>
			</g>
			<g>
				<path fill="#423E3C" d="M449.7,305.2c0-0.1,0-0.3-0.1-0.4c-0.2,0-0.3,0-0.5,0c0,0-0.1,0.1-0.1,0.2c0,0.1,0,0.3,0.1,0.4
					c0.1,0.1,0.2,0,0.2,0c0.1,0,0.2,0,0.2,0C449.7,305.4,449.7,305.3,449.7,305.2z"/>
			</g>
			<g>
				<path fill="#423E3C" d="M456.6,343.9c-0.1,0-0.2,0.2-0.2,0.4c0,0.2,0.1,0.3,0.2,0.2c0.1,0,0.2,0,0.3,0c0,0,0.1-0.1,0.1-0.2
					c0-0.1,0-0.3-0.1-0.4C456.8,343.8,456.7,343.9,456.6,343.9z"/>
			</g>
			<g>
				<path fill="#423E3C" d="M435.6,305.4c-0.1,0-0.2,0.2-0.2,0.4c0,0.2,0.1,0.3,0.2,0.2c0.1,0,0.2,0,0.3,0c0,0,0.1-0.1,0.1-0.2
					c0-0.1,0-0.3-0.1-0.4C435.8,305.4,435.7,305.5,435.6,305.4z"/>
			</g>
			<g>
				<path fill="#423E3C" d="M427,321.5c-0.4,0-0.6,0.2-0.5,0.4c0.1,0.2,0.3,0.3,0.5,0.2c0.3,0,0.6,0,0.8,0c0.1,0,0.1-0.1,0.2-0.2
					c0.1-0.1,0-0.3-0.2-0.4C427.6,321.5,427.3,321.5,427,321.5z"/>
			</g>
			<g>
				<path fill="#423E3C" d="M438.9,341.2c-0.2,0-0.3,0.2-0.2,0.3c0,0.2,0.1,0.2,0.2,0.2c0.1,0,0.2,0,0.4,0c0,0,0.1-0.1,0.1-0.1
					c0-0.1,0-0.3-0.1-0.3C439.2,341.1,439,341.2,438.9,341.2z"/>
			</g>
			<g>
				<path fill="#423E3C" d="M423.7,339.9c-0.2,0-0.3,0.2-0.2,0.3c0,0.2,0.1,0.2,0.2,0.2c0.1,0,0.2,0,0.4,0c0,0,0.1-0.1,0.1-0.1
					c0-0.1,0-0.3-0.1-0.3C424,339.9,423.8,339.9,423.7,339.9z"/>
			</g>
			<g>
				<path fill="#423E3C" d="M437.1,315.8c0,0,0-0.1,0-0.1c0,0-0.1-0.1-0.1-0.1c-0.1,0-0.2,0-0.3,0c0,0-0.1,0.1-0.1,0.1
					c0,0,0,0.1,0,0.1C436.6,316,437,316,437.1,315.8z"/>
			</g>
			<g>
				<path fill="#423E3C" d="M466.4,329.8c0.1,0.1,0.1,0.1,0.2,0.2c0.1,0.1,0.3,0,0.4-0.2c-0.1-0.1-0.1-0.1-0.2-0.2
					C466.7,329.5,466.5,329.6,466.4,329.8z"/>
			</g>
			<g>
				<path fill="#423E3C" d="M464.4,311.5c0.1,0.1,0.1,0.1,0.2,0.2c0.1,0.1,0.3,0,0.4-0.2c-0.1-0.1-0.1-0.1-0.2-0.2
					C464.7,311.3,464.5,311.3,464.4,311.5z"/>
			</g>
			<g>
				<path fill="#423E3C" d="M439.7,321.8c-0.1-0.1-0.3,0-0.4,0.2c0.1,0.1,0.1,0.1,0.2,0.2c0.1,0.1,0.3,0,0.4-0.2
					C439.8,321.9,439.8,321.8,439.7,321.8z"/>
			</g>
			<g>
				<path fill="#423E3C" d="M428.1,339.1c-0.1-0.1-0.3,0-0.4,0.2c0.1,0.1,0.1,0.1,0.2,0.2c0.1,0.1,0.3,0,0.4-0.2
					C428.3,339.2,428.2,339.1,428.1,339.1z"/>
			</g>
			<g>
				<path fill="#423E3C" d="M433.9,314.1c-0.1-0.1-0.1-0.1-0.2-0.2c-0.1-0.1-0.3,0-0.4,0.2c0.1,0.1,0.1,0.1,0.2,0.2
					C433.7,314.4,433.8,314.3,433.9,314.1z"/>
			</g>
			<g>
				<path fill="#423E3C" d="M437.5,317c0,0.1,0.1,0.1,0.2,0.2c0.2-0.1,0.2-0.3,0.2-0.4c-0.1-0.1-0.1-0.1-0.2-0.2
					C437.5,316.7,437.5,316.8,437.5,317z"/>
			</g>
			<g>
				<path fill="#423E3C" d="M455.3,343.7c0,0.1,0.1,0.1,0.2,0.2c0.2-0.1,0.2-0.3,0.2-0.4c-0.1-0.1-0.1-0.1-0.2-0.2
					C455.3,343.4,455.3,343.6,455.3,343.7z"/>
			</g>
			<g>
				<path fill="#423E3C" d="M424.8,342.4c0,0.1,0.1,0.1,0.2,0.2c0.2-0.1,0.2-0.3,0.2-0.4c-0.1-0.1-0.1-0.1-0.2-0.2
					C424.8,342.2,424.7,342.3,424.8,342.4z"/>
			</g>
			<g>
				<path fill="#423E3C" d="M458.6,342.7c0,0.1,0.1,0.1,0.2,0.2c0.2-0.1,0.2-0.3,0.2-0.4c-0.1-0.1-0.1-0.1-0.2-0.2
					C458.5,342.4,458.5,342.6,458.6,342.7z"/>
			</g>
			<g>
				<path fill="#423E3C" d="M438.9,304.1c0,0.1,0.1,0.1,0.2,0.2c0.2-0.1,0.2-0.3,0.2-0.4c-0.1-0.1-0.1-0.1-0.2-0.2
					C438.8,303.8,438.8,304,438.9,304.1z"/>
			</g>
			<g>
				<path fill="#423E3C" d="M427.1,303.8c0,0.1,0.1,0.1,0.2,0.2c0.2-0.1,0.2-0.3,0.2-0.4c-0.1-0.1-0.1-0.1-0.2-0.2
					C427.1,303.5,427,303.7,427.1,303.8z"/>
			</g>
		</g>
	</g>
	<g opacity="0.2">
		<polygon fill="#423E3C" stroke="#423E3C" stroke-width="0.5" stroke-miterlimit="10" points="428.7,297.8 436.4,296.6 
			441.5,301.7 448.6,299.1 451.9,303.2 448.2,299.9 444.8,301.3 446,304.8 445.2,308.4 445.5,304.9 444,301.6 441.5,302.6 
			436,297.4 428.3,298.4 		"/>
	</g>
</g>
</svg>
