<?xml version="1.0" encoding="utf-8"?>
<!-- Generator: Adobe Illustrator 18.1.1, SVG Export Plug-In . SVG Version: 6.00 Build 0)  -->
<!DOCTYPE svg PUBLIC "-//W3C//DTD SVG 1.1//EN" "http://www.w3.org/Graphics/SVG/1.1/DTD/svg11.dtd">
<svg version="1.1" id="Layer_1" xmlns="http://www.w3.org/2000/svg" xmlns:xlink="http://www.w3.org/1999/xlink" x="0px" y="0px"
	 width="800px" height="530px" viewBox="0 0 800 530" enable-background="new 0 0 800 530" xml:space="preserve">
<rect y="0.3" fill="#EAEAEA" width="800" height="239.9"/>
<rect y="240.3" fill="#273642" width="414.6" height="290.4"/>
<rect x="414.6" y="240.2" fill="#BB3D37" width="385.5" height="290.4"/>
<g>
	<g>
		<path fill="#EAEAEA" d="M113.3,420.5c-0.1-0.2-0.3-0.3-0.5-0.3h-2.1c-0.2,0-0.4,0.1-0.5,0.3l-5.4,12.2c-0.1,0.2-0.1,0.4,0,0.5
			c0.1,0.2,0.3,0.3,0.5,0.3h2.1c0.2,0,0.4-0.1,0.5-0.3l1-2.4h5.4l1,2.4c0.1,0.2,0.3,0.3,0.5,0.3h2.2c0,0,0,0,0,0
			c0.3,0,0.6-0.3,0.6-0.6c0-0.1-0.1-0.3-0.1-0.4L113.3,420.5z M113.2,427.8h-2.9l1.4-3.4L113.2,427.8z"/>
		<path fill="#EAEAEA" d="M135.2,420.2h-2.4c-0.2,0-0.4,0.1-0.5,0.3l-3.5,7.1l-3.5-7.1c-0.1-0.2-0.3-0.3-0.5-0.3h-2.4
			c-0.3,0-0.6,0.3-0.6,0.6v12.2c0,0.3,0.3,0.6,0.6,0.6h1.9c0.3,0,0.6-0.3,0.6-0.6v-6.7l2.8,5.6c0.1,0.2,0.3,0.3,0.5,0.3h1.3
			c0.2,0,0.4-0.1,0.5-0.3l2.8-5.7l0,6.7c0,0.3,0.3,0.6,0.6,0.6h1.9c0.3,0,0.6-0.3,0.6-0.6v-12.2
			C135.8,420.4,135.5,420.2,135.2,420.2z"/>
		<path fill="#EAEAEA" d="M149.9,430.5h-6.3v-2.2h5.4c0.3,0,0.6-0.3,0.6-0.6v-1.8c0-0.3-0.3-0.6-0.6-0.6h-5.4v-2.2h6.1
			c0.3,0,0.6-0.3,0.6-0.6v-1.8c0-0.3-0.3-0.6-0.6-0.6H141c-0.3,0-0.6,0.3-0.6,0.6v12.2c0,0.3,0.3,0.6,0.6,0.6h8.9
			c0.3,0,0.6-0.3,0.6-0.6V431C150.5,430.7,150.2,430.5,149.9,430.5z"/>
		<path fill="#EAEAEA" d="M165.1,433.4c0.3,0,0.6-0.3,0.6-0.6c0-0.2-0.1-0.3-0.2-0.4l-2.3-3.4c1.5-0.8,2.2-2.3,2.2-4.2
			c0-2.9-2-4.7-5.5-4.7H155c-0.3,0-0.6,0.3-0.6,0.6v12.2c0,0.3,0.3,0.6,0.6,0.6h2c0.3,0,0.6-0.3,0.6-0.6v-3.1h2.3c0.1,0,0.2,0,0.2,0
			l2,3.4c0.1,0.2,0.3,0.3,0.5,0.3H165.1C165.1,433.4,165.1,433.4,165.1,433.4z M157.6,423.1h2.3c2.1,0,2.4,1,2.4,1.8
			c0,0.8-0.2,1.9-2.4,1.9h-2.3V423.1z"/>
		<path fill="#EAEAEA" d="M170.2,433.4h2c0.3,0,0.6-0.3,0.6-0.6v-12.2c0-0.3-0.3-0.6-0.6-0.6h-2c-0.3,0-0.6,0.3-0.6,0.6v12.2
			C169.6,433.2,169.9,433.4,170.2,433.4z"/>
		<path fill="#EAEAEA" d="M187.3,429.2c-0.1-0.1-0.2-0.2-0.4-0.2c-0.1,0-0.3,0.1-0.4,0.2c-0.8,0.8-2,1.3-3,1.3
			c-2.1,0-3.8-1.6-3.8-3.7c0-2.1,1.7-3.7,3.8-3.7c1.1,0,2.2,0.5,3,1.4c0.1,0.1,0.3,0.2,0.4,0.2c0.2,0,0.3-0.1,0.4-0.2l1.2-1.5
			c0.2-0.2,0.2-0.5,0-0.8c-1.3-1.3-3.2-2-5-2c-3.9,0-7,2.9-7,6.7c0,3.8,3,6.7,6.9,6.7c1.8,0,3.7-0.8,5.1-2.2c0.2-0.2,0.2-0.6,0-0.8
			L187.3,429.2z"/>
		<path fill="#EAEAEA" d="M201.7,433.4h2.2c0,0,0,0,0,0c0.3,0,0.6-0.3,0.6-0.6c0-0.1-0.1-0.3-0.1-0.4l-5.2-12
			c-0.1-0.2-0.3-0.3-0.5-0.3h-2.1c-0.2,0-0.4,0.1-0.5,0.3l-5.4,12.2c-0.1,0.2-0.1,0.4,0,0.5c0.1,0.2,0.3,0.3,0.5,0.3h2.1
			c0.2,0,0.4-0.1,0.5-0.3l1-2.4h5.4l1,2.4C201.2,433.3,201.4,433.4,201.7,433.4z M198.9,427.8H196l1.4-3.4L198.9,427.8z"/>
		<path fill="#EAEAEA" d="M216.6,433.4h2c0.3,0,0.6-0.3,0.6-0.6v-12.2c0-0.3-0.3-0.6-0.6-0.6h-2c-0.3,0-0.6,0.3-0.6,0.6v7l-5.5-7.4
			c-0.1-0.1-0.3-0.2-0.5-0.2h-2c-0.3,0-0.6,0.3-0.6,0.6v12.2c0,0.3,0.3,0.6,0.6,0.6h2c0.3,0,0.6-0.3,0.6-0.6v-7l5.5,7.4
			C216.3,433.4,216.4,433.4,216.6,433.4z"/>
		<path fill="#EAEAEA" d="M237.3,420.2h-8.2c-0.3,0-0.6,0.3-0.6,0.6v12.2c0,0.3,0.3,0.6,0.6,0.6h2c0.3,0,0.6-0.3,0.6-0.6v-4.4h5
			c0.3,0,0.6-0.3,0.6-0.6v-1.8c0-0.3-0.3-0.6-0.6-0.6h-5v-2.4h5.5c0.3,0,0.6-0.2,0.6-0.6l0-1.8c0-0.1-0.1-0.3-0.2-0.4
			C237.6,420.2,237.4,420.2,237.3,420.2z"/>
		<path fill="#EAEAEA" d="M240.1,426.8c0,3.8,3.1,6.7,7,6.7s7-3,7-6.7c0-3.8-3.1-6.7-7-6.7S240.1,423.1,240.1,426.8z M247.1,430.6
			c-2.1,0-3.8-1.7-3.8-3.8c0-2.1,1.7-3.7,3.8-3.7c2.1,0,3.8,1.6,3.8,3.7C250.9,428.9,249.2,430.6,247.1,430.6z"/>
		<path fill="#EAEAEA" d="M266.5,429c1.5-0.8,2.2-2.3,2.2-4.2c0-2.9-2-4.7-5.5-4.7h-4.9c-0.3,0-0.6,0.3-0.6,0.6v12.2
			c0,0.3,0.3,0.6,0.6,0.6h2c0.3,0,0.6-0.3,0.6-0.6v-3.1h2.3c0.1,0,0.2,0,0.2,0l2,3.4c0.1,0.2,0.3,0.3,0.5,0.3h2.3c0,0,0,0,0,0
			c0.3,0,0.6-0.3,0.6-0.6c0-0.2-0.1-0.3-0.2-0.4L266.5,429z M261,423.1h2.3c2.1,0,2.4,1,2.4,1.8c0,0.8-0.2,1.9-2.4,1.9H261V423.1z"
			/>
		<path fill="#EAEAEA" d="M282.4,430.5h-6.3v-2.2h5.4c0.3,0,0.6-0.3,0.6-0.6v-1.8c0-0.3-0.3-0.6-0.6-0.6h-5.4v-2.2h6.1
			c0.3,0,0.6-0.3,0.6-0.6v-1.8c0-0.3-0.3-0.6-0.6-0.6h-8.7c-0.3,0-0.6,0.3-0.6,0.6v12.2c0,0.3,0.3,0.6,0.6,0.6h8.9
			c0.3,0,0.6-0.3,0.6-0.6V431C283,430.7,282.7,430.5,282.4,430.5z"/>
		<path fill="#EAEAEA" d="M292.2,425.3c-1.5-0.5-2.3-0.8-2.3-1.4c0-0.7,1.1-0.7,1.4-0.7c1,0,2.2,0.4,3.3,1c0.1,0.1,0.3,0.1,0.5,0.1
			c0.2,0,0.3-0.2,0.3-0.3l0.9-1.8c0.1-0.3,0-0.6-0.2-0.7c-1.3-0.9-3-1.3-4.6-1.3c-3,0-5,1.6-5,3.9c0,2.8,2.5,3.6,4.3,4.1
			c1.6,0.5,2.3,0.7,2.3,1.4c0,0.8-1.2,0.9-1.7,0.9c-1.2,0-2.6-0.6-3.7-1.6c-0.1-0.1-0.3-0.2-0.5-0.1c-0.2,0-0.3,0.1-0.4,0.3
			l-0.9,1.8c-0.1,0.2-0.1,0.5,0.1,0.7c1.4,1.3,3.4,2.1,5.3,2.1c3.1,0,5.1-1.6,5.1-4.1C296.5,426.6,294,425.8,292.2,425.3z"/>
		<path fill="#EAEAEA" d="M309.2,420.2h-9.7c-0.3,0-0.6,0.3-0.6,0.6v1.8c0,0.3,0.3,0.6,0.6,0.6h3.3v9.8c0,0.3,0.3,0.6,0.6,0.6h2
			c0.3,0,0.6-0.3,0.6-0.6v-9.8h3.3c0.3,0,0.6-0.3,0.6-0.6v-1.8C309.8,420.4,309.5,420.2,309.2,420.2z"/>
	</g>
	<g>
		<path fill="#EAEAEA" d="M160.5,443.5h-5.4c-0.3,0-0.5,0.2-0.5,0.5v8.5c0,0.3,0.2,0.5,0.5,0.5h1c0.3,0,0.5-0.2,0.5-0.5v-3.1h3.5
			c0.3,0,0.5-0.2,0.5-0.5V448c0-0.3-0.2-0.5-0.5-0.5h-3.5v-1.9h3.9c0.3,0,0.5-0.2,0.5-0.5V444C161,443.7,160.8,443.5,160.5,443.5z"
			/>
		<path fill="#EAEAEA" d="M168.3,443.5c-2.8,0-5,2.1-5,4.8c0,2.7,2.2,4.8,5,4.8c2.8,0,5-2.1,5-4.8
			C173.2,445.6,171.1,443.5,168.3,443.5z M168.3,451.1c-1.6,0-3-1.3-3-2.8c0-1.6,1.3-2.8,3-2.8c1.6,0,2.9,1.3,2.9,2.8
			C171.2,449.9,169.9,451.1,168.3,451.1z"/>
		<path fill="#EAEAEA" d="M184.1,443.5h-1c-0.3,0-0.5,0.2-0.5,0.5v5c0,1.3-0.7,2.1-2.1,2.1c-1.3,0-2.1-0.7-2.1-2.1v-5
			c0-0.3-0.2-0.5-0.5-0.5h-1c-0.3,0-0.5,0.2-0.5,0.5v5c0,2.5,1.6,4.1,4.1,4.1c2.5,0,4.1-1.6,4.1-4.1v-5
			C184.6,443.7,184.4,443.5,184.1,443.5z"/>
		<path fill="#EAEAEA" d="M196.2,443.5h-1c-0.3,0-0.5,0.2-0.5,0.5v5.3l-4.2-5.6c-0.1-0.1-0.3-0.2-0.4-0.2h-1c-0.3,0-0.5,0.2-0.5,0.5
			v8.5c0,0.3,0.2,0.5,0.5,0.5h1c0.3,0,0.5-0.2,0.5-0.5v-5.3l4.2,5.6c0.1,0.1,0.3,0.2,0.4,0.2h1c0.3,0,0.5-0.2,0.5-0.5V444
			C196.8,443.7,196.5,443.5,196.2,443.5z"/>
		<path fill="#EAEAEA" d="M205,443.5h-3.4c-0.3,0-0.5,0.2-0.5,0.5v8.5c0,0.3,0.2,0.5,0.5,0.5h3.4c2.8,0,4.9-2.1,4.9-4.8
			C209.9,445.6,207.7,443.5,205,443.5z M205,451.1h-2v-5.6h1.9c1.6,0,2.9,1.2,2.9,2.8C207.8,449.9,206.6,451.1,205,451.1z"/>
		<path fill="#EAEAEA" d="M217.6,443.8c-0.1-0.2-0.3-0.3-0.5-0.3h-1c-0.2,0-0.4,0.1-0.5,0.3l-3.8,8.5c-0.1,0.2-0.1,0.3,0,0.5
			c0.1,0.1,0.3,0.2,0.4,0.2h1c0.2,0,0.4-0.1,0.5-0.3l0.8-1.8h4l0.8,1.8c0.1,0.2,0.3,0.3,0.5,0.3h1.1c0,0,0,0,0,0
			c0.3,0,0.5-0.2,0.5-0.5c0-0.1,0-0.3-0.1-0.3L217.6,443.8z M215.5,448.9l1.1-2.5l1.1,2.5H215.5z"/>
		<path fill="#EAEAEA" d="M229.6,443.5H223c-0.3,0-0.5,0.2-0.5,0.5v0.9c0,0.3,0.2,0.5,0.5,0.5h2.2v7c0,0.3,0.2,0.5,0.5,0.5h1
			c0.3,0,0.5-0.2,0.5-0.5v-7h2.3c0.3,0,0.5-0.2,0.5-0.5V444C230.1,443.7,229.8,443.5,229.6,443.5z"/>
		<path fill="#EAEAEA" d="M234.6,443.5h-1c-0.3,0-0.5,0.2-0.5,0.5v8.5c0,0.3,0.2,0.5,0.5,0.5h1c0.3,0,0.5-0.2,0.5-0.5V444
			C235.1,443.7,234.9,443.5,234.6,443.5z"/>
		<path fill="#EAEAEA" d="M243.5,443.5c-2.8,0-5,2.1-5,4.8c0,2.7,2.2,4.8,5,4.8c2.8,0,5-2.1,5-4.8
			C248.5,445.6,246.3,443.5,243.5,443.5z M243.5,451.1c-1.6,0-3-1.3-3-2.8c0-1.6,1.3-2.8,3-2.8c1.6,0,2.9,1.3,2.9,2.8
			C246.5,449.9,245.1,451.1,243.5,451.1z"/>
		<path fill="#EAEAEA" d="M259.5,443.5h-1c-0.3,0-0.5,0.2-0.5,0.5v5.3l-4.2-5.6c-0.1-0.1-0.3-0.2-0.4-0.2h-1c-0.3,0-0.5,0.2-0.5,0.5
			v8.5c0,0.3,0.2,0.5,0.5,0.5h1c0.3,0,0.5-0.2,0.5-0.5v-5.3l4.2,5.6c0.1,0.1,0.3,0.2,0.4,0.2h1c0.3,0,0.5-0.2,0.5-0.5V444
			C260,443.7,259.8,443.5,259.5,443.5z"/>
	</g>
	<path fill="#EAEAEA" d="M207.3,317.8c-25,0-45.3,20.3-45.3,45.3s20.3,45.3,45.3,45.3s45.3-20.3,45.3-45.3S232.3,317.8,207.3,317.8z
		 M207.3,404.4c-14.3,0-27.8-7.6-35.3-19.9c1.6-0.2,4-0.4,7.3-0.4c8.1,0,17.8,1.3,28,3.7c0.1,0,7.2,2,15.6,3
		c6.1,0.7,11.1,0.6,15.2-0.2C230.2,399.3,219.1,404.4,207.3,404.4z M231.6,387.2v-13.4c0-0.3,0.4-0.5,0.7-0.3c0.9,0.7,2.6,2,3.8,2.6
		c0.3,0.2,0.7,0.3,1,0.3c0.8,0,1.6-0.5,1.9-1.3c0.3-0.9-0.1-2-1-2.5c-0.9-0.6-1.8-1.1-2.6-1.8c-2.1-1.6-3.4-4.2-3.7-6.9
		c0-0.1,0.1-0.2,0.2-0.1c1.2,1.3,2.6,2.4,4.1,3.5c0.8,0.6,2,0.5,2.6-0.2c0.9-0.9,0.7-2.3-0.3-3c-1.7-1.1-3.2-2.5-4.4-3.9
		c-1.1-1.3-1.8-3-2.1-4.7c0.1-0.2,0.2-0.1,0.2-0.1l0,0c1,1.3,2.1,2.3,3.1,3c0.8,0.5,1.9,0.5,2.6-0.2c0.4-0.4,0.7-1,0.6-1.6
		c-0.1-0.6-0.4-1.1-0.9-1.5c-3.4-2.2-5.8-8.2-5.9-8.5c-0.3-0.8-1-1.3-1.9-1.3c-0.8,0-1.6,0.6-1.9,1.3c-2.1,6-5.8,8.5-5.8,8.5
		c-0.9,0.6-1.2,1.8-0.6,2.8c0.6,0.9,1.9,1.2,2.8,0.6c0.1,0,1.6-1.1,3.3-3.2l0,0c0,0,0.1-0.1,0.2,0c-0.2,1.8-1,3.5-2,4.8
		c-1.3,1.5-2.7,2.8-4.4,3.9c-0.9,0.6-1.3,1.7-0.9,2.6c0.3,0.7,1,1.2,1.8,1.2c0.4,0,0.7-0.1,1-0.3c1.5-0.9,3-2.1,4.2-3.4
		c0.1-0.1,0.2,0,0.2,0.1c-0.3,2.6-1.6,4.9-3.6,6.5c-0.8,0.6-1.7,1.3-2.6,1.9c-0.9,0.6-1.3,1.7-0.9,2.6c0.3,0.7,1,1.2,1.8,1.2
		c0.4,0,0.7-0.1,1.1-0.3c1.3-0.8,2.4-1.6,3.5-2.5c0.3-0.3,0.8,0,0.8,0.4l0,13.1c-6.5-0.4-13.6-1.7-18.2-2.9l0-8.7
		c0-0.4,0.4-0.6,0.7-0.3c1.4,1.2,3,2.3,4.8,3.2c0.3,0.2,0.6,0.2,0.9,0.2c0.8,0,1.5-0.5,1.8-1.2c0.4-0.9-0.1-2.1-1-2.6
		c-1.2-0.7-2.4-1.4-3.3-2.2c-2.1-1.6-3.4-4.1-3.8-6.8c0-0.2,0.2-0.3,0.3-0.2c1.4,1.5,3.1,2.8,5,4c0.9,0.6,2.1,0.4,2.7-0.4
		c0.4-0.5,0.5-1.1,0.4-1.7c-0.1-0.5-0.4-1-0.9-1.3c-1.8-1.1-3.4-2.4-4.7-3.8c-1.6-1.6-2.6-3.8-2.9-6.1c0-0.2,0.2-0.3,0.3-0.1
		c1.5,1.6,3.2,3.1,5.1,4.3c0.3,0.2,0.7,0.3,1.1,0.3c0.8,0,1.5-0.4,1.8-1.2c0.4-0.9,0-2-0.9-2.6c-3.3-2.1-5.3-4.6-6.3-6.3
		c-0.6-0.9-0.9-1.9-1.1-3c0,0,0.1-0.1,0.2-0.1l0,0c0.8,1.1,1.7,1.9,2.6,2.6c0.8,0.5,1.9,0.5,2.6-0.1c0.4-0.4,0.7-1,0.6-1.6
		c-0.1-0.6-0.4-1.1-0.9-1.5c-3.3-2.2-5-8.7-5.3-11c-0.1-1-1-1.7-2-1.7l-0.1,0c-1,0-1.8,0.9-1.9,1.9c-0.3,7.5-5.3,10.6-5.5,10.7
		c-0.9,0.6-1.2,1.8-0.7,2.7c0.5,0.9,1.8,1.2,2.7,0.7c0.2-0.1,1.5-1,3-2.7l0,0c0,0,0.2-0.1,0.2,0.1c-0.2,1-0.5,2-1.1,2.9
		c-1,1.7-2.9,4.1-6,5.9c-0.9,0.5-1.3,1.6-1,2.5c0.3,0.8,1,1.3,1.9,1.3c0.3,0,0.7-0.1,1-0.3c1.8-1.1,3.5-2.4,4.9-3.9
		c0.1-0.1,0.3,0,0.3,0.1c-0.3,2.2-1.2,4.3-2.7,5.9c-1.4,1.5-3,2.8-4.8,3.9c-0.9,0.6-1.4,1.7-1,2.6c0.3,0.7,1,1.2,1.8,1.2
		c0.3,0,0.7-0.1,1-0.3c2-1.1,3.8-2.5,5.3-4.1c0.1-0.1,0.4,0,0.3,0.2c-0.3,2.6-1.6,4.9-3.6,6.6c-0.9,0.8-1.9,1.5-3.1,2.1
		c-0.9,0.5-1.3,1.6-1,2.5c0.3,0.8,1,1.3,1.9,1.3c0.3,0,0.7-0.1,1-0.3c1.5-0.9,3-1.9,4.2-3c0.3-0.3,0.7-0.1,0.7,0.3l0,7.8
		c-6.2-1.3-12-2.3-17.5-2.7l0-4.5c0-0.4,0.5-0.7,0.8-0.4c0.8,0.7,1.9,1.5,3.2,2.3c0.3,0.2,0.7,0.3,1,0.3c0.8,0,1.6-0.5,1.9-1.3
		c0.4-0.9-0.1-2-1-2.5c-1.1-0.6-2-1.3-2.9-2c-1.7-1.4-2.7-3.4-3-5.6c0-0.2,0.2-0.3,0.3-0.2c1.1,1.1,2.3,2.1,3.6,3
		c0.8,0.6,2,0.5,2.6-0.2c0.9-0.9,0.7-2.3-0.3-3c-1.7-1.1-3.1-2.4-4.4-3.9c-0.9-1.1-1.5-2.5-1.8-3.9c0-0.1,0.1-0.2,0.2,0c0,0,0,0,0,0
		c0.9,1.1,1.8,1.9,2.8,2.6c0.8,0.5,1.9,0.5,2.6-0.2c0.4-0.4,0.7-1,0.6-1.6c-0.1-0.6-0.4-1.1-0.9-1.5c-2.7-1.7-4.9-6.3-5.5-8
		c-0.3-0.8-1-1.3-1.9-1.3c0,0,0,0,0,0c-0.8,0-1.6,0.6-1.9,1.3c-1.9,5.6-5.5,8-5.5,8c-0.9,0.6-1.2,1.8-0.6,2.8
		c0.6,0.9,1.9,1.2,2.8,0.6c0.1,0,1-0.7,2.2-1.9l0,0c0,0,0,0,0,0c0.1-0.1,0.2-0.2,0.3-0.3c0.1-0.1,0.2-0.2,0.3-0.3c0,0,0.1,0,0.2,0.1
		c0,0,0,0.1,0,0.1c-0.2,1.3-0.8,2.6-1.6,3.7c-1.2,1.5-2.7,2.8-4.3,3.8c-0.9,0.6-1.3,1.7-0.9,2.6c0.3,0.7,1,1.2,1.8,1.2
		c0.4,0,0.7-0.1,1-0.3c1.3-0.8,2.6-1.8,3.7-2.9c0.1-0.1,0.4,0,0.3,0.2c-0.3,2.1-1.4,3.9-3,5.3c-0.9,0.7-1.8,1.4-2.9,2.1
		c-0.9,0.6-1.3,1.7-0.9,2.6c0.3,0.7,1,1.2,1.8,1.2c0.4,0,0.7-0.1,1.1-0.3c1.1-0.7,2.2-1.5,3.1-2.2c0.3-0.3,0.8-0.1,0.8,0.4l0,4.1
		c-1.6-0.1-3.1-0.1-4.6-0.1c-4.7,0-7.8,0.4-9.3,0.7c-2.6-5.5-4-11.5-4-17.7c0-22.8,18.5-41.3,41.3-41.3c1.6,0,3.1,0.1,4.7,0.3
		c19,2.1,34.2,17.4,36.3,36.4c1,9.1-0.9,17.9-5.5,25.7C240.8,386.1,237,387.1,231.6,387.2z"/>
</g>
<g>
	<g>
		<path fill="#BB3D37" d="M371.6,104.9h2.8c0.3,0,0.6-0.2,0.7-0.5l1.3-3.2h7.1l1.3,3.2c0.1,0.3,0.4,0.5,0.7,0.5h2.9c0,0,0,0,0,0
			c0.4,0,0.7-0.3,0.7-0.7c0-0.2-0.1-0.4-0.2-0.5l-6.9-15.9c-0.1-0.3-0.4-0.4-0.7-0.4h-2.8c-0.3,0-0.6,0.2-0.7,0.4l-7.1,16.1
			c-0.1,0.2-0.1,0.5,0.1,0.7C371.1,104.8,371.3,104.9,371.6,104.9z M380,92.9l1.9,4.5h-3.8L380,92.9z"/>
		<path fill="#BB3D37" d="M396.2,104.9h2.5c0.4,0,0.7-0.3,0.7-0.7v-8.8l3.7,7.5c0.1,0.3,0.4,0.4,0.7,0.4h1.8c0.3,0,0.5-0.2,0.7-0.4
			l3.7-7.5l0,8.8c0,0.4,0.3,0.7,0.7,0.7h2.5c0.4,0,0.7-0.3,0.7-0.7V88.1c0-0.4-0.3-0.7-0.7-0.7H410c-0.3,0-0.5,0.2-0.7,0.4l-4.6,9.3
			l-4.6-9.3c-0.1-0.3-0.4-0.4-0.7-0.4h-3.2c-0.4,0-0.7,0.3-0.7,0.7v16.1C395.4,104.6,395.8,104.9,396.2,104.9z"/>
		<path fill="#BB3D37" d="M421.3,104.9H433c0.4,0,0.7-0.3,0.7-0.7v-2.4c0-0.4-0.3-0.7-0.7-0.7h-8.3v-2.9h7.1c0.4,0,0.7-0.3,0.7-0.7
			v-2.4c0-0.4-0.3-0.7-0.7-0.7h-7.1v-2.9h8c0.4,0,0.7-0.3,0.7-0.7v-2.4c0-0.4-0.3-0.7-0.7-0.7h-11.5c-0.4,0-0.7,0.3-0.7,0.7v16.1
			C420.5,104.6,420.9,104.9,421.3,104.9z"/>
		<path fill="#BB3D37" d="M441,104.9h2.7c0.4,0,0.7-0.3,0.7-0.7v-4.1h3.1c0.1,0,0.2,0,0.3,0l2.7,4.5c0.1,0.2,0.4,0.4,0.6,0.4h3.1
			c0,0,0,0,0,0c0.4,0,0.7-0.3,0.7-0.7c0-0.2-0.1-0.4-0.3-0.6l-3-4.5c1.9-1.1,3-3,3-5.5c0-3.9-2.7-6.2-7.2-6.2H441
			c-0.4,0-0.7,0.3-0.7,0.7v16.1C440.3,104.6,440.6,104.9,441,104.9z M444.5,91.3h3.1c2.8,0,3.2,1.4,3.2,2.4c0,1.1-0.3,2.5-3.2,2.5
			h-3.1V91.3z"/>
		<path fill="#BB3D37" d="M464.6,87.4h-2.7c-0.4,0-0.7,0.3-0.7,0.7v16.1c0,0.4,0.3,0.7,0.7,0.7h2.7c0.4,0,0.7-0.3,0.7-0.7V88.1
			C465.3,87.7,465,87.4,464.6,87.4z"/>
		<path fill="#BB3D37" d="M481,105c2.4,0,4.9-1.1,6.7-2.9c0.3-0.3,0.3-0.7,0-1l-1.6-1.8c-0.1-0.1-0.3-0.2-0.5-0.2
			c-0.2,0-0.4,0.1-0.5,0.2c-1.1,1.1-2.6,1.7-4,1.7c-2.8,0-5-2.2-5-4.9c0-2.8,2.2-4.9,5-4.9c1.4,0,2.9,0.7,3.9,1.8
			c0.1,0.2,0.3,0.2,0.6,0.2c0.2,0,0.4-0.1,0.6-0.3l1.6-2c0.2-0.3,0.2-0.7-0.1-1c-1.7-1.7-4.2-2.7-6.6-2.7c-5.2,0-9.2,3.9-9.2,8.8
			C471.8,101.1,475.8,105,481,105z"/>
		<path fill="#BB3D37" d="M497.7,104.5l1.3-3.2h7.1l1.3,3.2c0.1,0.3,0.4,0.5,0.7,0.5h2.9c0,0,0,0,0,0c0.4,0,0.7-0.3,0.7-0.7
			c0-0.2-0.1-0.4-0.2-0.5l-6.9-15.9c-0.1-0.3-0.4-0.4-0.7-0.4h-2.8c-0.3,0-0.6,0.2-0.7,0.4l-7.1,16.1c-0.1,0.2-0.1,0.5,0.1,0.7
			c0.1,0.2,0.4,0.3,0.6,0.3h2.8C497.4,104.9,497.6,104.8,497.7,104.5z M502.6,92.9l1.9,4.5h-3.8L502.6,92.9z"/>
		<path fill="#BB3D37" d="M532,87.4h-2.7c-0.4,0-0.7,0.3-0.7,0.7v9.3l-7.3-9.8c-0.1-0.2-0.4-0.3-0.6-0.3h-2.7
			c-0.4,0-0.7,0.3-0.7,0.7v16.1c0,0.4,0.3,0.7,0.7,0.7h2.7c0.4,0,0.7-0.3,0.7-0.7v-9.3l7.2,9.7c0.1,0.2,0.4,0.3,0.6,0.3h2.7
			c0.4,0,0.7-0.3,0.7-0.7V88.1C532.8,87.7,532.4,87.4,532,87.4z"/>
		<g>
			<path fill="#BB3D37" d="M376.4,145.4h-5.3c-0.2,0-0.4,0.2-0.4,0.4v8.4c0,0.2,0.2,0.4,0.4,0.4h1c0.2,0,0.4-0.2,0.4-0.4V151h3.5
				c0.2,0,0.4-0.2,0.4-0.4v-0.9c0-0.2-0.2-0.4-0.4-0.4h-3.5v-2.1h3.9c0.2,0,0.4-0.2,0.4-0.4v-0.9
				C376.9,145.6,376.7,145.4,376.4,145.4z"/>
			<path fill="#BB3D37" d="M385.6,145.3c-2.7,0-4.8,2-4.8,4.7c0,2.6,2.1,4.7,4.8,4.7c2.7,0,4.8-2.1,4.8-4.7
				C390.4,147.4,388.3,145.3,385.6,145.3z M385.6,152.9c-1.7,0-3-1.3-3-2.9c0-1.6,1.3-2.9,3-2.9c1.6,0,3,1.3,3,2.9
				C388.6,151.6,387.2,152.9,385.6,152.9z"/>
			<path fill="#BB3D37" d="M402.8,145.4h-1c-0.2,0-0.4,0.2-0.4,0.4v4.9c0,1.4-0.8,2.1-2.1,2.1c-1.4,0-2.1-0.8-2.1-2.1v-4.9
				c0-0.2-0.2-0.4-0.4-0.4h-1c-0.2,0-0.4,0.2-0.4,0.4v4.9c0,2.4,1.5,3.9,4,3.9c2.4,0,4-1.5,4-3.9v-4.9
				C403.3,145.6,403.1,145.4,402.8,145.4z"/>
			<path fill="#BB3D37" d="M416.4,145.4h-0.9c-0.2,0-0.4,0.2-0.4,0.4v5.4l-4.3-5.7c-0.1-0.1-0.2-0.2-0.3-0.2h-1
				c-0.2,0-0.4,0.2-0.4,0.4v8.4c0,0.2,0.2,0.4,0.4,0.4h1c0.2,0,0.4-0.2,0.4-0.4v-5.4l4.3,5.7c0.1,0.1,0.2,0.2,0.3,0.2h1
				c0.2,0,0.4-0.2,0.4-0.4v-8.4C416.8,145.6,416.6,145.4,416.4,145.4z"/>
			<path fill="#BB3D37" d="M426.4,145.4H423c-0.2,0-0.4,0.2-0.4,0.4v8.4c0,0.2,0.2,0.4,0.4,0.4h3.4c2.7,0,4.8-2,4.8-4.6
				C431.1,147.4,429.1,145.4,426.4,145.4z M426.4,152.9h-2v-5.7h2c1.7,0,2.9,1.2,2.9,2.9C429.3,151.6,428,152.9,426.4,152.9z"/>
			<path fill="#BB3D37" d="M440.3,145.6c-0.1-0.2-0.2-0.3-0.4-0.3h-1c-0.2,0-0.3,0.1-0.4,0.3l-3.8,8.4c-0.1,0.1,0,0.3,0,0.4
				c0.1,0.1,0.2,0.2,0.4,0.2h1c0.2,0,0.3-0.1,0.4-0.3l0.8-1.9h4l0.8,1.9c0.1,0.2,0.2,0.3,0.4,0.3h1c0,0,0,0,0,0
				c0.2,0,0.4-0.2,0.4-0.4c0-0.1,0-0.2-0.1-0.3L440.3,145.6z M438.2,150.7l1.2-2.7l1.2,2.7H438.2z"/>
			<path fill="#BB3D37" d="M453.7,145.4h-6.4c-0.2,0-0.4,0.2-0.4,0.4v0.9c0,0.2,0.2,0.4,0.4,0.4h2.3v7c0,0.2,0.2,0.4,0.4,0.4h1
				c0.2,0,0.4-0.2,0.4-0.4v-7h2.3c0.2,0,0.4-0.2,0.4-0.4v-0.9C454.1,145.6,454,145.4,453.7,145.4z"/>
			<path fill="#BB3D37" d="M460.3,145.4h-1c-0.2,0-0.4,0.2-0.4,0.4v8.4c0,0.2,0.2,0.4,0.4,0.4h1c0.2,0,0.4-0.2,0.4-0.4v-8.4
				C460.7,145.6,460.5,145.4,460.3,145.4z"/>
			<path fill="#BB3D37" d="M470.7,145.3c-2.7,0-4.8,2-4.8,4.7c0,2.6,2.1,4.7,4.8,4.7c2.7,0,4.8-2.1,4.8-4.7
				C475.5,147.4,473.4,145.3,470.7,145.3z M470.7,152.9c-1.7,0-3-1.3-3-2.9c0-1.6,1.3-2.9,3-2.9c1.6,0,3,1.3,3,2.9
				C473.7,151.6,472.4,152.9,470.7,152.9z"/>
			<path fill="#BB3D37" d="M487.8,145.4h-0.9c-0.2,0-0.4,0.2-0.4,0.4v5.4l-4.3-5.7c-0.1-0.1-0.2-0.2-0.3-0.2h-1
				c-0.2,0-0.4,0.2-0.4,0.4v8.4c0,0.2,0.2,0.4,0.4,0.4h1c0.2,0,0.4-0.2,0.4-0.4v-5.4l4.3,5.7c0.1,0.1,0.2,0.2,0.3,0.2h1
				c0.2,0,0.4-0.2,0.4-0.4v-8.4C488.2,145.6,488,145.4,487.8,145.4z"/>
		</g>
		<g>
			<path fill="#BB3D37" d="M385.4,113.6h-14.2c-0.5,0-1,0.4-1,1v21.1c0,0.5,0.4,1,1,1h3.6c0.5,0,1-0.4,1-1v-7.7h8.6c0.5,0,1-0.4,1-1
				v-3.2c0-0.5-0.4-1-1-1h-8.6v-4.1h9.6c0.5,0,1-0.4,1-1l0-3.2c0-0.3-0.1-0.5-0.3-0.7C386,113.7,385.7,113.6,385.4,113.6z"/>
			<path fill="#BB3D37" d="M390.4,125.2c0,6.6,5.4,11.7,12.2,11.7s12.2-5.1,12.2-11.7c0-6.5-5.4-11.6-12.2-11.6
				S390.4,118.7,390.4,125.2z M402.6,131.7c-3.7,0-6.6-2.9-6.6-6.5c0-3.6,3-6.5,6.6-6.5c3.7,0,6.5,2.8,6.5,6.5
				C409.2,128.8,406.3,131.7,402.6,131.7z"/>
			<path fill="#BB3D37" d="M436.3,129.1c2.5-1.4,3.9-3.9,3.9-7.3c0-5.1-3.6-8.2-9.5-8.2h-8.6c-0.5,0-1,0.4-1,1v21.1c0,0.5,0.4,1,1,1
				h3.6c0.5,0,1-0.4,1-1v-5.4h4c0.1,0,0.3,0,0.4,0l3.6,5.9c0.2,0.3,0.5,0.5,0.8,0.5h4c0,0,0,0,0,0c0.5,0,1-0.4,1-1
				c0-0.3-0.1-0.6-0.4-0.8L436.3,129.1z M426.7,118.8h4c3.7,0,4.2,1.8,4.2,3.1c0,1.4-0.4,3.3-4.2,3.3h-4V118.8z"/>
			<path fill="#BB3D37" d="M464,131.6h-10.9v-3.9h9.4c0.5,0,1-0.4,1-1v-3.2c0-0.5-0.4-1-1-1h-9.4v-3.8h10.6c0.5,0,1-0.4,1-1v-3.2
				c0-0.5-0.4-1-1-1h-15.1c-0.5,0-1,0.4-1,1v21.1c0,0.5,0.4,1,1,1H464c0.5,0,1-0.4,1-1v-3.2C465,132,464.6,131.6,464,131.6z"/>
			<path fill="#BB3D37" d="M481.1,122.5c-2.7-0.8-4-1.3-4-2.5c0-1.1,1.9-1.2,2.5-1.2c1.7,0,3.8,0.7,5.7,1.8c0.2,0.1,0.5,0.2,0.8,0.1
				c0.3-0.1,0.5-0.3,0.6-0.5l1.5-3.1c0.2-0.4,0.1-1-0.3-1.2c-2.2-1.5-5.1-2.3-7.9-2.3c-5.2,0-8.7,2.8-8.7,6.9c0,4.9,4.3,6.2,7.4,7.1
				c2.7,0.8,4,1.3,4,2.5c0,1.4-2.1,1.6-3,1.6c-2.1,0-4.6-1.1-6.5-2.8c-0.2-0.2-0.5-0.3-0.8-0.2c-0.3,0.1-0.6,0.2-0.7,0.5l-1.5,3.1
				c-0.2,0.4-0.1,0.9,0.2,1.2c2.5,2.3,5.9,3.6,9.3,3.6c5.4,0,9-2.8,9-7.1C488.5,124.8,484.2,123.5,481.1,122.5z"/>
			<path fill="#BB3D37" d="M510.7,113.6h-16.9c-0.5,0-1,0.4-1,1v3.2c0,0.5,0.4,1,1,1h5.7v17c0,0.5,0.4,1,1,1h3.6c0.5,0,1-0.4,1-1
				v-17h5.7c0.5,0,1-0.4,1-1v-3.2C511.7,114.1,511.2,113.6,510.7,113.6z"/>
		</g>
	</g>
	<path fill="#BB3D37" d="M312.6,75c-25,0-45.3,20.3-45.3,45.3s20.3,45.3,45.3,45.3c25,0,45.3-20.3,45.3-45.3S337.5,75,312.6,75z
		 M312.6,161.5c-14.3,0-27.8-7.6-35.3-19.9c1.6-0.2,4-0.4,7.3-0.4c8.1,0,17.8,1.3,28,3.7c0.1,0,7.2,2,15.6,3
		c6.1,0.7,11.1,0.6,15.2-0.2C335.5,156.5,324.3,161.5,312.6,161.5z M336.8,144.4V131c0-0.3,0.4-0.5,0.7-0.3c0.9,0.7,2.6,2,3.8,2.6
		c0.3,0.2,0.7,0.3,1,0.3c0.8,0,1.6-0.5,1.9-1.3c0.3-0.9-0.1-2-1-2.5c-0.9-0.6-1.8-1.1-2.6-1.8c-2.1-1.6-3.5-4.2-3.7-6.9
		c0-0.1,0.1-0.2,0.2-0.1c1.2,1.3,2.6,2.4,4.1,3.5c0.8,0.6,2,0.5,2.6-0.2c0.9-0.9,0.7-2.3-0.3-3c-1.7-1.1-3.2-2.5-4.4-3.9
		c-1.1-1.3-1.8-3-2.1-4.7c0.1-0.2,0.2-0.1,0.2-0.1l0,0c1,1.3,2.1,2.3,3.1,3c0.8,0.5,1.9,0.5,2.6-0.2c0.4-0.4,0.7-1,0.6-1.6
		c-0.1-0.6-0.4-1.1-0.9-1.5c-3.4-2.2-5.8-8.2-5.9-8.5c-0.3-0.8-1-1.3-1.9-1.3c-0.8,0-1.6,0.6-1.9,1.3c-2.1,6-5.8,8.5-5.8,8.5
		c-0.9,0.6-1.2,1.8-0.6,2.8c0.6,0.9,1.9,1.2,2.8,0.6c0.1,0,1.6-1.1,3.3-3.2l0,0c0,0,0.1-0.1,0.2,0c-0.2,1.8-1,3.5-2,4.8
		c-1.3,1.5-2.7,2.9-4.4,3.9c-0.9,0.6-1.3,1.7-0.9,2.6c0.3,0.7,1,1.2,1.8,1.2c0.4,0,0.7-0.1,1-0.3c1.5-0.9,3-2.1,4.2-3.4
		c0.1-0.1,0.2,0,0.2,0.1c-0.3,2.6-1.6,4.9-3.6,6.5c-0.8,0.6-1.7,1.3-2.6,1.9c-0.9,0.6-1.3,1.7-0.9,2.6c0.3,0.7,1,1.2,1.8,1.2
		c0.4,0,0.7-0.1,1.1-0.3c1.3-0.8,2.4-1.6,3.5-2.5c0.3-0.3,0.8,0,0.8,0.4l0,13.1c-6.5-0.4-13.6-1.7-18.2-2.9l0-8.7
		c0-0.4,0.4-0.6,0.7-0.3c1.4,1.2,3,2.3,4.8,3.2c0.3,0.2,0.6,0.2,0.9,0.2c0.8,0,1.5-0.5,1.9-1.2c0.4-0.9-0.1-2.1-1-2.6
		c-1.2-0.7-2.4-1.4-3.3-2.2c-2.1-1.6-3.4-4.1-3.8-6.8c0-0.2,0.2-0.3,0.3-0.2c1.4,1.5,3.1,2.8,5,4c0.9,0.6,2.1,0.4,2.7-0.4
		c0.4-0.5,0.5-1.1,0.4-1.7c-0.1-0.5-0.4-1-0.9-1.3c-1.8-1.1-3.4-2.4-4.7-3.8c-1.6-1.6-2.6-3.8-2.9-6.1c0-0.2,0.2-0.3,0.3-0.1
		c1.5,1.6,3.2,3.1,5.2,4.3c0.3,0.2,0.7,0.3,1.1,0.3c0.8,0,1.5-0.4,1.8-1.2c0.4-0.9,0-2-0.9-2.6c-3.3-2.1-5.3-4.6-6.3-6.3
		c-0.6-0.9-0.9-1.9-1.1-3c0,0,0.1-0.1,0.2-0.1l0,0c0.8,1.1,1.7,1.9,2.6,2.6c0.8,0.5,1.9,0.5,2.6-0.1c0.4-0.4,0.7-1,0.6-1.6
		c-0.1-0.6-0.4-1.1-0.9-1.5c-3.3-2.2-5-8.7-5.3-11c-0.1-1-1-1.7-2-1.7l-0.1,0c-1,0-1.8,0.9-1.9,1.9c-0.3,7.5-5.3,10.6-5.5,10.7
		c-0.9,0.6-1.2,1.8-0.7,2.7c0.5,0.9,1.8,1.2,2.7,0.7c0.2-0.1,1.5-1,3-2.7l0,0c0,0,0.2-0.1,0.2,0.1c-0.2,1-0.5,2-1.1,2.9
		c-1,1.7-2.9,4.1-6,5.9c-0.9,0.5-1.3,1.6-1,2.5c0.3,0.8,1,1.3,1.9,1.3c0.3,0,0.7-0.1,1-0.3c1.8-1.1,3.5-2.4,4.9-3.9
		c0.1-0.1,0.3,0,0.3,0.1c-0.3,2.2-1.2,4.3-2.7,5.9c-1.4,1.5-3,2.8-4.8,3.9c-0.9,0.6-1.4,1.7-1,2.6c0.3,0.7,1,1.2,1.8,1.2
		c0.3,0,0.7-0.1,1-0.3c2-1.1,3.8-2.5,5.3-4.1c0.1-0.1,0.4,0,0.3,0.2c-0.3,2.6-1.6,4.9-3.6,6.6c-0.9,0.8-2,1.5-3.1,2.1
		c-0.9,0.5-1.3,1.6-1,2.5c0.3,0.8,1,1.3,1.9,1.3c0.3,0,0.7-0.1,1-0.3c1.5-0.9,3-1.9,4.2-3c0.3-0.3,0.7-0.1,0.7,0.3l0,7.8
		c-6.2-1.3-12-2.3-17.5-2.7l0-4.5c0-0.4,0.5-0.7,0.8-0.4c0.8,0.7,1.9,1.5,3.2,2.3c0.3,0.2,0.7,0.3,1,0.3c0.8,0,1.6-0.5,1.9-1.3
		c0.4-0.9-0.1-2-1-2.5c-1.1-0.6-2-1.3-2.9-2c-1.7-1.4-2.7-3.4-3-5.6c0-0.2,0.2-0.3,0.3-0.2c1.1,1.1,2.3,2.1,3.6,3
		c0.8,0.6,2,0.5,2.6-0.2c0.9-0.9,0.7-2.3-0.3-3c-1.7-1.1-3.1-2.4-4.4-3.9c-0.9-1.1-1.5-2.5-1.8-3.9c0-0.1,0.1-0.2,0.2,0c0,0,0,0,0,0
		c0.9,1.1,1.8,1.9,2.8,2.6c0.8,0.5,1.9,0.5,2.6-0.2c0.4-0.4,0.7-1,0.6-1.6c-0.1-0.6-0.4-1.1-0.9-1.5c-2.7-1.7-4.9-6.3-5.5-8
		c-0.3-0.8-1-1.3-1.9-1.3c0,0,0,0,0,0c-0.8,0-1.6,0.6-1.9,1.3c-1.9,5.6-5.5,8-5.5,8c-0.9,0.6-1.2,1.8-0.6,2.8
		c0.6,0.9,1.9,1.2,2.8,0.6c0.1,0,1-0.7,2.2-1.9l0,0c0,0,0,0,0,0c0.1-0.1,0.2-0.2,0.3-0.3c0.1-0.1,0.2-0.2,0.3-0.3c0,0,0.1,0,0.2,0.1
		c0,0,0,0.1,0,0.1c-0.2,1.3-0.8,2.6-1.6,3.7c-1.2,1.5-2.7,2.8-4.3,3.8c-0.9,0.6-1.3,1.7-0.9,2.6c0.3,0.7,1,1.2,1.8,1.2
		c0.4,0,0.7-0.1,1-0.3c1.3-0.8,2.6-1.8,3.7-2.9c0.1-0.1,0.4,0,0.3,0.2c-0.3,2.1-1.4,3.9-3,5.3c-0.9,0.7-1.8,1.4-2.9,2.1
		c-0.9,0.6-1.3,1.7-0.9,2.6c0.3,0.7,1,1.2,1.8,1.2c0.4,0,0.7-0.1,1.1-0.3c1.1-0.7,2.2-1.5,3.1-2.2c0.3-0.3,0.8-0.1,0.8,0.4l0,4.1
		c-1.6-0.1-3.1-0.1-4.6-0.1c-4.7,0-7.8,0.4-9.3,0.7c-2.6-5.5-4-11.5-4-17.7c0-22.8,18.5-41.3,41.3-41.3c1.6,0,3.1,0.1,4.7,0.3
		c19,2.1,34.2,17.4,36.3,36.4c1,9.1-0.9,17.9-5.5,25.7C346.1,143.2,342.3,144.3,336.8,144.4z"/>
</g>
<g>
	<path fill="#EAEAEA" d="M553.5,362l-9.8,1c-0.3,0-0.6,0.2-0.7,0.5l-0.3,1c-0.1,0.3,0,0.6,0.2,0.8l7.2,6.7c0.1,0.1,0.3,0.2,0.5,0.2
		c0.1,0,0.1,0,0.2,0c0.3-0.1,0.5-0.3,0.5-0.5l0.3-1c0.1-0.3,0-0.6-0.2-0.8l-1.5-1.3l1.2-3.7l2-0.2c0.3,0,0.6-0.2,0.7-0.5l0.4-1.1
		c0.1-0.3,0-0.5-0.1-0.7C554,362.1,553.8,362,553.5,362z M548.2,366.9l-1.9-1.7l2.6-0.3L548.2,366.9z"/>
	<path fill="#EAEAEA" d="M546.9,355.7l7.7,4.6c0.1,0.1,0.3,0.1,0.4,0.1c0.1,0,0.1,0,0.2,0c0.2-0.1,0.4-0.2,0.5-0.4l0.5-0.8
		c0.2-0.4,0.1-0.8-0.3-1.1l-3.5-2.1l3.9,0.3c0.3,0,0.6-0.1,0.7-0.4l0.3-0.5c0.2-0.3,0.1-0.6,0-0.8l-2.1-3.4l3.6,2.1
		c0.4,0.2,0.8,0.1,1.1-0.3l0.5-0.8c0.1-0.2,0.1-0.4,0.1-0.6c0-0.2-0.2-0.4-0.4-0.5l-7.7-4.6c-0.2-0.1-0.4-0.1-0.6-0.1
		c-0.2,0.1-0.4,0.2-0.5,0.4l-0.6,1.1c-0.2,0.3-0.1,0.6,0,0.8l3,4.8l-5.7-0.4c-0.3,0-0.6,0.1-0.7,0.4l-0.7,1.1
		c-0.1,0.2-0.1,0.4-0.1,0.6C546.6,355.5,546.7,355.6,546.9,355.7z"/>
	<path fill="#EAEAEA" d="M562.1,348.8c0.1,0.1,0.3,0.2,0.5,0.2c0,0,0,0,0,0c0.2,0,0.4-0.1,0.5-0.3l4.3-4.6c0.3-0.3,0.3-0.8,0-1.1
		l-0.7-0.7c-0.2-0.1-0.4-0.2-0.6-0.2c-0.2,0-0.4,0.1-0.5,0.3l-3,3.3l-1.1-1l2.6-2.7c0.3-0.3,0.3-0.8,0-1.1l-0.7-0.7
		c-0.2-0.1-0.4-0.2-0.6-0.2c-0.2,0-0.4,0.1-0.5,0.3l-2.6,2.7l-1-0.9l2.9-3.1c0.3-0.3,0.3-0.8,0-1.1l-0.7-0.7
		c-0.2-0.1-0.4-0.2-0.6-0.2c-0.2,0-0.4,0.1-0.5,0.3l-4.1,4.5c-0.3,0.3-0.3,0.8,0,1.1L562.1,348.8z"/>
	<path fill="#EAEAEA" d="M569.4,341.4c0.1,0.2,0.3,0.3,0.5,0.3c0,0,0.1,0,0.1,0c0.2,0,0.3-0.1,0.5-0.2l0.8-0.6
		c0.3-0.3,0.4-0.7,0.2-1.1l-1.2-1.7l1.3-0.9c0.1,0,0.1-0.1,0.2-0.1l2.8,1c0.2,0.1,0.5,0.1,0.7-0.1l0.9-0.7c0.2-0.2,0.4-0.5,0.3-0.7
		c0-0.3-0.2-0.5-0.5-0.6l-2.6-0.9c0.5-1.2,0.3-2.4-0.6-3.6c-1.4-1.9-3.6-2.1-5.7-0.5l-2.7,2c-0.2,0.1-0.3,0.3-0.3,0.5
		c0,0.2,0,0.4,0.1,0.6L569.4,341.4z M568.5,333.1c0.5-0.4,0.9-0.5,1.3-0.5c0.2,0,0.5,0.1,0.9,0.5c0.2,0.3,0.8,1.1-0.6,2.1l-1.3,0.9
		l-1.5-2.1L568.5,333.1z"/>
	<path fill="#EAEAEA" d="M578.8,335c0.1,0.2,0.3,0.3,0.5,0.4c0.1,0,0.2,0,0.2,0c0.1,0,0.3,0,0.4-0.1l0.9-0.5
		c0.4-0.2,0.5-0.7,0.3-1.1l-4.2-7.9c-0.2-0.4-0.7-0.5-1.1-0.3L575,326c-0.2,0.1-0.3,0.3-0.4,0.5c-0.1,0.2,0,0.4,0.1,0.6L578.8,335z"
		/>
	<path fill="#EAEAEA" d="M586.8,331.9c0.6,0,1.2-0.1,1.8-0.3c1.3-0.5,2.4-1.5,3.1-2.8c0.2-0.4,0.1-0.8-0.3-1l-0.8-0.5
		c-0.2-0.1-0.4-0.1-0.6-0.1c-0.2,0.1-0.4,0.2-0.5,0.4c-0.4,0.7-1,1.3-1.7,1.5c-1.5,0.5-3.1-0.3-3.6-1.7c-0.2-0.7-0.2-1.4,0.1-2.1
		c0.3-0.7,0.9-1.2,1.7-1.4c0.7-0.3,1.6-0.2,2.3,0.2c0.2,0.1,0.4,0.1,0.6,0c0.2-0.1,0.4-0.3,0.4-0.5l0.3-0.9c0.1-0.4-0.1-0.8-0.4-1
		c-1.3-0.6-2.8-0.6-4.1-0.2c-2.9,1-4.4,4-3.4,6.8C582.5,330.4,584.6,331.9,586.8,331.9z"/>
	<path fill="#EAEAEA" d="M594,329.8c0,0,0.1,0,0.1,0l1.1-0.2c0.3,0,0.6-0.3,0.6-0.6l0.5-1.9l3.8-0.5l1,1.7c0.2,0.3,0.5,0.4,0.8,0.4
		l1.1-0.2c0.3,0,0.5-0.2,0.6-0.4s0.1-0.5,0-0.7l-5.2-8.3c-0.2-0.3-0.5-0.4-0.8-0.4l-1.1,0.2c-0.3,0-0.6,0.3-0.6,0.6l-2.7,9.5
		c-0.1,0.3,0,0.5,0.2,0.7C593.6,329.7,593.8,329.8,594,329.8z M597.6,322.3l1.3,2.1l-2,0.3L597.6,322.3z"/>
	<path fill="#EAEAEA" d="M606.4,328.4l1,0.1c0.4,0.1,0.8-0.3,0.8-0.7l0.3-4.9l3.7,5.6c0.1,0.2,0.4,0.3,0.6,0.3l1,0.1c0,0,0,0,0,0
		c0.2,0,0.4-0.1,0.5-0.2c0.2-0.1,0.2-0.3,0.3-0.5l0.5-9c0-0.2-0.1-0.4-0.2-0.6c-0.1-0.2-0.3-0.2-0.5-0.3l-1-0.1
		c-0.5-0.1-0.8,0.3-0.8,0.7l-0.3,4.9l-3.7-5.6c-0.1-0.2-0.4-0.3-0.6-0.3l-1.1-0.1c-0.4,0-0.8,0.3-0.8,0.7l-0.5,9
		C605.7,328,606,328.4,606.4,328.4z"/>
	<path fill="#EAEAEA" d="M623.9,331.1l1,0.3c0.1,0,0.2,0,0.3,0c0.3,0,0.6-0.2,0.7-0.5l1-2.9l3.2,1.2c0.4,0.1,0.9-0.1,1-0.5l0.3-0.9
		c0.1-0.2,0.1-0.4,0-0.6c-0.1-0.2-0.2-0.3-0.4-0.4l-3.2-1.2l0.5-1.5l3.7,1.3c0.4,0.2,0.9-0.1,1-0.5l0.3-0.9c0.1-0.2,0.1-0.4,0-0.6
		c-0.1-0.2-0.2-0.3-0.4-0.4l-5.4-1.9c-0.4-0.2-0.9,0.1-1,0.5l-3,8.4c-0.1,0.2-0.1,0.4,0,0.6C623.6,330.9,623.8,331.1,623.9,331.1z"
		/>
	<path fill="#EAEAEA" d="M635.7,336.5c0.9,0.5,1.9,0.8,2.9,0.8c1.9,0,3.6-1,4.6-2.6c0.7-1.2,0.9-2.7,0.5-4.1
		c-0.4-1.4-1.3-2.5-2.5-3.3c-0.9-0.5-1.9-0.8-2.9-0.8c-1.9,0-3.6,1-4.5,2.6C632.2,331.7,633,334.9,635.7,336.5z M635.9,330.5
		c0.5-0.8,1.4-1.3,2.4-1.3c0.5,0,1.1,0.1,1.5,0.4c0.7,0.4,1.1,1,1.3,1.7c0.2,0.7,0.1,1.5-0.3,2.1c-0.5,0.8-1.4,1.3-2.4,1.3
		c-0.5,0-1-0.1-1.5-0.4C635.6,333.5,635.1,331.8,635.9,330.5z"/>
	<path fill="#EAEAEA" d="M642.4,340.7c0,0.2,0.1,0.4,0.3,0.5l0.8,0.7c0.3,0.3,0.8,0.3,1.1,0l1.4-1.5l1.2,1.1c0,0,0.1,0.1,0.1,0.1
		l-0.5,2.9c0,0.3,0,0.5,0.2,0.7l0.9,0.8c0.1,0.1,0.3,0.2,0.5,0.2c0.1,0,0.2,0,0.3,0c0.3-0.1,0.5-0.3,0.5-0.6l0.4-2.8
		c1.2,0.2,2.4-0.2,3.4-1.3c1.6-1.7,1.3-3.9-0.6-5.7l-2.5-2.3c-0.3-0.3-0.8-0.3-1.1,0l-6.1,6.6C642.5,340.3,642.4,340.5,642.4,340.7z
		 M649.4,336.5l1.2,1.1c1.3,1.2,0.7,1.9,0.4,2.1c-0.6,0.7-1.3,0.6-2.2-0.2l-1.2-1.1L649.4,336.5z"/>
	<path fill="#EAEAEA" d="M650.6,349.1l3.8,5c0.1,0.2,0.3,0.3,0.5,0.3c0,0,0.1,0,0.1,0c0.2,0,0.3-0.1,0.5-0.2l0.8-0.6
		c0.3-0.3,0.4-0.7,0.2-1.1l-2.7-3.6l1.2-0.9l2.2,3c0.3,0.3,0.7,0.4,1.1,0.2l0.8-0.6c0.2-0.1,0.3-0.3,0.3-0.5c0-0.2,0-0.4-0.1-0.6
		l-2.2-3l1.1-0.8l2.6,3.4c0.1,0.2,0.3,0.3,0.5,0.3c0.2,0,0.4,0,0.6-0.1l0.8-0.6c0.3-0.3,0.4-0.7,0.2-1.1l-3.7-4.9
		c-0.1-0.2-0.3-0.3-0.5-0.3c-0.2,0-0.4,0-0.6,0.1l-7.2,5.4C650.4,348.3,650.4,348.8,650.6,349.1z"/>
	<path fill="#EAEAEA" d="M661.1,357.7c0.2,1.3,0.2,1.7-0.3,2c-0.2,0-0.6-0.3-1-1c-0.4-0.8-0.4-1.8-0.2-2.7c0.1-0.2,0-0.5-0.1-0.7
		c-0.1-0.2-0.4-0.3-0.6-0.3h-1c-0.3,0-0.6,0.2-0.7,0.6c-0.4,1.4-0.3,3,0.4,4.3c0.8,1.5,2,2.5,3.4,2.5c0.5,0,0.9-0.1,1.3-0.3
		c2.1-1,1.7-3.2,1.5-4.6c-0.2-1.3-0.2-1.7,0.2-1.9c0.1,0,0.5,0.2,0.8,0.9c0.3,0.6,0.4,1.4,0.4,2.1c0,0.2,0,0.5,0.2,0.6
		c0.2,0.2,0.4,0.2,0.6,0.3l1.1,0c0.4,0,0.7-0.3,0.7-0.7c0.1-1.1-0.1-2.3-0.6-3.4c-1-2-2.9-2.9-4.5-2.1
		C660.5,354.2,660.9,356.3,661.1,357.7z"/>
	<path fill="#EAEAEA" d="M667.7,363l0.6,2l-6.9,2.1c-0.4,0.1-0.6,0.6-0.5,1l0.3,1c0.1,0.2,0.2,0.4,0.4,0.5c0.2,0.1,0.4,0.1,0.6,0.1
		l6.9-2.1l0.6,2.1c0.1,0.3,0.4,0.6,0.7,0.6c0.1,0,0.2,0,0.2,0l0.9-0.3c0.2-0.1,0.4-0.2,0.5-0.4c0.1-0.2,0.1-0.4,0.1-0.6l-2-6.6
		c-0.1-0.4-0.6-0.6-1-0.5l-0.9,0.3c-0.2,0.1-0.4,0.2-0.5,0.4C667.7,362.6,667.7,362.8,667.7,363z"/>
	<path fill="#EAEAEA" d="M562.3,426.4l0.9-0.8l2.3,2.5c0.1,0.2,0.3,0.2,0.5,0.3c0.2,0,0.4-0.1,0.6-0.2l0.7-0.6
		c0.3-0.3,0.3-0.8,0.1-1.1l-3.4-3.8c-0.1-0.2-0.3-0.2-0.5-0.3c-0.2,0-0.4,0.1-0.6,0.2l-5.9,5.4c-0.2,0.1-0.2,0.3-0.3,0.5
		c0,0.2,0.1,0.4,0.2,0.6l0.6,0.7c0.3,0.3,0.8,0.3,1.1,0.1l2-1.8l2,2.2c0.2,0.2,0.4,0.3,0.6,0.3c0.2,0,0.4-0.1,0.5-0.2l0.7-0.6
		c0.3-0.3,0.3-0.8,0.1-1.1L562.3,426.4z"/>
	<path fill="#EAEAEA" d="M573,431.2c-2.2-1.6-5.3-1.3-6.9,0.8c-0.8,1-1.1,2.3-0.9,3.6c0.2,1.3,0.9,2.4,2,3.2c0.9,0.7,2,1,3.1,1
		c1.5,0,2.9-0.7,3.8-1.9C575.7,435.9,575.2,432.9,573,431.2z M572,436.6c-0.4,0.6-1.1,0.9-1.9,0.9c-0.6,0-1.1-0.2-1.5-0.5
		c-0.5-0.4-0.9-1-1-1.7c-0.1-0.6,0.1-1.2,0.4-1.7c0.4-0.6,1.1-0.9,1.9-0.9c0.6,0,1.1,0.2,1.5,0.5c0.5,0.4,0.9,1,1,1.6
		C572.6,435.4,572.4,436,572,436.6z"/>
	<path fill="#EAEAEA" d="M585.9,438.7l-0.8-0.4c-0.2-0.1-0.4-0.1-0.6,0c-0.2,0.1-0.4,0.2-0.4,0.4l-2,4.3c-0.5,1-1.2,1.3-2.2,0.8
		c-1-0.5-1.3-1.2-0.8-2.2l2-4.3c0.1-0.2,0.1-0.4,0-0.6c-0.1-0.2-0.2-0.4-0.4-0.4l-0.8-0.4c-0.4-0.2-0.9,0-1,0.4l-2,4.3
		c-0.5,1.1-0.6,2.2-0.3,3.2c0.4,1,1.1,1.8,2.3,2.3c0.7,0.3,1.3,0.5,2,0.5c1.5,0,2.8-0.9,3.5-2.4l2-4.3
		C586.5,439.4,586.3,438.9,585.9,438.7z"/>
	<path fill="#EAEAEA" d="M597,441.9l-0.9-0.2c-0.2-0.1-0.4,0-0.6,0.1c-0.2,0.1-0.3,0.3-0.4,0.5l-1,4L592,441
		c-0.1-0.2-0.3-0.4-0.5-0.4l-0.9-0.2c-0.2-0.1-0.4,0-0.6,0.1c-0.2,0.1-0.3,0.3-0.4,0.5l-1.9,7.8c0,0.2,0,0.4,0.1,0.6
		c0.1,0.2,0.3,0.3,0.5,0.3l0.9,0.2c0.2,0.1,0.4,0,0.6-0.1c0.2-0.1,0.3-0.3,0.4-0.5l1-4l2.3,5.2c0.1,0.2,0.3,0.4,0.5,0.4l0.9,0.2
		c0.1,0,0.1,0,0.2,0c0.1,0,0.3,0,0.4-0.1c0.2-0.1,0.3-0.3,0.4-0.5l1.9-7.8C597.7,442.4,597.4,442,597,441.9z"/>
	<path fill="#EAEAEA" d="M605.2,442.6l-3.2-0.1c-0.4,0-0.8,0.3-0.8,0.8l-0.2,8c0,0.2,0.1,0.4,0.2,0.6s0.3,0.2,0.5,0.2l3.2,0.1
		c0,0,0.2,0,0.2,0c2.7,0,4.8-2,4.9-4.6C610.1,444.9,608,442.7,605.2,442.6z M605,449.8C605,449.8,605,449.8,605,449.8l-1.6,0
		l0.1-4.7l1.5,0c1.4,0,2.4,1.1,2.4,2.4C607.5,448.8,606.5,449.8,605,449.8z"/>
	<path fill="#EAEAEA" d="M617.6,442.1c-0.2-0.3-0.5-0.4-0.8-0.3l-0.9,0.2c-0.3,0.1-0.5,0.3-0.6,0.6l-2.2,8.5c-0.1,0.3,0,0.5,0.2,0.7
		c0.1,0.2,0.4,0.3,0.6,0.3c0,0,0.1,0,0.1,0l1-0.2c0.3-0.1,0.6-0.3,0.6-0.6l0.4-1.7l3.3-0.6l0.9,1.4c0.2,0.3,0.5,0.4,0.8,0.3l1-0.2
		c0.3,0,0.5-0.2,0.6-0.5c0.1-0.2,0.1-0.5-0.1-0.7L617.6,442.1z M616.3,447.4l0.6-2.2l1.3,1.9L616.3,447.4z"/>
	<path fill="#EAEAEA" d="M629.2,439c-0.1-0.4-0.6-0.6-1-0.5l-5.8,2c-0.2,0.1-0.4,0.2-0.4,0.4c-0.1,0.2-0.1,0.4,0,0.6l0.3,0.8
		c0.1,0.4,0.6,0.6,1,0.5l1.7-0.6l2.1,6c0.1,0.3,0.4,0.5,0.7,0.5c0.1,0,0.2,0,0.3,0l0.9-0.3c0.2-0.1,0.4-0.2,0.4-0.4
		c0.1-0.2,0.1-0.4,0-0.6l-2.1-6l1.7-0.6c0.2-0.1,0.4-0.2,0.4-0.4c0.1-0.2,0.1-0.4,0-0.6L629.2,439z"/>
	<path fill="#EAEAEA" d="M633.9,436.7c-0.1-0.2-0.3-0.3-0.5-0.4c-0.2-0.1-0.4,0-0.6,0l-0.8,0.4c-0.4,0.2-0.5,0.7-0.3,1.1l3.6,7.1
		c0.1,0.3,0.4,0.4,0.7,0.4c0.1,0,0.2,0,0.4-0.1l0.8-0.4c0.2-0.1,0.3-0.3,0.4-0.5c0.1-0.2,0-0.4,0-0.6L633.9,436.7z"/>
	<path fill="#EAEAEA" d="M640.1,431.7c-2.2,1.7-2.8,4.7-1.2,6.8c0.9,1.2,2.3,1.9,3.9,1.9c1.1,0,2.1-0.3,3-1c2.2-1.7,2.7-4.7,1.1-6.8
		C645.4,430.6,642.3,430.1,640.1,431.7z M645.4,435.9c-0.1,0.7-0.5,1.2-1,1.6c-0.4,0.3-1,0.5-1.5,0.5c-0.8,0-1.5-0.3-1.9-0.9
		c-0.4-0.5-0.5-1.1-0.4-1.7c0.1-0.7,0.5-1.3,1-1.7c0.4-0.3,1-0.5,1.5-0.5c0.8,0,1.5,0.3,1.9,0.9
		C645.3,434.6,645.5,435.3,645.4,435.9z"/>
	<path fill="#EAEAEA" d="M651.1,421.3l-0.6,0.7c-0.1,0.2-0.2,0.4-0.2,0.6c0,0.2,0.1,0.4,0.3,0.5l3.1,2.7l-5.7-0.5
		c-0.2,0-0.5,0.1-0.7,0.3l-0.6,0.7c-0.1,0.2-0.2,0.4-0.2,0.6c0,0.2,0.1,0.4,0.3,0.5l6,5.3c0.1,0.1,0.3,0.2,0.5,0.2
		c0.2,0,0.4-0.1,0.6-0.3l0.6-0.7c0.1-0.2,0.2-0.4,0.2-0.6c0-0.2-0.1-0.4-0.3-0.5l-3-2.7l5.7,0.5c0.2,0,0.5-0.1,0.6-0.3l0.6-0.7
		c0.1-0.2,0.2-0.4,0.2-0.6c0-0.2-0.1-0.4-0.3-0.5l-6-5.3C651.8,421,651.4,421,651.1,421.3z"/>
	<path fill="#EAEAEA" d="M694.3,403.9l-8.7-8.7l8.7-8.7c0.8-0.8,1-2,0.6-3c-0.4-1-1.4-1.7-2.5-1.7h-9.1
		c-1.9-40.7-35.6-73.2-76.8-73.2c-41.2,0-74.9,32.5-76.8,73.2h-7.5c-1.1,0-2.1,0.7-2.5,1.7c-0.4,1-0.2,2.2,0.6,3l8.7,8.7l-8.7,8.7
		c-0.8,0.8-1,2-0.6,3c0.4,1,1.4,1.7,2.5,1.7h11c9.9,31.1,39,53.6,73.3,53.6c34.3,0,63.4-22.6,73.3-53.6h12.6c1.1,0,2.1-0.7,2.5-1.7
		C695.3,405.8,695.1,404.7,694.3,403.9z M606.5,312.7c38.9,0,70.7,30.7,72.6,69.1h-20.3c-1.8-27.2-24.5-48.8-52.2-48.8
		s-50.4,21.6-52.2,48.8h-20.5C535.8,343.3,567.7,312.7,606.5,312.7z M629.9,426.6L629.9,426.6c-0.2,0.1-0.4,0.3-0.6,0.4
		c-0.2,0.1-0.4,0.2-0.6,0.3c-0.5,0.3-1.1,0.6-1.6,0.8c0,0,0,0-0.1,0c-2.8,1.3-5.7,2.4-8.7,3.2c0,0,0,0,0,0c-3.1,0.8-6.4,1.3-9.7,1.5
		v0c-0.7,0-1.5,0.1-2.2,0.1c-0.7,0-1.3,0-2,0v0c-0.1,0-0.1,0-0.2,0c-0.5,0-1.1-0.1-1.6-0.1c-0.5,0-1.1-0.1-1.6-0.2
		c-0.3,0-0.6-0.1-0.8-0.1c-14.1-1.9-26.8-10.2-34.3-22.5c1.8-0.2,4.7-0.5,8.5-0.5c9.4,0,20.6,1.5,32.3,4.2c0.1,0,8.3,2.3,18,3.4
		c6.9,0.8,12.6,0.7,17.2-0.2c-0.1,0.2-0.3,0.3-0.4,0.5c-0.4,0.4-0.7,0.8-1.1,1.2c-0.3,0.3-0.5,0.5-0.8,0.8c-0.4,0.4-0.7,0.7-1.1,1
		c-0.4,0.3-0.8,0.7-1.2,1c-0.5,0.5-1.1,0.9-1.7,1.4c-0.4,0.3-0.7,0.6-1.1,0.8c-0.2,0.1-0.3,0.3-0.5,0.4v0
		C632.8,424.9,631.4,425.8,629.9,426.6z M634.7,413v-15.5c0-0.4,0.4-0.6,0.8-0.4c1.1,0.8,3,2.3,4.3,3c0.4,0.2,0.8,0.3,1.2,0.3
		c1,0,1.8-0.6,2.2-1.5c0.4-1-0.1-2.3-1.1-2.9c-1.1-0.6-2.1-1.3-3-2c-2.4-1.9-4-4.8-4.3-7.9c0-0.1,0.1-0.2,0.2-0.1
		c1.4,1.5,3,2.8,4.8,4c0.9,0.6,2.3,0.6,3.1-0.3c1-1.1,0.8-2.7-0.4-3.5c-1.9-1.3-3.7-2.8-5.1-4.5c-1.3-1.5-2.1-3.4-2.4-5.4
		c0.1-0.2,0.2-0.1,0.2-0.1l0,0c1.2,1.5,2.4,2.6,3.6,3.4c0.9,0.6,2.2,0.5,3-0.2c0.5-0.5,0.8-1.2,0.7-1.9c-0.1-0.7-0.5-1.3-1-1.7
		c-3.9-2.5-6.7-9.5-6.8-9.8c-0.3-0.9-1.2-1.5-2.2-1.5c-1,0-1.8,0.6-2.1,1.5c-2.4,6.9-6.7,9.8-6.7,9.8c-1.1,0.7-1.4,2.1-0.7,3.2
		c0.7,1,2.1,1.4,3.2,0.7c0.1-0.1,1.8-1.3,3.8-3.7l0,0c0,0,0.2-0.2,0.2,0.1c-0.3,2-1.1,4-2.4,5.6c-1.5,1.8-3.2,3.3-5.1,4.5
		c-1.1,0.7-1.5,1.9-1,3c0.4,0.8,1.2,1.4,2.1,1.4c0.4,0,0.8-0.1,1.2-0.3c1.8-1.1,3.4-2.4,4.9-3.9c0.1-0.1,0.3,0,0.2,0.1
		c-0.4,3-1.8,5.6-4.2,7.5c-0.9,0.7-1.9,1.5-3,2.2c-1.1,0.7-1.5,2-1,3c0.4,0.8,1.2,1.3,2.1,1.3c0.4,0,0.9-0.1,1.2-0.3
		c1.5-0.9,2.8-1.9,4.1-2.9c0.4-0.3,0.9-0.1,0.9,0.4l0,15.2c-7.5-0.4-15.7-2-21-3.4l-0.1-10.1c0-0.4,0.5-0.7,0.8-0.4
		c1.6,1.4,3.4,2.6,5.5,3.7c0.3,0.2,0.7,0.3,1.1,0.3c0.9,0,1.8-0.6,2.1-1.4c0.4-1.1-0.1-2.4-1.2-3c-1.4-0.8-2.7-1.6-3.9-2.5
		c-2.4-1.9-3.9-4.7-4.3-7.8c0-0.2,0.2-0.4,0.4-0.2c1.7,1.7,3.6,3.2,5.8,4.6c1,0.6,2.4,0.5,3.1-0.4c0.5-0.6,0.6-1.3,0.5-2
		c-0.1-0.6-0.5-1.1-1-1.4c-2.1-1.3-3.9-2.8-5.5-4.4c-1.8-1.9-3-4.4-3.3-7.1c0-0.2,0.2-0.3,0.3-0.2c1.7,1.9,3.7,3.6,5.9,5
		c0.4,0.2,0.8,0.4,1.2,0.4c0.9,0,1.7-0.5,2.1-1.4c0.5-1,0-2.3-1-3c-3.8-2.4-6.1-5.3-7.3-7.3c-0.7-1.1-1.1-2.2-1.3-3.5
		c0-0.1,0.1-0.1,0.2-0.1l0,0c0.9,1.2,1.9,2.2,3,3c0.9,0.6,2.2,0.6,3-0.1c0.5-0.5,0.8-1.2,0.7-1.9c-0.1-0.7-0.4-1.3-1-1.7
		c-3.9-2.6-5.7-10-6.1-12.7c-0.2-1.1-1.1-2-2.3-2l-0.1,0c-1.2,0-2.1,1-2.2,2.2c-0.3,8.6-6.1,12.2-6.3,12.4c-1.1,0.7-1.4,2.1-0.8,3.2
		c0.6,1,2.1,1.4,3.2,0.8c0.2-0.1,1.8-1.1,3.5-3.1l0,0c0,0,0.2-0.1,0.3,0.2c-0.2,1.2-0.6,2.3-1.2,3.4c-1.2,2-3.4,4.7-6.9,6.8
		c-1.1,0.6-1.5,1.8-1.1,2.9c0.3,0.9,1.2,1.5,2.2,1.5c0.4,0,0.8-0.1,1.1-0.3c2.1-1.2,4-2.7,5.7-4.5c0.1-0.1,0.4,0,0.3,0.2
		c-0.3,2.6-1.4,5-3.1,6.8c-1.6,1.7-3.5,3.2-5.6,4.5c-1.1,0.6-1.6,1.9-1.1,3c0.4,0.9,1.2,1.4,2.1,1.4c0.4,0,0.8-0.1,1.1-0.3
		c2.3-1.3,4.3-2.9,6.2-4.7c0.2-0.2,0.4,0,0.4,0.2c-0.4,3-1.9,5.7-4.2,7.6c-1.1,0.9-2.3,1.7-3.6,2.5c-1,0.6-1.5,1.8-1.1,2.9
		c0.3,0.9,1.2,1.5,2.2,1.5c0.4,0,0.8-0.1,1.1-0.3c1.8-1,3.4-2.2,4.8-3.4c0.3-0.3,0.8-0.1,0.8,0.4l0,9c-7.1-1.5-13.9-2.6-20.2-3.2
		l0-5.1c0-0.5,0.6-0.8,0.9-0.4c1,0.8,2.2,1.8,3.7,2.6c0.4,0.2,0.8,0.3,1.2,0.3c1,0,1.8-0.6,2.2-1.5c0.4-1-0.1-2.3-1.1-2.9
		c-1.2-0.7-2.3-1.5-3.3-2.3c-1.9-1.6-3.2-3.9-3.5-6.5c0-0.2,0.2-0.3,0.4-0.2c1.3,1.3,2.7,2.4,4.2,3.4c0.9,0.6,2.3,0.6,3.1-0.3
		c1-1.1,0.8-2.7-0.4-3.5c-1.9-1.3-3.6-2.8-5-4.5c-1.1-1.3-1.8-2.9-2.1-4.5c0-0.1,0.1-0.2,0.3-0.1c0,0,0,0,0,0c1,1.2,2.1,2.2,3.2,3
		c0.9,0.6,2.2,0.5,3-0.2c0.5-0.5,0.8-1.2,0.7-1.9c-0.1-0.7-0.5-1.3-1-1.7c-3.1-2-5.7-7.3-6.4-9.2c-0.3-0.9-1.2-1.5-2.2-1.5
		c0,0,0,0,0,0c-1,0-1.8,0.6-2.1,1.5c-2.3,6.5-6.3,9.3-6.3,9.3c-1.1,0.7-1.4,2.1-0.7,3.2c0.7,1,2.1,1.4,3.2,0.7
		c0.1,0,1.1-0.8,2.6-2.2l0,0c0,0,0,0,0,0c0.1-0.1,0.2-0.3,0.4-0.4c0.1-0.1,0.3-0.3,0.4-0.4c0.1,0,0.1,0,0.2,0.1c0,0,0,0.1,0,0.1
		c-0.3,1.5-0.9,3-1.9,4.2c-1.4,1.8-3.1,3.3-4.9,4.4c-1.1,0.7-1.5,1.9-1,3c0.4,0.8,1.2,1.4,2.1,1.4c0.4,0,0.8-0.1,1.2-0.3
		c1.5-0.9,3-2.1,4.3-3.3c0.2-0.1,0.4,0,0.4,0.2c-0.4,2.4-1.6,4.6-3.4,6.1c-1,0.8-2.1,1.6-3.3,2.4c-1.1,0.7-1.5,1.9-1,3
		c0.4,0.8,1.2,1.4,2.1,1.4c0.4,0,0.8-0.1,1.2-0.3c1.3-0.8,2.5-1.7,3.6-2.6c0.4-0.3,1-0.1,1,0.4l0,4.8c-1.8-0.1-3.6-0.1-5.3-0.1
		c-5.4,0-9,0.5-10.8,0.8c-3-6.4-4.6-13.3-4.6-20.4c0-13.1,5.3-25,13.9-33.6c0.1-0.1,0.2-0.2,0.3-0.3c0.4-0.4,0.8-0.8,1.2-1.2
		c0.2-0.2,0.4-0.4,0.6-0.5c0.4-0.3,0.7-0.6,1.1-1c0.2-0.2,0.4-0.3,0.5-0.4c0.4-0.4,0.9-0.7,1.3-1c0.1-0.1,0.2-0.2,0.3-0.2
		c8.8-6.5,19.8-10,31.7-9.2c22.8,1.6,41.6,19.7,43.9,42.5c1.1,10.9-1.5,21.2-6.7,29.7C644.7,411.9,640.5,412.9,634.7,413z
		 M525.7,404.4l6.4-6.4c1.5-1.5,1.5-4.1,0-5.6l-6.5-6.5h28.7c0.1,6.5,1.4,12.8,3.7,18.5H525.7z M606.5,458
		c-32,0-59.1-20.7-68.9-49.5h22.2c8.6,17.1,26.3,28.9,46.8,28.9s38.2-11.8,46.8-28.9h22C665.7,437.3,638.5,458,606.5,458z
		 M655.3,404.4c2.3-5.7,3.6-12,3.7-18.5h30l-6.4,6.4c-1.5,1.5-1.5,4.1,0,5.6l6.5,6.5H655.3z"/>
</g>
</svg>
