<?xml version="1.0" encoding="utf-8"?>
<!-- Generator: Adobe Illustrator 18.1.1, SVG Export Plug-In . SVG Version: 6.00 Build 0)  -->
<!DOCTYPE svg PUBLIC "-//W3C//DTD SVG 1.1//EN" "http://www.w3.org/Graphics/SVG/1.1/DTD/svg11.dtd">
<svg version="1.1" id="Layer_1" xmlns="http://www.w3.org/2000/svg" xmlns:xlink="http://www.w3.org/1999/xlink" x="0px" y="0px"
	 width="800px" height="530px" viewBox="0 0 800 530" enable-background="new 0 0 800 530" xml:space="preserve">
<rect y="-0.8" fill="#EAEAEA" width="800" height="530"/>
<g>
	<g>
		<path fill="#BB3D37" d="M574.3,412.9c-35.6,0-64.6-29-64.6-64.5s29-64.6,64.6-64.6s64.6,29,64.6,64.6S609.9,412.9,574.3,412.9z
			 M574.3,287.8c-33.4,0-60.5,27.1-60.5,60.5s27.1,60.4,60.5,60.4s60.5-27.1,60.5-60.4S607.7,287.8,574.3,287.8z"/>
	</g>
	<g>
		<path fill="#BB3D37" d="M609.7,316.8H539c-3,0-5.3,2.4-5.3,5.3v41.1c0,3,2.4,5.3,5.3,5.3h28.4v6.6h-7.9c-1.2,0-2.3,1-2.3,2.3
			c0,1.3,1,2.3,2.3,2.3h29.7c1.2,0,2.3-1,2.3-2.3c0-1.3-1-2.3-2.3-2.3H581v-6.6h28.7c3,0,5.3-2.4,5.3-5.3v-41.1
			C615,319.2,612.6,316.8,609.7,316.8z M539,321.3h70.7c0.5,0,0.8,0.4,0.8,0.8v29.3h-72.3v-29.3C538.1,321.6,538.5,321.3,539,321.3z
			 M576.8,375.3h-5.3v-6.6h5.3V375.3z M609.7,364.1H539c-0.5,0-0.8-0.4-0.8-0.8V356h72.3v7.3C610.5,363.7,610.2,364.1,609.7,364.1z"
			/>
		<circle fill="#BB3D37" cx="574.1" cy="359.9" r="2.5"/>
	</g>
</g>
<g>
	<g>
		<path fill="#BB3D37" d="M400.6,412.9c-35.6,0-64.6-29-64.6-64.6s29-64.6,64.6-64.6s64.6,29,64.6,64.6S436.2,412.9,400.6,412.9z
			 M400.6,287.8c-33.4,0-60.5,27.1-60.5,60.5s27.1,60.5,60.5,60.5s60.5-27.1,60.5-60.5S434,287.8,400.6,287.8z"/>
	</g>
	<g>
		<path fill="#BB3D37" d="M432.3,338.1v-8.7c0-0.2-0.1-0.3-0.2-0.4l-7.5-8c-0.1-0.2-0.2-0.2-0.4-0.2h-11.9c-5.1-4.3-9-7.6-9-7.6
			c-1.5-1.3-3.9-1.3-5.3,0c0,0-3.9,3.3-9,7.6l0,0h-19.4c-0.3,0-0.7,0.2-0.7,0.7v16.7c-3.4,3.1-3.6,3.4-3.6,4.3v38.1
			c0,2,1.6,3.6,3.6,3.6h63.3c2,0,3.6-1.6,3.6-3.6v-38.2C435.9,341.6,435.7,341.3,432.3,338.1z M394.4,320.8c3.4-3,5.8-4.9,5.9-5
			c0.2-0.2,0.5-0.2,0.7,0c0,0,2.4,2.1,5.8,4.9L394.4,320.8L394.4,320.8z M424.4,328.8v-3.3l2.9,3.3H424.4z M432.3,345.5V379
			l-28.4-17.6L432.3,345.5z M397.1,361.4l-28.2,17.4v-33.3L397.1,361.4z M421.5,332.4h7.3v11.1l-28.1,15.8l-28.1-15.8v-19.1h48.3
			v7.4C420.9,332,421.1,332.4,421.5,332.4z M372.8,380.6l27.6-17l27.6,17H372.8z"/>
		<path fill="#BB3D37" d="M379.1,336.1v0.2c0,0.8,0.6,1.6,1.3,1.6H421c0.7,0,1.3-0.7,1.3-1.6v-0.2c0-0.8-0.6-1.6-1.3-1.6h-40.5
			C379.7,334.6,379.1,335.3,379.1,336.1z"/>
		<path fill="#BB3D37" d="M421,341.3h-40.5c-0.7,0-1.3,0.7-1.3,1.6v0.2c0,0.8,0.6,1.6,1.3,1.6H421c0.7,0,1.3-0.7,1.3-1.6v-0.2
			C422.4,342,421.7,341.3,421,341.3z"/>
	</g>
</g>
<g>
	<g>
		<path fill="#BB3D37" d="M227,412.9c-35.6,0-64.6-29-64.6-64.6s29-64.6,64.6-64.6s64.6,29,64.6,64.6S262.6,412.9,227,412.9z
			 M227,287.8c-33.4,0-60.5,27.1-60.5,60.5s27.1,60.5,60.5,60.5s60.5-27.1,60.5-60.5S260.3,287.8,227,287.8z"/>
	</g>
	<g>
		<path fill="#BB3D37" d="M218.4,345.3c-1.1,0-1.8,0.5-2.5,1.1l-4.8,4.8c-0.7,0.7-1,1.1-1.1,1.6c-0.2,0.7,0,1.4,0.6,2.1
			c0.7,0.6,1.4,0.8,2.1,0.6c0.5-0.2,0.8-0.4,1.6-1.1l2.1-2.1v15.3c0,1.1,0.1,1.6,0.3,2.1c0.3,0.7,1.1,1.1,2,1.1c0.9,0,1.6-0.4,2-1.1
			c0.2-0.5,0.3-0.9,0.3-2.1v-19.3c0-0.9-0.1-1.7-0.7-2.3C219.7,345.6,219,345.3,218.4,345.3z"/>
		<path fill="#BB3D37" d="M242.7,363c-0.4-0.2-0.8-0.2-1.9-0.2h-0.7v-2.1c0-1.1-0.1-1.6-0.3-2.1c-0.3-0.7-1.1-1.1-2-1.1
			s-1.6,0.4-2,1.1c-0.2,0.5-0.3,0.9-0.3,2.1v2.1h-4.4l6.8-13.6c0.5-0.9,0.6-1.3,0.6-1.8c0-1.1-1.1-2.1-2.2-2.1
			c-0.4,0-0.7,0.1-1.1,0.3c-0.4,0.3-0.7,0.7-1.1,1.6l-7.7,15.4c-0.4,0.7-0.7,1.4-0.7,1.9c0,0.7,0.2,1.3,0.7,1.7
			c0.6,0.5,1.3,0.6,2.5,0.6h6.6v0.7c0,1.1,0.1,1.6,0.3,2.1c0.3,0.7,1.1,1.1,2,1.1s1.6-0.4,2-1.1c0.2-0.5,0.3-0.9,0.3-2.1v-0.7h0.7
			c1.1,0,1.5,0,1.9-0.2c0.6-0.3,1-1,1-1.8C243.8,363.9,243.4,363.3,242.7,363z"/>
		<path fill="#BB3D37" d="M253.5,317.4h-7.2v-3.5c0-1.1-1-2.1-2.1-2.1c-1.1,0-2.1,1-2.1,2.1v3.5h-29.7v-3.5c0-1.1-1-2.1-2.1-2.1
			c-1.1,0-2.1,0.9-2.1,2.1v3.5h-7.7c-3.9,0-7.2,3.2-7.2,7.2v53.1c0,3.9,3.2,7.2,7.2,7.2h43.1c0.2,0,0.6-0.1,1-0.1
			c0.2,0,0.6-0.1,0.8-0.2c13.3-5.9,15.4-14.5,15.4-16.6l0,0c0.1-0.2,0.1-0.5,0.1-0.8v-42.6C260.8,320.6,257.6,317.4,253.5,317.4z
			 M208.1,323c-1.4,0.7-2.2,2.2-2.2,3.8c0,2.4,2,4.3,4.3,4.3s4.3-2,4.3-4.3c0-1.6-0.8-3-2.2-3.8v-1.4h29.7v1.4
			c-1.4,0.7-2.2,2.2-2.2,3.8c0,2.4,2,4.3,4.3,4.3c2.4,0,4.3-2,4.3-4.3c0-1.6-0.8-3-2.2-3.8v-1.4h7.2c1.6,0,2.9,1.3,2.9,3v9.8h-59
			v-9.8c0-1.6,1.3-3,3-3h7.7V323z M243.7,376c0,1,0.1,3.9-0.4,4.6h-42.9c-1.6,0-3-1.3-3-3v-38.7h59.1V367c-0.2,0.1-1,0.4-3.5,0.4
			c-0.2,0-0.6,0-0.8,0h-1.2c-3.9,0-7.2,3.2-7.2,7.2L243.7,376z M248,376v-1.4c0-1.6,1.3-2.9,2.9-3h1c0.3,0,0.7,0,1.1,0
			c0.5,0,1.2,0,2.1-0.1c-1.1,1.9-3.3,4.3-7.1,6.6C248,377.5,248,376.7,248,376z"/>
	</g>
</g>
<path fill="#BB3D37" d="M652.1,121.8c-35.6,0-64.5,29-64.5,64.5s29,64.5,64.5,64.5s64.5-29,64.5-64.5S687.7,121.8,652.1,121.8z
	 M633,198.4c-2.9,1.6-5.2,3.1-6.6,4c-1.1-1.6-3.2-4.6-4.7-9c-2.1-5.9-3.6-15.5-0.4-28.6c1.1,0.5,2.5,1.1,4.6,1.7
	c1,0.3,2.1,0.6,3.2,0.8C628.2,169.6,623.6,183.2,633,198.4z M631.4,177c0.2-5.1,1.6-8.4,1.6-8.5c0.1-0.2,0.1-0.3,0.2-0.5
	c6.2,1,13.9,1.5,23.1,1.5c6.2,0,13-0.2,20.3-0.7v17c-1.8-0.5-4.5-1-7.8-1c-6.5,0-13.2,1.7-20.3,5.2c0,0-0.1,0-0.1,0.1
	c-0.2,0.1-0.5,0.2-0.7,0.3c-3.9,1.9-7.7,4-11.2,6C632.8,190.3,631.1,183.8,631.4,177z M660.3,165.3v-3.8h8.2v3.6
	C665.7,165.2,663,165.2,660.3,165.3z M668.8,188.9c0.8,0,1.6,0,2.2,0.1c-3.9,6.2-4.8,21.7-3,46.4h-8.5c1.6-12.1,4.1-37.5-2.8-44.4
	C660.8,189.6,664.8,188.9,668.8,188.9z M674.6,242.3v-4.9c0-1.1-0.9-2.1-2.1-2.1h-0.3c-3-37.3,1.6-44,3-45.2
	c0.3-0.2,0.5-0.2,0.6-0.2c0.4,0.2,0.8,0.2,1.2,0.2c0.5,0.2,0.7,0.3,0.7,0.3c0.7,0.3,1.4,0.3,2-0.1c0.6-0.4,1-1.1,1-1.7v-22.1
	c0-0.6-0.2-1.1-0.7-1.5c-0.4-0.4-1-0.6-1.6-0.6c-2,0.2-3.9,0.2-5.9,0.3v-5.4c0-1.1-0.9-2.1-2.1-2.1h-12.3c-1.1,0-2.1,0.9-2.1,2.1
	v5.9c-27.7,0-34-4.8-34.6-5.2c-0.4-0.7-1.1-0.9-1.9-0.7c-0.8,0.2-1.4,0.7-1.6,1.6c-8.7,30.1,5.8,44.9,6.5,45.5
	c0.4,0.4,0.9,0.6,1.5,0.6c0.4,0,0.7-0.1,1.1-0.3c0.1-0.1,11.7-7.5,23-13c2.1-0.9,3-0.3,3.2-0.1c1.4,1,4.5,5.4,3.5,24.9
	c-0.3,6.6-1.1,12.9-1.6,17h-0.9c-1.1,0-2.1,0.9-2.1,2.1v9.3c-0.1,0-0.2,0-0.2,0c-33.3,0-60.4-27.1-60.4-60.4s27.1-60.4,60.4-60.4
	c33.3,0,60.4,27.1,60.4,60.4C712.5,211.7,696.8,233.5,674.6,242.3z"/>
<g>
	<g>
		<path fill="#BB3D37" d="M483.9,250.5c-35.4,0-64.2-28.8-64.2-64.2s28.8-64.2,64.2-64.2s64.2,28.8,64.2,64.2
			S519.4,250.5,483.9,250.5z M483.9,126.3c-33.1,0-60.1,26.9-60.1,60.1s26.9,60.1,60.1,60.1s60.1-26.9,60.1-60.1
			C544.1,153.2,517.1,126.3,483.9,126.3z"/>
	</g>
	<path fill="#BB3D37" d="M484,146.1c-8.5,0-16.1,5-19.4,12.8c-1.1,2.5-1.6,5.3-1.6,8.2v27.7c0,10.7,7.9,19.6,18.5,20.9v18.4
		c0,1.4,1.1,2.5,2.5,2.5c1.4,0,2.5-1.1,2.5-2.5v-18.4c10.6-1.3,18.5-10.2,18.5-20.9v-27.8C505,155.5,495.5,146.1,484,146.1z
		 M499.9,172.2v9.1l-13.4,10.1v-9.1L499.9,172.2z M486.5,175.9v-24.5c7.3,1.2,12.9,7.2,13.4,14.5L486.5,175.9z M499.9,187.7v7.1
		c0,7.8-5.7,14.6-13.4,15.8v-12.9L499.9,187.7z M470.1,159.3c2.4-4.2,6.6-7.1,11.4-7.9v16.7L470.1,159.3z M468,180l13.4,10.1v20.6
		c-7.7-1.3-13.4-8-13.4-15.8V180z M468,166.9c0-0.9,0.1-1.8,0.3-2.6l13.2,10.2v9.1L468,173.6v-6.5C468,167.1,468,167,468,166.9z"/>
</g>
<g>
	<path fill="#BB3D37" d="M380.9,186.3c0-35.9-29.2-65.2-65.2-65.2s-65.1,29.3-65.1,65.2s29.2,65.2,65.2,65.2
		S380.9,222.4,380.9,186.3z M376.4,186.3c0,33.5-27.3,60.8-60.8,60.8s-60.8-27.3-60.8-60.8s27.4-60.6,60.9-60.6
		S376.4,153,376.4,186.3z M309.4,224.7c-1.3,1.2-3.1,2.5-5.4,3.9c-1,0.6-1.6,1.9-1.2,3.1c0.6,1.5,2.2,2.1,3.6,1.3
		c2.7-1.6,4.9-3.3,6.6-4.8c0.1-0.1,0.4,0,0.4,0.3v18.3c0,1.3,1,2.5,2.5,2.5l0,0c1.3,0,2.5-1,2.5-2.5v-18.2c0-0.3,0.3-0.4,0.4-0.3
		c1.8,1.6,4.2,3.4,7.3,5.1c0.3,0.1,0.7,0.3,1.2,0.3c0.9,0,1.9-0.6,2.2-1.5c0.4-1.2-0.1-2.7-1.3-3.3c-2.5-1.3-4.5-2.8-6-4
		c-2.7-2.4-4.2-5.8-4.2-9.4c1.8,1.8,4.3,3.7,7.9,5.5c0.3,0.1,0.7,0.3,1.2,0.3c0.9,0,1.9-0.6,2.2-1.5c0.4-1.2-0.1-2.7-1.3-3.3
		c-2.1-1-3.7-2.2-5.1-3.3c-3.1-2.5-4.9-6.6-4.9-10.6l0,0c1.9,2.1,4.5,4.3,7.9,6.6c1,0.6,2.4,0.6,3.1-0.3c1.2-1.2,0.9-3-0.4-3.9
		c-3.3-2.1-5.5-4.2-7.1-6c-2.2-2.5-3.4-5.8-3.4-9.2v-0.1c1.9,2.2,4.5,4.8,8,7c0.4,0.3,0.9,0.4,1.3,0.4c0.9,0,1.8-0.4,2.2-1.5
		c0.6-1.2,0-2.5-1-3.3c-4.9-3.1-7.7-6.9-9.1-9.4c-0.9-1.5-1.3-3.3-1.3-5.1V178c1.2,1.9,2.7,3.6,4.5,4.9c1,0.7,2.4,0.7,3.3-0.1
		c1.2-1.2,0.9-3-0.3-3.9c-4.6-3.1-6.9-12.1-7.3-15.2c-0.1-1.3-1.3-2.2-2.7-2.1c-1.3,0.1-2.1,1.3-2.2,2.5
		c-0.4,10.1-7.3,14.4-7.6,14.7c-1.2,0.7-1.5,2.2-0.9,3.4c0.4,0.7,1.3,1.2,2.1,1.2c0.4,0,0.9-0.1,1.3-0.3c0.1-0.1,2.7-1.6,5.1-4.8
		c0,1.8-0.4,3.4-1.3,4.9c-1.5,2.5-4.2,6.3-8.6,8.9c-1,0.6-1.6,1.9-1.3,3.1c0.6,1.5,2.2,2.1,3.6,1.3c3.3-1.9,5.8-4.2,7.7-6.4
		c0,3.3-1.2,6.6-3.3,9.1c-1.6,1.9-4,4.2-7.3,6c-1.2,0.6-1.8,2.1-1.2,3.3c0.4,0.9,1.3,1.5,2.2,1.5c0.4,0,0.9-0.1,1.2-0.3
		c3.6-2.1,6.3-4.5,8.3-6.7c0,3.9-1.6,7.6-4.6,10.3c-1.3,1.2-2.8,2.4-4.8,3.4c-1,0.6-1.6,1.9-1.2,3.1c0.6,1.5,2.2,2.1,3.6,1.3
		c3-1.8,5.4-3.6,7.1-5.4v0.1C313.4,218.9,311.9,222.4,309.4,224.7z M280.2,215.8c-1.2,1-2.7,2.2-4.6,3.4c-1.2,0.7-1.6,2.4-0.9,3.6
		c0.4,0.7,1.2,1,2.1,1c0.4,0,0.9-0.1,1.3-0.4c2.2-1.3,4-2.8,5.4-4c0.1-0.1,0.4,0,0.4,0.1v20c0,1.3,1,2.5,2.5,2.5l0,0
		c1.3,0,2.5-1,2.5-2.5v-19.8c0-0.1,0.3-0.3,0.4-0.1c1.5,1.2,3.1,2.5,5.5,3.9c1,0.6,2.4,0.4,3.1-0.3c1.2-1.2,0.7-3.1-0.6-3.9
		c-1.8-1-3.3-2.1-4.5-3.1c-2.5-2.2-4-5.4-4-8.6v-0.3c1.5,1.6,3.4,3.4,5.8,5.1c0.9,0.6,2.2,0.6,3.1-0.1c1.2-1.2,1-3-0.3-3.9
		c-3-2.1-5.2-4.3-6.6-6.1c-1.5-1.8-2.2-4-2.2-6.3c1.3,1.8,2.8,3.4,4.8,4.6c1,0.6,2.4,0.6,3.3-0.1c1.2-1.2,0.9-3-0.4-3.9
		c-3.7-2.4-6.9-8.8-7.7-11c-0.4-1-1.3-1.6-2.4-1.6s-1.9,0.7-2.2,1.6c-2.7,7.7-7.4,11-7.6,11.2c-1.2,0.7-1.5,2.2-0.7,3.4
		c0.4,0.7,1.3,1.2,2.1,1.2c0.4,0,0.9-0.1,1.3-0.4c0.1-0.1,2.4-1.5,4.8-4.6l0,0c0,2.2-0.7,4.3-2.1,6.1c-1.3,1.9-3.4,4.2-6.4,6
		c-1,0.7-1.6,2.1-1.2,3.3c0.4,0.9,1.3,1.5,2.2,1.5c0.4,0,0.9-0.1,1.3-0.3c2.5-1.5,4.5-3.3,6.1-5.1
		C283.9,210.6,282.6,213.7,280.2,215.8z M341.4,206.3c-1.5,1.9-3.6,4.2-6.6,6c-1,0.7-1.6,2.1-1.2,3.3c0.4,0.9,1.3,1.5,2.2,1.5
		c0.4,0,0.9-0.1,1.3-0.3c2.8-1.6,4.9-3.7,6.6-5.5c0,3.7-1.6,7.4-4.5,9.8c-1.2,1-2.5,2.1-4.2,3.1c-1,0.7-1.6,2.1-1.2,3.3
		c0.4,0.9,1.3,1.5,2.2,1.5c0.4,0,0.9-0.1,1.3-0.4c2.4-1.5,4.3-3,5.8-4.3c0.1-0.1,0.4,0,0.4,0.1v15.3c0,1.3,1,2.5,2.5,2.5l0,0
		c1.3,0,2.5-1,2.5-2.5v-15.3c0-0.3,0.3-0.4,0.4-0.1c1.5,1.3,3.4,3,5.8,4.3c1,0.6,2.4,0.4,3.1-0.4c1.2-1.2,0.7-3.1-0.6-3.9
		c-1.6-0.9-3-1.9-4-2.8c-3.1-2.5-4.9-6.3-4.9-10.1v-0.3c1.6,1.8,3.7,3.7,6.4,5.7c0.9,0.6,2.4,0.6,3.1-0.1c1.2-1.2,1-3-0.3-3.9
		c-3-2.1-5.2-4.3-6.7-6.1c-1.6-2.1-2.5-4.8-2.5-7.4c1.5,1.9,3.1,3.9,5.2,5.2c1,0.6,2.4,0.6,3.1-0.1c1.2-1.2,0.9-3-0.4-3.9
		c-4-2.5-7.3-9.4-8.2-11.8c-0.4-1-1.3-1.5-2.4-1.6c-1,0-1.9,0.7-2.2,1.6c-2.8,8.2-8,11.8-8,11.8c-1.2,0.7-1.5,2.2-0.7,3.4
		c0.4,0.7,1.3,1.2,2.1,1.2c0.4,0,0.9-0.1,1.3-0.4c0.1-0.1,2.5-1.8,5.2-5.2l0,0C343.8,201.7,343,204.3,341.4,206.3z"/>
	<g>
		<path fill="#BB3D37" d="M273.4,175.5c-0.7,0-1.3,0.3-1.8,0.8c-0.3,0.5-0.7,1-0.7,1.6c0,1.2,0.8,2.5,2.5,2.5c0.7,0,1.3-0.3,1.8-0.8
			c0.3-0.5,0.7-1,0.7-1.6C275.9,176.7,275.1,175.5,273.4,175.5z"/>
		<path fill="#BB3D37" d="M362.5,177.2c-0.7,0-1.3,0.3-1.8,0.8c-0.3,0.5-0.7,1-0.7,1.6c0,1.2,0.8,2.5,2.5,2.5c0.7,0,1.3-0.3,1.8-0.8
			c0.3-0.5,0.7-1,0.7-1.6C365,178.3,364.2,177.2,362.5,177.2z"/>
		<path fill="#BB3D37" d="M335.5,167.6c-0.7,0-1.3,0.3-1.8,0.8c-0.3,0.5-0.7,1-0.7,1.6c0,1.2,0.8,2.5,2.5,2.5c0.7,0,1.3-0.3,1.8-0.8
			c0.3-0.5,0.7-1,0.7-1.6C337.8,168.9,337,167.6,335.5,167.6z"/>
		<path fill="#BB3D37" d="M314,140.1c-0.7,0-1.3,0.3-1.8,0.8c-0.3,0.5-0.7,1-0.7,1.6c0,1.2,0.8,2.5,2.5,2.5c0.7,0,1.3-0.3,1.8-0.8
			c0.3-0.5,0.7-1,0.7-1.6C316.3,141.4,315.5,140.1,314,140.1z"/>
		<path fill="#BB3D37" d="M344.2,150.3c-0.7,0-1.3,0.3-1.8,0.8c-0.3,0.5-0.7,1-0.7,1.6c0,1.2,0.8,2.5,2.5,2.5c0.7,0,1.3-0.3,1.8-0.8
			c0.3-0.5,0.7-1,0.7-1.6C346.5,151.6,345.7,150.3,344.2,150.3z"/>
	</g>
	<path fill="#BB3D37" d="M291.6,149.5c-5.6,0-10.2,4.6-10.2,10.2s4.6,10.2,10.2,10.2c5.6,0,10.2-4.6,10.2-10.2
		C301.8,154.1,297.4,149.5,291.6,149.5z M291.6,166c-3.5,0-6.3-2.8-6.3-6.3s2.8-6.3,6.3-6.3c3.5,0,6.3,2.8,6.3,6.3
		S295.1,166,291.6,166z"/>
</g>
<g>
	<path fill="#BB3D37" d="M181.4,177.8c-2.1-0.2-4.5-0.3-7.2-0.3c-5.7,0-11.6,1.2-17.6,3.5c0.2-0.9,0.4-1.8,0.4-2.7
		c0-2.5-1-5.5-2.6-8c1-1.8,1.7-3.8,1.7-5.2c0-2.2-1.7-4.3-4.4-5.4c0.5-4.1,4.1-7.3,8.3-7.3c0,0,0,0,0,0c0,0,0.1,0,0.1,0
		c1.1,0,1.9-0.9,1.9-1.9c0-1-0.8-1.9-1.8-1.9c-0.1,0-0.1,0-0.2,0c-6.1,0-11.2,4.4-12.1,10.3c-0.7-0.1-1.4,0-2.2,0
		c-0.9-6-6-10.4-12.1-10.4c0,0,0,0-0.1,0c0,0,0,0-0.1,0c-1.1,0-1.9,0.9-1.9,1.9c0,1.1,0.9,1.9,1.9,1.9c0,0,0,0,0,0c0,0,0.1,0,0.1,0
		c4.2,0,7.8,3.2,8.3,7.4c-2.6,1.1-4.2,3.1-4.2,5.3c0,1.7,1,3.9,1.7,5.2c-1.6,2.5-2.6,5.5-2.6,8c0,0.8,0.1,1.6,0.2,2.3
		c-3.5-1.3-9.6-3.1-16.5-3.1c-2.8,0-5.1,0.1-7,0.3c0,0-0.1,0-0.1,0c-5,0.4-16.7,2-16.7,7.4c0,5.6,12.9,7.6,23.9,7.6
		c5.7,0,10.7-1.2,14.2-2.3c-1.7,3.5-1.6,8-1.6,13.2v3.1c0,12.5,6,22.2,13.7,22.2c7.7,0,13.7-9.8,13.7-22.2c0-1.3,0-2.6,0.1-3.8
		c0-0.5,0-1,0-1.5c0-1,0-1.9,0-2.8v-1.5c0-0.5,0-1.1-0.1-1.7c0-0.2,0-0.3,0-0.4c0-0.1,0-0.2,0-0.4c0-0.3-0.1-0.6-0.1-0.8
		c0,0,0-0.1,0-0.1c0-0.1,0-0.2-0.1-0.2c0-0.1,0-0.2-0.1-0.3c0-0.2-0.1-0.4-0.1-0.5c0-0.2-0.1-0.3-0.1-0.4c0-0.2-0.1-0.3-0.1-0.4
		c0-0.1,0-0.1,0-0.2c0-0.1-0.1-0.1-0.1-0.2c0-0.1-0.1-0.2-0.1-0.2c-0.1-0.2-0.1-0.4-0.3-0.7c5.2,1.7,10.2,2.6,15,2.6
		c11.5,0,23.9-2.4,23.9-7.6C198.2,180.2,187.7,178.4,181.4,177.8z M123.5,185.6c0.1-0.1,0.2-0.2,0.2-0.4c0-0.1-0.1-0.3-0.2-0.4
		l-4.8-3.5c0.7,0,1.3,0,2,0c6.9,0,13.2,2,17.6,3.8c-3.7,1.6-10.2,3.9-17.6,3.9c-0.7,0-1.5,0-2.2,0L123.5,185.6z M152.4,165.2
		c0,0.4-0.2,1.3-0.7,2.2c-1.5-1.1-3.1-1.7-4.7-1.7h0c-1.6-0.1-3.1,0.5-4.6,1.7c-0.5-1.1-0.7-1.9-0.7-2.2c0-1,2.2-2.4,5.3-2.4
		C150.3,162.8,152.4,164.3,152.4,165.2z M139.5,190.7c1.2-1.2,3.1-1.9,5.7-2.1V225c-4.5-1.6-8-9.4-8-18.1l0-3.2
		C137.1,198,137.1,193.2,139.5,190.7z M140.7,178.4c0-3,2-6.8,4.3-8.2v14.1c-0.2-0.1-0.5-0.2-0.8-0.3c0,0-0.1,0-0.1,0l-0.6-0.3
		l-0.1-0.1C141.7,182.4,140.7,180.5,140.7,178.4z M148.9,184.3v-14.2c2.3,1.4,4.3,5.2,4.3,8.2C153.3,181.1,151.5,183.5,148.9,184.3z
		 M149,188.5L149,188.5c0.2,0,0.4,0.1,0.6,0.1c0.2,0,0.3,0,0.5,0.1c0.1,0,0.2,0,0.3,0c0.1,0,0.2,0,0.3,0c0,0,0.1,0,0.1,0
		c0.1,0,0.2,0,0.3,0l0.2,0c0,0,0.1,0,0.2,0.1c0.1,0,0.1,0,0.2,0.1c0,0,0.1,0,0.1,0c0,0,0.1,0,0.1,0c0.3,0.1,0.5,0.1,0.7,0.2
		c0.1,0,0.2,0.1,0.3,0.1c0.1,0.1,0.2,0.1,0.2,0.1c0,0,0,0,0,0c0,0,0.1,0.1,0.1,0.1c0,0,0.1,0,0.1,0.1c0,0,0.1,0.1,0.2,0.1
		c0.1,0.1,0.2,0.1,0.3,0.2c0,0,0.1,0.1,0.2,0.1c0,0,0.1,0.1,0.2,0.2c0,0,0.1,0.1,0.1,0.1c0.1,0,0.1,0,0.1,0.1c0,0,0,0.1,0.1,0.1
		c2.5,2.5,2.5,7,2.4,12.1l0,0.4c0,0.6,0,1.2,0,1.9c0,0.6,0,1.3,0,2c0,8.5-3.4,16.3-7.9,18.1V188.5z M171.4,185
		c-0.1,0.1-0.2,0.2-0.2,0.4s0.1,0.3,0.2,0.4l5,3.3c-0.3,0-0.6,0-0.9,0c-0.4,0-0.8,0-1.3,0c-6.9,0-13.2-2-17.6-3.8
		c4.3-1.8,10.7-3.8,17.6-3.8c0.7,0,1.4,0,2,0L171.4,185z M177.7,185.2l4.7-3.4c8,0.9,11.8,2.8,12,3.4c-0.2,0.6-3.9,2.5-11.6,3.4
		L177.7,185.2z M112.6,181.8l4.7,3.4l-5.1,3.5c-7.6-0.9-11.4-2.8-11.6-3.4C100.8,184.7,104.6,182.7,112.6,181.8z"/>
	<path fill="#BB3D37" d="M147.5,122.1c-35.4,0-64.2,28.8-64.2,64.2s28.8,64.2,64.2,64.2c35.4,0,64.2-28.8,64.2-64.2
		S182.9,122.1,147.5,122.1z M147.5,246.4c-33.1,0-60.1-26.9-60.1-60.1s26.9-60.1,60.1-60.1s60.1,26.9,60.1,60.1
		C207.6,219.4,180.6,246.4,147.5,246.4z"/>
</g>
</svg>
