<?xml version="1.0" encoding="utf-8"?>
<!-- Generator: Adobe Illustrator 18.1.1, SVG Export Plug-In . SVG Version: 6.00 Build 0)  -->
<!DOCTYPE svg PUBLIC "-//W3C//DTD SVG 1.1//EN" "http://www.w3.org/Graphics/SVG/1.1/DTD/svg11.dtd">
<svg version="1.1" id="Layer_1" xmlns="http://www.w3.org/2000/svg" xmlns:xlink="http://www.w3.org/1999/xlink" x="0px" y="0px"
	 width="800px" height="530px" viewBox="0 0 800 530" enable-background="new 0 0 800 530" xml:space="preserve">
<g>
	<g>
		<rect x="0" y="-0.1" fill-rule="evenodd" clip-rule="evenodd" fill="#878787" width="800" height="530"/>
	</g>
</g>
<g>
	<g>
		<g>
			<ellipse cx="400.4" cy="374.6" rx="21.6" ry="6.2"/>
		</g>
	</g>
	<g>
		<g>
			<g>
				<path d="M412.5,339.5h-24.3c-13.4,0-24.3-10.9-24.3-24.3v-34.9h72.8v34.9C436.7,328.6,425.8,339.5,412.5,339.5z M369.9,286.3
					v28.9c0,10.1,8.2,18.3,18.3,18.3h24.3c10.1,0,18.3-8.2,18.3-18.3v-28.9H369.9z"/>
			</g>
		</g>
	</g>
	<g>
		<g>
			<rect x="359.2" y="280.3" width="82.2" height="5.8"/>
		</g>
	</g>
	<g>
		<g>
			<path fill="#FFFFFF" d="M403.7,373.2c0,0-0.8,1-3.9,1s-3.9-1-3.9-1v-60.4h7.9V373.2z"/>
		</g>
	</g>
	<g>
		<g>
			<path fill="#FF9E99" d="M375.2,273.5v35.7c0,8.5,6.9,15.4,15.4,15.4h18.2c8.5,0,15.4-6.9,15.4-15.4v-35.7H375.2z"/>
		</g>
	</g>
	<g>
		<g>
			<path fill="#FFFFFF" d="M424.3,273.5v-29.3c0-8.8-7.1-15.9-15.9-15.9h-17.3c-8.8,0-15.9,7.1-15.9,15.9v29.3H424.3z"/>
		</g>
	</g>
	<g>
		<g>
			<polygon fill="#5E5E5E" points="428.6,219.7 439.7,208.5 432.9,205.8 456.4,190.1 443.9,204.9 451.6,207.2 			"/>
		</g>
	</g>
	<g>
		<g>
			<polygon fill="#5E5E5E" points="371.8,219.7 360.8,208.5 367.6,205.8 344,190.1 356.5,204.9 348.9,207.2 			"/>
		</g>
	</g>
	<g>
		<g>
			<polygon fill="#5E5E5E" points="399.9,192.6 400.1,176.8 406.8,179.8 401.2,152 399.6,171.3 392.5,167.5 			"/>
		</g>
	</g>
	<g>
		<g>
			<path fill="#5E5E5E" d="M417.5,247.9H382c-0.5,0-0.8-0.4-0.8-0.8v-2c0-0.5,0.4-0.8,0.8-0.8h35.5c0.5,0,0.8,0.4,0.8,0.8v2
				C418.3,247.6,418,247.9,417.5,247.9z"/>
		</g>
	</g>
	<g>
		<g>
			<path fill="#5E5E5E" d="M398.2,228.3v8.9c0,1,0.8,1.9,1.9,1.9c1,0,1.9-0.8,1.9-1.9v-8.9H398.2z"/>
		</g>
	</g>
	<g>
		<g>
			<path fill="#5E5E5E" d="M407.1,228.3v8.9c0,1,0.8,1.9,1.9,1.9c1,0,1.9-0.8,1.9-1.9v-8.9H407.1z"/>
		</g>
	</g>
	<g>
		<g>
			<path fill="#5E5E5E" d="M389.2,228.3v8.9c0,1,0.8,1.9,1.9,1.9c1,0,1.9-0.8,1.9-1.9v-8.9H389.2z"/>
		</g>
	</g>
	<g>
		<g>
			<path fill="#5E5E5E" d="M417.5,255.6H382c-0.5,0-0.8-0.4-0.8-0.8v-2c0-0.5,0.4-0.8,0.8-0.8h35.5c0.5,0,0.8,0.4,0.8,0.8v2
				C418.3,255.2,418,255.6,417.5,255.6z"/>
		</g>
	</g>
	<g>
		<g>
			<path fill="#5E5E5E" d="M417.5,263.2H382c-0.5,0-0.8-0.4-0.8-0.8v-2c0-0.5,0.4-0.8,0.8-0.8h35.5c0.5,0,0.8,0.4,0.8,0.8v2
				C418.3,262.9,418,263.2,417.5,263.2z"/>
		</g>
	</g>
	<g>
		<g>
			<rect x="375.1" y="273.5" fill="#FF5A52" width="49.1" height="3.7"/>
		</g>
	</g>
</g>
</svg>
