<?xml version="1.0" encoding="utf-8"?>
<!-- Generator: Adobe Illustrator 18.1.1, SVG Export Plug-In . SVG Version: 6.00 Build 0)  -->
<!DOCTYPE svg PUBLIC "-//W3C//DTD SVG 1.1//EN" "http://www.w3.org/Graphics/SVG/1.1/DTD/svg11.dtd">
<svg version="1.1" id="Layer_1" xmlns="http://www.w3.org/2000/svg" xmlns:xlink="http://www.w3.org/1999/xlink" x="0px" y="0px"
	 width="500px" height="500px" viewBox="0 0 500 500" enable-background="new 0 0 500 500" xml:space="preserve">
<g>
	<g>
		<rect fill-rule="evenodd" clip-rule="evenodd" fill="#FF9E99" width="500" height="500"/>
	</g>
</g>
<g>
	<g>
		<g>
			<rect x="230" y="304" width="56" height="6"/>
		</g>
	</g>
	<g>
		<g>
			<polygon points="355.4,500 276.2,304.4 265.9,308.6 343.3,500 			"/>
		</g>
	</g>
	<g>
		<g>
			<polygon points="169.9,500 249.3,308.7 239,304.4 157.8,500 			"/>
		</g>
	</g>
	<g>
		<g>
			<g>
				<polygon points="384.8,330.3 311,307.9 311,269 326,269 326,299.6 389.5,319.6 				"/>
			</g>
		</g>
	</g>
	<g>
		<g>
			<polygon fill="#FB3449" points="381.4,331.6 413.3,345.4 420,323.3 386.9,315.1 			"/>
		</g>
	</g>
	<g>
		<g>
			<polygon fill="#FFFFFF" points="338,271.3 166.4,271.3 157,151.4 351,151.4 			"/>
		</g>
	</g>
	<polygon fill="#FB3449" points="161.4,207.2 131.1,207.2 131.1,207.2 91.8,194.7 91.8,252.3 131.1,237.1 163.7,237.1 	"/>
	<g>
		<g>
			<rect x="250" y="271.3" width="15" height="228.7"/>
		</g>
	</g>
	<g>
		<g>
			<path d="M280.8,117c-26.9,0-64.1-6-96.6-32.7l3.5-4.3c44.5,36.6,98.7,32.7,119.9,29.3l0.9,5.5C302,115.9,292.3,117,280.8,117z"/>
		</g>
	</g>
	<g>
		<g>
			<circle cx="171.8" cy="123.5" r="46.6"/>
		</g>
	</g>
	<g>
		<g>
			<path fill="#878787" d="M171.8,57.5c-37.8,0-68.4,30.6-68.4,68.4s30.6,68.4,68.4,68.4s68.4-30.6,68.4-68.4S209.6,57.5,171.8,57.5
				z M174.2,92.2c-6.9,0-12.4-5.6-12.4-12.4s5.6-12.4,12.4-12.4c6.9,0,12.4,5.6,12.4,12.4S181.1,92.2,174.2,92.2z M201.7,110.8
				c-3.4-5.9-1.4-13.6,4.6-17c5.9-3.4,13.6-1.4,17,4.6c3.4,5.9,1.4,13.6-4.6,17C212.8,118.8,205.2,116.8,201.7,110.8z M199.3,144
				c3.4-5.9,11-8,17-4.6c5.9,3.4,8,11,4.6,17c-3.4,5.9-11,8-17,4.6S195.9,150,199.3,144z M169.3,158.5c6.9,0,12.4,5.6,12.4,12.4
				c0,6.9-5.6,12.4-12.4,12.4c-6.9,0-12.4-5.6-12.4-12.4C156.9,164.1,162.5,158.5,169.3,158.5z M141.8,139.8
				c3.4,5.9,1.4,13.6-4.6,17c-5.9,3.4-13.6,1.4-17-4.6c-3.4-5.9-1.4-13.6,4.6-17S138.4,133.9,141.8,139.8z M144.3,106.6
				c-3.4,5.9-11,8-17,4.6c-5.9-3.4-8-11-4.6-17c3.4-5.9,11-8,17-4.6C145.7,93.1,147.7,100.7,144.3,106.6z"/>
		</g>
	</g>
	<g>
		<g>
			<circle fill="#FFFFFF" cx="171.8" cy="123.5" r="14.8"/>
		</g>
	</g>
	<g>
		<g>
			<circle fill="#FF5A52" cx="171.8" cy="123.5" r="8.4"/>
		</g>
	</g>
	<g>
		<g>
			<circle cx="319.3" cy="135.3" r="33.4"/>
		</g>
	</g>
	<g>
		<g>
			<path fill="#878787" d="M319.3,88.1c-27,0-49,21.9-49,49s21.9,49,49,49c27,0,49-21.9,49-49S346.3,88.1,319.3,88.1z M330.9,100.5
				c3.6-2.1,8.3-0.9,10.4,2.8c2.1,3.6,0.9,8.3-2.8,10.4c-3.6,2.1-8.3,0.9-10.4-2.8C326,107.3,327.2,102.6,330.9,100.5z M356.7,128.8
				c3.6,2.1,4.9,6.8,2.8,10.4c-2.1,3.6-6.8,4.9-10.4,2.8c-3.6-2.1-4.9-6.8-2.8-10.4C348.4,128,353.1,126.7,356.7,128.8z
				 M345.1,165.4c0,4.2-3.4,7.6-7.6,7.6c-4.2,0-7.6-3.4-7.6-7.6c0-4.2,3.4-7.6,7.6-7.6C341.7,157.7,345.1,161.1,345.1,165.4z
				 M307.7,173.6c-3.6,2.1-8.3,0.9-10.4-2.8c-2.1-3.6-0.9-8.3,2.8-10.4c3.6-2.1,8.3-0.9,10.4,2.8
				C312.6,166.8,311.3,171.5,307.7,173.6z M281.8,145.3c-3.6-2.1-4.9-6.8-2.8-10.4s6.8-4.9,10.4-2.8c3.6,2.1,4.9,6.8,2.8,10.4
				C290.1,146.1,285.5,147.4,281.8,145.3z M293.4,108.7c0-4.2,3.4-7.6,7.6-7.6c4.2,0,7.6,3.4,7.6,7.6c0,4.2-3.4,7.6-7.6,7.6
				C296.8,116.3,293.4,112.9,293.4,108.7z"/>
		</g>
	</g>
	<g>
		<g>
			<circle fill="#FFFFFF" cx="319.3" cy="135.3" r="10.6"/>
		</g>
	</g>
	<g>
		<g>
			<circle fill="#FF5A52" cx="319.3" cy="135.3" r="6.2"/>
		</g>
	</g>
	<g>
		<g>
			<path fill="#FB3449" d="M393,199.1c0.1,0,0.2,0,0.2,0v38.5c-0.1,0-0.2,0-0.2,0c-10.6,0-19.2-8.6-19.2-19.2
				C373.7,207.7,382.4,199.1,393,199.1z"/>
		</g>
	</g>
	<g>
		<g>
			<rect x="362.7" y="214" fill="#FFFFFF" width="11.5" height="8.1"/>
		</g>
	</g>
	<g>
		<g>
			<rect x="200.5" y="207.2" fill="#FF5A52" width="167.7" height="22.4"/>
		</g>
	</g>
	<g>
		<g>
			<circle fill="#FFFFFF" cx="293.3" cy="218.5" r="4.4"/>
		</g>
	</g>
	<g>
		<g>
			<circle fill="#FFFFFF" cx="212.6" cy="218.5" r="4.4"/>
		</g>
	</g>
</g>
</svg>
