<?xml version="1.0" encoding="utf-8"?>
<!-- Generator: Adobe Illustrator 18.1.1, SVG Export Plug-In . SVG Version: 6.00 Build 0)  -->
<!DOCTYPE svg PUBLIC "-//W3C//DTD SVG 1.1//EN" "http://www.w3.org/Graphics/SVG/1.1/DTD/svg11.dtd">
<svg version="1.1" id="Layer_1" xmlns="http://www.w3.org/2000/svg" xmlns:xlink="http://www.w3.org/1999/xlink" x="0px" y="0px"
	 width="800px" height="530px" viewBox="0 0 800 530" enable-background="new 0 0 800 530" xml:space="preserve">
<rect fill="#E8E8E8" width="800" height="530"/>
<g>
	<g>
		<rect x="617.7" y="209.1" fill="#FB3449" width="23.7" height="13.7"/>
	</g>
</g>
<g>
	<g>
		<g>
			<g>
				<rect x="323.9" y="270.2" fill="#5E5E5E" width="123.4" height="93.4"/>
			</g>
		</g>
	</g>
	<g>
		<g>
			<g>
				<path d="M447.6,276.7H323.7c-0.6,0-1.1-0.6-1.1-1.4l4-25.5c0-0.8,0.5-1.4,1.1-1.4h115.8c0.6,0,1.1,0.6,1.1,1.4l4,25.5
					C448.6,276,448.2,276.7,447.6,276.7z"/>
			</g>
		</g>
	</g>
	<g>
		<g>
			<g>
				<path fill="#FF5A52" d="M396.7,367.2h-22.1v-41.7c0-2.6,2.1-4.7,4.7-4.7H392c2.6,0,4.7,2.1,4.7,4.7V367.2z"/>
			</g>
		</g>
	</g>
	<g>
		<g>
			<g>
				<rect x="377.5" y="288.2" fill="#FFFFFF" width="16" height="20.8"/>
			</g>
		</g>
	</g>
	<g>
		<g>
			<g>
				<rect x="336" y="288.2" fill="#FFFFFF" width="16" height="20.8"/>
			</g>
		</g>
	</g>
	<g>
		<g>
			<g>
				<rect x="418.6" y="288.2" fill="#FFFFFF" width="16" height="20.8"/>
			</g>
		</g>
	</g>
	<g>
		<g>
			<g>
				<rect x="336" y="322.8" fill="#FFFFFF" width="16" height="20.8"/>
			</g>
		</g>
	</g>
	<g>
		<g>
			<g>
				<rect x="418.6" y="322.8" fill="#FFFFFF" width="16" height="20.8"/>
			</g>
		</g>
	</g>
	<g>
		<g>
			<g>
				<path fill="#878787" d="M616.8,238.4c-1.1,0-1.9-0.9-1.9-1.9v-27.4c0-1.1,0.9-1.9,1.9-1.9c1.1,0,1.9,0.9,1.9,1.9v27.4
					C618.8,237.6,617.9,238.4,616.8,238.4z"/>
			</g>
		</g>
	</g>
	<g>
		<g>
			<g>
				<rect x="549.3" y="259.7" fill="#5E5E5E" width="136" height="103.9"/>
			</g>
		</g>
	</g>
	<g>
		<g>
			<polygon fill="#FF9E99" points="445.4,298.1 497.6,239.5 549.7,298.1 549.7,363.6 445.4,363.6 			"/>
		</g>
	</g>
	<g>
		<g>
			<polygon fill="#878787" points="478.1,260.5 461.8,273.5 461.8,234 478.1,234 			"/>
		</g>
	</g>
	<g>
		<g>
			<g>
				<path d="M440.5,303.9c-1,0-2.1-0.4-2.9-1.1c-1.9-1.6-2.1-4.5-0.4-6.3l57.1-65.8c0.8-1,2.1-1.5,3.4-1.5l0,0
					c1.3,0,2.5,0.5,3.4,1.5l58.7,65.8c1.7,1.9,1.5,4.7-0.4,6.3c-1.9,1.7-4.7,1.5-6.3-0.4l-55.3-62L444,302.3
					C443,303.4,441.7,303.9,440.5,303.9z"/>
			</g>
		</g>
	</g>
	<g>
		<g>
			<g>
				<circle fill="#FFFFFF" cx="497.6" cy="276.7" r="13.3"/>
			</g>
		</g>
	</g>
	<g>
		<g>
			<path fill="#FB3449" d="M488.8,364.3H464c-0.7,0-1.4-0.6-1.4-1.4V310c0-0.7,0.6-1.4,1.4-1.4h24.9c0.7,0,1.4,0.6,1.4,1.4v53
				C490.2,363.7,489.6,364.3,488.8,364.3z"/>
		</g>
	</g>
	<g>
		<g>
			<path d="M479,239.5h-18c-0.2,0-0.4-0.2-0.4-0.4v-5.9c0-0.2,0.2-0.4,0.4-0.4h18c0.2,0,0.4,0.2,0.4,0.4v5.9
				C479.4,239.3,479.2,239.5,479,239.5z"/>
		</g>
	</g>
	<g>
		<g>
			<rect x="459.6" y="359.1" fill="#99A4AA" width="35" height="9.1"/>
		</g>
	</g>
	<g>
		<g>
			<circle cx="484.3" cy="337.3" r="2.7"/>
		</g>
	</g>
	<g>
		<g>
			<path fill="#FFFFFF" d="M474.6,326.9h-6.4c-0.4,0-0.7-0.3-0.7-0.7v-10.9c0-0.4,0.3-0.7,0.7-0.7h6.4c0.4,0,0.7,0.3,0.7,0.7v10.9
				C475.3,326.6,475,326.9,474.6,326.9z"/>
		</g>
	</g>
	<g>
		<g>
			<path fill="#FFFFFF" d="M484.3,326.9h-6.4c-0.4,0-0.7-0.3-0.7-0.7v-10.9c0-0.4,0.3-0.7,0.7-0.7h6.4c0.4,0,0.7,0.3,0.7,0.7v10.9
				C485,326.6,484.7,326.9,484.3,326.9z"/>
		</g>
	</g>
	<g>
		<g>
			<g>
				<rect x="499.8" y="308.7" fill="#FFFFFF" width="39.9" height="28.6"/>
			</g>
		</g>
		<g>
			<g>
				<path fill="#FB3449" d="M540.6,339.3H499c-0.6,0-1.1-0.5-1.1-1.1V308c0-0.6,0.5-1.1,1.1-1.1h41.6c0.6,0,1.1,0.5,1.1,1.1v30.2
					C541.7,338.8,541.2,339.3,540.6,339.3z M501.7,335.4h36.1v-24.8h-36.1L501.7,335.4L501.7,335.4z"/>
			</g>
		</g>
	</g>
	<g>
		<g>
			<rect x="496.4" y="332.3" width="46.8" height="7.5"/>
		</g>
	</g>
	<g>
		<g>
			<g>
				<rect x="499.8" y="321.8" fill="#FB3449" width="39.9" height="2.6"/>
			</g>
		</g>
	</g>
	<g>
		<g>
			<g>
				<rect x="518.5" y="308.7" fill="#FB3449" width="2.6" height="23.6"/>
			</g>
		</g>
	</g>
	<g>
		<g>
			<g>
				<polygon points="691.3,268 543.4,268 551.4,235.6 606.3,235.6 616.8,226.6 627.1,235.6 683.3,235.6 				"/>
			</g>
		</g>
	</g>
	<g>
		<g>
			<g>
				<path fill="#878787" d="M595.5,363.6V254c0-0.8,0.4-1.6,1-2.2l18.6-17c1.2-1.1,3.2-1.1,4.4,0l18.6,17c0.6,0.6,1,1.4,1,2.2v109.6
					H595.5z"/>
			</g>
		</g>
	</g>
	<g>
		<g>
			<g>
				<path fill="#FB3449" d="M628.5,365.4h-22.4c-0.6,0-1-0.5-1-1v-47.9c0-0.6,0.5-1,1-1h22.4c0.6,0,1,0.5,1,1v47.9
					C629.5,365,629.1,365.4,628.5,365.4z"/>
			</g>
		</g>
	</g>
	<g>
		<g>
			<g>
				<rect x="562.6" y="275.3" fill="#FFFFFF" width="17.6" height="22.9"/>
			</g>
		</g>
	</g>
	<g>
		<g>
			<g>
				<rect x="653.7" y="275.3" fill="#FFFFFF" width="17.6" height="22.9"/>
			</g>
		</g>
	</g>
	<g>
		<g>
			<g>
				<rect x="562.6" y="317.6" fill="#FFFFFF" width="17.6" height="22.9"/>
			</g>
		</g>
	</g>
	<g>
		<g>
			<g>
				<rect x="653.7" y="317.6" fill="#FFFFFF" width="17.6" height="22.9"/>
			</g>
		</g>
	</g>
	<g>
		<g>
			<g>
				<circle fill="#FFFFFF" cx="617.3" cy="275.3" r="12.9"/>
			</g>
		</g>
		<g>
			<g>
				<path fill="#FB3449" d="M617.3,290.1c-8.2,0-14.8-6.6-14.8-14.8c0-8.2,6.6-14.8,14.8-14.8s14.8,6.6,14.8,14.8
					S625.5,290.1,617.3,290.1z M617.3,264.3c-6,0-11,4.9-11,11s4.9,11,11,11c6,0,11-4.9,11-11S623.4,264.3,617.3,264.3z"/>
			</g>
		</g>
	</g>
	<g>
		<g>
			<rect x="599.8" y="359.1" fill="#99A4AA" width="35" height="9.1"/>
		</g>
	</g>
	<g>
		<g>
			<rect x="369.8" y="359.1" fill="#99A4AA" width="31.7" height="8.3"/>
		</g>
	</g>
	<g>
		<g>
			<g>
				<rect x="116.3" y="270.6" fill="#878787" width="117.5" height="93.4"/>
			</g>
		</g>
	</g>
	<g>
		<g>
			<g>
				<path fill="#5E5E5E" d="M236.7,281.2H112.8c-0.6,0-1.1-0.9-1.1-2L122,243c0-1.1,0.5-2,1.1-2h103.3c0.6,0,0.8,1,1.1,2l10.3,36.2
					C237.8,280.3,237.3,281.2,236.7,281.2z"/>
			</g>
		</g>
	</g>
	<g>
		<g>
			<path fill="#FFFFFF" d="M623.9,333.7h-13.8c-0.4,0-0.7-0.3-0.7-0.7v-11c0-0.4,0.3-0.7,0.7-0.7h13.8c0.4,0,0.7,0.3,0.7,0.7v10.9
				C624.7,333.3,624.3,333.7,623.9,333.7z"/>
		</g>
	</g>
	<g>
		<g>
			<path d="M216.1,366.5h-31.7c-0.7,0-1.4-0.6-1.4-1.4v-42.3c0-0.7,0.6-1.4,1.4-1.4h31.7c0.7,0,1.4,0.6,1.4,1.4v42.3
				C217.5,365.9,216.9,366.5,216.1,366.5z"/>
		</g>
	</g>
	<g>
		<g>
			<rect x="178.3" y="359.1" fill="#FB3449" width="43.1" height="8.3"/>
		</g>
	</g>
	<g>
		<g>
			<circle fill="#FFFFFF" cx="196.5" cy="343.5" r="1.6"/>
		</g>
	</g>
	<g>
		<g>
			<circle fill="#FFFFFF" cx="203.2" cy="343.5" r="1.6"/>
		</g>
	</g>
	<g>
		<g>
			<g>
				<rect x="187" y="326.7" fill="#FFFFFF" width="9.6" height="12.1"/>
			</g>
		</g>
	</g>
	<g>
		<g>
			<g>
				<rect x="204" y="326.7" fill="#FFFFFF" width="9.6" height="12.1"/>
			</g>
		</g>
	</g>
	<g>
		<g>
			<path fill="#FFFFFF" d="M131.5,342.2h37.6v-18.9h-37.6V342.2z"/>
		</g>
	</g>
	<g>
		<g>
			<polygon fill="#FB3449" points="173.7,329.3 126.9,329.3 130.7,321.5 169.9,321.5 			"/>
		</g>
	</g>
	<g>
		<g>
			<g>
				<rect x="128.1" y="291.5" fill="#FFFFFF" width="16" height="20.8"/>
			</g>
		</g>
	</g>
	<g>
		<g>
			<g>
				<rect x="153.9" y="291.5" fill="#FFFFFF" width="16" height="20.8"/>
			</g>
		</g>
	</g>
	<g>
		<g>
			<g>
				<rect x="179.6" y="291.5" fill="#FFFFFF" width="16" height="20.8"/>
			</g>
		</g>
	</g>
	<g>
		<g>
			<g>
				<rect x="205.4" y="291.5" fill="#FFFFFF" width="16" height="20.8"/>
			</g>
		</g>
	</g>
	<g>
		<g>
			<polygon fill="#FF5A52" points="233.8,263.7 279.4,215.2 325,263.7 325,364.1 233.8,364.1 			"/>
		</g>
	</g>
	<g>
		<g>
			<polygon fill="#FF5A52" points="300.9,237.2 315.2,260.5 315.2,207.5 300.9,207.5 			"/>
		</g>
	</g>
	<g>
		<g>
			<path fill="#5E5E5E" d="M271.6,364.7h-21.4c-0.7,0-1.4-0.6-1.4-1.4v-45.9c0-0.7,0.6-1.4,1.4-1.4h21.4c0.7,0,1.4,0.6,1.4,1.4v45.9
				C273,364.1,272.4,364.7,271.6,364.7z"/>
		</g>
	</g>
	<g>
		<g>
			<rect x="245.6" y="359.1" width="30.6" height="8"/>
		</g>
	</g>
	<g>
		<g>
			<circle cx="267.8" cy="341.1" r="2.4"/>
		</g>
	</g>
	<g>
		<g>
			<g>
				<rect x="283.6" y="307.5" fill="#5E5E5E" width="30.5" height="21.8"/>
			</g>
		</g>
		<g>
			<g>
				<path fill="#FFFFFF" d="M314.7,330.8H283c-0.5,0-0.8-0.4-0.8-0.8v-23.1c0-0.5,0.4-0.8,0.8-0.8h31.7c0.5,0,0.8,0.4,0.8,0.8V330
					C315.6,330.4,315.2,330.8,314.7,330.8z M285.1,327.8h27.5v-18.9h-27.5V327.8z"/>
			</g>
		</g>
	</g>
	<g>
		<g>
			<g>
				<rect x="283.6" y="317.3" fill="#FFFFFF" width="30.5" height="2.2"/>
			</g>
		</g>
	</g>
	<g>
		<g>
			<g>
				<rect x="297.9" y="306.7" fill="#FFFFFF" width="2" height="23.4"/>
			</g>
		</g>
	</g>
	<g>
		<g>
			<g>
				<rect x="283.6" y="267.1" fill="#5E5E5E" width="30.5" height="21.8"/>
			</g>
		</g>
		<g>
			<g>
				<path fill="#FFFFFF" d="M314.7,290.4H283c-0.5,0-0.8-0.4-0.8-0.8v-23.1c0-0.5,0.4-0.8,0.8-0.8h31.7c0.5,0,0.8,0.4,0.8,0.8v23.1
					C315.6,290,315.2,290.4,314.7,290.4z M285.1,287.4h27.5v-18.9h-27.5V287.4z"/>
			</g>
		</g>
	</g>
	<g>
		<g>
			<g>
				<rect x="283.6" y="276.9" fill="#FFFFFF" width="30.5" height="2.2"/>
			</g>
		</g>
	</g>
	<g>
		<g>
			<g>
				<rect x="297.9" y="266.3" fill="#FFFFFF" width="2" height="23.4"/>
			</g>
		</g>
	</g>
	<g>
		<g>
			<g>
				<polygon fill="#878787" points="230.8,269.6 224.2,263.5 279.9,204.2 332.2,260.3 325.6,266.5 279.9,217.4 				"/>
			</g>
		</g>
	</g>
</g>
<g>
	<g>
		<path d="M300.2,211.9h15.7c0.2,0,0.4-0.2,0.4-0.4v-5.6c0-0.2-0.2-0.4-0.4-0.4h-15.7c-0.2,0-0.4,0.2-0.4,0.4v5.6
			C299.8,211.7,300,211.9,300.2,211.9z"/>
	</g>
</g>
</svg>
