<?xml version="1.0" encoding="utf-8"?>
<!-- Generator: Adobe Illustrator 18.1.1, SVG Export Plug-In . SVG Version: 6.00 Build 0)  -->
<!DOCTYPE svg PUBLIC "-//W3C//DTD SVG 1.1//EN" "http://www.w3.org/Graphics/SVG/1.1/DTD/svg11.dtd">
<svg version="1.1" id="Layer_1" xmlns="http://www.w3.org/2000/svg" xmlns:xlink="http://www.w3.org/1999/xlink" x="0px" y="0px"
	 width="800px" height="530px" viewBox="0 0 800 530" enable-background="new 0 0 800 530" xml:space="preserve">
<g>
	<rect fill-rule="evenodd" clip-rule="evenodd" fill="#FF9E99" width="800" height="530"/>
</g>
<g>
	<g>
		<g>
			
				<rect x="353" y="192.1" transform="matrix(0.3175 0.9483 -0.9483 0.3175 434.5424 -210.9948)" fill="#FFFFFF" width="21.8" height="8.6"/>
		</g>
		<g>
			<path fill="#FFFFFF" d="M319.2,374.7c-37.2,0-67.5-30.3-67.5-67.5s30.3-67.5,67.5-67.5c37.2,0,67.5,30.3,67.5,67.5
				S356.4,374.7,319.2,374.7z M319.2,248.3c-32.5,0-58.9,26.4-58.9,58.9s26.4,58.9,58.9,58.9c32.5,0,58.9-26.4,58.9-58.9
				S351.7,248.3,319.2,248.3z"/>
		</g>
		<g>
			<path d="M319.2,366.3c-32.6,0-59.1-26.5-59.1-59.1s26.5-59.1,59.1-59.1c32.6,0,59.1,26.5,59.1,59.1S351.8,366.3,319.2,366.3z
				 M319.2,253.5c-29.6,0-53.7,24.1-53.7,53.7c0,29.6,24.1,53.7,53.7,53.7c29.6,0,53.7-24.1,53.7-53.7
				C372.9,277.6,348.8,253.5,319.2,253.5z"/>
		</g>
		<g>
			<path fill="#FFFFFF" d="M524.4,374.7c-37.2,0-67.5-30.3-67.5-67.5s30.3-67.5,67.5-67.5c37.2,0,67.5,30.3,67.5,67.5
				S561.6,374.7,524.4,374.7z M524.4,248.3c-32.5,0-58.9,26.4-58.9,58.9s26.4,58.9,58.9,58.9c32.5,0,58.9-26.4,58.9-58.9
				S556.9,248.3,524.4,248.3z"/>
		</g>
		<g>
			<path d="M524.4,366.3c-32.6,0-59.1-26.5-59.1-59.1s26.5-59.1,59.1-59.1c32.6,0,59.1,26.5,59.1,59.1S557,366.3,524.4,366.3z
				 M524.4,253.5c-29.6,0-53.7,24.1-53.7,53.7c0,29.6,24.1,53.7,53.7,53.7c29.6,0,53.7-24.1,53.7-53.7
				C578.1,277.6,554,253.5,524.4,253.5z"/>
		</g>
		<g>
			
				<rect x="324.6" y="309" transform="matrix(0.9943 0.1064 -0.1064 0.9943 35.4477 -36.8763)" fill="#878787" width="77.7" height="9.7"/>
		</g>
		<g>
			<path fill="#878787" d="M523.8,298l-24.6-53.7l-4.5-11.6l0,0l0,0l-4.9-12.7l-8.3-23.2l-9.1,3.2l2.8,8H372.8l-2.8-8.9l-9.3,2.9
				l3.2,10.3L319,297c-1.3,2.4-0.4,5.3,2,6.6c2.4,1.3,5.3,0.4,6.6-2l40.4-76.3l27.2,87.2c-1.2,1.5-2,3.5-2,5.6
				c0,4.9,3.9,8.8,8.8,8.8s8.8-3.9,8.8-8.8c0-0.6-0.1-1.2-0.2-1.7l76.5-76.1l3,7.7c0,0.1,0.1,0.2,0.1,0.3L515,302
				c0.8,1.8,2.6,2.8,4.4,2.8c0.7,0,1.4-0.1,2-0.4C523.9,303.3,524.9,300.4,523.8,298z M404.3,308.9l-28.5-91.3h102.6l2.2,5.7
				l1.6,4.5l0.1,0l1,2.5L404.3,308.9z"/>
		</g>
		<g>
			<path fill="#FB3449" d="M512.4,219.8c-1.5,0-2.9-0.9-3.5-2.3c-0.8-1.9,0.1-4.1,2-4.9c0.4-0.2,10.2-4.5,10.2-15.1
				c0-2-0.3-4.8-1.9-6.3c-1.5-1.4-3.6-1.3-3.7-1.3c-0.1,0-0.2,0-0.3,0h-25.9c-2.1,0-3.8-1.7-3.8-3.8s1.7-3.8,3.8-3.8H515
				c1.2-0.1,5.5-0.1,9.1,3.2c3,2.7,4.5,6.7,4.5,11.9c0,15.6-14.2,21.8-14.8,22C513.4,219.7,512.9,219.8,512.4,219.8z"/>
		</g>
		<g>
			<path fill="#FFFFFF" d="M466.7,182.4l6.6,17.1c1.7-1.6,4-2.6,6.9-2.6c0.1,0,0.1,0,0.2,0l-2.7-7h13.7v-7.5H466.7z"/>
		</g>
		<g>
			<path fill="#FB3449" d="M385.4,186.9c0,0,2.4-6.9-13.1-7c-10.9-0.1-24.8-4.1-29.4-5.7c-3.6-1.3-11.7,2-4.9,10
				c6.9,8,12.9,8.3,20.3,7.7C365.7,191.3,385.5,189.1,385.4,186.9z"/>
		</g>
		<g>
			<path fill="#FB3449" d="M354.1,192.6L354.1,192.6c-5,0-10.5-1-16.6-8.1c-3.2-3.8-3.1-6.4-2.4-7.9c1.4-3,5.5-3.8,7.8-3
				c5.6,1.9,19,5.6,29.3,5.7c6.8,0,11.1,1.3,12.9,3.9c1.2,1.7,0.8,3.4,0.7,3.7c-0.5,3.3-27.4,5.4-27.6,5.4
				C356.6,192.6,355.3,192.6,354.1,192.6z M341.1,174.5c-1.8,0-4.1,0.8-5,2.6c-0.8,1.8,0,4.1,2.2,6.7c5.5,6.4,10.3,7.7,15.8,7.7h0
				c1.1,0,2.4-0.1,4-0.2c10.1-0.8,25.9-3,26.7-4.5c0-0.1,0-0.1,0-0.1c0-0.1,0.4-1.4-0.6-2.8c-1.1-1.5-4.1-3.4-12-3.4
				c-10.4,0-23.9-3.8-29.6-5.7C342.2,174.6,341.6,174.5,341.1,174.5z"/>
		</g>
		<g>
			<path fill="#FB3449" d="M402,298.7c-2.2,0-4.3,0.4-6.3,1.1l-70.1,0.2c-1.8-1.3-4-2.1-6.4-2.1c-5.9,0-10.8,4.8-10.8,10.8
				c0,5.9,4.8,10.8,10.8,10.8c1.4,0,2.6-0.3,3.8-0.7l69.7,16.2c2.7,1.5,5.9,2.4,9.2,2.4c10.6,0,19.3-8.7,19.3-19.3
				C421.3,307.3,412.7,298.7,402,298.7z M314.9,308.6c0-2.4,1.9-4.3,4.3-4.3c2.4,0,4.3,1.9,4.3,4.3c0,2.4-1.9,4.3-4.3,4.3
				C316.8,313,314.9,311,314.9,308.6z M325.8,317.1c2.5-2,4.2-5,4.2-8.5c0-2.4-0.8-4.7-2.2-6.5l63.5-0.2c-5.2,3.5-8.6,9.4-8.6,16.1
				c0,5.4,2.2,10.2,5.8,13.7L325.8,317.1z M402,333c-8.3,0-15-6.7-15-15c0-8.3,6.7-15,15-15c8.3,0,15,6.7,15,15
				C417,326.3,410.3,333,402,333z"/>
		</g>
		<g>
			<path d="M372.1,202.8l-11.1,3.6c-0.9,0.3-1.8-0.2-2.1-1l-0.8-2.3c-0.3-0.9,0.2-1.8,1-2.1l11.1-3.6c0.9-0.3,1.8,0.2,2.1,1l0.8,2.3
				C373.5,201.6,373,202.5,372.1,202.8z"/>
		</g>
		<g>
			<path d="M483.4,200.7l-10.5,2c-0.8,0.2-1.6-0.4-1.7-1.2l-0.4-2.2c-0.2-0.8,0.4-1.6,1.2-1.7l10.5-2c0.8-0.2,1.6,0.4,1.7,1.2
				l0.4,2.2C484.8,199.8,484.2,200.6,483.4,200.7z"/>
		</g>
		<g>
			<path fill="#FB3449" d="M524.4,319.4c-5.9,0-10.8-4.8-10.8-10.8c0-5.9,4.8-10.8,10.8-10.8s10.8,4.8,10.8,10.8
				C535.2,314.6,530.4,319.4,524.4,319.4z M524.4,304.3c-2.4,0-4.3,1.9-4.3,4.3c0,2.4,1.9,4.3,4.3,4.3c2.4,0,4.3-1.9,4.3-4.3
				C528.7,306.3,526.8,304.3,524.4,304.3z"/>
		</g>
		<g>
			<g>
				<path fill="#5E5E5E" d="M265.7,253.7c0.7-0.7,1.4-1.4,2.2-2h-86.9c-1.9,0-3.5,1.6-3.5,3.5c0,1.9,1.6,3.5,3.5,3.5h80.3
					C262.6,256.9,264.1,255.2,265.7,253.7z"/>
			</g>
		</g>
		<g>
			<g>
				<path fill="#5E5E5E" d="M246.3,286.5h-72c-1.9,0-3.5,1.6-3.5,3.5c0,1.9,1.6,3.5,3.5,3.5h70.2
					C244.9,291.2,245.5,288.8,246.3,286.5z"/>
			</g>
		</g>
		<g>
			<g>
				<path fill="#5E5E5E" d="M254,269.1H122.2c-1.9,0-3.5,1.6-3.5,3.5c0,1.9,1.6,3.5,3.5,3.5h128.1
					C251.4,273.7,252.6,271.3,254,269.1z"/>
			</g>
		</g>
	</g>
</g>
</svg>
