<?xml version="1.0" encoding="utf-8"?>
<!-- Generator: Adobe Illustrator 18.1.1, SVG Export Plug-In . SVG Version: 6.00 Build 0)  -->
<!DOCTYPE svg PUBLIC "-//W3C//DTD SVG 1.1//EN" "http://www.w3.org/Graphics/SVG/1.1/DTD/svg11.dtd">
<svg version="1.1" id="Layer_1" xmlns="http://www.w3.org/2000/svg" xmlns:xlink="http://www.w3.org/1999/xlink" x="0px" y="0px"
	 width="800px" height="530px" viewBox="0 0 800 530" enable-background="new 0 0 800 530" xml:space="preserve">
<g>
	<rect fill-rule="evenodd" clip-rule="evenodd" fill="#FF5A52" width="800" height="530"/>
</g>
<g>
	<g>
		<g>
			<g>
				<g>
					<path fill="#FFFFFF" d="M263.4,249.2l-37.4,9l1.8,3l34.1-8C261.9,252.1,263.3,250.2,263.4,249.2z"/>
				</g>
			</g>
		</g>
		<g>
			<g>
				<g>
					<path fill="#FFFFFF" d="M431.3,214.3l44.2-10.4c-0.3-1.1,0.3-2.1,0-3l-47,10.8C429.1,212.6,430.8,213.4,431.3,214.3z"/>
				</g>
			</g>
		</g>
		<g>
			<g>
				<path d="M551.1,209c-36.3-36.3-73.8-56.4-87-43.2c0,0-4.5,2.2,3,21.6c4.9,12.6,9.2,25.9,8.5,39.5c-0.5,8.7-2.9,17-6.4,25.1
					c-0.5-0.1-1,0-1.2,0.4c-0.9,1.3-1.9,2.6-2.8,3.9c-0.4,0.5-0.3,1.2,0.3,1.6c0.3,0.2,0.5,0.4,0.8,0.6c-3.7,7.4-8.1,14.5-12.5,21.4
					c-2.9,4.6-5.8,9.2-9,13.6l-0.1,0.2c-2.2,3.9-53.7,75.4-94.5,61.4c0,0-11,0.5-27.9-8.4c-1.3,2.1-2.6,4.2-3.9,6.3
					c5.3,4.6,9,7.7,10.3,8.5c6.7,4.3,14.2,7.4,22,9.2c16.1,3.6,33.1,1.3,48.5-4.7c15.4-6,29.2-15.4,41.7-26.1
					c5.7-4.8,11.2-9.8,16.7-14.9c16.5-15.2,31.6-24.6,44.8-30.4c0.4,0.5,0.8,1.1,1.2,1.6c0.4,0.5,1.1,0.6,1.6,0.3
					c1.3-0.9,2.6-1.9,3.9-2.8c0.5-0.4,0.6-1.1,0.2-1.6c0,0-0.1-0.1-0.1-0.1c10.7-3.9,19.8-5.5,27.1-6c17.2-1.4,36.3,7.3,45.6,11
					c3.7,2.1,5.9-1,5.9-1c0.6-0.6,1.2-1.4,1.6-2.2c0.1,0.3,0.1,0.6,0.1,0.7c0.9,1.8-4.2,4,0.5,5.5c3.1-0.1,4.7-2.3,4.7-2.3
					C608,284.2,587.4,245.2,551.1,209z"/>
			</g>
		</g>
		<g>
			<g>
				<g>
					<path d="M267,297.2c-1.6-1.9-3.3-3.9-5-6c0,0-0.1-0.1-0.1-0.1c0,0-40.6-40.6-40.7-40.7l-3.7-7.8l0.9-0.9
						c0.2-0.2,0.3-0.5,0.1-0.8l-1.8-3.8c0-0.7-0.9-1.3-1.9-1.1c-6.8,1.4-12.2,6.8-13.7,13.7c-0.2,1,0.3,1.8,1.1,1.9l4.3,1.5
						c0.2,0.1,0.5,0,0.7-0.2l0.7-0.7l8.5,3l35.1,35.1c3.7,3.6,7.5,7.3,11.3,10.9c0.4,0.4,0.9,0.4,1.2,0.2l3.1-3.1
						C267.4,298.1,267.3,297.6,267,297.2z"/>
				</g>
			</g>
		</g>
		<g>
			<g>
				<g>
					<path fill="#FF5A52" d="M262.6,296.9l-16.2-16.2c-0.1-0.1-0.1-0.2,0-0.3l0.6-0.6c0.1-0.1,0.2-0.1,0.3,0l16.2,16.2
						c0.1,0.1,0.1,0.2,0,0.3l-0.6,0.6C262.8,297,262.7,297,262.6,296.9z"/>
				</g>
			</g>
		</g>
		<g>
			<g>
				<g>
					<path fill="#FF5A52" d="M455.3,277.1c-0.5,0.7-4.9,8.6-10.6,16.4c-5.5,10.7-4.8,11.2-11.1,20.2c-7.4,13-18.8,23.7-32.1,30.6
						c-13.3,10.9-30.2,17.6-47.5,17.6c-9,0-17.5-1.6-25.4-4.5c-2.6-0.6-5.1-1.2-7.6-1.9c-0.1,0-0.4,0-0.8,0.2
						c8.3,7.1,14.7,9.4,15.6,9.9c30.2,1.2,49.3-5.9,67.3-15.7C444.4,324.7,456.2,275.9,455.3,277.1z"/>
				</g>
			</g>
		</g>
		<g>
			<g>
				<g>
					<path fill="#FF5A52" d="M478.3,302.8L478.3,302.8c-0.1-0.3,0-0.8,0.3-1.1c5-4.2,10.6-8.3,16.8-12.3c0.4-0.3,0.9-0.4,1.2-0.2
						l0,0c0.3,0.2,0.1,0.6-0.3,0.9c-6.4,4.1-12.1,8.3-17.2,12.7C478.8,303,478.4,303.1,478.3,302.8z"/>
				</g>
			</g>
		</g>
		<g>
			<g>
				<g>
					<path fill="#FF5A52" d="M472.4,307.5L472.4,307.5c-0.2-0.2-0.1-0.6,0.2-0.9c1-0.9,2.1-1.7,3.1-2.4c0.3-0.2,0.7-0.2,0.8,0.1l0,0
						c0.1,0.3,0,0.6-0.3,0.8c-1,0.7-2,1.5-3,2.3C472.9,307.7,472.5,307.7,472.4,307.5z"/>
				</g>
			</g>
		</g>
		<g>
			<g>
				<g>
					<path d="M420.8,197.4c-37.6-37.6-98.5-37.6-136.1,0s-37.6,98.5,0,136.1c37.6,37.6,98.5,37.6,136.1,0S458.4,235,420.8,197.4z
						 M296.8,321.5c-30.9-30.9-30.9-81,0-112s81-30.9,112,0s30.9,81,0,112S327.7,352.4,296.8,321.5z"/>
				</g>
			</g>
		</g>
		<g>
			<g>
				<g>
					<path fill="#FF5A52" d="M425.7,311.3c0,0-0.9,1.4-2.3,3.8c-0.4,0.6-0.8,1.3-1.3,2c-0.5,0.7-1.1,1.4-1.7,2.2
						c-0.6,0.8-1.2,1.7-1.9,2.6c-0.7,0.9-1.5,1.7-2.3,2.7c-0.4,0.5-0.8,0.9-1.2,1.4c-0.4,0.5-0.8,1-1.3,1.4
						c-0.9,0.9-1.9,1.9-2.9,2.9c-1,1-2.1,1.9-3.2,2.9c-0.6,0.5-1.1,1-1.7,1.4c-0.6,0.5-1.2,1-1.8,1.4c-1.3,0.9-2.5,1.8-3.8,2.7
						c-0.6,0.5-1.3,0.9-2,1.3c-0.7,0.4-1.4,0.8-2.1,1.3c-0.7,0.4-1.4,0.8-2.1,1.3c-0.7,0.4-1.4,0.8-2.2,1.1l-2.2,1.1
						c-0.7,0.4-1.4,0.8-2.2,1.1c-1.5,0.6-3,1.3-4.6,1.9c-0.7,0.3-1.5,0.6-2.3,0.8c-0.8,0.3-1.5,0.5-2.3,0.8
						c-0.8,0.3-1.5,0.5-2.3,0.8c-0.8,0.2-1.6,0.4-2.3,0.6c-1.5,0.4-3.1,0.8-4.6,1.1c-3,0.5-6,1.1-8.8,1.2c-1.4,0.1-2.8,0.3-4.1,0.3
						c-1.3,0-2.6,0-3.8,0c-0.6,0-1.2,0-1.8,0c-0.3,0-0.6,0-0.9,0c-0.3,0-0.6,0-0.8-0.1c-1.1-0.1-2.2-0.2-3.2-0.3
						c-1-0.1-1.9-0.2-2.8-0.2c-0.9-0.1-1.6-0.3-2.3-0.4c-2.8-0.5-4.4-0.8-4.4-0.8s1.6,0.1,4.5,0.3c0.7,0.1,1.5,0.1,2.3,0.2
						c0.9,0,1.8,0,2.8,0c1,0,2,0,3.1,0c0.3,0,0.6,0,0.8,0c0.3,0,0.6,0,0.9-0.1c0.6,0,1.2-0.1,1.8-0.1c1.2-0.1,2.5-0.1,3.8-0.2
						c1.3-0.2,2.6-0.3,4-0.5c2.8-0.3,5.6-1,8.6-1.5c1.5-0.3,2.9-0.8,4.4-1.2c0.7-0.2,1.5-0.4,2.3-0.6c0.7-0.3,1.5-0.5,2.2-0.8
						c0.7-0.3,1.5-0.5,2.3-0.8c0.8-0.3,1.5-0.5,2.2-0.8c1.5-0.6,2.9-1.3,4.4-1.9c0.8-0.3,1.4-0.7,2.2-1l2.1-1.1
						c0.7-0.4,1.4-0.7,2.1-1.1c0.7-0.4,1.4-0.8,2-1.2c0.7-0.4,1.4-0.8,2-1.2c0.7-0.4,1.4-0.8,2-1.2c1.3-0.9,2.5-1.7,3.8-2.6
						c0.6-0.4,1.2-0.9,1.8-1.4c0.6-0.5,1.2-0.9,1.7-1.4c1.1-0.9,2.3-1.8,3.3-2.7c1-0.9,2-1.8,3-2.7c0.5-0.4,0.9-0.9,1.4-1.3
						c0.4-0.5,0.9-0.9,1.3-1.3c0.8-0.9,1.7-1.7,2.4-2.5c0.7-0.8,1.4-1.6,2-2.4c0.6-0.7,1.2-1.4,1.8-2.1c0.6-0.7,1-1.3,1.4-1.9
						C424.7,312.6,425.7,311.3,425.7,311.3z"/>
				</g>
			</g>
		</g>
		<g>
			<g>
				<g>
					<path fill="#FF5A52" d="M424.4,210.9c0,0,0.2,0.3,0.7,0.8c0.4,0.5,1.1,1.3,1.8,2.4c1.5,2.1,3.6,5.1,5.7,9.1
						c1,2,2.1,4.1,3.1,6.5c1,2.3,2,4.8,2.8,7.5c0.8,2.7,1.6,5.4,2.2,8.3c0.6,2.9,1.1,5.8,1.4,8.8c0.3,3,0.4,5.9,0.4,8.9
						c0,2.9-0.2,5.8-0.5,8.6c-0.3,2.8-0.7,5.4-1.2,7.9c-0.5,2.5-1.1,4.8-1.8,6.9c-1.3,4.3-2.7,7.7-3.8,10c-0.5,1.2-1,2.1-1.3,2.7
						c-0.3,0.6-0.5,0.9-0.5,0.9s0.5-1.4,1.4-3.8c0.8-2.4,1.9-5.9,2.9-10.2c0.5-2.1,0.9-4.4,1.4-6.9c0.4-2.5,0.7-5.1,0.9-7.8
						c0.2-2.7,0.3-5.5,0.3-8.4c0-2.9-0.2-5.8-0.5-8.6c-0.3-2.9-0.7-5.8-1.3-8.6c-0.6-2.8-1.2-5.5-2-8.2c-0.8-2.6-1.6-5.1-2.5-7.5
						c-0.9-2.3-1.8-4.5-2.7-6.5c-1.8-4-3.6-7.2-4.9-9.4C425.2,212.1,424.4,210.9,424.4,210.9z"/>
				</g>
			</g>
		</g>
		<g>
			<g>
				<g>
					<path fill="#FF5A52" d="M280.5,315.2c0,0-0.9-1.2-2.3-3.2c-0.4-0.5-0.8-1.1-1.2-1.7c-0.4-0.7-0.8-1.4-1.3-2.1
						c-0.5-0.8-1-1.6-1.5-2.4c-0.5-0.9-0.9-1.8-1.5-2.8c-0.5-1-1-2-1.5-3c-0.5-1.1-0.9-2.2-1.4-3.4c-0.2-0.6-0.5-1.2-0.7-1.8
						c-0.2-0.6-0.4-1.2-0.6-1.8c-0.4-1.3-0.8-2.5-1.3-3.8c-0.3-1.3-0.7-2.7-1.1-4c-0.2-0.7-0.4-1.4-0.5-2.1
						c-0.1-0.7-0.3-1.4-0.4-2.1c-0.1-0.7-0.3-1.4-0.4-2.1c-0.1-0.4-0.1-0.7-0.2-1.1l-0.1-1.1c-0.2-1.4-0.3-2.9-0.5-4.4
						c-0.1-1.5-0.1-2.9-0.2-4.4c-0.1-1.5,0-2.9,0-4.3c0-2.9,0.3-5.7,0.6-8.4c0.2-1.4,0.4-2.7,0.6-4c0.1-0.6,0.2-1.3,0.3-1.9
						c0.1-0.6,0.3-1.2,0.4-1.9c0.3-1.2,0.6-2.4,0.9-3.6c0.3-1.1,0.7-2.2,1-3.3c0.3-1,0.6-2,1-3c0.4-0.9,0.7-1.8,1.1-2.6
						c0.3-0.8,0.6-1.6,0.9-2.3c0.3-0.7,0.6-1.3,0.9-1.9c1.1-2.3,1.8-3.6,1.8-3.6s-0.5,1.4-1.4,3.7c-0.2,0.6-0.5,1.2-0.7,2
						c-0.2,0.7-0.5,1.5-0.7,2.4c-0.3,0.8-0.5,1.7-0.8,2.7c-0.3,0.9-0.5,2-0.8,3c-0.2,1-0.6,2.1-0.8,3.3c-0.2,1.1-0.4,2.3-0.7,3.5
						c-0.1,0.6-0.2,1.2-0.3,1.8c-0.1,0.6-0.2,1.3-0.2,1.9c-0.1,1.3-0.4,2.6-0.5,3.9c-0.1,1.3-0.2,2.7-0.3,4.1
						c-0.1,0.7-0.1,1.4-0.1,2.1c0,0.7,0,1.4,0,2.1c-0.1,2.8,0.1,5.7,0.3,8.5c0.2,1.4,0.3,2.8,0.5,4.3l0.1,1.1c0,0.4,0.1,0.7,0.2,1
						c0.1,0.7,0.2,1.4,0.4,2.1c0.4,2.8,1.1,5.5,1.7,8.1c0.4,1.3,0.8,2.5,1.1,3.8c0.2,0.6,0.4,1.2,0.5,1.8c0.2,0.6,0.4,1.2,0.6,1.8
						c0.4,1.2,0.8,2.3,1.2,3.4c0.4,1.1,0.9,2.1,1.3,3.1c0.4,1,0.8,2,1.2,2.8c0.4,0.9,0.9,1.7,1.3,2.5c0.4,0.8,0.8,1.5,1.1,2.2
						c0.4,0.7,0.7,1.3,1,1.8C279.7,314,280.5,315.2,280.5,315.2z"/>
				</g>
			</g>
		</g>
		<g>
			<g>
				<g>
					<path fill="#FF5A52" d="M300.8,193.9c0,0,0.3-0.2,0.8-0.7c0.5-0.4,1.3-1.1,2.3-1.8c1-0.8,2.2-1.7,3.7-2.6
						c0.7-0.5,1.5-1,2.4-1.5c0.8-0.5,1.7-1,2.6-1.6c0.9-0.6,1.9-1.1,3-1.6c0.5-0.3,1.1-0.5,1.6-0.8c0.5-0.3,1.1-0.6,1.7-0.8
						c1.1-0.5,2.3-1,3.5-1.5c1.2-0.5,2.5-0.9,3.8-1.4c0.6-0.2,1.3-0.5,1.9-0.7c0.7-0.2,1.3-0.4,2-0.6c1.3-0.4,2.7-0.8,4.1-1.1
						c1.4-0.3,2.8-0.7,4.2-0.9c1.4-0.2,2.9-0.5,4.3-0.7c1.4-0.1,2.9-0.3,4.3-0.4c0.7-0.1,1.4-0.1,2.2-0.1c0.7,0,1.4-0.1,2.1-0.1
						c0.7,0,1.4-0.1,2.1-0.1c0.7,0,1.4,0,2.1,0.1c1.4,0,2.8,0.1,4.1,0.2c1.4,0.1,2.7,0.2,4,0.4c1.3,0.2,2.6,0.4,3.8,0.6
						c0.6,0.1,1.2,0.2,1.8,0.3c0.6,0.1,1.2,0.3,1.7,0.4c1.1,0.3,2.2,0.5,3.3,0.8c2.1,0.6,4,1.1,5.6,1.7c1.6,0.6,3.1,1.1,4.2,1.6
						c2.3,1,3.6,1.6,3.6,1.6s-1.4-0.4-3.8-1.2c-1.2-0.4-2.7-0.7-4.3-1.2c-1.7-0.5-3.6-0.8-5.7-1.3c-1-0.3-2.1-0.4-3.3-0.6
						c-1.1-0.2-2.3-0.4-3.5-0.5c-1.2-0.1-2.5-0.3-3.7-0.4c-1.3-0.1-2.6-0.2-3.9-0.2c-1.3-0.1-2.7-0.1-4-0.1c-1.4,0-2.7,0-4.1,0.1
						c-0.7,0-1.4,0.1-2.1,0.1c-0.7,0-1.4,0.1-2.1,0.1c-1.4,0.1-2.8,0.3-4.2,0.4c-1.4,0.2-2.8,0.4-4.2,0.6c-1.4,0.2-2.8,0.6-4.1,0.8
						c-1.4,0.3-2.7,0.6-4,1c-0.7,0.2-1.3,0.3-2,0.5c-0.7,0.2-1.3,0.4-1.9,0.6c-1.3,0.4-2.5,0.8-3.7,1.2c-1.2,0.5-2.4,0.9-3.5,1.3
						c-1.2,0.4-2.2,1-3.3,1.4c-1,0.5-2.1,0.9-3,1.4c-1,0.5-1.9,1-2.7,1.4c-0.9,0.4-1.7,0.9-2.4,1.3c-1.5,0.9-2.8,1.6-3.9,2.3
						C302,193.1,300.8,193.9,300.8,193.9z"/>
				</g>
			</g>
		</g>
		<g>
			<g>
				<g>
					<path fill="#FF5A52" d="M218.3,244.1c0.2-0.1-0.5-1.5-0.7-1.4c-0.1,0.1-5.4,0.5-8.7,7.7c-0.2,0.4,0.5,0.6,0.7,0.2
						C213,245.3,216.9,244.4,218.3,244.1z"/>
				</g>
			</g>
		</g>
		<g>
			<g>
				<g>
					<path d="M300.4,206.3c-4.6-3.8-8.8-8-12.5-12.5c-0.4-0.5-1.1-0.6-1.6-0.2c-2.1,1.7-4.3,3.4-6.4,5.1c-0.5,0.4-0.5,1.2-0.1,1.7
						c4.2,5.1,8.9,9.8,14,14c0.5,0.4,1.3,0.4,1.7-0.1c1.7-2.1,3.4-4.3,5.1-6.4C301,207.4,300.9,206.7,300.4,206.3z"/>
				</g>
			</g>
		</g>
		<g>
			<g>
				<g>
					<path fill="#FF5A52" d="M300.3,206.2c-5-4.1-8.1-7.2-12.2-12.1l1-0.8c4,4.9,7.2,8.1,12.1,12.1L300.3,206.2z"/>
				</g>
			</g>
		</g>
		<g>
			<g>
				<g>
					<path fill="#FF5A52" d="M290.6,216.5c-5.6-4.6-7.6-6.5-12.2-12.1l2.3-2.9c4.4,5.4,6.9,7.6,12.3,12.1L290.6,216.5z"/>
				</g>
			</g>
		</g>
		<g>
			<g>
				<g>
					<path d="M424.1,330c-4.6-3.8-8.8-8-12.5-12.5c-0.4-0.5-1.1-0.6-1.6-0.2c-2.1,1.7-4.3,3.4-6.4,5.1c-0.5,0.4-0.5,1.2-0.1,1.7
						c4.2,5.1,8.9,9.8,14,14c0.5,0.4,1.3,0.4,1.7-0.1c1.7-2.1,3.4-4.3,5.1-6.4C424.7,331.1,424.6,330.4,424.1,330z"/>
				</g>
			</g>
		</g>
		<g>
			<g>
				<g>
					<path fill="#FF5A52" d="M424.8,331c-5-4.1-8.8-8.1-12.9-13.1l0.8-0.8c4,4.9,7.8,8.5,12.7,12.5L424.8,331z"/>
				</g>
			</g>
		</g>
		<g>
			<g>
				<g>
					<path fill="#FF5A52" d="M420.1,339c1.5-1.5,5.5-7.1,5.9-7.6c0.1-0.1,0.3-0.4,0.3-0.7c0-0.5-0.2-1-0.7-1.5l-1.1,1
						c0.2,0.2,0.3,0.3,0.3,0.4c-0.5,0.7-4.2,6.1-5.6,7.5c-0.3,0.3-1,0.5-1.6,0.2c-5.5-4.6-8.5-7.8-13.2-12.9l-2.6,2.4
						c2.4,2.9,3.2,3.6,5.9,6.3C416.9,343.5,417.5,341.7,420.1,339z"/>
				</g>
			</g>
		</g>
		<g>
			<g>
				<path fill="#FF5A52" d="M590.7,284.6c-1.2-7.9-4.4-15.5-8.1-22.6c-7.6-14.2-18-27-28.9-38.8c-14.8-16.1-31.3-31-49.8-42.6
					c-9.6-6-20.5-11.4-32-11.7c-3-0.1-6,0.4-8.9,1.2v3.9c3.9-1.3,8.2-1.6,12.2-1.1c0.5,0.1,1,0.2,1.4,0.2
					c17.2,7.6,16.6,17.8,16.2,24.4c-0.5,8.8-2.9,17.2-5.2,24.5c-2.2,6.9-4.6,13.9-6.9,20.7l-1,3c-0.8,2.3-1.6,4.6-2.4,7
					c-0.1,0.2-1,2.5-0.2,2.7c0.9,0.3,1.6-2.2,1.8-2.7c1.2-3.4,8.3-21.9,10.6-27.7c0.7-1.7,1.4-3.5,2.1-5.2c1.9-4.7,3.9-9.6,6-14.4
					c1.1-2.5,2.8-5.6,5.4-8.4c5.1-5.4,11.4-3.6,15.5-1.4c8.2,6.4,15.9,13.4,23.3,20.7c7.4,10.2,7.3,14.6,6.1,20.2
					c-2,9.6-9.8,14.7-17.6,19.1c0,0-12.3,6.9-17.1,9.4c-24.4,12.7-54.1,41-63.1,49.8c-1,1-2,2-2.4,2.4c-0.3,0.3-0.4,0.6-0.3,0.7
					c0.7,0.7,11.5-8.3,19.1-14.5c8.6-7.1,17.5-14.4,23-18c18.7-12.4,35.5-19.5,53-22.4c8.7-1.5,20.8-2.8,29.5,0.3
					c3.3,1.2,5.7,2.6,7.3,4.2c5.3,5.3,2.3,8.7-4.1,7.8c-0.2,0-32.6-5.8-66.2,7.5c-0.4,0.2-0.1,0.8,0.4,0.7c28.9-6.3,65.2-9.3,78,8.6
					c0,0.1,0,0.1,0,0.2c-0.2,2-1.5,3.7-3,5.3c0.8,0.3,3.2,1.2,3.6,1.2c1.9-2.2,3.2-4.8,3.1-8.2C591.2,288.5,591,286.5,590.7,284.6z"
					/>
			</g>
		</g>
		<g>
			<g>
				<g>
					<path fill="#FFFFFF" d="M291.7,202.5c0,0,0.1,0.1,0.3,0.4c0.2,0.3,0.4,0.8,0.4,1.4c0,0.3-0.1,0.7-0.3,1
						c-0.1,0.1-0.1,0.2-0.2,0.3c-0.1,0.1-0.1,0.1-0.2,0.2c-0.2,0.2-0.3,0.3-0.5,0.4c-0.4,0.2-0.9,0.3-1.4,0.3
						c-0.5-0.1-1-0.3-1.4-0.7c-0.1-0.1-0.3-0.4-0.4-0.6c-0.1-0.2-0.2-0.5-0.2-0.7c-0.1-0.5,0.1-1,0.3-1.4c0.2-0.4,0.6-0.7,0.9-0.9
						c0.4-0.2,0.7-0.3,1-0.3c0.6,0,1.1,0.2,1.4,0.4C291.5,202.3,291.7,202.5,291.7,202.5z"/>
				</g>
			</g>
		</g>
		<g>
			<g>
				<g>
					<path fill="#FFFFFF" d="M415.4,326.2c0,0,0.1,0.1,0.3,0.4c0.2,0.3,0.4,0.8,0.4,1.4c0,0.3-0.1,0.7-0.3,1
						c-0.1,0.1-0.1,0.2-0.2,0.3c-0.1,0.1-0.1,0.1-0.2,0.2c-0.2,0.2-0.3,0.3-0.5,0.4c-0.4,0.2-0.9,0.3-1.4,0.3
						c-0.5-0.1-1-0.3-1.4-0.7c-0.1-0.1-0.1-0.1-0.2-0.3c-0.1-0.1-0.2-0.2-0.2-0.4c-0.1-0.2-0.2-0.5-0.2-0.7c-0.1-0.5,0.1-1,0.3-1.4
						c0.2-0.4,0.6-0.7,0.9-0.9c0.4-0.2,0.7-0.3,1-0.3c0.6,0,1.1,0.2,1.4,0.4C415.3,326.1,415.4,326.2,415.4,326.2z"/>
				</g>
			</g>
		</g>
		<g>
			<g>
				<g>
					<path fill="#FF5A52" d="M465.8,258.1c0.3,0.2-1.2,3.5-1.2,3.5c13.5,10.1,24.4,21.1,34.6,34.5l3.3-1.5
						C491.4,279.4,480.9,269.2,465.8,258.1z"/>
				</g>
			</g>
		</g>
	</g>
</g>
</svg>
