<?xml version="1.0" encoding="utf-8"?>
<!-- Generator: Adobe Illustrator 18.1.1, SVG Export Plug-In . SVG Version: 6.00 Build 0)  -->
<!DOCTYPE svg PUBLIC "-//W3C//DTD SVG 1.1//EN" "http://www.w3.org/Graphics/SVG/1.1/DTD/svg11.dtd">
<svg version="1.1" id="Layer_1" xmlns="http://www.w3.org/2000/svg" xmlns:xlink="http://www.w3.org/1999/xlink" x="0px" y="0px"
	 width="800px" height="530px" viewBox="0 0 800 530" enable-background="new 0 0 800 530" xml:space="preserve">
<g opacity="0.31">
	<rect fill="#BCD4DE" width="800" height="530"/>
</g>
<g>
	<g>
		<g>
			<circle fill="#BCD4DE" cx="556.5" cy="186.2" r="25"/>
		</g>
		<g>
			<path fill="#020202" d="M556.5,212.7c-4.8,0-9.6-1.3-13.7-3.8c-12.5-7.6-16.5-23.9-9-36.5c4.9-8,13.4-12.8,22.7-12.8
				c4.8,0,9.6,1.3,13.7,3.8c6.1,3.7,10.3,9.5,12,16.4s0.6,14-3.1,20.1C574.3,207.9,565.8,212.7,556.5,212.7z M556.5,162.6
				c-8.3,0-15.9,4.2-20.2,11.4c-6.7,11.1-3.2,25.6,7.9,32.3c3.7,2.2,7.9,3.4,12.2,3.4c8.3,0,15.9-4.2,20.2-11.4
				c3.3-5.4,4.2-11.7,2.7-17.8s-5.3-11.3-10.7-14.5C565,163.8,560.8,162.6,556.5,162.6z"/>
		</g>
	</g>
	<g>
		<g>
			<path fill="#020202" d="M572.8,168.6c-0.3,0-0.5-0.1-0.8-0.2c-0.7-0.4-0.9-1.4-0.5-2.1l6.7-10.9c0.4-0.7,1.4-0.9,2.1-0.5
				c0.7,0.4,0.9,1.4,0.5,2.1l-6.7,10.9C573.8,168.4,573.4,168.6,572.8,168.6z"/>
		</g>
	</g>
	<g>
		<g>
			<path fill="#020202" d="M543.4,218.7c-0.3,0-0.5-0.1-0.7-0.2c-0.7-0.4-1-1.3-0.5-2l4-6.9c0.4-0.7,1.3-1,2-0.5
				c0.7,0.4,1,1.3,0.5,2l-4,6.9C544.4,218.5,543.9,218.7,543.4,218.7z"/>
		</g>
	</g>
	<g>
		<g>
			<path fill="#FCB61E" d="M545.2,163.8l1.1,3.3l0,4.1l10-3.7l5.5-0.8l2.5,3.3l-0.8,2.5l-5.4,4.5l-1.9,5.4l2.1,4.8l-4.9-0.4l0.6,4
				l0.9,3.7l-7.4-0.5l-6-1l-1-5.8l-8.6-1.6C531.7,185.5,530.4,172.1,545.2,163.8"/>
		</g>
		<g>
			<path fill="#020202" d="M554.6,195.9c0,0-0.1,0-0.1,0l-7.4-0.5c0,0-0.1,0-0.1,0l-6-1c-0.6-0.1-1.1-0.6-1.2-1.2l-0.8-4.8l-7.5-1.4
				c-0.7-0.1-1.2-0.7-1.2-1.3c-0.1-0.6-1.1-14.4,14.3-23.1c0.4-0.2,0.9-0.3,1.3-0.1c0.4,0.2,0.7,0.5,0.9,0.9l1.1,3.3
				c0,0.1,0.1,0.3,0.1,0.5l0,1.9l7.9-3c0.1,0,0.2-0.1,0.3-0.1l5.5-0.8c0.5-0.1,1.1,0.1,1.4,0.6l2.5,3.3c0.3,0.4,0.4,0.9,0.2,1.4
				l-0.8,2.5c-0.1,0.3-0.3,0.5-0.5,0.7l-5.1,4.2l-1.6,4.4l1.8,4.3c0.2,0.5,0.1,1-0.2,1.5c-0.3,0.4-0.8,0.7-1.3,0.6l-3-0.3l0.3,2
				l0.8,3.4c0.1,0.2,0.1,0.4,0.1,0.6C556.1,195.2,555.5,195.9,554.6,195.9C554.6,195.9,554.6,195.9,554.6,195.9z M547.4,192.4
				l5.3,0.4l-0.4-1.7c0,0,0-0.1,0-0.1l-0.6-4c-0.1-0.5,0.1-0.9,0.4-1.3s0.8-0.5,1.2-0.5l2.4,0.2l-1.1-2.5c-0.1-0.3-0.2-0.7,0-1.1
				l1.9-5.4c0.1-0.3,0.2-0.5,0.5-0.7l5.1-4.2l0.4-1.3l-1.5-2l-4.4,0.6l-9.8,3.7c-0.5,0.2-1,0.1-1.4-0.2c-0.4-0.3-0.6-0.7-0.6-1.2
				l0-3.8l-0.4-1.3c-9.9,6.3-11.1,15.1-11.2,18.2l7.4,1.3c0.6,0.1,1.1,0.6,1.2,1.2l0.8,4.8L547.4,192.4z"/>
		</g>
	</g>
	<g>
		<g>
			<polygon fill="#FCB61E" points="554.9,195.7 558.3,203.2 564.5,202.7 568.7,208 571.7,195.4 571,190.1 565.4,188.2 563.7,192.2 
				558,192.6 555.1,193.5 			"/>
		</g>
		<g>
			<path fill="#020202" d="M568.7,209.5c-0.5,0-0.9-0.2-1.2-0.6l-3.7-4.7l-5.4,0.5c-0.6,0-1.2-0.3-1.5-0.9l-3.4-7.5
				c-0.1-0.2-0.1-0.5-0.1-0.7l0.2-2.2c0-0.6,0.4-1.1,1-1.3l2.9-1c0.1,0,0.3-0.1,0.4-0.1l4.8-0.3l1.4-3.1c0.3-0.7,1.1-1.1,1.8-0.8
				l5.7,1.9c0.6,0.2,1,0.7,1,1.2l0.6,5.3c0,0.2,0,0.3,0,0.5l-3,12.6c-0.1,0.6-0.6,1-1.1,1.1C568.9,209.5,568.8,209.5,568.7,209.5z
				 M564.5,201.2c0.5,0,0.9,0.2,1.2,0.6l2.2,2.9l2.2-9.3l-0.5-4.1l-3.5-1.1l-1.2,2.7c-0.2,0.5-0.7,0.9-1.3,0.9l-5.5,0.4l-1.7,0.6
				l-0.1,0.8l2.8,6.2l5.2-0.4C564.5,201.2,564.5,201.2,564.5,201.2z"/>
		</g>
	</g>
	<g>
		<g>
			<path fill="#020202" d="M556.5,227.5c-0.8,0-1.5-0.7-1.5-1.5l0-4.9c0-0.8,0.7-1.5,1.5-1.5c0,0,0,0,0,0c0.8,0,1.5,0.7,1.5,1.5
				l0,4.9C558,226.8,557.3,227.5,556.5,227.5C556.5,227.5,556.5,227.5,556.5,227.5z"/>
		</g>
	</g>
	<g>
		<g>
			<path fill="#BCD4DE" d="M570.4,234.7c-2.5-5.2-7.8-8.8-13.9-8.8s-11.4,3.6-13.9,8.8H570.4z"/>
		</g>
		<g>
			<path fill="#020202" d="M570.4,236.2h-27.9c-0.5,0-1-0.3-1.3-0.7c-0.3-0.4-0.3-1-0.1-1.5c2.9-5.9,8.7-9.6,15.3-9.6
				c6.6,0,12.4,3.7,15.3,9.6c0.2,0.5,0.2,1-0.1,1.5C571.4,236,570.9,236.2,570.4,236.2z M545.2,233.2h22.6
				c-2.6-3.6-6.7-5.8-11.3-5.8S547.8,229.6,545.2,233.2z"/>
		</g>
	</g>
	<g>
		<g>
			<path fill="#020202" d="M556.5,218.1c-3.6,0-7.2-0.6-10.7-1.8c-2.4-0.8-4.7-2-6.8-3.3c-0.7-0.4-0.9-1.4-0.4-2.1
				c0.4-0.7,1.4-0.9,2.1-0.4c1.9,1.2,4,2.2,6.1,3c7.3,2.6,15.2,2.2,22.2-1.2c7-3.3,12.3-9.2,14.8-16.5c4.8-13.5-0.9-28.3-13.5-35.1
				c-0.7-0.4-1-1.3-0.6-2c0.4-0.7,1.3-1,2-0.6c13.9,7.6,20.1,23.9,14.9,38.8c-2.8,8.1-8.7,14.5-16.4,18.2
				C566,217,561.3,218.1,556.5,218.1z"/>
		</g>
	</g>
</g>
<g>
	<g>
		<g>
			<g>
				<circle fill="#FCB61E" cx="399.1" cy="312.1" r="17.1"/>
			</g>
			<g>
				<path fill="#020202" d="M399.1,330.7c-10.2,0-18.6-8.3-18.6-18.6c0-10.2,8.3-18.6,18.6-18.6s18.6,8.3,18.6,18.6
					C417.7,322.3,409.3,330.7,399.1,330.7z M399.1,296.5c-8.6,0-15.6,7-15.6,15.6c0,8.6,7,15.6,15.6,15.6s15.6-7,15.6-15.6
					C414.7,303.5,407.7,296.5,399.1,296.5z"/>
			</g>
		</g>
		<g>
			<g>
				<circle fill="#ECEFF0" cx="430.4" cy="358.4" r="17.1"/>
			</g>
			<g>
				<path fill="#020202" d="M430.4,377c-10.2,0-18.6-8.3-18.6-18.6c0-10.2,8.3-18.6,18.6-18.6c10.2,0,18.6,8.3,18.6,18.6
					C449,368.7,440.7,377,430.4,377z M430.4,342.9c-8.6,0-15.6,7-15.6,15.6c0,8.6,7,15.6,15.6,15.6c8.6,0,15.6-7,15.6-15.6
					C446,349.9,439,342.9,430.4,342.9z"/>
			</g>
		</g>
		<g>
			<g>
				<circle fill="#BCD4DE" cx="371.1" cy="358.4" r="17.1"/>
			</g>
			<g>
				<path fill="#020202" d="M371.1,377c-10.2,0-18.6-8.3-18.6-18.6c0-10.2,8.3-18.6,18.6-18.6s18.6,8.3,18.6,18.6
					C389.7,368.7,381.3,377,371.1,377z M371.1,342.9c-8.6,0-15.6,7-15.6,15.6c0,8.6,7,15.6,15.6,15.6s15.6-7,15.6-15.6
					C386.7,349.9,379.7,342.9,371.1,342.9z"/>
			</g>
		</g>
		<g>
			<g>
				<polygon fill="#BCD4DE" points="406.8,320.8 406.8,315.3 399.1,312.3 399.1,312.3 391.4,315.3 391.4,320.8 				"/>
			</g>
			<g>
				<path fill="#020202" d="M406.8,322.3h-15.4c-0.8,0-1.5-0.7-1.5-1.5v-5.5c0-0.6,0.4-1.2,0.9-1.4l7.7-3c0.4-0.1,0.8-0.1,1.1,0
					l7.7,3c0.6,0.2,0.9,0.8,0.9,1.4v5.5C408.3,321.6,407.6,322.3,406.8,322.3z M392.9,319.3h12.4v-2.9l-6.2-2.4l-6.2,2.4V319.3z"/>
			</g>
		</g>
		<g>
			<g>
				<polygon fill="#ECEFF0" points="378.8,365.9 378.8,361.2 371.1,358.6 371.1,358.6 363.4,361.2 363.4,365.9 				"/>
			</g>
			<g>
				<path fill="#020202" d="M378.8,367.4h-15.4c-0.8,0-1.5-0.7-1.5-1.5v-4.7c0-0.6,0.4-1.2,1-1.4l7.7-2.6c0.3-0.1,0.7-0.1,1,0
					l7.7,2.6c0.6,0.2,1,0.8,1,1.4v4.7C380.3,366.7,379.6,367.4,378.8,367.4z M364.9,364.4h12.4v-2.1l-6.2-2.1l-6.2,2.1V364.4z"/>
			</g>
		</g>
		<g>
			<g>
				<circle fill="#BCD4DE" cx="430.4" cy="354.1" r="4.4"/>
			</g>
			<g>
				<path fill="#020202" d="M430.4,359.9c-3.2,0-5.9-2.6-5.9-5.9s2.6-5.9,5.9-5.9s5.9,2.6,5.9,5.9S433.7,359.9,430.4,359.9z
					 M430.4,351.2c-1.6,0-2.9,1.3-2.9,2.9s1.3,2.9,2.9,2.9s2.9-1.3,2.9-2.9S432,351.2,430.4,351.2z"/>
			</g>
		</g>
		<g>
			<g>
				<polygon fill="#FCB61E" points="438.1,365.9 438.1,361.2 430.4,358.6 430.4,358.6 422.8,361.2 422.8,365.9 				"/>
			</g>
			<g>
				<path fill="#020202" d="M438.1,367.4h-15.4c-0.8,0-1.5-0.7-1.5-1.5v-4.7c0-0.6,0.4-1.2,1-1.4l7.7-2.6c0.3-0.1,0.7-0.1,1,0
					l7.7,2.6c0.6,0.2,1,0.8,1,1.4v4.7C439.6,366.7,438.9,367.4,438.1,367.4z M424.3,364.4h12.4v-2.1l-6.2-2.1l-6.2,2.1V364.4z"/>
			</g>
		</g>
		<g>
			<g>
				<path fill="#020202" d="M376.8,342.7c-0.2,0-0.5-0.1-0.7-0.2c-0.7-0.4-1-1.3-0.6-2l7-13.2c0.4-0.7,1.3-1,2-0.6
					c0.7,0.4,1,1.3,0.6,2l-7,13.2C377.9,342.4,377.4,342.7,376.8,342.7z"/>
			</g>
		</g>
		<g>
			<g>
				<path fill="#020202" d="M419.8,338.9c-0.5,0-1.1-0.3-1.3-0.8l-7.2-13.5c-0.4-0.7-0.1-1.6,0.6-2c0.7-0.4,1.6-0.1,2,0.6l7.2,13.5
					c0.4,0.7,0.1,1.6-0.6,2C420.3,338.9,420.1,338.9,419.8,338.9z"/>
			</g>
		</g>
	</g>
	<g>
		<g>
			<circle fill="#ECEFF0" cx="399.1" cy="307.7" r="4.4"/>
		</g>
		<g>
			<path fill="#020202" d="M399.1,313.6c-3.2,0-5.9-2.6-5.9-5.9c0-3.2,2.6-5.9,5.9-5.9s5.9,2.6,5.9,5.9
				C405,311,402.3,313.6,399.1,313.6z M399.1,304.9c-1.6,0-2.9,1.3-2.9,2.9c0,1.6,1.3,2.9,2.9,2.9s2.9-1.3,2.9-2.9
				C402,306.2,400.7,304.9,399.1,304.9z"/>
		</g>
	</g>
	<g>
		<g>
			<circle fill="#FCB61E" cx="371.1" cy="354.1" r="4.4"/>
		</g>
		<g>
			<path fill="#020202" d="M371.1,359.9c-3.2,0-5.9-2.6-5.9-5.9s2.6-5.9,5.9-5.9s5.9,2.6,5.9,5.9S374.3,359.9,371.1,359.9z
				 M371.1,351.2c-1.6,0-2.9,1.3-2.9,2.9s1.3,2.9,2.9,2.9s2.9-1.3,2.9-2.9S372.7,351.2,371.1,351.2z"/>
		</g>
	</g>
</g>
<g>
	<g>
		<g>
			<rect x="207.6" y="164.2" fill="#BCD4DE" width="62.7" height="59"/>
		</g>
	</g>
	<g>
		<g>
			<path fill="#020202" d="M230.7,224.7h-23.1c-0.8,0-1.5-0.7-1.5-1.5v-59c0-0.8,0.7-1.5,1.5-1.5h62.7c0.8,0,1.5,0.7,1.5,1.5v35.1
				c0,0.8-0.7,1.5-1.5,1.5s-1.5-0.7-1.5-1.5v-33.6h-59.7v56h21.6c0.8,0,1.5,0.7,1.5,1.5S231.6,224.7,230.7,224.7z"/>
		</g>
	</g>
	<g>
		<g>
			<rect x="217" y="174" fill="#FCB61E" width="43.9" height="11.9"/>
		</g>
		<g>
			<path fill="#020202" d="M260.9,187.4H217c-0.8,0-1.5-0.7-1.5-1.5V174c0-0.8,0.7-1.5,1.5-1.5h43.9c0.8,0,1.5,0.7,1.5,1.5v11.9
				C262.4,186.7,261.7,187.4,260.9,187.4z M218.5,184.4h40.9v-8.9h-40.9V184.4z"/>
		</g>
	</g>
	<g>
		<g>
			<line fill="#FCB61E" x1="218.2" y1="198.6" x2="243.3" y2="198.6"/>
		</g>
		<g>
			<path fill="#020202" d="M243.3,200.1h-25.2c-0.8,0-1.5-0.7-1.5-1.5s0.7-1.5,1.5-1.5h25.2c0.8,0,1.5,0.7,1.5,1.5
				S244.2,200.1,243.3,200.1z"/>
		</g>
	</g>
	<g>
		<g>
			<line fill="#FCB61E" x1="218.2" y1="207.7" x2="226.7" y2="207.7"/>
		</g>
		<g>
			<path fill="#020202" d="M226.7,209.2h-8.6c-0.8,0-1.5-0.7-1.5-1.5s0.7-1.5,1.5-1.5h8.6c0.8,0,1.5,0.7,1.5,1.5
				S227.6,209.2,226.7,209.2z"/>
		</g>
	</g>
	<g>
		<g>
			<line fill="#FCB61E" x1="232.8" y1="207.7" x2="241.4" y2="207.7"/>
		</g>
		<g>
			<path fill="#020202" d="M241.4,209.2h-8.6c-0.8,0-1.5-0.7-1.5-1.5s0.7-1.5,1.5-1.5h8.6c0.8,0,1.5,0.7,1.5,1.5
				S242.2,209.2,241.4,209.2z"/>
		</g>
	</g>
	<g>
		<g>
			<path fill="#ECEFF0" d="M276.8,224.3L276.8,224.3l-0.1-9.1c0-1.9-1.3-3.4-2.9-3.3c-1.5,0-2.8,1.4-2.8,5.3l0-5.1
				c0-2.1-1.5-3.8-3.4-3.8c-1.9,0-3.4,1.7-3.4,3.8v3.6l0-7c0-2.1-1.5-3.8-3.4-3.8c-1.9,0-3.4,1.7-3.4,3.8l0,7.2v-17.4
				c0-2.1-1.5-3.8-3.4-3.8c-1.9,0-3.4,1.7-3.4,3.8c0,0,0,22,0,22c-0.3,2.2-1.5,2.4-3.6,1.7c-2.6-0.9-7.3-2.9-8.2-2
				c-1.9,1.9,0.6,5.1,3.7,7.6l9.7,10.3c2.5,3.7,4.2,5.2,8.7,5.6c0.2,0,0.4,0,0.6,0.1c0.8,0.1,1.6,0.1,2.4,0.1
				c2.1,0,11.3,0.9,12.8-18.3C276.8,225.1,276.8,224.7,276.8,224.3z"/>
		</g>
		<g>
			<path fill="#020202" d="M264.7,245.3C264.7,245.3,264.7,245.3,264.7,245.3l-0.7,0c-0.8,0-1.7,0-2.5-0.1c-0.2,0-0.4,0-0.7-0.1
				c-5-0.5-7-2.3-9.7-6.2l-9.6-10.2c-1.8-1.4-4.7-4.2-4.8-6.9c-0.1-1.1,0.3-2.1,1.1-2.8c0.4-0.4,1.1-0.7,1.8-0.7
				c1.5,0,3.8,0.8,6,1.7c0.7,0.2,1.3,0.5,1.9,0.7c0.5,0.2,1,0.3,1.3,0.3c0.1,0,0.1,0,0.2,0c0,0,0.1-0.2,0.2-0.7c0-1.6,0-21.9,0-21.9
				c0-2.9,2.2-5.3,4.9-5.3s4.9,2.4,4.9,5.3v5.4c0.6-0.3,1.3-0.4,1.9-0.4c2.2,0,4.1,1.6,4.7,3.9c0.6-0.3,1.4-0.5,2.1-0.5
				c2.3,0,4.2,1.7,4.7,4c0.5-0.2,1.1-0.3,1.4-0.3c2.4,0,4.3,2.2,4.4,4.8l0.1,8.8c0,0.1,0,0.2,0,0.3c0,0.1,0,0.2,0,0.2
				c0,0.4,0,0.8-0.1,1.1C277,241.9,270.2,245.3,264.7,245.3z M239.7,221.4c0,0.1-0.1,0.2,0,0.3c0.1,0.9,1.2,2.8,3.8,4.8
				c0.1,0,0.1,0.1,0.2,0.1l9.7,10.3c0.1,0.1,0.1,0.1,0.1,0.2c2.4,3.5,3.7,4.6,7.6,5c0.2,0,0.4,0,0.5,0c0.8,0.1,1.6,0.1,2.3,0.1
				l0.7,0c6.1,0,9.7-5.7,10.6-16.9c0-0.4,0.1-0.6,0-1c0-0.1,0-0.1,0-0.2l-0.1-8.9c0-1-0.6-1.8-1.3-1.8c-1,0-1.3,1.9-1.3,3.7
				c0,0,0,0,0,0.1l0,0c0,0,0,0,0,0l0,0c0,0,0,0,0,0v0c0,0,0,0,0,0l0,0c0,0,0,0,0,0l0,0v0c0,0,0,0,0,0l0,0c0,0,0,0,0,0v0c0,0,0,0,0,0
				h0c0,0.8-0.7,1.4-1.4,1.4l0,0c0,0,0,0,0,0c0,0,0,0,0,0l0,0c0,0,0,0,0,0s0,0,0,0s0,0,0,0s0,0,0,0h0c0,0,0,0,0,0c0,0,0,0,0,0l0,0
				c0,0,0,0,0,0c0,0,0,0,0,0c0,0,0,0,0,0c0,0,0,0,0,0l0,0c0,0,0,0,0,0c0,0,0,0,0,0l0,0c0,0,0,0,0,0l0,0c0,0,0,0,0,0c0,0,0,0,0,0h0
				c0,0,0,0,0,0h0c0,0,0,0,0,0c0,0,0,0,0,0l0,0c0,0,0,0,0,0c0,0,0,0,0,0h0c0,0,0,0,0,0s0,0,0,0c0,0,0,0,0,0c0,0,0,0,0,0c0,0,0,0,0,0
				c0,0,0,0,0,0c0,0,0,0,0,0h0c0,0,0,0,0,0c0,0,0,0,0,0c0,0,0,0,0,0c0,0,0,0,0,0c0,0,0,0,0,0h0c0,0,0,0,0,0c0,0,0,0,0,0h0
				c0,0,0,0,0,0l0,0c0,0,0,0,0,0c0,0,0,0,0,0c-0.7-0.1-1.2-0.5-1.3-1.1l0,0c0,0,0,0,0,0l0,0c0,0,0,0,0,0c0,0,0,0,0,0c0,0,0,0,0,0v0
				c0,0,0,0,0,0c0,0,0,0,0,0l0,0c0,0,0,0,0,0c0,0,0,0,0,0c0-0.1,0-0.2,0-0.3c0,0,0,0,0,0l0-5.1c0-1.3-0.9-2.3-1.9-2.3
				s-1.9,1-1.9,2.3v3.6c0,0.8-0.7,1.5-1.5,1.5c0,0,0,0,0,0c-0.8,0-1.5-0.7-1.5-1.5l0-7c0-1.3-0.9-2.3-1.9-2.3c-1.1,0-1.9,1-1.9,2.3
				l0,7.2c0,0.8-0.7,1.5-1.5,1.5c0,0,0,0,0,0c-0.8,0-1.5-0.7-1.5-1.5v-17.4c0-1.3-0.9-2.3-1.9-2.3s-1.9,1-1.9,2.3
				c0,22.1,0,22.1,0,22.2c-0.4,3-2.3,3.4-3.3,3.4c-0.6,0-1.3-0.1-2.2-0.4c-0.6-0.2-1.2-0.4-1.9-0.7
				C243,222.3,240.8,221.5,239.7,221.4z"/>
		</g>
	</g>
</g>
<g>
	<g>
		<g>
			<path fill="#FCB61E" d="M235.3,371.7c-18,0-32.7-14.7-32.7-32.7c0-18,14.7-32.7,32.7-32.7s32.7,14.7,32.7,32.7
				C267.9,357,253.3,371.7,235.3,371.7z"/>
		</g>
	</g>
	<g>
		<g>
			<path fill="#020202" d="M235.3,373.2c-18.8,0-34.2-15.3-34.2-34.2s15.3-34.2,34.2-34.2c10.5,0,20.2,4.7,26.8,13
				c0.5,0.6,0.4,1.6-0.2,2.1c-0.6,0.5-1.6,0.4-2.1-0.2c-6-7.5-14.9-11.8-24.4-11.8c-17.2,0-31.2,14-31.2,31.2
				c0,17.2,14,31.2,31.2,31.2s31.2-14,31.2-31.2c0-4.9-1.1-9.6-3.3-14c-0.4-0.7-0.1-1.6,0.7-2c0.7-0.4,1.6-0.1,2,0.7
				c2.4,4.8,3.6,10,3.6,15.3C269.4,357.9,254.1,373.2,235.3,373.2z"/>
		</g>
	</g>
	<g>
		<g>
			<path fill="#020202" d="M235.3,365c-14.3,0-26-11.7-26-26s11.7-26,26-26c8,0,15.4,3.6,20.3,9.8c0.5,0.6,0.4,1.6-0.2,2.1
				c-0.6,0.5-1.6,0.4-2.1-0.2c-4.4-5.5-11-8.7-18-8.7c-12.7,0-23,10.3-23,23s10.3,23,23,23s23-10.3,23-23c0-3.2-0.6-6.2-1.9-9.1
				c-0.3-0.8,0-1.6,0.8-2c0.8-0.3,1.6,0,2,0.8c1.4,3.3,2.1,6.7,2.1,10.3C261.3,353.4,249.6,365,235.3,365z"/>
		</g>
	</g>
	<g>
		<g>
			<path fill="#020202" d="M235.3,357.7c-10.3,0-18.7-8.4-18.7-18.7s8.4-18.7,18.7-18.7c5.6,0,10.8,2.5,14.4,6.8
				c0.5,0.6,0.4,1.6-0.2,2.1s-1.6,0.4-2.1-0.2c-3-3.6-7.4-5.7-12-5.7c-8.6,0-15.7,7-15.7,15.7s7,15.7,15.7,15.7s15.7-7,15.7-15.7
				c0-1.6-0.2-3.2-0.7-4.7c-0.2-0.8,0.2-1.6,1-1.9c0.8-0.2,1.6,0.2,1.9,1c0.6,1.8,0.9,3.7,0.9,5.6
				C253.9,349.3,245.5,357.7,235.3,357.7z"/>
		</g>
	</g>
	<g>
		<g>
			<path fill="#020202" d="M235.3,350.3c-6.2,0-11.3-5.1-11.3-11.3s5.1-11.3,11.3-11.3c3.4,0,6.6,1.5,8.8,4.2
				c0.5,0.6,0.4,1.6-0.2,2.1c-0.6,0.5-1.6,0.4-2.1-0.2c-1.6-1.9-3.9-3.1-6.4-3.1c-4.6,0-8.3,3.7-8.3,8.3s3.7,8.3,8.3,8.3
				s8.3-3.7,8.3-8.3c0-0.2,0-0.4,0-0.5c-0.1-0.8,0.6-1.5,1.4-1.6c0.8,0,1.5,0.6,1.6,1.4c0,0.2,0,0.5,0,0.7
				C246.6,345.3,241.5,350.3,235.3,350.3z"/>
		</g>
	</g>
	<g>
		<g>
			<line fill="#FCB61E" x1="274" y1="308.9" x2="235.9" y2="338.7"/>
		</g>
		<g>
			<path fill="#020202" d="M235.9,340.2c-0.4,0-0.9-0.2-1.2-0.6c-0.5-0.7-0.4-1.6,0.3-2.1l38.1-29.8c0.7-0.5,1.6-0.4,2.1,0.3
				c0.5,0.7,0.4,1.6-0.3,2.1l-38.1,29.8C236.5,340.1,236.2,340.2,235.9,340.2z"/>
		</g>
	</g>
	<g>
		<g>
			<polygon fill="#BCD4DE" points="265.2,315.8 264.9,306.7 275.1,298.9 275.4,307.7 			"/>
		</g>
		<g>
			<path fill="#020202" d="M265.2,317.3c-0.2,0-0.4,0-0.6-0.1c-0.5-0.2-0.8-0.7-0.9-1.3l-0.3-9.1c0-0.5,0.2-0.9,0.6-1.2l10.2-7.8
				c0.4-0.3,1-0.4,1.6-0.2c0.5,0.2,0.8,0.7,0.9,1.3l0.3,8.9c0,0.5-0.2,0.9-0.6,1.2l-10.2,8C265.9,317.2,265.6,317.3,265.2,317.3z
				 M266.4,307.4l0.2,5.4l7.3-5.7l-0.2-5.2L266.4,307.4z"/>
		</g>
	</g>
	<g>
		<g>
			<polygon fill="#BCD4DE" points="265.3,315.8 274,318.3 284,310.2 275.5,307.8 			"/>
		</g>
		<g>
			<path fill="#020202" d="M274,319.8c-0.1,0-0.3,0-0.4-0.1l-8.7-2.5c-0.5-0.2-1-0.6-1.1-1.2c-0.1-0.6,0.1-1.1,0.5-1.5l10.2-8
				c0.4-0.3,0.9-0.4,1.3-0.3l8.5,2.4c0.5,0.2,0.9,0.6,1.1,1.1s-0.1,1.1-0.5,1.5l-10,8C274.7,319.6,274.4,319.8,274,319.8z
				 M268.5,315.1l5.2,1.5l7.2-5.7l-5-1.4L268.5,315.1z"/>
		</g>
	</g>
</g>
<g>
	<g>
		<g>
			<path fill="#BCD4DE" d="M530.1,305.5v52.8c0,4.3-1.8,8.4-5,11.3l-0.4,0.3h67.1v0c3.7,0,6.7-3,6.7-6.7v-2.7v-42.1v-12.8H530.1z"/>
		</g>
		<g>
			<path fill="#020202" d="M591.8,371.6h-67.1c-0.7,0-1.3-0.4-1.6-1.1c-0.2-0.6-0.1-1.4,0.4-1.8l0.4-0.3c2.8-2.6,4.5-6.2,4.5-10
				v-52.8c0-0.9,0.8-1.7,1.7-1.7h68.4c0.9,0,1.7,0.8,1.7,1.7v57.7C600.2,367.8,596.4,371.6,591.8,371.6z M528.6,368.2h63.2
				c2.8,0,5-2.3,5-5v-56h-65.1v51.2C531.8,361.9,530.7,365.4,528.6,368.2z"/>
		</g>
	</g>
	<g>
		<g>
			<path fill="#BCD4DE" d="M525.1,369.9H524c-2.8,0-5-2.2-5-5v-46.6h11.1v46.6C530.1,367.7,527.9,369.9,525.1,369.9z"/>
		</g>
	</g>
	<g>
		<g>
			<path fill="#020202" d="M524.6,371.6c-4,0-7.2-3.3-7.2-7.2v-46c0-0.9,0.8-1.7,1.7-1.7h4c0.9,0,1.7,0.8,1.7,1.7
				c0,0.9-0.8,1.7-1.7,1.7h-2.3v44.3c0,2.1,1.7,3.9,3.9,3.9s3.9-1.7,3.9-3.9v-46c0-0.9,0.8-1.7,1.7-1.7s1.7,0.8,1.7,1.7v46
				C531.8,368.3,528.6,371.6,524.6,371.6z"/>
		</g>
	</g>
	<g>
		<g>
			<rect x="538.3" y="314.9" fill="#FCB61E" width="53.2" height="12.3"/>
		</g>
		<g>
			<path fill="#020202" d="M591.5,328.9h-53.2c-0.9,0-1.7-0.8-1.7-1.7v-12.3c0-0.9,0.8-1.7,1.7-1.7h53.2c0.9,0,1.7,0.8,1.7,1.7v12.3
				C593.2,328.1,592.4,328.9,591.5,328.9z M539.9,325.5h49.9v-8.9h-49.9V325.5z"/>
		</g>
	</g>
	<g>
		<g>
			<rect x="538.3" y="336.7" fill="#FFFFFF" width="26.6" height="20.9"/>
		</g>
		<g>
			<path fill="#020202" d="M564.9,359.3h-26.6c-0.9,0-1.7-0.8-1.7-1.7v-20.9c0-0.9,0.8-1.7,1.7-1.7h26.6c0.9,0,1.7,0.8,1.7,1.7v20.9
				C566.6,358.6,565.8,359.3,564.9,359.3z M539.9,356h23.3v-17.6h-23.3V356z"/>
		</g>
	</g>
	<g>
		<g>
			<line fill="#FFFFFF" x1="572.5" y1="336.7" x2="591.5" y2="336.7"/>
		</g>
		<g>
			<path fill="#020202" d="M591.5,338.4h-19c-0.9,0-1.7-0.8-1.7-1.7c0-0.9,0.8-1.7,1.7-1.7h19c0.9,0,1.7,0.8,1.7,1.7
				C593.2,337.7,592.4,338.4,591.5,338.4z"/>
		</g>
	</g>
	<g>
		<g>
			<line fill="#FFFFFF" x1="572.5" y1="343.7" x2="591.5" y2="343.7"/>
		</g>
		<g>
			<path fill="#020202" d="M591.5,345.4h-19c-0.9,0-1.7-0.8-1.7-1.7c0-0.9,0.8-1.7,1.7-1.7h19c0.9,0,1.7,0.8,1.7,1.7
				C593.2,344.6,592.4,345.4,591.5,345.4z"/>
		</g>
	</g>
	<g>
		<g>
			<line fill="#FFFFFF" x1="572.5" y1="350.7" x2="591.5" y2="350.7"/>
		</g>
		<g>
			<path fill="#020202" d="M591.5,352.4h-19c-0.9,0-1.7-0.8-1.7-1.7s0.8-1.7,1.7-1.7h19c0.9,0,1.7,0.8,1.7,1.7
				S592.4,352.4,591.5,352.4z"/>
		</g>
	</g>
	<g>
		<g>
			<line fill="#FFFFFF" x1="572.5" y1="357.7" x2="591.5" y2="357.7"/>
		</g>
		<g>
			<path fill="#020202" d="M591.5,359.3h-19c-0.9,0-1.7-0.8-1.7-1.7s0.8-1.7,1.7-1.7h19c0.9,0,1.7,0.8,1.7,1.7
				S592.4,359.3,591.5,359.3z"/>
		</g>
	</g>
</g>
<g>
	<g>
		<g>
			<g>
				<path fill="#FCB61E" d="M362.2,192.1h-3c-2,0-3.6-1.6-3.6-3.6v-1.2c0-2,1.6-3.6,3.6-3.6h3c2,0,3.6,1.6,3.6,3.6v1.2
					C365.7,190.5,364.1,192.1,362.2,192.1z"/>
			</g>
			<g>
				<path fill="#020202" d="M362.2,193.6h-3c-2.8,0-5.1-2.3-5.1-5.1v-1.2c0-2.8,2.3-5.1,5.1-5.1h3c2.8,0,5.1,2.3,5.1,5.1v1.2
					C367.2,191.3,365,193.6,362.2,193.6z M359.1,185.2c-1.1,0-2.1,0.9-2.1,2.1v1.2c0,1.1,0.9,2.1,2.1,2.1h3c1.1,0,2.1-0.9,2.1-2.1
					v-1.2c0-1.1-0.9-2.1-2.1-2.1H359.1z"/>
			</g>
		</g>
		<g>
			<g>
				<path fill="#BCD4DE" d="M402.1,223.2c0.5,1.3-0.1,2.7-1.4,3.2l-5.1,1.9c-1.2,0.5-2.6-0.2-3.1-1.5l-8.2-22.3
					c-0.5-1.3,0.1-2.7,1.4-3.2l5.1-1.9c1.2-0.5,2.6,0.2,3.1,1.5L402.1,223.2z"/>
			</g>
			<g>
				<path fill="#020202" d="M394.9,229.9c-1.6,0-3.1-1.1-3.7-2.7l-8.2-22.3c-0.8-2.1,0.3-4.4,2.3-5.1l5.1-1.9
					c0.4-0.2,0.9-0.2,1.3-0.2c1.6,0,3.1,1.1,3.7,2.7l8.2,22.3c0.4,1,0.3,2.1-0.1,3c-0.4,1-1.2,1.7-2.2,2.1l-5.1,1.9
					C395.8,229.8,395.3,229.9,394.9,229.9z M391.7,200.7c-0.1,0-0.2,0-0.3,0l-5.1,1.9c-0.5,0.2-0.7,0.7-0.5,1.2l8.2,22.3
					c0.2,0.5,0.7,0.8,1.2,0.6l5.1-1.9c0.3-0.1,0.4-0.3,0.5-0.5c0.1-0.2,0.1-0.5,0-0.8l-8.2-22.3C392.4,201,392,200.7,391.7,200.7z"
					/>
			</g>
		</g>
		<g>
			<g>
				<path fill="#BCD4DE" d="M377.2,176.3h-9.5c-2.7,0-4.8,2.2-4.8,4.8v13.9c0,2.7,2.2,4.8,4.8,4.8h9.5V176.3z"/>
			</g>
			<g>
				<path fill="#020202" d="M377.2,201.4h-9.5c-3.5,0-6.3-2.8-6.3-6.3v-13.9c0-3.5,2.8-6.3,6.3-6.3h9.5c0.8,0,1.5,0.7,1.5,1.5v23.6
					C378.7,200.7,378,201.4,377.2,201.4z M367.7,177.8c-1.8,0-3.3,1.5-3.3,3.3v13.9c0,1.8,1.5,3.3,3.3,3.3h8v-20.6H367.7z"/>
			</g>
		</g>
		<g>
			<g>
				<path fill="#FCB61E" d="M427.7,215.6c0,1.8-1.6,3.2-3.5,3.2l0,0c-2,0-3.5-1.4-3.5-3.2v-54.6c0-1.8,1.6-3.2,3.5-3.2l0,0
					c2,0,3.5,1.4,3.5,3.2V215.6z"/>
			</g>
			<g>
				<path fill="#020202" d="M424.2,220.3c-2.8,0-5-2.1-5-4.7v-54.6c0-2.6,2.3-4.7,5-4.7s5,2.1,5,4.7v54.6
					C429.2,218.2,426.9,220.3,424.2,220.3z M424.2,159.4c-1.1,0-2,0.7-2,1.7v54.6c0,0.9,0.9,1.7,2,1.7s2-0.7,2-1.7v-54.6
					C426.2,160.1,425.3,159.4,424.2,159.4z"/>
			</g>
		</g>
		<g>
			<g>
				<path fill="#BCD4DE" d="M429.7,183h-2.1v10.6h2.1c1.3,0,3.6-1.1,3.6-2.4v-5.8C433.3,184.1,431.1,183,429.7,183z"/>
			</g>
			<g>
				<path fill="#020202" d="M429.7,195.1h-2.1c-0.8,0-1.5-0.7-1.5-1.5V183c0-0.8,0.7-1.5,1.5-1.5h2.1c2,0,5.1,1.6,5.1,3.9v5.8
					C434.8,193.6,431.8,195.1,429.7,195.1z M429.2,192.1h0.6c0.8,0,2-0.6,2.1-1l0-5.7c-0.1-0.3-1.3-0.9-2.1-0.9h-0.6V192.1z"/>
			</g>
		</g>
		<g>
			<g>
				<path fill="#FFFFFF" d="M399,172.2L399,172.2l-16.7-0.1l-5.2,4.2v23.6l5.2,4.6H399v0c15.9,1.6,21.6,9.6,21.6,9.6V163
					C413.1,171.7,399,172.2,399,172.2z"/>
			</g>
			<g>
				<path fill="#020202" d="M420.6,215.7c-0.5,0-0.9-0.2-1.2-0.6c-0.1-0.1-5.7-7.5-20.5-9c-0.1,0-0.1,0-0.2,0h-16.3
					c-0.4,0-0.7-0.1-1-0.4l-5.2-4.6c-0.3-0.3-0.5-0.7-0.5-1.1v-23.6c0-0.4,0.2-0.9,0.5-1.2l5.2-4.2c0.3-0.2,0.6-0.3,1-0.3H399
					c0.1,0,0.3,0,0.4,0.1c2.4-0.2,13.8-1.4,20-8.6c0.4-0.5,1.1-0.6,1.7-0.4c0.6,0.2,1,0.8,1,1.4v51.2c0,0.7-0.4,1.2-1,1.4
					C420.9,215.6,420.8,215.7,420.6,215.7z M399.5,203.1c10.3,1.1,16.4,4.8,19.6,7.5v-44c-8,6.7-19.5,7.1-20,7.1
					c-0.2,0-0.4,0-0.6-0.1h-15.6l-4.2,3.4v22.2l4.2,3.8H399C399.2,203,399.4,203,399.5,203.1z"/>
			</g>
		</g>
	</g>
	<g>
		<path fill="#020202" d="M451.2,189.3h-8c-0.8,0-1.5-0.7-1.5-1.5s0.7-1.5,1.5-1.5h8c0.8,0,1.5,0.7,1.5,1.5S452.1,189.3,451.2,189.3
			z"/>
	</g>
	<g>
		<path fill="#020202" d="M450.1,201.6c-0.4,0-0.8-0.1-1.1-0.4l-5.7-5.7c-0.6-0.6-0.6-1.5,0-2.1c0.6-0.6,1.5-0.6,2.1,0l5.7,5.7
			c0.6,0.6,0.6,1.5,0,2.1C450.8,201.5,450.4,201.6,450.1,201.6z"/>
	</g>
	<g>
		<path fill="#020202" d="M444.4,182.6c-0.4,0-0.8-0.1-1.1-0.4c-0.6-0.6-0.6-1.5,0-2.1l5.7-5.7c0.6-0.6,1.5-0.6,2.1,0
			c0.6,0.6,0.6,1.5,0,2.1l-5.7,5.7C445.2,182.5,444.8,182.6,444.4,182.6z"/>
	</g>
</g>
<g>
</g>
</svg>
