<?xml version="1.0" encoding="utf-8"?>
<!-- Generator: Adobe Illustrator 18.1.0, SVG Export Plug-In . SVG Version: 6.00 Build 0)  -->
<!DOCTYPE svg PUBLIC "-//W3C//DTD SVG 1.1//EN" "http://www.w3.org/Graphics/SVG/1.1/DTD/svg11.dtd">
<svg version="1.1" id="Layer_1" xmlns="http://www.w3.org/2000/svg" xmlns:xlink="http://www.w3.org/1999/xlink" x="0px" y="0px"
	 viewBox="0 0 400 400" enable-background="new 0 0 400 400" xml:space="preserve">
<rect x="0.2" y="0.3" fill="#78BBDF" width="399.6" height="399.6"/>
<g>
	<path opacity="0.83" fill="#6AAED1" d="M190.7,174.6c18.2,0,33,14.7,33,33c0,8-2.9,15.3-7.6,21.1c10-5.6,16.9-16.4,16.9-28.8
		c0-18.2-14.7-33-33-33c-10.2,0-19.3,4.6-25.5,12C179.3,176.2,184.7,174.6,190.7,174.6z"/>
	<g>
		<path fill="#CDA277" d="M200,103.7c-53.2,0-96.3,43.1-96.3,96.3s43.1,96.3,96.3,96.3s96.3-43.1,96.3-96.3S253.2,103.7,200,103.7z
			 M200,232.8c-18.1,0-32.8-14.7-32.8-32.8s14.7-32.8,32.8-32.8c18.1,0,32.8,14.7,32.8,32.8S218.1,232.8,200,232.8z"/>
		<path fill="#F16689" d="M277.8,174.8c-2.8-8.6-0.6-19.8-5.8-27c-5.3-7.2-16.7-8.6-23.9-13.9c-7.2-5.2-12-15.6-20.6-18.4
			c-8.3-2.7-18.3,2.8-27.5,2.8c-9.2,0-19.2-5.5-27.5-2.8c-8.6,2.8-13.4,13.2-20.6,18.4c-7.2,5.3-18.6,6.6-23.9,13.9
			c-5.2,7.2-3,18.4-5.8,27c-2.7,8.3-11.1,16.1-11.1,25.3c0,9.2,8.4,17,11.1,25.3c2.8,8.6,0.6,19.8,5.8,27
			c5.3,7.2,16.7,8.6,23.9,13.9c7.2,5.2,12,15.6,20.6,18.4c8.3,2.7,18.3-2.8,27.5-2.8c9.2,0,19.2,5.5,27.5,2.8
			c8.6-2.8,13.4-13.2,20.6-18.4c7.2-5.3,18.6-6.6,23.9-13.9c5.2-7.2,3-18.4,5.8-27c2.7-8.3,11.1-16.1,11.1-25.3
			C289,190.8,280.5,183.1,277.8,174.8z M200,232.8c-18.1,0-32.8-14.7-32.8-32.8s14.7-32.8,32.8-32.8c18.1,0,32.8,14.7,32.8,32.8
			S218.1,232.8,200,232.8z"/>
		<path opacity="0.48" fill="#E2597F" d="M223.4,254.3c-44.6,0-80.7-36.1-80.7-80.7c0-15.1,4.2-29.3,11.4-41.4
			c-0.8,0.8-1.7,1.5-2.6,2.2c-7.2,5.3-18.6,6.6-23.9,13.9c-5.2,7.2-3,18.4-5.8,27c-2.7,8.3-11.1,16.1-11.1,25.3
			c0,9.2,8.4,17,11.1,25.3c2.8,8.6,0.6,19.8,5.8,27c5.3,7.2,16.7,8.6,23.9,13.9c7.2,5.2,12,15.6,20.6,18.4
			c8.3,2.7,18.3-2.8,27.5-2.8c9.2,0,19.2,5.5,27.5,2.8c8.6-2.8,13.4-13.2,20.6-18.4c7.2-5.3,18.6-6.6,23.9-13.9
			c3.5-4.8,3.7-11.4,4.3-17.8C261.7,247,243.4,254.3,223.4,254.3z"/>
		<path fill="#FFFFFF" d="M264.1,158.3c1-0.2,2,0.4,2.2,1.4l0,0c0.2,1-0.4,2-1.4,2.2l-10.8,2.3c-1,0.2-2-0.4-2.2-1.4l0,0
			c-0.2-1,0.4-2,1.4-2.2L264.1,158.3z"/>
		<path fill="#50BB85" d="M189.8,155.3c1-0.2,2,0.4,2.2,1.4l0,0c0.2,1-0.4,2-1.4,2.2l-10.8,2.3c-1,0.2-2-0.4-2.2-1.4l0,0
			c-0.2-1,0.4-2,1.4-2.2L189.8,155.3z"/>
		<path fill="#FFFFFF" d="M163.9,148.2c0.8-0.7,2-0.5,2.6,0.3l0,0c0.7,0.8,0.5,2-0.3,2.6l-8.5,7c-0.8,0.7-2,0.5-2.6-0.3l0,0
			c-0.7-0.8-0.5-2,0.3-2.6L163.9,148.2z"/>
		<path fill="#FFFFFF" d="M136.9,192.6c1-0.2,2,0.4,2.2,1.4l0,0c0.2,1-0.4,2-1.4,2.2l-10.8,2.3c-1,0.2-2-0.4-2.2-1.4l0,0
			c-0.2-1,0.4-2,1.4-2.2L136.9,192.6z"/>
		<path fill="#FFFFFF" d="M201.5,130.7c-0.9-0.6-1.1-1.7-0.5-2.6l0,0c0.6-0.9,1.7-1.1,2.6-0.5l9.2,6.1c0.9,0.6,1.1,1.7,0.5,2.6l0,0
			c-0.6,0.9-1.7,1.1-2.6,0.5L201.5,130.7z"/>
		<g>
			<path fill="#FEDA42" d="M148.3,173.8c0.8,1,0.6,2.4-0.4,3.2l0,0c-1,0.8-2.4,0.6-3.2-0.4l-8.1-10.5c-0.8-1-0.6-2.4,0.4-3.2l0,0
				c1-0.8,2.4-0.6,3.2,0.4L148.3,173.8z"/>
			<path fill="#FEDA42" d="M150.7,246.8c0.8,1,0.6,2.4-0.4,3.2l0,0c-1,0.8-2.4,0.6-3.2-0.4l-8.1-10.5c-0.8-1-0.6-2.4,0.4-3.2l0,0
				c1-0.8,2.4-0.6,3.2,0.4L150.7,246.8z"/>
			<path fill="#FEDA42" d="M228.5,271.2c0.8,1,0.6,2.4-0.4,3.2l0,0c-1,0.8-2.4,0.6-3.2-0.4l-8.1-10.5c-0.8-1-0.6-2.4,0.4-3.2l0,0
				c1-0.8,2.4-0.6,3.2,0.4L228.5,271.2z"/>
			<path fill="#FEDA42" d="M226.4,155.9c-0.3,1-1.3,1.6-2.3,1.3l0,0c-1-0.3-1.6-1.3-1.3-2.3l2.8-10.6c0.3-1,1.3-1.6,2.3-1.3l0,0
				c1,0.3,1.6,1.3,1.3,2.3L226.4,155.9z"/>
			<path fill="#FEDA42" d="M267.2,194.1c-0.9-0.6-1.1-1.7-0.5-2.6l0,0c0.6-0.9,1.7-1.1,2.6-0.5l9.2,6.1c0.9,0.6,1.1,1.7,0.5,2.6l0,0
				c-0.6,0.9-1.7,1.1-2.6,0.5L267.2,194.1z"/>
		</g>
		<path fill="#FFFFFF" d="M188,248.2c-0.7,0.7-1.9,0.7-2.6,0l0,0c-0.7-0.7-0.7-1.9,0-2.6l7.8-7.8c0.7-0.7,1.9-0.7,2.6,0l0,0
			c0.7,0.7,0.7,1.9,0,2.6L188,248.2z"/>
		<path fill="#50BB85" d="M166.3,241c0,1-0.9,1.8-1.9,1.8l0,0c-1,0-1.8-0.9-1.8-1.9l0.3-11c0-1,0.9-1.8,1.9-1.8l0,0
			c1,0,1.8,0.9,1.8,1.9L166.3,241z"/>
		<path fill="#FFFFFF" d="M241.2,233.4c0.1,1-0.6,2-1.6,2.1l0,0c-1,0.1-2-0.6-2.1-1.6l-1.3-10.9c-0.1-1,0.6-2,1.6-2.1l0,0
			c1-0.1,2,0.6,2.1,1.6L241.2,233.4z"/>
		<path fill="#50BB85" d="M257.5,228.1c-1,0.3-2-0.3-2.3-1.3l0,0c-0.3-1,0.3-2,1.3-2.3l10.6-2.8c1-0.3,2,0.3,2.3,1.3l0,0
			c0.3,1-0.3,2-1.3,2.3L257.5,228.1z"/>
		<path fill="#50BB85" d="M243.7,182.5c0.1,1-0.6,2-1.6,2.1l0,0c-1,0.1-2-0.6-2.1-1.6l-1.3-10.9c-0.1-1,0.6-2,1.6-2.1l0,0
			c1-0.1,2,0.6,2.1,1.6L243.7,182.5z"/>
		<g>
			<path fill="#1ABEF0" d="M250.1,250.1c-0.7,0.7-1.9,0.7-2.6,0l0,0c-0.7-0.7-0.7-1.9,0-2.6l7.8-7.8c0.7-0.7,1.9-0.7,2.6,0l0,0
				c0.7,0.7,0.7,1.9,0,2.6L250.1,250.1z"/>
			<path fill="#1ABEF0" d="M184.7,272.6c0.1,1-0.6,2-1.6,2.1l0,0c-1,0.1-2-0.6-2.1-1.6l-1.3-10.9c-0.1-1,0.6-2,1.6-2.1l0,0
				c1-0.1,2,0.6,2.1,1.6L184.7,272.6z"/>
			<path fill="#1ABEF0" d="M142.4,217c-0.7,0.7-1.9,0.7-2.6,0l0,0c-0.7-0.7-0.7-1.9,0-2.6l7.8-7.8c0.7-0.7,1.9-0.7,2.6,0l0,0
				c0.7,0.7,0.7,1.9,0,2.6L142.4,217z"/>
			<path fill="#1ABEF0" d="M166.2,135.9c-1-0.1-1.8-1.1-1.6-2.1l0,0c0.1-1,1.1-1.8,2.1-1.6l10.9,1.4c1,0.1,1.8,1.1,1.6,2.1l0,0
				c-0.1,1-1.1,1.8-2.1,1.6L166.2,135.9z"/>
			<path fill="#1ABEF0" d="M247,199.7c-1-0.1-1.8-1.1-1.6-2.1l0,0c0.1-1,1.1-1.8,2.1-1.6l10.9,1.4c1,0.1,1.8,1.1,1.6,2.1l0,0
				c-0.1,1-1.1,1.8-2.1,1.6L247,199.7z"/>
		</g>
	</g>
</g>
</svg>
