<?xml version="1.0" encoding="utf-8"?>
<!-- Generator: Adobe Illustrator 18.1.0, SVG Export Plug-In . SVG Version: 6.00 Build 0)  -->
<!DOCTYPE svg PUBLIC "-//W3C//DTD SVG 1.1//EN" "http://www.w3.org/Graphics/SVG/1.1/DTD/svg11.dtd">
<svg version="1.1" id="Layer_1" xmlns="http://www.w3.org/2000/svg" xmlns:xlink="http://www.w3.org/1999/xlink" x="0px" y="0px"
	 viewBox="0 0 400 400" enable-background="new 0 0 400 400" xml:space="preserve">
<rect y="0.2" fill="#E2574C" width="400" height="400"/>
<g>
	<rect x="88.8" y="-301.5" fill="#FFE06C" width="222.3" height="171.1"/>
	<path fill="#80C5DD" d="M275.7-167.2c0,2.2-1.8,4-4,4h-143c-2.2,0-4-1.8-4-4v-98.1c0-2.2,1.8-4,4-4h143c2.2,0,4,1.8,4,4V-167.2z"/>
	<circle fill="#FFFFFF" stroke="#E13D26" stroke-width="3" stroke-miterlimit="10" cx="146.2" cy="-254.1" r="6.1"/>
	<circle fill="#E13D26" stroke="#FFFFFF" stroke-width="3" stroke-miterlimit="10" cx="165.6" cy="-254.1" r="6.1"/>
	<path fill="#FFFFFF" d="M263.9-173c0,0.5-0.4,1-1,1H138.2c-0.5,0-1-0.4-1-1v-64.3c0-0.5,0.4-1,1-1h124.7c0.5,0,1,0.4,1,1V-173z"/>
	<path fill="#E13D26" d="M257.2-222.7c0,1.1-0.9,2-2,2h-110c-1.1,0-2-0.9-2-2v-0.6c0-1.1,0.9-2,2-2h110c1.1,0,2,0.9,2,2V-222.7z"/>
	<path fill="#E13D26" d="M257.2-210.7c0,1.1-0.9,2-2,2h-110c-1.1,0-2-0.9-2-2v-0.6c0-1.1,0.9-2,2-2h110c1.1,0,2,0.9,2,2V-210.7z"/>
	<path fill="#E13D26" d="M257.2-198.7c0,1.1-0.9,2-2,2h-110c-1.1,0-2-0.9-2-2v-0.6c0-1.1,0.9-2,2-2h110c1.1,0,2,0.9,2,2V-198.7z"/>
	<path fill="#FFFFFF" d="M263.9-254.1c0,2.8-2.3,5.1-5.1,5.1h-71.1c-2.8,0-5.1-2.3-5.1-5.1l0,0c0-2.8,2.3-5.1,5.1-5.1h71.1
		C261.6-259.2,263.9-256.9,263.9-254.1L263.9-254.1z"/>
	<polygon fill="#231F20" stroke="#231F20" stroke-linecap="round" stroke-linejoin="round" stroke-miterlimit="10" points="
		247.3,-202.3 233.1,-211.9 236.5,-194.9 240.2,-198.9 245.9,-190.7 248.2,-192.2 242.5,-200.3 	"/>
</g>
<g>
	<path fill="#FFFFFF" d="M258.5,124.7c-38.2-35.4-97.9-33.4-133.5,4.6s-33.9,97.7,3.9,133.6L258.5,124.7z"/>
	<path fill="#71B577" d="M258.5,124.7c-17.6-16.5-41.4-26.3-67.4-25.6l3,94.2l0,0L258.5,124.7z"/>
	<path fill="#595C66" d="M128.7,262.9c8.6,8.2,18.9,14.8,30.6,19.4l34-87.9l0,0l-0.3,0.2L128.7,262.9z"/>
	<path fill="#B28BBF" d="M191.4,99c-11.8,0.3-23.8,2.9-35.3,7.9l38.2,86.2l0,0l0.1-0.4L191.4,99z"/>
	<path fill="#F3BA4C" d="M258.4,124.6c17.6,16.5,28.9,39.6,29.9,65.6l-94.2,3l0,0L258.4,124.6z"/>
	<g>
		<path fill="#80C5DD" d="M202.4,202L202.4,202L166,294.9c36.5,14,79.5,5.5,107.9-24.8c18.8-20,27.6-45.8,26.8-71.3L202.4,202z"/>
	</g>
</g>
</svg>
