<?xml version="1.0" encoding="utf-8"?>
<!-- Generator: Adobe Illustrator 18.1.0, SVG Export Plug-In . SVG Version: 6.00 Build 0)  -->
<!DOCTYPE svg PUBLIC "-//W3C//DTD SVG 1.1//EN" "http://www.w3.org/Graphics/SVG/1.1/DTD/svg11.dtd">
<svg version="1.1" id="Layer_1" xmlns="http://www.w3.org/2000/svg" xmlns:xlink="http://www.w3.org/1999/xlink" x="0px" y="0px"
	 viewBox="205.8 0 792.1 792" enable-background="new 205.8 0 792.1 792" xml:space="preserve">
<circle fill="#737390" cx="606" cy="400" r="363.1"/>
<g>
	<path fill="#181425" d="M594.9,409.9c0.8,0,2,0.4,2.8,0.4c2,0,3.6-0.4,5.1-0.4c2-0.4,3.6-1.6,5.5-3.2c2-1.6,4.4-3.2,6.3-3.2
		c0.8,0,2,0.4,2.8,1.2c0.8,0.8,2.4,0.4,2.8-0.8c0.4-0.8,0-1.2-0.4-1.6c-1.2-1.2-2.8-1.6-4.8-1.6c-4,0-7.9,2.8-11.5,5.5
		c-1.2,1.2-2.8,1.6-4.4,1.6c-2.8,0-5.5-1.2-8.7-2.8c-3.2-1.6-6.3-3.2-9.5-3.2c-0.8,0-1.2,0-2,0.4c-0.8,0-1.2,0.8-1.2,1.6
		c0,0.8,0.8,1.6,1.6,1.6l0,0h0.4c2.8-0.8,5.9,0.8,9.1,2.4C590.6,408.3,592.5,409.5,594.9,409.9z"/>
	<path fill="#181425" d="M619.9,407.5c-0.8,0.4-1.2,1.2-1.2,2s0.8,1.6,1.6,1.6h0.4c7.1-2,9.5-7.9,7.5-16.6c0-0.8-0.8-1.2-1.6-1.2
		c-0.4,0-1.2,0.4-1.2,0.8c-0.4,0.4-0.4,0.8-0.4,1.2C627,401.9,625.4,405.9,619.9,407.5z"/>
	<path fill="#181425" d="M566,443.1c7.1,1.6,14.7,1.6,21.8,1.6c3.6,0,7.1,0,11.1,0.4c2.8,0,5.5,0,7.9-0.4c3.6-0.4,7.1-0.4,10.3,0
		h0.4c2.4,0.4,4.4,0.8,6.3,0.8c2.4,0,4-0.4,6.3-0.8c0.8-0.4,1.2-1.2,1.2-2c0-1.2-1.2-1.6-2-1.2c-1.6,0.4-3.2,0.8-4.8,0.8
		c-0.8,0-1.6,0-2.4,0c0.4,0,1.2-0.4,1.2-1.2c0-0.8,0-1.6-0.8-1.6c-0.8-0.4-2-0.8-2.8-1.6c-4.4-2.4-8.3-4.8-13.1-4.8
		c-0.8,0-1.6,0-2.4,0.4H604c-3.6,0.4-6.3,0.8-9.5,0.4c-2-0.4-4.4-0.8-5.9-0.4c-2.4,0.8-4.8,2-7.1,3.2s-4.4,2.4-7.1,3.2
		c-0.8,0.4-1.2,0.8-1.2,1.6v0.4c-0.8,0-1.6-0.4-2.8-0.4c-0.8-0.4-2-0.4-2.8-0.4h-0.4c-0.8,0-1.6,0.8-1.6,1.6
		C564.4,442.3,565.2,443.1,566,443.1z M618.7,441.5c-1.2,0-2.4-0.4-4-0.4c-3.2-0.4-6.3,0-9.5,0.4c-2.4,0-4.4,0.4-6.7,0.4l0,0
		c-2.4,0-4.4,0-6.7-0.4c-2.4,0-4.4-0.4-6.7-0.4c-1.6,0-3.2,0.4-5.1,0.4c-0.8,0-1.2,0-2,0.4c-0.8,0-1.6,0-2.4,0
		c2.8-0.8,5.1-2.4,7.5-3.6l0.4-0.4c1.6-0.8,3.6-1.2,5.5-1.2c1.2,0,2.4,0,4,0.4c1.6,0,3.6,0.4,5.1,0.4c1.6,0,2.8-0.4,4-0.4
		c1.6,0,2.8-0.4,4.4-0.4c2.8,0,5.1,0.8,7.5,2.4c1.2,0.8,2.8,1.6,4,2.4c0.8,0.4,1.2,0.8,2,0.8C619.5,441.5,619.1,441.5,618.7,441.5z"
		/>
	<path fill="#181425" d="M620.7,449.5c-1.6,0.4-3.6,1.2-5.1,1.6c-2,0.8-3.6,1.2-5.5,2c-1.6,0.4-2.8,0.8-4.8,0.8c-1.2,0-2.8,0-4,0
		c-2,0-4-0.4-5.9,0c-9.1,0.8-14.7-1.2-22.2-7.9c-0.8-0.8-2.4-0.4-2.8,0.8c-0.4,0.8,0,1.2,0.4,1.6c5.9,5.1,11.1,8.7,18.6,9.5
		c1.6,0,2.8,0,4.4,0c1.6,0,3.6,0,5.1,0c2.4,0,4.4,0,6.7,0h0.4c3.6,0,7.5-1.2,10.7-2.8c1.6-0.4,2.8-1.2,4.4-1.6
		c0.8-0.4,1.2-0.8,1.2-2C622.2,449.9,621.4,449.1,620.7,449.5z"/>
	<path fill="#181425" d="M656.7,420.9h0.4l0,0h0.4c0.4,0,0.8,0,0.8-0.4c0.4,0,0.8-0.4,0.8-0.8v-0.4c0.4-0.8,0.4-1.6,0-2.4
		c-1.2-0.8-2-1.2-3.2-0.4c-0.4,0.4-0.8,0.8-0.8,1.2c0,0,0,0,0,0.4c0,0,0,0.4-0.4,0.4l0,0c0,0.4,0,0.8,0.4,1.2
		C655.5,420.6,656.3,420.9,656.7,420.9z M657.5,419.8L657.5,419.8L657.5,419.8L657.5,419.8z"/>
	<path fill="#181425" d="M768.4,359.2c-0.4-0.4-0.8-1.2-1.2-1.6l-0.4-0.8v-0.4c-0.4-1.6-0.4-3.2-0.8-4.8c-0.4-3.2-0.8-6.3-1.6-9.5
		c-1.2-4.4-4-7.9-6.7-11.5l-1.2-1.2c-1.6-2-3.6-4.4-5.1-6.3c-3.6-4-7.1-7.9-9.5-12.3c0.4,0,1.2,0.4,1.6,0.4c2.8,0,3.2-3.2,3.6-4
		v-0.4l0,0v-0.4l0,0c0-2,0-4-0.4-5.9c-0.8-18.2-2-40.8-19.4-50.3c-0.8-0.4-1.6-0.8-2.4-1.2c-2-9.1-5.1-17-8.3-23.4
		c-4.8-10.7-8.7-20.2-11.9-29.7l-1.6-4.8c-4.8-14.3-9.5-28.9-19-41.2c-12.7-17-32.1-19-49.5-19c-6.3,0-12.7,0.4-18.6,0.8
		c-7.5,0.4-14.7,0.8-21.4,0.4c-3.6,0-7.5-0.4-11.1-0.8c-4.8-0.4-9.9-0.8-14.7-0.8c-3.6,0-6.7,0.4-9.9,0.8
		c-13.1,2-20.2,7.5-25.3,19.8c-0.8,2-1.6,3.6-2.4,5.5c-2.8,7.1-5.5,13.5-9.9,19.8c-2,3.2-4.4,6.3-6.7,9.5c-2.8,4-5.5,7.9-8.3,11.9
		c-10.7,15.8-17.4,30.1-21,44.7h-0.4c-0.8,0.4-1.2,0.4-2,0.8c-11.5,4-12.7,14.3-13.5,24.6c-1.2,10.3-0.8,20.6-0.8,28.1
		c0,1.6,0,4.4,2.4,5.5c0.4,0,0.8,0.4,1.2,0.4c-2.4,5.9-5.9,11.9-9.1,17.4c-4.4,7.5-9.1,15-11.1,23.8l0,0
		c-8.7,14.3-14.7,28.1-17.4,42.8c-0.8,4.4-1.6,8.7-1.6,13.5c-4,23.4,0.4,46.3,12.7,65.3c1.6,4.4,3.6,9.5,5.9,15
		c-0.8,2-2,4.4-2.8,6.3c-7.1,13.5-12.3,26.5-15.8,39.6c-5.9,22.6,1.2,46.7,21,72.1c0.4,0.4,0.4,0.4,0.8,0.4
		c-0.8,7.9-3.2,15-7.1,21.4c-0.4,0.4-0.4,1.2,0,1.6c0.4,0.8,1.6,1.2,2.4,0.4c4.8-3.6,8.3-7.9,11.1-13.1c1.2,7.1,4,13.5,8.7,18.2
		c0.8,4,2,7.1,3.6,9.9c0.8,1.2,2.4,0.8,2.8,0c0.4-0.4,0.4-1.2,0-1.6c-1.6-2.4-2.4-5.5-3.2-8.7c0-0.4,0-0.8-0.4-1.2
		c-2-9.1-1.2-19-0.4-27.7V596c0.4-4,0.8-7.9,1.2-11.9c-0.4,7.1-0.4,14.3,0.8,21.8c0.8,4,6.7,37.6,26.1,40.8h0.4c0.4,0,0.4,0,0.8-0.4
		h0.4c0.8-0.4,0.8-1.2,0.8-2c0-0.4-0.4-0.8-0.4-0.8c-13.5-11.1-17.8-27.3-14.3-52.3c4,8.3,4.8,17.8,2,28.5c0,0.4,0,0.8,0.4,1.2
		s0.8,0.8,1.2,0.8c0.8,0,1.2-0.4,1.6-1.2c1.2-4.8,1.6-9.1,1.6-13.5c0.4,0.8,1.6,0.8,2.4,0c7.9-7.1,13.9-15.8,17.4-25.7
		c-3.6,17.8-10.7,32.9-21,44c-0.4,0.4-0.4,1.2-0.4,1.6c0.4,0.8,1.6,1.2,2.8,0.8l12.7-10.3c0.4,0.4,1.2,0.8,2,0.4
		c13.5-8.7,24.6-22.2,30.9-38c-2.4,10.7-6.7,19-12.7,25.7c-0.4,0.4-0.4,1.2-0.4,1.6c0.4,1.2,2,1.2,2.8,0.4
		c19.4-21.8,39.6-47.1,35.6-73.7c0.4-0.4,0.8-0.8,0.8-1.2c0-1.2,0.4-2.8,0.4-4c9.1,6.3,19.8,9.5,31.3,9.5c8.7,0,17.4-2,25.7-5.9
		c-0.4,6.7,0,14.3,0.8,21.8c1.2,10.3,3.6,20.6,5.9,30.5c0.4,2.4,1.2,4.4,1.6,6.7c2.8,11.9,5.5,24.6,11.5,36.4c0.4,1.2,2.4,1.2,2.8,0
		c0.4-0.4,0.4-0.8,0.4-1.2c0.4,0.8,0.8,1.6,1.2,2c2,3.6,4.4,6.7,6.3,9.5c0.8,1.2,1.6,2.4,2.8,3.6c2,2.4,3.6,4.4,4.8,7.1l0.8,1.6
		l0.4-0.8c0.8,0.4,1.6,0,2-0.8c0.4-0.4,0.4-0.8,0-1.2V647l0,0c-2.8-5.9-4.4-12.3-5.9-19c1.2,5.5,3.2,11.1,4.8,15.8
		c2.4,6.7,4.8,13.9,5.5,21.8c0.4,3.6,0,7.1-0.4,10.7c-0.4,3.6-0.8,7.5-0.4,11.1c0,0.8,0.8,1.6,1.6,1.6c0.4,0,1.2-0.4,1.2-0.8
		c0.4-0.4,0.4-1.2,0.8-1.6l0.4-0.8c5.9-13.5,8.7-27.7,8.3-43.6l0,0c0,0.4,0,0.8,0,1.6c0,0.4,0,0.8,0.4,0.8v0.8
		c0.8,4,1.2,7.9,1.2,11.9c0,0.4,0,0.8,0.4,1.2s0.8,0.4,1.2,0.4c0.8,0,1.6-0.8,1.6-1.6c0-4.4-0.8-8.3-1.2-12.3c0-1.2-0.4-2.4-0.4-3.6
		c0-1.2-0.4-2-0.4-2.8c0-1.2-0.4-2.4-0.4-3.6c-0.4-6.3,0.8-12.7,2.8-19c-1.6,7.9-2.4,15.4-2,23c0.4,12.7,5.5,24.9,10.3,36
		c0.4,0.8,0.8,1.2,1.6,1.2s1.2-0.4,1.6-1.2c0.8-4.8-0.4-9.1-1.2-13.9c-0.4-1.6-0.8-3.2-0.8-4.4c-2-10.3-2-21,0-31.7
		c1.6-9.1,5.1-17.4,8.7-24.6c-3.6,14.3-3.6,28.5-4,42.4c0,9.1-0.4,18.2-1.2,27.7c0,0.4,0,0.8,0.4,1.2s0.8,0.4,1.2,0.4
		c0.8,0,1.6-0.4,1.6-1.2c1.2-5.9,4.4-11.9,7.1-17c0.8-1.6,1.6-3.2,2.4-4.8c2.8-5.9,5.5-11.5,7.5-16.6c0,0.8-0.4,1.2-0.4,2
		c-1.2,4-2.4,9.1-5.1,11.1c-0.4,0.4-0.8,1.2-0.4,2c0.4,0.4,0.8,0.8,1.6,0.8c4.4,0,7.9-5.9,10.3-9.9c0.4-0.8,0.8-1.2,1.2-1.6
		c2-2.8,3.6-5.9,5.5-9.1s3.6-6.3,5.5-9.5c1.2-1.6,2-2.8,3.2-4.4c5.1-7.5,10.3-15.8,15-24.9c10.3-19.8,12.3-42.4,5.5-60.2
		c5.5-12.3,7.1-23.8,4.8-34.5c0.4-6.7,0-12.7-1.6-19c-1.2-5.5-4-10.3-6.7-15.4c-1.6-3.2-3.6-6.3-4.8-9.9l0,0l0.8-0.8
		c6.7-3.2,11.5-11.1,15.8-17.8c1.6-2.4,2.8-4.8,4.4-6.7c4.4-6.3,6.7-13.1,6.3-20.2c0.4-0.4,0.8-0.8,0.8-1.2
		C782.6,387.3,777.9,371.1,768.4,359.2z M557.7,134.6c3.6-0.4,7.1-0.8,11.5-0.8c5.1,0,10.7,0.4,15.8,0.8c2.8,0.4,5.5,0.4,8.3,0.8
		c2.8,0,5.9,0.4,9.5,0.4c5.5,0,11.5-0.4,17-0.4c5.5-0.4,11.5-0.4,17-0.4c2.8,0,5.5,0,8.3,0c17.4,0.8,29.7,7.1,38.8,19.8
		c7.9,11.1,12.3,24.2,16.2,37.2c0.8,2.4,1.6,4.8,2.4,7.1c2.4,6.7,5.1,13.5,8.3,20.2c4,9.1,8.3,18.2,10.3,27.7
		c-11.1-4.8-23-7.9-34.5-11.1l-4.8-1.2c-16.6-4.4-34.5-7.5-52.7-9.1c-8.3-0.8-16.6-1.2-24.9-1.2c-23.4,0-48.3,2.8-76.8,8.3
		c-14.3,2.8-26.9,5.9-38.4,9.5c3.6-13.1,9.5-25.7,19-40c2.4-4,5.1-7.5,7.9-11.1c5.9-7.9,12.3-16.2,15.8-25.7c0.8-1.6,1.2-3.6,2-5.1
		c2-5.5,4-11.1,7.5-16.2C544.6,137.4,552.1,135.4,557.7,134.6z M732.3,571c3.2-8.3,5.1-15.4,5.9-22.6c2.4-19.8-2-38.8-6.3-57.4
		c-1.2-4.8-2.4-9.5-3.2-14.3c-2.8-12.7-2-26.9,2.4-40c0,2,0,4,0,5.9c0.4,11.5,3.6,22.2,7.5,33.7l0.8,2.4c0.8,6.3,2,12.7,4,21
		c2.4,10.3,3.6,19.8,3.2,30.5c-1.2,11.1-4,22.6-6.3,33.3v0.4c-2.4,9.9-5.5,19.8-8.3,29.3c-0.4,1.6-1.2,3.6-1.6,5.1
		C731.5,589.6,732.3,580.5,732.3,571C732.3,571.4,732.3,571,732.3,571z M668.6,622.1c-0.8-2.4-1.6-4.8-2.4-6.7
		c-1.2-2.8-2-5.9-2.8-9.1c-0.8-3.6-1.2-7.1-1.6-10.7c1.2,5.9,2.8,11.5,4.8,16.6c2,5.9,4.8,12.7,9.9,17.4c2.4,16.6,1.6,32.1-2.8,45.9
		C674.9,655.4,673.3,638,668.6,622.1z M728.8,579.3c-0.8,15.8-4.4,32.1-11.1,49.1c-3.2,7.5-6.3,15-9.9,21.8c-0.8,1.2-1.2,2.8-2,4
		c-0.8,1.6-1.6,3.2-2.4,5.1c2.4-18.6,7.9-37.6,15.8-57c2-4.4,4-9.1,5.9-13.5C726.4,585.7,727.6,582.5,728.8,579.3z M656.3,634.8
		c-1.2-2-2.8-4-4-6.3C653.5,630.8,655.1,632.8,656.3,634.8z M527.2,571.4c-0.8,3.6-1.2,7.1-2.4,10.7c0-0.4,0-0.4,0-0.8l0,0
		C525.6,578.2,526.4,575,527.2,571.4z M473.3,555.2c0,0.8,0,1.6,0,2.4c0,3.2-0.4,6.7-0.8,10.7c-1.2-1.2-2-2-2.8-3.2
		c0.4-1.2,0.8-2.4,1.6-4C471.8,559.2,472.5,557.2,473.3,555.2z M704.2,339c7.5,11.1,16.6,21.4,26.9,30.9c2,1.6,4,3.6,5.9,5.1
		c4,3.6,7.9,7.1,11.9,11.1c4.8,4.4,10.3,9.9,13.5,16.2c-2.8-2-5.5-4-8.3-5.5c-15-9.9-30.9-20.2-40-35.6
		C710.1,354,707,346.5,704.2,339z M679.7,292.2c1.2,0.4,2.4,0.4,3.6,0.8c0.8,1.6,1.2,3.6,2,5.1C683.2,295.8,681.6,294.2,679.7,292.2
		z M720,320c-5.9-6.7-10.7-13.5-13.1-21c5.1,1.2,9.9,2.8,15,4.4c4,7.9,8.3,14.7,13.1,20.6c2,2.8,4.4,5.1,6.7,7.5
		c3.2,3.6,6.7,7.5,9.5,11.5c5.9,9.1,11.1,20.2,15,32.1c-6.3-8.3-13.1-16.6-20.2-24.2c-2.4-2.8-4.8-5.5-7.1-8.3
		C732.7,335,726.4,327.5,720,320L720,320z M726.4,304.5c0.8,0.4,1.2,0.4,2,0.8c2.8,5.5,6.3,11.5,9.5,17
		C733.9,316.8,729.9,310.9,726.4,304.5z M746.2,552.8c0,1.6-0.4,3.2-0.4,4.4c-1.6,12.3-6.3,24.6-10.7,36.4l-0.8,1.6
		c-0.8,2-1.6,4-2.4,5.9c0.4-1.2,0.8-2.4,1.2-4c2.4-8.3,5.1-16.6,7.5-24.9C743.4,565.5,745,559.2,746.2,552.8z M723.6,558.4
		c-1.2,2.8-2.8,5.9-4.4,8.7C720.4,563.9,722,561.1,723.6,558.4z M714.5,581.7c1.2-1.6,2-3.6,3.2-5.1c5.9-10.7,11.9-21.4,14.3-34.5
		c1.6-8.7,2.4-18.2,1.6-29.3c2,11.5,2.8,21.4,2,30.9c-1.2,16.2-7.9,30.9-14.3,45.1c-2,4.4-4,9.1-5.9,13.9
		c-5.1,12.7-9.1,25.7-12.3,38.8c0-11.5,0.4-23.4,2.8-34.8c1.2-5.9,2.8-11.9,5.1-18.6C712.5,585.7,713.3,583.7,714.5,581.7z
		 M727.6,487.9C727.6,487.9,727.6,488.3,727.6,487.9c-5.5,11.1-13.5,19.8-21.4,28.5c-2.8,3.2-5.9,6.3-8.7,9.9
		c-5.5,6.3-10.3,13.5-14.7,21c2.8-9.1,6.7-17.4,11.1-24.9c2.8-4.8,5.9-9.1,9.1-13.5c5.1-7.1,10.3-14.3,13.9-22.6
		c3.2-7.1,5.5-14.7,7.1-22.6c0,1.6,0,3.6,0.4,5.1C724.8,475.2,726,481.9,727.6,487.9z M706.6,488.3l2-3.2c4-6.3,8.3-13.1,11.5-19.8
		c-2,9.5-5.1,18.2-9.1,25.7c-3.6,6.7-7.9,13.1-12.3,19c-4.4,6.3-9.1,12.7-12.7,19.8c-4.4,8.3-7.5,18.2-9.5,30.1
		c-0.8,1.6-1.2,2.8-2,4.4c-5.1,13.1-5.1,24.9-4,36l0.4,2.8c0.4,5.1,0.8,10.3,2,15.4c-2-4-3.2-7.9-4.4-11.5
		c-3.2-10.3-5.1-21-6.3-28.9c0.4-5.1,1.2-9.9,2.4-15.4c2.8-12.7,8.3-24.9,15.4-35.2C688.8,516,697.1,502.9,706.6,488.3z
		 M678.9,561.9l0.4-0.8c5.1-12.3,13.5-24.9,24.9-37.6c1.6-2,3.6-4,5.1-5.9c5.9-6.3,11.9-13.1,16.6-20.6c-1.6,9.5-4,19.4-9.5,27.7
		c-2.8,4.4-6.3,8.7-9.5,12.7c-4,5.1-8.3,10.3-11.9,16.2c-6.7,12.3-11.9,26.5-15,44c-0.8,5.1-1.6,11.1-2.4,17.4
		C675.3,597.6,675.7,579,678.9,561.9z M740.2,441.9c-1.6,6.7-2.4,14.3-2.4,21.8c-1.2-3.6-2-7.5-2.8-11.1c-1.2-5.9-3.2-21.4,2-31.3
		l0,0c0-0.4,0.4-0.4,0.4-0.8l0.4-0.4c0.8,1.2,1.6,2.4,2.4,3.2C739.5,430.8,739.1,436.8,740.2,441.9z M474.1,527.9
		c-1.2-4.8-2.4-9.5-3.2-14.3c-2-12.3-2.4-23.4-0.4-33.3c9.5-23,16.2-42.8,18.2-63.8c0.8,5.1,0.4,9.5-0.8,13.5
		C477.3,460.5,472.5,493.8,474.1,527.9z M457.9,545.3c-3.2-11.1-0.4-22.6,2.8-34.1c0,6.3,1.2,12.3,3.6,18.2c1.2,2.4,2,4.8,3.2,7.1
		c2,4.4,4,8.3,5.1,12.7l-0.4,0.8c-1.6,4-3.6,8.3-5.1,12.3C462.6,556.8,459.5,551.6,457.9,545.3z M709,380.2
		c5.9,5.1,13.1,9.1,19.8,13.1c5.5,3.2,11.5,6.3,16.6,10.3l0,0c-0.4,2.4-1.2,4.4-1.6,6.7c-0.4,2-0.8,4-1.6,5.5
		c-2.8-8.3-7.5-15.4-14.7-20.6c-2.4-2-5.1-3.6-7.5-5.5c-7.5-5.1-14.3-9.9-20.2-17.8c-3.6-4.8-6.3-10.3-8.7-15.8
		C695.9,366.3,701.8,373.8,709,380.2z M715.3,414.6c0,3.2,0.4,6.7,0.4,9.9c0,4.4-0.8,8.7-2.4,13.1c0-0.4,0-1.2,0-1.6
		c0-1.6,0.4-3.2,0.4-4.4c0-0.4,0-0.8-0.4-1.2c-0.4-15.4-3.6-30.9-9.9-45.5c1.2,1.2,2.8,2.4,4,3.6l1.6,1.6c2,2,4.4,4,6.3,5.5
		C714.9,401.5,715.3,408.3,715.3,414.6z M481.3,314.8c3.2-5.5,6.3-11.5,9.1-17.8c3.6-0.8,7.1-1.6,11.1-2.4
		C494.3,301.8,487.6,308.5,481.3,314.8z M629,315.6L629,315.6c-2,0-3.2-0.4-3.2-1.2c0-0.8,1.2-2.8,3.6-4c4-1.6,7.9-2.4,11.9-3.2
		c4-0.8,8.7-1.6,13.1-3.6c0.8,1.2,1.6,2.8,2,4C648.8,310.5,632.9,315.6,629,315.6z M484,388.9c2,4.8,4,9.5,4,14.7
		c-1.2-2.8-2.4-5.5-3.6-7.9c-2-4.4-4-8.3-5.1-12.3c-0.4-1.2-0.8-2-0.8-3.2c0-0.4,0-0.8-0.4-0.8c-2.8-10.3-2.8-22.2,0-35.2
		c6.7-12.7,15-25.7,24.6-39.2c-1.2,9.1-3.2,16.6-5.9,24.2c-4,0.8-7.9,2-10.7,4.4c-0.4,0.4-0.4,0.8-0.4,0.8c-1.6,4.4,1.2,9.9,2,11.9
		c0,0.4,0.4,0.8,0.8,0.8c-4.8,7.5-6.7,17.4-7.5,24.6C479.7,377.4,482.1,383.3,484,388.9z M482.8,400c0.4,1.2,1.2,2.8,1.6,4
		s1.2,2.4,1.6,4c-0.4,15.8-4,30.9-8.3,44.4c0,0,0,0,0-0.4c4.8-20.2,5.5-39.6,2.8-57.4C480.9,396,481.7,398,482.8,400z M467,381
		c0,9.5,0,18.6-0.8,28.1c-1.2,12.3-3.6,25.7-6.3,40.8l-0.4-2c-2.8-12.3-5.9-25.3-6.7-38c1.6-7.9,4-16.2,7.1-25.7
		c2.8-7.9,6.3-15.8,9.9-24.2c-1.6,5.9-2.8,12.3-2.8,18.6L467,381z M631.7,331.5c-4.8,2.4-7.9,6.3-10.7,10.3c-0.8,0.8-1.2,1.6-2,2.4
		c-1.2,1.6-2,1.6-2,1.6s-0.4,0-0.8-0.4c-1.6-2-2-8.3-1.2-11.5c15.4-7.1,30.5-11.1,44.7-11.1c1.6,0,3.2,0,4.4,0l0.4,0.4
		c-1.6,0-3.2-0.4-4.4-0.4C649.2,323.9,638.9,327.9,631.7,331.5z M620.3,348.5v-0.4c1.6-1.6,2.8-3.2,4-5.1l0.4-0.8
		c3.2-4.4,7.1-7.5,13.5-9.9c5.5-2.4,13.9-5.1,22.2-5.1c2,0,4.4,0,6.3,0.4c1.2,2.4,2.4,5.1,3.6,7.9c0.8,2.4,1.6,4.8,2.4,7.1
		c0.8,3.2,2,6.3,3.6,9.5c4,7.9,9.5,15.4,18.2,23.8c-1.6,8.7-10.7,14.3-17.4,17.8c-10.7,5.5-23.8,5.1-36.4-0.4
		C624.2,385.7,616.3,368.3,620.3,348.5z M611.5,334.6c0,1.2-0.4,2.4-0.4,3.6c-2.4-0.4-4.8-0.8-7.5-0.8c-4.8,0-9.1,0.8-13.5,1.2
		c-0.4-1.6-0.8-3.2-1.2-4C596.9,332.2,603.6,332.2,611.5,334.6z M539.5,325.9c10.3,0,20.2,0.8,29.3,2.4c4.4,0.8,9.9,2,14.7,4.8
		c0.8,0.4,1.6,0.8,2,1.6l0.4,0.4c1.2,1.6,1.6,3.2,2,5.9c0.4,1.2,0,2-0.4,2.8s-1.2,1.2-2.4,1.2c-0.4-0.8-0.8-1.6-1.2-2.4
		c-8.7-14.3-32.1-15.8-41.6-15.8c-1.2,0-2.4,0-3.6,0c-9.5,0.4-18.2,2.8-24.9,6.7c-6.7,4-8.3,9.9-9.9,15.8c0,0.4,0,0.4-0.4,0.8
		c-1.6-2.8-4-5.9-6.7-6.7c-1.6-0.4-2.4-0.8-3.6-0.8c-0.4,0-0.4,0-0.8,0H492c-0.4,0-0.8,0-1.2,0c-0.4,0-0.4,0-0.8-0.4
		c-1.2-1.6-1.2-5.5-0.8-7.1c2.8-2,7.9-3.2,11.9-4c1.6-0.4,2.8-0.4,4-0.8c8.7-2.4,17.8-3.6,27.7-4
		C534.3,326.3,536.7,325.9,539.5,325.9z M506.2,350.1c1.2-4.4,2.4-8.7,5.9-11.9c4.4-4.4,11.1-5.9,17.4-7.1c4-0.8,8.3-1.2,12.7-1.2
		c9.5,0,18.6,2,26.9,5.5c5.5,2.4,9.5,5.9,12.3,10.3l0,0c3.2,12.3,1.2,24.9-5.9,35.2c-6.3,9.1-15.8,15-26.9,16.2
		c-1.6,0-2.8,0.4-4.4,0.4c-22.6,0-38-23-38.8-44.4c0-0.4,0-0.8-0.4-0.8C505.4,351.6,505.8,350.9,506.2,350.1z M690,409.5l0.4-1.2
		c2-7.5,3.2-14.3,2.8-21.4c0-0.4,0-0.4-0.4-0.8c1.6-1.6,2.4-3.6,3.6-5.1c0.4,2.8,0.4,5.9,0.4,9.1v1.6c0,8.3-1.2,14.7-3.6,19.8
		c-2.4,4.8-4.8,9.9-7.5,14.7C687.2,420.6,688.8,414.6,690,409.5z M506.2,326.3L506.2,326.3c-1.6,0.4-2.8,0.8-4.4,1.2
		c-0.4,0-1.2,0.4-1.6,0.4c1.6-4.8,3.2-9.5,4-14.3c0.4-2,0.8-3.6,0.8-5.5c0.4-4.4,1.2-9.1,4-12.3C507,306.5,505.8,316,506.2,326.3z
		 M480.9,331.8c2-6.3,4.4-12.7,7.1-19v-0.4c4.8-5.1,9.9-10.3,15-15C494.7,309.3,487.2,320.8,480.9,331.8z M482.1,319.2
		c-3.2,7.9-5.5,15.8-7.1,23.4c-8.3,15-14.7,30.1-20.2,45.1c-1.2,2.8-2,5.5-2.8,8.3c0.8-11.9,4.8-24.2,8.3-35.6
		c1.2-4,2.8-7.9,3.6-11.9c2.8-7.9,6.3-14.7,9.9-20.6C476.5,325.1,479.3,321.9,482.1,319.2z M450.4,424.1c1.2,7.9,3.2,15.4,4.8,23
		c0.8,3.6,1.6,7.1,2.4,10.7c-0.4,2-0.8,4-1.2,5.9c-0.4,1.6-0.8,3.6-1.2,5.1c-3.6-9.9-4-21.4-4.4-31.3v-3.2
		C450.4,430.8,450.4,427.7,450.4,424.1z M663,486.7L663,486.7c4-12.7,7.5-24.6,12.7-36c2.8-5.5,5.9-11.1,9.1-16.6
		c5.1-8.7,10.7-17.8,13.1-27.3c1.2-4,2-8.7,2-13.1c3.6,25.3-8.3,53.1-20.6,77.6c-5.9,11.9-13.1,24.2-21.8,36.8
		c-0.8,1.2-1.6,2.4-2.4,3.2c-0.8,1.6-2,3.2-2.8,4.4C656.7,506.5,660.3,496.6,663,486.7z M736.7,412.2c-0.8-1.2-1.6-2-2.4-3.2
		c-4.4-5.1-9.1-9.9-14.3-14.3C728,400,733.1,405.5,736.7,412.2z M470.2,381.7c-0.4-7.1,0.8-14.3,2.8-21.8c0,4.8,0,9.5,0.8,14.3
		c0.4,1.6,0.4,3.2,1.2,5.1c-2,6.3-3.6,13.5-4.8,21C470.6,393.6,470.6,387.7,470.2,381.7z M515.3,514.4c-0.8-2.4-1.2-4-2-5.9
		c-2-7.5-3.6-15.4-5.1-23c-2-10.3-4.4-20.6-7.5-30.9c6.7,9.5,11.5,19,14.3,28.5C518.5,493.8,517.3,504.5,515.3,514.4z M524.4,539.7
		c-1.2-5.9-3.6-11.5-5.9-17c-0.4-0.8-0.8-2-1.2-2.8v-0.4c0-0.8,0.4-1.6,0.4-2.4c3.2-14.3,3.2-25.3-0.4-36.8
		c-3.2-10.7-9.5-21.8-19-33.7c0,0,0,0-0.4-0.4c-0.4-9.9-1.2-19.4-1.6-29.3c-1.6-22.2-3.6-45.5,0.8-68.1c1.2,1.2,2,2.8,3.2,4.4
		l0.4,0.4v0.4c2.4,19,0.4,37.6-2.4,53.1c-2.4,14.3-1.2,27.3,2.8,40c1.2,5.5,5.1,9.9,9.1,13.9c2,2,3.6,4,5.1,5.9
		c8.3,11.5,12.7,27.3,14.3,35.6c1.6,7.5,2,15.4,1.2,24.6c0,0.4,0,0.4,0,0.8v2c-0.8,9.9-2.8,19.8-5.1,29.7
		C527.2,552.8,525.6,545.7,524.4,539.7z M507.8,375.4c7.5,15.4,21.8,25.3,37.6,25.3c1.6,0,3.2,0,5.1-0.4c6.7-0.8,13.1-3.2,18.2-7.1
		c-1.6,3.6-1.2,7.9,0.8,11.5c0.4,0.8,1.2,1.6,1.6,2.4l0,0c-0.8,0-1.2,0.4-1.6,0.8s-0.4,0.8-0.4,1.2v0.4c0,0.4,0,0.4,0,0.8
		s0,0.8,0.4,1.2c0.4,0.4,0.8,0.4,1.2,0.4s0.4,0,0.8,0s0.8,0,1.2-0.4s0.4-0.4,0.8-0.8c0-0.4,0.4-0.4,0.4-0.8s0-0.4,0-0.8
		c1.6,0.8,3.2,1.6,4.8,1.6l0,0c1.2,0,2,0,3.2-0.4c0.8-0.4,1.2-1.2,1.2-2s-1.2-1.6-2-1.2c-3.2,1.2-6.3-0.4-8.3-4
		c-1.6-3.2-2-6.7-0.4-9.5c0.4-0.4,0.4-1.2,0-1.6s-0.8-0.8-1.2-0.8c2.4-2,4.4-4,5.9-6.3c7.1-9.9,10.3-23,8.3-35.6c0.4,0,0.8,0,1.2,0
		c2.8-0.4,4.4-3.2,4.4-7.1c4.4-0.8,8.7-1.2,13.1-1.2c2.8,0,5.1,0.4,7.5,0.8c0.4,6.3,2.4,9.5,5.1,8.7c-3.2,21,6.3,39.2,24.2,46.7
		c12.7,5.1,24.9,5.1,35.6,0.8c5.5-2.8,10.3-5.1,13.5-8.3c0.4,11.1-3.2,23-7.1,34.8c-4,12.3-11.1,24.9-20.6,37.2
		c-7.9,9.9-17.8,17.8-30.5,24.6c-8.7,4.8-20.6,9.9-32.9,9.9c-3.6,0-7.5-0.4-10.7-1.6c-12.3-3.6-24.6-9.1-36.4-17
		c-6.3-4-12.3-9.1-18.6-15c-5.5-5.1-7.9-11.5-9.9-19.8c-4.4-17.8-8.3-35.6-12.3-53.1C509.8,384.5,508.6,380.2,507.8,375.4z
		 M651.5,522.3L651.5,522.3c12.3-16.6,23.4-34.5,32.9-53.9c9.5-19,20.2-44.4,19-70.5c0-1.6,0-3.2-0.4-5.1
		c5.1,14.7,7.5,29.7,6.7,44.7c-2.4,16.2-11.9,32.9-28.1,48.7c-10.7,10.7-22.6,22.6-28.5,38.4c-0.8,0.4-1.6,0.4-2.4,0.4
		c-0.4,0-0.8,0-1.2,0.4h-0.4C650,524.7,650.7,523.5,651.5,522.3z M657.5,523.5c0.4-0.4,0.4-1.2,0.8-1.6c5.1-11.9,14.3-21,23-30.1
		c4-4,8.3-8.3,11.9-12.7c5.1-5.9,9.1-11.9,12.3-18.2c-1.2,2.8-2.4,5.9-4,9.1c-5.1,10.3-12.3,19.4-19,28.1c-3.2,4-6.3,8.3-9.5,12.7
		c-1.6,2.4-3.2,4.4-4.8,6.7c-2.4,1.6-4.4,2.8-6.3,4C660.6,522.3,659.1,523.1,657.5,523.5z M695.9,485.5
		c-5.5,9.9-11.5,18.2-18.2,24.6c0.4-0.4,0.4-0.4,0.8-0.8c2.4-3.6,5.1-7.1,7.9-10.7C689.6,494.6,692.7,490.2,695.9,485.5z
		 M679.7,323.9c-1.2-3.6-2.4-7.1-4-10.7C677.3,316.8,678.5,320.4,679.7,323.9z M695.9,373l0.4,0.4c-6.7-6.7-12.3-13.5-16.6-21
		c-2-3.6-3.2-7.1-4.4-10.7c-0.8-2.4-1.6-4.8-2.4-7.1c-1.6-3.6-3.2-7.1-5.1-10.7l-0.8-1.2c-2-4.4-4.4-9.1-7.1-13.9v-0.4
		c0-0.4,0-0.4-0.4-0.4c-1.2-2.4-2.4-4.4-3.6-6.3v-0.4c0,0,0-0.4-0.4-0.4c-2.8-4.8-5.1-8.7-7.9-12.7c3.2,0.4,5.9,0.8,9.1,1.2
		c0,0,0,0,0.4,0.4c10.3,9.9,15.4,24.9,20.2,38.4l1.2,2.8c1.2,3.2,2,6.3,3.2,9.5C685.6,350.9,689.2,362.3,695.9,373z M640.5,303.7
		c-4,0.8-8.3,1.6-12.7,3.6c-4,1.6-6.3,5.1-5.5,7.9c0.4,1.2,1.6,4,6.3,4h0.4c5.1,0,23.8-6.7,28.9-8.3c1.6,3.2,3.2,6.3,4.8,9.5
		c-0.8,0-2,0-2.8,0c-15,0-30.5,4-46.3,11.5c-9.1-2.8-17-2.8-26.1,0.4c-4.4-4.8-13.1-5.9-19-6.7l-1.6-0.8c-7.9-1.2-16.6-2-26.9-2
		c-3.6,0-7.1,0-11.1,0.4c-6.3,0.4-13.1,1.2-19.8,2.4c0-3.2,0-6.3,0.4-9.5c0,0.4,0.4,0.4,0.4,0.8c0.4,0.4,1.2,0.4,2,0.4
		c1.2-0.4,2.4-0.8,3.6-1.2c7.9-2.8,15.8-5.5,23.8-5.5c4,0,7.5,0.4,11.1,1.6c2.4,0.8,4.4,2,6.7,2.8c2.4,1.2,4.8,2.4,7.1,2.8l0.8,0.4
		c2,0.8,4.8,1.6,7.9,1.6c3.6,0,6.3-1.2,7.9-4.4c0.4-1.2,0.8-2.4,0-3.6c-1.6-3.6-7.5-5.9-11.1-7.1c-0.4-0.4-1.2-0.4-1.6-0.4
		c-9.5-4-21.8-8.3-34.5-7.5c-8.3,0.4-22.2,9.5-24.6,17.8c0.8-7.5,1.6-14.7,2.8-22.2c26.5-5.1,54.3-7.5,82.4-7.9h2
		c15.8,0,31.7,0.8,47.1,2.4c2.8,4,5.5,8.3,8.3,13.5C648.4,302.1,644.4,302.9,640.5,303.7z M511.8,316.4L511.8,316.4L511.8,316.4
		L511.8,316.4z M514.9,312.4c4-5.9,14.3-11.9,19.8-12.3c11.5-0.8,23.8,3.6,32.9,7.5c0.4,0,0.8,0.4,1.6,0.4c2.8,0.8,7.9,3.2,9.1,5.1
		c0,0.4,0,0.4,0,0.8c-0.8,1.6-2.4,2.4-4.8,2.4c-2.4,0-5.1-0.8-6.7-1.6l-0.8-0.4c-2.4-0.8-4.4-1.6-6.7-2.8s-4.8-2.4-7.1-3.2
		c-4-1.2-7.9-2-12.3-2C530.8,306.9,523.2,309.7,514.9,312.4z M470.2,533.8c-5.9-11.5-7.1-23.4-4-36.8c0,7.5,1.2,15.8,2.8,24.6
		c0.8,3.6,1.6,7.5,2.8,11.1c0.8,3.2,1.6,6.7,2.4,9.9C472.9,539.7,471.4,536.6,470.2,533.8z M490.8,432c2,14.3-1.6,28.1-5.1,42.4
		c-1.2,4-2,8.3-3.2,12.7l-0.8,3.2c-2,8.3-3.6,16.6-4.4,24.9c0,0.8,0,1.6,0,2.4C476.9,488.3,481.7,459,490.8,432z M480.5,523.9
		c0-2.4,0-4.4,0-6.7c0.4-8.7,2.4-17.4,4.4-25.7c0.8-2.8,1.2-5.5,2-7.9c0.8-4,1.6-7.5,2.8-11.5c4-15.4,7.5-30.1,3.2-46.7
		c0-0.4,0-0.4-0.4-0.8c0.4-4.4-0.4-9.5-2-14.7c0,0,0,0,0-0.4c2.4-7.5-0.8-14.7-3.6-21.4c-1.2-3.2-2.4-6.3-3.2-9.1
		c-1.2-5.1,0.4-11.1,1.6-16.2l0.4-0.8c1.6-5.5,3.2-11.1,6.7-15.4c1.2,0,2,0.4,2.8,0.8c-4,19-4.4,40.4-2,66.9
		c0.4,2.4,0.4,4.4,0.8,6.7c1.2,10.3,2.4,21,2.4,31.7c0,13.5-2,27.7-5.9,44.4c-2.8,11.5-6.3,23-9.5,32.5
		C480.5,527.1,480.5,525.5,480.5,523.9z M508.2,519.2c-0.4-6.7-1.6-13.9-2.8-20.6c-0.4-3.6-1.2-7.1-1.6-10.7c-0.4-2-0.4-4-0.8-5.9
		c-0.4-3.2-0.8-6.7-1.2-10.3c1.2,5.1,2.4,10.3,3.2,15.4c1.2,6.7,2.8,13.9,4.4,20.6c1.2,4.4,2.4,8.3,4,12.3c-0.4,1.2-0.4,2-0.8,3.2
		c-1.2,5.1-2.8,10.7-4.8,17.4C509,533.4,509,526.3,508.2,519.2z M498.7,461.3c0-0.8,0-2,0-2.8c0.8,2.4,1.6,5.1,2,7.5
		c-0.4-1.6-0.8-2.8-1.6-4C499.1,461.7,498.7,461.3,498.7,461.3z M520.1,454.6c4.4,7.9,8.3,17,11.5,27.3
		C526.8,473.6,523.2,464.5,520.1,454.6z M511.4,407.9c0.4,2.4,0.8,4.8,1.6,6.7c2.4,12.3,5.1,24.6,9.1,36.4c-1.6-2.8-3.2-5.1-4.8-7.5
		c-0.8-2.4-1.2-5.1-1.6-7.9C513.7,426.5,512.5,417,511.4,407.9z M663.8,524.7c-5.1,8.3-9.1,15.8-11.9,23.4c0.4-7.1,2-13.9,4-19.8
		C658.3,527.5,661,526.3,663.8,524.7z M735.5,416.2c0.4,0.4,0.8,0.8,0.8,1.2l0,0c0,0,0,0.4-0.4,0.4l0,0l-0.4,0.4l-0.4,0.8
		c-0.4,0.4-0.4,0.8-0.8,1.2c-2,3.6-4,7.5-5.1,11.9C730.3,426.5,732.3,421.3,735.5,416.2z M464.2,339.8c-1.2,2.8-2.4,5.1-3.2,7.9
		c-1.2,4-2.4,7.9-3.6,11.5c-4,12.3-7.9,24.9-8.7,37.6c-0.4,4.4-0.4,8.7,0,13.5c-1.6,8.7-2,17-1.6,25.7v1.6
		c0.4,10.3,1.2,21.8,4.4,31.7c-1.6-2-2.8-3.6-4-5.5c-3.6-9.1-6.3-17-8.3-24.6c-4-13.1-5.1-26.9-4-41.2c1.6-7.9,4.4-15.8,7.9-24.2
		C448.4,362.7,455.1,351.3,464.2,339.8z M520.1,536.2c2,7.1,3.2,14.7,3.6,22.6c0,3.6-0.4,7.5-0.8,11.1c-0.4,3.6-0.8,7.5-0.8,11.1
		l-0.4,1.2c0,0.4,0,1.2,0.4,1.6c0.4,0.8,2,1.2,2.8,0.8c-2.4,9.1-5.5,17.8-10.7,24.9l-9.5,7.9c13.5-21.4,19-51.9,15-83.6
		C519.7,534.2,519.7,535.4,520.1,536.2z M551.7,481.1c11.9,7.9,25.7,13.9,40,17c2.4,0.4,4.8,0.8,7.5,0.8c10.3,0,21-4.8,30.1-8.7h0.4
		c2.8-1.2,5.9-2.8,8.7-4.4c-1.2,3.6-2.8,7.1-4.8,10.3c-0.4,0.8-0.8,1.6-1.2,2.8c-2.4,5.1-4,10.7-5.1,15.8c-1.2,4.4-1.6,9.5-2,14.3
		c-7.9,4.4-17,6.7-25.7,6.7c-11.1,0-21.8-3.6-31.3-10.3C568,512,562.4,497.8,551.7,481.1L551.7,481.1z M749.7,533.4v-2.8
		c1.2-14.3,0.4-27.3-2.8-39.2c-1.6-5.1-3.2-10.3-4.8-15c-1.2-9.1-1.2-18.2,0-26.5c2.8,10.3,7.5,20.6,13.5,30.5
		c3.6,5.5,5.5,10.7,6.7,15.8c-1.2,15.8-7.5,32.1-13.1,46.7C749.4,539.7,749.7,536.6,749.7,533.4z M753.7,417.8c0-0.8,0.4-1.2,0.4-2
		c2.8,9.1,0.4,21-3.6,29.7c0-0.8,0-1.2-0.4-2C749.7,434.8,751.7,426.1,753.7,417.8z M757.7,414.2c-1.6-5.9-7.1-10.7-11.5-13.9
		c-5.1-3.6-10.7-6.7-16.2-9.9c-2.4-1.2-4.4-2.4-6.7-4c-17.8-10.3-29.3-26.5-36.4-50.3l-0.4-0.8c-2.8-9.1-5.1-17.8-9.5-26.5l-1.2-2.4
		c-2.4-5.5-5.1-11.1-9.1-16.2c1.6,0.4,2.8,0.4,4.4,0.8l0,0c13.5,6.3,19.8,23,24.9,36.4l0.8,2c0.8,2,1.6,4.4,2.4,6.3
		c4,11.1,8.3,22.2,15,32.1c6.3,9.5,15.8,16.2,24.6,22.2c3.6,2.4,6.7,4.8,10.3,7.1c5.1,3.6,10.3,7.1,15.4,10.7
		c2.4,11.1-3.2,27.3-9.9,36.4l0,0C758.9,434.4,759.6,423.3,757.7,414.2z M767.6,419c0.4-4.8,0.4-8.3,0-11.9c0-0.4,0-1.2-0.4-1.6
		c-0.8-2.4-1.6-4.8-2.8-7.1c-4-6.3-9.9-11.9-15-17l-1.2-1.2c-2.8-2.8-5.9-5.5-8.7-8.3c-10.7-9.9-20.6-19-29.3-30.5
		c-9.5-13.1-15-26.9-20.6-41.6c-0.8-2-1.6-4-2.4-5.9c2,0.4,4.4,0.8,6.3,1.6c2.4,13.5,11.1,25.7,19.8,36.8c4,5.1,8.3,10.7,12.3,15.8
		c5.5,7.5,11.5,15,17.4,22.2c4.8,5.9,10.3,11.9,15.8,17.4c7.1,7.1,11.5,13.1,11.5,22.6c0,5.1-1.2,10.7-4,16.6
		C766.8,424.5,767.2,421.7,767.6,419z M771.9,382.5c0.4-0.4,0.4-0.8,0-1.2c-2.4-7.9-5.5-16.2-9.5-24.2c5.1,6.3,9.5,12.7,12.3,21
		c1.6,5.1,2.8,10.7,3.2,16.6c-1.2-3.2-2.8-6.7-5.1-9.9C772.7,383.7,772.3,383.3,771.9,382.5L771.9,382.5z M738.3,306.5L738.3,306.5
		L738.3,306.5L738.3,306.5z M469.4,314.4c-2.4,4.8-5.1,9.5-7.9,13.9c1.2-2.4,2.8-5.1,4.4-7.5C466.6,318.8,468.2,316.4,469.4,314.4z
		 M458.3,338.6c7.9-11.9,15.8-24.2,20.2-38l2-0.4c2-0.4,4-1.2,5.9-1.6c-3.2,7.1-7.1,14.3-11.1,21c-1.6,2.4-2.8,4.8-4,7.1
		c-13.1,15-22.6,29.3-29.3,44c4.4-12.3,10.7-22.6,16.2-30.9L458.3,338.6L458.3,338.6z M448.4,493.8c2-4,4-8.3,5.9-12.3l0.4-0.4
		l0.4-0.4c0-0.4,0.4-0.8,0.4-0.8c2.4-5.5,3.6-11.1,5.1-17.4c3.2-14.3,5.5-27.3,7.1-40c0,2.8,0,5.1,0,7.9c0,3.2,0.4,6.3,0,9.5
		c-0.4,11.9-4,22.6-8.3,33.7c-4.8,12.7-9.9,22.2-15.4,30.1l-0.4,0.4C445.2,500.5,446.8,497.4,448.4,493.8z M465.4,467.7
		c3.6-9.9,5.5-18.6,5.9-28.1c0-3.6,0-7.1,0-10.7c0-4.8-0.4-9.5,0-14.3c0.8-8.3,2.4-17,4.8-25.7c4.8,21,3.6,43.6-3.6,70.9
		c-0.4,2-1.2,4.4-1.6,6.3c-1.2,4.4-2.8,9.1-3.6,13.9c-1.6,3.6-2.8,6.7-4.4,10.3l-1.6,3.2c-1.2,3.2-2.4,5.9-3.6,9.1
		c-4.4,11.1-9.1,22.6-15.8,32.9c-1.2,2-2.4,4-3.2,5.9c0,0-0.4,0.4-0.4,0.8c-0.8,1.6-1.2,3.6-1.6,5.1c-2-9.9-1.2-21.4,2.4-31.3
		c1.6-4.4,4.8-8.3,7.9-12.3c2-2.8,4.4-5.5,5.9-8.3C458.3,486.3,461.9,476.8,465.4,467.7z M439.3,562.3
		C439.3,562.3,439.3,562.7,439.3,562.3c0.8,1.6,1.6,2.8,2.4,4c0.4,0.4,0.8,0.8,1.6,0.8c2,6.7,4.4,13.9,6.3,20.2
		c-4.8-7.5-10.7-17.4-13.9-28.1c-1.2-4.4-2-8.7-2-13.5C434.5,552,436.5,557.6,439.3,562.3z M442.5,540.9c0.4-0.4,0.4-1.2,0.8-1.6
		c0,7.5,2.8,14.7,5.1,21.8c1.2,3.2,2.4,6.7,3.2,9.9c2,7.1,3.2,14.3,3.2,21c-0.4-0.8-0.4-1.6-0.8-2c-5.1-15.4-10.7-30.9-12.3-47.5
		C442.1,541.7,442.1,541.3,442.5,540.9z M457.5,582.1c-0.8-7.5-3.2-15-5.1-21c-0.4-1.2-0.8-2.8-1.6-4.4c-2.8-7.5-5.5-15.4-3.6-23.8
		c0-0.4,0-0.4,0-0.8l0,0c2-3.2,4-6.3,5.5-9.5c1.6-3.6,3.2-7.1,4.8-10.7c-2.4,8.3-4,16.6-4,24.9c0,9.9,4.4,19.8,11.9,28.5l0.4,0.4
		c-0.8,2-1.2,3.6-1.6,5.1c-2.8,9.9-3.6,21-3.6,30.9c-1.6,4-3.6,7.9-6.3,11.1C457.9,603.9,458.7,593.6,457.5,582.1z M499.5,499.4
		c-0.4-9.1-1.2-19-0.8-28.5c0.8,4,1.2,8.3,1.6,12.3c0.4,2.4,0.4,4.4,0.8,6.3c0.4,2.4,0.8,4.8,0.8,7.5c0.8,5.9,1.6,11.9,2.4,17.8
		c2,10.3,1.2,21,0.4,31.3c-0.4,2.8-0.4,5.5-0.4,8.3l-1.6,4.8c-3.6,11.5-7.1,23.8-10.3,35.6c-0.4-0.8-0.8-1.6-1.2-2.8
		c-0.8-2-2-4-3.2-5.9c1.6-7.9,3.6-16.2,5.5-23.8c2-7.1,3.6-13.9,4.8-20.2C501.5,528.3,500.3,513.6,499.5,499.4z M507.4,570.2
		c0-5.1,0.4-10.7,0.8-15.8v-0.8c2.4-7.5,4.8-15.8,6.7-23.8c3.6,28.5,0,49.5-11.1,65.3C506.6,587.3,507,578.2,507.4,570.2z
		 M531.6,566.3c2.4-13.1,3.6-26.1,3.6-38v-0.4c0.4-7.5,0.4-14.7-0.4-21c-1.6-10.3-5.1-21.4-11.5-33.7c-1.6-3.6-4-7.5-7.5-11.5
		c-0.8-0.8-1.6-2-2.8-2.8c-3.2-3.6-6.7-7.1-7.5-11.9c-5.1-16.2-4.4-30.5-2-43.6c0.8-5.5,1.6-10.7,2-16.2c0.8,4,1.6,8.3,2,12.3
		l0.8,6.7c1.2,8.3,2.4,17,3.6,25.3c0.8,4,1.6,7.9,2.4,11.9c0,0.4,0,0.4,0,0.8c4,17.8,10.3,32.9,19,45.9c0.4,0.8,1.2,1.6,2,2.8
		c2.4,9.5,4.4,19.8,6.3,31.3c1.6,11.5,2.4,21.4,2.4,30.5c-0.4,0.4-0.4,0.8-0.4,1.2c-0.8,19.4-10.3,38.8-24.6,51.9
		C526,595.6,529.2,580.1,531.6,566.3z M539.9,499.8c2,2.8,4,5.5,5.9,8.3c5.5,9.1,9.1,21,9.9,30.5c0.4,7.9-2.4,16.6-4.8,24.6
		l-0.4,1.2c-2,6.3-4.4,12.3-6.7,18.2c4.4-18.2,2.8-38.4,0.8-55C543.4,517.6,541.8,508.5,539.9,499.8z M558.1,563.9
		c-2.8,5.9-5.9,11.9-10.3,18.6c5.9-13.5,9.9-26.5,11.1-38.4c1.2-8.7-2-17.8-4.8-25.7c-3.2-9.1-8.3-16.6-12.7-21.8
		c-1.2-1.2-2-2.8-3.2-4.4c-3.2-11.5-6.7-21.8-11.1-31.3c2.4,3.2,5.1,5.9,9.1,9.1c8.7,16.2,19.8,36.8,26.1,57.8
		c1.6,5.1,2.4,9.9,2.4,13.9c0.4,7.1-3.2,14.3-5.9,21L558.1,563.9z M545,476.8c0,0.4,0,0.8,0.4,1.2c12.7,18.2,19,34.1,19.4,47.9
		c-4.8-17.8-13.9-34.5-22.6-51.1C543,475.2,544.2,476,545,476.8z M630.9,513.2c1.2-5.1,3.6-9.9,5.5-14.7c2.4-4.8,4.4-9.9,5.5-15
		c2.4-1.6,4.4-2.8,6.3-4.4c-5.9,12.3-11.1,23.8-14.7,37.2c-4.4,16.6-4,33.3-2.8,47.5c0,2.4,0.4,4.4,0.4,6.7
		c-1.2-5.9-2.4-12.3-2.8-18.6C627,539,627.8,525.9,630.9,513.2z M636.5,519.2c3.2-13.9,9.1-26.5,15-39.2c0.8-2,2-4,2.8-5.9l0,0
		c2.4-2.4,4.8-4.8,7.1-7.1c-1.2,2.4-2.4,4.8-3.2,7.1c-0.8,2-1.6,4-2.8,5.5c-5.1,10.7-10.3,23.8-13.5,39.2
		c-4.8,23.8-6.3,45.9-4.4,65.3c0.4,5.5,1.6,11.1,2.4,15.8c-2.8-9.9-4.8-21.4-5.9-34.5C632.9,548.1,633.3,532.6,636.5,519.2z
		 M653.5,624.5c-1.2-2-2.8-4.4-4-6.3c-5.5-9.1-7.1-21.8-8.3-32.9v-1.2c-2.4-19-0.8-40,4.8-66.9c2.8-13.5,7.9-25.3,13.5-37.6
		c0.8-1.6,1.6-3.2,2.4-4.8c2-4.4,4-8.7,5.9-12.7c-2.8,7.1-4.8,14.3-6.7,21.4l-0.4,1.2c-4.4,14.7-9.5,28.5-15.8,42v0.4v0.4v0.4
		c0,0.8,0.4,1.6,1.2,1.6h0.4c2,0.4,4,0.4,6.3,0c-6.3,20.2-3.6,43.2-0.8,63.8c0.4,3.2,0.8,6.7,1.2,9.9c0.8,8.3,2,17,3.6,25.3
		C655.1,626.9,654.3,625.7,653.5,624.5z M664.6,620.1c3.2,9.9,5.1,21,5.9,33.3c0-0.4,0-0.8-0.4-0.8c-1.2-3.6-2.4-6.7-3.6-10.3
		c-2.4-6.7-5.1-13.9-5.5-21c-0.4-5.5-0.4-11.5-0.4-17C661.8,609.4,663,614.6,664.6,620.1z M681.2,624.9v-0.4
		c-0.4-7.1,0.8-15.4,2-22.6l0.4-3.2c2.8-17.4,8.3-32.9,16.6-46.7c3.2-5.1,6.7-9.5,10.3-13.9s7.1-8.7,9.9-13.5
		c3.6-5.5,5.5-12.3,7.1-18.6c-0.4,8.7-2,17.8-5.9,26.5c-2.8,6.3-4.8,13.1-7.1,19.4c-1.2,4-2.8,8.3-4,12.3
		c-3.2,8.7-7.5,17.4-12.3,25.7c-1.6,2.8-3.2,5.1-5.1,7.5l-1.6,2.4c-0.4,0-0.4,0.4-0.8,0.8v0.4l0,0c-2.4,3.6-4.8,7.5-6.7,12.3
		C682.8,616.6,681.6,620.5,681.2,624.9z M735.1,617.4l-0.4,0.4l-0.4,0.8c-2.8,3.6-5.5,6.7-8.7,8.7c11.9-24.9,19.4-46.7,23.4-66.5
		c0.8-4,0.8-7.5,0.8-11.1c0.4,0,0.4-0.4,0.8-0.8c3.6-5.1,6.3-9.9,8.7-14.7c5.1,16.6,2.4,37.2-7.1,56.2c-3.6,6.7-7.5,13.5-11.9,19.8
		C738.7,612.2,737.1,614.6,735.1,617.4z M772.7,416.6c3.2-15.4-6.3-24.9-15.4-34.1c-12.7-12.7-23-27.3-33.3-41.6l-1.2-1.6
		c-2-2.8-4-5.5-6.3-7.9c-2.8-3.6-5.9-7.1-8.7-11.5l-1.6-2.8c-4-6.7-7.9-13.1-9.9-20.6c2.4,0.4,4.4,1.2,6.7,1.6
		c2.4,10.7,9.5,19,16.6,27.3c1.2,1.2,2.4,2.8,3.6,4c5.1,6.3,10.7,12.3,15.8,18.6c5.9,7.1,12.3,14.3,18.2,21.4
		c11.5,13.9,25.7,31.3,15.8,51.1c-1.2,2-2.4,4-3.6,5.9C771.1,422.9,772.3,419.8,772.7,416.6z M733.1,306.9c1.2,0.4,2.8,1.2,4,1.6
		c2,5.1,5.9,9.5,9.5,13.5c1.2,1.2,2,2.4,3.2,3.6c4,4.8,7.1,9.1,9.5,13.5c2,3.6,2.8,8.3,3.2,12.7C750.5,336.2,741,321.6,733.1,306.9z
		 M743.4,305.7c0,0.4-0.4,0.8-1.2,0.8s-1.6,0-2.8-0.4c-0.4-0.4-0.8-0.4-1.2-0.4c-0.8-0.4-1.6-0.8-2-0.8c-0.4-0.4-0.8-0.4-1.2-0.4
		c-3.2-1.2-6.7-2.4-10.3-3.6l-1.6-0.4c-5.1-1.6-10.7-3.2-17.4-5.1c-0.4-0.4-1.2-0.8-1.6-0.4h-0.4c-9.5-2.4-19.8-4.8-31.7-6.7h-0.4
		c-2.4-0.4-5.1-0.8-7.5-1.2H663h-0.4l0,0c-21.8-3.2-44.4-5.1-66.9-5.1c-17.8,0-35.6,1.2-53.5,3.2c-10.3,1.2-21,2.8-31.3,4.8
		c-0.4,0-0.4,0-0.8,0h-0.4c-1.2,0.4-2.8,0.4-4,0.8h-0.4c-7.5,1.6-15,3.2-22.6,5.1c-0.4,0-0.8,0.4-1.2,0.4c-2,0.8-6.7,2.4-9.1,2.4
		c-0.8,0-1.6,0-1.6-0.4c0-1.2,0-2,0-3.2c0-5.5,0-11.1,0-17c0.4-7.9,0.8-14.3,2-19.8c2-9.1,8.3-11.1,17-13.5
		c14.7-4.4,29.3-7.5,45.5-10.7c23-4.4,45.1-6.3,66.5-6.3c26.1,0,51.5,3.2,75.6,9.1c11.1,2.8,23,6.7,37.2,11.9
		c6.7,2.4,12.3,4.8,16.6,8.7c4.4,4.4,6.3,10.3,7.5,15.8c2.4,9.9,2.8,20.2,3.6,30.5L743.4,305.7z M469,599.5
		c-0.4,7.1-0.8,14.3-0.4,21c-4.8-7.9-5.1-17.4-4.4-26.1c0.8-9.9,2-17.8,4.4-25.3c1.2,1.2,2.4,2.4,3.6,3.6c-0.4,2.4-0.8,4.8-0.8,7.1
		C470.2,586.1,469.4,592.8,469,599.5z M485.6,628.5c-5.5-9.9-8.7-21.8-9.1-35.6c-0.4-4.8,0-9.9,0.4-15.4c2.4,2.4,4.8,5.1,7.1,8.3
		c0.4,0.8,0.8,1.2,1.2,2c-2.8,15.4-4.4,34.5,5.9,49.5C489.2,634.8,487.2,631.6,485.6,628.5z M477.3,573v-0.8
		c0.8-6.7,1.2-13.5,1.2-20.6c0-2.4-0.4-4.8-0.8-7.1c2-4.8,4-10.3,5.9-16.2c4.4-13.5,8.3-26.1,11.1-38.8c0.4-1.2,0.8-2.8,0.8-4
		c0,2.8,0.4,5.5,0.4,8.7c0.4,3.2,0.4,6.3,0.8,9.5c0.8,17.4-0.4,33.3-4,49.9c-0.8,4-2,7.9-2.8,11.9c-1.2,5.5-2.8,11.5-4,17.4
		C484,580.1,481.3,577,477.3,573z M651.9,557.6c3.2-11.5,9.1-23,18.2-36.8c2.4-2,5.1-4,7.5-5.9c15-13.5,23.8-32.1,27.7-42
		c2.4-5.9,4.4-12.3,5.5-18.2l0.4-1.2c0.8-2.4,1.6-4.8,2.4-7.1l0.4-1.6c2-5.5,4-11.1,4.4-17c0.4-4.4,0-8.3-0.4-12.7
		c-0.4-5.5-0.4-10.7,0-16.2c3.6,3.2,6.3,5.9,9.1,8.7c1.6,1.6,3.6,3.6,5.1,6.3c0,0,0,0.4-0.4,0.4c-4.4,7.5-7.5,15.8-9.5,26.1
		c0,0.4-0.4,0.4-0.4,0.8v0.8c-0.4,2.4-0.8,4.8-1.2,7.1c-2,12.3-9.1,23.8-15.8,34.8l-2,3.6c-4,6.3-7.9,12.3-12.3,18.2
		c-12.3,17.8-24.9,36-30.1,57.4c-1.2,5.1-2,10.3-2.4,15.4c-1.6,3.6-1.6,8.7-1.6,13.1c0,1.2,0,2.4,0,3.2c0,7.9,0,15.8,0.4,24.9
		c0,2.4,0.4,4.8,0.8,6.7c-1.6-8.7-2.8-17.8-3.6-26.5c-0.4-4-0.8-7.9-1.2-11.5c-1.2-8.7-2-19-2-28.9C651.9,558,651.9,558,651.9,557.6
		z M687.6,640.7c-0.8-11.9,1.6-24.9,6.7-39.2c1.2-1.6,2-3.2,3.2-4.8c2-3.2,4.4-6.3,6.3-9.5c4-6.7,7.5-14.7,11.1-24.6
		c1.6-4,2.8-8.3,4.4-12.3c2-5.9,4-12.3,6.7-18.2c2-5.1,3.6-11.1,4.8-17.4c0.4,10.3-0.4,19.8-2,28.5c-0.4,1.6-0.8,3.2-1.2,4.8
		c-0.4,0-0.4,0.4-0.8,0.4c-5.5,6.7-9.1,14.7-12.3,22.2c-2.4,5.9-4.4,11.1-5.9,16.2c-5.9,11.1-12.3,23-15.4,36.4
		c-2,7.5-2.4,15.4-2,25.3c0.4,3.6,1.2,7.5,2,11.1c0.4,2.4,1.2,5.1,1.6,7.5C691.1,658.5,688.4,649.8,687.6,640.7z M720,640.7
		c0.4-0.8,0.4-1.2,0.8-2c0.8-2,1.6-4.4,2.4-6.3c1.6-0.8,3.2-1.6,4.4-2.8c-0.4,0.8-0.8,1.6-1.2,2.4c-0.4,0.4-0.8,1.2-1.2,2.4
		c-1.2,2.4-3.2,5.9-5.5,8.7C719.7,641.9,720,641.5,720,640.7z M758.9,527.5c2-5.1,3.6-10.7,4.8-16.2
		C762.8,516.4,761.2,521.5,758.9,527.5z M761.6,483.5c-1.2-2.4-2.4-4.8-4-7.1c-4.4-7.9-7.9-15.4-11.1-23.8
		c-3.6-9.9-4.4-17.8-3.2-26.1c0-0.8,0.4-1.6,0.4-2.4c0-0.4,0-0.4,0-0.8c0.8-4,1.6-8.3,2.8-12.3c0.4-1.6,0.8-3.2,1.2-4.8
		c0.4,0,0.4,0.4,0.8,0.4c1.2,1.2,2.4,2.8,3.6,4.4v0.4l-0.4,0.8c-2,8.7-4,17.4-4.4,26.5c-0.4,4.8,0.4,9.1,2,13.1l-1.2,2.4l1.6-1.6
		c1.6,4,3.6,7.5,5.5,11.5l1.2,2c3.6,5.9,5.5,12.7,5.9,19.8C762.4,485.1,762,484.3,761.6,483.5z M494.7,605.9L494.7,605.9
		c0-1.2-0.4-2.4-0.4-3.6l0.4-0.4c2.8-11.9,6.3-24.2,9.5-34.8C504.2,580.1,503.4,595.2,494.7,605.9z"/>
	<path fill="#181425" d="M496.3,333.8c-0.8,0-1.2,0.4-2,0.4l0,0h-0.4c-0.8,0-1.2,0.4-1.6,0.4c-0.8,0-1.6,0.4-2.4,0.4
		c-0.4,0-1.2,0.4-1.2,1.2c-0.4,1.2,0,2.4,0.4,3.2c0.8,0.8,2,1.6,4,1.6c0.4,0,1.2,0,1.6,0c0.8,0,1.6-0.4,2-0.4
		c1.2-0.4,2.4-0.4,3.6-0.4l0,0h0.8c1.6,0,3.2,0,5.1-0.8c1.6-1.2,1.6-2.4,1.6-3.2c-0.4-1.6-2.4-3.2-4-3.2
		C501.1,332.6,498.7,333.4,496.3,333.8z M494.3,337.8c0.4,0,1.2-0.4,1.6-0.4c0.8,0,1.2-0.4,2-0.4c1.6-0.4,3.2-0.8,4.4-0.8
		c0.8,0,1.2,0.4,1.6,0.4c0,0-0.4,0-0.8,0.4c-0.8,0.4-2,0.4-2.8,0.4h-0.8c-0.8,0-2,0-3.2,0.4C495.9,337.4,495.1,337.8,494.3,337.8z"
		/>
</g>
<circle fill="#C4E6ED" cx="-531.6" cy="100.2" r="369.1"/>
<g>
	<path fill="#F0705A" d="M-543.9,115.2c1.2,0.4,2,0.4,3.2,0.4c2,0,4-0.4,5.9-0.8c2-0.4,4-2,6.3-3.2c2.4-1.6,4.8-3.6,7.1-3.6
		c1.2,0,2,0.4,2.8,1.2s2.4,0.4,3.2-0.8c0.4-0.8,0-1.2-0.4-2c-1.6-1.2-3.2-2-5.1-2c-4.4,0-8.7,2.8-12.7,5.9c-1.6,1.2-3.2,1.6-4.8,1.6
		c-3.2,0-6.3-1.6-9.9-3.2c-3.6-1.6-7.1-3.2-10.7-3.2c-0.8,0-1.6,0-2.4,0.4c-0.8,0-1.6,0.8-1.2,2c0,0.8,0.8,1.6,2,1.6l0,0h0.4
		c3.2-0.8,6.7,1.2,9.9,2.8C-548.7,113.7-546.3,114.8-543.9,115.2z"/>
	<path fill="#F0705A" d="M-515.8,112.9c-0.8,0.4-1.6,1.2-1.2,2c0,0.8,0.8,1.6,1.6,1.6h0.4c7.5-2.4,10.3-8.7,8.3-18.6
		c0-0.8-0.8-1.2-1.6-1.2c-0.4,0-1.2,0.4-1.6,0.8s-0.4,0.8-0.4,1.6C-508.3,106.5-510.3,110.9-515.8,112.9z"/>
	<path fill="#F0705A" d="M-576,152.1c7.9,1.6,16.2,1.6,24.2,1.6c4,0,7.9,0,12.3,0.4c3.2,0,5.9,0,9.1-0.4c4-0.4,7.9-0.4,11.5,0h0.4
		c2.4,0.4,4.8,0.8,7.1,0.8c2.4,0,4.8-0.4,6.7-1.2c0.8-0.4,1.2-1.2,1.2-2c0-1.2-1.2-1.6-2.4-1.6c-1.6,0.4-3.6,0.8-5.5,0.8
		c-0.8,0-1.6,0-2.8,0c0.8,0,1.2-0.8,1.2-1.2c0-0.8,0-1.6-0.8-2c-1.2-0.4-2-1.2-2.8-1.6c-4.8-2.8-9.1-5.1-14.7-5.1
		c-0.8,0-2,0-2.8,0.4h-0.4c-3.6,0.4-7.1,1.2-10.7,0.4c-2.4-0.4-4.8-0.8-6.7-0.4c-2.8,0.8-5.1,2-7.9,3.6c-2.8,1.2-5.1,2.8-7.9,3.2
		c-0.8,0.4-1.6,1.2-1.2,2v0.4c-0.8,0-2-0.4-2.8-0.8c-1.2-0.4-2-0.4-2.8-0.8h-0.4c-0.8,0-1.6,0.8-2,1.6
		C-577.2,151.3-576.8,152.1-576,152.1z M-517.4,150.5c-1.2,0-2.8-0.4-4.4-0.4c-3.6-0.4-7.1,0-10.7,0.4c-2.4,0-4.8,0.4-7.5,0.4l0,0
		c-2.4,0-4.8,0-7.1-0.4c-2.4,0-5.1-0.4-7.5-0.4c-2,0-3.6,0.4-5.5,0.4c-0.8,0-1.6,0-2.4,0.4c-0.8,0-1.6,0-2.8,0
		c3.2-1.2,5.5-2.4,8.7-4l0.4-0.4c2-1.2,4-1.6,6.3-1.6c1.2,0,2.8,0,4.4,0.4c2,0,3.6,0.4,5.9,0.4c1.6,0,3.2-0.4,4.4-0.4
		c1.6,0,3.2-0.4,4.8-0.4c3.2,0,5.5,0.8,8.3,2.4c1.6,0.8,3.2,1.6,4.4,2.4c0.8,0.4,1.2,0.8,2,1.2C-516.2,150.5-517,150.5-517.4,150.5z
		"/>
	<path fill="#F0705A" d="M-515.4,159.2c-2,0.4-4,1.2-5.5,2c-2,0.8-4,1.6-6.3,2c-1.6,0.4-3.2,0.8-5.5,0.8c-1.6,0-2.8,0-4.4-0.4
		c-2,0-4.4-0.4-6.3,0c-10.3,0.8-16.2-1.6-24.6-9.1c-0.8-0.8-2.4-0.4-2.8,0.8c-0.4,0.8,0,1.6,0.4,2c6.3,5.9,12.3,9.9,20.6,10.3
		c1.6,0,3.2,0,4.8,0c2,0,4,0,5.9,0c2.4,0,5.1,0,7.5,0h0.4c4,0,8.3-1.6,11.9-3.2c1.6-0.8,3.2-1.2,4.8-1.6c0.8-0.4,1.6-1.2,1.2-2
		C-513.4,159.6-514.2,158.8-515.4,159.2z"/>
	<path fill="#F0705A" d="M-475.4,127.5h0.4l0,0h0.4c0.4,0,0.8,0,1.2-0.4c0.4,0,0.8-0.4,0.8-0.8c0,0,0-0.4,0.4-0.4
		c0.8-0.8,0.4-2,0-2.4c-1.2-1.2-2.4-1.2-3.2-0.8c-0.4,0.4-0.8,0.8-1.2,1.2v0.4c0,0-0.4,0.4-0.4,0.8l0,0c0,0.4,0,1.2,0.4,1.6
		C-476.6,127.1-475.8,127.5-475.4,127.5z M-474.6,126.3L-474.6,126.3L-474.6,126.3L-474.6,126.3z"/>
	<path fill="#F0705A" d="M-351.5,59c-0.4-0.8-1.2-1.2-1.6-2l-0.4-0.8c0-0.4,0-0.4,0-0.8c-0.4-1.6-0.4-3.6-0.8-5.1
		c-0.4-3.6-0.8-7.1-2-10.7c-1.2-4.8-4.4-9.1-7.5-13.1l-1.2-1.6c-2-2.4-4-4.8-5.9-7.1c-4-4.4-7.9-8.7-10.3-13.5
		c0.4,0,1.2,0.4,1.6,0.4c3.2,0,3.6-3.2,4-4.4V0l0,0v-0.4l0,0c0-2-0.4-4.4-0.4-6.7c-0.8-20.2-2-45.5-21.4-55.8
		c-0.8-0.4-1.6-0.8-2.4-1.2c-2-9.9-5.9-19-9.1-25.7c-5.5-11.5-9.9-22.6-13.5-32.9l-1.6-5.1c-5.1-15.8-10.7-32.1-21-45.5
		c-14.3-18.6-35.6-21.4-54.6-21.4c-7.1,0-13.9,0.4-21,0.8c-8.3,0.4-16.2,0.8-23.8,0.8c-4,0-8.3-0.4-12.3-0.8
		c-5.5-0.4-11.1-0.8-16.2-0.8c-4,0-7.5,0.4-11.1,0.8c-14.7,2-22.6,8.3-28.1,22.2c-0.8,2-1.6,4-2.4,6.3c-3.2,7.5-5.9,15-10.7,21.8
		c-2.4,3.6-4.8,6.7-7.1,10.3c-3.2,4.4-6.3,8.7-9.5,13.5c-11.9,17.8-19.4,33.7-23.4,49.9h-0.4c-0.8,0.4-1.6,0.4-2.4,0.8
		c-12.7,4.4-13.9,15.8-15,27.3c-1.2,11.5-1.2,22.6-0.8,31.3c0,2,0,4.8,2.8,5.9c0.4,0.4,0.8,0.4,1.2,0.4c-2.8,6.7-6.3,13.1-9.9,19.4
		c-4.8,8.3-9.9,16.6-12.3,26.5l0,0c-9.9,15.8-16.2,31.3-19.4,47.5c-0.8,4.8-1.6,9.9-2,14.7c-4.4,26.1,0.4,51.1,14.3,72.5
		c2,5.1,4,10.3,6.7,17c-1.2,2.4-2,4.8-3.2,6.7c-7.9,15-13.5,29.3-17.4,43.6c-6.7,24.9,1.2,51.9,23.4,80c0.4,0.4,0.4,0.4,0.8,0.4
		c-0.8,8.7-3.6,16.6-7.9,23.8c-0.4,0.4-0.4,1.2,0,1.6c0.4,0.8,2,1.2,2.8,0.4c5.1-4,9.1-9.1,12.3-14.7c1.2,7.9,4.4,14.7,9.5,20.2
		c0.8,4.4,2.4,7.9,4,11.1c0.8,1.2,2.4,1.2,3.2,0c0.4-0.4,0.4-1.2,0-1.6c-1.6-2.8-2.8-5.9-3.6-9.5c0-0.4,0-1.2-0.4-1.6
		c-2-9.9-1.2-21-0.4-30.9v-1.6c0.4-4.4,0.8-8.7,1.6-13.1c-0.4,7.9-0.4,15.8,0.8,24.2c0.8,4.4,7.5,41.6,28.9,45.1h0.4
		c0.4,0,0.4,0,0.8-0.4h0.4c0.8-0.4,1.2-1.6,0.8-2c0-0.4-0.4-0.8-0.8-0.8c-15-12.3-19.8-30.1-15.4-57.8c4.4,9.1,5.1,19.8,2.4,31.7
		c0,0.4,0,1.2,0.4,1.6s0.8,0.8,1.6,0.8s1.6-0.4,1.6-1.2c1.2-5.1,2-10.3,2-15c0.8,0.8,2,0.8,2.4,0c8.7-7.9,15-17.4,19.4-28.5
		c-4,19.8-11.9,36.4-23.4,48.7c-0.4,0.4-0.8,1.2-0.4,2c0.4,1.2,2,1.6,2.8,0.8l14.3-11.5c0.4,0.8,1.6,0.8,2.4,0.4
		c15-9.5,27.3-24.6,34.1-42c-2.8,11.5-7.5,21.4-13.9,28.5c-0.4,0.4-0.8,1.2-0.4,2c0.4,1.2,2,1.6,2.8,0.4c21.4-24.2,44-52.3,39.6-82
		c0.4-0.4,0.8-0.8,0.8-1.6c0-1.6,0.4-2.8,0.4-4.4c10.3,7.1,22.2,10.7,34.5,10.7c9.5,0,19.4-2.4,28.5-6.7c-0.4,7.5,0,15.8,0.8,24.2
		c1.2,11.5,4,23,6.3,34.1c0.4,2.4,1.2,4.8,1.6,7.1c2.8,13.1,6.3,27.3,13.1,40.4c0.8,1.2,2.4,1.2,3.2,0c0.4-0.4,0.4-0.8,0.4-1.2
		c0.4,0.8,0.8,1.6,1.2,2.4c2.4,4,4.8,7.5,6.7,10.7c0.8,1.2,2,2.4,2.8,4c2,2.4,4,4.8,5.1,7.9l0.8,2l0.4-0.8c0.8,0.4,1.6,0,2.4-0.8
		c0.4-0.4,0.4-1.2,0.4-1.6V379l0,0c-2.8-6.7-4.8-13.9-6.3-21c1.6,6.3,3.6,12.3,5.5,17.4c2.8,7.5,5.1,15.4,5.9,24.2
		c0.4,4,0,7.9-0.8,11.9c-0.4,4-0.8,8.3-0.4,12.7c0,0.8,0.8,1.6,2,1.6c0.8,0,1.2-0.4,1.6-0.8s0.4-1.2,0.8-1.6l0.4-0.8
		c6.7-15,9.9-30.9,9.1-48.3l0,0c0,0.4,0,1.2,0,1.6s0,0.8,0.4,1.2v0.8c0.8,4.4,1.2,8.7,1.2,13.1c0,0.4,0,0.8,0.4,1.2
		c0.4,0.4,0.8,0.4,1.2,0.4c1.2,0,2-0.8,2-1.6c0-4.8-0.8-9.1-1.6-13.9c-0.4-1.2-0.4-2.8-0.8-4c0-1.2-0.4-2.4-0.4-3.2
		c0-1.2-0.4-2.8-0.4-4c-0.4-7.1,0.8-14.3,3.2-21c-2,8.7-2.8,17-2.4,25.3c0.4,14.3,6.3,27.7,11.1,40c0.4,0.8,1.2,1.2,2,1.2
		s1.6-0.4,1.6-1.6c0.8-5.1-0.4-10.3-1.6-15c-0.4-1.6-0.8-3.2-1.2-5.1c-2-11.5-2-23.4,0-34.8c2-9.9,5.5-19,9.5-26.9
		c-4,15.8-4,31.7-4.4,47.1c0,9.9-0.4,20.2-1.6,30.5c0,0.4,0,0.8,0.4,1.2c0.4,0.4,0.8,0.8,1.6,0.8s1.6-0.4,1.6-1.2
		c1.6-6.7,4.8-13.1,7.9-19c0.8-1.6,1.6-3.6,2.8-5.1c3.2-6.3,5.9-12.7,8.7-18.6c0,0.8-0.4,1.2-0.8,2c-1.2,4.4-2.8,9.9-5.5,12.7
		c-0.8,0.8-0.8,1.6-0.4,2c0.4,0.8,0.8,0.8,1.6,0.8c4.8,0,8.7-6.7,11.5-11.1c0.4-0.8,0.8-1.2,1.2-2c2-3.2,4-6.7,5.9-9.9
		c2-3.6,4-7.1,6.3-10.3c1.2-1.6,2.4-3.2,3.6-4.8c5.9-8.3,11.5-17.4,16.6-27.7c11.5-22.2,13.5-47.1,5.9-66.9
		c5.9-13.9,7.9-26.1,5.5-38c0.4-7.5,0-14.3-1.6-21c-1.2-5.9-4.4-11.5-7.5-17c-2-3.6-4-7.1-5.5-10.7l0,0l0.8-0.8
		c7.5-3.6,13.1-12.3,17.4-19.8c1.6-2.8,3.2-5.5,4.8-7.5c5.1-7.1,7.5-14.3,7.1-22.2c0.4-0.4,0.8-0.8,0.8-1.2
		C-336,90.3-340.8,72.5-351.5,59z M-585.1-189.7c4-0.8,7.9-0.8,12.7-0.8c5.9,0,11.5,0.4,17.4,0.8c3.2,0.4,6.3,0.4,9.1,0.8
		c3.2,0,6.7,0.4,10.3,0.4c6.3,0,12.7-0.4,19-0.4c6.3-0.4,12.7-0.4,19-0.4c3.2,0,6.3,0,9.1,0.4c19.4,0.8,33.3,7.9,43.2,22.2
		c8.7,12.3,13.5,26.9,18.2,41.2c0.8,2.8,1.6,5.5,2.8,7.9c2.4,7.5,5.9,15,9.1,22.2c4.4,9.9,9.1,20.2,11.5,30.9
		C-416-70-429-73.6-442.1-76.8l-5.5-1.6c-18.6-5.1-38.4-8.3-58.2-10.3c-9.1-0.8-18.2-1.2-27.7-1.2c-25.7,0-53.5,3.2-85.1,9.1
		c-15.8,3.2-29.7,6.3-42.8,10.3c3.6-14.3,10.3-28.5,21-44.7c2.8-4.4,5.9-8.3,9.1-12.7c6.7-9.1,13.5-18.2,17.4-28.5
		c0.8-2,1.6-4,2-5.5c2.4-5.9,4.8-12.3,8.3-17.8C-599.4-186.9-591-188.9-585.1-189.7z M-391.5,293.8c3.6-9.5,5.5-17.4,6.7-25.3
		c2.8-21.8-2-43.2-7.1-63.8c-1.2-5.1-2.4-10.3-3.6-15.4c-2.8-13.9-2-29.7,2.4-44.4c0,2.4,0,4.4,0,6.7c0.4,12.7,4,24.6,8.3,37.6
		l0.8,2.4c0.8,6.7,2.4,14.3,4.8,23.4c2.8,11.1,4,22.2,3.6,34.1c-1.2,12.7-4.4,24.9-7.1,37.2v0.4c-2.4,10.7-5.9,21.8-9.5,32.5
		c-0.8,2-1.2,4-2,5.9C-392.3,314.4-391.5,304.5-391.5,293.8C-391.5,294.2-391.5,294.2-391.5,293.8z M-462,350.5
		c-0.8-2.8-1.6-5.1-2.4-7.5c-1.2-3.2-2.4-6.7-3.2-9.9c-0.8-4-1.6-7.9-2-11.9c1.6,6.7,3.2,12.7,5.1,18.6c2.4,6.7,5.5,14.3,10.7,19.4
		c2.8,18.6,1.6,35.2-3.2,51.1C-455.2,387.3-457.2,367.9-462,350.5z M-395,303.3c-0.8,17.4-4.8,35.6-12.3,54.3
		c-3.2,8.3-7.1,16.6-11.1,24.2c-0.8,1.6-1.6,3.2-2.4,4.4c-0.8,2-2,3.6-2.8,5.5c2.8-20.6,8.7-42,17.4-63.4c2-5.1,4.4-9.9,6.3-14.7
		C-398.2,310.1-396.6,306.5-395,303.3z M-475.8,364.7c-1.6-2.4-3.2-4.4-4.4-6.7C-478.6,360-477.4,362.3-475.8,364.7z M-618.8,294.6
		c-0.8,4-1.6,7.9-2.4,11.9c0-0.4,0-0.4,0-0.8l0,0C-620.4,301.8-619.6,298.2-618.8,294.6z M-678.6,276.4c0,0.8,0,1.6,0,2.4
		c-0.4,3.6-0.4,7.1-1.2,11.9c-1.2-1.2-2.4-2.4-3.2-3.2c0.4-1.6,0.8-2.8,1.6-4.4C-680.1,281.2-679.4,278.8-678.6,276.4z M-422.7,36.8
		c8.3,12.3,18.6,23.8,30.1,34.1c2,2,4.4,4,6.7,5.9c4.4,4,9.1,7.9,13.1,12.3c5.1,5.1,11.5,11.1,15,18.2c-3.2-2-6.3-4.4-9.5-6.3
		c-16.6-11.1-34.1-22.6-44.4-39.6C-416,53.5-419.6,45.1-422.7,36.8z M-450.1-15c1.2,0.4,2.8,0.4,4,0.8c0.8,2,1.6,4,2.4,5.5
		C-445.7-11.1-447.7-13.1-450.1-15z M-404.9,15.4c-6.3-7.5-11.9-14.7-14.3-23.4c5.5,1.6,11.1,3.2,16.6,4.8c4.4,8.7,9.1,16.2,14.3,23
		c2.4,2.8,4.8,5.5,7.5,8.3c3.6,4,7.5,8.3,10.7,12.7c6.3,9.9,12.3,22.2,17,35.2c-6.7-9.5-14.7-18.2-22.2-26.9
		c-2.8-3.2-5.1-5.9-7.9-9.1C-391.1,32.5-397.8,23.8-404.9,15.4L-404.9,15.4z M-397.8-1.6c0.8,0.4,1.2,0.4,2,0.8
		c3.2,6.3,6.7,12.7,10.7,19C-389.9,12.3-393.8,5.5-397.8-1.6z M-376,273.6c0,1.6-0.4,3.2-0.4,5.1c-2,13.9-6.7,27.3-11.5,40.4l-0.8,2
		c-0.8,2.4-1.6,4.4-2.4,6.7c0.4-1.6,0.8-2.8,1.2-4.4c2.8-9.1,5.5-18.2,8.3-27.7C-379.2,287.9-377.2,280.8-376,273.6z M-401.4,280
		c-1.6,3.2-3.2,6.3-4.8,9.5C-404.5,286.3-402.9,283.1-401.4,280z M-410.9,305.7c1.2-2,2.4-4,3.2-5.9c6.7-11.9,13.1-23.8,15.8-38.4
		c2-9.9,2.4-20.2,2-32.5c2.4,12.7,3.2,23.8,2.4,34.1c-1.2,17.8-8.7,34.1-15.8,49.9c-2.4,5.1-4.8,10.3-6.7,15.4
		c-5.9,14.3-10.3,28.5-13.5,42.8c0-12.7,0.4-25.7,3.2-38.4c1.2-6.7,3.2-13.5,5.5-20.6C-413.6,310.1-412.5,308.1-410.9,305.7z
		 M-396.6,202L-396.6,202c-5.9,12.3-15,21.8-23.8,31.3c-3.2,3.6-6.7,7.1-9.9,11.1c-6.3,7.1-11.5,15-16.2,23.4
		c3.2-9.9,7.1-19.4,12.3-27.7c3.2-5.1,6.7-9.9,9.9-14.7c5.5-7.9,11.5-15.8,15.4-24.9c3.6-7.9,5.9-16.2,7.9-25.3c0,2,0,4,0.4,5.5
		C-399.8,187.7-398.2,195.2-396.6,202z M-420,202l2.4-3.6c4.4-7.1,9.1-14.7,12.7-22.2c-2.4,10.3-5.5,19.8-10.3,28.5
		c-4,7.5-8.7,14.3-13.5,21c-5.1,7.1-10.3,14.3-14.3,21.8c-4.8,9.5-8.3,20.2-10.7,33.3c-0.8,1.6-1.6,3.2-2,4.8
		c-5.9,14.3-5.5,27.7-4.4,40l0.4,3.2c0.4,5.5,1.2,11.5,2.4,17.4c-2-4.4-3.6-8.7-4.8-12.7c-3.6-11.5-5.5-23-7.1-32.1
		c0.4-5.5,1.6-11.1,2.8-17c3.2-13.9,9.1-27.7,17.4-39.2C-439.8,232.8-430.3,218.6-420,202z M-450.5,283.5l0.4-1.2
		c5.9-13.9,15-27.3,27.7-41.6c2-2.4,4-4.4,5.9-6.3c6.3-7.1,13.1-14.3,18.6-22.6c-1.6,10.7-4.4,21.4-10.7,30.9
		c-3.2,4.8-7.1,9.5-10.7,14.3c-4.8,5.5-9.5,11.5-13.1,18.2c-7.5,13.5-13.1,29.3-16.6,49.1c-1.2,5.9-2,12.3-2.4,19.4
		C-454.4,323.1-454.4,302.9-450.5,283.5z M-382.4,150.9c-2,7.5-2.8,15.8-2.4,24.2c-1.2-4-2.4-8.3-3.2-12.7
		c-1.2-6.7-3.6-23.8,2.4-34.5l0,0c0-0.4,0.4-0.4,0.4-0.8l0.4-0.4c0.8,1.2,1.6,2.4,2.8,3.6C-383.5,138.6-383.5,144.9-382.4,150.9z
		 M-677.8,246.3c-1.2-5.1-2.8-10.7-3.6-15.8c-2.4-13.5-2.4-26.1-0.4-36.8c10.3-25.3,17.8-47.5,20.2-70.5c0.8,5.5,0.8,10.3-0.8,14.7
		C-674.2,171.5-679.4,208.7-677.8,246.3z M-695.6,265.7c-3.6-12.3-0.4-25.3,3.2-37.6c0,7.1,1.2,13.9,4,20.2c1.2,2.8,2.4,5.1,3.6,7.9
		c2.4,4.8,4.4,9.1,5.5,13.9l-0.4,0.8c-2,4.4-4,9.1-5.5,13.5C-690.4,278-693.6,272.1-695.6,265.7z M-417.2,82.4
		c6.7,5.9,14.3,10.3,21.8,14.7c6.3,3.6,12.7,7.1,18.2,11.5l0,0c-0.4,2.4-1.2,5.1-2,7.5c-0.4,2-1.2,4.4-1.6,6.3
		c-3.2-9.5-8.7-17-16.2-23c-2.8-2-5.5-4-8.3-5.9c-8.3-5.5-15.8-11.1-22.2-19.8c-4-5.5-6.7-11.1-9.5-17.4
		C-431.9,66.9-425.5,75.2-417.2,82.4z M-410.1,120.4c0,3.6,0.4,7.5,0.4,11.1c0,5.1-1.2,9.5-2.8,14.7c0-0.4,0-1.2,0-1.6
		c0.4-2,0.4-3.6,0.4-4.8c0-0.4,0-0.8-0.4-1.2c-0.4-17-4-34.1-10.7-50.7c1.6,1.2,3.2,2.8,4.4,4l2,1.6c2.4,2,4.8,4.4,7.1,6.3
		C-410.9,106.1-410.5,113.7-410.1,120.4z M-669.9,10.3c3.6-6.3,7.1-12.7,9.9-19.4c4-1.2,7.9-2,12.3-2.8
		C-655.6-4.8-662.7,2.8-669.9,10.3z M-505.9,10.7h-0.4c-2,0-3.2-0.4-3.2-1.2c-0.4-1.2,1.2-3.2,4-4.4c4.4-2,9.1-2.8,13.5-3.6
		s9.5-2,14.3-4c0.8,1.6,1.6,2.8,2.4,4.4C-484.1,4.8-501.6,10.7-505.9,10.7z M-666.7,92.3c2,5.5,4.4,10.7,4.4,15.8
		c-1.2-3.2-2.8-5.9-4-8.7c-2.4-4.8-4.4-9.5-5.9-13.9c-0.4-1.2-0.8-2.4-1.2-3.6c0-0.4,0-0.8-0.4-1.2c-2.8-11.5-2.8-24.6,0-39.2
		c7.5-14.3,16.6-28.5,26.9-43.6c-1.6,9.9-3.6,18.6-6.7,26.9c-4.4,1.2-9.1,2.4-11.9,4.8c-0.4,0.4-0.4,0.8-0.4,1.2
		c-1.6,4.8,1.2,11.1,2,13.1c0,0.4,0.4,0.8,1.2,0.8c-5.1,8.3-7.5,19.4-8.3,27.3C-671.8,79.2-669.1,85.9-666.7,92.3z M-668.3,104.1
		c0.8,1.6,1.2,2.8,2,4.4s1.2,2.8,1.6,4.4c-0.4,17.8-4.4,34.5-9.5,49.5c0,0,0,0,0-0.4c5.1-22.6,6.3-44,2.8-63.8
		C-669.9,100.2-669.1,102.2-668.3,104.1z M-685.7,83.2c0,10.7,0,20.6-1.2,31.3c-1.6,13.9-3.6,28.5-7.1,45.5l-0.4-2.4
		c-3.2-13.9-6.3-28.1-7.5-42.4c1.6-8.7,4.4-18.2,7.9-28.5c3.2-9.1,7.1-17.8,11.1-26.5c-1.6,6.7-3.2,13.5-3.2,21L-685.7,83.2z
		 M-502.7,28.5c-5.5,2.8-8.7,7.1-11.9,11.5c-0.8,0.8-1.6,2-2,2.8c-1.2,1.6-2,2-2.4,2c0,0-0.4,0-0.8-0.4c-1.6-2-2-9.5-1.6-12.7
		c17-7.9,33.7-12.3,49.9-12.3c1.6,0,3.2,0,5.1,0l0.4,0.8c-1.6,0-3.2-0.4-5.1-0.4C-483.7,20.2-495.2,24.6-502.7,28.5z M-515.8,47.1
		v-0.4c1.6-1.6,3.2-3.6,4.4-5.5l0.4-0.8c3.6-5.1,7.9-8.3,14.7-11.1c5.9-2.4,15-5.5,24.6-5.5c2.4,0,4.8,0.4,6.7,0.8
		c1.2,2.4,2.8,5.5,4,8.7c1.2,2.4,2,5.1,2.8,7.5c1.2,3.6,2.4,7.1,4,10.3c4.4,8.7,10.7,17,20.2,26.5c-2,9.9-11.9,15.8-19.4,19.4
		c-11.9,5.9-26.5,5.5-40.4-0.8C-511.5,88.7-520.2,69.3-515.8,47.1z M-525.3,31.7c0,1.2-0.4,2.4-0.4,4c-2.8-0.4-5.1-0.8-8.3-0.8
		c-5.1,0-10.3,0.8-15,1.6c-0.4-1.6-0.8-3.6-1.2-4.8C-541.5,29.3-534,29.3-525.3,31.7z M-605.3,22.6c11.5,0,22.6,0.8,32.5,2.4
		c4.8,0.8,10.7,2,16.2,5.1c0.8,0.4,1.6,1.2,2,1.6c0,0.4,0.4,0.4,0.4,0.4c1.2,1.6,2,3.6,2,6.3c0.4,1.2,0,2.4-0.4,2.8
		c-0.4,0.8-1.6,1.2-2.8,1.2c-0.4-0.8-0.8-1.6-1.6-2.4c-9.5-15.8-35.6-17.8-46.3-17.8c-1.2,0-2.8,0-4,0c-10.3,0.4-20.2,2.8-27.7,7.5
		c-7.5,4.4-9.1,10.7-11.1,17.8c0,0.4,0,0.4-0.4,0.8c-2-3.2-4.4-6.7-7.5-7.5c-1.6-0.4-2.8-0.8-4-0.8c-0.4,0-0.4,0-0.8,0h-0.4
		c-0.4,0-0.8,0-1.2,0s-0.4,0-0.8-0.4c-1.2-1.6-1.6-6.3-1.2-7.9c3.2-2.4,8.7-3.6,13.5-4.4c1.6-0.4,3.2-0.8,4.4-0.8
		c9.5-2.4,19.8-4,30.5-4.4C-610.8,22.6-608.1,22.6-605.3,22.6z M-642.1,49.1c1.2-4.8,2.4-9.5,6.3-13.5c4.8-4.8,12.3-6.3,19-7.9
		c4.8-0.8,9.5-1.6,14.3-1.6c10.3,0,20.6,2.4,30.1,6.3c5.9,2.8,10.7,6.7,13.5,11.5l0,0c3.6,13.5,1.2,27.7-6.3,38.8
		c-7.1,10.3-17.4,16.6-29.7,18.2c-1.6,0-3.2,0.4-4.8,0.4c-24.9,0-42.4-25.3-42.8-49.1c0-0.4,0-0.8-0.4-0.8
		C-642.9,50.7-642.5,49.9-642.1,49.1z M-438.6,114.4l0.4-1.2c2-8.3,3.6-15.8,2.8-23.4c0-0.4,0-0.8-0.4-0.8c1.6-2,2.8-4,3.6-5.9
		c0.4,3.2,0.4,6.7,0.4,9.9v2c0,9.1-1.2,16.2-4,22.2c-2.4,5.5-5.5,10.7-8.3,15.8C-441.4,127.1-439.8,120.8-438.6,114.4z M-642.1,22.6
		L-642.1,22.6c-1.6,0.4-3.2,0.8-4.8,1.2c-0.8,0-1.2,0.4-2,0.4c2-5.1,3.2-10.7,4.4-15.8c0.4-2,0.8-4,0.8-6.3
		c0.4-5.1,1.2-10.3,4.4-13.9C-640.9,0.8-642.5,11.5-642.1,22.6z M-670.2,28.9c2-7.1,4.8-13.9,7.9-21c0-0.4,0-0.4,0-0.8
		c5.5-5.5,11.1-11.1,16.6-16.6C-654.8,4-663.1,16.6-670.2,28.9z M-669.1,14.7c-3.6,8.7-5.9,17.4-7.5,26.1
		c-9.1,17-16.2,33.3-22.6,50.3c-1.2,3.2-2,6.3-3.2,9.5c0.8-13.1,5.1-26.5,9.1-39.6c1.6-4.4,2.8-9.1,4-13.5c3.2-8.7,7.1-16.6,10.7-23
		C-675,21-672.2,17.8-669.1,14.7z M-703.9,131.1c1.6,8.7,3.6,17,5.5,25.3c0.8,4,2,7.9,2.8,11.9c-0.4,2.4-0.8,4.4-1.6,6.7
		c-0.4,2-0.8,4-1.6,5.9c-4-11.1-4.4-23.8-5.1-34.8v-3.6C-703.9,138.6-703.9,135-703.9,131.1z M-468.3,200.4V200
		c4-13.9,7.9-26.9,13.9-39.6c2.8-6.3,6.7-12.3,10.3-18.2c5.9-9.5,11.9-19.4,14.7-30.1c1.2-4.4,2-9.5,2.4-14.7
		c3.6,28.1-9.1,59-23,85.9c-6.7,13.5-14.7,26.5-24.2,40.8c-0.8,1.2-1.6,2.4-2.4,3.6c-1.2,1.6-2,3.2-3.2,5.1
		C-475.4,222.2-471.5,211.5-468.3,200.4z M-386.3,118c-0.8-1.2-2-2.4-2.8-3.6c-4.8-5.9-10.3-11.1-15.8-15.8
		C-396.2,104.1-390.3,110.5-386.3,118z M-682.1,84.3c-0.4-7.9,0.8-15.8,3.2-24.2c0,5.5,0,10.7,0.8,15.8c0.4,1.6,0.8,3.6,1.2,5.9
		c-2,7.1-4,15-5.5,23.4C-681.7,97-681.7,90.3-682.1,84.3z M-631.8,230.9c-0.8-2.4-1.6-4.4-2-6.7c-2.4-8.3-4-17-5.5-25.7
		c-2.4-11.5-4.8-23-8.3-34.1c7.5,10.3,12.7,21,15.8,31.7C-628.7,208.3-629.9,220.2-631.8,230.9z M-621.9,259.4
		c-1.6-6.7-4-13.1-6.3-19c-0.4-1.2-0.8-2-1.2-3.2v-0.8c0.4-0.8,0.4-2,0.8-2.8c3.6-15.8,3.6-28.1-0.4-40.8
		c-3.6-11.9-10.3-24.2-21-37.2c0,0,0,0-0.4-0.4c-0.4-10.7-1.2-21.8-2-32.1c-2-24.6-4-50.3,1.2-75.2c1.2,1.6,2.4,3.2,3.6,4.8l0.4,0.8
		v0.4c2.8,21.4,0.4,41.6-2.4,59c-2.4,15.8-1.2,30.5,3.2,44.4c1.2,6.3,5.9,10.7,9.9,15.4c2,2,4,4.4,5.5,6.3
		c9.5,12.7,13.9,30.1,15.8,39.6c1.6,8.3,2.4,17,1.6,27.3c0,0.4,0,0.4,0,0.8v2c-0.8,11.1-3.2,22.2-5.5,32.9
		C-619.2,273.6-620.4,266.1-621.9,259.4z M-640.5,77.2c8.3,17,24.2,28.1,42,28.1c2,0,3.6,0,5.5-0.4c7.5-0.8,14.3-3.6,20.2-8.3
		c-1.6,3.6-1.2,8.7,0.8,12.7c0.4,0.8,1.2,2,2,2.8l0,0c-0.8,0-1.2,0.4-1.6,0.8c-0.4,0.4-0.4,0.8-0.4,1.2v0.4c0,0.4,0,0.4,0,0.8
		s0,0.8,0.4,1.2c0.4,0.4,0.8,0.4,1.2,0.4s0.4,0,0.8,0c0.4,0,0.8,0,1.2-0.4s0.4-0.4,0.8-0.8c0-0.4,0.4-0.8,0.4-0.8c0-0.4,0-0.4,0-0.8
		c1.6,1.2,3.6,1.6,5.5,1.6l0,0c1.2,0,2.4,0,3.6-0.4c0.8-0.4,1.2-1.2,1.2-2c0-1.2-1.2-1.6-2.4-1.6c-3.6,1.2-7.1-0.4-9.1-4.4
		c-2-3.6-2-7.5-0.4-10.3c0.4-0.4,0.4-1.2,0-1.6s-0.8-0.8-1.2-0.8c2.4-2,4.8-4.4,6.7-7.1c7.9-11.1,11.5-25.7,9.5-39.2
		c0.4,0,0.8,0,1.2,0c3.2-0.4,4.8-3.2,4.8-7.9c4.8-0.8,9.5-1.6,14.7-1.6c3.2,0,5.5,0.4,8.3,0.8c0.4,6.7,2.4,10.3,5.5,9.9
		c-3.6,23.4,6.7,43.6,26.5,51.5c13.9,5.5,27.7,5.9,39.2,0.8c6.3-2.8,11.5-5.9,15-9.1c0.4,12.3-3.6,25.7-7.9,38.4
		c-4.8,13.9-12.3,27.7-22.6,41.2c-8.7,11.1-19.4,19.8-33.7,27.3c-9.9,5.1-23,11.1-36.4,11.1c-4,0-8.3-0.4-11.9-1.6
		c-13.5-4-27.3-9.9-40.4-18.6c-6.7-4.4-13.5-9.9-20.6-16.6c-5.9-5.9-8.7-12.7-11.1-21.8c-5.1-19.4-9.5-39.6-13.5-59
		C-638.2,87.1-639.4,82.4-640.5,77.2z M-481,240L-481,240c13.5-18.2,25.7-38.4,36.4-59.8c10.3-21.4,22.2-49.1,21.4-78.4
		c0-2-0.4-3.6-0.4-5.5c5.9,16.2,8.3,32.9,7.5,49.5c-2.8,18.2-13.1,36.4-30.9,54.3c-11.9,11.9-24.9,24.9-31.7,42.8
		c-0.8,0.4-1.6,0.4-2.8,0.8c-0.4,0-0.8,0-1.6,0.4c-0.4,0-0.4,0-0.8,0C-482.9,242.7-481.8,241.2-481,240z M-474.6,241.6
		c0.4-0.8,0.4-1.2,0.8-1.6c5.5-13.1,15.8-23.4,25.7-33.3c4.4-4.4,9.1-9.1,13.1-13.9c5.5-6.3,10.3-13.1,13.9-20.2
		c-1.2,3.2-2.8,6.7-4.4,9.9c-5.5,11.1-13.5,21.4-21,31.3c-3.6,4.4-7.1,9.1-10.3,13.9c-1.6,2.4-3.6,4.8-5.1,7.5
		c-2.4,1.6-4.8,3.2-7.1,4.4C-471.1,240-472.6,240.8-474.6,241.6z M-431.9,199.2c-6.3,11.1-12.7,20.2-20.2,27.3
		c0.4-0.4,0.4-0.8,0.8-0.8c2.8-4,5.9-7.9,8.7-11.9C-439,209.1-435.4,204.3-431.9,199.2z M-449.7,19.8c-1.6-4-2.8-7.9-4.4-11.9
		C-452.4,11.9-451.3,15.8-449.7,19.8z M-431.9,74.1l0.4,0.4c-7.5-7.5-13.5-15-18.6-23.4c-2-4-3.6-7.9-4.8-11.9
		c-0.8-2.8-1.6-5.1-2.8-7.9c-1.6-4-3.6-7.9-5.5-11.9l-0.8-1.6c-2.4-4.8-5.1-10.3-7.5-15.4V2c0-0.4-0.4-0.4-0.4-0.8
		c-1.2-2.4-2.8-4.8-4-7.1v-0.4c0,0,0-0.4-0.4-0.4c-2.8-5.1-5.5-9.9-8.7-14.3c3.6,0.4,6.7,0.8,9.9,1.2c0,0,0,0,0.4,0.4
		c11.1,11.1,17,27.7,22.2,42.8l1.2,3.2c1.2,3.6,2.4,7.1,3.6,10.3C-443.3,49.9-439,63-431.9,74.1z M-493.2-2.4c-4.8,0.8-9.5,2-13.9,4
		s-7.1,5.5-6.3,8.7c0.4,1.2,1.6,4.4,7.1,4.4h0.4c5.9,0,26.5-7.1,32.1-9.1c2,3.6,3.6,7.1,5.1,10.7c-1.2,0-2,0-3.2,0
		c-16.6,0-33.7,4.4-51.5,12.7c-10.3-3.2-19-3.2-28.9,0.4c-5.1-5.1-14.7-6.7-21-7.5l-1.6-0.4c-8.7-1.6-18.2-2-29.7-2
		c-3.6,0-7.5,0-12.3,0.4c-6.7,0.4-14.3,1.2-22.2,2.8c0-3.6,0-7.1,0.4-10.7c0,0.4,0.4,0.8,0.4,0.8c0.4,0.4,1.2,0.8,2,0.4
		c1.6-0.4,2.8-0.8,4-1.6c9.1-3.2,17.4-5.9,26.5-5.9c4.4,0,8.3,0.8,12.3,2c2.4,0.8,5.1,2,7.5,3.2s5.1,2.4,7.9,3.2l0.8,0.4
		c2,0.8,5.5,1.6,8.7,1.6c4,0,6.7-1.6,8.7-4.8c0.8-1.2,0.8-2.8,0-4c-1.6-4-8.3-6.3-12.3-7.9c-0.8-0.4-1.2-0.4-1.6-0.8
		c-10.3-4.4-24.2-9.1-38-8.3c-9.5,0.4-24.6,10.3-27.3,19.8c0.8-8.3,2-16.2,3.2-24.6c29.3-5.5,59.8-8.7,91.1-8.7h2.4
		c17.4,0,35.2,0.8,52.3,2.8c3.2,4.4,5.9,9.1,9.1,15C-484.5-4-488.9-3.2-493.2-2.4z M-635.8,11.5L-635.8,11.5L-635.8,11.5
		L-635.8,11.5z M-632.6,7.1c4.8-6.7,15.4-13.1,21.8-13.5c13.1-0.8,26.1,4,36.4,8.3c0.4,0,1.2,0.4,1.6,0.8c2.8,1.2,9.1,3.2,9.9,5.5
		c0,0.4,0,0.4,0,0.8c-1.2,1.6-2.8,2.4-5.1,2.4c-2.8,0-5.5-0.8-7.5-1.6l-0.8-0.4c-2.4-0.8-4.8-2-7.1-3.2s-5.1-2.4-7.9-3.2
		c-4.4-1.6-9.1-2-13.5-2C-614.8,1.2-623.5,4-632.6,7.1z M-682.1,252.6c-6.3-12.7-7.9-25.7-4.4-40.8c0,8.3,1.2,17.4,3.2,27.3
		c0.8,4,2,8.3,3.2,12.3c0.8,3.6,2,7.1,2.8,11.1C-679,259-680.5,255.8-682.1,252.6z M-659.2,139.8c2.4,15.8-1.6,31.3-5.5,47.1
		c-1.2,4.8-2.4,9.5-3.6,14.3l-0.8,3.6c-2,9.1-4,18.6-5.1,27.7c0,0.8,0,1.6,0,2.4C-674.6,202-669.5,169.5-659.2,139.8z M-670.6,241.6
		c0-2.4,0-4.8,0-7.1c0.4-9.5,2.8-19.4,4.8-28.9c0.8-3.2,1.6-5.9,2-9.1c0.8-4.4,2-8.3,3.2-12.7c4.4-17.4,8.3-33.7,3.6-51.9
		c0-0.4,0-0.4-0.4-0.8c0.4-5.1-0.4-10.3-2.4-16.6c0,0,0,0,0-0.4c2.4-8.3-0.8-16.2-4-23.8c-1.2-3.6-2.8-6.7-3.6-10.3
		c-1.6-5.5,0.4-12.3,2-18.2l0.4-1.2c1.6-6.3,3.6-12.3,7.5-17.4c1.2,0,2.4,0.4,3.2,0.8c-4.4,21-5.1,44.7-2,74.1
		c0.4,2.4,0.4,4.8,0.8,7.5c1.2,11.5,2.4,23.4,2.4,35.2c0,15-2,30.9-6.7,49.1c-3.2,12.7-7.1,25.3-10.7,36
		C-670.6,245.5-670.6,243.5-670.6,241.6z M-639.8,236.4c-0.4-7.5-1.6-15.4-2.8-23c-0.8-4-1.2-7.9-1.6-11.9c-0.4-2-0.4-4.4-0.8-6.3
		c-0.4-3.6-0.8-7.5-1.6-11.5c1.2,5.5,2.4,11.5,3.6,17c1.6,7.5,3.2,15.4,5.1,23c1.2,4.8,2.8,9.1,4.4,13.5c-0.4,1.2-0.4,2.4-0.8,3.6
		c-1.6,5.9-3.2,11.9-5.1,19.4C-639,252.3-639,244.3-639.8,236.4z M-650.4,172.3c0-1.2,0-2,0-3.2c0.8,2.8,1.6,5.5,2.4,8.3
		c-0.4-1.6-1.2-3.2-2-4.4C-650.1,172.7-650.1,172.3-650.4,172.3z M-626.7,164.7c4.8,8.7,9.1,19,12.7,30.1
		C-619.2,185.7-623.1,175.8-626.7,164.7z M-636.6,113.3c0.4,2.4,1.2,5.1,1.6,7.5c2.8,13.5,5.5,27.3,10.3,40.4
		c-1.6-2.8-3.6-5.9-5.1-8.3c-0.8-2.8-1.2-5.5-2-8.7C-633.8,133.8-635,123.2-636.6,113.3z M-467.1,242.7c-5.9,9.1-9.9,17.4-13.5,25.7
		c0.8-7.9,2-15.4,4.4-21.8C-473.4,245.5-470.3,244.3-467.1,242.7z M-388.3,122c0.4,0.4,0.8,1.2,1.2,1.6l0,0c0,0,0,0.4-0.4,0.4l0,0
		l-0.4,0.4l-0.4,0.8c-0.4,0.4-0.8,1.2-0.8,1.6c-2.4,4-4.4,8.3-5.9,13.1C-393.4,133.8-391.5,127.9-388.3,122z M-688.9,37.2
		c-1.2,3.2-2.4,5.9-3.6,8.7c-1.2,4.4-2.8,8.7-4,12.7c-4.4,13.5-8.7,27.7-9.5,42c-0.4,4.8-0.4,9.5,0,15c-1.6,9.5-2,19-1.6,28.9v1.6
		c0.8,11.5,1.2,24.2,5.1,35.2c-1.6-2-3.2-4-4.4-6.3c-4-9.9-7.1-19-9.5-27.3c-4.4-14.3-5.5-29.7-4.4-45.5c2-8.7,4.8-17.8,8.7-26.9
		C-706.3,63-698.8,50.3-688.9,37.2z M-626.7,255.4c2.4,7.9,3.6,16.6,3.6,25.3c0,4-0.4,8.3-0.8,12.3c-0.4,4-0.8,8.3-0.8,12.3
		l-0.4,1.2c0,0.8,0,1.2,0.4,1.6c0.4,1.2,2,1.6,2.8,0.8c-2.8,9.9-6.3,19.8-11.9,27.7l-10.7,8.7c15-23.8,21-57.4,16.6-92.7
		C-627.5,253.4-627.1,254.2-626.7,255.4z M-591.4,194.4c13.5,8.7,28.5,15.4,44.4,19c2.8,0.8,5.1,0.8,8.3,0.8c11.5,0,23-5.1,33.3-9.5
		h0.4c3.2-1.6,6.3-3.2,9.5-4.8c-1.2,4-3.2,7.5-5.1,11.5c-0.4,0.8-0.8,2-1.6,2.8c-2.8,5.5-4.4,11.9-5.5,17.4
		c-1.2,5.1-2,10.3-2.4,15.8c-8.7,4.8-18.6,7.1-28.5,7.1c-12.3,0-24.6-4-34.5-11.5c-0.4-14.7-6.7-30.9-18.6-49.1L-591.4,194.4z
		 M-372.1,252.3v-3.2c1.6-15.8,0.4-30.1-3.2-43.2c-1.6-5.5-3.6-11.5-5.1-16.6c-1.2-9.9-1.2-20.2,0-29.7c3.2,11.5,8.3,23,15,33.7
		c4,6.3,6.3,11.9,7.5,17.8c-1.2,17.8-8.3,35.6-14.7,51.9C-372.5,259-372.1,255.4-372.1,252.3z M-367.3,123.9c0-0.8,0.4-1.2,0.4-2
		c3.2,10.3,0.8,23-4,32.9c0-0.8-0.4-1.6-0.4-2C-372.1,143-369.7,133.5-367.3,123.9z M-363.3,120c-1.6-6.7-7.5-11.9-13.1-15.4
		c-5.5-4-11.9-7.5-17.8-10.7c-2.4-1.6-5.1-2.8-7.5-4.4c-19.8-11.5-32.5-29.3-40.4-55.8l-0.4-0.8c-3.2-10.3-5.9-19.8-10.3-29.3
		l-1.2-2.8c-2.8-6.3-5.9-12.3-9.9-17.8c1.6,0.4,3.2,0.4,4.8,0.8l0,0c14.7,7.1,21.8,25.3,27.7,40.4l0.8,2c0.8,2.4,2,4.8,2.8,7.1
		c4.8,12.3,9.5,24.6,16.6,35.6c7.1,10.7,17.4,17.8,27.3,24.6c4,2.8,7.5,5.1,11.5,7.9c5.5,4,11.5,7.9,17,11.9
		c2.8,12.3-3.6,30.5-10.7,40.4l0,0C-362.2,142.6-361,129.9-363.3,120z M-352.3,125.5c0.8-5.1,0.8-9.5,0-13.1c0-0.4,0-1.2-0.4-1.6
		c-0.8-2.8-1.6-5.1-3.2-7.9c-4.4-7.1-10.7-13.5-16.6-19l-1.6-1.6c-3.2-3.2-6.3-5.9-9.9-9.1c-11.9-10.7-23-21-32.5-34.1
		c-10.7-14.3-16.6-29.7-23-46.3c-0.8-2.4-1.6-4.4-2.8-6.7c2.4,0.4,4.8,1.2,7.1,1.6c2.8,14.7,12.3,28.5,22.2,41.2
		c4.8,5.9,9.1,11.9,13.5,17.8c6.3,8.3,12.7,16.6,19,24.6c5.1,6.3,11.1,13.1,17.8,19.4c7.9,7.9,12.7,14.7,12.7,24.9
		c0,5.9-1.6,11.9-4.8,18.6C-353.1,131.5-352.7,128.3-352.3,125.5z M-347.9,85.1c0.4-0.4,0.4-0.8,0.4-1.6
		c-2.8-8.7-6.3-17.8-10.3-26.9c5.5,7.1,10.7,14.3,13.9,23c2,5.5,3.2,11.9,3.2,18.2c-1.2-3.6-3.2-7.5-5.5-11.1
		C-346.7,86.3-347.1,85.9-347.9,85.1L-347.9,85.1z M-384.7,0.4L-384.7,0.4L-384.7,0.4L-384.7,0.4z M-682.9,9.5
		c-2.8,5.1-5.9,10.3-9.1,15.4c1.6-2.8,3.2-5.5,4.8-8.3C-685.7,14.3-684.5,11.9-682.9,9.5z M-695.2,36.4C-686.5,23.3-677.8,9.9-673-6
		l2-0.4c2.4-0.8,4.4-1.2,6.7-2c-3.6,7.9-7.9,15.8-12.3,23.4c-1.6,2.8-3.2,5.5-4.8,7.9c-14.7,16.6-24.9,32.5-32.5,48.7
		c4.8-13.5,11.9-24.9,18.2-34.5L-695.2,36.4z M-705.9,208.7c2.4-4.4,4.4-9.1,6.7-13.9c0,0,0.4-0.4,0.4-0.8l0.4-0.4
		c0-0.4,0.4-0.8,0.4-1.2c2.4-5.9,4-12.3,5.5-19.4c3.6-15.8,5.9-30.5,7.9-44.4c0,2.8,0,5.9,0,8.7c0,3.6,0.4,7.1,0,10.7
		c-0.4,13.5-4.4,25.3-9.1,37.2c-5.1,13.9-10.7,24.6-17,33.3c0,0.4-0.4,0.4-0.4,0.8C-709.5,215.8-707.9,212.3-705.9,208.7z
		 M-687.3,179.4c4-10.7,5.9-20.6,6.3-30.9c0-4,0-7.9,0-11.9c-0.4-5.1-0.4-10.7,0-15.8c0.8-9.1,2.8-19,5.1-28.5
		c5.1,23.4,4,48.3-4,78.4c-0.8,2.4-1.2,4.8-2,7.1c-1.6,5.1-2.8,10.3-4,15.4c-1.6,4-3.2,7.5-4.8,11.5l-1.6,3.6
		c-1.2,3.2-2.8,6.7-4,9.9c-4.8,12.3-9.9,24.9-17.4,36.4c-1.6,2.4-2.8,4.4-3.6,6.7c0,0.4-0.4,0.4-0.4,0.8c-0.8,2-1.2,4-1.6,5.9
		c-2-11.1-1.2-23.8,2.8-34.5c1.6-4.8,5.1-9.5,8.7-13.9c2.4-2.8,4.8-5.9,6.3-9.1C-695.2,200.4-691.2,189.7-687.3,179.4z
		 M-716.2,284.3l0.4,0.4c0.8,1.2,1.2,2.8,2,4c0.4,0.8,1.2,0.8,2,0.8c2,7.5,4.8,15,7.1,22.6c-5.5-8.3-11.5-19-15.4-31.3
		c-1.6-4.8-2.4-9.5-2.4-14.7C-721.7,272.8-719.4,279.2-716.2,284.3z M-712.6,260.6c0.4-0.4,0.8-1.2,0.8-2c0,8.3,2.8,16.2,5.9,24.2
		c1.2,3.6,2.8,7.1,3.6,11.1c2.4,7.9,3.2,15.8,3.2,23.4c-0.4-0.8-0.4-1.6-0.8-2.4c-5.9-17-11.9-34.5-13.5-52.7
		C-713.4,261.4-713,261-712.6,260.6z M-696.4,306.1c-1.2-8.3-3.6-16.6-5.9-23.4c-0.4-1.6-1.2-3.2-1.6-4.8c-3.2-8.3-5.9-17-4-26.1
		c0-0.4,0-0.4,0-0.8v-0.4c2-3.6,4.4-7.1,5.9-10.7c2-4,3.6-7.5,5.1-11.9c-2.4,9.1-4.4,18.2-4.4,27.7c0,11.1,4.8,22.2,13.1,31.7
		l0.4,0.4c-0.8,2-1.2,4-2,5.5c-3.2,11.1-4,23.4-4,34.5c-1.6,4.8-4,8.7-6.7,12.3C-696,330.3-694.8,318.8-696.4,306.1z M-649.7,214.6
		c-0.8-10.3-1.2-21-0.8-31.3c0.8,4.4,1.2,9.1,2,13.5c0.4,2.4,0.4,4.8,0.8,7.1c0.4,2.8,0.8,5.5,1.2,8.3c0.8,6.7,1.6,13.5,2.8,19.8
		c2,11.5,1.2,23.4,0.4,34.8c-0.4,3.2-0.4,6.3-0.4,9.1l-1.6,5.1c-4,13.1-7.9,26.1-11.5,39.6c-0.4-1.2-0.8-2-1.2-2.8
		c-0.8-2-2-4.4-3.6-6.3c1.6-9.1,4-17.8,5.9-26.5c2-7.9,4-15.4,5.1-22.6C-647.7,246.3-648.5,230.1-649.7,214.6z M-640.9,293
		c0-5.9,0.4-11.5,0.8-17.4v-0.8c2.4-8.3,5.1-17.4,7.5-26.5c4,31.7,0.4,55-12.3,72.5C-641.7,311.7-640.9,301.8-640.9,293z
		 M-614,288.7c2.4-14.7,4-28.9,4-42.4v-0.4c0.4-8.3,0.4-16.2-0.8-23.4c-1.6-11.5-5.5-23.4-12.7-37.6c-2-4-4.4-8.3-8.3-12.7
		c-0.8-1.2-2-2-3.2-3.2c-3.6-4-7.5-7.9-8.3-13.1c-5.9-17.8-4.8-33.7-2.4-48.3c0.8-5.9,1.6-11.9,2-17.8c0.8,4.4,1.6,9.1,2,13.9
		l0.8,7.5c1.2,9.1,2.4,18.6,4,28.1c0.8,4.4,1.6,9.1,2.8,13.1c0,0.4,0,0.4,0.4,0.8c4.8,19.8,11.5,36.4,21,50.7c0.8,0.8,1.2,2,2,2.8
		c2.8,10.7,5.1,21.8,6.7,34.8c2,12.7,2.8,23.8,2.8,33.7c-0.4,0.4-0.4,0.8-0.4,1.2c-1.2,21.4-11.5,43.2-27.3,57.8
		C-620.4,321.2-616.8,304.1-614,288.7z M-604.5,215c2.4,3.2,4.8,5.9,6.7,9.5c5.9,9.9,10.3,23,11.1,33.7c0.4,9.1-2.4,18.6-5.1,26.9
		l-0.4,1.2c-2,6.7-4.8,13.5-7.5,20.2c4.8-19.8,3.2-42.4,0.8-61C-600.6,234.8-602.5,224.5-604.5,215z M-584.7,285.9
		c-2.8,6.7-6.7,13.5-11.5,20.6c6.7-15,10.7-29.3,12.3-42.8c1.2-9.5-2.4-19.8-5.1-28.5c-3.6-9.9-9.5-18.2-14.3-24.2
		c-1.2-1.6-2.4-2.8-3.6-4.8c-3.2-12.7-7.5-24.2-12.3-34.5c2.4,3.6,5.9,6.7,9.9,10.3c9.9,18.2,21.8,40.8,28.9,64.2
		c1.6,5.9,2.8,10.7,2.8,15.4c0.4,7.5-3.2,15.8-6.3,23.4L-584.7,285.9z M-599,189.3c0,0.4,0,0.8,0.4,1.2c13.9,20.2,21,37.6,21.8,53.1
		c-5.5-19.8-15-38.4-24.9-56.6C-601.3,187.7-600.2,188.5-599,189.3z M-503.9,229.7c1.2-5.5,3.6-11.1,5.9-16.2
		c2.4-5.1,5.1-10.7,6.3-16.6c2.4-1.6,4.8-3.2,7.1-5.1c-6.3,13.5-12.7,26.5-16.2,41.2c-4.8,18.2-4.4,36.8-3.2,52.7
		c0,2.4,0.4,5.1,0.8,7.5c-1.2-6.7-2.4-13.9-3.2-20.6C-507.9,258.2-507.1,243.9-503.9,229.7z M-497.6,236.4
		c3.2-15.4,10.3-29.7,16.6-43.2c1.2-2.4,2-4.4,3.2-6.7l0,0c2.8-2.4,5.5-5.1,7.9-7.9c-1.2,2.8-2.4,5.5-3.6,7.9c-0.8,2-2,4.4-2.8,6.3
		c-5.5,11.9-11.5,26.5-15,43.2c-5.5,26.5-6.7,50.7-4.8,72.5c0.8,6.3,1.6,12.3,2.8,17.8c-3.2-11.1-5.1-23.4-6.3-38
		C-501.9,268.5-501.2,251.5-497.6,236.4z M-478.6,353.2c-1.6-2.4-3.2-4.8-4.4-7.1c-6.3-10.3-7.9-24.2-9.1-36.4v-1.6
		c-2.4-21-0.8-44.4,5.1-74.1c3.2-15,8.7-28.1,15-41.6c0.8-2,1.6-3.6,2.4-5.5c2-4.8,4.4-9.5,6.7-14.3c-2.8,7.9-5.1,15.8-7.5,23.8
		l-0.4,1.2c-4.8,16.2-10.7,31.7-17.8,46.7v0.4v0.4v0.4c0,0.8,0.4,1.6,1.2,1.6h0.4c2,0.4,4.4,0.4,7.1,0c-7.1,22.6-4,47.9-0.8,70.5
		c0.4,3.6,0.8,7.5,1.2,11.1c1.2,9.1,2,19,4,28.1C-477,355.6-477.8,354.4-478.6,353.2z M-466.3,348.5c3.6,11.1,5.5,23.4,6.3,36.8
		c0-0.4-0.4-0.8-0.4-1.2c-1.2-4-2.4-7.5-4-11.5c-2.8-7.5-5.5-15.4-6.3-23.4c-0.4-6.3-0.4-12.7-0.8-19
		C-469.9,336.6-468.3,342.5-466.3,348.5z M-448.1,353.6v-0.4c-0.8-7.9,0.8-17,2.4-24.9l0.8-3.6c3.2-19,9.5-36.4,18.6-51.9
		c3.2-5.5,7.5-10.7,11.5-15.4c4-4.8,7.9-9.5,11.1-14.7c4-6.3,6.3-13.5,7.9-20.6c-0.8,9.5-2.4,19.8-6.7,29.3
		c-3.2,7.1-5.5,14.3-7.5,21.4c-1.6,4.4-2.8,9.1-4.8,13.5c-3.6,9.5-8.3,19-13.9,28.5c-1.6,2.8-3.6,5.9-5.5,8.7l-2,2.8
		c-0.4,0.4-0.8,0.4-0.8,0.8v0.4l0,0c-2.4,4-5.1,8.3-7.5,13.5C-446.5,344.5-447.7,348.9-448.1,353.6z M-388.3,345.3l-0.4,0.4
		l-0.4,0.8c-3.2,4-6.3,7.1-9.5,9.5c13.1-27.7,21.4-51.9,25.7-73.7c0.8-4.4,0.8-8.3,0.8-12.3c0.4,0,0.8-0.4,0.8-0.8
		c4-5.5,7.1-11.1,9.5-16.2c5.5,18.6,2.8,41.2-7.9,62.6c-4,7.5-8.7,15-13.1,21.8C-384.3,339.4-386.3,342.5-388.3,345.3z
		 M-346.3,122.8c3.6-17-6.7-27.7-17-38c-13.9-13.9-25.7-30.5-36.8-46.3l-1.6-2c-2.4-3.2-4.8-5.9-7.1-8.7c-3.2-4-6.7-7.9-9.5-12.7
		l-2-3.2c-4.8-7.5-9.1-14.3-10.7-23c2.4,0.8,5.1,1.2,7.5,2c2.4,11.9,10.7,21,18.2,30.1c1.2,1.6,2.4,2.8,4,4.4
		c5.9,6.7,11.9,13.9,17.4,20.6c6.7,7.9,13.5,15.8,20.2,23.8c12.7,15.4,28.5,34.8,17.8,56.6c-1.2,2.4-2.4,4.4-4,6.7
		C-348.3,129.5-347.1,125.9-346.3,122.8z M-390.7,1.2c1.6,0.8,3.2,1.2,4.8,2c2.4,5.5,6.3,10.3,10.7,15c1.2,1.2,2.4,2.8,3.6,4
		c4.4,5.1,7.9,10.3,10.7,15c2.4,4,3.2,9.1,3.6,13.9C-371.3,33.7-382,17.4-390.7,1.2z M-379.2,0c0,0.4-0.4,0.8-1.6,0.8
		c-0.8,0-1.6-0.4-2.8-0.8c-0.4-0.4-0.8-0.4-1.2-0.4c-0.8-0.4-1.6-0.8-2-0.8c-0.4-0.4-0.8-0.4-1.2-0.4c-3.6-1.6-7.5-2.8-11.1-4
		l-1.6-0.4c-5.5-2-11.9-3.6-19.4-5.5c-0.4-0.4-1.2-0.8-2-0.4h-0.4c-10.7-2.8-22.2-5.1-34.8-7.5h-0.4c-2.8-0.4-5.5-0.8-8.3-1.2h-1.2
		c-0.4,0-0.4,0-0.8,0l0,0c-24.2-3.6-49.1-5.5-74.1-5.5c-19.8,0-39.6,1.2-59.4,3.6c-11.5,1.2-23.4,3.2-34.8,5.5c-0.4,0-0.4,0-0.8,0
		h-0.4c-1.6,0.4-3.2,0.8-4.4,0.8h-0.4c-8.3,1.6-16.6,3.6-24.9,5.9c-0.4,0-0.8,0.4-1.6,0.4c-2.4,0.8-7.1,2.4-10.3,2.4
		c-1.2,0-1.6-0.4-1.6-0.8c0-1.2,0-2.4,0-3.2c0-5.9,0-12.3,0-18.6c0.4-9.1,1.2-15.8,2.4-21.8c2-10.3,9.1-12.3,18.6-15
		c16.2-4.8,32.5-8.7,50.3-11.9c25.3-4.8,50.3-7.1,73.7-7.1c28.9,0,57,3.6,84,10.3c12.3,3.2,25.7,7.1,41.6,13.1
		c7.5,2.8,13.5,5.1,18.2,9.9c4.8,4.8,6.7,11.5,8.3,17.4c2.8,11.1,3.2,22.6,4,33.7L-379.2,0z M-683.7,325.5
		c-0.8,7.9-1.2,15.8-0.4,23.4c-5.5-8.7-5.5-19-4.8-28.9c0.8-11.1,2.4-19.8,4.8-28.1c1.2,1.2,2.8,2.8,4,4c-0.4,2.8-0.8,5.5-1.2,7.9
		C-682.1,310.9-682.9,318-683.7,325.5z M-665.1,358c-5.9-10.7-9.5-24.2-10.3-39.6c-0.4-5.5,0-10.7,0.8-17c2.8,2.8,5.5,5.9,7.9,9.5
		c0.4,0.8,1.2,1.6,1.6,2.4c-3.2,17.4-4.8,38.4,6.3,55C-661.1,364.7-663.1,361.2-665.1,358z M-674.2,296.2v-0.8
		c0.8-7.5,1.6-15,1.2-22.6c0-2.4-0.4-5.1-0.8-7.9c2-5.1,4.8-11.5,6.7-17.8c4.8-14.7,9.1-29.3,12.3-42.8c0.4-1.6,0.8-3.2,0.8-4.4
		c0,3.2,0.4,6.3,0.8,9.5c0.4,3.6,0.4,7.1,0.8,10.7c1.2,19-0.4,36.8-4.4,55.4c-0.8,4.4-2,8.7-3.2,13.5c-1.6,6.3-3.2,12.7-4.4,19
		C-666.7,304.1-669.9,300.6-674.2,296.2z M-480.2,279.2c3.6-12.7,9.9-25.3,20.2-40.8c2.8-2,5.9-4.4,8.3-6.7
		c16.6-14.7,26.5-35.6,30.9-46.7c2.8-6.7,4.8-13.5,5.9-20.2l0.4-1.6c0.8-2.8,1.6-5.5,2.8-7.9l0.4-1.6c2-5.9,4.4-12.3,4.8-19
		c0.4-4.8,0-9.5-0.4-14.3c-0.4-5.9-0.8-11.9,0-17.8c4,3.6,7.1,6.7,10.3,9.5c2,2,4,4,5.9,7.1c0,0,0,0.4-0.4,0.4
		c-4.8,8.3-8.3,17.8-10.7,29.3c0,0.4-0.4,0.4-0.4,0.8v0.8c-0.4,2.4-0.8,5.1-1.6,7.9c-2,13.9-9.9,26.1-17.8,38.4l-2.4,4
		c-4.4,6.7-9.1,13.5-13.5,20.2c-13.5,19.8-27.3,40-33.3,63.8c-1.2,5.5-2.4,11.5-2.8,17c-2,4-2,9.5-2,14.3c0,1.2,0,2.4,0,3.6
		c0,8.7,0,17.4,0.4,27.7c0,2.8,0.4,5.1,0.8,7.5c-2-9.9-2.8-19.8-4-29.7c-0.4-4.4-0.8-8.7-1.6-12.7c-1.2-9.5-2.4-21-2.4-32.1
		C-480.6,279.6-480.6,279.2-480.2,279.2z M-441,371.4c-0.8-13.1,1.6-27.7,7.1-43.6c1.2-2,2.4-3.6,3.6-5.5c2.4-3.6,4.8-7.1,6.7-10.7
		c4.4-7.5,8.3-16.2,12.3-27.3c1.6-4.8,3.2-9.1,4.8-13.9c2.4-6.7,4.8-13.5,7.1-20.2c2.4-5.9,4-12.3,5.1-19.4
		c0.4,11.5-0.4,21.8-2,31.7c-0.4,1.6-0.8,3.6-1.2,5.1c-0.4,0-0.8,0.4-0.8,0.4c-6.3,7.5-9.9,16.2-13.5,24.6
		c-2.8,6.3-4.8,12.3-6.7,17.8c-6.7,12.3-13.5,25.3-17.4,40.4c-2,8.3-2.8,17.4-2,28.1c0.4,4,1.2,8.3,2,12.3c0.8,2.8,1.2,5.5,1.6,8.3
		C-437,390.9-440.2,381.3-441,371.4z M-404.9,371.1c0.4-0.8,0.4-1.6,0.8-2c0.8-2.4,1.6-4.8,2.4-7.1c1.6-0.8,3.2-2,5.1-3.2
		c-0.4,0.8-0.8,1.6-1.6,2.4c-0.4,0.8-0.8,1.6-1.6,2.4c-1.6,2.8-3.6,6.7-5.9,9.5C-405.3,372.6-404.9,371.8-404.9,371.1z
		 M-362.2,245.5c2-5.9,4-11.9,5.1-17.8C-357.4,233.2-359.4,239.2-362.2,245.5z M-359,197.2c-1.2-2.8-2.8-5.1-4.4-7.9
		c-4.8-8.7-9.1-17-12.3-26.1c-4-11.1-4.8-19.8-3.6-29.3c0-0.8,0.4-2,0.4-2.8c0-0.4,0-0.4,0-0.8c0.8-4.8,2-9.1,3.2-13.5
		c0.4-1.6,0.8-3.6,1.2-5.1c0.4,0,0.4,0.4,0.8,0.4c1.6,1.2,2.8,2.8,4,4.8v0.4l-0.4,1.2c-2,9.5-4.4,19.4-4.8,29.3
		c-0.4,5.1,0.8,9.9,2.4,14.7l-1.2,2.4l1.6-1.6c1.6,4.4,4,8.3,6.3,12.7l1.2,2.4c3.6,6.7,5.9,13.9,6.7,21.8
		C-358.2,198.4-358.6,198-359,197.2z M-654.8,332.2L-654.8,332.2c0-1.2-0.4-2.8-0.4-4c0,0,0.4-0.4,0.4-0.8
		c3.2-13.5,7.1-26.9,10.7-38.8C-644.5,304.1-644.9,320.8-654.8,332.2z"/>
	<path fill="#F0705A" d="M-653.2,31.3c-0.8,0.4-1.2,0.4-2,0.4l0,0h-0.4c-0.8,0-1.2,0.4-2,0.4c-0.8,0.4-1.6,0.4-2.8,0.4
		c-0.8,0-1.2,0.8-1.2,1.2c-0.4,1.6-0.4,2.8,0.4,3.6c0.8,1.2,2.4,1.6,4.4,1.6c0.4,0,1.2,0,2,0s1.6-0.4,2.4-0.4c1.2-0.4,2.8-0.4,4-0.4
		l0,0h0.8c1.6,0,3.6,0.4,5.5-1.2c2-1.2,1.6-2.8,1.6-3.6c-0.4-2-2.8-3.6-4.4-3.6C-648.1,29.7-650.4,30.5-653.2,31.3z M-655.2,35.2
		c0.8,0,1.2-0.4,2-0.4s1.2-0.4,2-0.4c2-0.4,3.6-0.8,4.8-0.8c0.8,0,1.6,0.4,1.6,0.8c0,0-0.4,0-0.8,0.4c-1.2,0.4-2,0.4-3.2,0.4h-0.8
		c-1.2,0-2.4,0-3.6,0.4C-653.6,35.2-654.4,35.2-655.2,35.2z"/>
</g>
</svg>
