<?xml version="1.0" encoding="utf-8"?>
<!-- Generator: Adobe Illustrator 18.1.0, SVG Export Plug-In . SVG Version: 6.00 Build 0)  -->
<!DOCTYPE svg PUBLIC "-//W3C//DTD SVG 1.1//EN" "http://www.w3.org/Graphics/SVG/1.1/DTD/svg11.dtd">
<svg version="1.1" id="Layer_1" xmlns="http://www.w3.org/2000/svg" xmlns:xlink="http://www.w3.org/1999/xlink" x="0px" y="0px"
	 viewBox="0 0 200 200" enable-background="new 0 0 200 200" xml:space="preserve">
<circle fill="#737390" cx="100" cy="101" r="91.7"/>
<g>
	<path fill="#181425" d="M97.2,103.5c0.2,0,0.5,0.1,0.7,0.1c0.5,0,0.9-0.1,1.3-0.1c0.5-0.1,0.9-0.4,1.4-0.8c0.5-0.4,1.1-0.8,1.6-0.8
		c0.2,0,0.5,0.1,0.7,0.3c0.2,0.2,0.6,0.1,0.7-0.2c0.1-0.2,0-0.3-0.1-0.4c-0.3-0.3-0.7-0.4-1.2-0.4c-1,0-2,0.7-2.9,1.4
		c-0.3,0.3-0.7,0.4-1.1,0.4c-0.7,0-1.4-0.3-2.2-0.7c-0.8-0.4-1.6-0.8-2.4-0.8c-0.2,0-0.3,0-0.5,0.1c-0.2,0-0.3,0.2-0.3,0.4
		c0,0.2,0.2,0.4,0.4,0.4h0c0,0,0.1,0,0.1,0c0.7-0.2,1.5,0.2,2.3,0.6C96.1,103.1,96.6,103.4,97.2,103.5z"/>
	<path fill="#181425" d="M103.5,102.9c-0.2,0.1-0.3,0.3-0.3,0.5c0,0.2,0.2,0.4,0.4,0.4c0,0,0.1,0,0.1,0c1.8-0.5,2.4-2,1.9-4.2
		c0-0.2-0.2-0.3-0.4-0.3c-0.1,0-0.3,0.1-0.3,0.2c-0.1,0.1-0.1,0.2-0.1,0.3C105.3,101.5,104.9,102.5,103.5,102.9z"/>
	<path fill="#181425" d="M89.9,111.9c1.8,0.4,3.7,0.4,5.5,0.4c0.9,0,1.8,0,2.8,0.1c0.7,0,1.4,0,2-0.1c0.9-0.1,1.8-0.1,2.6,0l0.1,0
		c0.6,0.1,1.1,0.2,1.6,0.2c0.6,0,1-0.1,1.6-0.2c0.2-0.1,0.3-0.3,0.3-0.5c0-0.3-0.3-0.4-0.5-0.3c-0.4,0.1-0.8,0.2-1.2,0.2
		c-0.2,0-0.4,0-0.6,0c0.1,0,0.3-0.1,0.3-0.3c0-0.2,0-0.4-0.2-0.4c-0.2-0.1-0.5-0.2-0.7-0.4c-1.1-0.6-2.1-1.2-3.3-1.2
		c-0.2,0-0.4,0-0.6,0.1l-0.1,0c-0.9,0.1-1.6,0.2-2.4,0.1c-0.5-0.1-1.1-0.2-1.5-0.1c-0.6,0.2-1.2,0.5-1.8,0.8
		c-0.6,0.3-1.1,0.6-1.8,0.8c-0.2,0.1-0.3,0.2-0.3,0.4c0,0,0,0.1,0,0.1c-0.2,0-0.4-0.1-0.7-0.1c-0.2-0.1-0.5-0.1-0.7-0.1l-0.1,0
		c-0.2,0-0.4,0.2-0.4,0.4C89.5,111.7,89.7,111.9,89.9,111.9z M103.2,111.5c-0.3,0-0.6-0.1-1-0.1c-0.8-0.1-1.6,0-2.4,0.1
		c-0.6,0-1.1,0.1-1.7,0.1h0c-0.6,0-1.1,0-1.7-0.1c-0.6,0-1.1-0.1-1.7-0.1c-0.4,0-0.8,0.1-1.3,0.1c-0.2,0-0.3,0-0.5,0.1
		c-0.2,0-0.4,0-0.6,0c0.7-0.2,1.3-0.6,1.9-0.9l0.1-0.1c0.4-0.2,0.9-0.3,1.4-0.3c0.3,0,0.6,0,1,0.1c0.4,0,0.9,0.1,1.3,0.1
		c0.4,0,0.7-0.1,1-0.1c0.4,0,0.7-0.1,1.1-0.1c0.7,0,1.3,0.2,1.9,0.6c0.3,0.2,0.7,0.4,1,0.6c0.2,0.1,0.3,0.2,0.5,0.2
		C103.4,111.5,103.3,111.5,103.2,111.5z"/>
	<path fill="#181425" d="M103.7,113.5c-0.4,0.1-0.9,0.3-1.3,0.4c-0.5,0.2-0.9,0.3-1.4,0.5c-0.4,0.1-0.7,0.2-1.2,0.2
		c-0.3,0-0.7,0-1,0c-0.5,0-1-0.1-1.5,0c-2.3,0.2-3.7-0.3-5.6-2c-0.2-0.2-0.6-0.1-0.7,0.2c-0.1,0.2,0,0.3,0.1,0.4
		c1.5,1.3,2.8,2.2,4.7,2.4c0.4,0,0.7,0,1.1,0c0.4,0,0.9,0,1.3,0c0.6,0,1.1,0,1.7,0l0.1,0c0.9,0,1.9-0.3,2.7-0.7
		c0.4-0.1,0.7-0.3,1.1-0.4c0.2-0.1,0.3-0.2,0.3-0.5C104.1,113.6,103.9,113.4,103.7,113.5z"/>
	<path fill="#181425" d="M112.8,106.3c0,0,0.1,0,0.1,0c0,0,0,0,0,0l0.1,0c0.1,0,0.2,0,0.2-0.1c0.1,0,0.2-0.1,0.2-0.2
		c0,0,0-0.1,0-0.1c0.1-0.2,0.1-0.4,0-0.6c-0.3-0.2-0.5-0.3-0.8-0.1c-0.1,0.1-0.2,0.2-0.2,0.3c0,0,0,0,0,0.1c0,0,0,0.1-0.1,0.1l0,0
		c0,0.1,0,0.2,0.1,0.3C112.5,106.2,112.7,106.3,112.8,106.3z M113,106L113,106L113,106L113,106z"/>
	<path fill="#181425" d="M141,90.7c-0.1-0.1-0.2-0.3-0.3-0.4l-0.1-0.2c0,0,0-0.1,0-0.1c-0.1-0.4-0.1-0.8-0.2-1.2
		c-0.1-0.8-0.2-1.6-0.4-2.4c-0.3-1.1-1-2-1.7-2.9l-0.3-0.3c-0.4-0.5-0.9-1.1-1.3-1.6c-0.9-1-1.8-2-2.4-3.1c0.1,0,0.3,0.1,0.4,0.1
		c0.7,0,0.8-0.8,0.9-1l0-0.1l0,0l0-0.1l0,0c0-0.5,0-1-0.1-1.5c-0.2-4.6-0.5-10.3-4.9-12.7c-0.2-0.1-0.4-0.2-0.6-0.3
		c-0.5-2.3-1.3-4.3-2.1-5.9c-1.2-2.7-2.2-5.1-3-7.5l-0.4-1.2c-1.2-3.6-2.4-7.3-4.8-10.4c-3.2-4.3-8.1-4.8-12.5-4.8
		c-1.6,0-3.2,0.1-4.7,0.2c-1.9,0.1-3.7,0.2-5.4,0.1c-0.9,0-1.9-0.1-2.8-0.2c-1.2-0.1-2.5-0.2-3.7-0.2c-0.9,0-1.7,0.1-2.5,0.2
		c-3.3,0.5-5.1,1.9-6.4,5c-0.2,0.5-0.4,0.9-0.6,1.4c-0.7,1.8-1.4,3.4-2.5,5c-0.5,0.8-1.1,1.6-1.7,2.4c-0.7,1-1.4,2-2.1,3
		c-2.7,4-4.4,7.6-5.3,11.3l-0.1,0c-0.2,0.1-0.3,0.1-0.5,0.2c-2.9,1-3.2,3.6-3.4,6.2c-0.3,2.6-0.2,5.2-0.2,7.1c0,0.4,0,1.1,0.6,1.4
		c0.1,0,0.2,0.1,0.3,0.1c-0.6,1.5-1.5,3-2.3,4.4c-1.1,1.9-2.3,3.8-2.8,6l0,0c-2.2,3.6-3.7,7.1-4.4,10.8c-0.2,1.1-0.4,2.2-0.4,3.4
		c-1,5.9,0.1,11.7,3.2,16.5c0.4,1.1,0.9,2.4,1.5,3.8c-0.2,0.5-0.5,1.1-0.7,1.6c-1.8,3.4-3.1,6.7-4,10c-1.5,5.7,0.3,11.8,5.3,18.2
		c0.1,0.1,0.1,0.1,0.2,0.1c-0.2,2-0.8,3.8-1.8,5.4c-0.1,0.1-0.1,0.3,0,0.4c0.1,0.2,0.4,0.3,0.6,0.1c1.2-0.9,2.1-2,2.8-3.3
		c0.3,1.8,1,3.4,2.2,4.6c0.2,1,0.5,1.8,0.9,2.5c0.2,0.3,0.6,0.2,0.7,0c0.1-0.1,0.1-0.3,0-0.4c-0.4-0.6-0.6-1.4-0.8-2.2
		c0-0.1,0-0.2-0.1-0.3c-0.5-2.3-0.3-4.8-0.1-7l0-0.4c0.1-1,0.2-2,0.3-3c-0.1,1.8-0.1,3.6,0.2,5.5c0.2,1,1.7,9.5,6.6,10.3l0.1,0
		c0.1,0,0.1,0,0.2-0.1l0.1,0c0.2-0.1,0.2-0.3,0.2-0.5c0-0.1-0.1-0.2-0.1-0.2c-3.4-2.8-4.5-6.9-3.6-13.2c1,2.1,1.2,4.5,0.5,7.2
		c0,0.1,0,0.2,0.1,0.3c0.1,0.1,0.2,0.2,0.3,0.2c0.2,0,0.3-0.1,0.4-0.3c0.3-1.2,0.4-2.3,0.4-3.4c0.1,0.2,0.4,0.2,0.6,0
		c2-1.8,3.5-4,4.4-6.5c-0.9,4.5-2.7,8.3-5.3,11.1c-0.1,0.1-0.1,0.3-0.1,0.4c0.1,0.2,0.4,0.3,0.7,0.2l3.2-2.6
		c0.1,0.1,0.3,0.2,0.5,0.1c3.4-2.2,6.2-5.6,7.8-9.6c-0.6,2.7-1.7,4.8-3.2,6.5c-0.1,0.1-0.1,0.3-0.1,0.4c0.1,0.3,0.5,0.3,0.7,0.1
		c4.9-5.5,10-11.9,9-18.6c0.1-0.1,0.2-0.2,0.2-0.3c0-0.3,0.1-0.7,0.1-1c2.3,1.6,5,2.4,7.9,2.4c2.2,0,4.4-0.5,6.5-1.5
		c-0.1,1.7,0,3.6,0.2,5.5c0.3,2.6,0.9,5.2,1.5,7.7c0.1,0.6,0.3,1.1,0.4,1.7c0.7,3,1.4,6.2,2.9,9.2c0.1,0.3,0.6,0.3,0.7,0
		c0.1-0.1,0.1-0.2,0.1-0.3c0.1,0.2,0.2,0.4,0.3,0.5c0.5,0.9,1.1,1.7,1.6,2.4c0.2,0.3,0.4,0.6,0.7,0.9c0.5,0.6,0.9,1.1,1.2,1.8
		l0.2,0.4l0.1-0.2c0.2,0.1,0.4,0,0.5-0.2c0.1-0.1,0.1-0.2,0-0.3l0-0.1h0c-0.7-1.5-1.1-3.1-1.5-4.8c0.3,1.4,0.8,2.8,1.2,4
		c0.6,1.7,1.2,3.5,1.4,5.5c0.1,0.9,0,1.8-0.1,2.7c-0.1,0.9-0.2,1.9-0.1,2.8c0,0.2,0.2,0.4,0.4,0.4c0.1,0,0.3-0.1,0.3-0.2
		c0.1-0.1,0.1-0.3,0.2-0.4l0.1-0.2c1.5-3.4,2.2-7,2.1-11c0,0,0,0,0,0c0,0.1,0,0.2,0,0.4c0,0.1,0,0.2,0.1,0.2l0,0.2
		c0.2,1,0.3,2,0.3,3c0,0.1,0,0.2,0.1,0.3c0.1,0.1,0.2,0.1,0.3,0.1c0.2,0,0.4-0.2,0.4-0.4c0-1.1-0.2-2.1-0.3-3.1
		c0-0.3-0.1-0.6-0.1-0.9c0-0.3-0.1-0.5-0.1-0.7c0-0.3-0.1-0.6-0.1-0.9c-0.1-1.6,0.2-3.2,0.7-4.8c-0.4,2-0.6,3.9-0.5,5.8
		c0.1,3.2,1.4,6.3,2.6,9.1c0.1,0.2,0.2,0.3,0.4,0.3c0.2,0,0.3-0.1,0.4-0.3c0.2-1.2-0.1-2.3-0.3-3.5c-0.1-0.4-0.2-0.8-0.2-1.1
		c-0.5-2.6-0.5-5.3,0-8c0.4-2.3,1.3-4.4,2.2-6.2c-0.9,3.6-0.9,7.2-1,10.7c0,2.3-0.1,4.6-0.3,7c0,0.1,0,0.2,0.1,0.3
		c0.1,0.1,0.2,0.1,0.3,0.1c0.2,0,0.4-0.1,0.4-0.3c0.3-1.5,1.1-3,1.8-4.3c0.2-0.4,0.4-0.8,0.6-1.2c0.7-1.5,1.4-2.9,1.9-4.2
		c0,0.2-0.1,0.3-0.1,0.5c-0.3,1-0.6,2.3-1.3,2.8c-0.1,0.1-0.2,0.3-0.1,0.5c0.1,0.1,0.2,0.2,0.4,0.2c1.1,0,2-1.5,2.6-2.5
		c0.1-0.2,0.2-0.3,0.3-0.4c0.5-0.7,0.9-1.5,1.4-2.3c0.5-0.8,0.9-1.6,1.4-2.4c0.3-0.4,0.5-0.7,0.8-1.1c1.3-1.9,2.6-4,3.8-6.3
		c2.6-5,3.1-10.7,1.4-15.2c1.4-3.1,1.8-6,1.2-8.7c0.1-1.7,0-3.2-0.4-4.8c-0.3-1.4-1-2.6-1.7-3.9c-0.4-0.8-0.9-1.6-1.2-2.5
		c0,0,0,0,0,0l0.2-0.2c1.7-0.8,2.9-2.8,4-4.5c0.4-0.6,0.7-1.2,1.1-1.7c1.1-1.6,1.7-3.3,1.6-5.1c0.1-0.1,0.2-0.2,0.2-0.3
		C144.6,97.8,143.4,93.7,141,90.7z M87.8,34c0.9-0.1,1.8-0.2,2.9-0.2c1.3,0,2.7,0.1,4,0.2c0.7,0.1,1.4,0.1,2.1,0.2
		c0.7,0,1.5,0.1,2.4,0.1c1.4,0,2.9-0.1,4.3-0.1c1.4-0.1,2.9-0.1,4.3-0.1c0.7,0,1.4,0,2.1,0c4.4,0.2,7.5,1.8,9.8,5
		c2,2.8,3.1,6.1,4.1,9.4c0.2,0.6,0.4,1.2,0.6,1.8c0.6,1.7,1.3,3.4,2.1,5.1c1,2.3,2.1,4.6,2.6,7c-2.8-1.2-5.8-2-8.7-2.8l-1.2-0.3
		c-4.2-1.1-8.7-1.9-13.3-2.3c-2.1-0.2-4.2-0.3-6.3-0.3c-5.9,0-12.2,0.7-19.4,2.1c-3.6,0.7-6.8,1.5-9.7,2.4c0.9-3.3,2.4-6.5,4.8-10.1
		c0.6-1,1.3-1.9,2-2.8c1.5-2,3.1-4.1,4-6.5c0.2-0.4,0.3-0.9,0.5-1.3c0.5-1.4,1-2.8,1.9-4.1C84.5,34.7,86.4,34.2,87.8,34z
		 M131.9,144.2c0.8-2.1,1.3-3.9,1.5-5.7c0.6-5-0.5-9.8-1.6-14.5c-0.3-1.2-0.6-2.4-0.8-3.6c-0.7-3.2-0.5-6.8,0.6-10.1
		c0,0.5,0,1,0,1.5c0.1,2.9,0.9,5.6,1.9,8.5l0.2,0.6c0.2,1.6,0.5,3.2,1,5.3c0.6,2.6,0.9,5,0.8,7.7c-0.3,2.8-1,5.7-1.6,8.4l0,0.1
		c-0.6,2.5-1.4,5-2.1,7.4c-0.1,0.4-0.3,0.9-0.4,1.3C131.7,148.9,131.9,146.6,131.9,144.2C131.9,144.3,131.9,144.2,131.9,144.2z
		 M115.8,157.1c-0.2-0.6-0.4-1.2-0.6-1.7c-0.3-0.7-0.5-1.5-0.7-2.3c-0.2-0.9-0.3-1.8-0.4-2.7c0.3,1.5,0.7,2.9,1.2,4.2
		c0.5,1.5,1.2,3.2,2.5,4.4c0.6,4.2,0.4,8.1-0.7,11.6C117.4,165.5,117,161.1,115.8,157.1z M131,146.3c-0.2,4-1.1,8.1-2.8,12.4
		c-0.8,1.9-1.6,3.8-2.5,5.5c-0.2,0.3-0.3,0.7-0.5,1c-0.2,0.4-0.4,0.8-0.6,1.3c0.6-4.7,2-9.5,4-14.4c0.5-1.1,1-2.3,1.5-3.4
		C130.4,147.9,130.7,147.1,131,146.3z M112.7,160.3c-0.3-0.5-0.7-1-1-1.6C112,159.3,112.4,159.8,112.7,160.3z M80.1,144.3
		c-0.2,0.9-0.3,1.8-0.6,2.7c0-0.1,0-0.1,0-0.2l0,0C79.7,146,79.9,145.2,80.1,144.3z M66.5,140.2c0,0.2,0,0.4,0,0.6
		c0,0.8-0.1,1.7-0.2,2.7c-0.3-0.3-0.5-0.5-0.7-0.8c0.1-0.3,0.2-0.6,0.4-1C66.1,141.2,66.3,140.7,66.5,140.2z M124.8,85.6
		c1.9,2.8,4.2,5.4,6.8,7.8c0.5,0.4,1,0.9,1.5,1.3c1,0.9,2,1.8,3,2.8c1.2,1.1,2.6,2.5,3.4,4.1c-0.7-0.5-1.4-1-2.1-1.4
		c-3.8-2.5-7.8-5.1-10.1-9C126.3,89.4,125.5,87.5,124.8,85.6z M118.6,73.8c0.3,0.1,0.6,0.1,0.9,0.2c0.2,0.4,0.3,0.9,0.5,1.3
		C119.5,74.7,119.1,74.3,118.6,73.8z M128.8,80.8c-1.5-1.7-2.7-3.4-3.3-5.3c1.3,0.3,2.5,0.7,3.8,1.1c1,2,2.1,3.7,3.3,5.2
		c0.5,0.7,1.1,1.3,1.7,1.9c0.8,0.9,1.7,1.9,2.4,2.9c1.5,2.3,2.8,5.1,3.8,8.1c-1.6-2.1-3.3-4.2-5.1-6.1c-0.6-0.7-1.2-1.4-1.8-2.1
		C132,84.6,130.4,82.7,128.8,80.8L128.8,80.8z M130.4,76.9c0.2,0.1,0.3,0.1,0.5,0.2c0.7,1.4,1.6,2.9,2.4,4.3
		C132.3,80,131.3,78.5,130.4,76.9z M135.4,139.6c0,0.4-0.1,0.8-0.1,1.1c-0.4,3.1-1.6,6.2-2.7,9.2l-0.2,0.4c-0.2,0.5-0.4,1-0.6,1.5
		c0.1-0.3,0.2-0.6,0.3-1c0.6-2.1,1.3-4.2,1.9-6.3C134.7,142.8,135.1,141.2,135.4,139.6z M129.7,141c-0.3,0.7-0.7,1.5-1.1,2.2
		C128.9,142.4,129.3,141.7,129.7,141z M127.4,146.9c0.3-0.4,0.5-0.9,0.8-1.3c1.5-2.7,3-5.4,3.6-8.7c0.4-2.2,0.6-4.6,0.4-7.4
		c0.5,2.9,0.7,5.4,0.5,7.8c-0.3,4.1-2,7.8-3.6,11.4c-0.5,1.1-1,2.3-1.5,3.5c-1.3,3.2-2.3,6.5-3.1,9.8c0-2.9,0.1-5.9,0.7-8.8
		c0.3-1.5,0.7-3,1.3-4.7C126.9,147.9,127.1,147.4,127.4,146.9z M130.7,123.2C130.7,123.2,130.7,123.3,130.7,123.2
		c-1.4,2.8-3.4,5-5.4,7.2c-0.7,0.8-1.5,1.6-2.2,2.5c-1.4,1.6-2.6,3.4-3.7,5.3c0.7-2.3,1.7-4.4,2.8-6.3c0.7-1.2,1.5-2.3,2.3-3.4
		c1.3-1.8,2.6-3.6,3.5-5.7c0.8-1.8,1.4-3.7,1.8-5.7c0,0.4,0,0.9,0.1,1.3C130,120,130.3,121.7,130.7,123.2z M125.4,123.3l0.5-0.8
		c1-1.6,2.1-3.3,2.9-5c-0.5,2.4-1.3,4.6-2.3,6.5c-0.9,1.7-2,3.3-3.1,4.8c-1.1,1.6-2.3,3.2-3.2,5c-1.1,2.1-1.9,4.6-2.4,7.6
		c-0.2,0.4-0.3,0.7-0.5,1.1c-1.3,3.3-1.3,6.3-1,9.1l0.1,0.7c0.1,1.3,0.2,2.6,0.5,3.9c-0.5-1-0.8-2-1.1-2.9c-0.8-2.6-1.3-5.3-1.6-7.3
		c0.1-1.3,0.3-2.5,0.6-3.9c0.7-3.2,2.1-6.3,3.9-8.9C120.9,130.3,123,127,125.4,123.3z M118.4,141.9l0.1-0.2c1.3-3.1,3.4-6.3,6.3-9.5
		c0.4-0.5,0.9-1,1.3-1.5c1.5-1.6,3-3.3,4.2-5.2c-0.4,2.4-1,4.9-2.4,7c-0.7,1.1-1.6,2.2-2.4,3.2c-1,1.3-2.1,2.6-3,4.1
		c-1.7,3.1-3,6.7-3.8,11.1c-0.2,1.3-0.4,2.8-0.6,4.4C117.5,150.9,117.6,146.2,118.4,141.9z M133.9,111.6c-0.4,1.7-0.6,3.6-0.6,5.5
		c-0.3-0.9-0.5-1.9-0.7-2.8c-0.3-1.5-0.8-5.4,0.5-7.9l0,0c0-0.1,0.1-0.1,0.1-0.2c0,0,0.1-0.1,0.1-0.1c0.2,0.3,0.4,0.6,0.6,0.8
		C133.7,108.8,133.6,110.3,133.9,111.6z M66.7,133.3c-0.3-1.2-0.6-2.4-0.8-3.6c-0.5-3.1-0.6-5.9-0.1-8.4c2.4-5.8,4.1-10.8,4.6-16.1
		c0.2,1.3,0.1,2.4-0.2,3.4C67.5,116.3,66.3,124.7,66.7,133.3z M62.6,137.7c-0.8-2.8-0.1-5.7,0.7-8.6c0,1.6,0.3,3.1,0.9,4.6
		c0.3,0.6,0.5,1.2,0.8,1.8c0.5,1.1,1,2.1,1.3,3.2l-0.1,0.2c-0.4,1-0.9,2.1-1.3,3.1C63.8,140.6,63,139.3,62.6,137.7z M126,96
		c1.5,1.3,3.3,2.3,5,3.3c1.4,0.8,2.9,1.6,4.2,2.6c0,0,0,0,0,0c-0.1,0.6-0.3,1.1-0.4,1.7c-0.1,0.5-0.2,1-0.4,1.4
		c-0.7-2.1-1.9-3.9-3.7-5.2c-0.6-0.5-1.3-0.9-1.9-1.4c-1.9-1.3-3.6-2.5-5.1-4.5c-0.9-1.2-1.6-2.6-2.2-4
		C122.7,92.5,124.2,94.4,126,96z M127.6,104.7c0,0.8,0.1,1.7,0.1,2.5c0,1.1-0.2,2.2-0.6,3.3c0-0.1,0-0.3,0-0.4
		c0-0.4,0.1-0.8,0.1-1.1c0-0.1,0-0.2-0.1-0.3c-0.1-3.9-0.9-7.8-2.5-11.5c0.3,0.3,0.7,0.6,1,0.9l0.4,0.4c0.5,0.5,1.1,1,1.6,1.4
		C127.5,101.4,127.6,103.1,127.6,104.7z M68.5,79.5c0.8-1.4,1.6-2.9,2.3-4.5c0.9-0.2,1.8-0.4,2.8-0.6C71.8,76.2,70.1,77.9,68.5,79.5
		z M105.8,79.7L105.8,79.7c-0.5,0-0.8-0.1-0.8-0.3c0-0.2,0.3-0.7,0.9-1c1-0.4,2-0.6,3-0.8c1-0.2,2.2-0.4,3.3-0.9
		c0.2,0.3,0.4,0.7,0.5,1C110.8,78.4,106.8,79.7,105.8,79.7z M69.2,98.2c0.5,1.2,1,2.4,1,3.7c-0.3-0.7-0.6-1.4-0.9-2
		c-0.5-1.1-1-2.1-1.3-3.1c-0.1-0.3-0.2-0.5-0.2-0.8c0-0.1,0-0.2-0.1-0.2c-0.7-2.6-0.7-5.6,0-8.9c1.7-3.2,3.8-6.5,6.2-9.9
		c-0.3,2.3-0.8,4.2-1.5,6.1c-1,0.2-2,0.5-2.7,1.1c-0.1,0.1-0.1,0.2-0.1,0.2c-0.4,1.1,0.3,2.5,0.5,3c0,0.1,0.1,0.2,0.2,0.2
		c-1.2,1.9-1.7,4.4-1.9,6.2C68.1,95.3,68.7,96.8,69.2,98.2z M68.9,101c0.1,0.3,0.3,0.7,0.4,1c0.1,0.3,0.3,0.6,0.4,1
		c-0.1,4-1,7.8-2.1,11.2c0,0,0,0,0-0.1c1.2-5.1,1.4-10,0.7-14.5C68.4,100,68.6,100.5,68.9,101z M64.9,96.2c0,2.4,0,4.7-0.2,7.1
		c-0.3,3.1-0.9,6.5-1.6,10.3l-0.1-0.5c-0.7-3.1-1.5-6.4-1.7-9.6c0.4-2,1-4.1,1.8-6.5c0.7-2,1.6-4,2.5-6.1c-0.4,1.5-0.7,3.1-0.7,4.7
		L64.9,96.2z M106.5,83.7c-1.2,0.6-2,1.6-2.7,2.6c-0.2,0.2-0.3,0.4-0.5,0.6c-0.3,0.4-0.5,0.4-0.5,0.4c0,0-0.1,0-0.2-0.1
		c-0.4-0.5-0.5-2.1-0.3-2.9c3.9-1.8,7.7-2.8,11.3-2.8c0.4,0,0.8,0,1.1,0l0.1,0.1c-0.4,0-0.8-0.1-1.1-0.1
		C110.9,81.8,108.3,82.8,106.5,83.7z M103.6,88c0,0,0-0.1,0-0.1c0.4-0.4,0.7-0.8,1-1.3l0.1-0.2c0.8-1.1,1.8-1.9,3.4-2.5
		c1.4-0.6,3.5-1.3,5.6-1.3c0.5,0,1.1,0,1.6,0.1c0.3,0.6,0.6,1.3,0.9,2c0.2,0.6,0.4,1.2,0.6,1.8c0.2,0.8,0.5,1.6,0.9,2.4
		c1,2,2.4,3.9,4.6,6c-0.4,2.2-2.7,3.6-4.4,4.5c-2.7,1.4-6,1.3-9.2-0.1C104.6,97.4,102.6,93,103.6,88z M101.4,84.5
		c0,0.3-0.1,0.6-0.1,0.9c-0.6-0.1-1.2-0.2-1.9-0.2c-1.2,0-2.3,0.2-3.4,0.3c-0.1-0.4-0.2-0.8-0.3-1C97.7,83.9,99.4,83.9,101.4,84.5z
		 M83.2,82.3c2.6,0,5.1,0.2,7.4,0.6c1.1,0.2,2.5,0.5,3.7,1.2c0.2,0.1,0.4,0.2,0.5,0.4c0,0,0.1,0.1,0.1,0.1c0.3,0.4,0.4,0.8,0.5,1.5
		c0.1,0.3,0,0.5-0.1,0.7c-0.1,0.2-0.3,0.3-0.6,0.3c-0.1-0.2-0.2-0.4-0.3-0.6c-2.2-3.6-8.1-4-10.5-4c-0.3,0-0.6,0-0.9,0
		c-2.4,0.1-4.6,0.7-6.3,1.7c-1.7,1-2.1,2.5-2.5,4c0,0.1,0,0.1-0.1,0.2c-0.4-0.7-1-1.5-1.7-1.7c-0.4-0.1-0.6-0.2-0.9-0.2
		c-0.1,0-0.1,0-0.2,0l-0.1,0c-0.1,0-0.2,0-0.3,0c-0.1,0-0.1,0-0.2-0.1c-0.3-0.4-0.3-1.4-0.2-1.8c0.7-0.5,2-0.8,3-1
		c0.4-0.1,0.7-0.1,1-0.2c2.2-0.6,4.5-0.9,7-1C81.9,82.4,82.5,82.3,83.2,82.3z M74.8,88.4c0.3-1.1,0.6-2.2,1.5-3
		c1.1-1.1,2.8-1.5,4.4-1.8c1-0.2,2.1-0.3,3.2-0.3c2.4,0,4.7,0.5,6.8,1.4c1.4,0.6,2.4,1.5,3.1,2.6l0,0c0.8,3.1,0.3,6.3-1.5,8.9
		c-1.6,2.3-4,3.8-6.8,4.1c-0.4,0-0.7,0.1-1.1,0.1c-5.7,0-9.6-5.8-9.8-11.2c0-0.1,0-0.2-0.1-0.2C74.6,88.8,74.7,88.6,74.8,88.4z
		 M121.2,103.4l0.1-0.3c0.5-1.9,0.8-3.6,0.7-5.4c0-0.1,0-0.1-0.1-0.2c0.4-0.4,0.6-0.9,0.9-1.3c0.1,0.7,0.1,1.5,0.1,2.3v0.4
		c0,2.1-0.3,3.7-0.9,5c-0.6,1.2-1.2,2.5-1.9,3.7C120.5,106.2,120.9,104.7,121.2,103.4z M74.8,82.4C74.8,82.4,74.8,82.4,74.8,82.4
		c-0.4,0.1-0.7,0.2-1.1,0.3c-0.1,0-0.3,0.1-0.4,0.1c0.4-1.2,0.8-2.4,1-3.6c0.1-0.5,0.2-0.9,0.2-1.4c0.1-1.1,0.3-2.3,1-3.1
		C75,77.4,74.7,79.8,74.8,82.4z M68.4,83.8c0.5-1.6,1.1-3.2,1.8-4.8c0,0,0-0.1,0-0.1c1.2-1.3,2.5-2.6,3.8-3.8
		C71.9,78.1,70,81,68.4,83.8z M68.7,80.6c-0.8,2-1.4,4-1.8,5.9c-2.1,3.8-3.7,7.6-5.1,11.4c-0.3,0.7-0.5,1.4-0.7,2.1
		c0.2-3,1.2-6.1,2.1-9c0.3-1,0.7-2,0.9-3c0.7-2,1.6-3.7,2.5-5.2C67.3,82.1,68,81.3,68.7,80.6z M60.7,107.1c0.3,2,0.8,3.9,1.2,5.8
		c0.2,0.9,0.4,1.8,0.6,2.7c-0.1,0.5-0.2,1-0.3,1.5c-0.1,0.4-0.2,0.9-0.3,1.3c-0.9-2.5-1-5.4-1.1-7.9l0-0.8
		C60.7,108.8,60.7,108,60.7,107.1z M114.4,122.9L114.4,122.9c1-3.2,1.9-6.2,3.2-9.1c0.7-1.4,1.5-2.8,2.3-4.2
		c1.3-2.2,2.7-4.5,3.3-6.9c0.3-1,0.5-2.2,0.5-3.3c0.9,6.4-2.1,13.4-5.2,19.6c-1.5,3-3.3,6.1-5.5,9.3c-0.2,0.3-0.4,0.6-0.6,0.8
		c-0.2,0.4-0.5,0.8-0.7,1.1C112.8,127.9,113.7,125.4,114.4,122.9z M133,104.1c-0.2-0.3-0.4-0.5-0.6-0.8c-1.1-1.3-2.3-2.5-3.6-3.6
		C130.8,101,132.1,102.4,133,104.1z M65.7,96.4c-0.1-1.8,0.2-3.6,0.7-5.5c0,1.2,0,2.4,0.2,3.6c0.1,0.4,0.1,0.8,0.3,1.3
		c-0.5,1.6-0.9,3.4-1.2,5.3C65.8,99.4,65.8,97.9,65.7,96.4z M77.1,129.9c-0.2-0.6-0.3-1-0.5-1.5c-0.5-1.9-0.9-3.9-1.3-5.8
		c-0.5-2.6-1.1-5.2-1.9-7.8c1.7,2.4,2.9,4.8,3.6,7.2C77.9,124.7,77.6,127.4,77.1,129.9z M79.4,136.3c-0.3-1.5-0.9-2.9-1.5-4.3
		c-0.1-0.2-0.2-0.5-0.3-0.7l0-0.1c0-0.2,0.1-0.4,0.1-0.6c0.8-3.6,0.8-6.4-0.1-9.3c-0.8-2.7-2.4-5.5-4.8-8.5c0,0,0,0-0.1-0.1
		c-0.1-2.5-0.3-4.9-0.4-7.4c-0.4-5.6-0.9-11.5,0.2-17.2c0.3,0.3,0.5,0.7,0.8,1.1l0.1,0.1c0,0,0,0.1,0,0.1c0.6,4.8,0.1,9.5-0.6,13.4
		c-0.6,3.6-0.3,6.9,0.7,10.1c0.3,1.4,1.3,2.5,2.3,3.5c0.5,0.5,0.9,1,1.3,1.5c2.1,2.9,3.2,6.9,3.6,9c0.4,1.9,0.5,3.9,0.3,6.2
		c0,0.1,0,0.1,0,0.2l0,0.5c-0.2,2.5-0.7,5-1.3,7.5C80.1,139.6,79.7,137.8,79.4,136.3z M75.2,94.8c1.9,3.9,5.5,6.4,9.5,6.4
		c0.4,0,0.8,0,1.3-0.1c1.7-0.2,3.3-0.8,4.6-1.8c-0.4,0.9-0.3,2,0.2,2.9c0.1,0.2,0.3,0.4,0.4,0.6c0,0,0,0,0,0c-0.2,0-0.3,0.1-0.4,0.2
		c-0.1,0.1-0.1,0.2-0.1,0.3c0,0,0,0.1,0,0.1c0,0.1,0,0.1,0,0.2c0,0.1,0,0.2,0.1,0.3c0.1,0.1,0.2,0.1,0.3,0.1c0.1,0,0.1,0,0.2,0
		c0.1,0,0.2,0,0.3-0.1c0.1-0.1,0.1-0.1,0.2-0.2c0-0.1,0.1-0.1,0.1-0.2c0-0.1,0-0.1,0-0.2c0.4,0.2,0.8,0.4,1.2,0.4h0
		c0.3,0,0.5,0,0.8-0.1c0.2-0.1,0.3-0.3,0.3-0.5c0-0.2-0.3-0.4-0.5-0.3c-0.8,0.3-1.6-0.1-2.1-1c-0.4-0.8-0.5-1.7-0.1-2.4
		c0.1-0.1,0.1-0.3,0-0.4c-0.1-0.1-0.2-0.2-0.3-0.2c0.6-0.5,1.1-1,1.5-1.6c1.8-2.5,2.6-5.8,2.1-9c0.1,0,0.2,0,0.3,0
		c0.7-0.1,1.1-0.8,1.1-1.8c1.1-0.2,2.2-0.3,3.3-0.3c0.7,0,1.3,0.1,1.9,0.2c0.1,1.6,0.6,2.4,1.3,2.2c-0.8,5.3,1.6,9.9,6.1,11.8
		c3.2,1.3,6.3,1.3,9,0.2c1.4-0.7,2.6-1.3,3.4-2.1c0.1,2.8-0.8,5.8-1.8,8.8c-1,3.1-2.8,6.3-5.2,9.4c-2,2.5-4.5,4.5-7.7,6.2
		c-2.2,1.2-5.2,2.5-8.3,2.5c-0.9,0-1.9-0.1-2.7-0.4c-3.1-0.9-6.2-2.3-9.2-4.3c-1.6-1-3.1-2.3-4.7-3.8c-1.4-1.3-2-2.9-2.5-5
		c-1.1-4.5-2.1-9-3.1-13.4C75.7,97.1,75.4,96,75.2,94.8z M111.5,131.9L111.5,131.9c3.1-4.2,5.9-8.7,8.3-13.6
		c2.4-4.8,5.1-11.2,4.8-17.8c0-0.4,0-0.8-0.1-1.3c1.3,3.7,1.9,7.5,1.7,11.3c-0.6,4.1-3,8.3-7.1,12.3c-2.7,2.7-5.7,5.7-7.2,9.7
		c-0.2,0.1-0.4,0.1-0.6,0.1c-0.1,0-0.2,0-0.3,0.1c0,0-0.1,0-0.1,0C111.1,132.5,111.3,132.2,111.5,131.9z M113,132.2
		c0.1-0.1,0.1-0.3,0.2-0.4c1.3-3,3.6-5.3,5.8-7.6c1-1,2.1-2.1,3-3.2c1.3-1.5,2.3-3,3.1-4.6c-0.3,0.7-0.6,1.5-1,2.3
		c-1.3,2.6-3.1,4.9-4.8,7.1c-0.8,1-1.6,2.1-2.4,3.2c-0.4,0.6-0.8,1.1-1.2,1.7c-0.6,0.4-1.1,0.7-1.6,1
		C113.8,131.9,113.4,132.1,113,132.2z M122.7,122.6c-1.4,2.5-2.9,4.6-4.6,6.2c0.1-0.1,0.1-0.1,0.2-0.2c0.6-0.9,1.3-1.8,2-2.7
		C121.1,124.9,121.9,123.8,122.7,122.6z M118.6,81.8c-0.3-0.9-0.6-1.8-1-2.7C118,80,118.3,80.9,118.6,81.8z M122.7,94.2
		c0,0,0.1,0.1,0.1,0.1c-1.7-1.7-3.1-3.4-4.2-5.3c-0.5-0.9-0.8-1.8-1.1-2.7c-0.2-0.6-0.4-1.2-0.6-1.8c-0.4-0.9-0.8-1.8-1.3-2.7
		l-0.2-0.3c-0.5-1.1-1.1-2.3-1.8-3.5l0-0.1c0-0.1,0-0.1-0.1-0.1c-0.3-0.6-0.6-1.1-0.9-1.6l0-0.1c0,0,0-0.1-0.1-0.1
		c-0.7-1.2-1.3-2.2-2-3.2c0.8,0.1,1.5,0.2,2.3,0.3c0,0,0,0,0.1,0.1c2.6,2.5,3.9,6.3,5.1,9.7l0.3,0.7c0.3,0.8,0.5,1.6,0.8,2.4
		C120.1,88.6,121,91.5,122.7,94.2z M108.7,76.7c-1,0.2-2.1,0.4-3.2,0.9c-1,0.4-1.6,1.3-1.4,2c0.1,0.3,0.4,1,1.6,1l0.1,0
		c1.3,0,6-1.7,7.3-2.1c0.4,0.8,0.8,1.6,1.2,2.4c-0.2,0-0.5,0-0.7,0c-3.8,0-7.7,1-11.7,2.9c-2.3-0.7-4.3-0.7-6.6,0.1
		c-1.1-1.2-3.3-1.5-4.8-1.7L90.1,82c-2-0.3-4.2-0.5-6.8-0.5c-0.9,0-1.8,0-2.8,0.1c-1.6,0.1-3.3,0.3-5,0.6c0-0.8,0-1.6,0.1-2.4
		c0,0.1,0.1,0.1,0.1,0.2c0.1,0.1,0.3,0.1,0.5,0.1c0.3-0.1,0.6-0.2,0.9-0.3c2-0.7,4-1.4,6-1.4c1,0,1.9,0.1,2.8,0.4
		c0.6,0.2,1.1,0.5,1.7,0.7c0.6,0.3,1.2,0.6,1.8,0.7l0.2,0.1c0.5,0.2,1.2,0.4,2,0.4c0.9,0,1.6-0.3,2-1.1c0.1-0.3,0.2-0.6,0-0.9
		c-0.4-0.9-1.9-1.5-2.8-1.8c-0.1-0.1-0.3-0.1-0.4-0.1c-2.4-1-5.5-2.1-8.7-1.9c-2.1,0.1-5.6,2.4-6.2,4.5c0.2-1.9,0.4-3.7,0.7-5.6
		c6.7-1.3,13.7-1.9,20.8-2l0.5,0c4,0,8,0.2,11.9,0.6c0.7,1,1.4,2.1,2.1,3.4C110.7,76.3,109.7,76.5,108.7,76.7z M76.2,79.9L76.2,79.9
		L76.2,79.9L76.2,79.9z M77,78.9c1-1.5,3.6-3,5-3.1c2.9-0.2,6,0.9,8.3,1.9c0.1,0,0.2,0.1,0.4,0.1c0.7,0.2,2,0.8,2.3,1.3
		c0,0.1,0,0.1,0,0.2c-0.2,0.4-0.6,0.6-1.2,0.6c-0.6,0-1.3-0.2-1.7-0.4l-0.2-0.1c-0.6-0.2-1.1-0.4-1.7-0.7c-0.6-0.3-1.2-0.6-1.8-0.8
		c-1-0.3-2-0.5-3.1-0.5C81,77.5,79.1,78.2,77,78.9z M65.7,134.8c-1.5-2.9-1.8-5.9-1-9.3c0,1.9,0.3,4,0.7,6.2
		c0.2,0.9,0.4,1.9,0.7,2.8c0.2,0.8,0.4,1.7,0.6,2.5C66.4,136.3,66,135.5,65.7,134.8z M70.9,109.1c0.5,3.6-0.4,7.1-1.3,10.7
		c-0.3,1-0.5,2.1-0.8,3.2l-0.2,0.8c-0.5,2.1-0.9,4.2-1.1,6.3c0,0.2,0,0.4,0,0.6C67.4,123.3,68.6,115.9,70.9,109.1z M68.3,132.3
		c0-0.6,0-1.1,0-1.7c0.1-2.2,0.6-4.4,1.1-6.5c0.2-0.7,0.3-1.4,0.5-2c0.2-1,0.4-1.9,0.7-2.9c1-3.9,1.9-7.6,0.8-11.8
		c0-0.1,0-0.1-0.1-0.2c0.1-1.1-0.1-2.4-0.5-3.7c0,0,0,0,0-0.1c0.6-1.9-0.2-3.7-0.9-5.4c-0.3-0.8-0.6-1.6-0.8-2.3
		c-0.3-1.3,0.1-2.8,0.4-4.1l0.1-0.2c0.4-1.4,0.8-2.8,1.7-3.9c0.3,0,0.5,0.1,0.7,0.2c-1,4.8-1.1,10.2-0.5,16.9
		c0.1,0.6,0.1,1.1,0.2,1.7c0.3,2.6,0.6,5.3,0.6,8c0,3.4-0.5,7-1.5,11.2c-0.7,2.9-1.6,5.8-2.4,8.2C68.3,133.1,68.3,132.7,68.3,132.3z
		 M75.3,131.1c-0.1-1.7-0.4-3.5-0.7-5.2c-0.1-0.9-0.3-1.8-0.4-2.7c-0.1-0.5-0.1-1-0.2-1.5c-0.1-0.8-0.2-1.7-0.3-2.6
		c0.3,1.3,0.6,2.6,0.8,3.9c0.3,1.7,0.7,3.5,1.1,5.2c0.3,1.1,0.6,2.1,1,3.1c-0.1,0.3-0.1,0.5-0.2,0.8c-0.3,1.3-0.7,2.7-1.2,4.4
		C75.5,134.7,75.5,132.9,75.3,131.1z M72.9,116.5c0-0.2,0-0.5,0-0.7c0.2,0.6,0.4,1.3,0.5,1.9c-0.1-0.4-0.2-0.7-0.4-1
		C73,116.6,72.9,116.5,72.9,116.5z M78.3,114.8c1.1,2,2.1,4.3,2.9,6.9C80,119.6,79.1,117.3,78.3,114.8z M76.1,103
		c0.1,0.6,0.2,1.2,0.4,1.7c0.6,3.1,1.3,6.2,2.3,9.2c-0.4-0.7-0.8-1.3-1.2-1.9c-0.2-0.6-0.3-1.3-0.4-2
		C76.7,107.7,76.4,105.3,76.1,103z M114.6,132.5c-1.3,2.1-2.3,4-3,5.9c0.1-1.8,0.5-3.5,1-5C113.2,133.2,113.9,132.9,114.6,132.5z
		 M132.7,105.1c0.1,0.1,0.2,0.2,0.2,0.3c0,0,0,0,0,0c0,0,0,0.1-0.1,0.1l0,0c0,0-0.1,0.1-0.1,0.1l-0.1,0.2c-0.1,0.1-0.1,0.2-0.2,0.3
		c-0.5,0.9-1,1.9-1.3,3C131.4,107.7,131.9,106.4,132.7,105.1z M64.2,85.8c-0.3,0.7-0.6,1.3-0.8,2c-0.3,1-0.6,2-0.9,2.9
		c-1,3.1-2,6.3-2.2,9.5c-0.1,1.1-0.1,2.2,0,3.4c-0.4,2.2-0.5,4.3-0.4,6.5l0,0.4c0.1,2.6,0.3,5.5,1.1,8c-0.4-0.5-0.7-0.9-1-1.4
		c-0.9-2.3-1.6-4.3-2.1-6.2c-1-3.3-1.3-6.8-1-10.4c0.4-2,1.1-4,2-6.1C60.2,91.6,61.9,88.7,64.2,85.8z M78.3,135.4
		c0.5,1.8,0.8,3.7,0.9,5.7c0,0.9-0.1,1.9-0.2,2.8c-0.1,0.9-0.2,1.9-0.2,2.8l-0.1,0.3c0,0.1,0,0.3,0.1,0.4c0.1,0.2,0.5,0.3,0.7,0.2
		c-0.6,2.3-1.4,4.5-2.7,6.3l-2.4,2c3.4-5.4,4.8-13.1,3.8-21.1C78.2,134.9,78.2,135.2,78.3,135.4z M86.3,121.5c3,2,6.5,3.5,10.1,4.3
		c0.6,0.1,1.2,0.2,1.9,0.2c2.6,0,5.3-1.2,7.6-2.2l0.1,0c0.7-0.3,1.5-0.7,2.2-1.1c-0.3,0.9-0.7,1.8-1.2,2.6c-0.1,0.2-0.2,0.4-0.3,0.7
		c-0.6,1.3-1,2.7-1.3,4c-0.3,1.1-0.4,2.4-0.5,3.6c-2,1.1-4.3,1.7-6.5,1.7c-2.8,0-5.5-0.9-7.9-2.6c-0.1-3.4-1.5-7-4.2-11.2
		L86.3,121.5z M136.3,134.7l0-0.7c0.3-3.6,0.1-6.9-0.7-9.9c-0.4-1.3-0.8-2.6-1.2-3.8c-0.3-2.3-0.3-4.6,0-6.7
		c0.7,2.6,1.9,5.2,3.4,7.7c0.9,1.4,1.4,2.7,1.7,4c-0.3,4-1.9,8.1-3.3,11.8C136.2,136.3,136.3,135.5,136.3,134.7z M137.3,105.5
		c0-0.2,0.1-0.3,0.1-0.5c0.7,2.3,0.1,5.3-0.9,7.5c0-0.2,0-0.3-0.1-0.5C136.3,109.8,136.8,107.6,137.3,105.5z M138.3,104.6
		c-0.4-1.5-1.8-2.7-2.9-3.5c-1.3-0.9-2.7-1.7-4.1-2.5c-0.6-0.3-1.1-0.6-1.7-1c-4.5-2.6-7.4-6.7-9.2-12.7l-0.1-0.2
		c-0.7-2.3-1.3-4.5-2.4-6.7l-0.3-0.6c-0.6-1.4-1.3-2.8-2.3-4.1c0.4,0.1,0.7,0.1,1.1,0.2l0,0c3.4,1.6,5,5.8,6.3,9.2l0.2,0.5
		c0.2,0.5,0.4,1.1,0.6,1.6c1,2.8,2.1,5.6,3.8,8.1c1.6,2.4,4,4.1,6.2,5.6c0.9,0.6,1.7,1.2,2.6,1.8c1.3,0.9,2.6,1.8,3.9,2.7
		c0.6,2.8-0.8,6.9-2.5,9.2c0,0,0,0,0,0C138.6,109.7,138.8,106.9,138.3,104.6z M140.8,105.8c0.1-1.2,0.1-2.1,0-3c0-0.1,0-0.3-0.1-0.4
		c-0.2-0.6-0.4-1.2-0.7-1.8c-1-1.6-2.5-3-3.8-4.3l-0.3-0.3c-0.7-0.7-1.5-1.4-2.2-2.1c-2.7-2.5-5.2-4.8-7.4-7.7
		c-2.4-3.3-3.8-6.8-5.2-10.5c-0.2-0.5-0.4-1-0.6-1.5c0.5,0.1,1.1,0.2,1.6,0.4c0.6,3.4,2.8,6.5,5,9.3c1,1.3,2.1,2.7,3.1,4
		c1.4,1.9,2.9,3.8,4.4,5.6c1.2,1.5,2.6,3,4,4.4c1.8,1.8,2.9,3.3,2.9,5.7c0,1.3-0.3,2.7-1,4.2C140.6,107.2,140.7,106.5,140.8,105.8z
		 M141.9,96.6c0.1-0.1,0.1-0.2,0-0.3c-0.6-2-1.4-4.1-2.4-6.1c1.3,1.6,2.4,3.2,3.1,5.3c0.4,1.3,0.7,2.7,0.8,4.2
		c-0.3-0.8-0.7-1.7-1.3-2.5C142.1,96.9,142,96.8,141.9,96.6L141.9,96.6z M133.4,77.4L133.4,77.4L133.4,77.4L133.4,77.4z M65.5,79.4
		c-0.6,1.2-1.3,2.4-2,3.5c0.3-0.6,0.7-1.3,1.1-1.9C64.8,80.5,65.2,79.9,65.5,79.4z M62.7,85.5c2-3,4-6.1,5.1-9.6l0.5-0.1
		c0.5-0.1,1-0.3,1.5-0.4c-0.8,1.8-1.8,3.6-2.8,5.3c-0.4,0.6-0.7,1.2-1,1.8c-3.3,3.8-5.7,7.4-7.4,11.1c1.1-3.1,2.7-5.7,4.1-7.8
		L62.7,85.5z M60.2,124.7c0.5-1,1-2.1,1.5-3.1c0,0,0.1-0.1,0.1-0.1l0.1-0.1c0-0.1,0.1-0.2,0.1-0.2c0.6-1.4,0.9-2.8,1.3-4.4
		c0.8-3.6,1.4-6.9,1.8-10.1c0,0.7,0,1.3,0,2c0,0.8,0.1,1.6,0,2.4c-0.1,3-1,5.7-2.1,8.5c-1.2,3.2-2.5,5.6-3.9,7.6
		c0,0-0.1,0.1-0.1,0.1C59.4,126.4,59.8,125.6,60.2,124.7z M64.5,118.1c0.9-2.5,1.4-4.7,1.5-7.1c0-0.9,0-1.8,0-2.7
		c0-1.2-0.1-2.4,0-3.6c0.2-2.1,0.6-4.3,1.2-6.5c1.2,5.3,0.9,11-0.9,17.9c-0.1,0.5-0.3,1.1-0.4,1.6c-0.3,1.1-0.7,2.3-0.9,3.5
		c-0.4,0.9-0.7,1.7-1.1,2.6l-0.4,0.8c-0.3,0.8-0.6,1.5-0.9,2.3c-1.1,2.8-2.3,5.7-4,8.3c-0.3,0.5-0.6,1-0.8,1.5c0,0-0.1,0.1-0.1,0.2
		c-0.2,0.4-0.3,0.9-0.4,1.3c-0.5-2.5-0.3-5.4,0.6-7.9c0.4-1.1,1.2-2.1,2-3.1c0.5-0.7,1.1-1.4,1.5-2.1
		C62.7,122.8,63.6,120.4,64.5,118.1z M57.9,142C57.9,142,57.9,142.1,57.9,142c0.2,0.4,0.4,0.7,0.6,1c0.1,0.1,0.2,0.2,0.4,0.2
		c0.5,1.7,1.1,3.5,1.6,5.1c-1.2-1.9-2.7-4.4-3.5-7.1c-0.3-1.1-0.5-2.2-0.5-3.4C56.7,139.4,57.2,140.8,57.9,142z M58.7,136.6
		c0.1-0.1,0.1-0.3,0.2-0.4c0,1.9,0.7,3.7,1.3,5.5c0.3,0.8,0.6,1.7,0.8,2.5c0.5,1.8,0.8,3.6,0.8,5.3c-0.1-0.2-0.1-0.4-0.2-0.5
		c-1.3-3.9-2.7-7.8-3.1-12C58.6,136.8,58.6,136.7,58.7,136.6z M62.5,147c-0.2-1.9-0.8-3.8-1.3-5.3c-0.1-0.3-0.2-0.7-0.4-1.1
		c-0.7-1.9-1.4-3.9-0.9-6c0-0.1,0-0.1,0-0.2l0,0c0.5-0.8,1-1.6,1.4-2.4c0.4-0.9,0.8-1.8,1.2-2.7c-0.6,2.1-1,4.2-1,6.3
		c0,2.5,1.1,5,3,7.2l0.1,0.1c-0.2,0.5-0.3,0.9-0.4,1.3c-0.7,2.5-0.9,5.3-0.9,7.8c-0.4,1-0.9,2-1.6,2.8
		C62.6,152.5,62.8,149.9,62.5,147z M73.1,126.1c-0.1-2.3-0.3-4.8-0.2-7.2c0.2,1,0.3,2.1,0.4,3.1c0.1,0.6,0.1,1.1,0.2,1.6
		c0.1,0.6,0.2,1.2,0.2,1.9c0.2,1.5,0.4,3,0.6,4.5c0.5,2.6,0.3,5.3,0.1,7.9c-0.1,0.7-0.1,1.4-0.1,2.1l-0.4,1.2c-0.9,2.9-1.8,6-2.6,9
		c-0.1-0.2-0.2-0.4-0.3-0.7c-0.2-0.5-0.5-1-0.8-1.5c0.4-2,0.9-4.1,1.4-6c0.5-1.8,0.9-3.5,1.2-5.1C73.6,133.4,73.3,129.7,73.1,126.1z
		 M75.1,144c0-1.3,0.1-2.7,0.2-4l0-0.2c0.6-1.9,1.2-4,1.7-6c0.9,7.2,0,12.5-2.8,16.5C74.9,148.3,75,146,75.1,144z M81.2,143
		c0.6-3.3,0.9-6.6,0.9-9.6c0,0,0-0.1,0-0.1c0.1-1.9,0.1-3.7-0.1-5.3c-0.4-2.6-1.3-5.4-2.9-8.5c-0.4-0.9-1-1.9-1.9-2.9
		c-0.2-0.2-0.4-0.5-0.7-0.7c-0.8-0.9-1.7-1.8-1.9-3c-1.3-4.1-1.1-7.7-0.5-11c0.2-1.4,0.4-2.7,0.5-4.1c0.2,1,0.4,2.1,0.5,3.1l0.2,1.7
		c0.3,2.1,0.6,4.3,0.9,6.4c0.2,1,0.4,2,0.6,3c0,0.1,0,0.1,0,0.2c1,4.5,2.6,8.3,4.8,11.6c0.1,0.2,0.3,0.4,0.5,0.7
		c0.6,2.4,1.1,5,1.6,7.9c0.4,2.9,0.6,5.4,0.6,7.7c-0.1,0.1-0.1,0.2-0.1,0.3c-0.2,4.9-2.6,9.8-6.2,13.1
		C79.8,150.4,80.6,146.5,81.2,143z M83.3,126.2c0.5,0.7,1,1.4,1.5,2.1c1.4,2.3,2.3,5.3,2.5,7.7c0.1,2-0.6,4.2-1.2,6.2l-0.1,0.3
		c-0.5,1.6-1.1,3.1-1.7,4.6c1.1-4.6,0.7-9.7,0.2-13.9C84.2,130.7,83.8,128.4,83.3,126.2z M87.9,142.4c-0.7,1.5-1.5,3-2.6,4.7
		c1.5-3.4,2.5-6.7,2.8-9.7c0.3-2.2-0.5-4.5-1.2-6.5c-0.8-2.3-2.1-4.2-3.2-5.5c-0.3-0.3-0.5-0.7-0.8-1.1c-0.8-2.9-1.7-5.5-2.8-7.9
		c0.6,0.8,1.3,1.5,2.3,2.3c2.2,4.1,5,9.3,6.6,14.6c0.4,1.3,0.6,2.5,0.6,3.5c0.1,1.8-0.8,3.6-1.5,5.3L87.9,142.4z M84.6,120.4
		c0,0.1,0,0.2,0.1,0.3c3.2,4.6,4.8,8.6,4.9,12.1c-1.2-4.5-3.5-8.7-5.7-12.9C84.1,120,84.4,120.2,84.6,120.4z M106.3,129.6
		c0.3-1.3,0.9-2.5,1.4-3.7c0.6-1.2,1.1-2.5,1.4-3.8c0.6-0.4,1.1-0.7,1.6-1.1c-1.5,3.1-2.8,6-3.7,9.4c-1.1,4.2-1,8.4-0.7,12
		c0,0.6,0.1,1.1,0.1,1.7c-0.3-1.5-0.6-3.1-0.7-4.7C105.3,136.1,105.5,132.8,106.3,129.6z M107.7,131.1c0.8-3.5,2.3-6.7,3.8-9.9
		c0.2-0.5,0.5-1,0.7-1.5c0,0,0,0,0,0c0.6-0.6,1.2-1.2,1.8-1.8c-0.3,0.6-0.6,1.2-0.8,1.8c-0.2,0.5-0.4,1-0.7,1.4
		c-1.3,2.7-2.6,6-3.4,9.9c-1.2,6-1.6,11.6-1.1,16.5c0.1,1.4,0.4,2.8,0.6,4c-0.7-2.5-1.2-5.4-1.5-8.7
		C106.8,138.4,106.9,134.5,107.7,131.1z M112,157.7c-0.3-0.5-0.7-1.1-1-1.6c-1.4-2.3-1.8-5.5-2.1-8.3l0-0.3
		c-0.6-4.8-0.2-10.1,1.2-16.9c0.7-3.4,2-6.4,3.4-9.5c0.2-0.4,0.4-0.8,0.6-1.2c0.5-1.1,1-2.2,1.5-3.2c-0.7,1.8-1.2,3.6-1.7,5.4
		l-0.1,0.3c-1.1,3.7-2.4,7.2-4,10.6l0,0.1c0,0,0,0.1,0,0.1l0,0.1c0,0.2,0.1,0.4,0.3,0.4l0.1,0c0.5,0.1,1,0.1,1.6,0
		c-1.6,5.1-0.9,10.9-0.2,16.1c0.1,0.8,0.2,1.7,0.3,2.5c0.2,2.1,0.5,4.3,0.9,6.4C112.4,158.3,112.2,158,112,157.7z M114.8,156.6
		c0.8,2.5,1.3,5.3,1.5,8.4c0-0.1,0-0.2-0.1-0.2c-0.3-0.9-0.6-1.7-0.9-2.6c-0.6-1.7-1.3-3.5-1.4-5.3c-0.1-1.4-0.1-2.9-0.1-4.3
		C114.1,153.9,114.4,155.2,114.8,156.6z M119,157.8c0,0,0-0.1,0-0.1c-0.1-1.8,0.2-3.9,0.5-5.7l0.1-0.8c0.7-4.4,2.1-8.3,4.2-11.8
		c0.8-1.3,1.7-2.4,2.6-3.5c0.9-1.1,1.8-2.2,2.5-3.4c0.9-1.4,1.4-3.1,1.8-4.7c-0.1,2.2-0.5,4.5-1.5,6.7c-0.7,1.6-1.2,3.3-1.8,4.9
		c-0.3,1-0.7,2.1-1,3.1c-0.8,2.2-1.9,4.4-3.1,6.5c-0.4,0.7-0.8,1.3-1.3,1.9l-0.4,0.6c-0.1,0-0.1,0.1-0.2,0.2l0,0.1l0,0
		c-0.6,0.9-1.2,1.9-1.7,3.1C119.4,155.7,119.1,156.7,119,157.8z M132.6,155.9c0,0-0.1,0.1-0.1,0.1l-0.1,0.2
		c-0.7,0.9-1.4,1.7-2.2,2.2c3-6.3,4.9-11.8,5.9-16.8c0.2-1,0.2-1.9,0.2-2.8c0.1,0,0.1-0.1,0.2-0.2c0.9-1.3,1.6-2.5,2.2-3.7
		c1.3,4.2,0.6,9.4-1.8,14.2c-0.9,1.7-1.9,3.4-3,5C133.5,154.6,133.1,155.2,132.6,155.9z M142.1,105.2c0.8-3.9-1.6-6.3-3.9-8.6
		c-3.2-3.2-5.8-6.9-8.4-10.5l-0.3-0.4c-0.5-0.7-1-1.4-1.6-2c-0.7-0.9-1.5-1.8-2.2-2.9l-0.4-0.7c-1-1.7-2-3.3-2.5-5.2
		c0.6,0.1,1.1,0.3,1.7,0.4c0.6,2.7,2.4,4.8,4.2,6.9c0.3,0.3,0.6,0.7,0.9,1c1.3,1.6,2.7,3.1,4,4.7c1.5,1.8,3.1,3.6,4.6,5.4
		c2.9,3.5,6.5,7.9,4,12.9c-0.3,0.5-0.6,1-0.9,1.5C141.7,106.8,142,106,142.1,105.2z M132.1,77.5c0.3,0.1,0.7,0.3,1,0.4
		c0.5,1.3,1.5,2.4,2.4,3.4c0.3,0.3,0.5,0.6,0.8,0.9c1,1.2,1.8,2.3,2.4,3.4c0.5,0.9,0.7,2.1,0.8,3.2
		C136.5,84.9,134.1,81.2,132.1,77.5z M134.7,77.2c0,0.1-0.1,0.2-0.3,0.2c-0.2,0-0.4,0-0.7-0.1c-0.1-0.1-0.2-0.1-0.3-0.1
		c-0.2-0.1-0.4-0.2-0.5-0.2c-0.1-0.1-0.2-0.1-0.3-0.1c-0.8-0.3-1.7-0.6-2.6-0.9l-0.4-0.1c-1.3-0.4-2.7-0.8-4.4-1.3
		c-0.1-0.1-0.3-0.2-0.4-0.1l-0.1,0c-2.4-0.6-5-1.2-8-1.7l-0.1,0c-0.6-0.1-1.3-0.2-1.9-0.3l-0.3,0c0,0-0.1,0-0.1,0l0,0
		c-5.5-0.8-11.2-1.3-16.9-1.3c-4.5,0-9,0.3-13.5,0.8c-2.6,0.3-5.3,0.7-7.9,1.2c-0.1,0-0.1,0-0.2,0l-0.1,0c-0.3,0.1-0.7,0.1-1,0.2
		c0,0-0.1,0-0.1,0c-1.9,0.4-3.8,0.8-5.7,1.3c-0.1,0-0.2,0.1-0.3,0.1c-0.5,0.2-1.7,0.6-2.3,0.6c-0.2,0-0.4,0-0.4-0.1
		c0-0.3,0-0.5,0-0.8c0-1.4,0-2.8,0-4.3c0.1-2,0.2-3.6,0.5-5c0.5-2.3,2.1-2.8,4.3-3.4c3.7-1.1,7.4-1.9,11.5-2.7
		c5.8-1.1,11.4-1.6,16.8-1.6c6.6,0,13,0.8,19.1,2.3c2.8,0.7,5.8,1.7,9.4,3c1.7,0.6,3.1,1.2,4.2,2.2c1.1,1.1,1.6,2.6,1.9,4
		c0.6,2.5,0.7,5.1,0.9,7.7L134.7,77.2z M65.4,151.4c-0.1,1.8-0.2,3.6-0.1,5.3c-1.2-2-1.3-4.4-1.1-6.6c0.2-2.5,0.5-4.5,1.1-6.4
		c0.3,0.3,0.6,0.6,0.9,0.9c-0.1,0.6-0.2,1.2-0.2,1.8C65.7,148,65.5,149.7,65.4,151.4z M69.6,158.7c-1.4-2.5-2.2-5.5-2.3-9
		c-0.1-1.2,0-2.5,0.1-3.9c0.6,0.6,1.2,1.3,1.8,2.1c0.1,0.2,0.2,0.3,0.3,0.5c-0.7,3.9-1.1,8.7,1.5,12.5
		C70.5,160.3,70,159.5,69.6,158.7z M67.5,144.7l0-0.2c0.2-1.7,0.3-3.4,0.3-5.2c0-0.6-0.1-1.2-0.2-1.8c0.5-1.2,1-2.6,1.5-4.1
		c1.1-3.4,2.1-6.6,2.8-9.8c0.1-0.3,0.2-0.7,0.2-1c0,0.7,0.1,1.4,0.1,2.2c0.1,0.8,0.1,1.6,0.2,2.4c0.2,4.4-0.1,8.4-1,12.6
		c-0.2,1-0.5,2-0.7,3c-0.3,1.4-0.7,2.9-1,4.4C69.2,146.5,68.5,145.7,67.5,144.7z M111.6,140.8c0.8-2.9,2.3-5.8,4.6-9.3
		c0.6-0.5,1.3-1,1.9-1.5c3.8-3.4,6-8.1,7-10.6c0.6-1.5,1.1-3.1,1.4-4.6l0.1-0.3c0.2-0.6,0.4-1.2,0.6-1.8l0.1-0.4
		c0.5-1.4,1-2.8,1.1-4.3c0.1-1.1,0-2.1-0.1-3.2c-0.1-1.4-0.1-2.7,0-4.1c0.9,0.8,1.6,1.5,2.3,2.2c0.4,0.4,0.9,0.9,1.3,1.6
		c0,0,0,0.1-0.1,0.1c-1.1,1.9-1.9,4-2.4,6.6c0,0.1-0.1,0.1-0.1,0.2l0,0.2c-0.1,0.6-0.2,1.2-0.3,1.8c-0.5,3.1-2.3,6-4,8.8l-0.5,0.9
		c-1,1.6-2,3.1-3.1,4.6c-3.1,4.5-6.3,9.1-7.6,14.5c-0.3,1.3-0.5,2.6-0.6,3.9c-0.4,0.9-0.4,2.2-0.4,3.3c0,0.3,0,0.6,0,0.8
		c0,2,0,4,0.1,6.3c0,0.6,0.1,1.2,0.2,1.7c-0.4-2.2-0.7-4.5-0.9-6.7c-0.1-1-0.2-2-0.3-2.9c-0.3-2.2-0.5-4.8-0.5-7.3
		C111.6,140.9,111.6,140.9,111.6,140.8z M120.6,161.8c-0.2-3,0.4-6.3,1.7-9.9c0.3-0.4,0.5-0.8,0.8-1.2c0.5-0.8,1.1-1.6,1.6-2.4
		c1-1.7,1.9-3.7,2.8-6.2c0.4-1,0.7-2.1,1.1-3.1c0.5-1.5,1-3.1,1.7-4.6c0.5-1.3,0.9-2.8,1.2-4.4c0.1,2.6-0.1,5-0.5,7.2
		c-0.1,0.4-0.2,0.8-0.3,1.2c-0.1,0-0.1,0.1-0.2,0.1c-1.4,1.7-2.3,3.7-3.1,5.6c-0.6,1.5-1.1,2.8-1.5,4.1c-1.5,2.8-3.1,5.8-3.9,9.2
		c-0.5,1.9-0.6,3.9-0.5,6.4c0.1,0.9,0.3,1.9,0.5,2.8c0.1,0.6,0.3,1.3,0.4,1.9C121.5,166.3,120.8,164.1,120.6,161.8z M128.8,161.8
		c0.1-0.2,0.1-0.3,0.2-0.5c0.2-0.5,0.4-1.1,0.6-1.6c0.4-0.2,0.8-0.4,1.1-0.7c-0.1,0.2-0.2,0.4-0.3,0.6c-0.1,0.1-0.2,0.3-0.3,0.6
		c-0.3,0.6-0.8,1.5-1.4,2.2C128.7,162.1,128.8,162,128.8,161.8z M138.6,133.2c0.5-1.3,0.9-2.7,1.2-4.1
		C139.6,130.4,139.2,131.7,138.6,133.2z M139.3,122.1c-0.3-0.6-0.6-1.2-1-1.8c-1.1-2-2-3.9-2.8-6c-0.9-2.5-1.1-4.5-0.8-6.6
		c0-0.2,0.1-0.4,0.1-0.6c0-0.1,0-0.1,0-0.2c0.2-1,0.4-2.1,0.7-3.1c0.1-0.4,0.2-0.8,0.3-1.2c0.1,0,0.1,0.1,0.2,0.1
		c0.3,0.3,0.6,0.7,0.9,1.1c0,0,0,0.1,0,0.1l-0.1,0.2c-0.5,2.2-1,4.4-1.1,6.7c-0.1,1.2,0.1,2.3,0.5,3.3l-0.3,0.6l0.4-0.4
		c0.4,1,0.9,1.9,1.4,2.9l0.3,0.5c0.9,1.5,1.4,3.2,1.5,5C139.5,122.5,139.4,122.3,139.3,122.1z M71.9,153C71.9,153,71.9,153,71.9,153
		c0-0.3-0.1-0.6-0.1-0.9c0,0,0.1-0.1,0.1-0.1c0.7-3,1.6-6.1,2.4-8.8C74.3,146.5,74.1,150.3,71.9,153z"/>
	<path fill="#181425" d="M72.3,84.3c-0.2,0-0.3,0.1-0.5,0.1c0,0,0,0,0,0l-0.1,0c-0.2,0-0.3,0.1-0.4,0.1c-0.2,0-0.4,0.1-0.6,0.1
		c-0.1,0-0.3,0.1-0.3,0.3c-0.1,0.3,0,0.6,0.1,0.8c0.2,0.2,0.5,0.4,1,0.4c0.1,0,0.3,0,0.4,0c0.2,0,0.4-0.1,0.5-0.1
		c0.3-0.1,0.6-0.1,0.9-0.1c0,0,0,0,0,0l0.2,0c0.4,0,0.8,0,1.3-0.2c0.4-0.3,0.4-0.6,0.4-0.8c-0.1-0.4-0.6-0.8-1-0.8
		C73.5,84,72.9,84.2,72.3,84.3z M71.8,85.3c0.1,0,0.3-0.1,0.4-0.1c0.2,0,0.3-0.1,0.5-0.1c0.4-0.1,0.8-0.2,1.1-0.2
		c0.2,0,0.3,0.1,0.4,0.1c0,0-0.1,0-0.2,0.1c-0.2,0.1-0.5,0.1-0.7,0.1h-0.2c-0.2,0-0.5,0-0.8,0.1C72.2,85.2,72,85.3,71.8,85.3z"/>
</g>
<circle fill="#C4E6ED" cx="-188.8" cy="25.3" r="93.2"/>
<g>
	<path fill="#F0705A" d="M-191.9,29.1c0.3,0.1,0.5,0.1,0.8,0.1c0.5,0,1-0.1,1.5-0.2c0.5-0.1,1-0.5,1.6-0.8c0.6-0.4,1.2-0.9,1.8-0.9
		c0.3,0,0.5,0.1,0.7,0.3c0.2,0.2,0.6,0.1,0.8-0.2c0.1-0.2,0-0.3-0.1-0.5c-0.4-0.3-0.8-0.5-1.3-0.5c-1.1,0-2.2,0.7-3.2,1.5
		c-0.4,0.3-0.8,0.4-1.2,0.4c-0.8,0-1.6-0.4-2.5-0.8c-0.9-0.4-1.8-0.8-2.7-0.8c-0.2,0-0.4,0-0.6,0.1c-0.2,0-0.4,0.2-0.3,0.5
		c0,0.2,0.2,0.4,0.5,0.4h0c0,0,0.1,0,0.1,0c0.8-0.2,1.7,0.3,2.5,0.7C-193.1,28.7-192.5,29-191.9,29.1z"/>
	<path fill="#F0705A" d="M-184.8,28.5c-0.2,0.1-0.4,0.3-0.3,0.5c0,0.2,0.2,0.4,0.4,0.4c0,0,0.1,0,0.1,0c1.9-0.6,2.6-2.2,2.1-4.7
		c0-0.2-0.2-0.3-0.4-0.3c-0.1,0-0.3,0.1-0.4,0.2c-0.1,0.1-0.1,0.2-0.1,0.4C-182.9,26.9-183.4,28-184.8,28.5z"/>
	<path fill="#F0705A" d="M-200,38.4c2,0.4,4.1,0.4,6.1,0.4c1,0,2,0,3.1,0.1c0.8,0,1.5,0,2.3-0.1c1-0.1,2-0.1,2.9,0l0.1,0
		c0.6,0.1,1.2,0.2,1.8,0.2c0.6,0,1.2-0.1,1.7-0.3c0.2-0.1,0.3-0.3,0.3-0.5c0-0.3-0.3-0.4-0.6-0.4c-0.4,0.1-0.9,0.2-1.4,0.2
		c-0.2,0-0.4,0-0.7,0c0.2,0,0.3-0.2,0.3-0.3c0-0.2,0-0.4-0.2-0.5c-0.3-0.1-0.5-0.3-0.7-0.4c-1.2-0.7-2.3-1.3-3.7-1.3
		c-0.2,0-0.5,0-0.7,0.1l-0.1,0c-0.9,0.1-1.8,0.3-2.7,0.1c-0.6-0.1-1.2-0.2-1.7-0.1c-0.7,0.2-1.3,0.5-2,0.9c-0.7,0.3-1.3,0.7-2,0.8
		c-0.2,0.1-0.4,0.3-0.3,0.5c0,0,0,0.1,0,0.1c-0.2,0-0.5-0.1-0.7-0.2c-0.3-0.1-0.5-0.1-0.7-0.2l-0.1,0c-0.2,0-0.4,0.2-0.5,0.4
		C-200.3,38.2-200.2,38.4-200,38.4z M-185.2,38c-0.3,0-0.7-0.1-1.1-0.1c-0.9-0.1-1.8,0-2.7,0.1c-0.6,0-1.2,0.1-1.9,0.1h0
		c-0.6,0-1.2,0-1.8-0.1c-0.6,0-1.3-0.1-1.9-0.1c-0.5,0-0.9,0.1-1.4,0.1c-0.2,0-0.4,0-0.6,0.1c-0.2,0-0.4,0-0.7,0
		c0.8-0.3,1.4-0.6,2.2-1l0.1-0.1c0.5-0.3,1-0.4,1.6-0.4c0.3,0,0.7,0,1.1,0.1c0.5,0,0.9,0.1,1.5,0.1c0.4,0,0.8-0.1,1.1-0.1
		c0.4,0,0.8-0.1,1.2-0.1c0.8,0,1.4,0.2,2.1,0.6c0.4,0.2,0.8,0.4,1.1,0.6c0.2,0.1,0.3,0.2,0.5,0.3C-184.9,38-185.1,38-185.2,38z"/>
	<path fill="#F0705A" d="M-184.7,40.2c-0.5,0.1-1,0.3-1.4,0.5c-0.5,0.2-1,0.4-1.6,0.5c-0.4,0.1-0.8,0.2-1.4,0.2
		c-0.4,0-0.7,0-1.1-0.1c-0.5,0-1.1-0.1-1.6,0c-2.6,0.2-4.1-0.4-6.2-2.3c-0.2-0.2-0.6-0.1-0.7,0.2c-0.1,0.2,0,0.4,0.1,0.5
		c1.6,1.5,3.1,2.5,5.2,2.6c0.4,0,0.8,0,1.2,0c0.5,0,1,0,1.5,0c0.6,0,1.3,0,1.9,0l0.1,0c1,0,2.1-0.4,3-0.8c0.4-0.2,0.8-0.3,1.2-0.4
		c0.2-0.1,0.4-0.3,0.3-0.5C-184.2,40.3-184.4,40.1-184.7,40.2z"/>
	<path fill="#F0705A" d="M-174.6,32.2c0,0,0.1,0,0.1,0c0,0,0,0,0,0l0.1,0c0.1,0,0.2,0,0.3-0.1c0.1,0,0.2-0.1,0.2-0.2
		c0,0,0-0.1,0.1-0.1c0.2-0.2,0.1-0.5,0-0.6c-0.3-0.3-0.6-0.3-0.8-0.2c-0.1,0.1-0.2,0.2-0.3,0.3c0,0,0,0.1,0,0.1c0,0-0.1,0.1-0.1,0.2
		l0,0c0,0.1,0,0.3,0.1,0.4C-174.9,32.1-174.7,32.2-174.6,32.2z M-174.4,31.9L-174.4,31.9L-174.4,31.9L-174.4,31.9z"/>
	<path fill="#F0705A" d="M-143.3,14.9c-0.1-0.2-0.3-0.3-0.4-0.5l-0.1-0.2c0-0.1,0-0.1,0-0.2c-0.1-0.4-0.1-0.9-0.2-1.3
		c-0.1-0.9-0.2-1.8-0.5-2.7c-0.3-1.2-1.1-2.3-1.9-3.3l-0.3-0.4c-0.5-0.6-1-1.2-1.5-1.8c-1-1.1-2-2.2-2.6-3.4c0.1,0,0.3,0.1,0.4,0.1
		c0.8,0,0.9-0.8,1-1.1l0-0.1l0,0l0-0.1l0,0c0-0.5-0.1-1.1-0.1-1.7c-0.2-5.1-0.5-11.5-5.4-14.1c-0.2-0.1-0.4-0.2-0.6-0.3
		c-0.5-2.5-1.5-4.8-2.3-6.5c-1.4-2.9-2.5-5.7-3.4-8.3l-0.4-1.3c-1.3-4-2.7-8.1-5.3-11.5c-3.6-4.7-9-5.4-13.8-5.4
		c-1.8,0-3.5,0.1-5.3,0.2c-2.1,0.1-4.1,0.2-6,0.2c-1,0-2.1-0.1-3.1-0.2c-1.4-0.1-2.8-0.2-4.1-0.2c-1,0-1.9,0.1-2.8,0.2
		c-3.7,0.5-5.7,2.1-7.1,5.6c-0.2,0.5-0.4,1-0.6,1.6c-0.8,1.9-1.5,3.8-2.7,5.5c-0.6,0.9-1.2,1.7-1.8,2.6c-0.8,1.1-1.6,2.2-2.4,3.4
		c-3,4.5-4.9,8.5-5.9,12.6l-0.1,0c-0.2,0.1-0.4,0.1-0.6,0.2c-3.2,1.1-3.5,4-3.8,6.9c-0.3,2.9-0.3,5.7-0.2,7.9c0,0.5,0,1.2,0.7,1.5
		c0.1,0.1,0.2,0.1,0.3,0.1c-0.7,1.7-1.6,3.3-2.5,4.9c-1.2,2.1-2.5,4.2-3.1,6.7l0,0c-2.5,4-4.1,7.9-4.9,12c-0.2,1.2-0.4,2.5-0.5,3.7
		c-1.1,6.6,0.1,12.9,3.6,18.3c0.5,1.3,1,2.6,1.7,4.3c-0.3,0.6-0.5,1.2-0.8,1.7c-2,3.8-3.4,7.4-4.4,11c-1.7,6.3,0.3,13.1,5.9,20.2
		c0.1,0.1,0.1,0.1,0.2,0.1c-0.2,2.2-0.9,4.2-2,6c-0.1,0.1-0.1,0.3,0,0.4c0.1,0.2,0.5,0.3,0.7,0.1c1.3-1,2.3-2.3,3.1-3.7
		c0.3,2,1.1,3.7,2.4,5.1c0.2,1.1,0.6,2,1,2.8c0.2,0.3,0.6,0.3,0.8,0c0.1-0.1,0.1-0.3,0-0.4c-0.4-0.7-0.7-1.5-0.9-2.4
		c0-0.1,0-0.3-0.1-0.4c-0.5-2.5-0.3-5.3-0.1-7.8l0-0.4c0.1-1.1,0.2-2.2,0.4-3.3c-0.1,2-0.1,4,0.2,6.1c0.2,1.1,1.9,10.5,7.3,11.4
		l0.1,0c0.1,0,0.1,0,0.2-0.1l0.1,0c0.2-0.1,0.3-0.4,0.2-0.5c0-0.1-0.1-0.2-0.2-0.2c-3.8-3.1-5-7.6-3.9-14.6c1.1,2.3,1.3,5,0.6,8
		c0,0.1,0,0.3,0.1,0.4c0.1,0.1,0.2,0.2,0.4,0.2c0.2,0,0.4-0.1,0.4-0.3c0.3-1.3,0.5-2.6,0.5-3.8c0.2,0.2,0.5,0.2,0.6,0
		c2.2-2,3.8-4.4,4.9-7.2c-1,5-3,9.2-5.9,12.3c-0.1,0.1-0.2,0.3-0.1,0.5c0.1,0.3,0.5,0.4,0.7,0.2l3.6-2.9c0.1,0.2,0.4,0.2,0.6,0.1
		c3.8-2.4,6.9-6.2,8.6-10.6c-0.7,2.9-1.9,5.4-3.5,7.2c-0.1,0.1-0.2,0.3-0.1,0.5c0.1,0.3,0.5,0.4,0.7,0.1c5.4-6.1,11.1-13.2,10-20.7
		c0.1-0.1,0.2-0.2,0.2-0.4c0-0.4,0.1-0.7,0.1-1.1c2.6,1.8,5.6,2.7,8.7,2.7c2.4,0,4.9-0.6,7.2-1.7c-0.1,1.9,0,4,0.2,6.1
		c0.3,2.9,1,5.8,1.6,8.6c0.1,0.6,0.3,1.2,0.4,1.8c0.7,3.3,1.6,6.9,3.3,10.2c0.2,0.3,0.6,0.3,0.8,0c0.1-0.1,0.1-0.2,0.1-0.3
		c0.1,0.2,0.2,0.4,0.3,0.6c0.6,1,1.2,1.9,1.7,2.7c0.2,0.3,0.5,0.6,0.7,1c0.5,0.6,1,1.2,1.3,2l0.2,0.5l0.1-0.2c0.2,0.1,0.4,0,0.6-0.2
		c0.1-0.1,0.1-0.3,0.1-0.4l0-0.1h0c-0.7-1.7-1.2-3.5-1.6-5.3c0.4,1.6,0.9,3.1,1.4,4.4c0.7,1.9,1.3,3.9,1.5,6.1c0.1,1,0,2-0.2,3
		c-0.1,1-0.2,2.1-0.1,3.2c0,0.2,0.2,0.4,0.5,0.4c0.2,0,0.3-0.1,0.4-0.2c0.1-0.1,0.1-0.3,0.2-0.4l0.1-0.2c1.7-3.8,2.5-7.8,2.3-12.2
		c0,0,0,0,0,0c0,0.1,0,0.3,0,0.4c0,0.1,0,0.2,0.1,0.3l0,0.2c0.2,1.1,0.3,2.2,0.3,3.3c0,0.1,0,0.2,0.1,0.3c0.1,0.1,0.2,0.1,0.3,0.1
		c0.3,0,0.5-0.2,0.5-0.4c0-1.2-0.2-2.3-0.4-3.5c-0.1-0.3-0.1-0.7-0.2-1c0-0.3-0.1-0.6-0.1-0.8c0-0.3-0.1-0.7-0.1-1
		c-0.1-1.8,0.2-3.6,0.8-5.3c-0.5,2.2-0.7,4.3-0.6,6.4c0.1,3.6,1.6,7,2.8,10.1c0.1,0.2,0.3,0.3,0.5,0.3c0.2,0,0.4-0.1,0.4-0.4
		c0.2-1.3-0.1-2.6-0.4-3.8c-0.1-0.4-0.2-0.8-0.3-1.3c-0.5-2.9-0.5-5.9,0-8.8c0.5-2.5,1.4-4.8,2.4-6.8c-1,4-1,8-1.1,11.9
		c0,2.5-0.1,5.1-0.4,7.7c0,0.1,0,0.2,0.1,0.3c0.1,0.1,0.2,0.2,0.4,0.2c0.2,0,0.4-0.1,0.4-0.3c0.4-1.7,1.2-3.3,2-4.8
		c0.2-0.4,0.4-0.9,0.7-1.3c0.8-1.6,1.5-3.2,2.2-4.7c0,0.2-0.1,0.3-0.2,0.5c-0.3,1.1-0.7,2.5-1.4,3.2c-0.2,0.2-0.2,0.4-0.1,0.5
		c0.1,0.2,0.2,0.2,0.4,0.2c1.2,0,2.2-1.7,2.9-2.8c0.1-0.2,0.2-0.3,0.3-0.5c0.5-0.8,1-1.7,1.5-2.5c0.5-0.9,1-1.8,1.6-2.6
		c0.3-0.4,0.6-0.8,0.9-1.2c1.5-2.1,2.9-4.4,4.2-7c2.9-5.6,3.4-11.9,1.5-16.9c1.5-3.5,2-6.6,1.4-9.6c0.1-1.9,0-3.6-0.4-5.3
		c-0.3-1.5-1.1-2.9-1.9-4.3c-0.5-0.9-1-1.8-1.4-2.7c0,0,0,0,0,0l0.2-0.2c1.9-0.9,3.3-3.1,4.4-5c0.4-0.7,0.8-1.4,1.2-1.9
		c1.3-1.8,1.9-3.6,1.8-5.6c0.1-0.1,0.2-0.2,0.2-0.3C-139.4,22.8-140.6,18.3-143.3,14.9z M-202.3-47.9c1-0.2,2-0.2,3.2-0.2
		c1.5,0,2.9,0.1,4.4,0.2c0.8,0.1,1.6,0.1,2.3,0.2c0.8,0,1.7,0.1,2.6,0.1c1.6,0,3.2-0.1,4.8-0.1c1.6-0.1,3.2-0.1,4.8-0.1
		c0.8,0,1.6,0,2.3,0.1c4.9,0.2,8.4,2,10.9,5.6c2.2,3.1,3.4,6.8,4.6,10.4c0.2,0.7,0.4,1.4,0.7,2c0.6,1.9,1.5,3.8,2.3,5.6
		c1.1,2.5,2.3,5.1,2.9,7.8c-3.1-1.4-6.4-2.3-9.7-3.1l-1.4-0.4c-4.7-1.3-9.7-2.1-14.7-2.6c-2.3-0.2-4.6-0.3-7-0.3
		c-6.5,0-13.5,0.8-21.5,2.3c-4,0.8-7.5,1.6-10.8,2.6c0.9-3.6,2.6-7.2,5.3-11.3c0.7-1.1,1.5-2.1,2.3-3.2c1.7-2.3,3.4-4.6,4.4-7.2
		c0.2-0.5,0.4-1,0.5-1.4c0.6-1.5,1.2-3.1,2.1-4.5C-205.9-47.2-203.8-47.7-202.3-47.9z M-153.4,74.2c0.9-2.4,1.4-4.4,1.7-6.4
		c0.7-5.5-0.5-10.9-1.8-16.1c-0.3-1.3-0.6-2.6-0.9-3.9c-0.7-3.5-0.5-7.5,0.6-11.2c0,0.6,0,1.1,0,1.7c0.1,3.2,1,6.2,2.1,9.5l0.2,0.6
		c0.2,1.7,0.6,3.6,1.2,5.9c0.7,2.8,1,5.6,0.9,8.6c-0.3,3.2-1.1,6.3-1.8,9.4l0,0.1c-0.6,2.7-1.5,5.5-2.4,8.2c-0.2,0.5-0.3,1-0.5,1.5
		C-153.6,79.4-153.4,76.9-153.4,74.2C-153.4,74.3-153.4,74.3-153.4,74.2z M-171.2,88.5c-0.2-0.7-0.4-1.3-0.6-1.9
		c-0.3-0.8-0.6-1.7-0.8-2.5c-0.2-1-0.4-2-0.5-3c0.4,1.7,0.8,3.2,1.3,4.7c0.6,1.7,1.4,3.6,2.7,4.9c0.7,4.7,0.4,8.9-0.8,12.9
		C-169.5,97.8-170,92.9-171.2,88.5z M-154.3,76.6c-0.2,4.4-1.2,9-3.1,13.7c-0.8,2.1-1.8,4.2-2.8,6.1c-0.2,0.4-0.4,0.8-0.6,1.1
		c-0.2,0.5-0.5,0.9-0.7,1.4c0.7-5.2,2.2-10.6,4.4-16c0.5-1.3,1.1-2.5,1.6-3.7C-155.1,78.3-154.7,77.4-154.3,76.6z M-174.7,92.1
		c-0.4-0.6-0.8-1.1-1.1-1.7C-175.4,90.9-175.1,91.5-174.7,92.1z M-210.8,74.4c-0.2,1-0.4,2-0.6,3c0-0.1,0-0.1,0-0.2l0,0
		C-211.2,76.2-211,75.3-210.8,74.4z M-225.9,69.8c0,0.2,0,0.4,0,0.6c-0.1,0.9-0.1,1.8-0.3,3c-0.3-0.3-0.6-0.6-0.8-0.8
		c0.1-0.4,0.2-0.7,0.4-1.1C-226.3,71-226.1,70.4-225.9,69.8z M-161.3,9.3c2.1,3.1,4.7,6,7.6,8.6c0.5,0.5,1.1,1,1.7,1.5
		c1.1,1,2.3,2,3.3,3.1c1.3,1.3,2.9,2.8,3.8,4.6c-0.8-0.5-1.6-1.1-2.4-1.6c-4.2-2.8-8.6-5.7-11.2-10
		C-159.6,13.5-160.5,11.4-161.3,9.3z M-168.2-3.8c0.3,0.1,0.7,0.1,1,0.2c0.2,0.5,0.4,1,0.6,1.4C-167.1-2.8-167.6-3.3-168.2-3.8z
		 M-156.8,3.9c-1.6-1.9-3-3.7-3.6-5.9c1.4,0.4,2.8,0.8,4.2,1.2c1.1,2.2,2.3,4.1,3.6,5.8c0.6,0.7,1.2,1.4,1.9,2.1
		c0.9,1,1.9,2.1,2.7,3.2c1.6,2.5,3.1,5.6,4.3,8.9c-1.7-2.4-3.7-4.6-5.6-6.8c-0.7-0.8-1.3-1.5-2-2.3C-153.3,8.2-155,6-156.8,3.9
		L-156.8,3.9z M-155-0.4c0.2,0.1,0.3,0.1,0.5,0.2c0.8,1.6,1.7,3.2,2.7,4.8C-153,3.1-154,1.4-155-0.4z M-149.5,69.1
		c0,0.4-0.1,0.8-0.1,1.3c-0.5,3.5-1.7,6.9-2.9,10.2l-0.2,0.5c-0.2,0.6-0.4,1.1-0.6,1.7c0.1-0.4,0.2-0.7,0.3-1.1
		c0.7-2.3,1.4-4.6,2.1-7C-150.3,72.7-149.8,70.9-149.5,69.1z M-155.9,70.7c-0.4,0.8-0.8,1.6-1.2,2.4
		C-156.7,72.3-156.3,71.5-155.9,70.7z M-158.3,77.2c0.3-0.5,0.6-1,0.8-1.5c1.7-3,3.3-6,4-9.7c0.5-2.5,0.6-5.1,0.5-8.2
		c0.6,3.2,0.8,6,0.6,8.6c-0.3,4.5-2.2,8.6-4,12.6c-0.6,1.3-1.2,2.6-1.7,3.9c-1.5,3.6-2.6,7.2-3.4,10.8c0-3.2,0.1-6.5,0.8-9.7
		c0.3-1.7,0.8-3.4,1.4-5.2C-159,78.3-158.7,77.8-158.3,77.2z M-154.7,51C-154.7,51-154.7,51-154.7,51c-1.5,3.1-3.8,5.5-6,7.9
		c-0.8,0.9-1.7,1.8-2.5,2.8c-1.6,1.8-2.9,3.8-4.1,5.9c0.8-2.5,1.8-4.9,3.1-7c0.8-1.3,1.7-2.5,2.5-3.7c1.4-2,2.9-4,3.9-6.3
		c0.9-2,1.5-4.1,2-6.4c0,0.5,0,1,0.1,1.4C-155.5,47.4-155.1,49.3-154.7,51z M-160.6,51l0.6-0.9c1.1-1.8,2.3-3.7,3.2-5.6
		c-0.6,2.6-1.4,5-2.6,7.2c-1,1.9-2.2,3.6-3.4,5.3c-1.3,1.8-2.6,3.6-3.6,5.5c-1.2,2.4-2.1,5.1-2.7,8.4c-0.2,0.4-0.4,0.8-0.5,1.2
		c-1.5,3.6-1.4,7-1.1,10.1l0.1,0.8c0.1,1.4,0.3,2.9,0.6,4.4c-0.5-1.1-0.9-2.2-1.2-3.2c-0.9-2.9-1.4-5.8-1.8-8.1
		c0.1-1.4,0.4-2.8,0.7-4.3c0.8-3.5,2.3-7,4.4-9.9C-165.6,58.8-163.2,55.2-160.6,51z M-168.3,71.6l0.1-0.3c1.5-3.5,3.8-6.9,7-10.5
		c0.5-0.6,1-1.1,1.5-1.6c1.6-1.8,3.3-3.6,4.7-5.7c-0.4,2.7-1.1,5.4-2.7,7.8c-0.8,1.2-1.8,2.4-2.7,3.6c-1.2,1.4-2.4,2.9-3.3,4.6
		c-1.9,3.4-3.3,7.4-4.2,12.4c-0.3,1.5-0.5,3.1-0.6,4.9C-169.3,81.6-169.3,76.5-168.3,71.6z M-151.1,38.1c-0.5,1.9-0.7,4-0.6,6.1
		c-0.3-1-0.6-2.1-0.8-3.2c-0.3-1.7-0.9-6,0.6-8.7l0,0c0-0.1,0.1-0.1,0.1-0.2c0,0,0.1-0.1,0.1-0.1c0.2,0.3,0.4,0.6,0.7,0.9
		C-151.4,35-151.4,36.6-151.1,38.1z M-225.7,62.2c-0.3-1.3-0.7-2.7-0.9-4c-0.6-3.4-0.6-6.6-0.1-9.3c2.6-6.4,4.5-12,5.1-17.8
		c0.2,1.4,0.2,2.6-0.2,3.7C-224.8,43.3-226.1,52.7-225.7,62.2z M-230.2,67.1c-0.9-3.1-0.1-6.4,0.8-9.5c0,1.8,0.3,3.5,1,5.1
		c0.3,0.7,0.6,1.3,0.9,2c0.6,1.2,1.1,2.3,1.4,3.5l-0.1,0.2c-0.5,1.1-1,2.3-1.4,3.4C-228.9,70.2-229.7,68.7-230.2,67.1z M-159.9,20.8
		c1.7,1.5,3.6,2.6,5.5,3.7c1.6,0.9,3.2,1.8,4.6,2.9c0,0,0,0,0,0c-0.1,0.6-0.3,1.3-0.5,1.9c-0.1,0.5-0.3,1.1-0.4,1.6
		c-0.8-2.4-2.2-4.3-4.1-5.8c-0.7-0.5-1.4-1-2.1-1.5c-2.1-1.4-4-2.8-5.6-5c-1-1.4-1.7-2.8-2.4-4.4C-163.6,16.9-162,19-159.9,20.8z
		 M-158.1,30.4c0,0.9,0.1,1.9,0.1,2.8c0,1.3-0.3,2.4-0.7,3.7c0-0.1,0-0.3,0-0.4c0.1-0.5,0.1-0.9,0.1-1.2c0-0.1,0-0.2-0.1-0.3
		c-0.1-4.3-1-8.6-2.7-12.8c0.4,0.3,0.8,0.7,1.1,1l0.5,0.4c0.6,0.5,1.2,1.1,1.8,1.6C-158.3,26.8-158.2,28.7-158.1,30.4z M-223.7,2.6
		c0.9-1.6,1.8-3.2,2.5-4.9c1-0.3,2-0.5,3.1-0.7C-220.1-1.2-221.9,0.7-223.7,2.6z M-182.3,2.7l-0.1,0c-0.5,0-0.8-0.1-0.8-0.3
		c-0.1-0.3,0.3-0.8,1-1.1c1.1-0.5,2.3-0.7,3.4-0.9c1.1-0.2,2.4-0.5,3.6-1c0.2,0.4,0.4,0.7,0.6,1.1C-176.8,1.2-181.2,2.7-182.3,2.7z
		 M-222.9,23.3c0.5,1.4,1.1,2.7,1.1,4c-0.3-0.8-0.7-1.5-1-2.2c-0.6-1.2-1.1-2.4-1.5-3.5c-0.1-0.3-0.2-0.6-0.3-0.9
		c0-0.1,0-0.2-0.1-0.3c-0.7-2.9-0.7-6.2,0-9.9c1.9-3.6,4.2-7.2,6.8-11c-0.4,2.5-0.9,4.7-1.7,6.8c-1.1,0.3-2.3,0.6-3,1.2
		c-0.1,0.1-0.1,0.2-0.1,0.3c-0.4,1.2,0.3,2.8,0.5,3.3c0,0.1,0.1,0.2,0.3,0.2c-1.3,2.1-1.9,4.9-2.1,6.9
		C-224.2,20-223.5,21.7-222.9,23.3z M-223.3,26.3c0.2,0.4,0.3,0.7,0.5,1.1c0.2,0.4,0.3,0.7,0.4,1.1c-0.1,4.5-1.1,8.7-2.4,12.5
		c0,0,0,0,0-0.1c1.3-5.7,1.6-11.1,0.7-16.1C-223.7,25.3-223.5,25.8-223.3,26.3z M-227.7,21c0,2.7,0,5.2-0.3,7.9
		c-0.4,3.5-0.9,7.2-1.8,11.5l-0.1-0.6c-0.8-3.5-1.6-7.1-1.9-10.7c0.4-2.2,1.1-4.6,2-7.2c0.8-2.3,1.8-4.5,2.8-6.7
		c-0.4,1.7-0.8,3.4-0.8,5.3L-227.7,21z M-181.5,7.2c-1.4,0.7-2.2,1.8-3,2.9c-0.2,0.2-0.4,0.5-0.5,0.7c-0.3,0.4-0.5,0.5-0.6,0.5
		c0,0-0.1,0-0.2-0.1c-0.4-0.5-0.5-2.4-0.4-3.2c4.3-2,8.5-3.1,12.6-3.1c0.4,0,0.8,0,1.3,0l0.1,0.2c-0.4,0-0.8-0.1-1.3-0.1
		C-176.7,5.1-179.6,6.2-181.5,7.2z M-184.8,11.9c0,0,0-0.1,0-0.1c0.4-0.4,0.8-0.9,1.1-1.4l0.1-0.2c0.9-1.3,2-2.1,3.7-2.8
		c1.5-0.6,3.8-1.4,6.2-1.4c0.6,0,1.2,0.1,1.7,0.2c0.3,0.6,0.7,1.4,1,2.2c0.3,0.6,0.5,1.3,0.7,1.9c0.3,0.9,0.6,1.8,1,2.6
		c1.1,2.2,2.7,4.3,5.1,6.7c-0.5,2.5-3,4-4.9,4.9c-3,1.5-6.7,1.4-10.2-0.2C-183.7,22.4-185.9,17.5-184.8,11.9z M-187.2,8
		c0,0.3-0.1,0.6-0.1,1c-0.7-0.1-1.3-0.2-2.1-0.2c-1.3,0-2.6,0.2-3.8,0.4c-0.1-0.4-0.2-0.9-0.3-1.2C-191.3,7.4-189.4,7.4-187.2,8z
		 M-207.4,5.7c2.9,0,5.7,0.2,8.2,0.6c1.2,0.2,2.7,0.5,4.1,1.3c0.2,0.1,0.4,0.3,0.5,0.4c0,0.1,0.1,0.1,0.1,0.1
		c0.3,0.4,0.5,0.9,0.5,1.6c0.1,0.3,0,0.6-0.1,0.7c-0.1,0.2-0.4,0.3-0.7,0.3c-0.1-0.2-0.2-0.4-0.4-0.6c-2.4-4-9-4.5-11.7-4.5
		c-0.3,0-0.7,0-1,0c-2.6,0.1-5.1,0.7-7,1.9c-1.9,1.1-2.3,2.7-2.8,4.5c0,0.1,0,0.1-0.1,0.2c-0.5-0.8-1.1-1.7-1.9-1.9
		c-0.4-0.1-0.7-0.2-1-0.2c-0.1,0-0.1,0-0.2,0l-0.1,0c-0.1,0-0.2,0-0.3,0c-0.1,0-0.1,0-0.2-0.1c-0.3-0.4-0.4-1.6-0.3-2
		c0.8-0.6,2.2-0.9,3.4-1.1c0.4-0.1,0.8-0.2,1.1-0.2c2.4-0.6,5-1,7.7-1.1C-208.8,5.7-208.1,5.7-207.4,5.7z M-216.7,12.4
		c0.3-1.2,0.6-2.4,1.6-3.4c1.2-1.2,3.1-1.6,4.8-2c1.2-0.2,2.4-0.4,3.6-0.4c2.6,0,5.2,0.6,7.6,1.6c1.5,0.7,2.7,1.7,3.4,2.9l0,0
		c0.9,3.4,0.3,7-1.6,9.8c-1.8,2.6-4.4,4.2-7.5,4.6c-0.4,0-0.8,0.1-1.2,0.1c-6.3,0-10.7-6.4-10.8-12.4c0-0.1,0-0.2-0.1-0.2
		C-216.9,12.8-216.8,12.6-216.7,12.4z M-165.3,28.9l0.1-0.3c0.5-2.1,0.9-4,0.7-5.9c0-0.1,0-0.2-0.1-0.2c0.4-0.5,0.7-1,0.9-1.5
		c0.1,0.8,0.1,1.7,0.1,2.5V24c0,2.3-0.3,4.1-1,5.6c-0.6,1.4-1.4,2.7-2.1,4C-166,32.1-165.6,30.5-165.3,28.9z M-216.7,5.7
		C-216.7,5.7-216.7,5.7-216.7,5.7c-0.4,0.1-0.8,0.2-1.2,0.3c-0.2,0-0.3,0.1-0.5,0.1c0.5-1.3,0.8-2.7,1.1-4c0.1-0.5,0.2-1,0.2-1.6
		c0.1-1.3,0.3-2.6,1.1-3.5C-216.4,0.2-216.8,2.9-216.7,5.7z M-223.8,7.3c0.5-1.8,1.2-3.5,2-5.3c0-0.1,0-0.1,0-0.2
		c1.4-1.4,2.8-2.8,4.2-4.2C-219.9,1-222,4.2-223.8,7.3z M-223.5,3.7c-0.9,2.2-1.5,4.4-1.9,6.6c-2.3,4.3-4.1,8.4-5.7,12.7
		c-0.3,0.8-0.5,1.6-0.8,2.4c0.2-3.3,1.3-6.7,2.3-10c0.4-1.1,0.7-2.3,1-3.4c0.8-2.2,1.8-4.2,2.7-5.8C-225,5.3-224.3,4.5-223.5,3.7z
		 M-232.3,33.1c0.4,2.2,0.9,4.3,1.4,6.4c0.2,1,0.5,2,0.7,3c-0.1,0.6-0.2,1.1-0.4,1.7c-0.1,0.5-0.2,1-0.4,1.5c-1-2.8-1.1-6-1.3-8.8
		l0-0.9C-232.3,35-232.3,34.1-232.3,33.1z M-172.8,50.6l0-0.1c1-3.5,2-6.8,3.5-10c0.7-1.6,1.7-3.1,2.6-4.6c1.5-2.4,3-4.9,3.7-7.6
		c0.3-1.1,0.5-2.4,0.6-3.7c0.9,7.1-2.3,14.9-5.8,21.7c-1.7,3.4-3.7,6.7-6.1,10.3c-0.2,0.3-0.4,0.6-0.6,0.9c-0.3,0.4-0.5,0.8-0.8,1.3
		C-174.6,56.1-173.6,53.4-172.8,50.6z M-152.1,29.8c-0.2-0.3-0.5-0.6-0.7-0.9c-1.2-1.5-2.6-2.8-4-4
		C-154.6,26.3-153.1,27.9-152.1,29.8z M-226.8,21.3c-0.1-2,0.2-4,0.8-6.1c0,1.4,0,2.7,0.2,4c0.1,0.4,0.2,0.9,0.3,1.5
		c-0.5,1.8-1,3.8-1.4,5.9C-226.7,24.5-226.7,22.8-226.8,21.3z M-214.1,58.3c-0.2-0.6-0.4-1.1-0.5-1.7c-0.6-2.1-1-4.3-1.4-6.5
		c-0.6-2.9-1.2-5.8-2.1-8.6c1.9,2.6,3.2,5.3,4,8C-213.3,52.6-213.6,55.6-214.1,58.3z M-211.6,65.5c-0.4-1.7-1-3.3-1.6-4.8
		c-0.1-0.3-0.2-0.5-0.3-0.8l0-0.2c0.1-0.2,0.1-0.5,0.2-0.7c0.9-4,0.9-7.1-0.1-10.3c-0.9-3-2.6-6.1-5.3-9.4c0,0,0,0-0.1-0.1
		c-0.1-2.7-0.3-5.5-0.5-8.1c-0.5-6.2-1-12.7,0.3-19c0.3,0.4,0.6,0.8,0.9,1.2l0.1,0.2c0,0,0,0.1,0,0.1c0.7,5.4,0.1,10.5-0.6,14.9
		c-0.6,4-0.3,7.7,0.8,11.2c0.3,1.6,1.5,2.7,2.5,3.9c0.5,0.5,1,1.1,1.4,1.6c2.4,3.2,3.5,7.6,4,10c0.4,2.1,0.6,4.3,0.4,6.9
		c0,0.1,0,0.1,0,0.2l0,0.5c-0.2,2.8-0.8,5.6-1.4,8.3C-210.9,69.1-211.2,67.2-211.6,65.5z M-216.3,19.5c2.1,4.3,6.1,7.1,10.6,7.1
		c0.5,0,0.9,0,1.4-0.1c1.9-0.2,3.6-0.9,5.1-2.1c-0.4,0.9-0.3,2.2,0.2,3.2c0.1,0.2,0.3,0.5,0.5,0.7c0,0,0,0,0,0
		c-0.2,0-0.3,0.1-0.4,0.2c-0.1,0.1-0.1,0.2-0.1,0.3c0,0,0,0.1,0,0.1c0,0.1,0,0.1,0,0.2c0,0.1,0,0.2,0.1,0.3c0.1,0.1,0.2,0.1,0.3,0.1
		c0.1,0,0.1,0,0.2,0c0.1,0,0.2,0,0.3-0.1c0.1-0.1,0.1-0.1,0.2-0.2c0-0.1,0.1-0.2,0.1-0.2c0-0.1,0-0.1,0-0.2c0.4,0.3,0.9,0.4,1.4,0.4
		h0c0.3,0,0.6,0,0.9-0.1c0.2-0.1,0.3-0.3,0.3-0.5c0-0.3-0.3-0.4-0.6-0.4c-0.9,0.3-1.8-0.1-2.3-1.1c-0.5-0.9-0.5-1.9-0.1-2.6
		c0.1-0.1,0.1-0.3,0-0.4c-0.1-0.1-0.2-0.2-0.3-0.2c0.6-0.5,1.2-1.1,1.7-1.8c2-2.8,2.9-6.5,2.4-9.9c0.1,0,0.2,0,0.3,0
		c0.8-0.1,1.2-0.8,1.2-2c1.2-0.2,2.4-0.4,3.7-0.4c0.8,0,1.4,0.1,2.1,0.2c0.1,1.7,0.6,2.6,1.4,2.5c-0.9,5.9,1.7,11,6.7,13
		c3.5,1.4,7,1.5,9.9,0.2c1.6-0.7,2.9-1.5,3.8-2.3c0.1,3.1-0.9,6.5-2,9.7c-1.2,3.5-3.1,7-5.7,10.4c-2.2,2.8-4.9,5-8.5,6.9
		c-2.5,1.3-5.8,2.8-9.2,2.8c-1,0-2.1-0.1-3-0.4c-3.4-1-6.9-2.5-10.2-4.7c-1.7-1.1-3.4-2.5-5.2-4.2c-1.5-1.5-2.2-3.2-2.8-5.5
		c-1.3-4.9-2.4-10-3.4-14.9C-215.7,22-216,20.8-216.3,19.5z M-176,60.6L-176,60.6c3.4-4.6,6.5-9.7,9.2-15.1
		c2.6-5.4,5.6-12.4,5.4-19.8c0-0.5-0.1-0.9-0.1-1.4c1.5,4.1,2.1,8.3,1.9,12.5c-0.7,4.6-3.3,9.2-7.8,13.7c-3,3-6.3,6.3-8,10.8
		c-0.2,0.1-0.4,0.1-0.7,0.2c-0.1,0-0.2,0-0.4,0.1c-0.1,0-0.1,0-0.2,0C-176.5,61.3-176.2,60.9-176,60.6z M-174.4,61
		c0.1-0.2,0.1-0.3,0.2-0.4c1.4-3.3,4-5.9,6.5-8.4c1.1-1.1,2.3-2.3,3.3-3.5c1.4-1.6,2.6-3.3,3.5-5.1c-0.3,0.8-0.7,1.7-1.1,2.5
		c-1.4,2.8-3.4,5.4-5.3,7.9c-0.9,1.1-1.8,2.3-2.6,3.5c-0.4,0.6-0.9,1.2-1.3,1.9c-0.6,0.4-1.2,0.8-1.8,1.1
		C-173.5,60.6-173.9,60.8-174.4,61z M-163.6,50.3c-1.6,2.8-3.2,5.1-5.1,6.9c0.1-0.1,0.1-0.2,0.2-0.2c0.7-1,1.5-2,2.2-3
		C-165.4,52.8-164.5,51.6-163.6,50.3z M-168.1,5c-0.4-1-0.7-2-1.1-3C-168.8,3-168.5,4-168.1,5z M-163.6,18.7c0,0,0.1,0.1,0.1,0.1
		c-1.9-1.9-3.4-3.8-4.7-5.9c-0.5-1-0.9-2-1.2-3c-0.2-0.7-0.4-1.3-0.7-2c-0.4-1-0.9-2-1.4-3l-0.2-0.4c-0.6-1.2-1.3-2.6-1.9-3.9l0-0.1
		c0-0.1-0.1-0.1-0.1-0.2c-0.3-0.6-0.7-1.2-1-1.8l0-0.1c0,0,0-0.1-0.1-0.1c-0.7-1.3-1.4-2.5-2.2-3.6c0.9,0.1,1.7,0.2,2.5,0.3
		c0,0,0,0,0.1,0.1c2.8,2.8,4.3,7,5.6,10.8l0.3,0.8c0.3,0.9,0.6,1.8,0.9,2.6C-166.5,12.6-165.4,15.9-163.6,18.7z M-179.1-0.6
		c-1.2,0.2-2.4,0.5-3.5,1c-1.1,0.5-1.8,1.4-1.6,2.2c0.1,0.3,0.4,1.1,1.8,1.1l0.1,0c1.5,0,6.7-1.8,8.1-2.3c0.5,0.9,0.9,1.8,1.3,2.7
		c-0.3,0-0.5,0-0.8,0c-4.2,0-8.5,1.1-13,3.2c-2.6-0.8-4.8-0.8-7.3,0.1c-1.3-1.3-3.7-1.7-5.3-1.9l-0.4-0.1c-2.2-0.4-4.6-0.5-7.5-0.5
		c-0.9,0-1.9,0-3.1,0.1c-1.7,0.1-3.6,0.3-5.6,0.7c0-0.9,0-1.8,0.1-2.7c0,0.1,0.1,0.2,0.1,0.2c0.1,0.1,0.3,0.2,0.5,0.1
		c0.4-0.1,0.7-0.2,1-0.4c2.3-0.8,4.4-1.5,6.7-1.5c1.1,0,2.1,0.2,3.1,0.5c0.6,0.2,1.3,0.5,1.9,0.8c0.6,0.3,1.3,0.6,2,0.8l0.2,0.1
		c0.5,0.2,1.4,0.4,2.2,0.4c1,0,1.7-0.4,2.2-1.2c0.2-0.3,0.2-0.7,0-1c-0.4-1-2.1-1.6-3.1-2c-0.2-0.1-0.3-0.1-0.4-0.2
		c-2.6-1.1-6.1-2.3-9.6-2.1c-2.4,0.1-6.2,2.6-6.9,5c0.2-2.1,0.5-4.1,0.8-6.2c7.4-1.4,15.1-2.2,23-2.2l0.6,0c4.4,0,8.9,0.2,13.2,0.7
		c0.8,1.1,1.5,2.3,2.3,3.8C-176.9-1-178-0.8-179.1-0.6z M-215.1,2.9L-215.1,2.9L-215.1,2.9L-215.1,2.9z M-214.3,1.8
		c1.2-1.7,3.9-3.3,5.5-3.4c3.3-0.2,6.6,1,9.2,2.1c0.1,0,0.3,0.1,0.4,0.2c0.7,0.3,2.3,0.8,2.5,1.4c0,0.1,0,0.1,0,0.2
		c-0.3,0.4-0.7,0.6-1.3,0.6c-0.7,0-1.4-0.2-1.9-0.4l-0.2-0.1c-0.6-0.2-1.2-0.5-1.8-0.8c-0.6-0.3-1.3-0.6-2-0.8
		c-1.1-0.4-2.3-0.5-3.4-0.5C-209.8,0.3-212,1-214.3,1.8z M-226.8,63.8c-1.6-3.2-2-6.5-1.1-10.3c0,2.1,0.3,4.4,0.8,6.9
		c0.2,1,0.5,2.1,0.8,3.1c0.2,0.9,0.5,1.8,0.7,2.8C-226,65.4-226.4,64.6-226.8,63.8z M-221,35.3c0.6,4-0.4,7.9-1.4,11.9
		c-0.3,1.2-0.6,2.4-0.9,3.6l-0.2,0.9c-0.5,2.3-1,4.7-1.3,7c0,0.2,0,0.4,0,0.6C-224.9,51-223.6,42.8-221,35.3z M-223.9,61
		c0-0.6,0-1.2,0-1.8c0.1-2.4,0.7-4.9,1.2-7.3c0.2-0.8,0.4-1.5,0.5-2.3c0.2-1.1,0.5-2.1,0.8-3.2c1.1-4.4,2.1-8.5,0.9-13.1
		c0-0.1,0-0.1-0.1-0.2c0.1-1.3-0.1-2.6-0.6-4.2c0,0,0,0,0-0.1c0.6-2.1-0.2-4.1-1-6c-0.3-0.9-0.7-1.7-0.9-2.6
		c-0.4-1.4,0.1-3.1,0.5-4.6l0.1-0.3c0.4-1.6,0.9-3.1,1.9-4.4c0.3,0,0.6,0.1,0.8,0.2c-1.1,5.3-1.3,11.3-0.5,18.7
		c0.1,0.6,0.1,1.2,0.2,1.9c0.3,2.9,0.6,5.9,0.6,8.9c0,3.8-0.5,7.8-1.7,12.4c-0.8,3.2-1.8,6.4-2.7,9.1C-223.9,62-223.9,61.5-223.9,61
		z M-216.1,59.7c-0.1-1.9-0.4-3.9-0.7-5.8c-0.2-1-0.3-2-0.4-3c-0.1-0.5-0.1-1.1-0.2-1.6c-0.1-0.9-0.2-1.9-0.4-2.9
		c0.3,1.4,0.6,2.9,0.9,4.3c0.4,1.9,0.8,3.9,1.3,5.8c0.3,1.2,0.7,2.3,1.1,3.4c-0.1,0.3-0.1,0.6-0.2,0.9c-0.4,1.5-0.8,3-1.3,4.9
		C-215.9,63.7-215.9,61.7-216.1,59.7z M-218.8,43.5c0-0.3,0-0.5,0-0.8c0.2,0.7,0.4,1.4,0.6,2.1c-0.1-0.4-0.3-0.8-0.5-1.1
		C-218.7,43.6-218.7,43.5-218.8,43.5z M-212.8,41.6c1.2,2.2,2.3,4.8,3.2,7.6C-210.9,46.9-211.9,44.4-212.8,41.6z M-215.3,28.6
		c0.1,0.6,0.3,1.3,0.4,1.9c0.7,3.4,1.4,6.9,2.6,10.2c-0.4-0.7-0.9-1.5-1.3-2.1c-0.2-0.7-0.3-1.4-0.5-2.2
		C-214.6,33.8-214.9,31.1-215.3,28.6z M-172.5,61.3c-1.5,2.3-2.5,4.4-3.4,6.5c0.2-2,0.5-3.9,1.1-5.5
		C-174.1,62-173.3,61.7-172.5,61.3z M-152.6,30.8c0.1,0.1,0.2,0.3,0.3,0.4c0,0,0,0,0,0c0,0,0,0.1-0.1,0.1l0,0c0,0-0.1,0.1-0.1,0.1
		l-0.1,0.2c-0.1,0.1-0.2,0.3-0.2,0.4c-0.6,1-1.1,2.1-1.5,3.3C-153.9,33.8-153.4,32.3-152.6,30.8z M-228.5,9.4
		c-0.3,0.8-0.6,1.5-0.9,2.2c-0.3,1.1-0.7,2.2-1,3.2c-1.1,3.4-2.2,7-2.4,10.6c-0.1,1.2-0.1,2.4,0,3.8c-0.4,2.4-0.5,4.8-0.4,7.3l0,0.4
		c0.2,2.9,0.3,6.1,1.3,8.9c-0.4-0.5-0.8-1-1.1-1.6c-1-2.5-1.8-4.8-2.4-6.9c-1.1-3.6-1.4-7.5-1.1-11.5c0.5-2.2,1.2-4.5,2.2-6.8
		C-232.9,15.9-231,12.7-228.5,9.4z M-212.8,64.5c0.6,2,0.9,4.2,0.9,6.4c0,1-0.1,2.1-0.2,3.1c-0.1,1-0.2,2.1-0.2,3.1l-0.1,0.3
		c0,0.2,0,0.3,0.1,0.4c0.1,0.3,0.5,0.4,0.7,0.2c-0.7,2.5-1.6,5-3,7l-2.7,2.2c3.8-6,5.3-14.5,4.2-23.4C-213,64-212.9,64.2-212.8,64.5
		z M-203.9,49.1c3.4,2.2,7.2,3.9,11.2,4.8c0.7,0.2,1.3,0.2,2.1,0.2c2.9,0,5.8-1.3,8.4-2.4l0.1,0c0.8-0.4,1.6-0.8,2.4-1.2
		c-0.3,1-0.8,1.9-1.3,2.9c-0.1,0.2-0.2,0.5-0.4,0.7c-0.7,1.4-1.1,3-1.4,4.4c-0.3,1.3-0.5,2.6-0.6,4c-2.2,1.2-4.7,1.8-7.2,1.8
		c-3.1,0-6.2-1-8.7-2.9c-0.1-3.7-1.7-7.8-4.7-12.4L-203.9,49.1z M-148.5,63.7l0-0.8c0.4-4,0.1-7.6-0.8-10.9
		c-0.4-1.4-0.9-2.9-1.3-4.2c-0.3-2.5-0.3-5.1,0-7.5c0.8,2.9,2.1,5.8,3.8,8.5c1,1.6,1.6,3,1.9,4.5c-0.3,4.5-2.1,9-3.7,13.1
		C-148.6,65.4-148.5,64.5-148.5,63.7z M-147.3,31.3c0-0.2,0.1-0.3,0.1-0.5c0.8,2.6,0.2,5.8-1,8.3c0-0.2-0.1-0.4-0.1-0.5
		C-148.5,36.1-147.9,33.7-147.3,31.3z M-146.3,30.3c-0.4-1.7-1.9-3-3.3-3.9c-1.4-1-3-1.9-4.5-2.7c-0.6-0.4-1.3-0.7-1.9-1.1
		c-5-2.9-8.2-7.4-10.2-14.1l-0.1-0.2c-0.8-2.6-1.5-5-2.6-7.4l-0.3-0.7c-0.7-1.6-1.5-3.1-2.5-4.5c0.4,0.1,0.8,0.1,1.2,0.2l0,0
		c3.7,1.8,5.5,6.4,7,10.2l0.2,0.5c0.2,0.6,0.5,1.2,0.7,1.8c1.2,3.1,2.4,6.2,4.2,9c1.8,2.7,4.4,4.5,6.9,6.2c1,0.7,1.9,1.3,2.9,2
		c1.4,1,2.9,2,4.3,3c0.7,3.1-0.9,7.7-2.7,10.2c0,0,0,0,0,0C-146,36-145.7,32.8-146.3,30.3z M-143.5,31.7c0.2-1.3,0.2-2.4,0-3.3
		c0-0.1,0-0.3-0.1-0.4c-0.2-0.7-0.4-1.3-0.8-2c-1.1-1.8-2.7-3.4-4.2-4.8l-0.4-0.4c-0.8-0.8-1.6-1.5-2.5-2.3c-3-2.7-5.8-5.3-8.2-8.6
		c-2.7-3.6-4.2-7.5-5.8-11.7c-0.2-0.6-0.4-1.1-0.7-1.7c0.6,0.1,1.2,0.3,1.8,0.4c0.7,3.7,3.1,7.2,5.6,10.4c1.2,1.5,2.3,3,3.4,4.5
		c1.6,2.1,3.2,4.2,4.8,6.2c1.3,1.6,2.8,3.3,4.5,4.9c2,2,3.2,3.7,3.2,6.3c0,1.5-0.4,3-1.2,4.7C-143.7,33.2-143.6,32.4-143.5,31.7z
		 M-142.4,21.5c0.1-0.1,0.1-0.2,0.1-0.4c-0.7-2.2-1.6-4.5-2.6-6.8c1.4,1.8,2.7,3.6,3.5,5.8c0.5,1.4,0.8,3,0.8,4.6
		c-0.3-0.9-0.8-1.9-1.4-2.8C-142.1,21.8-142.2,21.7-142.4,21.5L-142.4,21.5z M-151.7,0.1L-151.7,0.1L-151.7,0.1L-151.7,0.1z
		 M-227,2.4c-0.7,1.3-1.5,2.6-2.3,3.9c0.4-0.7,0.8-1.4,1.2-2.1C-227.7,3.6-227.4,3-227,2.4z M-230.1,9.2c2.2-3.3,4.4-6.7,5.6-10.7
		l0.5-0.1c0.6-0.2,1.1-0.3,1.7-0.5c-0.9,2-2,4-3.1,5.9c-0.4,0.7-0.8,1.4-1.2,2c-3.7,4.2-6.3,8.2-8.2,12.3c1.2-3.4,3-6.3,4.6-8.7
		L-230.1,9.2z M-232.8,52.7c0.6-1.1,1.1-2.3,1.7-3.5c0,0,0.1-0.1,0.1-0.2l0.1-0.1c0-0.1,0.1-0.2,0.1-0.3c0.6-1.5,1-3.1,1.4-4.9
		c0.9-4,1.5-7.7,2-11.2c0,0.7,0,1.5,0,2.2c0,0.9,0.1,1.8,0,2.7c-0.1,3.4-1.1,6.4-2.3,9.4c-1.3,3.5-2.7,6.2-4.3,8.4
		c0,0.1-0.1,0.1-0.1,0.2C-233.7,54.5-233.3,53.6-232.8,52.7z M-228.1,45.3c1-2.7,1.5-5.2,1.6-7.8c0-1,0-2,0-3c-0.1-1.3-0.1-2.7,0-4
		c0.2-2.3,0.7-4.8,1.3-7.2c1.3,5.9,1,12.2-1,19.8c-0.2,0.6-0.3,1.2-0.5,1.8c-0.4,1.3-0.7,2.6-1,3.9c-0.4,1-0.8,1.9-1.2,2.9l-0.4,0.9
		c-0.3,0.8-0.7,1.7-1,2.5c-1.2,3.1-2.5,6.3-4.4,9.2c-0.4,0.6-0.7,1.1-0.9,1.7c0,0.1-0.1,0.1-0.1,0.2c-0.2,0.5-0.3,1-0.4,1.5
		c-0.5-2.8-0.3-6,0.7-8.7c0.4-1.2,1.3-2.4,2.2-3.5c0.6-0.7,1.2-1.5,1.6-2.3C-230.1,50.6-229.1,47.9-228.1,45.3z M-235.4,71.8
		c0,0,0.1,0.1,0.1,0.1c0.2,0.3,0.3,0.7,0.5,1c0.1,0.2,0.3,0.2,0.5,0.2c0.5,1.9,1.2,3.8,1.8,5.7c-1.4-2.1-2.9-4.8-3.9-7.9
		c-0.4-1.2-0.6-2.4-0.6-3.7C-236.8,68.9-236.2,70.5-235.4,71.8z M-234.5,65.8c0.1-0.1,0.2-0.3,0.2-0.5c0,2.1,0.7,4.1,1.5,6.1
		c0.3,0.9,0.7,1.8,0.9,2.8c0.6,2,0.8,4,0.8,5.9c-0.1-0.2-0.1-0.4-0.2-0.6c-1.5-4.3-3-8.7-3.4-13.3C-234.7,66-234.6,65.9-234.5,65.8z
		 M-230.4,77.3c-0.3-2.1-0.9-4.2-1.5-5.9c-0.1-0.4-0.3-0.8-0.4-1.2c-0.8-2.1-1.5-4.3-1-6.6c0-0.1,0-0.1,0-0.2l0-0.1
		c0.5-0.9,1.1-1.8,1.5-2.7c0.5-1,0.9-1.9,1.3-3c-0.6,2.3-1.1,4.6-1.1,7c0,2.8,1.2,5.6,3.3,8l0.1,0.1c-0.2,0.5-0.3,1-0.5,1.4
		c-0.8,2.8-1,5.9-1,8.7c-0.4,1.2-1,2.2-1.7,3.1C-230.3,83.4-230,80.5-230.4,77.3z M-218.6,54.2c-0.2-2.6-0.3-5.3-0.2-7.9
		c0.2,1.1,0.3,2.3,0.5,3.4c0.1,0.6,0.1,1.2,0.2,1.8c0.1,0.7,0.2,1.4,0.3,2.1c0.2,1.7,0.4,3.4,0.7,5c0.5,2.9,0.3,5.9,0.1,8.8
		c-0.1,0.8-0.1,1.6-0.1,2.3l-0.4,1.3c-1,3.3-2,6.6-2.9,10c-0.1-0.3-0.2-0.5-0.3-0.7c-0.2-0.5-0.5-1.1-0.9-1.6c0.4-2.3,1-4.5,1.5-6.7
		c0.5-2,1-3.9,1.3-5.7C-218.1,62.2-218.3,58.1-218.6,54.2z M-216.4,74c0-1.5,0.1-2.9,0.2-4.4l0-0.2c0.6-2.1,1.3-4.4,1.9-6.7
		c1,8,0.1,13.9-3.1,18.3C-216.6,78.7-216.4,76.2-216.4,74z M-209.6,72.9c0.6-3.7,1-7.3,1-10.7c0,0,0-0.1,0-0.1
		c0.1-2.1,0.1-4.1-0.2-5.9c-0.4-2.9-1.4-5.9-3.2-9.5c-0.5-1-1.1-2.1-2.1-3.2c-0.2-0.3-0.5-0.5-0.8-0.8c-0.9-1-1.9-2-2.1-3.3
		c-1.5-4.5-1.2-8.5-0.6-12.2c0.2-1.5,0.4-3,0.5-4.5c0.2,1.1,0.4,2.3,0.5,3.5l0.2,1.9c0.3,2.3,0.6,4.7,1,7.1c0.2,1.1,0.4,2.3,0.7,3.3
		c0,0.1,0,0.1,0.1,0.2c1.2,5,2.9,9.2,5.3,12.8c0.2,0.2,0.3,0.5,0.5,0.7c0.7,2.7,1.3,5.5,1.7,8.8c0.5,3.2,0.7,6,0.7,8.5
		c-0.1,0.1-0.1,0.2-0.1,0.3c-0.3,5.4-2.9,10.9-6.9,14.6C-211.2,81.1-210.3,76.8-209.6,72.9z M-207.2,54.3c0.6,0.8,1.2,1.5,1.7,2.4
		c1.5,2.5,2.6,5.8,2.8,8.5c0.1,2.3-0.6,4.7-1.3,6.8l-0.1,0.3c-0.5,1.7-1.2,3.4-1.9,5.1c1.2-5,0.8-10.7,0.2-15.4
		C-206.2,59.3-206.7,56.7-207.2,54.3z M-202.2,72.2c-0.7,1.7-1.7,3.4-2.9,5.2c1.7-3.8,2.7-7.4,3.1-10.8c0.3-2.4-0.6-5-1.3-7.2
		c-0.9-2.5-2.4-4.6-3.6-6.1c-0.3-0.4-0.6-0.7-0.9-1.2c-0.8-3.2-1.9-6.1-3.1-8.7c0.6,0.9,1.5,1.7,2.5,2.6c2.5,4.6,5.5,10.3,7.3,16.2
		c0.4,1.5,0.7,2.7,0.7,3.9c0.1,1.9-0.8,4-1.6,5.9L-202.2,72.2z M-205.8,47.8c0,0.1,0,0.2,0.1,0.3c3.5,5.1,5.3,9.5,5.5,13.4
		c-1.4-5-3.8-9.7-6.3-14.3C-206.4,47.4-206.1,47.6-205.8,47.8z M-181.8,58c0.3-1.4,0.9-2.8,1.5-4.1c0.6-1.3,1.3-2.7,1.6-4.2
		c0.6-0.4,1.2-0.8,1.8-1.3c-1.6,3.4-3.2,6.7-4.1,10.4c-1.2,4.6-1.1,9.3-0.8,13.3c0,0.6,0.1,1.3,0.2,1.9c-0.3-1.7-0.6-3.5-0.8-5.2
		C-182.8,65.2-182.6,61.6-181.8,58z M-180.2,59.7c0.8-3.9,2.6-7.5,4.2-10.9c0.3-0.6,0.5-1.1,0.8-1.7c0,0,0,0,0,0
		c0.7-0.6,1.4-1.3,2-2c-0.3,0.7-0.6,1.4-0.9,2c-0.2,0.5-0.5,1.1-0.7,1.6c-1.4,3-2.9,6.7-3.8,10.9c-1.4,6.7-1.7,12.8-1.2,18.3
		c0.2,1.6,0.4,3.1,0.7,4.5c-0.8-2.8-1.3-5.9-1.6-9.6C-181.3,67.8-181.1,63.5-180.2,59.7z M-175.4,89.2c-0.4-0.6-0.8-1.2-1.1-1.8
		c-1.6-2.6-2-6.1-2.3-9.2l0-0.4c-0.6-5.3-0.2-11.2,1.3-18.7c0.8-3.8,2.2-7.1,3.8-10.5c0.2-0.5,0.4-0.9,0.6-1.4
		c0.5-1.2,1.1-2.4,1.7-3.6c-0.7,2-1.3,4-1.9,6l-0.1,0.3c-1.2,4.1-2.7,8-4.5,11.8l0,0.1c0,0,0,0.1,0,0.1l0,0.1c0,0.2,0.1,0.4,0.3,0.4
		l0.1,0c0.5,0.1,1.1,0.1,1.8,0c-1.8,5.7-1,12.1-0.2,17.8c0.1,0.9,0.2,1.9,0.3,2.8c0.3,2.3,0.5,4.8,1,7.1
		C-175,89.8-175.2,89.5-175.4,89.2z M-172.3,88c0.9,2.8,1.4,5.9,1.6,9.3c0-0.1-0.1-0.2-0.1-0.3c-0.3-1-0.6-1.9-1-2.9
		c-0.7-1.9-1.4-3.9-1.6-5.9c-0.1-1.6-0.1-3.2-0.2-4.8C-173.2,85-172.8,86.5-172.3,88z M-167.7,89.3c0,0,0-0.1,0-0.1
		c-0.2-2,0.2-4.3,0.6-6.3l0.2-0.9c0.8-4.8,2.4-9.2,4.7-13.1c0.8-1.4,1.9-2.7,2.9-3.9c1-1.2,2-2.4,2.8-3.7c1-1.6,1.6-3.4,2-5.2
		c-0.2,2.4-0.6,5-1.7,7.4c-0.8,1.8-1.4,3.6-1.9,5.4c-0.4,1.1-0.7,2.3-1.2,3.4c-0.9,2.4-2.1,4.8-3.5,7.2c-0.4,0.7-0.9,1.5-1.4,2.2
		l-0.5,0.7c-0.1,0.1-0.2,0.1-0.2,0.2l0,0.1l0,0c-0.6,1-1.3,2.1-1.9,3.4C-167.3,87-167.6,88.1-167.7,89.3z M-152.6,87.2
		c0,0-0.1,0.1-0.1,0.1l-0.1,0.2c-0.8,1-1.6,1.8-2.4,2.4c3.3-7,5.4-13.1,6.5-18.6c0.2-1.1,0.2-2.1,0.2-3.1c0.1,0,0.2-0.1,0.2-0.2
		c1-1.4,1.8-2.8,2.4-4.1c1.4,4.7,0.7,10.4-2,15.8c-1,1.9-2.2,3.8-3.3,5.5C-151.6,85.7-152.1,86.5-152.6,87.2z M-142,31
		c0.9-4.3-1.7-7-4.3-9.6c-3.5-3.5-6.5-7.7-9.3-11.7l-0.4-0.5c-0.6-0.8-1.2-1.5-1.8-2.2c-0.8-1-1.7-2-2.4-3.2l-0.5-0.8
		c-1.2-1.9-2.3-3.6-2.7-5.8c0.6,0.2,1.3,0.3,1.9,0.5c0.6,3,2.7,5.3,4.6,7.6c0.3,0.4,0.6,0.7,1,1.1c1.5,1.7,3,3.5,4.4,5.2
		c1.7,2,3.4,4,5.1,6c3.2,3.9,7.2,8.8,4.5,14.3c-0.3,0.6-0.6,1.1-1,1.7C-142.5,32.7-142.2,31.8-142,31z M-153.2,0.3
		c0.4,0.2,0.8,0.3,1.2,0.5c0.6,1.4,1.6,2.6,2.7,3.8c0.3,0.3,0.6,0.7,0.9,1c1.1,1.3,2,2.6,2.7,3.8c0.6,1,0.8,2.3,0.9,3.5
		C-148.3,8.5-151,4.4-153.2,0.3z M-150.3,0c0,0.1-0.1,0.2-0.4,0.2c-0.2,0-0.4-0.1-0.7-0.2c-0.1-0.1-0.2-0.1-0.3-0.1
		c-0.2-0.1-0.4-0.2-0.5-0.2c-0.1-0.1-0.2-0.1-0.3-0.1c-0.9-0.4-1.9-0.7-2.8-1l-0.4-0.1c-1.4-0.5-3-0.9-4.9-1.4
		c-0.1-0.1-0.3-0.2-0.5-0.1l-0.1,0c-2.7-0.7-5.6-1.3-8.8-1.9l-0.1,0c-0.7-0.1-1.4-0.2-2.1-0.3l-0.3,0c-0.1,0-0.1,0-0.2,0l0,0
		c-6.1-0.9-12.4-1.4-18.7-1.4c-5,0-10,0.3-15,0.9c-2.9,0.3-5.9,0.8-8.8,1.4c-0.1,0-0.1,0-0.2,0l-0.1,0c-0.4,0.1-0.8,0.2-1.1,0.2
		c0,0-0.1,0-0.1,0c-2.1,0.4-4.2,0.9-6.3,1.5c-0.1,0-0.2,0.1-0.4,0.1c-0.6,0.2-1.8,0.6-2.6,0.6c-0.3,0-0.4-0.1-0.4-0.2
		c0-0.3,0-0.6,0-0.8c0-1.5,0-3.1,0-4.7c0.1-2.3,0.3-4,0.6-5.5c0.5-2.6,2.3-3.1,4.7-3.8c4.1-1.2,8.2-2.2,12.7-3
		c6.4-1.2,12.7-1.8,18.6-1.8c7.3,0,14.4,0.9,21.2,2.6c3.1,0.8,6.5,1.8,10.5,3.3c1.9,0.7,3.4,1.3,4.6,2.5c1.2,1.2,1.7,2.9,2.1,4.4
		c0.7,2.8,0.8,5.7,1,8.5L-150.3,0z M-227.2,82.2c-0.2,2-0.3,4-0.1,5.9c-1.4-2.2-1.4-4.8-1.2-7.3c0.2-2.8,0.6-5,1.2-7.1
		c0.3,0.3,0.7,0.7,1,1c-0.1,0.7-0.2,1.4-0.3,2C-226.8,78.5-227,80.3-227.2,82.2z M-222.5,90.4c-1.5-2.7-2.4-6.1-2.6-10
		c-0.1-1.4,0-2.7,0.2-4.3c0.7,0.7,1.4,1.5,2,2.4c0.1,0.2,0.3,0.4,0.4,0.6c-0.8,4.4-1.2,9.7,1.6,13.9
		C-221.5,92.1-222,91.2-222.5,90.4z M-224.8,74.8l0-0.2c0.2-1.9,0.4-3.8,0.3-5.7c0-0.6-0.1-1.3-0.2-2c0.5-1.3,1.2-2.9,1.7-4.5
		c1.2-3.7,2.3-7.4,3.1-10.8c0.1-0.4,0.2-0.8,0.2-1.1c0,0.8,0.1,1.6,0.2,2.4c0.1,0.9,0.1,1.8,0.2,2.7c0.3,4.8-0.1,9.3-1.1,14
		c-0.2,1.1-0.5,2.2-0.8,3.4c-0.4,1.6-0.8,3.2-1.1,4.8C-222.9,76.8-223.7,75.9-224.8,74.8z M-175.8,70.5c0.9-3.2,2.5-6.4,5.1-10.3
		c0.7-0.5,1.5-1.1,2.1-1.7c4.2-3.7,6.7-9,7.8-11.8c0.7-1.7,1.2-3.4,1.5-5.1l0.1-0.4c0.2-0.7,0.4-1.4,0.7-2l0.1-0.4
		c0.5-1.5,1.1-3.1,1.2-4.8c0.1-1.2,0-2.4-0.1-3.6c-0.1-1.5-0.2-3,0-4.5c1,0.9,1.8,1.7,2.6,2.4c0.5,0.5,1,1,1.5,1.8
		c0,0,0,0.1-0.1,0.1c-1.2,2.1-2.1,4.5-2.7,7.4c0,0.1-0.1,0.1-0.1,0.2l0,0.2c-0.1,0.6-0.2,1.3-0.4,2c-0.5,3.5-2.5,6.6-4.5,9.7l-0.6,1
		c-1.1,1.7-2.3,3.4-3.4,5.1c-3.4,5-6.9,10.1-8.4,16.1c-0.3,1.4-0.6,2.9-0.7,4.3c-0.5,1-0.5,2.4-0.5,3.6c0,0.3,0,0.6,0,0.9
		c0,2.2,0,4.4,0.1,7c0,0.7,0.1,1.3,0.2,1.9c-0.5-2.5-0.7-5-1-7.5c-0.1-1.1-0.2-2.2-0.4-3.2c-0.3-2.4-0.6-5.3-0.6-8.1
		C-175.9,70.6-175.9,70.5-175.8,70.5z M-165.9,93.8c-0.2-3.3,0.4-7,1.8-11c0.3-0.5,0.6-0.9,0.9-1.4c0.6-0.9,1.2-1.8,1.7-2.7
		c1.1-1.9,2.1-4.1,3.1-6.9c0.4-1.2,0.8-2.3,1.2-3.5c0.6-1.7,1.2-3.4,1.8-5.1c0.6-1.5,1-3.1,1.3-4.9c0.1,2.9-0.1,5.5-0.5,8
		c-0.1,0.4-0.2,0.9-0.3,1.3c-0.1,0-0.2,0.1-0.2,0.1c-1.6,1.9-2.5,4.1-3.4,6.2c-0.7,1.6-1.2,3.1-1.7,4.5c-1.7,3.1-3.4,6.4-4.4,10.2
		c-0.5,2.1-0.7,4.4-0.5,7.1c0.1,1,0.3,2.1,0.5,3.1c0.2,0.7,0.3,1.4,0.4,2.1C-164.9,98.7-165.7,96.3-165.9,93.8z M-156.8,93.7
		c0.1-0.2,0.1-0.4,0.2-0.5c0.2-0.6,0.4-1.2,0.6-1.8c0.4-0.2,0.8-0.5,1.3-0.8c-0.1,0.2-0.2,0.4-0.4,0.6c-0.1,0.2-0.2,0.4-0.4,0.6
		c-0.4,0.7-0.9,1.7-1.5,2.4C-156.9,94.1-156.8,93.9-156.8,93.7z M-146,62c0.5-1.5,1-3,1.3-4.5C-144.8,58.9-145.3,60.4-146,62z
		 M-145.2,49.8c-0.3-0.7-0.7-1.3-1.1-2c-1.2-2.2-2.3-4.3-3.1-6.6c-1-2.8-1.2-5-0.9-7.4c0-0.2,0.1-0.5,0.1-0.7c0-0.1,0-0.1,0-0.2
		c0.2-1.2,0.5-2.3,0.8-3.4c0.1-0.4,0.2-0.9,0.3-1.3c0.1,0,0.1,0.1,0.2,0.1c0.4,0.3,0.7,0.7,1,1.2c0,0,0,0.1,0,0.1l-0.1,0.3
		c-0.5,2.4-1.1,4.9-1.2,7.4c-0.1,1.3,0.2,2.5,0.6,3.7l-0.3,0.6l0.4-0.4c0.4,1.1,1,2.1,1.6,3.2l0.3,0.6c0.9,1.7,1.5,3.5,1.7,5.5
		C-145,50.1-145.1,50-145.2,49.8z M-219.9,83.9C-219.9,83.9-219.9,83.9-219.9,83.9c0-0.3-0.1-0.7-0.1-1c0,0,0.1-0.1,0.1-0.2
		c0.8-3.4,1.8-6.8,2.7-9.8C-217.3,76.8-217.4,81-219.9,83.9z"/>
	<path fill="#F0705A" d="M-219.5,7.9c-0.2,0.1-0.3,0.1-0.5,0.1c0,0,0,0,0,0l-0.1,0c-0.2,0-0.3,0.1-0.5,0.1c-0.2,0.1-0.4,0.1-0.7,0.1
		c-0.2,0-0.3,0.2-0.3,0.3c-0.1,0.4-0.1,0.7,0.1,0.9c0.2,0.3,0.6,0.4,1.1,0.4c0.1,0,0.3,0,0.5,0c0.2,0,0.4-0.1,0.6-0.1
		c0.3-0.1,0.7-0.1,1-0.1c0,0,0,0,0,0l0.2,0c0.4,0,0.9,0.1,1.4-0.3c0.5-0.3,0.4-0.7,0.4-0.9c-0.1-0.5-0.7-0.9-1.1-0.9
		C-218.2,7.5-218.8,7.7-219.5,7.9z M-220,8.9c0.2,0,0.3-0.1,0.5-0.1c0.2,0,0.3-0.1,0.5-0.1c0.5-0.1,0.9-0.2,1.2-0.2
		c0.2,0,0.4,0.1,0.4,0.2c0,0-0.1,0-0.2,0.1c-0.3,0.1-0.5,0.1-0.8,0.1h-0.2c-0.3,0-0.6,0-0.9,0.1C-219.6,8.9-219.8,8.9-220,8.9z"/>
</g>
</svg>
