<?xml version="1.0" encoding="utf-8"?>
<!-- Generator: Adobe Illustrator 18.1.0, SVG Export Plug-In . SVG Version: 6.00 Build 0)  -->
<!DOCTYPE svg PUBLIC "-//W3C//DTD SVG 1.1//EN" "http://www.w3.org/Graphics/SVG/1.1/DTD/svg11.dtd">
<svg version="1.1" id="Layer_1" xmlns="http://www.w3.org/2000/svg" xmlns:xlink="http://www.w3.org/1999/xlink" x="0px" y="0px"
	 viewBox="0 0 400 400" enable-background="new 0 0 400 400" xml:space="preserve">
<rect x="0.4" fill="#16A085" width="399.6" height="399.6"/>
<g>
	<g>
		<path fill="#F0EDE5" d="M316.8,291.7H80.4c-1.3,0-2.4-1.1-2.4-2.4V110.4c0-1.3,1.1-2.4,2.4-2.4h236.4c1.3,0,2.4,1.1,2.4,2.4v178.9
			C319.3,290.6,318.2,291.7,316.8,291.7z"/>
	</g>
	<g>
		<g>
			<path fill="#F1624F" d="M272,214.9l-5.2,5.5c-1.1,1.2-3,1.2-4.4-0.1c-1.3-1.2-1.5-3.2-0.4-4.4l5.2-5.5l-6-5.6
				c-1.4-1.3-1.5-3.3-0.4-4.5s3.2-1.2,4.5,0.1l6,5.6l5.2-5.5c1.1-1.2,3.1-1.1,4.4,0.1c1.3,1.3,1.5,3.2,0.4,4.4l-5.2,5.5l6,5.6
				c1.4,1.3,1.5,3.3,0.4,4.5c-1.2,1.2-3.2,1.2-4.5-0.1L272,214.9z"/>
		</g>
	</g>
	<g>
		<path fill="#7BCED6" d="M97.6,212.5v64.8h204V227c0,0-26,9.8-39.7,10.3c-9,0.3-21.1-12.2-28.2-20.6c-3.7-4.3-9.2-1-16.2-2.3
			c-7.8-1.5-11.9,1.8-15.3,6.3c-3.4,4.5-11.9-1.3-16.4,2.4c-3,2.5-4,12.9-9.6,12.5c-10.4-0.7,0.1-16.9-2.5-21.1
			c-2.2-3.6-20.3,8-27.7,7c-2.5-0.3,9.2-11.1,1.8-12.7c-12.1-2.6-10.7-9-25.4-12.5s-14.6-2-21.8-2.4
			C93.4,193.6,97.6,212.5,97.6,212.5z"/>
	</g>
	<path fill="#FFFFFF" d="M263.5,170.6l-4.2-27.7l42.9-12.2l-1.4-4.8l-42.3,12l-2.6-17.3l-4.9,0.8l2.7,17.9l-56.2,15.9l-2-13.3
		l32.3-15.7l-2.2-4.5l-30.9,15l-2.3-14.9l-4.9,0.8l2.5,16.4l-62.9,30.6l-5.5-22.8l46-22.4l-2.2-4.5L120.4,142l-4.9-20.3l-4.9,1.2
		l5.2,21.4l-24.4,11.9l2.2,4.5l23.5-11.4l5.5,22.8l-31.2,15.2l2.2,4.5l4.4-2.2l0.1,1.1l204-18.5l-0.5-5L263.5,170.6z M254.5,144.3
		l4.1,26.8l-57.8,5.2l-2.4-16L254.5,144.3z M190.8,144.3l4.9,32.4l-87.9,8L190.8,144.3z"/>
	<g>
		<path fill="#F3B94C" d="M181.9,196.9c-0.6,0-1.2,0-1.7-0.1c-1.3-0.1-2.3-1.2-2.2-2.5s1.3-2.3,2.5-2.2c1.9,0.1,3.7,0,5.6-0.4
			c1.3-0.3,2.5,0.5,2.8,1.8s-0.5,2.5-1.8,2.8C185.4,196.7,183.7,196.9,181.9,196.9z M199.4,190.4c-0.8,0-1.5-0.4-2-1.1
			c-0.7-1.1-0.4-2.6,0.7-3.3c1.8-1.2,3.6-2.5,5.1-3.6c1.1-0.8,2.5-0.5,3.3,0.5c0.8,1.1,0.5,2.5-0.5,3.3c-1.5,1.1-3.4,2.4-5.3,3.7
			C200.3,190.3,199.9,190.4,199.4,190.4z M169.2,189.6c-0.9,0-1.7-0.5-2.1-1.3c-0.8-1.7-1.6-3.7-2.4-6.2c-0.4-1.2,0.3-2.6,1.6-3
			c1.2-0.4,2.6,0.3,3,1.6c0.7,2.3,1.4,4.1,2.1,5.6c0.6,1.2,0.1,2.6-1.1,3.2C169.9,189.5,169.6,189.6,169.2,189.6z M271.3,187.4
			c-1.1,0-2.1-0.8-2.3-2c-0.3-2-0.8-3.9-1.5-5.6c-0.5-1.2,0.2-2.6,1.4-3c1.2-0.5,2.6,0.2,3,1.4c0.8,2,1.3,4.2,1.7,6.5
			c0.2,1.3-0.7,2.5-2,2.7C271.5,187.4,271.4,187.4,271.3,187.4z M216.3,178.7c-0.8,0-1.6-0.4-2-1.1c-0.7-1.1-0.3-2.6,0.8-3.3
			c1.9-1.1,3.7-2.2,5.6-3.2c1.2-0.6,2.6-0.2,3.2,1c0.6,1.2,0.2,2.6-1,3.2c-1.8,0.9-3.6,2-5.3,3.1
			C217.1,178.6,216.7,178.7,216.3,178.7z M260.9,170.6c-0.4,0-0.8-0.1-1.2-0.3c-1.6-0.9-3.3-1.6-5.2-2c-1.3-0.3-2.1-1.6-1.8-2.8
			c0.3-1.3,1.5-2.1,2.8-1.8c2.4,0.5,4.6,1.4,6.5,2.5c1.1,0.6,1.5,2.1,0.9,3.2C262.5,170.2,261.7,170.6,260.9,170.6z M234.8,170
			c-1,0-1.9-0.6-2.3-1.7c-0.4-1.2,0.3-2.6,1.6-3c2.2-0.7,4.3-1.2,6.4-1.6c1.3-0.3,2.5,0.6,2.8,1.9c0.2,1.3-0.6,2.5-1.9,2.8
			c-1.9,0.4-3.9,0.9-5.9,1.5C235.3,170,235,170,234.8,170z M163.2,170c-1,0-2-0.7-2.3-1.7c-0.6-2.2-1.3-4.1-1.9-5.9
			c-0.4-1.2,0.2-2.6,1.4-3s2.6,0.2,3,1.4c0.7,1.8,1.3,3.8,2,6.2c0.4,1.3-0.4,2.6-1.6,2.9C163.7,170,163.4,170,163.2,170z
			 M95.6,163.2c-0.3,0-0.6-0.1-0.9-0.2c-1.2-0.5-1.8-1.9-1.2-3.1c0-0.1,1.1-2.6,3.8-5.9c0.8-1,2.3-1.1,3.3-0.3s1.1,2.3,0.3,3.3
			c-2.2,2.6-3.1,4.7-3.1,4.7C97.4,162.7,96.5,163.2,95.6,163.2z M154.4,151.7c-0.7,0-1.3-0.3-1.8-0.8c-1.3-1.5-2.7-2.7-4.3-3.6
			c-1.1-0.7-1.5-2.1-0.8-3.3c0.7-1.1,2.1-1.5,3.3-0.8c1.9,1.2,3.7,2.7,5.3,4.5c0.9,1,0.8,2.5-0.2,3.3
			C155.6,151.5,155,151.7,154.4,151.7z M110.1,149.2c-0.9,0-1.7-0.5-2.1-1.3c-0.6-1.2-0.1-2.6,1-3.2c1.9-1,4-1.9,6.1-2.6
			c1.2-0.4,2.6,0.3,3,1.5s-0.3,2.6-1.5,3c-1.9,0.6-3.8,1.4-5.5,2.3C110.8,149.1,110.5,149.2,110.1,149.2z M129.8,144.2
			c-1.3,0-2.3-1-2.4-2.2c-0.1-1.3,0.9-2.4,2.2-2.5c2.1-0.1,4.2-0.1,6.5,0c1.3,0.1,2.3,1.2,2.3,2.5c-0.1,1.3-1.2,2.4-2.5,2.3
			c-2.1-0.1-4.2-0.1-6.1,0C129.9,144.2,129.8,144.2,129.8,144.2z"/>
	</g>
	<g>
		<path fill="#595C66" d="M301.6,280.5h-206c-1.7,0-3.2-1.4-3.2-3.2v-155c0-1.7,1.4-3.2,3.2-3.2h206c1.7,0,3.2,1.4,3.2,3.2v155.1
			C304.7,279.1,303.3,280.5,301.6,280.5z M98.7,274.2h199.7V125.4H98.7V274.2z"/>
	</g>
	<g opacity="5.000000e-02">
		<rect x="198.8" y="108.2" fill="#686765" width="120.6" height="183.7"/>
	</g>
</g>
</svg>
