<?xml version="1.0" encoding="utf-8"?>
<!-- Generator: Adobe Illustrator 18.1.1, SVG Export Plug-In . SVG Version: 6.00 Build 0)  -->
<!DOCTYPE svg PUBLIC "-//W3C//DTD SVG 1.1//EN" "http://www.w3.org/Graphics/SVG/1.1/DTD/svg11.dtd">
<svg version="1.1" id="Layer_1" xmlns="http://www.w3.org/2000/svg" xmlns:xlink="http://www.w3.org/1999/xlink" x="0px" y="0px"
	 width="800px" height="530px" viewBox="0 0 800 530" enable-background="new 0 0 800 530" xml:space="preserve">
<rect fill="#F15623" width="800" height="530"/>
<g>
	<g>
		<path fill="#FFFFFF" d="M340.7,248.4h6.1l8.2,21.3l4-21.3h5.4l-5.4,29.2h-6l-8.3-21.2l-3.9,21.2h-5.4L340.7,248.4z"/>
		<path fill="#FFFFFF" d="M404,263.1c-1.6,8.5-9.7,15.2-18,15.2c-8.3,0-14-6.7-12.4-15.2c1.6-8.5,9.6-15.3,18-15.3
			C400.1,247.8,405.6,254.6,404,263.1z M379,263c-1,5.4,2.6,10,7.9,10s10.7-4.6,11.7-10c1-5.5-2.5-9.9-8-9.9
			C385.2,253.1,380.1,257.5,379,263z"/>
		<path fill="#FFFFFF" d="M418.9,248.4h8.5c2.8,0,5.3,0.2,7.2,2.1c1.8,1.7,2.6,4.5,2.1,7.2c-0.4,2.1-1.9,4.8-3.6,6.4
			c-1.7,1.5-3.6,2.4-5.7,2.8l5.9,10.8h-6.7l-5.5-11.2H421l-2.1,11.2h-5.4L418.9,248.4z M424.7,262.3c1.4,0,3.3-0.2,4.5-1.2
			c1-0.8,1.7-1.9,1.9-3.2c0.2-1.3-0.1-2.5-1-3.3c-1.1-0.9-2.3-1-3.8-1h-3l-1.6,8.6H424.7z"/>
		<path fill="#FFFFFF" d="M452.3,253.6H447l1-5.3h16.2l-1,5.3h-5.5l-4.4,23.9h-5.4L452.3,253.6z"/>
		<path fill="#FFFFFF" d="M474.8,248.4h5.4l-2.2,11.7h10.4l2.2-11.7h5.4l-5.4,29.2h-5.4l2.3-12.2h-10.4l-2.3,12.2h-5.4L474.8,248.4z
			"/>
		<path fill="#FFFFFF" d="M509.6,248.4h7.4l3.7,22.3l12.1-22.3h7.3l-5.4,29.2h-5.4l4.1-21.9l-11.6,21.9h-4.6l-3.5-21.9l-4.1,21.9
			h-5.4L509.6,248.4z"/>
		<path fill="#FFFFFF" d="M562.8,248.4h4.2l6.9,29.2h-6l-1.8-7.5h-10.3l-4.6,7.5h-6L562.8,248.4z M565,264.7l-1.5-8.8l-4.8,8.8H565z
			"/>
		<path fill="#FFFFFF" d="M590.2,248.4h6.1l8.2,21.3l4-21.3h5.4l-5.4,29.2h-6l-8.3-21.2l-3.9,21.2h-5.4L590.2,248.4z"/>
	</g>
	<g>
		<path fill="#FFFFFF" d="M295.7,247.2l-33.3-33.3c-4.6-4.6-10.7-7.1-17.3-7.1c-6.5,0-12.7,2.5-17.3,7.1l-33.3,33.3
			c-4.6,4.6-7.1,10.7-7.1,17.3s2.5,12.7,7.1,17.3l33.3,33.3c4.6,4.6,10.7,7.1,17.3,7.1c6.5,0,12.7-2.5,17.3-7.1l33.3-33.3
			c4.6-4.6,7.1-10.7,7.1-17.3S300.3,251.8,295.7,247.2z M296.3,264.4c0,4.8-1.9,9.3-5.2,12.7l-33.3,33.3c-3.4,3.4-7.9,5.2-12.7,5.2
			c-4.8,0-9.3-1.9-12.7-5.2l-33.3-33.3c-3.4-3.4-5.2-7.9-5.2-12.7c0-4.8,1.9-9.3,5.2-12.7l33.3-33.3c3.4-3.4,7.9-5.2,12.7-5.2
			c4.8,0,9.3,1.9,12.7,5.2l33.3,33.3C294.5,255.1,296.3,259.6,296.3,264.4z"/>
		<polygon fill="#FFFFFF" points="204.5,285.1 199.8,280.3 232.8,247.3 257.3,271.9 285.6,243.5 290.4,248.3 257.3,281.4 
			232.8,256.9 		"/>
		<polygon fill="#FFFFFF" points="215.3,293.5 210.5,288.7 232.7,266.5 252.5,286.3 247.7,291 232.7,276 		"/>
		<polygon fill="#FFFFFF" points="274.8,235.3 279.6,240.1 257.3,262.4 237.5,242.6 242.3,237.8 257.3,252.8 		"/>
	</g>
</g>
</svg>
