<?xml version="1.0" encoding="utf-8"?>
<!-- Generator: Adobe Illustrator 18.1.1, SVG Export Plug-In . SVG Version: 6.00 Build 0)  -->
<!DOCTYPE svg PUBLIC "-//W3C//DTD SVG 1.1//EN" "http://www.w3.org/Graphics/SVG/1.1/DTD/svg11.dtd">
<svg version="1.1" id="Layer_1" xmlns="http://www.w3.org/2000/svg" xmlns:xlink="http://www.w3.org/1999/xlink" x="0px" y="0px"
	 width="800px" height="530px" viewBox="0 0 800 530" enable-background="new 0 0 800 530" xml:space="preserve">
<rect x="0.5" fill="#EAE9DA" width="800" height="530"/>
<g>
	<g>
		<path fill="#231F20" d="M350.7,209.1c-4-10-13.8-14.8-21.2-12.4c-4.8,1.5-10.6,6.3-9.8,10.8c0.4,2.5,2.9,5,5.9,5.3
			c2.1,0.2,5.4-0.6,6.3-3.4c0.7-2.1-0.1-4.5-2.1-6.1C329.8,203.4,337.7,194.8,350.7,209.1z"/>
	</g>
	<g>
		<path fill="#231F20" d="M418.9,347.9h-26.8l5.2-3.1H409l10.9-30c0.3-0.7,1-1.1,1.8-0.8c0.7,0.3,1.1,1,0.8,1.8L412,344.9h5.9
			L418.9,347.9z"/>
	</g>
	<g>
		<ellipse fill="#857F7A" cx="414.3" cy="309.5" rx="20.3" ry="18"/>
	</g>
	<g opacity="0.3">
		<path fill="#4E4A47" d="M426.2,324c-9.5,1.3-23.9-0.4-24.8-0.6c-1.1-0.8-1.5-1.1-2.9-2.6c2.2-0.2,22.6,1,31,0.4
			C428.2,322.9,428.1,322.8,426.2,324z"/>
	</g>
	<g>
		<path fill="#423E3C" d="M410.2,354.2h-26.8l5.2-3.1h9.5l10.7-29.5c0.3-0.7,1-1.1,1.8-0.8c0.7,0.3,1.1,1,0.8,1.8l-10.4,28.6h8.2
			L410.2,354.2z"/>
	</g>
	<g>
		<path fill="#969494" d="M356.1,259.7c0,0-1.9,24.2,4,35.8c9.7,19.5,29.1,27.2,59.3,27.2c31.7,0,44.5-11.3,47.3-11.1l30-1.1
			L372.5,207.9c-4.1-3.2-8-7.2-15.1-6.1c-9.9,1.6-11.3,5.5-16.7,11.9l9.1,16.4C353.5,236.7,356.1,252.1,356.1,259.7z"/>
	</g>
	<g>
		<path fill="#4E4A47" d="M370.4,213.6l-29.7,0c5.4-6.4,6.8-10.3,16.7-11.9c7-1.1,11,2.9,15.1,6.1l153.3,126.7l-58.8-23
			C383.2,316.9,373.1,218.4,370.4,213.6z"/>
	</g>
	<g>
		<path fill="#969494" d="M376.1,310.9c0.4,0.2,0.8,0.4,1.2,0.7h-3.8c-2.3-1.6-4.3-3.4-6.2-5.5C370.3,307.7,373.2,309.3,376.1,310.9
			z"/>
	</g>
	<g>
		<path fill="#231F20" d="M340.7,213.7l-5.5,6.3c-0.2,0.3,0,0.6,0.3,0.6c2.2-0.4,5.4-1.6,8.6-0.2
			C348.2,222.2,340.7,213.7,340.7,213.7z"/>
	</g>
	<g>
		<path fill="#857F7A" d="M340.8,213.6c0,0,8.2-7.2,17.7-6.3s12,6.3,12,6.3s-17.7,21.7-20.8,16.2C344.2,220,340.8,213.6,340.8,213.6
			z"/>
	</g>
	<g>
		<path fill="#FFFFFF" d="M360.6,219.5c1.8-3.5,2.9-7.3,3.2-11c5.2,1.9,6.7,5.2,6.7,5.2s-14.1,17.4-19.4,17
			C355.2,227.7,358.6,223.5,360.6,219.5z"/>
	</g>
	<g>
		<circle fill="#231F20" cx="352.5" cy="213.7" r="1.7"/>
	</g>
	<g>
		<path fill="#857F7A" d="M381.3,251.4c0,0-7.3,29.1,6.7,44.2c14.1,15.1,43,11,43,11s6.1-28.6-8-43.7
			C408.9,247.8,381.3,251.4,381.3,251.4z"/>
	</g>
	<g>
		<path fill="#969494" d="M382.2,251.3c4.8-0.5,28.2-1.9,40.9,11.6c7.3,7.8,9.2,19.1,9.3,28.3C430.8,262.1,384.7,251.6,382.2,251.3z
			"/>
	</g>
</g>
</svg>
