<?xml version="1.0" encoding="utf-8"?>
<!-- Generator: Adobe Illustrator 18.1.0, SVG Export Plug-In . SVG Version: 6.00 Build 0)  -->
<!DOCTYPE svg PUBLIC "-//W3C//DTD SVG 1.1//EN" "http://www.w3.org/Graphics/SVG/1.1/DTD/svg11.dtd">
<svg version="1.1" id="Layer_1" xmlns="http://www.w3.org/2000/svg" xmlns:xlink="http://www.w3.org/1999/xlink" x="0px" y="0px"
	 viewBox="0 0 800 530" enable-background="new 0 0 800 530" xml:space="preserve">
<rect x="-0.2" y="-1" fill="#F0EDE5" width="800" height="530"/>
<g>
	<circle fill="#394F63" cx="276.2" cy="193.6" r="41.7"/>
	<g>
		<path fill="#FFFFFF" d="M279.4,216.2c0.3,0.9-0.1,1.8-0.9,2.1l-3.4,1.2c-0.8,0.3-1.8-0.2-2.1-1l-5.4-14.9
			c-0.3-0.9,0.1-1.8,0.9-2.1l3.4-1.2c0.8-0.3,1.8,0.2,2.1,1L279.4,216.2z"/>
		<path fill="#7DCDD5" d="M262.8,185h-6.3c-1.8,0-3.2,1.4-3.2,3.2v9.3c0,1.8,1.4,3.2,3.2,3.2h6.3V185z"/>
		<polygon fill="#EF644E" points="266.2,182.2 262.8,185 262.8,200.7 266.2,203.7 266.2,203.5 277.3,203.5 277.3,182.2 		"/>
		<path fill="#02768F" d="M253.3,189.3c-1.5,0.3-2.6,1.6-2.6,3.1v0.8c0,1.5,1.1,2.8,2.6,3.1V189.3z"/>
		<path fill="#EF644E" d="M295.6,209.9c0,1.1-0.9,2-2,2l0,0c-1.1,0-2-0.9-2-2v-33.8c0-1.1,0.9-2,2-2l0,0c1.1,0,2,0.9,2,2V209.9z"/>
		<path fill="#02768F" d="M297,189.1h-1.4v7.1h1.4c0.9,0,1.6-0.7,1.6-1.6v-3.8C298.6,189.8,297.9,189.1,297,189.1z"/>
		<path fill="#FFFFFF" d="M277.3,182.2c0,0,9.4-0.3,14.4-6.1v33.8c0,0-3.8-5.3-14.4-6.4V182.2z"/>
	</g>
</g>
<g>
	<circle fill="#394F63" cx="505.8" cy="193.6" r="41.7"/>
	<polygon fill="#FFFFFF" points="540,200.8 505.7,217.5 471.4,200.1 504,186.1 	"/>
	<polygon fill="#7DCDD5" points="531.3,200.2 505.7,212.6 480,199.7 504.4,189.2 	"/>
	<path fill="#EF644E" d="M504.9,167.4c-6,0-10.9,4.9-10.9,10.9c0,1.3,0.3,2.6,0.7,3.8c2.2,7.7,10.2,18.1,10.2,18.1v0.1
		c0,0,8.9-11.8,10.6-19.6c0-0.1,0.3-1.8,0.3-2.4C515.8,172.2,510.9,167.4,504.9,167.4z M504.9,181.8c-2.4,0-4.3-1.9-4.3-4.3
		c0-2.4,1.9-4.3,4.3-4.3c2.4,0,4.3,1.9,4.3,4.3C509.2,179.9,507.3,181.8,504.9,181.8z"/>
</g>
<g>
	<g>
		<g>
			<circle fill="#394F63" cx="391" cy="193.6" r="42.2"/>
		</g>
	</g>
	<g>
		<g>
			<path fill="#7DCDD5" d="M393.8,214.5v-45.4c0-0.3-0.1-0.6-0.2-0.9l-1.4-2.2c-0.6-1-2.2-1-2.8,0l-1.4,2.2
				c-0.2,0.3-0.2,0.6-0.2,0.9v45.4c0,0.5-0.4,0.9-0.9,0.9l-7.8,0c-0.5,0-0.9,0.4-0.9,0.9v2c0,0.5,0.4,0.9,0.9,0.9h23.3
				c0.5,0,0.9-0.4,0.9-0.9v-2c0-0.5-0.4-0.9-0.9-0.9l-7.8,0C394.2,215.4,393.8,215,393.8,214.5z"/>
			<path fill="#E64D3C" d="M402.5,215.4l-7.8,0c-0.1,0-0.3,0-0.4-0.1h-6.9c-0.1,0.1-0.3,0.1-0.4,0.1l-7.8,0c-0.5,0-0.9,0.4-0.9,0.9
				v2c0,0.5,0.4,0.9,0.9,0.9h23.3c0.5,0,0.9-0.4,0.9-0.9v-2C403.3,215.8,403,215.4,402.5,215.4z"/>
		</g>
		<path fill="#FFFFFF" d="M386.6,192.3l-1.3-2.7c-0.2-0.5,0-1.1,0.5-1.1h21.4c0.3,0,0.6,0.1,0.8,0.3l3.3,2.9c0.3,0.3,0.3,0.9,0,1.2
			l-3.2,2.9c-0.3,0.2-0.6,0.4-0.9,0.4h-21.3c-0.5,0-0.8-0.6-0.5-1.1L386.6,192.3z"/>
		<path fill="#F3B94C" d="M394.3,179.8l1.3,2.7c0.2,0.5,0,1.1-0.5,1.1h-21.4c-0.3,0-0.6-0.1-0.8-0.3l-3.3-2.9
			c-0.3-0.3-0.3-0.9,0-1.2l3.2-2.9c0.3-0.2,0.6-0.4,0.9-0.4H395c0.5,0,0.8,0.6,0.5,1.1L394.3,179.8z"/>
	</g>
</g>
<g>
	<path fill="#394F63" d="M547.3,310.8c0-22.9-18.6-41.5-41.5-41.5s-41.5,18.6-41.5,41.5c0,17.3,10.6,32.1,25.7,38.4
		c5.4,14.3,14,29,15.2,30.9c0,0.3,0.2,0.6,0.4,0.7c0.1,0,0.1,0,0.2,0c0.2,0,0.4-0.1,0.5-0.3c0.5-0.8,9.7-16.2,15.4-31.4
		C536.8,342.9,547.3,328.1,547.3,310.8z"/>
	<circle fill="#FFFFFF" cx="505.3" cy="310.5" r="35.6"/>
	<g>
		<path fill="#7DCDD5" d="M525.4,305.1l-20-19.7c-0.2-0.2-0.6-0.2-0.8,0l-11,10.8v-9.8h-6.4v16.1l-2.6,2.5c-0.1,0.1-0.2,0.3-0.2,0.4
			v28.2c0,0.3,0.3,0.6,0.6,0.6h40c0.3,0,0.6-0.3,0.6-0.6v-28.2C525.6,305.4,525.5,305.3,525.4,305.1z"/>
		<g>
			<path fill="#394F63" d="M482.4,310.5c-0.4,0-0.8-0.1-1.2-0.4c-0.7-0.6-0.8-1.8-0.2-2.5l22.5-25.9c0.3-0.4,0.8-0.6,1.3-0.6h0
				c0.5,0,1,0.2,1.3,0.6l23.2,25.9c0.7,0.7,0.6,1.9-0.1,2.5c-0.7,0.7-1.9,0.6-2.5-0.1L505,285.5l-21.2,24.4
				C483.4,310.3,482.9,310.5,482.4,310.5z"/>
		</g>
		<g>
			<g>
				<circle fill="#FFFFFF" cx="505" cy="299.8" r="5.2"/>
			</g>
			<path fill="#F3B94C" d="M505,293.4c-3.5,0-6.4,2.9-6.4,6.4c0,3.5,2.9,6.4,6.4,6.4c3.5,0,6.4-2.9,6.4-6.4
				C511.4,296.2,508.5,293.4,505,293.4z M509,299.8c0,2.2-1.8,4.1-4.1,4.1c-2.2,0-4.1-1.8-4.1-4.1c0-2.2,1.8-4.1,4.1-4.1
				C507.2,295.7,509,297.5,509,299.8z"/>
		</g>
		<g>
			<path fill="#E64D3C" d="M501.5,334.3h-9.8c-0.3,0-0.5-0.2-0.5-0.5v-20.9c0-0.3,0.2-0.5,0.5-0.5h9.8c0.3,0,0.5,0.2,0.5,0.5v20.9
				C502.1,334.1,501.8,334.3,501.5,334.3z"/>
		</g>
		<g>
			<path fill="#394F63" d="M493.9,288.2h-7c-0.1,0-0.2-0.1-0.2-0.2v-2.2c0-0.1,0.1-0.2,0.2-0.2h7c0.1,0,0.2,0.1,0.2,0.2v2.2
				C494.1,288.1,494,288.2,493.9,288.2z"/>
		</g>
		<g>
			<rect x="490" y="331.9" fill="#9AA4AB" width="13.8" height="3.6"/>
		</g>
		<g>
			<circle fill="#F3B94C" cx="499.5" cy="323.7" r="1.2"/>
		</g>
		<rect x="505.9" y="312.4" fill="#FFFFFF" width="15.8" height="11.3"/>
		<path fill="#F3B94C" d="M521.9,311.3h-16.4c-0.5,0-0.8,0.4-0.8,0.8V324c0,0.5,0.4,0.8,0.8,0.8h16.4c0.5,0,0.8-0.4,0.8-0.8v-11.9
			C522.8,311.6,522.4,311.3,521.9,311.3z M514.6,317.2v-3.6h5.8v3.6H514.6z M514.6,322.5V319h5.8v3.6H507V319h5.8v4.2L514.6,322.5z
			 M507,317.2v-3.6h5.8v3.6H507z"/>
		<g>
			<path fill="#394F63" d="M522.9,324.9h-18.5c-0.2,0-0.3-0.1-0.3-0.3v-1.9c0-0.2,0.1-0.3,0.3-0.3h18.5c0.2,0,0.3,0.1,0.3,0.3v1.9
				C523.2,324.8,523.1,324.9,522.9,324.9z"/>
		</g>
	</g>
</g>
<g>
	<g>
		<path fill="#394F63" d="M317.3,311c0-22.7-18.4-41.1-41.1-41.1c-22.7,0-41.1,18.4-41.1,41.1c0,17.1,10.5,31.8,25.4,38
			c5.4,14.2,13.9,28.7,15.1,30.6c0,0.3,0.2,0.6,0.4,0.7c0.1,0,0.1,0,0.2,0c0.2,0,0.4-0.1,0.5-0.3c0.5-0.8,9.6-16.1,15.2-31
			C306.9,342.7,317.3,328.1,317.3,311z"/>
		<circle fill="#FFFFFF" cx="275.7" cy="310.7" r="35.2"/>
	</g>
	<g>
		<g>
			<path fill="#E64D3C" d="M282.9,287.2h-6.9c-0.1,0-0.2-0.1-0.2-0.2v-4.3c0-0.1,0.1-0.2,0.2-0.2h6.9c0.1,0,0.2,0.1,0.2,0.2v4.3
				C283.1,287.1,283,287.2,282.9,287.2z"/>
		</g>
		<g>
			<path fill="#6BB4B5" d="M296.8,332.4h-42.1c-0.1,0-0.1,0-0.1-0.1v-32.1c0-0.1,0-0.1,0.1-0.1h42.1c0.1,0,0.1,0,0.1,0.1v32.1
				C296.9,332.3,296.8,332.4,296.8,332.4z"/>
		</g>
		<path fill="#394F63" d="M298.5,292.6h-19.7c0,0-0.1,0-0.1,0l-2.4-2.1v-7.9c0-0.3-0.3-0.6-0.6-0.6c-0.3,0-0.6,0.3-0.6,0.6v7.7
			c-0.1,0-0.1,0.1-0.2,0.1l-2.6,2.2c0,0-0.1,0-0.1,0h-19.3c-0.1,0-0.2,0.1-0.2,0.2v7.5c0,0.1,0.1,0.2,0.2,0.2h45.6
			c0.1,0,0.2-0.1,0.2-0.2v-7.5C298.7,292.7,298.6,292.6,298.5,292.6z"/>
		<g>
			<polygon fill="#7DCDD5" points="282.5,334.4 268.9,334.4 268.9,298.2 275.7,291.7 282.5,298.2 			"/>
		</g>
		<g>
			<path fill="#E64D3C" d="M279.1,334.4h-6.7c-0.2,0-0.5-0.2-0.5-0.5v-16.1c0-0.2,0.2-0.5,0.5-0.5h6.7c0.2,0,0.5,0.2,0.5,0.5v16.1
				C279.5,334.2,279.3,334.4,279.1,334.4z"/>
		</g>
		<rect x="258.7" y="304.9" fill="#FFFFFF" width="5.5" height="7.1"/>
		<rect x="287" y="304.9" fill="#FFFFFF" width="5.5" height="7.1"/>
		<rect x="258.7" y="318.1" fill="#FFFFFF" width="5.5" height="7.1"/>
		<rect x="287" y="318.1" fill="#FFFFFF" width="5.5" height="7.1"/>
		<path fill="#F3B94C" d="M265.4,323.9h-0.6v-6.1c0-0.2-0.1-0.3-0.3-0.3h-6.1c-0.2,0-0.3,0.1-0.3,0.3v6.1h-0.5
			c-0.1,0-0.2,0.1-0.2,0.2v1.6c0,0.1,0.1,0.2,0.2,0.2h7.8c0.1,0,0.2-0.1,0.2-0.2v-1.6C265.6,324,265.5,323.9,265.4,323.9z
			 M259.3,318.7h4.3v5.2h-4.3V318.7z"/>
		<path fill="#F3B94C" d="M265.4,311h-0.6v-6.6c0-0.1-0.1-0.2-0.2-0.2h-6.4c-0.1,0-0.2,0.1-0.2,0.2v6.6h-0.5c-0.1,0-0.2,0.1-0.2,0.2
			v1.6c0,0.1,0.1,0.2,0.2,0.2h7.8c0.1,0,0.2-0.1,0.2-0.2v-1.6C265.6,311.1,265.5,311,265.4,311z M259.3,305.5h4.3v5.5h-4.3V305.5z"
			/>
		<path fill="#F3B94C" d="M293.7,323.9h-0.5v-5.8c0-0.3-0.3-0.6-0.6-0.6h-5.7c-0.2,0-0.4,0.2-0.4,0.4v6.1h-0.5
			c-0.1,0-0.2,0.1-0.2,0.2v1.6c0,0.1,0.1,0.2,0.2,0.2h7.8c0.1,0,0.2-0.1,0.2-0.2v-1.6C293.9,324,293.8,323.9,293.7,323.9z
			 M287.6,318.7h4.3v5.2h-4.3V318.7z"/>
		<path fill="#F3B94C" d="M293.7,311h-0.5v-6.5c0-0.1-0.1-0.2-0.2-0.2h-6.3c-0.1,0-0.2,0.1-0.2,0.2v6.5h-0.5c-0.1,0-0.2,0.1-0.2,0.2
			v1.6c0,0.1,0.1,0.2,0.2,0.2h7.8c0.1,0,0.2-0.1,0.2-0.2v-1.6C293.9,311.1,293.8,311,293.7,311z M287.6,305.5h4.3v5.5h-4.3V305.5z"
			/>
		<g>
			<circle fill="#FFFFFF" cx="275.7" cy="304.9" r="4"/>
			<path fill="#F3B94C" d="M275.7,309.5c-2.5,0-4.6-2.1-4.6-4.6s2.1-4.6,4.6-4.6c2.5,0,4.6,2.1,4.6,4.6S278.3,309.5,275.7,309.5z
				 M275.7,301.5c-1.9,0-3.4,1.5-3.4,3.4s1.5,3.4,3.4,3.4c1.9,0,3.4-1.5,3.4-3.4S277.6,301.5,275.7,301.5z"/>
		</g>
		<g>
			<rect x="270.3" y="332.4" fill="#9AA4AB" width="10.9" height="2.8"/>
		</g>
	</g>
</g>
<g>
	<g>
		<g>
			<path fill="#394F63" d="M432.8,310.7c0-23.1-18.7-41.8-41.8-41.8c-23.1,0-41.8,18.7-41.8,41.8c0,17.4,10.7,32.3,25.8,38.6
				c5.4,14.4,14.1,29.2,15.3,31.1c0,0.3,0.2,0.6,0.5,0.7c0.1,0,0.1,0,0.2,0c0.2,0,0.4-0.1,0.5-0.3c0.5-0.8,9.7-16.3,15.5-31.6
				C422.2,343,432.8,328.1,432.8,310.7z"/>
			<circle fill="#FFFFFF" cx="390.5" cy="310.4" r="35.8"/>
		</g>
	</g>
	<g>
		<g>
			<g>
				<g>
					
						<rect x="379.3" y="294.6" transform="matrix(0.3175 0.9483 -0.9483 0.3175 540.1842 -159.8647)" fill="#E64D3C" width="3.7" height="1.5"/>
				</g>
				<g>
					<path fill="#394F63" d="M373.6,325.7c-6.3,0-11.5-5.2-11.5-11.5s5.2-11.5,11.5-11.5c6.3,0,11.5,5.2,11.5,11.5
						S379.9,325.7,373.6,325.7z M373.6,304.2c-5.5,0-10,4.5-10,10s4.5,10,10,10c5.5,0,10-4.5,10-10S379.1,304.2,373.6,304.2z"/>
				</g>
				<g>
					<path fill="#394F63" d="M373.6,324.2c-5.5,0-10.1-4.5-10.1-10.1s4.5-10.1,10.1-10.1c5.5,0,10.1,4.5,10.1,10.1
						S379.1,324.2,373.6,324.2z M373.6,305c-5,0-9.1,4.1-9.1,9.1s4.1,9.1,9.1,9.1c5,0,9.1-4.1,9.1-9.1S378.6,305,373.6,305z"/>
				</g>
				<g>
					<path fill="#394F63" d="M408.5,325.7c-6.3,0-11.5-5.2-11.5-11.5s5.2-11.5,11.5-11.5c6.3,0,11.5,5.2,11.5,11.5
						S414.8,325.7,408.5,325.7z M408.5,304.2c-5.5,0-10,4.5-10,10s4.5,10,10,10c5.5,0,10-4.5,10-10S414,304.2,408.5,304.2z"/>
				</g>
				<g>
					<path fill="#394F63" d="M408.5,324.2c-5.5,0-10.1-4.5-10.1-10.1s4.5-10.1,10.1-10.1c5.5,0,10.1,4.5,10.1,10.1
						S414,324.2,408.5,324.2z M408.5,305c-5,0-9.1,4.1-9.1,9.1s4.1,9.1,9.1,9.1c5,0,9.1-4.1,9.1-9.1S413.5,305,408.5,305z"/>
				</g>
				<g>
					
						<rect x="374.5" y="314.5" transform="matrix(0.9943 0.1064 -0.1064 0.9943 35.7028 -38.7473)" fill="#7DCDD5" width="13.2" height="1.7"/>
				</g>
				<path fill="#7DCDD5" d="M408.4,312.6l-4.2-9.1l-0.8-2l0,0l0,0l-0.8-2.2l-1.4-3.9l-1.6,0.6l0.5,1.4h-17.4l-0.5-1.5l-1.6,0.5
					l0.5,1.8l-7.6,14.4c-0.2,0.4-0.1,0.9,0.3,1.1s0.9,0.1,1.1-0.3l6.9-13l4.6,14.8c-0.2,0.3-0.3,0.6-0.3,0.9c0,0.8,0.7,1.5,1.5,1.5
					s1.5-0.7,1.5-1.5c0-0.1,0-0.2,0-0.3l13-12.9l0.5,1.3c0,0,0,0,0,0l4.2,9.2c0.1,0.3,0.4,0.5,0.8,0.5c0.1,0,0.2,0,0.3-0.1
					C408.4,313.5,408.6,313,408.4,312.6z M388,314.5l-4.8-15.5h17.5l0.4,1l0.3,0.8l0,0l0.2,0.4L388,314.5z"/>
				<g>
					<path fill="#E64D3C" d="M406.4,299.3c-0.3,0-0.5-0.1-0.6-0.4c-0.1-0.3,0-0.7,0.3-0.8c0.1,0,1.7-0.8,1.7-2.6
						c0-0.3-0.1-0.8-0.3-1.1c-0.3-0.2-0.6-0.2-0.6-0.2c0,0,0,0-0.1,0h-4.4c-0.4,0-0.6-0.3-0.6-0.6s0.3-0.6,0.6-0.6h4.4
						c0.2,0,0.9,0,1.6,0.5c0.5,0.5,0.8,1.1,0.8,2c0,2.7-2.4,3.7-2.5,3.7C406.6,299.3,406.5,299.3,406.4,299.3z"/>
				</g>
				<g>
					<polygon fill="#E64D3C" points="398.7,292.9 399.8,295.9 401,295.4 400.5,294.2 402.9,294.2 402.9,292.9 					"/>
				</g>
				<g>
					<path fill="#E64D3C" d="M384.8,293.7c0,0,0.4-1.2-2.2-1.2c-1.8,0-4.2-0.7-5-1c-0.6-0.2-2,0.3-0.8,1.7c1.2,1.4,2.2,1.4,3.5,1.3
						S384.8,294.1,384.8,293.7z"/>
					<path fill="#E64D3C" d="M379.5,294.7L379.5,294.7c-0.9,0-1.8-0.2-2.8-1.4c-0.6-0.6-0.5-1.1-0.4-1.3c0.2-0.5,0.9-0.6,1.3-0.5
						c1,0.3,3.2,1,5,1c1.2,0,1.9,0.2,2.2,0.7c0.2,0.3,0.1,0.6,0.1,0.6c-0.1,0.6-4.7,0.9-4.7,0.9
						C379.9,294.7,379.7,294.7,379.5,294.7z M377.3,291.6c-0.3,0-0.7,0.1-0.8,0.4c-0.1,0.3,0,0.7,0.4,1.1c0.9,1.1,1.7,1.3,2.7,1.3h0
						c0.2,0,0.4,0,0.7,0c1.7-0.1,4.4-0.5,4.5-0.8c0,0,0,0,0,0c0,0,0.1-0.2-0.1-0.5c-0.2-0.3-0.7-0.6-2-0.6c-1.8,0-4.1-0.6-5-1
						C377.5,291.6,377.4,291.6,377.3,291.6z"/>
				</g>
				<g>
					<path fill="#E64D3C" d="M408.5,316.3c-1,0-1.8-0.8-1.8-1.8c0-1,0.8-1.8,1.8-1.8s1.8,0.8,1.8,1.8
						C410.3,315.4,409.5,316.3,408.5,316.3z M408.5,313.7c-0.4,0-0.7,0.3-0.7,0.7c0,0.4,0.3,0.7,0.7,0.7c0.4,0,0.7-0.3,0.7-0.7
						C409.2,314,408.9,313.7,408.5,313.7z"/>
				</g>
				<g>
					<path fill="#E64D3C" d="M373.6,316.3c-1,0-1.8-0.8-1.8-1.8c0-1,0.8-1.8,1.8-1.8c1,0,1.8,0.8,1.8,1.8
						C375.4,315.4,374.6,316.3,373.6,316.3z M373.6,313.7c-0.4,0-0.7,0.3-0.7,0.7c0,0.4,0.3,0.7,0.7,0.7c0.4,0,0.7-0.3,0.7-0.7
						C374.3,314,374,313.7,373.6,313.7z"/>
				</g>
			</g>
		</g>
	</g>
</g>
</svg>
