<?xml version="1.0" encoding="utf-8"?>
<!-- Generator: Adobe Illustrator 18.1.0, SVG Export Plug-In . SVG Version: 6.00 Build 0)  -->
<!DOCTYPE svg PUBLIC "-//W3C//DTD SVG 1.1//EN" "http://www.w3.org/Graphics/SVG/1.1/DTD/svg11.dtd">
<svg version="1.1" id="Layer_1" xmlns="http://www.w3.org/2000/svg" xmlns:xlink="http://www.w3.org/1999/xlink" x="0px" y="0px"
	 viewBox="0 0 800 530" enable-background="new 0 0 800 530" xml:space="preserve">
<radialGradient id="SVGID_1_" cx="398.7245" cy="263.1218" r="304.0315" gradientTransform="matrix(1.8596 0 0 0.7118 -342.2553 76.7082)" gradientUnits="userSpaceOnUse">
	<stop  offset="0" style="stop-color:#546B89"/>
	<stop  offset="0.9172" style="stop-color:#3C5166"/>
	<stop  offset="1" style="stop-color:#394F63"/>
</radialGradient>
<rect x="-0.8" y="-1" fill="url(#SVGID_1_)" width="800" height="530"/>
<g>
	<g>
		<ellipse opacity="0.43" fill="#2D3F50" cx="337.9" cy="332.2" rx="50.8" ry="3.1"/>
		<ellipse opacity="0.43" fill="#2D3F50" cx="488.9" cy="332.2" rx="50.8" ry="3.1"/>
		<g>
			<g>
				
					<rect x="360.9" y="198.9" transform="matrix(0.3175 0.9483 -0.9483 0.3175 443.2711 -211.8535)" fill="#EDF0F1" width="15.9" height="6.3"/>
			</g>
			<g>
				<path fill="#EDF0F1" d="M336.3,332c-27.1,0-49.2-22.1-49.2-49.2s22.1-49.2,49.2-49.2c27.1,0,49.2,22.1,49.2,49.2
					S363.4,332,336.3,332z M336.3,239.8c-23.7,0-42.9,19.3-42.9,42.9s19.3,42.9,42.9,42.9c23.7,0,42.9-19.3,42.9-42.9
					S359.9,239.8,336.3,239.8z"/>
			</g>
			<g>
				<path fill="#E64D3C" d="M336.3,325.8c-23.7,0-43.1-19.3-43.1-43s19.3-43,43.1-43c23.7,0,43,19.3,43,43S360,325.8,336.3,325.8z
					 M336.3,243.6c-21.6,0-39.1,17.6-39.1,39.1s17.6,39.1,39.1,39.1c21.6,0,39.1-17.6,39.1-39.1S357.9,243.6,336.3,243.6z"/>
			</g>
			<g>
				<path fill="#EDF0F1" d="M485.8,332c-27.1,0-49.2-22.1-49.2-49.2s22.1-49.2,49.2-49.2c27.1,0,49.2,22.1,49.2,49.2
					S512.9,332,485.8,332z M485.8,239.8c-23.7,0-42.9,19.3-42.9,42.9s19.3,42.9,42.9,42.9c23.7,0,42.9-19.3,42.9-42.9
					S509.5,239.8,485.8,239.8z"/>
			</g>
			<g>
				<path fill="#E64D3C" d="M485.8,325.8c-23.7,0-43-19.3-43-43s19.3-43,43-43c23.7,0,43,19.3,43,43S509.5,325.8,485.8,325.8z
					 M485.8,243.6c-21.6,0-39.1,17.6-39.1,39.1s17.6,39.1,39.1,39.1c21.6,0,39.1-17.6,39.1-39.1S507.4,243.6,485.8,243.6z"/>
			</g>
			<g>
				
					<rect x="340.2" y="284.1" transform="matrix(0.9943 0.1064 -0.1064 0.9943 32.6837 -37.5657)" fill="#7DCDD5" width="56.6" height="7.1"/>
			</g>
			<path fill="#7DCDD5" d="M485.3,276l-18-39.1l-3.3-8.4l0,0l0,0l-3.6-9.3l-6-16.9l-6.7,2.4l2.1,5.8h-74.6l-2-6.5l-6.7,2.1l2.3,7.5
				l-32.7,61.8c-0.9,1.7-0.3,3.9,1.5,4.8c1.7,0.9,3.9,0.3,4.8-1.5l29.5-55.6l19.8,63.5c-0.9,1.1-1.4,2.5-1.4,4.1
				c0,3.5,2.9,6.4,6.4,6.4c3.5,0,6.4-2.9,6.4-6.4c0-0.4,0-0.9-0.1-1.3l55.8-55.4l2.2,5.6c0,0.1,0.1,0.1,0.1,0.2l18,39.2
				c0.6,1.3,1.9,2.1,3.2,2.1c0.5,0,1-0.1,1.5-0.3C485.4,279.9,486.2,277.8,485.3,276z M398.3,284l-20.7-66.5h74.8l1.6,4.1l1.2,3.3
				l0.1,0l0.7,1.8L398.3,284z"/>
			<g>
				<path fill="#F3B94C" d="M477,219.1c-1.1,0-2.1-0.6-2.5-1.7c-0.6-1.4,0.1-3,1.5-3.6c0.3-0.1,7.4-3.3,7.4-11
					c0-1.5-0.2-3.5-1.4-4.6c-1.1-1-2.7-0.9-2.7-0.9c-0.1,0-0.1,0-0.2,0h-18.8c-1.5,0-2.7-1.2-2.7-2.7s1.2-2.7,2.7-2.7H479
					c0.8-0.1,4-0.1,6.7,2.3c2.2,2,3.3,4.9,3.3,8.7c0,11.4-10.3,15.9-10.8,16C477.7,219,477.4,219.1,477,219.1z"/>
			</g>
			<g>
				<path fill="#EDF0F1" d="M443.8,191.8l4.8,12.5c1.2-1.1,2.9-1.9,5-1.9c0,0,0.1,0,0.1,0l-2-5.1h10v-5.5H443.8z"/>
			</g>
			<g>
				<path fill="#E64D3C" d="M384.5,195.1c0,0,1.7-5-9.6-5.1c-7.9,0-18-3-21.4-4.2c-2.6-0.9-8.5,1.5-3.5,7.3s9.4,6,14.8,5.6
					C370.1,198.3,384.6,196.7,384.5,195.1z"/>
				<path fill="#E64D3C" d="M361.7,199.3L361.7,199.3c-3.7,0-7.7-0.7-12.1-5.9c-2.4-2.8-2.2-4.6-1.7-5.7c1-2.2,4-2.8,5.7-2.2
					c4.1,1.4,13.8,4.1,21.3,4.1c4.9,0,8.1,1,9.4,2.8c0.9,1.2,0.6,2.5,0.5,2.7c-0.4,2.4-19.9,4-20.1,4
					C363.5,199.2,362.6,199.3,361.7,199.3z M352.2,186c-1.3,0-3,0.6-3.6,1.9c-0.6,1.3,0,3,1.6,4.9c4,4.7,7.5,5.6,11.5,5.6h0
					c0.8,0,1.7,0,2.9-0.1c7.3-0.6,18.8-2.2,19.4-3.3c0-0.1,0-0.1,0-0.1c0,0,0.3-1-0.4-2.1c-0.8-1.1-3-2.5-8.8-2.5
					c-7.6,0-17.4-2.8-21.6-4.2C353,186.1,352.6,186,352.2,186z"/>
			</g>
			<path fill="#F3B94C" d="M396.6,276.5c-1.6,0-3.2,0.3-4.6,0.8l-51.1,0.2c-1.3-1-2.9-1.6-4.7-1.6c-4.3,0-7.9,3.5-7.9,7.9
				c0,4.3,3.5,7.9,7.9,7.9c1,0,1.9-0.2,2.8-0.5l50.8,11.8c2,1.1,4.3,1.7,6.7,1.7c7.8,0,14.1-6.3,14.1-14.1S404.4,276.5,396.6,276.5z
				 M333.1,283.8c0-1.7,1.4-3.1,3.1-3.1s3.1,1.4,3.1,3.1c0,1.7-1.4,3.1-3.1,3.1S333.1,285.5,333.1,283.8z M341.1,290
				c1.8-1.4,3-3.7,3-6.2c0-1.8-0.6-3.4-1.6-4.7l46.3-0.2c-3.8,2.5-6.3,6.8-6.3,11.7c0,3.9,1.6,7.4,4.2,10L341.1,290z M396.6,301.5
				c-6,0-10.9-4.9-10.9-10.9s4.9-10.9,10.9-10.9c6,0,10.9,4.9,10.9,10.9S402.6,301.5,396.6,301.5z"/>
			<g>
				<path fill="#02768F" d="M374.4,206.8l-7.3,2.4c-0.9,0.3-1.8-0.2-2.1-1l-0.3-0.9c-0.3-0.9,0.2-1.8,1-2.1l7.3-2.4
					c0.9-0.3,1.8,0.2,2.1,1l0.3,0.9C375.7,205.6,375.3,206.5,374.4,206.8z"/>
			</g>
			<g>
				<path fill="#02768F" d="M455.5,205.2l-6.9,1.3c-0.8,0.2-1.6-0.4-1.7-1.2l-0.2-0.8c-0.2-0.8,0.4-1.6,1.2-1.7l6.9-1.3
					c0.8-0.2,1.6,0.4,1.7,1.2l0.2,0.8C456.9,204.3,456.3,205.1,455.5,205.2z"/>
			</g>
			<g>
				<path fill="#F3B94C" d="M485.8,291.7c-4.3,0-7.9-3.5-7.9-7.9c0-4.3,3.5-7.9,7.9-7.9c4.3,0,7.9,3.5,7.9,7.9
					C493.6,288.1,490.1,291.7,485.8,291.7z M485.8,280.7c-1.7,0-3.1,1.4-3.1,3.1c0,1.7,1.4,3.1,3.1,3.1s3.1-1.4,3.1-3.1
					C488.9,282.1,487.5,280.7,485.8,280.7z"/>
			</g>
		</g>
		<g>
			<path fill="#F3B94C" d="M297.3,243.8c0.5-0.5,1-1,1.6-1.5h-63.3c-1.4,0-2.6,1.1-2.6,2.6s1.1,2.6,2.6,2.6H294
				C295.1,246.1,296.1,244.9,297.3,243.8z"/>
		</g>
		<g>
			<path fill="#F3B94C" d="M283.1,267.7h-52.4c-1.4,0-2.6,1.1-2.6,2.6s1.1,2.6,2.6,2.6h51.1C282.2,271.1,282.6,269.4,283.1,267.7z"
				/>
		</g>
		<g>
			<path fill="#F3B94C" d="M288.7,255h-96c-1.4,0-2.6,1.1-2.6,2.6s1.1,2.6,2.6,2.6h93.3C286.9,258.3,287.8,256.6,288.7,255z"/>
		</g>
	</g>
</g>
<g>
	<path fill="#FFFFFF" d="M335.9,385.9H334c-0.4,0-0.5-0.2-0.5-0.5v-0.6c0-0.3,0.2-0.4,0.5-0.4h1.8v-4.3c0-0.3,0.2-0.5,0.5-0.5l0.7,0
		c0.3,0,0.5,0.2,0.5,0.5v4.3h5.4c0.3,0,0.5,0.2,0.5,0.5v0.5c0,0.3-0.2,0.5-0.5,0.5h-5.4v9.9c0,1.8,0.2,2.8,2,2.8
		c1.4,0,3-0.7,3.5-1.1c0.4-0.2,0.5,0,0.6,0.2l0.3,0.5c0.2,0.3,0.1,0.5-0.1,0.7c-0.6,0.5-2.3,1.4-4.5,1.4c-3.2,0-3.5-1.9-3.5-4.4
		V385.9z"/>
	<path fill="#FFFFFF" d="M355.3,389.9c1.8,0,3.5,0.5,3.9,0.7c0-3.4-0.4-5.1-3.4-5.1c-2.6,0-4.3,0.9-4.7,1.1c-0.3,0.1-0.5,0-0.6-0.3
		l-0.2-0.5c-0.1-0.4,0-0.5,0.2-0.6c0.1-0.1,2.1-1.2,5.3-1.2c4.8,0,5,2.8,5,6.8v8.7c0,0.3-0.2,0.5-0.5,0.5h-0.5
		c-0.3,0-0.4-0.2-0.5-0.4l-0.2-1.4c-1,0.9-2.9,2.2-5.4,2.2c-2.9,0-5.1-2-5.1-5.2C348.7,392.2,351.2,389.9,355.3,389.9z M354,398.9
		c2.4,0,4.4-1.4,5.2-2.4v-4.3c-0.5-0.2-2.1-0.8-3.9-0.8c-3,0-5,1.5-5,3.8C350.3,397.4,351.9,398.9,354,398.9z"/>
	<path fill="#FFFFFF" d="M368.6,384.9c0-0.3,0.2-0.5,0.5-0.5h0.4c0.3,0,0.4,0.2,0.5,0.4l0.2,1.7c0.5-0.5,2.7-2.5,5.8-2.5
		c4.4,0,6.3,2.8,6.3,7.1v8.3c0,0.3-0.2,0.5-0.5,0.5H381c-0.3,0-0.5-0.2-0.5-0.5v-8.3c0-3.6-1.7-5.5-4.6-5.5c-3.2,0-5.4,2.5-5.6,2.7
		v11.1c0,0.3-0.2,0.5-0.5,0.5H369c-0.3,0-0.4-0.2-0.4-0.5V384.9z"/>
	<path fill="#FFFFFF" d="M396.4,384c3,0,4.8,1.6,4.8,1.6v-12.4c0-0.3,0.2-0.5,0.5-0.5h0.7c0.2,0,0.5,0.2,0.5,0.5v26.3
		c0,0.3-0.2,0.5-0.5,0.5H402c-0.3,0-0.5-0.2-0.5-0.5l-0.1-1.4c-0.5,0.5-2.4,2.3-5.4,2.3c-4.1,0-7.2-3.6-7.2-8.2
		C388.7,387.6,391.9,384,396.4,384z M396,398.8c3.4,0,5.1-2.6,5.1-2.8v-8.7c0,0-1.8-1.6-4.6-1.6c-3.6,0-6.1,2.8-6.1,6.5
		C390.4,395.8,392.8,398.8,396,398.8z"/>
	<path fill="#FFFFFF" d="M417.3,384c4.1,0,7.1,3,7.1,7.1c0,0.6,0,1.5-0.6,1.5h-12.4c0.2,3.4,2.6,6.2,6.1,6.2c2.1,0,3.7-0.8,4.6-1.4
		c0.4-0.2,0.5-0.3,0.7,0l0.4,0.5c0.1,0.2,0.1,0.4-0.2,0.6c-0.8,0.8-3.2,1.8-5.7,1.8c-4.8,0-7.7-3.7-7.7-8.2
		C409.6,387.7,412.5,384,417.3,384z M422.6,391.3c0-3-1.8-5.7-5.3-5.7c-3.4,0-5.7,2.5-5.9,5.7H422.6z"/>
	<path fill="#FFFFFF" d="M430.9,384.9c0-0.3,0.2-0.5,0.5-0.5h0.5c0.2,0,0.4,0.2,0.4,0.4l0.2,1.7c0.4-0.6,2.2-2.5,5.4-2.5
		c2.4,0,4.1,1,5.1,2.8c0.5-0.6,2.7-2.8,5.8-2.8c4.3,0,6.1,2.8,6.1,7.1v8.3c0,0.3-0.2,0.5-0.5,0.5h-0.8c-0.2,0-0.4-0.2-0.4-0.5v-8.3
		c0-3.6-1.6-5.5-4.5-5.5c-2.9,0-4.6,2-5.1,2.7c0.2,0.8,0.4,1.8,0.4,2.8v8.3c0,0.3-0.2,0.5-0.5,0.5h-0.7c-0.3,0-0.5-0.2-0.5-0.5v-8.3
		c0-3.6-1.6-5.5-4.5-5.5c-3.2,0-4.9,2.4-5.1,2.7v11.1c0,0.3-0.2,0.5-0.5,0.5h-0.8c-0.3,0-0.4-0.2-0.4-0.5V384.9z"/>
</g>
</svg>
