<?xml version="1.0" encoding="utf-8"?>
<!-- Generator: Adobe Illustrator 18.1.0, SVG Export Plug-In . SVG Version: 6.00 Build 0)  -->
<!DOCTYPE svg PUBLIC "-//W3C//DTD SVG 1.1//EN" "http://www.w3.org/Graphics/SVG/1.1/DTD/svg11.dtd">
<svg version="1.1" id="Layer_1" xmlns="http://www.w3.org/2000/svg" xmlns:xlink="http://www.w3.org/1999/xlink" x="0px" y="0px"
	 viewBox="0 0 530 530" enable-background="new 0 0 530 530" xml:space="preserve">
<g>
	<rect y="-1" fill="#394F63" width="530" height="530"/>
	<g>
		<ellipse fill="#2D3F50" cx="206" cy="341.9" rx="54.3" ry="3.4"/>
		<ellipse fill="#2D3F50" cx="367.4" cy="341.9" rx="54.3" ry="3.4"/>
		<g>
			<g>
				
					<rect x="230.6" y="199.3" transform="matrix(0.3175 0.9483 -0.9483 0.3175 355.3864 -88.373)" fill="#EDF0F1" width="17" height="6.7"/>
			</g>
			<g>
				<path fill="#EDF0F1" d="M204.3,341.6c-29,0-52.6-23.6-52.6-52.6c0-29,23.6-52.6,52.6-52.6c29,0,52.6,23.6,52.6,52.6
					C256.9,318,233.3,341.6,204.3,341.6z M204.3,243.1c-25.3,0-45.9,20.6-45.9,45.9s20.6,45.9,45.9,45.9c25.3,0,45.9-20.6,45.9-45.9
					S229.6,243.1,204.3,243.1z"/>
			</g>
			<g>
				<path fill="#E64D3C" d="M204.3,335c-25.4,0-46-20.6-46-46c0-25.4,20.6-46,46-46c25.4,0,46,20.6,46,46
					C250.3,314.4,229.7,335,204.3,335z M204.3,247.2c-23.1,0-41.8,18.8-41.8,41.8s18.8,41.8,41.8,41.8c23.1,0,41.8-18.8,41.8-41.8
					S227.4,247.2,204.3,247.2z"/>
			</g>
			<g>
				<path fill="#EDF0F1" d="M364.1,341.6c-29,0-52.6-23.6-52.6-52.6c0-29,23.6-52.6,52.6-52.6c29,0,52.6,23.6,52.6,52.6
					C416.7,318,393.1,341.6,364.1,341.6z M364.1,243.1c-25.3,0-45.9,20.6-45.9,45.9s20.6,45.9,45.9,45.9c25.3,0,45.9-20.6,45.9-45.9
					S389.4,243.1,364.1,243.1z"/>
			</g>
			<g>
				<path fill="#E64D3C" d="M364.1,335c-25.4,0-46-20.6-46-46c0-25.4,20.6-46,46-46c25.4,0,46,20.6,46,46
					C410.2,314.4,389.5,335,364.1,335z M364.1,247.2c-23.1,0-41.8,18.8-41.8,41.8s18.8,41.8,41.8,41.8c23.1,0,41.8-18.8,41.8-41.8
					S387.2,247.2,364.1,247.2z"/>
			</g>
			<g>
				
					<rect x="208.5" y="290.4" transform="matrix(0.9943 0.1064 -0.1064 0.9943 32.649 -23.7269)" fill="#7DCDD5" width="60.5" height="7.6"/>
			</g>
			<path fill="#7DCDD5" d="M363.7,281.8L344.5,240l-3.5-9l0,0l0,0l-3.8-9.9l-6.4-18.1l-7.1,2.5l2.2,6.2h-79.7l-2.2-7l-7.2,2.2l2.5,8
				l-35,66.1c-1,1.8-0.3,4.1,1.6,5.1c1.8,1,4.1,0.3,5.1-1.6l31.5-59.4l21.2,67.9c-1,1.2-1.5,2.7-1.5,4.3c0,3.8,3.1,6.9,6.9,6.9
				s6.9-3.1,6.9-6.9c0-0.5,0-0.9-0.1-1.4l59.6-59.3l2.3,6c0,0.1,0.1,0.1,0.1,0.2l19.2,41.9c0.6,1.4,2,2.2,3.4,2.2
				c0.5,0,1.1-0.1,1.6-0.3C363.7,286,364.5,283.7,363.7,281.8z M270.6,290.3l-22.2-71.1h79.9l1.7,4.4l1.2,3.5l0.1,0l0.8,2
				L270.6,290.3z"/>
			<g>
				<path fill="#F3B94C" d="M354.8,220.9c-1.1,0-2.2-0.7-2.7-1.8c-0.6-1.5,0.1-3.2,1.6-3.8c0.3-0.1,7.9-3.5,7.9-11.7
					c0-1.6-0.3-3.7-1.5-4.9c-1.2-1.1-2.8-1-2.9-1c-0.1,0-0.2,0-0.3,0h-20.1c-1.6,0-2.9-1.3-2.9-2.9s1.3-2.9,2.9-2.9h20
					c0.9-0.1,4.3-0.1,7.1,2.5c2.3,2.1,3.5,5.2,3.5,9.3c0,12.2-11.1,17-11.5,17.2C355.5,220.9,355.1,220.9,354.8,220.9z"/>
			</g>
			<g>
				<path fill="#EDF0F1" d="M319.2,191.8l5.2,13.3c1.3-1.2,3.1-2,5.4-2c0,0,0.1,0,0.1,0l-2.1-5.4h10.7v-5.9H319.2z"/>
			</g>
			<g>
				<path fill="#E64D3C" d="M255.9,195.3c0,0,1.8-5.4-10.2-5.4c-8.5,0-19.3-3.2-22.9-4.5c-2.8-1-9.1,1.6-3.8,7.8
					c5.3,6.2,10,6.5,15.8,6C240.5,198.8,256,197,255.9,195.3z"/>
				<path fill="#E64D3C" d="M231.5,199.8L231.5,199.8c-3.9,0-8.2-0.8-12.9-6.3c-2.5-2.9-2.4-5-1.9-6.1c1.1-2.3,4.3-2.9,6.1-2.3
					c4.4,1.5,14.8,4.4,22.8,4.4c5.3,0,8.7,1,10.1,3c0.9,1.3,0.7,2.6,0.6,2.9c-0.4,2.6-21.3,4.2-21.5,4.2
					C233.4,199.7,232.4,199.8,231.5,199.8z M221.4,185.6c-1.4,0-3.2,0.6-3.9,2.1c-0.6,1.4,0,3.2,1.7,5.2c4.3,5,8,6,12.3,6h0
					c0.9,0,1.9,0,3.2-0.1c7.9-0.6,20.1-2.3,20.8-3.5c0-0.1,0-0.1,0-0.1c0,0,0.3-1.1-0.5-2.2c-0.9-1.2-3.2-2.6-9.4-2.7
					c-8.1,0-18.6-2.9-23.1-4.5C222.2,185.7,221.8,185.6,221.4,185.6z"/>
			</g>
			<path fill="#F3B94C" d="M268.8,282.4c-1.7,0-3.4,0.3-4.9,0.8l-54.6,0.2c-1.4-1-3.1-1.7-5-1.7c-4.6,0-8.4,3.8-8.4,8.4
				s3.8,8.4,8.4,8.4c1.1,0,2.1-0.2,3-0.6l54.3,12.6c2.1,1.2,4.6,1.8,7.2,1.8c8.3,0,15-6.7,15-15
				C283.9,289.1,277.1,282.4,268.8,282.4z M201,290.1c0-1.9,1.5-3.4,3.4-3.4s3.4,1.5,3.4,3.4s-1.5,3.4-3.4,3.4S201,292,201,290.1z
				 M209.5,296.7c2-1.5,3.2-3.9,3.2-6.6c0-1.9-0.6-3.6-1.7-5.1l49.5-0.2c-4,2.7-6.7,7.3-6.7,12.5c0,4.2,1.7,8,4.5,10.7L209.5,296.7z
				 M268.8,309.1c-6.4,0-11.7-5.2-11.7-11.7s5.2-11.7,11.7-11.7c6.4,0,11.7,5.2,11.7,11.7S275.3,309.1,268.8,309.1z"/>
			<g>
				<path fill="#02768F" d="M245.2,207.8l-8,2.6c-0.9,0.3-1.8-0.2-2.1-1l-0.4-1.1c-0.3-0.9,0.2-1.8,1-2.1l8-2.6
					c0.9-0.3,1.8,0.2,2.1,1l0.4,1.1C246.5,206.6,246,207.5,245.2,207.8z"/>
			</g>
			<g>
				<path fill="#02768F" d="M331.9,206.1l-7.5,1.4c-0.8,0.2-1.6-0.4-1.7-1.2l-0.2-1.1c-0.2-0.8,0.4-1.6,1.2-1.7l7.5-1.4
					c0.8-0.2,1.6,0.4,1.7,1.2l0.2,1.1C333.2,205.2,332.7,206,331.9,206.1z"/>
			</g>
			<g>
				<path fill="#F3B94C" d="M364.1,298.5c-4.6,0-8.4-3.8-8.4-8.4s3.8-8.4,8.4-8.4c4.6,0,8.4,3.8,8.4,8.4S368.8,298.5,364.1,298.5z
					 M364.1,286.8c-1.9,0-3.4,1.5-3.4,3.4s1.5,3.4,3.4,3.4c1.9,0,3.4-1.5,3.4-3.4S366,286.8,364.1,286.8z"/>
			</g>
		</g>
		<g>
			<path fill="#F3B94C" d="M162.6,247.3c0.5-0.5,1.1-1.1,1.7-1.6H96.6c-1.5,0-2.7,1.2-2.7,2.7c0,1.5,1.2,2.7,2.7,2.7h62.5
				C160.3,249.8,161.4,248.5,162.6,247.3z"/>
		</g>
		<g>
			<path fill="#F3B94C" d="M147.5,272.9h-56c-1.5,0-2.7,1.2-2.7,2.7s1.2,2.7,2.7,2.7h54.6C146.5,276.5,146.9,274.7,147.5,272.9z"/>
		</g>
		<g>
			<path fill="#F3B94C" d="M153.5,259.3H50.9c-1.5,0-2.7,1.2-2.7,2.7c0,1.5,1.2,2.7,2.7,2.7h99.8
				C151.5,262.9,152.5,261.1,153.5,259.3z"/>
		</g>
	</g>
</g>
</svg>
