<?xml version="1.0" encoding="utf-8"?>
<!-- Generator: Adobe Illustrator 18.1.0, SVG Export Plug-In . SVG Version: 6.00 Build 0)  -->
<!DOCTYPE svg PUBLIC "-//W3C//DTD SVG 1.1//EN" "http://www.w3.org/Graphics/SVG/1.1/DTD/svg11.dtd">
<svg version="1.1" id="Layer_1" xmlns="http://www.w3.org/2000/svg" xmlns:xlink="http://www.w3.org/1999/xlink" x="0px" y="0px"
	 viewBox="0 0 500 500" enable-background="new 0 0 500 500" xml:space="preserve">
<rect x="0.5" fill="#F2EFDC" width="499.5" height="499.5"/>
<rect x="-513.2" fill="#17A186" width="499.5" height="499.5"/>
<g>
	<g>
		<path fill="#F0EDE5" d="M-117.8,364.6h-295.5c-1.6,0-3-1.4-3-3V138c0-1.6,1.4-3,3-3h295.5c1.6,0,3,1.4,3,3v223.6
			C-114.6,363.2-116,364.6-117.8,364.6z"/>
	</g>
	<g>
		<g>
			<path fill="#F26350" d="M-173.8,268.6l-6.5,6.9c-1.4,1.5-3.8,1.5-5.5-0.1c-1.6-1.5-1.9-4-0.5-5.5l6.5-6.9l-7.5-7
				c-1.7-1.6-1.9-4.1-0.5-5.6c1.4-1.5,4-1.5,5.6,0.1l7.5,7l6.5-6.9c1.4-1.5,3.9-1.4,5.5,0.1c1.6,1.6,1.9,4,0.5,5.5l-6.5,6.9l7.5,7
				c1.8,1.6,1.9,4.1,0.5,5.6c-1.5,1.5-4,1.5-5.6-0.1L-173.8,268.6z"/>
		</g>
	</g>
	<g>
		<path fill="#7CCFD6" d="M-391.8,265.6v81h255v-62.9c0,0-32.5,12.2-49.6,12.9c-11.2,0.4-26.4-15.2-35.2-25.8
			c-4.6-5.4-11.5-1.2-20.2-2.9c-9.8-1.9-14.9,2.2-19.1,7.9c-4.2,5.6-14.9-1.6-20.5,3c-3.8,3.1-5,16.1-12,15.6
			c-13-0.9,0.1-21.1-3.1-26.4c-2.7-4.5-25.4,10-34.6,8.8c-3.1-0.4,11.5-13.9,2.2-15.9c-15.1-3.3-13.4-11.3-31.8-15.6
			c-18.4-4.4-18.2-2.5-27.2-3C-397,242-391.8,265.6-391.8,265.6z"/>
	</g>
	<path fill="#FFFFFF" d="M-184.4,213.2l-5.2-34.6l53.6-15.2l-1.8-6l-52.9,15l-3.2-21.6l-6.1,1l3.4,22.4l-70.2,19.9l-2.5-16.6
		l40.4-19.6l-2.8-5.6l-38.6,18.8l-2.9-18.6l-6.1,1l3.1,20.5l-78.6,38.2l-6.9-28.5l57.5-28l-2.8-5.6l-56.4,27.4l-6.1-25.4l-6.1,1.5
		l6.5,26.7l-30.5,14.9l2.8,5.6l29.4-14.2l6.9,28.5l-39,19l2.8,5.6l5.5-2.7l0.1,1.4l255-23.1l-0.6-6.2L-184.4,213.2z M-195.6,180.4
		l5.1,33.5l-72.2,6.5l-3-20L-195.6,180.4z M-275.2,180.4l6.1,40.5l-109.9,10L-275.2,180.4z"/>
	<g>
		<path fill="#F3B94C" d="M-286.4,246.1c-0.8,0-1.5,0-2.1-0.1c-1.6-0.1-2.9-1.5-2.8-3.1s1.6-2.9,3.1-2.8c2.4,0.1,4.6,0,7-0.5
			c1.6-0.4,3.1,0.6,3.5,2.2s-0.6,3.1-2.2,3.5C-282,245.9-284.1,246.1-286.4,246.1z M-264.5,238c-1,0-1.9-0.5-2.5-1.4
			c-0.9-1.4-0.5-3.3,0.9-4.1c2.2-1.5,4.5-3.1,6.4-4.5c1.4-1,3.1-0.6,4.1,0.6c1,1.4,0.6,3.1-0.6,4.1c-1.9,1.4-4.2,3-6.6,4.6
			C-263.4,237.9-263.9,238-264.5,238z M-302.2,237c-1.1,0-2.1-0.6-2.6-1.6c-1-2.1-2-4.6-3-7.8c-0.5-1.5,0.4-3.2,2-3.8
			c1.5-0.5,3.2,0.4,3.8,2c0.9,2.9,1.8,5.1,2.6,7c0.8,1.5,0.1,3.2-1.4,4C-301.4,236.9-301.8,237-302.2,237z M-174.6,234.2
			c-1.4,0-2.6-1-2.9-2.5c-0.4-2.5-1-4.9-1.9-7c-0.6-1.5,0.2-3.3,1.8-3.8c1.5-0.6,3.2,0.2,3.8,1.7c1,2.5,1.6,5.2,2.1,8.1
			c0.2,1.6-0.9,3.1-2.5,3.4C-174.4,234.2-174.5,234.2-174.6,234.2z M-243.4,223.4c-1,0-2-0.5-2.5-1.4c-0.9-1.4-0.4-3.2,1-4.1
			c2.4-1.4,4.6-2.8,7-4c1.5-0.8,3.3-0.2,4,1.2c0.8,1.5,0.2,3.3-1.2,4c-2.3,1.1-4.5,2.5-6.6,3.9
			C-242.4,223.2-242.9,223.4-243.4,223.4z M-187.6,213.2c-0.5,0-1-0.1-1.5-0.4c-2-1.1-4.1-2-6.5-2.5c-1.6-0.4-2.6-2-2.2-3.5
			c0.4-1.6,1.9-2.6,3.5-2.2c3,0.6,5.8,1.7,8.1,3.1c1.4,0.8,1.9,2.6,1.1,4C-185.6,212.8-186.6,213.2-187.6,213.2z M-220.2,212.5
			c-1.2,0-2.4-0.8-2.9-2.1c-0.5-1.5,0.4-3.2,2-3.8c2.8-0.9,5.4-1.5,8-2c1.6-0.4,3.1,0.8,3.5,2.4c0.2,1.6-0.8,3.1-2.4,3.5
			c-2.4,0.5-4.9,1.1-7.4,1.9C-219.6,212.5-220,212.5-220.2,212.5z M-309.8,212.5c-1.2,0-2.5-0.9-2.9-2.1c-0.8-2.8-1.6-5.1-2.4-7.4
			c-0.5-1.5,0.2-3.3,1.8-3.8c1.5-0.5,3.2,0.2,3.8,1.7c0.9,2.2,1.6,4.8,2.5,7.8c0.5,1.6-0.5,3.2-2,3.6
			C-309.1,212.5-309.5,212.5-309.8,212.5z M-394.2,204c-0.4,0-0.8-0.1-1.1-0.2c-1.5-0.6-2.2-2.4-1.5-3.9c0-0.1,1.4-3.3,4.8-7.4
			c1-1.2,2.9-1.4,4.1-0.4s1.4,2.9,0.4,4.1c-2.8,3.2-3.9,5.9-3.9,5.9C-392,203.4-393.1,204-394.2,204z M-320.8,189.6
			c-0.9,0-1.6-0.4-2.2-1c-1.6-1.9-3.4-3.4-5.4-4.5c-1.4-0.9-1.9-2.6-1-4.1c0.9-1.4,2.6-1.9,4.1-1c2.4,1.5,4.6,3.4,6.6,5.6
			c1.1,1.2,1,3.1-0.2,4.1C-319.2,189.4-320,189.6-320.8,189.6z M-376.1,186.5c-1.1,0-2.1-0.6-2.6-1.6c-0.8-1.5-0.1-3.3,1.2-4
			c2.4-1.2,5-2.4,7.6-3.3c1.5-0.5,3.2,0.4,3.8,1.9c0.5,1.5-0.4,3.3-1.9,3.8c-2.4,0.8-4.7,1.8-6.9,2.9
			C-375.2,186.4-375.6,186.5-376.1,186.5z M-351.5,180.2c-1.6,0-2.9-1.2-3-2.8c-0.1-1.6,1.1-3,2.8-3.1c2.6-0.1,5.3-0.1,8.1,0
			c1.6,0.1,2.9,1.5,2.9,3.1c-0.1,1.6-1.5,3-3.1,2.9c-2.6-0.1-5.3-0.1-7.6,0C-351.4,180.2-351.5,180.2-351.5,180.2z"/>
	</g>
	<g>
		<path fill="#5A5D67" d="M-136.8,350.6h-257.5c-2.1,0-4-1.8-4-4V152.9c0-2.1,1.8-4,4-4h257.5c2.1,0,4,1.8,4,4v193.9
			C-132.9,348.9-134.6,350.6-136.8,350.6z M-390.4,342.8h249.6v-186h-249.6V342.8z"/>
	</g>
	<g opacity="5.000000e-02">
		<rect x="-265.2" y="135.2" fill="#696866" width="150.8" height="229.6"/>
	</g>
</g>
<path fill="none" stroke="#231F20" stroke-linecap="round" stroke-linejoin="round" stroke-miterlimit="10" d="M117.8-312.5
	c18.9-21.6,44.2-37.5,71.9-45.1c13.1-3.6,26.9-5.4,40.5-4.5c34.5,2.1,72.5,23.9,102.1,41.6"/>
<path fill="none" stroke="#231F20" stroke-linecap="round" stroke-linejoin="round" stroke-miterlimit="10" d="M117.8-312.5
	c18.2,18.5,47.9,30.9,73.6,34.4s52,0.2,77.1-6.2c11.9-3.1,23.6-7,34.6-12.5c11.9-6,22.8-14,32-23.5"/>
<path fill="none" stroke="#231F20" stroke-linecap="round" stroke-linejoin="round" stroke-miterlimit="10" d="M168.8-186.4
	c7,4.9,10.2,14,17.9,17c4.1,1.6,87.9,1.5,87.9,1.5"/>
<path fill="none" stroke="#231F20" stroke-linecap="round" stroke-linejoin="round" stroke-miterlimit="10" d="M120.4-309
	c34.2,31.8,56.5,76.2,61.5,122.6"/>
<path fill="none" stroke="#231F20" stroke-linecap="round" stroke-linejoin="round" stroke-miterlimit="10" d="M240.8-190
	c10.8-42.1,18.6-78.9,25.4-121.9"/>
<path fill="none" stroke="#231F20" stroke-linecap="round" stroke-linejoin="round" stroke-miterlimit="10" d="M118.9-312.5
	c74.5,3,139,1.6,215-6.6"/>
<path fill="none" stroke="#231F20" stroke-linecap="round" stroke-linejoin="round" stroke-miterlimit="10" d="M224.2-187.9
	c0,0,7.1-60.6,5.9-89.5"/>
<path fill="none" stroke="#231F20" stroke-linecap="round" stroke-linejoin="round" stroke-miterlimit="10" d="M175.9-311.1
	c18.5,41.1,10.9,80.1,21.6,124"/>
<path fill="none" stroke="#231F20" stroke-linecap="round" stroke-linejoin="round" stroke-miterlimit="10" d="M185.2-169.4
	c1.6,2.8,3.1,5.5,4.8,8.2c0.4,0.5,0.6,1.1,1.2,1.5c0.5,0.4,1.2,0.4,1.9,0.4c25.9,0.1,51.8,0.4,77.6,0.5l13.4-31
	c0,0-76.6,2.9-115.2,3.4"/>
<path fill="none" stroke="#231F20" stroke-linecap="round" stroke-linejoin="round" stroke-miterlimit="10" d="M157.4-310.8
	c0.1,0.1,0.2,0.4,0.2,0.5c9.8,15.9,19.4,31.7,29.1,47.6"/>
<path fill="none" stroke="#231F20" stroke-linecap="round" stroke-linejoin="round" stroke-miterlimit="10" d="M187.4-263.2
	c1.6-16,4.1-31.9,7.5-47.6"/>
<path fill="none" stroke="#231F20" stroke-linecap="round" stroke-linejoin="round" stroke-miterlimit="10" d="M244.6-311.9
	c3.2,16,7.2,30.1,12.6,45.6"/>
<path fill="none" stroke="#231F20" stroke-linecap="round" stroke-linejoin="round" stroke-miterlimit="10" d="M257.5-263.2
	c7.1-11.9,31.4-51.8,31.4-51.8"/>
<path fill="none" stroke="#231F20" stroke-linecap="round" stroke-linejoin="round" stroke-miterlimit="10" d="M280.2-189.6
	c8.4-0.2,16.8-0.5,25.1-0.8"/>
<path fill="none" stroke="#231F20" stroke-linecap="round" stroke-linejoin="round" stroke-miterlimit="10" d="M304.4-190.9
	c3.4-8.9,8.5-16.9,13.6-24.9c0.8-1.1,1.8-2.5,3.1-2.4c1.8,0,2.8,2.3,2.5,4c-0.4,2.9-2.2,5.4-4.1,7.6c-5,6-9.9,12.1-14.9,18.1"/>
<path fill="none" stroke="#231F20" stroke-linecap="round" stroke-linejoin="round" stroke-miterlimit="10" d="M303-188.6
	c1.8,4.4,3.5,8.8,5.4,13c2.5,6.1,5,12.2,8.8,17.8c1.1,1.6,2.9,3.4,4.6,2.8c1.4-0.4,2.1-2,2-3.5c-0.1-1.5-0.9-2.7-1.6-4
	c-6-10.1-12-20.1-19.4-29.1"/>
<path fill="none" stroke="#231F20" stroke-linecap="round" stroke-linejoin="round" stroke-miterlimit="10" d="M176.6-309.6
	c-4-8.1-5.9-16.9-7.6-25.8c-0.8-3.8-1.2-7.8-0.6-11.5c0.8-3.8,2.9-7.5,6.4-9.1"/>
<path fill="none" stroke="#231F20" stroke-linecap="round" stroke-linejoin="round" stroke-miterlimit="10" d="M266.5-313.9
	c5.1-13.4,6-28.2,2.4-42c-0.1-0.4-0.2-0.8-0.6-0.8s-0.2,0.8,0,0.5"/>
<path fill="none" stroke="#231F20" stroke-linecap="round" stroke-linejoin="round" stroke-miterlimit="10" d="M220.8-275.5
	c2.5,6.4,6.5,12.1,9,18.5"/>
<path fill="none" stroke="#231F20" stroke-linecap="round" stroke-linejoin="round" stroke-miterlimit="10" d="M229.8-257
	c1.8-7.8,5.1-15,9.9-21.2"/>
<path fill="none" stroke="#231F20" stroke-linecap="round" stroke-linejoin="round" stroke-miterlimit="10" d="M333.9-320.1
	c5.8-8.6,15.3-14.9,25.6-15c6.1-0.1,12.2,2,18.4,1.8c8.5-0.4,16.2-5,23.5-9.4"/>
<path fill="none" stroke="#231F20" stroke-linecap="round" stroke-linejoin="round" stroke-miterlimit="10" d="M335.4-320.1
	c6.5-4.5,15-6.1,22.6-4c5.4,1.5,10.4,4.6,15.9,4.8c3.6,0.1,7.2-1.1,10.6-2.5c7.4-2.9,14.4-6.2,21.2-10.1c-3.4-0.3-6.8-0.5-10.1-0.8
	c2.2-3.4,4.5-6.8,6.8-10.1"/>
<path fill="none" stroke="#231F20" stroke-linecap="round" stroke-linejoin="round" stroke-miterlimit="10" d="M326-312.2
	c-34.2,31.8-56.5,76.2-61.5,122.6"/>
<g>
	<path fill="none" stroke="#221F1F" stroke-width="2" stroke-linecap="round" stroke-linejoin="round" stroke-miterlimit="10" d="
		M704.6,189c18.9-21.6,44.2-37.5,71.9-45.1c13.1-3.6,26.9-5.4,40.5-4.5c34.5,2.1,72.5,23.9,102.1,41.6"/>
	<path fill="none" stroke="#221F1F" stroke-width="2" stroke-linecap="round" stroke-linejoin="round" stroke-miterlimit="10" d="
		M704.6,189c18.2,18.5,47.9,30.9,73.6,34.4s52,0.2,77.1-6.2c11.9-3.1,23.6-7,34.6-12.5c11.9-6,22.8-14,32-23.5"/>
	<path fill="none" stroke="#221F1F" stroke-width="2" stroke-linecap="round" stroke-linejoin="round" stroke-miterlimit="10" d="
		M755.6,315.2c7,4.9,10.2,14,17.9,17c4.1,1.6,87.9,1.5,87.9,1.5"/>
	<path fill="none" stroke="#221F1F" stroke-width="2" stroke-linecap="round" stroke-linejoin="round" stroke-miterlimit="10" d="
		M708.2,192.5c34.2,31.8,56.5,76.2,61.5,122.6"/>
	<path fill="none" stroke="#221F1F" stroke-width="2" stroke-linecap="round" stroke-linejoin="round" stroke-miterlimit="10" d="
		M827.6,311.5c10.8-42.1,18.6-78.9,25.4-121.9"/>
	<path fill="none" stroke="#221F1F" stroke-width="2" stroke-linecap="round" stroke-linejoin="round" stroke-miterlimit="10" d="
		M705.8,189c74.5,3,139,1.6,215-6.6"/>
	<path fill="none" stroke="#221F1F" stroke-width="2" stroke-linecap="round" stroke-linejoin="round" stroke-miterlimit="10" d="
		M811.1,313.7c0,0,7.1-60.6,5.9-89.5"/>
	<path fill="none" stroke="#221F1F" stroke-width="2" stroke-linecap="round" stroke-linejoin="round" stroke-miterlimit="10" d="
		M762.8,190.4c18.5,41.1,10.9,80.1,21.6,124"/>
	<path fill="none" stroke="#221F1F" stroke-width="2" stroke-linecap="round" stroke-linejoin="round" stroke-miterlimit="10" d="
		M772.1,332.2c1.6,2.8,3.1,5.5,4.8,8.2c0.4,0.5,0.6,1.1,1.2,1.5c0.5,0.4,1.2,0.4,1.9,0.4c25.9,0.1,51.8,0.4,77.6,0.5l13.4-31
		c0,0-76.6,2.9-115.2,3.4"/>
	<path fill="none" stroke="#221F1F" stroke-width="2" stroke-linecap="round" stroke-linejoin="round" stroke-miterlimit="10" d="
		M744.2,190.8c0.1,0.1,0.2,0.4,0.2,0.5c9.8,15.9,19.4,31.8,29.1,47.6"/>
	<path fill="none" stroke="#221F1F" stroke-width="2" stroke-linecap="round" stroke-linejoin="round" stroke-miterlimit="10" d="
		M774.2,238.3c1.6-16,4.1-31.9,7.5-47.6"/>
	<path fill="none" stroke="#221F1F" stroke-width="2" stroke-linecap="round" stroke-linejoin="round" stroke-miterlimit="10" d="
		M831.5,189.7c3.2,16,7.2,30.1,12.6,45.6"/>
	<path fill="none" stroke="#221F1F" stroke-width="2" stroke-linecap="round" stroke-linejoin="round" stroke-miterlimit="10" d="
		M844.4,238.3c7.1-11.9,31.4-51.8,31.4-51.8"/>
	<path fill="none" stroke="#221F1F" stroke-width="2" stroke-linecap="round" stroke-linejoin="round" stroke-miterlimit="10" d="
		M867.1,311.9c8.4-0.2,16.8-0.5,25.1-0.8"/>
	<path fill="none" stroke="#221F1F" stroke-width="2" stroke-linecap="round" stroke-linejoin="round" stroke-miterlimit="10" d="
		M891.2,310.7c3.4-8.9,8.5-16.9,13.6-24.9c0.8-1.1,1.8-2.5,3.1-2.4c1.8,0,2.8,2.2,2.5,4c-0.4,2.9-2.2,5.4-4.1,7.6
		c-5,6-9.9,12.1-14.9,18.1"/>
	<path fill="none" stroke="#221F1F" stroke-width="2" stroke-linecap="round" stroke-linejoin="round" stroke-miterlimit="10" d="
		M889.9,312.9c1.8,4.4,3.5,8.8,5.4,13c2.5,6.1,5,12.2,8.8,17.8c1.1,1.6,2.9,3.4,4.6,2.8c1.4-0.4,2.1-2,2-3.5c-0.1-1.5-0.9-2.8-1.6-4
		c-6-10.1-12-20.1-19.4-29.1"/>
	<path fill="none" stroke="#221F1F" stroke-width="2" stroke-linecap="round" stroke-linejoin="round" stroke-miterlimit="10" d="
		M763.5,191.9c-4-8.1-5.9-16.9-7.6-25.8c-0.8-3.8-1.2-7.8-0.6-11.5c0.8-3.8,2.9-7.5,6.4-9.1"/>
	<path fill="none" stroke="#221F1F" stroke-width="2" stroke-linecap="round" stroke-linejoin="round" stroke-miterlimit="10" d="
		M853.4,187.7c5.1-13.4,6-28.3,2.4-42c-0.1-0.4-0.2-0.8-0.6-0.8s-0.2,0.8,0,0.5"/>
	<path fill="none" stroke="#221F1F" stroke-width="2" stroke-linecap="round" stroke-linejoin="round" stroke-miterlimit="10" d="
		M807.6,226c2.5,6.4,6.5,12.1,9,18.5"/>
	<path fill="none" stroke="#221F1F" stroke-width="2" stroke-linecap="round" stroke-linejoin="round" stroke-miterlimit="10" d="
		M816.6,244.5c1.8-7.8,5.1-15,9.9-21.2"/>
	<path fill="none" stroke="#221F1F" stroke-width="2" stroke-linecap="round" stroke-linejoin="round" stroke-miterlimit="10" d="
		M920.8,181.4c5.8-8.6,15.2-14.9,25.6-15c6.1-0.1,12.2,2,18.4,1.7c8.5-0.4,16.2-5,23.5-9.4"/>
	<path fill="none" stroke="#221F1F" stroke-width="2" stroke-linecap="round" stroke-linejoin="round" stroke-miterlimit="10" d="
		M922.2,181.4c6.5-4.5,15-6.1,22.6-4c5.4,1.5,10.4,4.6,15.9,4.8c3.6,0.1,7.2-1.1,10.6-2.5c7.4-2.9,14.4-6.2,21.2-10.1
		c-3.4-0.2-6.7-0.5-10.1-0.8c2.2-3.4,4.5-6.7,6.8-10.1"/>
	<path fill="none" stroke="#221F1F" stroke-width="2" stroke-linecap="round" stroke-linejoin="round" stroke-miterlimit="10" d="
		M912.9,189.3c-34.2,31.7-56.5,76.2-61.5,122.6"/>
	<path fill="none" stroke="#221F1F" stroke-width="2" stroke-linecap="round" stroke-linejoin="round" stroke-miterlimit="10" d="
		M910.1,189.3c-34.2,31.7-56.5,76.2-61.5,122.6"/>
	<path fill="none" stroke="#221F1F" stroke-width="2" stroke-linecap="round" stroke-linejoin="round" stroke-miterlimit="10" d="
		M702.8,189.4c14.1-14.6,29.1-29,47.9-36.7c15.8-6.6,33.1-8.1,50.2-9c18.8-0.9,37.9-1.1,56.1,3.5c23.9,6,45,19.8,65.5,33.4"/>
	<path fill="none" stroke="#221F1F" stroke-width="2" stroke-linecap="round" stroke-linejoin="round" stroke-miterlimit="10" d="
		M700.4,190.9c23.9,20.4,55.9,28.8,87.2,31.6c28.2,2.5,57,0.9,84.4-6.6c18.1-5,35.9-12.9,49.1-26.2"/>
	<path fill="none" stroke="#221F1F" stroke-width="2" stroke-linecap="round" stroke-linejoin="round" stroke-miterlimit="10" d="
		M756,315.2c8,8.3,15.1,17.5,20.9,27.5"/>
	<path fill="none" stroke="#221F1F" stroke-width="2" stroke-linecap="round" stroke-linejoin="round" stroke-miterlimit="10" d="
		M755.9,315.5c37.8-9.5,77.8-0.5,116.2-5.8"/>
	<path fill="none" stroke="#221F1F" stroke-width="2" stroke-linecap="round" stroke-linejoin="round" stroke-miterlimit="10" d="
		M778,343.8c26.6,0.3,53.2-1,79.8-3.9c1.5-0.1,3.1-0.4,4.4-1.4c1-0.8,1.5-2,2-3.1c3.8-8.9,6.1-18.3,7-27.9"/>
	<path fill="none" stroke="#221F1F" stroke-width="2" stroke-linecap="round" stroke-linejoin="round" stroke-miterlimit="10" d="
		M770.9,333.2c31.9-6.4,65.6,3.8,97.2-3.5"/>
	<path fill="none" stroke="#221F1F" stroke-width="2" stroke-linecap="round" stroke-linejoin="round" stroke-miterlimit="10" d="
		M869.6,312.5c6.5,0,13-0.1,19.5-0.1"/>
	<path fill="none" stroke="#221F1F" stroke-width="2" stroke-linecap="round" stroke-linejoin="round" stroke-miterlimit="10" d="
		M891.5,312.4c-0.8,3.9,0,7.8,1,11.5c1.8,6.5,4,12.9,6.6,19c0.9,2,1.9,4,3.4,5.4c1.6,1.5,4,2.2,6,1.4c2.8-1.1,3.5-4.8,2.9-7.8
		c-1.4-6.8-7.2-11.4-11.9-16.4c-4-4.2-7.4-9.1-9.9-14.5"/>
	<path fill="none" stroke="#221F1F" stroke-width="2" stroke-linecap="round" stroke-linejoin="round" stroke-miterlimit="10" d="
		M890,309.2c6-9.5,12-19,18-28.5c0.9-1.4,1.9-2.9,3.5-2.9c2.8-0.1,3.6,3.6,3.5,6.4c-0.2,4.5-0.9,9.4-3.8,12.9
		c-2.9,3.4-7.4,4.8-11.5,6.6c-4.6,2-9,4.9-12.8,8.2"/>
	<path fill="none" stroke="#221F1F" stroke-width="2" stroke-linecap="round" stroke-linejoin="round" stroke-miterlimit="10" d="
		M710.9,198.4c32.9,31.2,53.4,75.2,56.2,120.5"/>
	<path fill="none" stroke="#221F1F" stroke-width="2" stroke-linecap="round" stroke-linejoin="round" stroke-miterlimit="10" d="
		M705.1,191.5c71.1-8.5,144.6,8.9,214.2-8"/>
	<path fill="none" stroke="#221F1F" stroke-width="2" stroke-linecap="round" stroke-linejoin="round" stroke-miterlimit="10" d="
		M917.4,180.3c8.6-5.8,18.4-9.6,28.6-11.4c15.4-2.5,32.2-0.4,45.1-9.1c-3.2,3.6-6.8,6.9-10.5,9.9c3.9,1.7,8.1,2.9,12.4,3.2
		c-14.5,7-30.8,14.1-46.2,9.9c-8-2.3-16.1-7.4-23.8-4.2c-4,1.6-6.8,5.1-9.4,8.5"/>
	<path fill="none" stroke="#221F1F" stroke-width="2" stroke-linecap="round" stroke-linejoin="round" stroke-miterlimit="10" d="
		M814.2,223.5c1.9,29.2,0,58.6-5.5,87.4"/>
	<path fill="none" stroke="#221F1F" stroke-width="2" stroke-linecap="round" stroke-linejoin="round" stroke-miterlimit="10" d="
		M763.4,148.5c-4.5-0.2-8.4,3.8-9.5,8.1s-0.1,9,1,13.4c4.1,16.9,9,33.5,13.5,50.2c8.5,31.4,15.5,63.1,22.5,94.8"/>
	<path fill="none" stroke="#221F1F" stroke-width="2" stroke-linecap="round" stroke-linejoin="round" stroke-miterlimit="10" d="
		M830.6,313.2c2.4-21.5,4.8-43.1,9.4-64.2c6-27.5,15.6-54.1,19.2-82c1.1-8.9,1.1-19.4-5.9-25.1"/>
</g>
<g>
	<path fill="#2D2314" d="M236.5,392c-0.9-4.6-1.8-9.3-2.8-13.9c-0.2-1.1-1.9-0.6-1.7,0.5c0.9,4.6,1.8,9.3,2.8,13.9
		C235.1,393.6,236.7,393.1,236.5,392z"/>
	<path fill="#2D2314" d="M256.5,413.1c0.1-0.4,0.2-0.7,0.3-1.1c0.8-3.1,0.7-6.5,1-9.7c0.1-1.1-1.7-1.1-1.7,0c-0.2,3-0.1,6.3-0.9,9.2
		c0,0.1-0.1,0.2-0.1,0.3c-0.1-0.1-0.2-0.1-0.3-0.2c0-0.1,0-0.1,0-0.2c-0.1-3.7-3-5.4-6.3-3.6c-0.6,0.3-0.5,1.2,0,1.5
		c2,1.3,4,2.7,5.9,4.2c-0.7,1.3-1.5,2.4-2.2,3.8c-1.4,2.8-1.4,5.1-0.7,8.1c0.8,3.6,3.2,10.3,8.2,9c4.2-1,4.5-7.1,3.9-10.4
		C262.6,419.5,259.8,416,256.5,413.1z M253.1,424.9c-0.5-4.3,1.4-7,2.8-10.2c0.1,0.1,0.2,0.2,0.3,0.3c0.9,2.1,1.7,4.3,2.6,6.4
		c-0.5-0.3-1.4-0.1-1.3,0.7c0.3,3.3,0,6.5-0.8,9.7C254.6,430.2,253.2,426.2,253.1,424.9z M258.2,432.5c0.9-3.4,1.3-6.8,0.9-10.3
		c0.6,0.5,1.8,0.1,1.4-0.8c-0.3-0.7-0.6-1.4-0.9-2.2c0.1,0.1,0.2,0.3,0.3,0.4c0.4,0.7,0.8,1.6,1.2,2.7c-0.5-0.4-1.6,0-1.4,0.9
		c0.5,3.1,0.2,6.1-0.9,9.1C258.7,432.5,258.4,432.5,258.2,432.5z M261.7,429.3c-0.1,0.3-0.3,0.5-0.4,0.7c0.4-2.2,0.5-4.4,0.2-6.7
		C262.2,425.4,262.5,427.8,261.7,429.3z"/>
	<path fill="#2D2314" d="M357.2,424.9C357.2,424.9,357.2,424.9,357.2,424.9c0.9,0.2,1.5-0.8,0.9-1.4c-3.4-3.7-6.7-8.2-10.8-11.2
		c-4.7-3.6-14.8-3.8-14.9-11.3c0-0.5-0.3-0.7-0.7-0.8c0.7-2.5,0.9-5.2,0.2-7.9c-1.4-5.3-5.4-7.5-9.6-10.4c-0.9-0.6-1.8,0.9-0.9,1.5
		c3.8,2.6,7.5,4.6,8.8,9.3c0.9,3.4,0.2,6.8-1.3,9.9c-0.6-2.1-1.1-4.1-1.9-6.1c0.3,0.4,0.7,0.8,1.1,1.1c0.1,0.1,0.2,0.2,0.4,0.2
		c0,0.2,0.1,0.3,0.1,0.5c0.2,1.1,1.8,0.6,1.7-0.5c-0.4-2.7-1.5-5.1-3.3-7.2c-0.5-0.6-1.4,0-1.5,0.6c-0.1,0.7,0,1.5,0.1,2.2
		c-0.1-0.1-0.1-0.2-0.2-0.3c-0.9-1.6-2-2.5-3.1-3.4c0.3-0.4,0.2-0.9-0.3-1.1c-1.6-0.7-2.8-1.9-3.6-3.5c2,0.9,3.8,2.2,5.3,3.9
		c0.7,0.8,2-0.4,1.2-1.2c-1.6-1.8-3.6-3.2-5.8-4.2c-0.6-0.3-1.1,0.2-1.3,0.6c0,0-0.1-0.1-0.1-0.1c3-3.6,11.7-4.8,10-11.8
		c-0.8-3-3.6-5-5.9-6.7c-5.4-4-10.3-8.2-14.7-13.3c-0.1-0.1-0.2-0.2-0.3-0.2c6.7-4.3,13.9-8,19.2-14.1c0.7-0.8-0.5-2.1-1.2-1.2
		c-0.5,0.6-1,1.1-1.5,1.6c0,0,0,0-0.1,0c-3.8,2-7.6,3.9-11.4,5.9c-0.3-0.2-0.6-0.2-0.9-0.1c-4.9,2.4-9.6,5.1-14.1,8.1
		c-0.7,0.4-1.3,0.7-2,1.1c-5.1,2.9-10.2,6-14,10.5c-1.5,0.9-2.9,1.9-4.2,3c-0.5-0.5-1.2-0.8-2-1c-1-0.2-1.8,0-2.6,0.3
		c1.2-4.9,2.3-9.9,3.5-14.8c0.6,0.1,1.2-0.1,1.8-0.4c0.2-0.1,0.3-0.3,0.4-0.4c0.6,0,1.2-0.9,0.7-1.5c-0.1-0.1-0.2-0.2-0.3-0.3
		c0.9-0.1,1.7-0.1,2.6-0.2c1.1-0.1,1.1-1.8,0-1.7c-1,0.1-1.9,0.1-2.9,0.2c-0.2-0.5-0.4-1.1-0.8-1.5c4.3-18.4,8.6-36.9,12.9-55.3
		c0.3-0.5,0.7-1,1-1.5c1.6,0.2,3.2,0.4,4.7,0.6c1.1,0.1,1.6-1.5,0.5-1.7c-1.4-0.2-2.8-0.4-4.3-0.5c1-1.6,1.9-3.3,2.9-4.9
		c0.6-1.1,1.2-2.1,1.7-3.2c0,0,0,0,0,0.1c-0.4,1.1,1.3,1.5,1.7,0.5c0.5-1.6,1.1-4.1,1.5-7c2.9-6.5,5.3-13.1,7.3-19.9
		c0.6-0.1,1.3-0.2,1.9-0.3c3.8-0.2,7.5-1.3,7.8-5.7c0.3-3.9-2.3-4.4-5.3-4.2c0.1-0.6,0.3-1.2,0.5-1.8c2-4.1,3.9-8.2,5.6-12.4
		c-0.2,1.2-0.4,2.3-0.5,3.5c-0.2,1.1,1.5,1.6,1.7,0.5c0.6-3.8,1.2-7.7,1.7-11.5c1.1-3.2,2-6.4,2.7-9.8c4.5-21.5-1.7-43.3-11.9-62.3
		c-0.7-1.3-1.4-2.6-2.2-3.9c0.5-0.2,0.8-0.7,0.4-1.2c-3.3-4.9-6.8-9.8-10.5-14.5c-11.9-17.7-28.2-37.1-49.3-36.9
		c-1.8-0.4-3.7-0.7-5.6-0.9c0.9-1.4,0.8-3.2-0.5-4.6c-0.7-1.5-2.4-2.6-3.8-3.2c-2.1-0.9-4.2-1.1-6.4-0.9c-0.1-1.6-0.2-3.2-0.3-4.8
		c0.7-0.4,1.5-0.8,2.1-1.3c0.3-0.3,0.3-0.9,0-1.2c-0.7-0.6-1.5-1-2.3-1.2c0-0.7-0.1-1.4-0.1-2c-0.2-3.3-0.4-6.5-3.1-8.8
		c-0.7-0.6-1.6,0-1.5,0.8c0.5,3,0.8,6.1,0.9,9.1c-0.2,0-0.4,0-0.6,0.1c-1.5,0.3-3.7,1.5-3.6,3.3c0.1,1.8,2.4,2.2,3.9,2.2
		c0,0,0.1,0,0.1,0c-0.1,1.7-0.4,3.3-0.6,5c-0.1,0-0.3,0.1-0.4,0.1c-3.7-0.4-6.6,0.4-6.3,3.6c0,0.1,0,0.2,0.1,0.4
		c0,0.2,0,0.3,0.1,0.5c0.2,0.9,0.9,1.5,1.7,1.8c-0.1,0.1-0.2,0.2-0.3,0.3c-0.5,0.3-1,0.6-1.6,0.8c-0.2-0.2-0.5-0.2-0.9,0
		c-0.4,0.3-0.9,0.6-1.3,1c-10.1,3.4-19.6,10-27.3,16.3c-14.6,12-27.2,28.9-34.5,47.6c0.1-1-1.5-1.5-1.7-0.4
		c-0.3,2.5-0.6,5.1-0.9,7.6c-2.9,9.5-4.4,19.4-4,29.2c-0.3,10.5,1,21.1,3.7,31.2c1.8,6.9,4.4,13.2,7.3,19.3
		c-0.6,0.2-1.1,0.3-1.6,0.5c-0.6,0.2-0.9,1-0.4,1.5c0.4,0.4,0.9,0.9,1.3,1.3c0,0.1-0.1,0.2-0.1,0.3c-0.7,0-1.3,0.1-2,0.1
		c-0.5,0-0.8,0.4-0.9,0.9c0,0.6,0,1.1,0,1.5c-0.2,0.3-0.1,0.7,0.1,1c0,0,0,0,0,0c0.9,3.8,5,4,8.8,3.1c0.4,0.6,0.7,1.3,1.1,1.9
		c3.6,8.2,7.3,16.4,11.1,24.5c0.5,1.9,0.9,3.7,1.4,5.6c-1.5,0-3.1,0-4.6,0.1c-1.1,0-1.1,1.7,0,1.7c1.7,0,3.4,0,5.1-0.1
		c4.8,19.9,8.8,39.9,12.2,60c-0.2-0.1-0.3-0.1-0.5-0.1c-0.4-0.1-0.7,0.1-0.9,0.4c-0.5-0.1-1,0-1.4,0.2c-1.6,0.9-1,4,0.5,4.7
		c1,0.5,2.3,0.3,3.1-0.3c0.8,4.9,1.5,9.9,2.2,14.8c-2.9,0.4-5.5,1.3-7.5,3.1c-0.5,0.4-0.2,1.3,0.4,1.5c0.1,0,0.2,0,0.2,0
		c-0.1,0.3-0.1,0.6-0.1,0.9c-0.1,4,3.1,4.6,6.4,4.4c1.1,3.9,2.1,7.9,2.8,12c0.3,1.5,0.2,4.1,0.4,6.5c-1.6,0.4-3.1,1.2-4.3,2.5
		c-0.4,0.5-0.3,1.3,0.4,1.5c1.8,0.4,3.7,0.8,5.5,1.1c0.1,0.1,0.2,0.2,0.2,0.3c0.3,0.2,0.7,0.4,1.1,0.1c0.1-0.1,0.1-0.1,0.2-0.2
		c10.3,1.6,20.6,1.6,31,1.3c0.3,0.2,0.7,0.2,0.9,0c12.2-0.3,24.4-1,36.5,0.1c0.5,0,0.9-0.4,0.9-0.9c0-0.7,0-1.4,0-2.1
		c2.2-0.3,4.3-0.5,6.5-0.9c0.5-0.1,0.7-0.7,0.6-1.1c-0.4-2.4-2.9-2.8-5.9-2.3c0.5-0.4,0.3-1.5-0.6-1.5c-0.1,0-0.2,0-0.2,0
		c-0.1-2.4-0.2-4.8-0.3-7.1c0.3,0,0.6-0.2,0.7-0.6c0.7-2.8,0.9-5.7,0.5-8.6c0-0.4-0.3-0.6-0.5-0.7c0-1.3-0.1-2.7-0.2-4
		c0-0.4-0.4-0.7-0.7-0.8c0.1,0,0.2-0.1,0.3-0.1c2.9,0.4,4.9,1.5,4.9,4.1c0,1.1,1.6,1.1,1.7,0c0.2-1.9,0.2-4.6-0.7-6.5
		c0.1-0.1,0.2-0.2,0.3-0.2c-0.3,0.8,0.7,1.7,1.4,1c1.9-1.9,3.8-3.7,5.8-5.4c3.5-1.7,7.1-3.2,10.6-5.2c0.4-0.2,0.7-0.5,1.1-0.7
		c0,0.2,0,0.4,0.1,0.5c1.5,3.1,3.6,5.2,6.4,7.1c1.8,1.2,3.7,2.1,5.5,3.2c2.5,1.3,4.4,3.1,6,5.4c1.4,3.8,1,7-1.3,9.5
		c0.2,0.7-0.1,1.7,0.3,2.5c0.3,0.6,0.8,1,1.4,1.3c0.2,0.5,0.7,0.7,1.1,0.6c0.2,0.1,0.3,0.2,0.5,0.3c3.2,1.8,5.6,3.2,7.5,6.7
		c1.6,3,2.4,6.6,3.3,10c-0.3,0.4-0.5,0.9-0.8,1.3c-0.6,0.9,0.8,1.7,1.4,0.9c1.1,3.3,2.5,6.4,5.3,8.6c2.9,2.3,6.3,2.5,9.7,3.6
		c6.7,2.2,11.5,7.2,13.8,13.9c0.4,1,2,0.6,1.7-0.5c-0.2-0.6-0.5-1.2-0.7-1.8C360.8,430.3,358.8,427.1,357.2,424.9z M301.1,354.8
		C301.1,354.8,301.1,354.8,301.1,354.8C301.1,354.8,301.1,354.8,301.1,354.8C301.1,354.8,301.1,354.8,301.1,354.8z M300.7,355.8
		c0.9,2.5,2.3,4.8,4.1,6.6c-2.4-1.5-4.4-3.5-6-5.9c0.6-0.4,1.3-0.9,1.9-1.4C300.6,355.3,300.6,355.5,300.7,355.8z M302.7,353.6
		c0.1-0.1,0.2-0.2,0.3-0.3c0.1,0.3,0.3,0.6,0.7,0.7c0.5,0.5,1,1,1.4,1.5C304.3,354.9,303.5,354.2,302.7,353.6z M310.4,347.1
		c2.4-1.2,4.7-2.5,7.1-3.7c-3.4,2.4-7,4.5-10.6,6.7C308.1,349.1,309.3,348.1,310.4,347.1z M234.7,399.6c0-0.1,0-0.2-0.1-0.3
		c0.8,0.1,1.6,0.1,2.5,0.2C236.3,399.6,235.5,399.6,234.7,399.6z M204.7,392.8c0.1-0.2,0.1-0.3,0-0.6c-0.1-0.4-0.3-0.7-0.4-1.1
		c-0.5-2.2-0.9-4.5-1.2-6.7c1.2,3.2,2.4,6.4,3.6,9.5c0.3,0.8,1.5,0.7,1.7,0.1c0.1,0.2,0.1,0.5,0.2,0.7c-1.1-0.1-2.3-0.2-3.6-0.3
		C205,393.9,204.9,393.3,204.7,392.8z M206.4,387.3c0.4,1.4,0.9,2.8,1.3,4.2c-0.7-1.8-1.4-3.6-2.1-5.4
		C205.9,386.5,206.2,386.9,206.4,387.3z M309.2,250.3c-0.4,0.2-0.8,0.3-1.2,0.4c-0.1,0-0.3,0-0.4,0c0.3-0.9,0.5-1.8,0.7-2.6
		c0.1-0.2,0.2-0.4,0.3-0.6c0,0,0.1,0,0.1,0c0,0.3-0.1,0.6-0.1,0.9c-0.2,1.1,1.5,1.6,1.7,0.5c0.1-0.4,0.2-0.9,0.2-1.3
		c0.4,0,0.8,0,1.2,0c-0.2,1.3-0.6,2.1-1.1,2.6C310.2,250.2,309.7,250.3,309.2,250.3z M227.9,375.8c1.3,6,2.5,12.1,3.8,18.1
		c-0.7,0-1.5,0.1-2.2,0.1c-1.2-5.1-2-10.3-2.5-15.6c-0.1-1.1-1.8-1.1-1.7,0c0.3,2.8,0.6,5.6,1.1,8.4c-1.2-3.5-2.3-7.1-3.1-10.8
		c-0.2-0.7-1-0.8-1.4-0.4c-0.1-0.4-0.2-0.7-0.3-1.1c-0.1-0.2-0.2-0.4-0.4-0.5c4.4-0.2,8.8-0.4,13.2-0.5c-0.2,0.2-0.3,0.5-0.2,0.8
		c1.9,6.3,3.5,12.7,4.6,19.2c-1.3,0.1-2.6,0.1-3.8,0.2c-0.5,0-0.9,0-1.4,0.1c-1.3-6.2-2.6-12.3-3.9-18.5
		C229.3,374.3,227.7,374.7,227.9,375.8z M227.4,396.9C227.4,396.9,227.4,396.9,227.4,396.9c-0.1-0.4-0.2-0.7-0.3-1.1
		c0.2,0,0.5,0,0.7,0c0.2,0.4,0.3,0.8,0.5,1.2c0,0,0,0,0,0.1C228.1,397,227.8,397,227.4,396.9z M223.3,393.4
		c-1.3-6.2-2.6-12.4-3.8-18.7c-0.1-0.3-0.2-0.4-0.4-0.5c0.3,0,0.6,0,0.9,0c-0.3,0.2-0.4,0.5-0.3,0.9c2,6.3,3.8,12.7,5.3,19.1
		c-0.6,0-1.3,0-1.9,0.1C223.3,394,223.4,393.8,223.3,393.4z M215.5,375.9c0-0.5,0-0.9,0-1.4c0.9-0.1,1.9-0.1,2.8-0.2
		c-0.3,0.2-0.5,0.5-0.4,0.9c1.1,5.3,2.2,10.6,3.3,15.9c-1.7-4.9-3.1-9.9-4.1-15C216.9,375.2,215.9,375.3,215.5,375.9z M197.2,369.9
		c2.9,0.6,7.4-0.3,9.6-0.4c1.5-0.1,3.1-0.2,4.6-0.3c0,0.2,0.1,0.4,0.1,0.5c0.2,1.1,1.9,0.6,1.7-0.5c0-0.1,0-0.1,0-0.2
		c1.4-0.1,2.7-0.2,4.1-0.3c1.6,0.2,3.2,0.3,4.8,0.5c0.1,0.4,0.2,0.9,0.3,1.4c-3,0.4-6.1,0.7-9.1,0.9c-3.4,0.2-6.8,0.1-10.2-0.2
		c-2.1-0.2-4.2-0.5-6.3-0.8C196.8,370.3,197,370.1,197.2,369.9z M216.3,350.2c0-0.1,0-0.2,0-0.3c0-0.1,0-0.2,0.1-0.3
		c0.2,0,0.4,0,0.6,0c0.1,0.2,0.1,0.4,0,0.6C216.8,350.3,216.5,350.2,216.3,350.2z M154.6,189.1c0.4,8,1.4,15.9,2.9,23.7
		C154,206,154,197.2,154.6,189.1z M156.2,174.5c0.6-3.8,1.4-7.5,2.4-11.2c1.9-3,3.7-5.9,5.6-8.9c0.1-0.1,0.2-0.1,0.2-0.2
		c0.4-0.7,0.8-1.3,1.2-2c8.3-12.8,17.1-25.3,27.4-36.3c4.7-4.5,9.8-8.6,15.4-12c0.2,0,0.4,0,0.6-0.2c0.3-0.3,0.7-0.5,1-0.8
		c0.2-0.1,0.3-0.2,0.5-0.3c-9.7,9.7-18.9,20-26,31.7c-2.3,3.8-4.3,7.7-6.1,11.8c-0.5-0.2-1.3,0-1.3,0.7c-0.1,1.2-0.3,2.4-0.4,3.6
		c-4.7,12-7.1,24.9-7.8,37.8c-0.1,2.1-0.1,4.2-0.2,6.2c-0.1,2.3-0.2,4.6-0.3,6.9c-0.1,9.1,0.5,18.1,1.9,27
		c-4.9-19.9-7.8-40.4-8.3-61.1c0-0.2-0.1-0.3-0.2-0.5c0.1-2.1,0.3-4.2,0.5-6.2c0.1-1.1-1.6-1.1-1.7,0c-1.9,21.1-1.5,42.2,1.1,63.2
		C157.6,207.6,155.7,191.1,156.2,174.5z M300.5,258.2c-0.3,0-1.1-0.9-1.5-1.2c-0.2-0.7-0.4-1.4-0.7-2.2c0-0.2-0.1-0.3-0.2-0.4
		c-0.2-0.5-0.3-1-0.5-1.5c0.7,0,1.3,0,2-0.1c0.2,0,0.4,0,0.6,0C300.9,255,301.7,258,300.5,258.2z M257.9,348.3
		c-0.1-0.3-0.2-0.7-0.4-1c-0.5-0.8-1.5-0.4-1.6,0.3c-1.2-0.8-2.8-0.2-3.6,1c-3.8,0.2-7.6,0.5-11.4,0.7c0-5.6,0-11.2-0.1-16.8
		c1.1-0.1,2.3-0.1,3.4-0.2c-0.6,0.8,0.5,1.8,1.3,1.1c2-1.8,7.3-1.5,9.8-0.9c1.5,0.3,2.9,1.1,4.4,1.5c0.3,0.1,0.5,0.1,0.8,0.1
		c-0.6,4.7-1.3,9.4-2,14.2C258.3,348.3,258.1,348.3,257.9,348.3z M256.1,350.2c-0.2,0.6-0.7,0.9-1.5,0.8c-0.3-0.1-0.7-0.3-0.9-0.6
		C254.5,350.3,255.3,350.2,256.1,350.2z M240.4,393.6c-0.2-1.1-0.4-2.2-0.6-3.3c0.4,0.4,1.2,0.3,1.4-0.4c1.1-4.6,1.3-9.1,0.6-13.8
		c-0.2-1.1-1.8-0.6-1.7,0.5c0.6,4.2,0.4,8.4-0.6,12.6c-1-5.1-2.3-10.2-3.8-15.2c-0.1-0.2-0.1-0.3-0.2-0.4c2.2,0,4.3,0,6.5,0
		c0.2,0.7,0.3,1.5,0.5,2.2c-0.3,0.3-0.4,0.8-0.2,1.2c0.2,0.5,0.5,0.9,0.8,1.3c1,4.8,1.7,9.6,2.4,14.4c-0.1,0.2-0.1,0.4-0.2,0.7
		C243.6,393.4,242,393.5,240.4,393.6z M224.1,371.9c1.1-0.1,2.3-0.2,3.4-0.4c2.5-0.3,5-0.5,7.5-0.7c1.3,0.1,2.5,0.3,3.8,0.4
		c0.3,0.3,0.8,0.4,1.2,0.1c0.6,0.1,1.3,0.1,1.9,0.2c-0.1,0.1-0.1,0.2-0.2,0.2c-3.8,0-7.5,0-11.3,0.1c-2.2,0.1-4.4,0.2-6.7,0.3
		C224,372.2,224,372.1,224.1,371.9z M244.7,371.8c0.1,0,0.1,0,0.2,0c-0.5,0-1,0-1.5,0c0-0.1,0-0.1-0.1-0.1
		C243.8,371.7,244.2,371.8,244.7,371.8z M253.9,379.6c0.1,0,0.2,0,0.2,0.1c0,0,0,0.1,0,0.1c0,0.3,0,0.6,0,0.9
		C254.1,380.4,254,380,253.9,379.6z M259.8,379c-0.1-0.2-0.1-0.3-0.2-0.5c0-0.1-0.1-0.1-0.1-0.2c0-0.1,0-0.2,0-0.4
		C259.6,378.3,259.7,378.6,259.8,379z M260.7,381c0.1,0.1,0.3,0.1,0.5,0.1c0,0.3,0,0.6,0,1C261,381.7,260.8,381.3,260.7,381z
		 M262.9,378.9c0-0.6,0-1.3,0-1.9c0-1-1.5-1.1-1.7-0.2c-0.1-0.9-0.2-1.8-0.2-2.7c0.5,0,1.1,0.1,1.6,0.1c0.3,3.3,0.7,7.3,0.9,10.5
		C263.3,382.7,263.1,380.8,262.9,378.9z M256,380.4c0.2,0.1,0.5,0.2,0.7,0.2c0.2,0.3,0.5,0.5,0.7,0.8c-0.2,0.8-0.4,1.6-0.6,2.3
		C256.5,382.6,256.3,381.5,256,380.4z M258.7,374c-0.1,0.1-0.1,0.2-0.2,0.3c-0.4,1.1-0.6,2.1-0.7,3.2c-0.3,0.2-0.5,0.7-0.2,1.1
		c0.1,0.1,0.1,0.2,0.2,0.3c-0.2-0.1-0.5-0.3-0.7-0.4c-1.3-1.2-2.7-2.1-4.3-2.9c0,0,0,0,0,0c-0.6-0.3-1.3-0.6-1.9-0.8
		c-0.9-0.3-1.5,1.1-0.7,1.6c0.2,0.1,0.4,0.2,0.6,0.3c0,0.1,0,0.2,0,0.2c-2.1-0.5-4.2-0.9-6.4-1.1c-0.2-0.7-0.3-1.5-0.5-2.2
		C248.7,373.6,253.7,373.8,258.7,374z M245.8,381.4c0,1.1,0.1,2.1,0,3.2c-0.2-1.2-0.4-2.5-0.7-3.7
		C245.4,381,245.6,381.2,245.8,381.4z M247.2,393.1c0-0.1,0.1-0.2,0.1-0.2c0.3-3.4,0.5-6.9,0.4-10.3c0.5,0.3,1.1,0.6,1.7,0.8
		c1,0.4,1.5-1.3,0.5-1.7c-0.8-0.3-1.5-0.7-2.2-1.2c0-0.2,0-0.4,0-0.7c0-0.8-1.1-1-1.5-0.6c-0.5-0.5-0.9-1-1.3-1.6
		c2.1,0.3,4.2,0.6,6.3,1.2c0.1,0.4,0.1,0.8,0.2,1.2c-0.1,0.1-0.1,0.3-0.1,0.4c0.3,4.2,0.5,8.4,0.8,12.5c-1.6,0.1-3.1,0.1-4.7,0.2
		C247.2,393.2,247.2,393.1,247.2,393.1z M256.1,392.3c0-0.3,0-0.5,0-0.8c0.1-0.4,0.3-0.8,0.4-1.1c0.2,0.8,0.4,1.6,0.5,2.3
		c-0.4,0-0.7,0-1.1,0C256,392.7,256.1,392.5,256.1,392.3z M259.4,390.2c0-0.8-0.8-1-1.3-0.7c-0.2-0.7-0.3-1.5-0.5-2.2
		c0.4-1.3,0.8-2.6,1.1-3.9c0.1,0.2,0.3,0.4,0.4,0.7c0.2,0.3,0.4,0.4,0.7,0.4c0.6,2.3,0.7,4.7,0.6,7.2c0,0.5,0.4,0.8,0.8,0.8
		c0,0.1,0,0.2,0,0.3c-0.6,0-1.1,0-1.7,0C259.4,391.9,259.4,391,259.4,390.2z M262.9,390.2c0.4,0.2,1,0.2,1.2-0.2
		c0.1,0.2,0.2,0.3,0.4,0.3c0.1,0.7,0.1,1.4,0.2,2.1c0,0.1,0,0.2,0.1,0.2c-0.6,0-1.3,0-1.9,0C262.9,391.8,262.9,391,262.9,390.2z
		 M264.3,370.8c0,0.1,0,0.1,0,0.2c0,0-0.1,0-0.1,0c0-0.1,0-0.1,0-0.2C264.2,370.8,264.2,370.8,264.3,370.8z M262.3,371.3
		c-0.3,0-0.7,0.1-1,0.2c0-0.1,0-0.2,0.1-0.3c0.3,0,0.6-0.1,0.9-0.1C262.3,371.1,262.3,371.2,262.3,371.3z M259.5,371.6
		c-0.5,0-1.1,0.1-1.6,0.1c0.5-0.1,1.1-0.2,1.7-0.3C259.5,371.5,259.5,371.5,259.5,371.6z M227.5,369.9c-1.2,0.1-2.3,0.3-3.5,0.5
		c-0.1-0.3-0.1-0.6-0.2-0.9C225.1,369.6,226.3,369.8,227.5,369.9z M246.8,396.1c0-0.1,0-0.2,0-0.2c0.3-0.1,0.6-0.3,0.6-0.8
		c0,0,0-0.1,0-0.1c1.2-0.1,2.4-0.1,3.7-0.2c-0.3,0.4-0.2,0.2,0,0.8c-0.4-1-2.1-0.6-1.7,0.5c0.3,0.7,0.6,1,0.8,1.1
		c-1.2,0-2.5,0-3.7,0.1C246.8,396.9,246.8,396.5,246.8,396.1z M253.9,394.9c0.3,0.1,0.6,0,0.9-0.3c0.9,0,1.7-0.1,2.6-0.1
		c0.1,0.5,0.2,1,0.3,1.5c0.2,1,1.7,0.7,1.7-0.2c0-0.4,0-0.9,0-1.3c0.6,0,1.1,0,1.7,0c0,0.7,0,1.4,0,2c0,0.2,0,0.3,0.1,0.4
		c-3.5,0.1-6.9,0.2-10.4,0.2C251.8,396.7,252.9,394.5,253.9,394.9z M262.8,396.8c0-0.1,0.1-0.2,0.1-0.4c0-0.7,0-1.4,0-2.1
		c1,0,2.1,0,3.1,0c0,0.6,0,1.3,0,1.9c-0.5,0.2-1,0.4-1.4,0.5C264,396.8,263.4,396.8,262.8,396.8z M267.7,395.6c0-0.4,0-0.8,0-1.3
		c0.3,0,0.7,0,1,0c0,0.3,0,0.6,0,0.9C268.4,395.4,268.1,395.5,267.7,395.6z M267.7,392.6c0.1-2.2,0.4-4.3,0.8-6.5
		c0.1,0.4,0.2,0.8,0.3,1.2c-0.1,0.5-0.1,0.9-0.2,1.4c0,0.3,0,0.5,0.2,0.7c0,1.1-0.1,2.1-0.1,3.2
		C268.4,392.6,268.1,392.6,267.7,392.6z M269.6,378.1c-0.3,0.1-0.5,0.3-0.6,0.6c-0.4,1.1-0.8,2.2-1.2,3.3c0-2.1,0-4.3-0.1-6.4
		c-0.1-0.9-1.2-1.1-1.6-0.5c0-0.1,0-0.2,0-0.3c0-0.1,0-0.3,0-0.4c1.2,0.1,2.4,0.1,3.6,0.2C269.6,375.8,269.6,376.9,269.6,378.1z
		 M262,369.3c-0.1,0-0.1,0-0.2,0c0,0,0,0,0,0C261.9,369.2,262,369.3,262,369.3C262,369.3,262,369.3,262,369.3z M260,369.4
		c-4,0.4-7.9,0.6-11.8,0.6c0.4,0,0.9,0,1.3-0.1c3.4-0.2,7-0.5,10.6-0.6C260,369.4,260,369.4,260,369.4z M238.2,349.5
		C238.2,349.5,238.2,349.5,238.2,349.5C238.2,349.5,238.2,349.5,238.2,349.5C238.2,349.5,238.2,349.5,238.2,349.5z M214.9,327.8
		c-0.8-1.2-1.6-2.3-2.4-3.5c0.4,0,0.7,0,1.1,0c0.5,0,1,0,1.6,0c0.1,1.2,0.2,2.4,0.3,3.6C215.3,327.8,215.1,327.8,214.9,327.8z
		 M161.3,183.1c1.6,19.7,5.3,39.2,10.9,58c-1.3,0.1-2.6,0.3-3.9,0.5c-1.2-3.1-2.4-6.2-3.7-9.4c0.1-0.2,0.1-0.3,0.1-0.5
		C162.2,215.6,161,199.4,161.3,183.1z M186.1,135.1c6.7-11.1,15.3-20.9,24.4-30.1c-5.1,5.7-9.7,11.9-13.6,18.5
		c-0.9,1.2-1.9,2.5-2.8,3.7c0.6-0.9,1.2-1.7,1.8-2.6c0.6-0.9-0.9-1.8-1.5-0.9c-8.3,11.7-14.6,24.7-18.4,38.6
		c-2.1,7.7-3.9,16.1-3.5,24.3c-0.2,3-0.4,5.9-0.5,8.9c-0.2,8.1-0.1,16.3,0.4,24.4c-1.3-8.3-2-16.7-2-25.3c0.5-8.2,1.5-16.4,3.2-24.4
		c1.4-6.4,3.4-12.7,4.5-19.1C180.4,145.5,183,140.2,186.1,135.1z M236.8,88.7c-1,0.1-2,0.1-3,0.2c0-0.4,0-0.7-0.1-1.1
		C234.8,88.1,235.8,88.4,236.8,88.7z M254.4,98.9c0.4,0.4,0.8,0.9,1.3,1.4c-1.7-1.3-3.5-2.5-5.3-3.6c0,0-0.1-0.1-0.1-0.1
		C251.6,97.4,253,98.2,254.4,98.9z M260.1,105.9c2.9,3.9,5.4,7.5,5.8,8c1.5,2.2,2.9,4.4,4.3,6.7c-3.9-5.6-8.2-11-12.9-16.1
		c-0.6-0.6-1.4-1.6-2.4-2.8C256.6,103.1,258.4,104.5,260.1,105.9z M296.5,254.7c-1.3-1-3-1.4-5.2-1c0.1-0.2,0.1-0.4,0.2-0.7
		c1.4,0,2.9-0.1,4.3-0.2C296,253.5,296.3,254.1,296.5,254.7z M189.2,292.1c-0.7-1.8-1.4-3.6-2.1-5.4c0.9,0,1.9,0,2.8-0.1
		c1.7,3.5,3.5,6.9,5.3,10.3c1,2.5,2.1,5,3.1,7.4c0.6,3.3,1.2,6.6,1.8,9.8c-0.2-0.3-0.4-0.6-0.6-0.9
		C195.9,306.4,192.5,299.3,189.2,292.1z M173.7,198.2c0-1.2,0.1-2.4,0.1-3.6c0.1,0.4,0.3,0.9,0.4,1.3c0.7,13.7,3,27.2,6.8,40.5
		c0.3,1.1,2,0.6,1.7-0.5c-3.4-11.9-5.5-24-6.4-36.3c0.6,0,1.1-0.6,0.8-1.3c-0.4-0.9-0.8-1.8-1.1-2.7c-0.4-6.9-0.4-13.8,0.1-20.7
		c0-0.1,0-0.2-0.1-0.3c0.8-4,2-7.9,3.5-11.7c-0.1,2.5,0.1,5.1,0.5,7.7c-1.5,10.6-1.7,21.4-0.4,32.1c0.1,1.1,1.9,1.1,1.7,0
		c-1.2-10.4-1.1-20.9,0.3-31.2c0.1-0.1,0.1-0.2,0.1-0.3c2.6-18.7,9.6-36.3,20.2-51.5c0.7-0.9,1.4-1.8,2.1-2.7
		c0.2-0.2,0.2-0.4,0.2-0.6c2.6-3.5,5.4-6.8,8.4-10c-12,20.9-19.7,43.8-23,67.8c-0.1,1.1,1.5,1.6,1.7,0.5
		c3.4-25.3,11.9-49.5,25.1-71.4c0.2-0.3,0.1-0.6,0-0.8c1.8-1.7,3.6-3.4,5.4-5c-0.1,0.2-0.2,0.3-0.3,0.5
		c-9.6,11.5-15.8,25.2-18.2,40.1c-0.2,1.1,1.5,1.6,1.7,0.5c1.9-12.2,6.4-23.4,13.2-33.4c-4.1,8.9-7.5,18-10.5,27.3
		c-0.1,0.4,0,0.7,0.3,0.9c-1.9,6.5-3.3,13.1-4.3,19.9c-0.1,0.1-0.2,0.2-0.2,0.4c-4.9,18.2-5.3,37.1-1.3,55.3
		c0.6,10.2,1.5,20.4,2.8,30.6c-0.9,0-1.9,0.1-2.8,0.1c-1.7-8.6-2.9-17.4-3.3-26.3c-0.1-1.1-1.8-1.1-1.7,0c0.5,8.9,1.6,17.7,3.3,26.4
		c-4.6,0.2-9.2,0.6-13.8,1.2c-3.3-0.1-6.6-0.2-9.9-0.1c-0.4-1.6-0.8-3.3-1.2-4.9C174.2,223.5,173.5,210.8,173.7,198.2z M181.2,163.6
		c0-1.7,0.2-3.4,0.4-5.1c0.4-0.9,0.9-1.7,1.4-2.5C182.3,158.5,181.7,161.1,181.2,163.6z M184.6,150.6
		C184.6,150.6,184.5,150.6,184.6,150.6c-0.8,1-1.4,1.9-2,2.8c1.6-6.1,4.3-11.9,7.7-17.4C188.1,140.8,186.2,145.6,184.6,150.6z
		 M177.5,163.3c0.5-1.7,1-3.5,1.5-5.1c0.7-2.2,1.5-4.4,2.3-6.5c-0.6,2-1,4.1-1.3,6.2C179,159.6,178.2,161.4,177.5,163.3z M232,94.9
		c0.1,0,0.3,0,0.4,0.1c0.5,0.2,1,0.5,1.6,0.8c-0.4-0.1-0.7,0.2-0.8,0.5c0,0,0,0,0-0.1c-0.1-0.7-1-1.2-1.5-0.6
		c-2.1,2.5-4,5.2-5.7,7.9c0.6-1.7,1.2-3.5,1.8-5.2c1-1.3,2.1-2.6,3.2-3.9c0.1,0,0.2,0.1,0.3,0.1C231.4,94.7,231.6,94.8,232,94.9z
		 M273.9,131.4c0.3,0.5,0.9,0.5,1.3,0.2c0.2,0.3,0.4,0.6,0.5,0.9c0.4,0.8,1.5,0.4,1.6-0.3c0.5-0.1,0.9-0.7,0.6-1.3
		c-0.5-1-1.7-3.3-3.4-6.3c16.9,21.8,23.4,49.7,22.4,77.1c-0.5-0.3-1.3-0.1-1.4,0.7c-1.4,11.5-4,22.6-8,33.4
		c-0.2,0.7,0.3,1.1,0.9,1.1c-0.8,1.1-1.5,2.3-2.4,3.4c-0.7,0.9,0.8,1.8,1.5,0.9c0.8-1.1,1.6-2.3,2.4-3.4c-0.4,1.5-0.8,3-1.3,4.5
		c-6.9-0.5-13.9-1-20.9-1.3c3.6-18,7.1-36.1,8.4-54.3c1.4-20.1-0.3-41-9-59.5c-3.7-7.9-8.8-15.3-14.9-21.5c-1.3-1.3-2.7-2.6-4.2-4
		C259.5,108.1,267,120,273.9,131.4z M282,132.5c-2.7-4.4-5.7-8.6-9.1-12.6C276.9,122.8,279.6,127.9,282,132.5z M297.4,216.3
		c0.2-1.8,0.5-3.6,0.6-5.4c2.2-22.9-0.7-46.7-10.2-67.5c2.3,4.4,4.5,8.8,6.5,13.3c2.6,5.9,4.9,11.9,6.6,18
		C301.2,188.7,300.9,203,297.4,216.3z M288.3,254c0.1-0.2,0.2-0.5,0.2-0.7c0.4,0,0.7,0,1.1,0c-0.1,0.3-0.1,0.5-0.2,0.8
		C289.1,253.9,288.7,253.9,288.3,254z M248.2,325.1c0.6,0,1.1,0.1,1.7,0.1c-0.1,0.5-0.2,1-0.3,1.5c0,0.2,0,0.5,0.1,0.6
		c-0.1,0.1-0.1,0.2-0.2,0.4c-0.1,0.3-0.1,0.5-0.1,0.7c-0.2,0.3-0.3,0.7-0.2,1c-1.4-0.1-2.8-0.1-4.2-0.2c0,0,0,0,0.1,0
		c0.9-1.1,1.9-2.3,2.8-3.4C248.2,325.5,248.2,325.3,248.2,325.1z M183.7,263c0-0.5-0.1-1.1-0.1-1.6c0.3,0.6,0.6,1.2,0.8,1.8
		c-0.1,0.5-0.2,0.9-0.2,1.4C184.1,264,183.9,263.5,183.7,263z M208.2,223.3c-1.7-4.8-3.1-9.6-4.1-14.4c-0.1-1-0.1-1.9-0.2-2.9
		c-1.5-29.4-0.5-60.8,11.7-87.6c-1.3,4.5-2.3,9.1-3.3,13.5c-3.5,15.8-4.9,31.9-4.4,48c0,0.5,0.4,0.8,0.9,0.8c0.3,13,1.9,26,5,38.8
		c0.3,1.1,1.9,0.6,1.7-0.5c-5.8-24.7-6.5-50.2-2.2-74.9c-0.2,5.9,0.3,11.9,1.4,17.9c0.2,1,1.7,0.7,1.7-0.2c0-17.3,2.4-34.3,7.1-50.8
		c2.2-4.4,4.9-8.6,8-12.5c0.3,4.1,0.4,8.1,0.3,12.2c-0.7,4.4-1.3,8.8-1.8,13.2c-1.4,14.1-1.3,28.3,0.2,42.3c0.1,1.1,1.8,1.1,1.7,0
		c-1.1-11-1.5-22-0.9-33.1c0-0.6,0.1-1.2,0.1-1.8c0.2-0.1,0.3-0.3,0.3-0.5c1.1-6.3,1.8-12.5,2-18.8c0.8-3.9,2-9.6,2.6-12.6
		c4.4,3.7,8,8.3,11.1,13.3c0.8,1.7,1.5,3.3,2.1,4.7c3.4,7.4,5.8,15.2,7.5,23.1c0.2,1.1,1.9,0.6,1.7-0.5c-1-4.4-2.2-8.8-3.6-13.1
		c2.7,5.5,5.2,11.1,7.5,16.7c-0.2,0.1-0.3,0.3-0.3,0.7c1.2,9.5,1.6,19,1.3,28.4c-0.3,0.1-0.5,0.4-0.5,0.8c0,3.6,0,7.2-0.2,10.8
		c-0.6,6.9-1.7,13.9-3.1,20.7c0-0.6-0.1-1.1-0.1-1.7c-0.1-1.1-1.8-1.1-1.7,0c0.2,2.7,0.3,5.5,0.4,8.2c-0.3,1.1-0.5,2.2-0.8,3.3
		c-0.2,0.6,0.3,1,0.8,1.1c0,1.8-0.1,3.7-0.2,5.5c-1,4.6-2.2,9.2-3.5,13.7c-0.3,1.1,1.4,1.5,1.7,0.5c0.3-1.1,0.6-2.3,0.9-3.4
		c-0.3,2.8-0.7,5.5-1.1,8.3c-3.8-0.1-7.5-0.2-11.3-0.2c-2.1-0.2-4.3-0.5-6.4-0.7c-0.5-0.1-0.8,0.3-0.8,0.7c-2.7,0-5.4,0-8.2,0.1
		c-7.5-0.7-15.1-1-22.6-0.8c-0.9-7.2-1.6-14.4-2.2-21.6c0.6,1.9,1.2,3.8,1.9,5.7C206.9,224.8,208.6,224.3,208.2,223.3z M201.7,192.3
		c-0.5-6.6-0.4-13.3,0.3-20C201.7,179,201.6,185.7,201.7,192.3z M215.1,149.9c-0.4-9.5,0.9-18.9,3.9-27.8
		C216.9,131.2,215.6,140.5,215.1,149.9z M222.3,105.9c-3.3,8.3-6,16.8-8.2,25.5c1.6-7.4,3.5-15.2,6.4-22.5
		C221.1,107.9,221.7,106.9,222.3,105.9z M223.7,98.5c-1.8,3-3.3,6.2-4.6,9.5c-0.2,0.3-0.4,0.6-0.6,1c1-2.7,2.3-6.1,3.9-9
		C222.9,99.4,223.3,98.9,223.7,98.5z M233.2,97.1c0.1,0.1,0.1,0.2,0.2,0.2c0.3,0.2,0.6,0.4,0.9,0.6c-0.4,0.9-0.6,1.9-0.8,2.9
		C233.4,99.6,233.3,98.4,233.2,97.1z M235,96.3c-0.1-0.1-0.3-0.2-0.4-0.3c0.2,0.1,0.4,0.2,0.5,0.3C235.1,96.3,235,96.3,235,96.3z
		 M291.3,231.9c-0.5,0.9-1,1.9-1.6,2.8c1.1-3.2,2.1-6.3,3-9.5C292.3,227.5,291.8,229.7,291.3,231.9z M208.5,321.3
		c0-0.1-0.1-0.2-0.1-0.3c0.2,0.3,0.4,0.6,0.6,0.9c-0.2,0-0.3,0-0.5,0C208.6,321.7,208.6,321.5,208.5,321.3z M189.7,279
		c-0.1-5.5-1.3-10.7-3.3-15.6c0.3-1.3,0.8-2.6,1.5-3.8c0,0,0,0,0,0c0.6,0.7,1.7,0,1.5-0.8c-0.1-0.3-0.2-0.6-0.4-0.9
		c1.4-1.9,3.3-3.5,5.4-4.2c0.9-0.1,1.8-0.3,2.8-0.5c0.1,0,0.3,0,0.4,0c2.3,2.8,4.3,5.8,6.2,8.8c2,7.6,4.4,15.2,7.2,22.5
		c-4.9,0.1-9.7,0.2-14.6,0.3c-1.9-6.6-3.7-13.2-5.4-19.9c-0.2-0.6-0.7-0.7-1.2-0.5c0-0.1,0-0.1,0-0.2c-0.2-1.1-1.8-0.6-1.7,0.5
		c1,6.9,2.5,13.6,4.4,20.2c-0.1,0-0.3,0-0.4,0C191.2,282.9,190.4,280.9,189.7,279z M205.6,243c0.1,0.4,0.1,0.9,0.2,1.3
		c-0.8,0-1.6,0-2.5,0.1c0,0,0,0,0,0c-0.1-0.5-0.2-0.9-0.3-1.4C203.9,243,204.7,243,205.6,243z M221.6,304.9c-2.1-4.3-4.2-8.8-6-13.2
		c0-0.8,0-1.6,0-2.4c0.7,1.7,1.3,3.4,2,5.1C218.8,297.9,220.2,301.4,221.6,304.9z M213.4,286.2c0.3,0,0.7,0,1,0
		c0.2,0.7,0.5,1.3,0.7,2c-0.3-0.1-0.7-0.1-1,0.1C213.9,287.5,213.6,286.8,213.4,286.2z M188,255.8c-0.2-0.4-0.5-0.8-0.7-1.1
		c0-0.1,0-0.2,0-0.2c0.8,0,1.6-0.1,2.4-0.2C189,254.7,188.5,255.2,188,255.8z M275,269.2c-0.3,0.8-0.6,1.6-0.9,2.4
		c0-1.3,0.1-2.6,0.3-3.7c0,0.2,0.1,0.5,0.1,0.7C274.6,268.9,274.8,269.1,275,269.2z M240.8,269.4c-0.2-1.1-0.4-2.2-0.6-3.3
		c0.4,0.3,1,0.3,1.6-0.2c0.3-0.3,0.6-0.7,0.8-1.2c0,0,0,0,0,0c1-1.3,1.9-2.6,2.7-3.9c0.3-0.3,0.6-0.5,0.9-0.7
		c-0.8,1.1-1.5,2.2-2.2,3.2C242.7,265.1,241.7,267.2,240.8,269.4z M215.4,250.9c-1.1,1.6-1.9,3.3-2.4,5.1c0,0,0,0.1,0,0.1
		c0.2-1.6,0.8-3,1.8-4.3c0.4-0.5,0.1-0.9-0.3-1.1c0,0,0-0.1,0.1-0.1c0.4,0,0.8,0.1,1.2,0.1C215.6,250.7,215.5,250.8,215.4,250.9z
		 M210.6,270.5c-0.8-2.4-1.6-4.9-2.4-7.4c0.3,0.2,0.6,0.4,0.9,0.6c0.5,2.2,0.9,4.4,1.4,6.5C210.6,270.4,210.6,270.4,210.6,270.5z
		 M205.6,253.9c0-0.9,0.2-1.8,0.4-2.7c0.3-0.1,0.5-0.1,0.8-0.2c0.2,1.2,0.4,2.3,0.6,3.5c-0.4,0.9-0.7,1.9-0.8,2.9
		C206.3,256.3,206,255.1,205.6,253.9z M196.7,249.4c-0.6-0.7-1.4-0.1-1.4,0.6c-2.5,0.1-5.1,0.1-7.6-0.1c0.2-0.5,0.4-0.9,0.7-1.4
		c2.5,0,4.9,0,7.4-0.1c1.6,0.1,3.3,0.3,4.9,0.4c0.1,0.3,0.1,0.5,0.2,0.8c-1.2,0.1-2.4,0.2-3.6,0.2
		C197,249.8,196.8,249.6,196.7,249.4z M210.7,258c-0.3-2.5-1-5.1-2.1-7.4c0.2,0,0.4-0.1,0.7-0.1c0.9-0.1,1.8-0.2,2.6-0.3
		c0.3,0,0.6,0.1,0.9,0.1C211.7,252.8,211,255.4,210.7,258z M247.8,249.6c0-0.5,0-1-0.1-1.5c2.1,0.1,4.3,0.2,6.4,0.3
		c-1.3,0.3-2.6,0.8-3.9,1.3C249.5,249.6,248.7,249.6,247.8,249.6z M243.5,249.5c0.7-1,1.5-1.3,2.3,0.1
		C245,249.5,244.3,249.5,243.5,249.5z M239.9,247.8c1,0,1.9,0.1,2.9,0.1c-0.4,0.5-0.8,1-1.2,1.6c-1.2,0-2.5-0.1-3.7-0.1
		c-0.3-0.5-0.6-1-1-1.5C237.9,247.8,238.9,247.8,239.9,247.8z M243.8,254.2C243.8,254.2,243.8,254.2,243.8,254.2
		c-0.8,0.9-1.3,1.8-1.8,2.9c0-1.5,0-2.9,0-4.4c1.1,0.1,2.1,0.1,3.2,0.2C244.7,253.3,244.3,253.7,243.8,254.2z M254.5,249.7
		C254.5,249.7,254.5,249.7,254.5,249.7C254.5,249.7,254.5,249.7,254.5,249.7C254.5,249.7,254.5,249.7,254.5,249.7z M234.5,247.9
		c0.4,0.4,0.8,0.9,1.1,1.3c-0.2,0-0.3,0-0.5,0c-0.2,0-0.3-0.1-0.5,0c-3.9-0.1-7.9-0.3-11.8-0.5c1.5-0.2,2.9-0.4,4.4-0.6
		C229.6,248,232.1,248,234.5,247.9z M202.6,249.1c0,0.2,0.1,0.3,0.1,0.5c-0.1,0-0.1,0-0.2,0c0-0.2-0.1-0.3-0.1-0.5
		C202.5,249.1,202.6,249.1,202.6,249.1z M240.1,252.5c-0.1,0.2-0.2,0.4-0.2,0.7c-0.1-0.2-0.2-0.5-0.3-0.7
		C239.7,252.5,239.9,252.5,240.1,252.5z M244.5,257.6c0.2-0.5,0.3-1,0.5-1.5c0.2-0.2,0.4-0.4,0.5-0.6c-0.2,1-0.5,2-0.7,2.9
		c0,0,0-0.1,0-0.1C244.8,258,244.7,257.8,244.5,257.6z M254.2,251.4C254.2,251.4,254.2,251.4,254.2,251.4c-0.3,0-0.6,0-0.9,0
		C253.6,251.4,253.9,251.4,254.2,251.4z M261.8,249.8c-1-0.3-2-0.4-3.2-0.2c-0.2,0-0.3,0.1-0.5,0.1c-0.6,0-1.2,0-1.8,0
		c0-0.2,0.1-0.3,0.1-0.5c1.3-0.3,2.5-0.5,3.8-0.6c1.6,0.1,3.3,0.2,4.9,0.3c-0.1,0.3-0.1,0.6-0.2,0.9
		C263.8,249.8,262.8,249.8,261.8,249.8z M185,248.6c0.5,0,0.9,0,1.4,0c-0.1,0.2-0.2,0.4-0.3,0.7c-0.4-0.2-0.9-0.2-1.2,0.3
		c0,0.1,0,0.1-0.1,0.2c-0.1,0-0.1,0-0.2,0c0.1-0.3,0.2-0.6,0.3-0.9C185,248.7,185,248.7,185,248.6z M237.5,252.4
		c0.7,1.5,1.3,3.1,1.7,4.8c-0.1,2.1,0.3,4.2,1.1,6.3c0,0.1,0,0.3,0,0.4c-0.2,0.1-0.3,0.2-0.4,0.4c0,0,0,0,0,0c-0.8-4-1.9-8-3.2-12
		C236.9,252.4,237.2,252.4,237.5,252.4z M246.7,257.3c0.5-1.3,0.8-2.7,1-4c0.1-0.1,0.2-0.2,0.3-0.3c1.4,0.1,2.8,0.1,4.1,0.2
		c-1,0.8-1.9,1.8-2.8,2.7C248.4,256.3,247.6,256.7,246.7,257.3z M265.7,251.5c0.4,0,0.8,0,1.1,0c0,0.1,0,0.1,0.1,0.2
		c-0.4,0-0.8,0-1.2,0C265.6,251.6,265.7,251.6,265.7,251.5z M266,249.8c0.1-0.3,0.1-0.5,0.2-0.8c0.2,0,0.5,0,0.7,0
		c0.6,0.2,1.1,0.5,1.6,0.8C267.7,249.8,266.8,249.8,266,249.8z M235.2,245.4c-0.2,0-0.3,0-0.5,0c0,0,0,0-0.1-0.1c0.4,0,0.8,0,1.2,0
		C235.6,245.4,235.4,245.4,235.2,245.4z M179.3,248.6c1.3,0,2.6,0,3.9,0c-0.1,0.3-0.2,0.6-0.3,0.9c-0.8-0.1-1.5-0.2-2.3-0.3
		C180.2,249,179.8,248.8,179.3,248.6z M183.3,253.3L183.3,253.3C183.3,253.3,183.3,253.3,183.3,253.3
		C183.3,253.3,183.3,253.3,183.3,253.3z M187.2,251.6c2.3,0.1,4.6,0.2,6.8,0.1c-2.3,0.5-4.6,1-6.9,1.3
		C187.1,252.6,187.1,252.1,187.2,251.6z M201.3,252.3c0,0.1,0.1,0.2,0.1,0.4c-0.2-0.1-0.4-0.2-0.6-0.3
		C201,252.3,201.2,252.3,201.3,252.3z M203,251.9c0.1,0,0.2,0,0.3-0.1c0.2,0.8,0.4,1.7,0.6,2.5c-0.2-0.1-0.3-0.3-0.5-0.4
		C203.3,253.2,203.2,252.6,203,251.9z M213.7,284.4c-0.1,0-0.1,0-0.2,0C213.6,284.4,213.7,284.4,213.7,284.4
		C213.7,284.4,213.7,284.4,213.7,284.4z M210.7,262.8c0.1-0.7,0.1-1.3,0.1-2c0.2,0.1,0.4,0.2,0.6,0.1c-0.2,0.9-0.4,1.9-0.5,2.9
		C210.9,263.5,210.8,263.2,210.7,262.8z M216.9,251c-0.1-0.1-0.1-0.2-0.3-0.3c0.2,0,0.4,0,0.6,0.1
		C217.2,250.8,217.1,250.9,216.9,251z M232.4,252c0,0.1,0,0.2,0,0.3c0.1,0.5,0.3,0.9,0.4,1.4c-0.6-0.7-1.3-1.3-2-1.8
		C231.4,252,231.9,252,232.4,252z M234.2,252.2c0.2,0,0.3,0,0.5,0c1.2,3.6,2.2,7.2,3.1,10.8c-0.5-1.5-1-2.9-1.6-4.3
		C235.5,256.6,234.8,254.4,234.2,252.2z M238.3,275.2c-0.4-3.2-1-6.5-1.8-9.7c0.3,1,0.7,2.1,1,3.1
		C237.9,270.8,238.2,273,238.3,275.2z M239.4,298.1c-0.1-2.1-0.2-4.3-0.4-6.4c0-1.5,0-3.1,0-4.6c0.1-0.1,0.2-0.2,0.2-0.4
		c0-0.3,0.1-0.5,0.1-0.8c2.2,0,4.4,0,6.6,0c-2.1,8-4.1,16-5.9,24C239.9,306,239.7,302,239.4,298.1z M239.6,284.2
		c0.2-1.6,0.3-3.4,0.3-5.2c0.2-1.3,0.5-2.6,0.8-3.9c0.5-0.1,0.8-0.5,0.6-1c-0.1-0.2-0.1-0.4-0.2-0.6c0,0,0,0,0,0
		c0.1-0.1,0.2-0.3,0.1-0.5c1.7-5.8,4.6-11.2,8.7-15.3c1-0.5,2.1-0.9,3.2-1.2c-2,9.3-4.4,18.6-6.7,27.9
		C244.1,284.2,241.9,284.2,239.6,284.2z M255.5,253.5c0.2-0.1,0.4-0.2,0.6-0.2c0.1,0,0.3,0,0.4,0c1.3,0,2.6,0,3.8,0.1
		c-1.6,0-3.3,0.2-4.9,0.5C255.5,253.7,255.5,253.6,255.5,253.5z M262.1,253.4C262.1,253.4,262.1,253.4,262.1,253.4c-0.3,0-0.7,0-1,0
		C261.4,253.3,261.7,253.4,262.1,253.4z M266.2,253.4c0.5,0,1.1,0,1.6,0c0.3,0.6,0.6,1.1,0.8,1.7c-0.6-0.3-1.2-0.6-1.8-0.8
		C266.6,254,266.4,253.7,266.2,253.4z M273.3,265.3c-0.1-0.9-0.3-1.8-0.5-2.7c0.3,0.2,0.8,0.1,1-0.1c0,0.1,0,0.2,0,0.3
		c0,0.3,0,0.6,0,1C273.7,264.2,273.5,264.8,273.3,265.3z M273.6,260.3c-0.6-1.3-1.4-2.3-2.3-3.2c-0.5-1.2-1-2.5-1.5-3.7
		c0.6,0,1.2,0,1.9,0C272.6,255.5,273.2,257.9,273.6,260.3z M270.5,251.7c-0.6,0-1.1,0-1.7,0c0-0.1-0.1-0.1-0.1-0.2
		c0.5,0,1.1,0,1.6,0C270.4,251.6,270.5,251.6,270.5,251.7z M272,249.3c1.7,0.1,3.4,0.2,5,0.3c0,0-0.1,0.1-0.1,0.1
		c-1.5,0-3.1-0.1-4.6-0.1C272.3,249.6,272.2,249.5,272,249.3z M282.2,244.9c1.9,0,3.8,0,5.7,0c0,0.1,0,0.1-0.1,0.2
		C285.9,245,284,244.9,282.2,244.9z M257.4,243.3C257.4,243.3,257.4,243.3,257.4,243.3c0.2,0,0.4,0,0.5,0
		C257.8,243.3,257.6,243.3,257.4,243.3z M231.8,245.6c-0.4,0-0.8,0.1-1.3,0.1c-2.2,0-4.4-0.1-6.6-0.1c1.2,0,2.5-0.1,3.7-0.1
		c1.3,0,2.6,0,3.8-0.1C231.6,245.5,231.7,245.6,231.8,245.6z M180.5,250.9c0.1,0,0.1,0.1,0.2,0.1c0.5,0.3,1,0.5,1.4,0.8
		c-0.2,0.5-0.4,1-0.5,1.5c-0.2,0-0.4,0-0.6,0c-0.2,0-0.3,0-0.5-0.1c-0.3-0.8-0.5-1.6-0.8-2.4C180,250.8,180.2,250.8,180.5,250.9z
		 M181.3,254.4C181.3,254.4,181.3,254.5,181.3,254.4C181.3,254.4,181.3,254.4,181.3,254.4C181.3,254.4,181.3,254.4,181.3,254.4z
		 M182.9,254.5C182.9,254.5,183,254.5,182.9,254.5c-0.1,0.6-0.2,1.1-0.4,1.7c-0.3-0.5-0.7-1-1.1-1.5
		C181.8,255,182.6,255,182.9,254.5z M201.9,254.9c0.1,0.6,0.3,1.2,0.4,1.9c-0.7-1-1.4-1.9-2.1-2.9
		C200.8,254.1,201.4,254.5,201.9,254.9z M204,256.2C204,256.2,204.1,256.2,204,256.2c0.3,1.4,0.8,2.8,1.6,4.1c0.3,1.1,0.7,2.3,1,3.4
		c-0.4-0.8-0.9-1.6-1.3-2.4C204.8,259.6,204.4,257.9,204,256.2z M211.8,280.9c0.2,1.1,0.5,2.1,0.8,2.9c0.1,0.4,0.4,0.6,0.7,0.6
		c-0.2,0-0.4,0-0.6,0c-1.9-4.9-3.6-10-5.1-15C209.3,273.1,210.7,277,211.8,280.9z M212.1,269.2c0-0.4,0-0.8,0.1-1.2
		c0.2-2.9,0.9-5.9,1.9-8.6c1.8-5,9.1-10,14.3-6.8c2.7,1.7,4.8,4.2,6.3,7.2c0.4,1.3,0.8,2.6,1.2,3.9c-0.5-0.5-1.5,0-1.4,0.9
		c0.3,2.3,0.6,4.6,0.9,6.9c-0.3,0.1-0.6,0.4-0.6,0.8c-0.1,4-0.1,8-0.1,12c-6.2,0-12.4,0.1-18.5,0.2
		C214.6,279.4,213.3,274.3,212.1,269.2z M236.5,281.1c0.1,1,0.2,2,0.3,3.1c-0.1,0-0.2,0-0.3,0C236.4,283.1,236.4,282.1,236.5,281.1z
		 M240.4,316.8c2.1-10.3,4.7-20.6,7.4-30.9c3.3,0,6.6,0.1,9.9,0.2c-2.5,12.4-5,24.7-7.4,37.1c-3.2-0.2-6.5-0.4-9.7-0.6
		C240.5,320.7,240.5,318.8,240.4,316.8z M248.2,284.2c2.4-9.4,4.8-18.9,6.8-28.4c2.9-0.7,6-0.9,8.8-0.4c-1.9,9.7-3.8,19.4-5.8,29.1
		C254.7,284.4,251.5,284.3,248.2,284.2z M269.8,258.1c0.8,2.4,1.5,4.8,1.9,7.3c-0.5-1.3-0.9-2.5-1.5-3.8c-0.6-1.4-1.2-3-2-4.7
		C268.7,257.2,269.3,257.6,269.8,258.1z M273.6,251.7c0-0.1-0.1-0.2-0.1-0.3c0.3,0,0.6,0,0.9,0c0.6,0,1.3,0,1.9,0
		c0,0.1-0.1,0.2-0.1,0.3C275.3,251.7,274.4,251.7,273.6,251.7z M278.1,251.5c0,0,0.1,0,0.1,0c0,0.1,0,0.1,0,0.2c-0.1,0-0.1,0-0.2,0
		C278.1,251.6,278.1,251.5,278.1,251.5z M280,251.5c1.6,0,3.3,0.1,4.9,0.1c-1.6,0-3.3,0.1-4.9,0.1C280,251.6,280,251.6,280,251.5z
		 M279.9,248.1c0,0,0-0.1,0-0.1c1.2-0.1,2.4-0.1,3.6-0.2c1.6,0.1,3.3,0.2,4.9,0.3c-0.1,0.3-0.2,0.6-0.3,0.8
		C285.4,248.6,282.7,248.3,279.9,248.1z M255.7,243.1c0,0.1,0,0.2,0,0.2c-3.5,0-7,0.1-10.5,0.2c-0.9-0.1-1.7-0.2-2.6-0.3
		c0.3-0.4,0.2-1-0.3-1.2c0.7,0,1.4,0,2.1,0C248.2,242.5,251.9,242.8,255.7,243.1z M230,242.2c-0.3,0-0.6,0-0.9-0.1
		c0.1,0,0.2,0,0.3,0C229.6,242.1,229.8,242.2,230,242.2z M228.2,243.8c-5.6,0.1-11.2,0.3-16.7,0.4c0.7-0.4,1.4-0.7,2.1-1
		C218.4,243.3,223.3,243.5,228.2,243.8z M208.8,244.2c-0.4,0-0.8,0-1.3,0c-0.1-0.4-0.1-0.8-0.2-1.2c1,0,1.9,0,2.9,0.1
		C209.7,243.4,209.2,243.8,208.8,244.2z M201.3,243.3c-0.3-0.1-0.6-0.2-0.9-0.3c0.3,0,0.6,0,0.9,0
		C201.3,243.1,201.3,243.2,201.3,243.3z M198.7,244.5c-1.8,0-3.5,0.1-5.3,0.1c0.8-0.3,1.6-0.4,2.5-0.4
		C196.8,244.1,197.8,244.3,198.7,244.5z M184.7,254.8c0-0.1,0.1-0.2,0.1-0.3c0.1,0,0.2,0,0.3,0c0.2,0.3,0.5,0.6,0.7,0.9
		c0.2,0.8,0.5,1.5,0.8,2.2c-0.6,1-1.1,2-1.5,3.1c-0.3-0.6-0.6-1.2-0.9-1.8C184.2,257.5,184.4,256.1,184.7,254.8z M195.8,289.3
		c-0.1,0.1-0.1,0.2-0.1,0.4c-0.3-1-0.7-2.1-1-3.1c0.1,0,0.2,0,0.2,0C195.3,287.5,195.6,288.4,195.8,289.3z M194.3,284.9
		c-1-3.5-1.9-7.1-2.7-10.7c1,3.6,1.9,7.1,3,10.7C194.4,284.9,194.3,284.9,194.3,284.9z M193,286.6c0.2,0.8,0.5,1.5,0.7,2.3
		c-0.3-0.8-0.6-1.5-1-2.3C192.8,286.6,192.9,286.6,193,286.6z M205.2,311.8c0.2-0.2,0.3-0.6,0-0.9c-0.4-0.7-0.8-1.3-1.2-2
		c-2.6-7.4-5-14.8-7.2-22.4c4.9-0.1,9.8-0.2,14.7-0.3c0.8,2,1.5,3.9,2.4,5.9c0,10,0.3,19.9,1.1,29.9c-1.3,0-2.6,0-4,0
		C208.9,318.6,207,315.2,205.2,311.8z M215.6,296.2c3.9,8.9,8.4,17.6,13.5,26.1c-4.1-0.1-8.2-0.2-12.4-0.2
		C216,313.4,215.7,304.8,215.6,296.2z M230.2,319.8c0-0.2,0-0.3-0.1-0.5c-0.5-0.9-0.9-1.8-1.3-2.7c-3.3-7.7-6.6-15.3-9.7-23.1
		c-0.9-2.4-1.7-4.9-2.4-7.4c6-0.1,12-0.2,18-0.2c0,12.2,0.1,24.3,0.4,36.5c-1.3,0-2.5-0.1-3.8-0.1
		C230.9,321.5,230.6,320.6,230.2,319.8z M236.4,285.9c0.2,0,0.3,0,0.5,0c0.1,0.8,0.1,1.7,0.2,2.5c-0.1,0.1-0.1,0.3-0.1,0.4
		c0.1,1.4,0.2,2.9,0.3,4.3c-0.1,9.8-0.7,19.6,0,29.3c-0.2,0-0.3,0-0.5,0C236.5,310.3,236.4,298.1,236.4,285.9z M253.7,327.2
		c-0.2,0.1-0.4,0.2-0.5,0.4c-0.6,0.1-1.2,0.2-1.8,0.3c0.5-0.8,0.9-1.6,1.4-2.5c1.9,0.1,4.2,0.3,6.4,0.6
		C257.4,326.2,255.5,326.5,253.7,327.2z M252,323.3c2.4-12.4,4.7-24.8,7.1-37.1c1.6,0.1,3.1,0.1,4.7,0.2c-0.1,4.2-0.2,8.4-0.4,12.6
		c-2.4,5.6-4.8,11.3-7.1,16.9C254.9,318.4,253.5,320.9,252,323.3C252,323.3,252,323.3,252,323.3z M267.5,289.3
		c-0.7,1.7-1.4,3.4-2.2,5.1c0.1-2.6,0.1-5.3,0.2-7.9c0.8,0,1.7,0.1,2.5,0.1C267.9,287.5,267.7,288.4,267.5,289.3z M270.9,281.4
		c0.2-1.8,0.4-3.7,0.5-5.5c0.1-1.1-1.6-1.1-1.7,0c-0.4,3.1-0.8,6.1-1.3,9.1c-0.9-0.1-1.9-0.1-2.8-0.2c0-0.7,0-1.5,0-2.2
		c0-1.1-1.7-1.1-1.7,0c0,0.7,0,1.4,0,2.1c-1.5-0.1-2.9-0.1-4.4-0.2c1.8-9.6,3.7-19.3,5.5-28.9c0,0,0,0,0.1,0
		c3.7,4.1,6.2,11.8,7.7,18.8c0,0.2,0.1,0.5,0.1,0.7c0,0.1,0,0.1,0.1,0.2c0.1,0.3,0.1,0.6,0.2,0.9C272.3,278,271.6,279.7,270.9,281.4
		z M276,266.2c-0.1-0.7-0.1-1.4-0.2-2.1c0.4-0.7,0.8-1.3,1.2-1.9C276.8,263.5,276.4,264.8,276,266.2z M276.1,260.1
		c0-0.8,0-1.7-0.1-2.5c0.3-1.4,0.7-2.8,1.2-4.1c0.3,0,0.6,0,0.9,0c-0.1,1.6-0.2,3.3-0.4,4.9C277.2,258.8,276.6,259.4,276.1,260.1z
		 M279.9,253.4c2.3,0,4.6-0.1,6.9-0.1c-0.1,0.3-0.2,0.6-0.3,0.9c-1.8,0.3-3.6,0.8-5.3,1.7c-0.5,0.3-1,0.6-1.5,0.9
		C279.8,255.7,279.8,254.5,279.9,253.4z M289.9,249c0.1-0.3,0.2-0.6,0.3-0.9c0.3,0,0.5,0,0.8,0c-0.1,0.3-0.2,0.7-0.3,1
		C290.5,249.1,290.2,249.1,289.9,249z M214,241.3c-0.2,0-0.3,0.1-0.5,0.1c0,0-0.1,0-0.1,0c-2.1-0.1-4.3-0.1-6.4-0.1c0,0,0,0,0,0
		C209.4,241.2,211.7,241.2,214,241.3z M193.6,242.7c-1.6,0.4-3,1.1-4.2,2c-1.5,0-3.1,0.1-4.6,0.1c-2.1-0.3-4.1-0.7-6.2-1
		c3.2-0.5,6.5-1,9.7-1.3C190.2,242.6,192,242.7,193.6,242.7z M185.9,266.8c0.7,2.1,1.2,4.2,1.5,6.3c-0.5-1.3-1-2.6-1.5-4
		C185.9,268.4,185.9,267.6,185.9,266.8z M200.8,308.5c0.2-0.1,0.4-0.2,0.5-0.5c0.6,1.2,1.2,2.5,1.9,3.7c1.2,3.3,2.4,6.7,3.7,10
		c0,0.1,0.1,0.1,0.1,0.1c-0.4,0-0.7,0-1.1,0c-1.1-1.4-2.3-2.8-3.3-4.2C202,314.6,201.4,311.6,200.8,308.5z M264.9,326.3
		c0.1,0,0.2,0,0.3,0c0,0,0,0,0,0C265,326.3,265,326.3,264.9,326.3z M254,323.5c0.2-0.3,0.3-0.6,0.5-0.8c0.1,0.1,0.1,0.2,0.2,0.3
		c0,0.3,0.3,0.6,0.6,0.7C254.8,323.6,254.4,323.5,254,323.5z M273.6,279.3c0.3,1.7,0.5,3.3,0.7,4.6c-0.2,0.4-0.4,0.8-0.6,1.3
		c-0.8-0.1-1.7-0.1-2.5-0.2C272,283.2,272.8,281.2,273.6,279.3z M274.8,276.5c0.3-0.7,0.6-1.4,0.9-2.1c-0.2,1.1-0.4,2.3-0.6,3.4
		C275,277.4,274.9,277,274.8,276.5z M277.8,267.3c-0.1,0-0.2-0.1-0.3-0.1c0.8-2.5,1.4-5,1.8-7.5c1.8-1.6,4-2.7,6.3-3.3
		C282.1,259,279.6,262.9,277.8,267.3z M296.1,249.5c-0.4-0.6-1.1-0.4-1.4,0.1c-0.7-0.1-1.4-0.1-2.2-0.2c0.1-0.4,0.2-0.7,0.3-1.1
		c2.7,0.1,5.5,0.3,8.2,0.4C299.4,249,297.8,249.3,296.1,249.5z M291.1,245.1c0-0.1,0.1-0.2,0.1-0.4c0.2,0,0.5,0,0.7,0
		c0,0.1-0.1,0.3-0.1,0.4C291.6,245.2,291.4,245.1,291.1,245.1z M272.5,149.2c-4.2-13.3-10.1-26-17.4-37.9c1,1.3,2,2.5,2.8,3.6
		c5.2,7.1,9.2,15.2,11.9,23.6C270.9,142,271.8,145.6,272.5,149.2z M249.5,105.1c-0.2,0.2-0.2,0.5,0,0.9
		c11.1,16.3,19.2,34.2,24.1,53.3c0.1,0.3,0.3,0.5,0.5,0.6c1.4,13.6,0.6,27.5-1.2,41.1c-1.8,13.4-4,26.7-6.4,40.1
		c-2.9-0.1-5.8-0.2-8.7-0.3c1-6.3,1.7-12.5,2-18.9c2.7-12.3,4.3-24.7,4.8-37.2c1.1-11.9,1-23.8-0.2-35.8c1.3,3.4,2.5,6.8,3.6,10.3
		c0.3,1.1,2,0.6,1.7-0.5c-4.1-12.4-9-24.5-15.1-36c-2-3.9-4.1-7.7-6.4-11.4c-1.1-2.2-2.3-4.6-3.7-6.8c5.2,5.8,9.5,12.8,12.6,18.7
		c6.3,11.7,10.6,24.3,14.4,37c0.3,1.1,2,0.6,1.7-0.5c-4.3-14.2-9.2-28.4-16.8-41.2c-3.8-6.4-8.9-14-15.2-19.5
		c0.4,0.1,0.8,0.3,1.2,0.5C245,100.9,247.3,102.9,249.5,105.1z M168.7,249c0,0,0,0.1,0.1,0.1c0,0.1,0,0.3,0,0.4c0,0-0.1,0-0.1-0.1
		C168.7,249.3,168.7,249.1,168.7,249z M174.1,251.8c-0.2-0.5-0.7-0.6-1.1-0.4c-0.2-0.1-0.4-0.2-0.7-0.3c0,0,0,0,0,0
		c0.9-0.6,0.1-2.1-0.9-1.5c0,0,0,0-0.1,0c0,0,0,0,0,0c0.4-0.3,0.9-0.5,1.6-0.5c0.6,0.2,1.1,0.3,1.7,0.5c0,0.1,0.1,0.2,0.1,0.3
		c-0.2,0.7-0.5,1.3-0.6,2C174.2,251.8,174.2,251.8,174.1,251.8z M178.4,254.5c0-0.1,0-0.2-0.1-0.3c0.2,0,0.4,0,0.6,0.1
		c1.6,5.2,3.4,10.3,5.3,15.4c0,0.2,0.1,0.5,0.1,0.7c-2.1-5.1-4.1-10.3-6-15.5C178.4,254.8,178.4,254.6,178.4,254.5z M240.6,324.5
		c1.9,0.1,3.9,0.2,5.8,0.4c-0.8,1-1.7,2-2.5,3c-0.3,0.4-0.2,0.9,0.1,1.2c-1.1-0.1-2.2-0.1-3.2-0.2
		C240.7,327.5,240.7,326,240.6,324.5z M259.3,331.6c-0.1,0.1-0.2,0.2-0.3,0.2c0,0-0.1,0.1-0.1,0.1c-0.4-0.1-0.7-0.3-1.1-0.4
		C258.3,331.6,258.8,331.6,259.3,331.6z M257.8,323.6c-0.2,0-0.4,0.1-0.5,0.2c-0.5,0-1-0.1-1.5-0.1c0.2-0.1,0.4-0.2,0.5-0.4
		c2.2-4.1,4.3-8.1,6.5-12.2c-0.3,4.3-0.6,8.5-1.1,12.7C260.4,323.6,259.1,323.5,257.8,323.6z M268.8,292.8c0.6-2,1.2-4,1.7-6.1
		c0.8,0,1.6,0.1,2.4,0.1c-1.8,3.9-3.7,7.7-5.7,11.6C267.8,296.6,268.4,294.7,268.8,292.8z M282.7,262.7c0.4-0.6,0.9-1.2,1.4-1.9
		c-2.3,6.1-4.8,12.1-7.4,18C277.4,273.1,279.3,267.6,282.7,262.7z M302.1,250.2c1.3-0.3,2.6-0.7,3.9-1.2c-0.2,0.5-0.5,1-0.7,1.4
		c-0.1,0-0.2,0-0.3,0C304,250.3,303.1,250.2,302.1,250.2z M306.7,247.3C306.7,247.3,306.8,247.3,306.7,247.3
		C306.8,247.4,306.8,247.4,306.7,247.3C306.8,247.4,306.7,247.4,306.7,247.3z M306.7,245.1c-3.8-0.2-7.7-0.1-11.5,0.1
		c-0.6,0-1.1,0-1.7-0.1c0-0.2,0.1-0.3,0.1-0.5c2.2,0,4.3,0,6.5,0C302.3,244.7,304.7,244.8,306.7,245.1z M291.9,242.5
		c1.5-5.2,2.7-10.4,3.8-15.7c0.9-2.1,1.7-4.2,2.3-6.4c-1.7,7.5-3.5,14.9-5.5,22.2C292.3,242.6,292.1,242.5,291.9,242.5z
		 M302.7,182.5c0.2,0.8,0.3,1.7,0.5,2.6c-0.2,3.2-0.4,6.4-0.8,9.5C302.6,190.6,302.7,186.5,302.7,182.5z M302.6,174.4
		c0-1.6-0.1-3.3-0.2-4.9c0.4,2.3,0.6,4.7,0.7,7.2C303,176,302.8,175.2,302.6,174.4z M300.6,168c0,0,0,0.1,0,0.1
		c-1.7-5-3.7-9.8-5.9-14.6c-3.8-8.3-8.2-16.3-12.7-24.2c-0.5-0.8-0.9-1.6-1.4-2.4c10.7,12.2,18.5,25.3,21.4,40.5
		C301.6,167,300.6,167.2,300.6,168z M269.6,116.3c-0.8-1.3-1.6-2.6-2.4-3.9c1.6,1.6,3.1,3.2,4.7,4.8
		C271.1,116.9,270.4,116.6,269.6,116.3z M255.3,104.6c-3.8-3.1-8-5.7-12.9-7.3c-3-2-6.2-3.5-9.4-4c-0.3-0.1-0.6-0.3-1-0.4
		c0-0.1,0-0.2,0-0.3c0.9-0.1,1.7-0.3,2.6-0.4c5.1,1.1,10,3.1,14.5,5.8C251.1,99.9,253.4,102.4,255.3,104.6z M238.4,90.3
		c1-0.1,2-0.2,3-0.4c0,0.5-0.1,0.8-0.2,1C240.3,90.6,239.4,90.4,238.4,90.3z M223.5,95.2c-0.1-0.1-0.2-0.2-0.3-0.2
		c0.2-0.1,0.4-0.2,0.6-0.2C223.8,94.9,223.7,95,223.5,95.2z M220,97.1c-0.1-0.2-0.2-0.3-0.4-0.4c0.6-0.3,1.3-0.6,1.9-0.9
		C221,96.2,220.5,96.6,220,97.1z M174,236.2c0.1,1.2,0.3,2.4,0.4,3.6c-0.9-4-1.7-8.1-2.3-12.2C172.6,230.5,173.3,233.4,174,236.2z
		 M172.5,242.5c0.1,0.3,0.2,0.6,0.3,0.8c-0.1,0.1-0.1,0.3-0.1,0.4c0,0,0,0-0.1,0c-0.5,0.1-1,0.3-1.5,0.5c-0.7-0.1-1.3-0.2-2-0.2
		c-0.2-0.4-0.3-0.8-0.5-1.2C169.9,242.7,171.2,242.6,172.5,242.5z M178.3,266.8c0.2-0.3,0.4-0.6,0.1-1c-0.2-0.3-0.5-0.7-0.7-1.2
		c-0.9-3.3-1.8-6.6-2.7-10c0.1-0.4,0.2-0.8,0.3-1.1c0.3,0.1,0.6,0.2,0.9,0.2c3.2,9.3,6.9,18.4,11,27.3c0.2,0.7,0.5,1.3,0.7,2
		c0.1,0.2,0.3,0.4,0.4,0.5c0.2,0.5,0.5,0.9,0.7,1.4c-0.9,0-1.8,0-2.7,0c-1.8-4.4-3.7-8.7-5.9-12.9
		C179.7,270.3,179,268.6,178.3,266.8C178.3,266.8,178.3,266.8,178.3,266.8z M207.2,327.4C207.2,327.4,207.2,327.3,207.2,327.4
		c-0.4-0.7-0.7-1.3-1.1-1.9c0,0,0,0,0,0c0.1-0.1,0.2-0.1,0.3-0.2c0.7,0.7,1.3,1.5,2,2.2C208.1,327.4,207.6,327.4,207.2,327.4z
		 M208.2,324.6c0.7-0.2,1.5-0.3,2.3-0.3c0.7,1.1,1.5,2.3,2.3,3.4c-0.6,0-1.1-0.1-1.7-0.1C210.1,326.6,209.1,325.6,208.2,324.6z
		 M216.9,324.2c3-0.1,6-0.1,9-0.1c1.4,0,2.9,0,4.3,0.1c0,0,0,0,0,0c0.4,0.7,1.1,0.5,1.4,0c1.2,0,2.3,0.1,3.5,0.1
		c0,1.5,0.1,3,0.1,4.4c-6-0.3-12-0.6-18-0.9C217.1,326.7,217,325.4,216.9,324.2z M236.9,324.4c0.2,0,0.4,0,0.6,0c0,0.2,0,0.4,0,0.6
		c0,0.3,0.2,0.5,0.4,0.7c0,0.5,0,1,0,1.4c0,0.7,0.6,0.9,1.1,0.8c0,0.4,0,0.7,0,1.1c-0.7,0-1.3-0.1-2-0.1
		C237,327.3,236.9,325.8,236.9,324.4z M239.1,330.7c0,0.1,0,0.2,0,0.3c-0.5,0-1,0-1.5,0.1c-0.2,0-0.3,0-0.5,0c0-0.2,0-0.3,0-0.5
		C237.7,330.6,238.4,330.6,239.1,330.7z M240.8,330.7c0.4,0,0.8,0,1.1,0.1c-0.4,0-0.8,0-1.1,0C240.8,330.8,240.8,330.8,240.8,330.7z
		 M237.9,351.3C237.8,351.3,237.8,351.3,237.9,351.3c-0.3,0.1-0.6,0.1-0.8,0.1C237.3,351.3,237.6,351.3,237.9,351.3z M262.5,331.8
		c0.5,0,1,0,1.6,0.1c0.3,0,0.5-0.1,0.7-0.3c0.6-0.4,0.4-1.5-0.5-1.6c-0.1,0-0.2,0-0.3,0c0.2-0.2,0.3-0.3,0.5-0.5
		c0.3-0.1,0.7-0.2,1-0.4c1.6,1.8,0.9,3.6-3,3.4C262.5,332.3,262.5,332,262.5,331.8z M265.9,324.7c-0.2-0.1-0.4-0.1-0.6-0.2
		c2.4-3.1,4.8-6.2,7.2-9.3c0.2-0.1,0.3-0.3,0.4-0.5c0,0,0,0,0-0.1c0.5-0.7,1.1-1.4,1.6-2.2c-2.4,4.4-5,8.5-8.1,12.3
		C266.3,324.7,266.1,324.7,265.9,324.7z M282.6,290c-0.7,3.6-1.4,7.2-2.1,10.7c-0.4,0.8-0.7,1.5-1.1,2.3c-1.6,2.2-3.2,4.5-4.9,6.7
		c2.3-7.4,4.6-14.7,6.9-22.1c1.8,0.2,3.5,0.3,5.3,0.5c-1.1,2.2-2.2,4.5-3.3,6.7c0.3-1.5,0.6-2.9,0.8-4.4
		C284.5,289.4,282.9,288.9,282.6,290z M271.5,313.8c-2.6,3.4-5.3,6.8-7.9,10.2c-0.1,0-0.1,0-0.2,0c0.6-5.6,1-11.2,1.3-16.8
		c3.4-6.6,6.7-13.2,9.9-20c0.1,1.1,1.8,1.1,1.7,0c0,0,0,0,0-0.1c1.1,0.1,2.2,0.2,3.3,0.3C277,296.2,274.3,305,271.5,313.8z
		 M276.3,285.4c0-0.6,0-1.1,0-1.7c4-8.6,7.6-17.3,10.8-26.2c0.4-0.3,0.7-0.5,1.1-0.7c0.2-0.1,0.4-0.2,0.6-0.2
		c-2.7,9.7-5.5,19.4-8.5,29C278.9,285.6,277.6,285.5,276.3,285.4z M313.8,223.7c0.7-3.4,1.3-6.9,2-10.3c0.7-3.2,1.3-6.5,1.9-9.7
		c0.8-4,1.5-8,2.2-12c0.3-1.8,0.5-3.6,0.6-5.3c0.6,7.3,0.3,14.6-0.4,21.8c-2.4,10.2-6.5,19.8-9.4,29.9
		C311.9,233.4,312.9,228.6,313.8,223.7z M307.3,145.5c3.4,5.9,6.3,12.1,8.5,18.4C313.2,157.7,310.3,151.6,307.3,145.5z M296.1,128.5
		c5.1,7.4,8.9,15.9,12.7,24.1c-0.6-0.2-1.5,0.5-1.1,1.2c4.2,7.7,8.2,15.5,10.9,23.6c0.4,2,0.6,4.1,0.6,6.2c0,1.7-0.1,3.4-0.3,5.2
		c-0.4,0.1-0.7,0.3-0.8,0.8c-0.9,7.2-2,14.3-3.5,21.4c-0.2,1-0.4,2-0.6,3c-1.5,6.9-3.3,13.8-5.4,20.6c-0.2,0.7,0.5,1.2,1.1,1
		c-0.5,2.4-1.1,4.8-1.7,7.2c-0.4,0-0.8,0.1-1.2,0.1c-3.2,0.1-6.4,0.1-9.7,0.2c-1-0.1-1.9-0.2-2.9-0.3c0.2-0.7,0.4-1.5,0.6-2.2
		c3.6-14.3,7.7-29.6,9.4-44.8c0.1,2.5,0.1,5-0.1,7.5c-0.1,1.1,1.7,1.1,1.7,0c0.4-5.9,0-11.7-0.8-17.5c0.2-5,0.1-10-0.4-14.9
		c-2.2-19.9-13.8-35.9-27.2-50.1c-4.5-4.8-9.1-9.7-14.2-14.2c-1-1.5-2.1-2.9-3.1-4.2c3.7,1.8,7,6.2,9.4,8.7
		c3.2,3.4,6.2,6.8,9.1,10.4c0.7,0.9,1.9-0.4,1.2-1.2c-3.7-4.5-7.6-8.8-11.7-13c2.2,1.3,4.3,2.6,6.5,3.9
		C282.8,115.9,290.7,120.6,296.1,128.5z M225.9,92.8c-1.5,0.4-2.9,0.9-4.4,1.5c0.4-0.4,0.8-0.8,1.2-1.1c1.4-0.4,2.7-0.7,4.1-0.9
		C226.5,92.4,226.2,92.6,225.9,92.8z M215.9,96.9c0.5-0.4,1.1-0.8,1.6-1.2c-0.3,0.2-0.5,0.5-0.8,0.7
		C216.5,96.6,216.2,96.7,215.9,96.9z M169.5,252.5c0.1,0.2,0.1,0.4,0.2,0.6C169.6,253,169.5,252.8,169.5,252.5
		C169.5,252.6,169.5,252.6,169.5,252.5z M207.6,329.4C207.6,329.4,207.6,329.4,207.6,329.4c-0.1-0.1-0.2-0.2-0.3-0.3
		c1,0,2,0.1,3,0.1c0.3,0.3,0.6,0.5,0.8,0.8C209.9,329.9,208.8,329.7,207.6,329.4z M214.1,330.5C214.1,330.5,214.1,330.5,214.1,330.5
		c-0.4-0.3-0.7-0.7-1.1-1.1c0.4,0,0.7,0,1.1,0.1c0.1,0.1,0.2,0.3,0.3,0.4c0.4,0.5,1.1,0.4,1.4,0.1c0,0.2,0,0.5,0.1,0.7
		C215.2,330.6,214.6,330.5,214.1,330.5z M217.4,329.6c6,0.3,12,0.6,17.9,0.9c0,0.2,0,0.4,0,0.6c-6,0.3-11.9,0.2-17.8-0.3
		C217.5,330.4,217.5,330,217.4,329.6z M235.4,332.8c0,0.8,0,1.7,0.1,2.5c0,1.1,1.8,1.1,1.7,0c0-0.9,0-1.7-0.1-2.6
		c0.6,0,1.3-0.1,1.9-0.1c0.1,5.1,0.1,10.2,0.1,15.2c-0.4-0.3-0.8-0.6-1.4-0.7c-0.9-0.2-1.3,0.8-1,1.4c-1-0.1-2.1,0.3-2.5,1.2
		c-4.6,0.3-9.2,0.5-13.8,0.5c0-0.1,0-0.2-0.1-0.3c-0.1-0.3-0.3-0.5-0.5-0.7c-0.9-5.5-1.6-11.1-2.3-16.7
		C223.6,333.1,229.5,333.1,235.4,332.8z M234.3,351.5c0.1,0,0.2,0,0.3,0c0.6,1,1.7,1.6,2.8,1.6c0.7,0,1.3-0.2,1.8-0.6
		c-0.1,5.3-0.2,10.6-0.4,15.9c-2.1-0.5-4.2-1-6.4-1.3c-3-0.4-6.1-0.5-9.1-0.5c-1-4.9-2-9.8-2.8-14.7
		C225,352,229.6,351.8,234.3,351.5z M209.3,372.7c4.4,0,8.8-0.2,13.4-0.6c0.1,0.1,0.1,0.1,0.2,0.2c-3.6,0.2-7.3,0.4-10.9,0.7
		c-0.9,0.1-1.7,0.2-2.6,0.2C209.3,373,209.3,372.9,209.3,372.7z M211.8,374.7c0,0.1-0.1,0.3,0,0.4c0.7,3.3,1.4,6.7,2.2,10
		c0,1.2,0.1,2.4,0.1,3.6c-1.7-4.5-3.1-9.2-4.3-13.9C210.5,374.8,211.1,374.8,211.8,374.7z M213.5,374.7
		C213.5,374.7,213.4,374.7,213.5,374.7c0.1-0.1,0.1-0.1,0.2-0.1c0,0.5,0,0.9,0,1.4C213.6,375.6,213.6,375.1,213.5,374.7z
		 M226.2,391.6c0.3,0.8,0.7,1.7,1,2.5c-0.1,0-0.3,0-0.4,0C226.6,393.3,226.4,392.4,226.2,391.6z M225.4,395.9
		c0.1,0.3,0.1,0.5,0.2,0.8c-1.6-0.2-3.3-0.4-4.9-0.7C222.2,396,223.8,395.9,225.4,395.9z M237.5,395.4c0.5,0,1,0,1.5-0.1
		c0.2,0.8,1.3,0.6,1.6-0.1c1.5-0.1,3-0.2,4.6-0.2c0,0,0,0,0,0.1c0,0.2,0,0.4,0,0.5c-0.1,0.2,0,0.4,0,0.5c-0.3,0.3-0.4,0.7-0.2,1.1
		c-3.6,0.1-7.2,0.1-10.8,0.2c-0.1-0.6-0.3-1.2-0.4-1.8C235,395.5,236.3,395.5,237.5,395.4z M269.5,372.9c-1.2-0.1-2.3-0.1-3.5-0.2
		c0-0.1,0-0.2,0-0.2c1.1-0.3,2.3-0.6,3.4-0.9C269.5,372,269.5,372.4,269.5,372.9z M263.5,367.6c-0.4-0.9-1.1-1.5-2.3-1.2
		c-0.7,0.1-0.7,0.8-0.5,1.3c-1.9,0.1-3.9,0.2-5.8,0.3c-4.8,0.2-9.6,0.4-14.4,0.8c0.2-5.9,0.3-11.7,0.4-17.6c3.7-0.2,7.3-0.4,11-0.7
		c0.2,0.8,0.7,1.5,1.5,1.9c1.3,0.7,2.9,0.4,3.9-0.8c0.4-0.5,0.6-1,0.7-1.5c0.1,0,0.2,0,0.3,0c-0.9,5.4-1.8,10.9-2.9,16.3
		c-0.2,1.1,1.5,1.6,1.7,0.5c1.1-5.6,2.1-11.2,3-16.8c3.8-0.2,7.7-0.5,11.5-0.7c-1.2,6.2-2.3,12.4-3.5,18.5
		C266.5,367.6,265,367.6,263.5,367.6z M260.3,348.2c0.7-4.6,1.4-9.2,2-13.8c0.8,0.1,1.7,0,2.6-0.2c2.8-0.7,4.5-2.2,5.3-4.9
		c0.1-0.3-0.1-0.8-0.4-1c-0.4-0.2-0.7-0.3-1.1-0.5c0.1,0,0.1-0.1,0.2-0.1c0.2,0.1,0.4,0.2,0.6,0.3c0.8,0.4,1.5-0.4,1.3-1
		c0.1,0,0.1,0,0.2,0c0.7,0.1,0.9-0.5,0.8-1c0.4-0.7-0.4-1.7-1.2-1.2c-0.2,0.1-0.4,0.2-0.6,0.3c-0.4-0.1-0.9-0.1-1.3-0.2
		c3.4-4.2,6.2-8.9,8.8-13.8c0.7-1.3,1.4-2.7,2-4c-2.5,13.4-5,26.8-7.5,40.2C268,347.7,264.1,347.9,260.3,348.2z M288.6,288.3
		c0,0,0.1,0,0.1,0c-0.1,0.4-0.2,0.8-0.3,1.2c-0.6,0.9-1.2,1.8-1.8,2.8C287.4,290.9,288,289.6,288.6,288.3z M287.6,286.5
		c-1.9-0.2-3.7-0.4-5.6-0.6c3-9.9,6-19.9,8.7-29.9c0,0,0.1,0,0.1,0c1.7,0.2,3.5,0.6,5.2,1.4c-1.8,7.6-3.5,15.1-5.3,22.7
		C289.6,282.2,288.6,284.3,287.6,286.5z M297.3,259.5c0.5,1.4,0.7,3,0.9,4.3c0,0.3,0.1,0.5,0.1,0.8c-1.4,2.9-2.8,5.7-4.2,8.6
		C295.2,268.6,296.2,264,297.3,259.5z M300,261.2C300,261.2,299.9,261.2,300,261.2c-0.1-0.4-0.2-0.9-0.3-1.3
		c0.2,0.2,0.4,0.4,0.6,0.6C300.2,260.7,300.1,260.9,300,261.2z M302.7,255.7c0-1-0.2-2-0.5-3c0.6,0,1.3,0,2-0.1
		C303.7,253.7,303.2,254.7,302.7,255.7z M285.6,115.8c-6.7-4.7-14.1-8.7-21.3-12.8c0,0,0.1,0,0.1,0c2.3-0.6,4.6-0.3,6.8,0.5
		C276.3,106.9,281.1,111.1,285.6,115.8z M264,101.3c-0.6,0.1-0.7,0.7-0.5,1.2c-0.1,0-0.1-0.1-0.2-0.1c-1.1-0.9-2.2-1.6-3.5-2.1
		c-0.9-0.6-1.8-1.1-2.8-1.7c-2.3-2.5-4.4-4.2-6.1-4.7c0.6,0,1.3,0.1,1.9,0.1c5,1.5,9.9,3.9,14.6,6.8
		C266.3,100.9,265.2,101,264,101.3z M249.3,93.9c-0.1,0-0.2,0.1-0.3,0.1c-0.1,0-0.1-0.1-0.2-0.1C249,93.9,249.1,93.9,249.3,93.9z
		 M240.4,87.3c-0.4-0.2-0.9-0.4-1.4-0.6C239.6,86.8,240,87,240.4,87.3z M225.8,87.9c0.6-0.1,0.9-0.6,0.8-1.1c1.5,0.5,3,0.8,4.6,0.8
		c0.2,0,0.5,0,0.7,0c0,0.4,0,0.9,0.1,1.3c-1.2,0.1-3.1,0.2-4.7,0.2c-0.2-0.3-0.7-0.6-1.2-0.3c-0.1,0.1-0.3,0.1-0.4,0.2
		c-0.4-0.1-0.7-0.2-0.9-0.3c0-0.2,0-0.5,0-0.7C225.3,88,225.6,87.9,225.8,87.9z M164.1,151.3c-1.2,1.8-2.4,3.7-3.5,5.5
		c0-0.1,0.1-0.2,0.1-0.3c2.7-6.2,6-12.2,10.1-17.7c3.3-4.5,6.9-8.8,10.7-12.8C175.1,133.9,169.4,142.5,164.1,151.3z M157.9,214.3
		c0.1,0.5,0.2,1,0.3,1.5c-0.2-0.4-0.3-0.9-0.5-1.3C157.7,214.5,157.8,214.4,157.9,214.3z M166.6,243.8c-0.3,0-0.6-0.1-1-0.1
		c0-0.1-0.1-0.2-0.1-0.3c0.3-0.1,0.5-0.1,0.8-0.2C166.4,243.4,166.5,243.6,166.6,243.8z M163,245.1c0.1,0,0.2,0,0.2,0
		c0.1,0.1,0.1,0.3,0.2,0.4c-0.2,0-0.4,0-0.6,0c-0.1-0.1-0.1-0.3-0.1-0.4c0,0,0-0.1,0-0.1C162.9,245.1,162.9,245.1,163,245.1z
		 M183.6,283.6c-0.7-1.5-1.4-3.1-2.2-4.6c-0.1-0.4-0.2-0.8-0.3-1.2C181.9,279.7,182.8,281.6,183.6,283.6z M201,321.9
		c-0.5,0-1,0-1.5,0c-1.1,0-1.1,1.7,0,1.7c0.8,0,1.7,0,2.5,0c0,0.2,0.1,0.4,0.1,0.6c-0.3,0.3-0.6,0.6-0.8,0.9
		c-0.2,0.3-0.1,0.8,0.1,1.1c0.4,0.4,0.9,0.8,1.3,1.1c0.1,0.3,0.1,0.7,0.2,1c-0.4-0.1-0.8-0.2-1.1-0.3c-1.1-0.3-1.5,1.4-0.5,1.7
		c0.7,0.2,1.3,0.3,2,0.5c1.3,6.5,2.6,13,4,19.5c-3.8-0.4-7.7-0.9-11.5-1.7c-3.4-20.4-7.5-40.8-12.3-60.9
		C189,298.8,194.9,310.4,201,321.9z M205,330.7c0.3,0.1,0.5,0.1,0.8,0.2c0.2,0.3,0.3,0.6,0.5,1c0.5,0.9,1.7,0.3,1.6-0.5
		c2.7,0.5,5.4,0.9,8.1,1.2c0.6,5.2,1.3,10.4,2.1,15.6c-0.3-0.1-0.5-0.1-0.8-0.1c-0.5-0.1-1-0.1-1.5,0.1c-1.2,0.3-2.4,1-3,2.1
		c-1.3-0.1-2.6-0.1-3.8-0.2C207.6,343.5,206.3,337.1,205,330.7z M212.9,351.9C212.9,351.9,212.9,351.9,212.9,351.9
		c1.2,0.8,2.7,1.3,4.1,0.7c0.3-0.1,0.6-0.3,0.9-0.6c0.3,0,0.5,0,0.8,0c0.8,4.9,1.8,9.9,2.8,14.8c-1.4,0-2.9,0.1-4.3,0.2
		c-1.5-0.1-3-0.3-4.5-0.4c-1.1-5-2.2-9.9-3.3-14.9C210.5,351.8,211.7,351.8,212.9,351.9z M206.8,367.7c-0.7,0-4.6,0.5-7.6,0.8
		c0.2-0.2,0.3-0.6,0.2-0.9c2.4-0.2,5-0.1,7.5,0.1C206.9,367.7,206.9,367.7,206.8,367.7z M196.6,372c3.7,0.4,7.3,0.7,10.9,0.7
		c0,0.1,0,0.3,0,0.4c0,0.1,0,0.2,0.1,0.3c-2.1,0.2-4.1,0.4-6.2,0.6c-1.3,0.1-2.7,0.3-4,0.5C197.1,373.6,196.9,372.8,196.6,372z
		 M213.7,392.6c0.2,0.6,0.8,0.7,1.3,0.5c0.5,0,0.9-0.2,0.9-0.8c0-0.2,0-0.4,0-0.5c0.5,0.1,1.2-0.3,1.1-1.1c-0.4-1.9-0.8-3.8-1.2-5.7
		c-0.1-2.6-0.1-5.1-0.2-7.7c1,4.9,2.3,9.7,4,14.5c0.3,0.9,1.6,0.7,1.7-0.1c0.1,0.7,0.3,1.4,0.4,2.1c0,0.2,0.1,0.3,0.2,0.4
		c-3.6,0.1-7.3,0.3-10.9,0.6c-0.1,0-0.2,0-0.4,0c-0.1-0.4-0.2-0.8-0.3-1.1c0.4-0.1,0.7-0.5,0.6-1c-0.1-0.7-0.2-1.3-0.3-2
		c0.3-0.3,0.4-0.8,0-1.2c-0.1-0.1-0.2-0.2-0.2-0.3c-0.5-3.2-0.9-6.4-1.1-9.6C210.5,384.1,211.9,388.4,213.7,392.6z M201.8,397.4
		c0.2,0.2,0.4,0.2,0.7,0.2c0.6-0.1,1.1-0.2,1.7-0.2c0,0.1,0.1,0.2,0.2,0.3c-0.9,0-1.7,0-2.6,0C201.8,397.6,201.8,397.5,201.8,397.4z
		 M205.9,397.2c1.6-0.2,3.3-0.4,4.9-0.5c2.7,0.2,5.3,0.6,7.9,1c-4.4,0-8.7,0.1-13.1,0.1C205.9,397.6,205.9,397.4,205.9,397.2z
		 M229.6,397.2c0.3-0.2,0.5-0.6,0.3-1.1c-0.1-0.1-0.1-0.3-0.2-0.4c0.8,0,1.5,0,2.3-0.1c0.1,0.6,0.2,1.2,0.4,1.8c-0.1,0-0.3,0-0.4,0
		C231.2,397.4,230.4,397.3,229.6,397.2z M270.1,367.9c-0.1,0-0.3,0-0.4,0c1.2-5.9,2.3-11.9,3.4-17.8c0.3,0.3,0.6,0.6,1,0.8
		C272.8,356.5,271.5,362.2,270.1,367.9z M276.2,349.6C276.2,349.6,276.2,349.6,276.2,349.6C276.2,349.6,276.2,349.6,276.2,349.6
		C276.2,349.6,276.2,349.6,276.2,349.6z M275,347.2c-0.5,0-0.9,0.1-1.4,0.1c2.8-15,5.6-30,8.4-45c1.8-2.5,3.6-5.1,5.2-7.7
		C283.2,312.2,279.1,329.7,275,347.2z M295.6,277c-1.3,2.6-2.8,5.1-4.2,7.7c0.3-1.3,0.6-2.6,0.9-3.9c0.5-1,1-2,1.5-3
		c1.6-3.2,3.2-6.4,4.7-9.6c0,1.1-0.1,2.2-0.2,3.3C297.5,273.3,296.6,275.1,295.6,277z M300.1,264.9c1.3-2.6,2.5-5.1,3.8-7.7
		c-1.1,3.4-2.4,6.8-3.8,10.2C300.1,266.5,300.1,265.7,300.1,264.9z M311.5,244.5c-0.2,0-0.3,0-0.5-0.1c0-0.1,0-0.2,0-0.2
		C311.3,244.3,311.4,244.4,311.5,244.5z M272.3,101.9c-0.2-0.1-0.4-0.1-0.5-0.2c-0.9-0.6-1.8-1.2-2.8-1.8c-2.1-1.3-4.3-2.5-6.5-3.5
		C265.9,97.8,269.2,99.7,272.3,101.9z M245.6,92.4C245.6,92.4,245.5,92.4,245.6,92.4C245.6,92.4,245.6,92.4,245.6,92.4
		C245.6,92.4,245.6,92.4,245.6,92.4z M237.2,84.5c0.6,0.1,1.5,0.3,2.2,0.7c-0.5,0-0.9,0-1.4,0.1c-1,0.1-1.9,0.2-2.8,0.3
		c-0.5-0.2-1.1-0.3-1.6-0.5c0-0.2,0-0.5,0-0.7C234.8,84.2,236,84.2,237.2,84.5z M230.9,73.2c0-1.9-0.2-3.8-0.4-5.8
		c0.6,1.8,0.8,3.9,0.8,5.9C231.2,73.3,231.1,73.2,230.9,73.2z M230.9,75.6c0.2,0,0.3-0.1,0.5-0.1c0,0.4,0,0.7,0,1.1
		c-0.2,0.1-0.4,0.1-0.6,0.2C230.9,76.4,230.9,76,230.9,75.6z M227,76.6c-0.3-0.6,0.7-1.3,1.1-1.5c0.2-0.1,0.4-0.1,0.6-0.2
		c-0.1,0.4,0.2,0.8,0.6,1c0,0.4,0,0.7,0,1.1C228.2,77.1,227.2,77,227,76.6z M230.7,78.6c0.3,0,0.5-0.1,0.7-0.2
		c0.1,1.5,0.2,3,0.2,4.4c-0.5,0.1-1,0.2-1.5,0.3C230.4,81.6,230.6,80.1,230.7,78.6z M210.8,97.9c-5.2,3.7-10.1,7.8-14.6,12.3
		c-12,10.1-23,21.2-31.1,34.3c3.9-7.5,8.7-14.6,14.2-21C188,113.4,198.8,104,210.8,97.9z M153.5,207.7c2,7.2,5.1,14.2,7.9,21.2
		c0,0.1,0.1,0.2,0.1,0.3c1.3,4.3,2.7,8.6,4.3,12.8c-0.3,0.1-0.6,0.1-0.9,0.2c-1.6-3.8-3.2-7.5-4.7-11.3c-0.3-0.8-1.3-0.7-1.6-0.2
		C156.2,223.2,154.4,215.5,153.5,207.7z M176.6,268.7c0.2,0.4,0.4,0.7,0.6,1.1c0.1,0.2,0.1,0.4,0.2,0.6
		C177.2,269.8,176.9,269.3,176.6,268.7z M192.7,350.6c-0.1,0-0.3,0-0.4-0.1c-0.1,0-0.1-0.1-0.2-0.1c-0.2-0.3-0.4-0.9-0.4-1.2
		c0-0.1,0-0.2,0.1-0.2c0.1,0,0.2,0,0.2,0.1c0.1,0.7,1.1,1,1.6,0.4c0.1,0,0.1,0,0.2,0C193.9,350,193.6,350.6,192.7,350.6z M196,349.9
		c3.8,0.8,7.7,1.3,11.6,1.7c1.1,5,2.2,10,3.3,15c-0.6,0-1.2-0.1-1.7-0.1c-3.1-0.1-6.9-0.4-10.6-0.1
		C197.7,360.8,196.9,355.3,196,349.9z M194.9,372.3c0.3,0.8,0.5,1.6,0.8,2.3C193.6,374.9,193.4,374.1,194.9,372.3z M200,384.5
		c-0.6-2.8-1.3-5.6-2.1-8.4c1.3-0.2,2.6-0.4,3.5-0.5c2-0.2,4-0.4,6-0.6c-0.1,0.1-0.2,0.3-0.2,0.5c0.1,3.8,0.5,7.5,0.9,11.2
		c-0.1-0.1-0.1-0.2-0.2-0.3c-1-3.2-2-6.5-3-9.7c-0.1-0.4-0.5-0.6-0.8-0.6c-0.2-1-1.8-1-1.7,0.1c0.2,1.6,0.5,3.2,1,4.8
		c-0.2-0.1-0.4-0.1-0.6-0.1c-0.1-0.9-0.1-1.8-0.1-2.6c0-0.6-0.5-0.9-1-0.8c-0.4,0-0.8,0.1-0.9,0.6c0,0.2-0.1,0.4-0.1,0.5
		c-0.1-0.4-0.2-0.8-0.3-1.3c-0.2-1.1-1.9-0.6-1.7,0.5c0.4,2,0.9,4,1.5,6c0.1,3.4,1.1,6.8,2.9,9.8c0,0.1,0.1,0.1,0.1,0.1
		c0,0.2,0.1,0.3,0.1,0.5c-0.6,0-1.3,0-1.9,0.1C201,390.4,200.2,385.3,200,384.5z M199.7,397.1c0.1,0.2,0.1,0.4,0.2,0.7
		c-0.1,0-0.3,0-0.4,0c-0.3,0-0.5,0.1-0.6,0.3C198.2,397.8,198.4,397.5,199.7,397.1z M216.2,399.7c-2.7-0.1-6-0.1-9.2-0.3
		c8.3,0,16.7-0.1,25-0.2c0.2,0,0.5,0,0.8,0.1c0,0.2,0.1,0.3,0.1,0.5c-1.2,0-2.5,0.1-3.7,0.1C224.9,399.9,220.5,399.9,216.2,399.7z
		 M270.1,399c-0.9,1-4.3,0.9-7.5,0.6c0.3-0.1,0.7-0.2,1-0.3c1.5-0.1,2.9-0.3,4.4-0.4C269.1,399,270.1,399.1,270.1,399z M272.3,396.7
		C272.3,396.7,272.3,396.7,272.3,396.7C274.9,396.1,277.8,396,272.3,396.7z M291.3,358.8c-0.2,0.1-0.4,0.2-0.6,0.3
		c2.5-2,5.1-3.8,7.7-5.6c0.7-0.4,1.5-0.8,2.2-1.2c0.8-0.5,1.7-0.9,2.5-1.4c-1.7,1.4-3.4,2.7-5.2,3.9c-0.6-0.7-1.8,0-1.4,1
		C294.8,356.9,293.1,357.9,291.3,358.8z M306.9,365c0.2-0.1,0.3-0.3,0.4-0.5c0.5,0.3,1,0.7,1.6,1c0.3,0.2,0.6,0.1,0.8,0
		c1,0.9,2.1,1.8,3.2,2.7c0.9,0.7,2.1-0.5,1.2-1.2c-3.4-2.7-6.4-5.7-9-9.2c1.5,1.3,2.9,2.6,4.2,4c0.6,0.6,1.4,0.1,1.5-0.6
		c2.3,2.2,4.7,4.4,7.1,6.6c0.8,0.7,2.1-0.5,1.2-1.2c-4.8-4.2-9.4-8.6-13.8-13.2c0.2-0.1,0.4-0.3,0.6-0.4c0,0.2,0,0.5,0.2,0.7
		c2.9,3.3,5.9,6.4,9.3,9.2c2.6,2.2,9.5,5.3,10.2,8.6c0.8,3.2-3.2,7.6-5.3,9.3c-1.1,0.9-2.6,1.4-3.6,2.4c0-1.8,1.4-3.3,1-6.2
		C317.1,370.8,311.8,368,306.9,365z M354.4,422.4c-0.5-0.7-0.9-1.4-1.4-2.1c0.6,0.7,1.2,1.3,1.8,2
		C354.7,422.3,354.5,422.4,354.4,422.4z M354.5,424.3c0.2,0.3,0.4,0.6,0.6,0.9c-0.2-0.3-0.5-0.6-0.7-0.8
		C354.3,424.3,354.4,424.3,354.5,424.3z M333.7,413.1c-2-2.2-3.1-5.2-4-8c0,0,0-0.1,0-0.1c0.5-0.8,0.9-1.6,1.2-2.5
		c0.7,3.6,3.5,5.7,7,7.2c1.5,0.6,2.9,1.2,4.2,1.8c-0.8,0-1.4,1.2-0.5,1.6c0.2,0.1,0.4,0.2,0.6,0.3c-0.7-0.1-1.4-0.2-2.1-0.1
		c-1.1,0.1-1.1,1.9,0,1.7c2.4-0.3,4.8,0.9,5.8,3.1c-0.7-0.3-1.3-0.6-2-0.8C340.3,416.3,336.6,416.1,333.7,413.1z M347.7,419.1
		c0.2-0.2,0.3-0.5,0.2-0.8c-0.2-0.6-0.6-1.2-1-1.7c2,1.6,3.8,3.6,5.4,5.7C350.9,421,349.4,420,347.7,419.1z M356.9,428
		c0.4,0.6,0.8,1,0.9,1c-0.1,0-0.2,0-0.3,0.1C357.3,428.8,357.1,428.4,356.9,428z"/>
</g>
</svg>
