<?xml version="1.0" encoding="utf-8"?>
<!-- Generator: Adobe Illustrator 18.1.0, SVG Export Plug-In . SVG Version: 6.00 Build 0)  -->
<!DOCTYPE svg PUBLIC "-//W3C//DTD SVG 1.1//EN" "http://www.w3.org/Graphics/SVG/1.1/DTD/svg11.dtd">
<svg version="1.1" id="Layer_1" xmlns="http://www.w3.org/2000/svg" xmlns:xlink="http://www.w3.org/1999/xlink" x="0px" y="0px"
	 viewBox="0 0 400 400" enable-background="new 0 0 400 400" xml:space="preserve">
<rect x="0.4" y="-0.6" fill="#F2EFDC" width="399.6" height="399.6"/>
<rect x="-410.6" fill="#17A186" width="399.6" height="399.6"/>
<g>
	<g>
		<path fill="#F0EDE5" d="M-94.2,291.7h-236.4c-1.3,0-2.4-1.1-2.4-2.4V110.4c0-1.3,1.1-2.4,2.4-2.4h236.4c1.3,0,2.4,1.1,2.4,2.4
			v178.9C-91.7,290.6-92.8,291.7-94.2,291.7z"/>
	</g>
	<g>
		<g>
			<path fill="#F26350" d="M-139,214.9l-5.2,5.5c-1.1,1.2-3,1.2-4.4-0.1c-1.3-1.2-1.5-3.2-0.4-4.4l5.2-5.5l-6-5.6
				c-1.4-1.3-1.5-3.3-0.4-4.5s3.2-1.2,4.5,0.1l6,5.6l5.2-5.5c1.1-1.2,3.1-1.1,4.4,0.1c1.3,1.3,1.5,3.2,0.4,4.4l-5.2,5.5l6,5.6
				c1.4,1.3,1.5,3.3,0.4,4.5c-1.2,1.2-3.2,1.2-4.5-0.1L-139,214.9z"/>
		</g>
	</g>
	<g>
		<path fill="#7CCFD6" d="M-313.4,212.5v64.8h204V227c0,0-26,9.8-39.7,10.3c-9,0.3-21.1-12.2-28.2-20.6c-3.7-4.3-9.2-1-16.2-2.3
			c-7.8-1.5-11.9,1.8-15.3,6.3c-3.4,4.5-11.9-1.3-16.4,2.4c-3,2.5-4,12.9-9.6,12.5c-10.4-0.7,0.1-16.9-2.5-21.1
			c-2.2-3.6-20.3,8-27.7,7c-2.5-0.3,9.2-11.1,1.8-12.7c-12.1-2.6-10.7-9-25.4-12.5c-14.7-3.5-14.6-2-21.8-2.4
			C-317.6,193.6-313.4,212.5-313.4,212.5z"/>
	</g>
	<path fill="#FFFFFF" d="M-147.5,170.6l-4.2-27.7l42.9-12.2l-1.4-4.8l-42.3,12l-2.6-17.3l-4.9,0.8l2.7,17.9l-56.2,15.9l-2-13.3
		l32.3-15.7l-2.2-4.5l-30.9,15l-2.3-14.9l-4.9,0.8l2.5,16.4l-62.9,30.6l-5.5-22.8l46-22.4l-2.2-4.5l-45.1,21.9l-4.9-20.3l-4.9,1.2
		l5.2,21.4l-24.4,11.9l2.2,4.5l23.5-11.4l5.5,22.8l-31.2,15.2l2.2,4.5l4.4-2.2l0.1,1.1l204-18.5l-0.5-5L-147.5,170.6z M-156.5,144.3
		l4.1,26.8l-57.8,5.2l-2.4-16L-156.5,144.3z M-220.2,144.3l4.9,32.4l-87.9,8L-220.2,144.3z"/>
	<g>
		<path fill="#F3B94C" d="M-229.1,196.9c-0.6,0-1.2,0-1.7-0.1c-1.3-0.1-2.3-1.2-2.2-2.5s1.3-2.3,2.5-2.2c1.9,0.1,3.7,0,5.6-0.4
			c1.3-0.3,2.5,0.5,2.8,1.8s-0.5,2.5-1.8,2.8C-225.6,196.7-227.3,196.9-229.1,196.9z M-211.6,190.4c-0.8,0-1.5-0.4-2-1.1
			c-0.7-1.1-0.4-2.6,0.7-3.3c1.8-1.2,3.6-2.5,5.1-3.6c1.1-0.8,2.5-0.5,3.3,0.5c0.8,1.1,0.5,2.5-0.5,3.3c-1.5,1.1-3.4,2.4-5.3,3.7
			C-210.7,190.3-211.1,190.4-211.6,190.4z M-241.8,189.6c-0.9,0-1.7-0.5-2.1-1.3c-0.8-1.7-1.6-3.7-2.4-6.2c-0.4-1.2,0.3-2.6,1.6-3
			c1.2-0.4,2.6,0.3,3,1.6c0.7,2.3,1.4,4.1,2.1,5.6c0.6,1.2,0.1,2.6-1.1,3.2C-241.1,189.5-241.4,189.6-241.8,189.6z M-139.7,187.4
			c-1.1,0-2.1-0.8-2.3-2c-0.3-2-0.8-3.9-1.5-5.6c-0.5-1.2,0.2-2.6,1.4-3c1.2-0.5,2.6,0.2,3,1.4c0.8,2,1.3,4.2,1.7,6.5
			c0.2,1.3-0.7,2.5-2,2.7C-139.5,187.4-139.6,187.4-139.7,187.4z M-194.7,178.7c-0.8,0-1.6-0.4-2-1.1c-0.7-1.1-0.3-2.6,0.8-3.3
			c1.9-1.1,3.7-2.2,5.6-3.2c1.2-0.6,2.6-0.2,3.2,1c0.6,1.2,0.2,2.6-1,3.2c-1.8,0.9-3.6,2-5.3,3.1
			C-193.9,178.6-194.3,178.7-194.7,178.7z M-150.1,170.6c-0.4,0-0.8-0.1-1.2-0.3c-1.6-0.9-3.3-1.6-5.2-2c-1.3-0.3-2.1-1.6-1.8-2.8
			c0.3-1.3,1.5-2.1,2.8-1.8c2.4,0.5,4.6,1.4,6.5,2.5c1.1,0.6,1.5,2.1,0.9,3.2C-148.5,170.2-149.3,170.6-150.1,170.6z M-176.2,170
			c-1,0-1.9-0.6-2.3-1.7c-0.4-1.2,0.3-2.6,1.6-3c2.2-0.7,4.3-1.2,6.4-1.6c1.3-0.3,2.5,0.6,2.8,1.9c0.2,1.3-0.6,2.5-1.9,2.8
			c-1.9,0.4-3.9,0.9-5.9,1.5C-175.7,170-176,170-176.2,170z M-247.8,170c-1,0-2-0.7-2.3-1.7c-0.6-2.2-1.3-4.1-1.9-5.9
			c-0.4-1.2,0.2-2.6,1.4-3s2.6,0.2,3,1.4c0.7,1.8,1.3,3.8,2,6.2c0.4,1.3-0.4,2.6-1.6,2.9C-247.3,170-247.6,170-247.8,170z
			 M-315.4,163.2c-0.3,0-0.6-0.1-0.9-0.2c-1.2-0.5-1.8-1.9-1.2-3.1c0-0.1,1.1-2.6,3.8-5.9c0.8-1,2.3-1.1,3.3-0.3s1.1,2.3,0.3,3.3
			c-2.2,2.6-3.1,4.7-3.1,4.7C-313.6,162.7-314.5,163.2-315.4,163.2z M-256.6,151.7c-0.7,0-1.3-0.3-1.8-0.8c-1.3-1.5-2.7-2.7-4.3-3.6
			c-1.1-0.7-1.5-2.1-0.8-3.3c0.7-1.1,2.1-1.5,3.3-0.8c1.9,1.2,3.7,2.7,5.3,4.5c0.9,1,0.8,2.5-0.2,3.3
			C-255.4,151.5-256,151.7-256.6,151.7z M-300.9,149.2c-0.9,0-1.7-0.5-2.1-1.3c-0.6-1.2-0.1-2.6,1-3.2c1.9-1,4-1.9,6.1-2.6
			c1.2-0.4,2.6,0.3,3,1.5s-0.3,2.6-1.5,3c-1.9,0.6-3.8,1.4-5.5,2.3C-300.2,149.1-300.5,149.2-300.9,149.2z M-281.2,144.2
			c-1.3,0-2.3-1-2.4-2.2c-0.1-1.3,0.9-2.4,2.2-2.5c2.1-0.1,4.2-0.1,6.5,0c1.3,0.1,2.3,1.2,2.3,2.5c-0.1,1.3-1.2,2.4-2.5,2.3
			c-2.1-0.1-4.2-0.1-6.1,0C-281.1,144.2-281.2,144.2-281.2,144.2z"/>
	</g>
	<g>
		<path fill="#5A5D67" d="M-109.4,280.5h-206c-1.7,0-3.2-1.4-3.2-3.2v-155c0-1.7,1.4-3.2,3.2-3.2h206c1.7,0,3.2,1.4,3.2,3.2v155.1
			C-106.3,279.1-107.7,280.5-109.4,280.5z M-312.3,274.2h199.7V125.4h-199.7V274.2z"/>
	</g>
	<g opacity="5.000000e-02">
		<rect x="-212.2" y="108.2" fill="#696866" width="120.6" height="183.7"/>
	</g>
</g>
<path fill="#231F20" d="M750.2-160.5c-0.1-0.6-0.7-1.1-1.3-1.2l-5.5-0.4l4-6c0.5-0.7,0.3-1.6-0.4-2.1c-0.4-0.3-0.9-0.3-1.3-0.2
	c-0.4-0.1-0.8,0-1.2,0.2c-5.4,3.3-11.4,7.1-18,7.3c-2.4,0.1-4.8-0.3-7.3-0.7c-2.4-0.4-4.9-0.7-7.4-0.7c-8,0.1-16,4.7-21.1,11.9
	c-15.5-9.3-32.5-19-49.5-25.6c-0.1-0.6-0.3-1.2-0.4-1.8c-0.4-1.6-1.6-1.8-2-1.8l0,0c-0.7,0-1.4,0.5-1.6,1.2c-0.1,0.3-0.1,0.6,0,0.9
	c-9.7-3.5-19.4-5.8-28.7-6.4c-10.6-0.7-21.6,0.6-32.9,3.6c-3.4,0.9-6.8,2-10.1,3.3c0.1-0.4,0.1-0.7-0.1-1.1c-0.4-0.8-1.2-1.1-2-0.7
	c-1.9,0.9-3.5,2.5-4.6,4.5c-15.8,7-30.2,17.6-41.5,30.6c-0.1,0.1-0.2,0.2-0.2,0.4c0,0,0,0,0,0.1c-0.1,0.2-0.1,0.3-0.1,0.5
	c0,0,0,0,0,0.1c0,0.2,0,0.3,0.1,0.5c0,0,0,0,0,0.1c0.1,0.2,0.2,0.3,0.3,0.4l0,0c0.6,0.6,1.1,1.1,1.7,1.7c0,0.4,0.1,0.9,0.5,1.2
	c26.6,24.7,44.2,59.3,48.5,95.4c-3.1,0.1-6,0.1-8.7,0.2h-0.1c-0.1,0-0.1,0-0.2,0H559h-0.1c0,0-0.1,0-0.1,0.1c0,0-0.1,0-0.1,0.1
	l-0.1,0.1l-0.1,0.1l-0.1,0.1c0,0,0,0-0.1,0.1l0,0c0,0.1-0.1,0.1-0.1,0.2v0.1c0,0,0,0.1,0,0.2v0.1v0.1c0,0.1,0,0.1,0,0.2l0,0v0.1
	c0,0.1,0,0.1,0,0.2v0.1v0.1c0,0,0,0.1,0.1,0.1c0,0,0,0.1,0.1,0.1c0,0.1,0.1,0.1,0.1,0.1s0,0.1,0.1,0.1c0.1,0.1,0.2,0.2,0.3,0.2
	c2.3,1.6,4.1,3.9,5.8,6.1c2,2.5,4,5,6.7,6.6c0,0.1,0.1,0.3,0.1,0.4l3.8,6.6c0.3,0.5,0.7,1.2,1.5,1.7s1.7,0.5,2.2,0.5l62.1,0.4l0,0
	c0.6,0,1.1-0.4,1.4-0.9l3.1-7.2l0,0l7.3-16.7l12.7-0.4c0,0.1,0,0.2,0.1,0.4l4.3,10.4c2,4.9,4.1,9.9,7.1,14.5c1.3,2,2.8,3,4.4,3
	c0.4,0,0.7-0.1,1.1-0.2c1.9-0.6,2.7-2.6,2.6-4.3c-0.1-1.5-0.9-2.8-1.5-3.8c-4-6.8-8.2-13.8-13.1-20.3l10.9-13.2
	c1.5-1.8,3.3-4,3.6-6.9c0.2-1.4-0.3-2.8-1.1-3.8c-0.6-0.7-1.5-1.1-2.4-1.1l0,0c-2,0-3.2,1.8-3.7,2.6c-3.8,5.9-7.7,12-10.4,18.7
	c-0.5-0.2-1.1-0.2-1.6,0.2c-0.3,0.2-0.4,0.5-0.5,0.8l-16.6,0.5c-0.2,0-0.3,0-0.5,0.1c-2.4,0.1-6,0.2-10.4,0.4
	c4.1-35.6,21.2-70,47.2-94.7c2.6-2.1,5.1-4.4,7.5-6.7c0.1-0.1,0.2-0.2,0.3-0.3l0.1-0.1c0.3,0,0.5-0.1,0.7-0.3
	c4.8-3.4,11.1-4.5,16.8-3c1.5,0.4,2.9,1,4.4,1.6c2.7,1.1,5.6,2.2,8.7,2.3c0.1,0,0.2,0,0.3,0c3.1,0,6.1-1,8.8-2.1
	c5.9-2.3,11.7-5.1,17.2-8.2C750-159.2,750.3-159.8,750.2-160.5z M684.4-145.8c-0.2,0.1-0.4,0.2-0.5,0.3c-0.4,0.4-0.9,0.8-1.3,1.2
	c-5.1,4.2-10.7,7.8-16.7,10.8c-6.4,3.2-13.5,6-22,8.4c5.5-9,10.8-17.7,12.2-20.1c10.1-0.8,20.4-1.7,30.7-2.8
	C686.1-147.2,685.2-146.5,684.4-145.8z M615.2-46.6c-3.3,0.1-6.6,0.2-10.1,0.3c0.7-6.6,3.6-33.2,4.4-54.4c1.3-5.5,3.8-10.8,7.1-15.3
	c2.8-0.4,5.6-0.9,8.4-1.4c1,3.4,2.2,6.8,3.4,10.4c0.1,0.2,0.2,0.4,0.4,0.6c-3.8,19-8.1,38.1-13.6,59.5
	C615.2-46.8,615.2-46.7,615.2-46.6z M583.3-45.6c-3.2-13.8-4.3-27.2-5.3-40.1c-0.6-7.7-1.2-15.2-2.2-22.7c0.3-2.4,0.6-4.8,0.9-7.2
	c0.1,0,0.1,0,0.2,0c5.8,0.8,11.7,1.2,17.8,1.2c1.5,0,3,0,4.5-0.1l0,0c1,2.6,2.4,5.1,3.7,7.5c1.3,2.3,2.6,4.8,3.5,7.2l0,0l0,0l0,0
	l0,0c-0.9,21.3-3.8,47.8-4.4,53.4C595.8-46,589.4-45.8,583.3-45.6z M522.2-143c9.1,0.3,18,0.6,26.7,0.8l12.3,20.1
	C546.2-126.5,532.1-134,522.2-143z M552.4-142.1c3.8,0.1,7.6,0.1,11.4,0.1c3.3,7.5,5.5,14.9,7.1,22.3c-1.9-0.4-3.7-0.8-5.6-1.3
	L552.4-142.1z M627.2-120.8c-2.2-7.4-4-14.6-5.6-22.1c4.6-0.2,9.2-0.4,13.9-0.7c-1.2,7.4-2.4,14.7-3.7,21.8
	C630.2-121.5,628.7-121.2,627.2-120.8z M631.2-118.6c-0.4,2.2-0.8,4.4-1.2,6.6c-0.7-2-1.3-4-1.9-5.9
	C629.1-118.2,630.1-118.4,631.2-118.6z M618.5-142.8c1.6,7.7,3.4,15,5.7,22.6c-5.5,1-10.9,1.8-16.1,2.3c0,0,0,0-0.1,0
	c-0.1,0-0.1,0-0.2,0c-10.7,1-20.8,0.8-30.5-0.5c-0.1,0-0.1,0-0.2,0c1.1-7.8,2.5-15.7,4.1-23.4C593.9-142,606.3-142.3,618.5-142.8z
	 M606.7-114.9c0.1,2.6,0.1,5.6,0,8.7c-0.4-0.7-0.8-1.4-1.1-2.1c-1.1-2-2.2-4.2-3.2-6.3C603.9-114.6,605.3-114.7,606.7-114.9z
	 M609.7-115.1c1-0.1,2-0.2,3-0.3c-1.1,1.7-2.1,3.5-2.9,5.3C609.8-111.9,609.8-113.6,609.7-115.1z M574.2-119L574.2-119
	c-1.6-7.6-3.8-15.2-7.1-22.9c2.2,0,4.4,0,6.6,0c1.5,0,3,0,4.5,0C576.6-134.4,575.3-126.7,574.2-119z M571.5-116.4
	c0.5,2.6,0.9,5.1,1.2,7.7l-5.2-8.6C568.9-117,570.2-116.7,571.5-116.4z M634.4-119.4c1-0.2,2.1-0.5,3.1-0.8c-1.5,2.5-3,4.9-4.3,7
	C633.6-115.2,634-117.3,634.4-119.4z M638.5-123.5c-1.2,0.3-2.4,0.6-3.6,0.9c1.2-7,2.4-14,3.5-21.2v-0.1c4.6-0.3,9.3-0.6,14-1
	c-2.5,4.1-7.7,12.7-12.8,21C639.3-123.7,638.9-123.6,638.5-123.5z M686.9-151c-16.1,1.7-31.9,3.1-47.6,4c3-8.8,3.8-18.3,2.4-27.4
	C657.1-168.2,672.6-159.5,686.9-151z M576.2-179.2c10.9-3,21.7-4.2,31.9-3.5c9.8,0.6,20.1,3.3,30.4,7.1c1.9,9.6,1,19.7-2.4,28.9
	c-23,1.4-46,1.9-70.3,1.8c-2.4-5.6-3.7-11.6-5.1-18.1c-0.6-2.8-1-5.8-0.5-8.6c0.1-0.7,0.4-1.4,0.6-2.1
	C565.8-176,571-177.8,576.2-179.2z M557.3-172.2c-0.6,3.3-0.1,6.6,0.5,9.7c1.3,6.3,2.5,12,4.7,17.5c-13.2-0.1-26.7-0.5-40.9-1
	C531.6-156.9,543.9-165.8,557.3-172.2z M532.2-131.8c9.2,5.8,20.1,10.4,31.2,13.4l8.8,14.5c0.3,0.4,0.7,0.7,1.2,0.7
	c0.7,5.8,1.1,11.7,1.6,17.7c1,12.8,2,26.1,5.2,39.9c-3.2,0.1-6.4,0.2-9.4,0.2C567.2-77.1,553.3-107.8,532.2-131.8z M639.6-23.1
	l-61.1-0.4c-0.2,0-0.6,0-0.7-0.1c-0.1-0.1-0.3-0.4-0.4-0.6l-2.3-4.1c9.8,0.9,48.6,1,64.1,1c0.8,0,1.6,0,2.3,0L639.6-23.1z
	 M642.8-30.3c-26.5,0-65.9-0.2-68.8-1.1c-3.1-1.2-5.2-3.9-7.5-6.8c-1.1-1.4-2.2-2.7-3.4-4c1.9,0,3.8-0.1,5.8-0.1
	c0.2,0.1,0.4,0.2,0.7,0.2c0.1,0,0.1,0,0.2,0c0.2,0,0.4-0.1,0.6-0.2c28.1-0.6,68.6-2.1,78.7-2.4L642.8-30.3z M680.5-23.8
	c0.5,0.8,1,1.7,1.1,2.5c0,0.5-0.2,1.1-0.5,1.2c-0.5,0.2-1.3-0.5-2-1.6c-2.9-4.3-4.9-9.2-6.8-13.9l-1.7-4.2
	C674.1-34.6,677.3-29.1,680.5-23.8z M679.7-66.3c0.7-1.1,1.1-1.3,1.2-1.3c0,0,0.1,0,0.2,0.1c0.3,0.3,0.4,0.9,0.4,1.5
	c-0.2,1.8-1.4,3.4-3,5.3l-7.2,8.8C673.7-56.9,676.7-61.7,679.7-66.3z M634.3-47.2c-4.7,0.2-10.2,0.4-16.1,0.5
	c5.3-20.8,9.6-39.4,13.3-57.9c2.1-3.5,6-9.9,10.1-16.7c10.1-2.8,18.4-5.8,25.6-9.5c1.7-0.9,3.4-1.8,5.1-2.8
	C651.5-109.5,637.9-78.8,634.3-47.2z M731.1-153.5c-2.5,1-5.2,2-7.9,1.9c-2.6-0.1-5.1-1-7.7-2.1c-1.5-0.6-3.1-1.2-4.7-1.7
	c-4.8-1.3-9.9-1-14.5,0.8c4.4-4.2,9.9-6.7,15.4-6.7c2.3,0,4.5,0.3,6.9,0.7c2.6,0.4,5.2,0.8,7.9,0.7c5.5-0.2,10.7-2.6,15.2-5.2
	l-2.2,3.4c-0.3,0.4-0.3,1-0.1,1.5c0.2,0.5,0.7,0.8,1.2,0.8l3,0.2C739.5-157,735.3-155.1,731.1-153.5z"/>
<path fill="none" stroke="#231F20" stroke-linecap="round" stroke-linejoin="round" stroke-miterlimit="10" d="M94.2-250
	c15.1-17.3,35.4-30,57.5-36.1c10.5-2.9,21.5-4.3,32.4-3.6c27.6,1.7,58,19.1,81.7,33.3"/>
<path fill="none" stroke="#231F20" stroke-linecap="round" stroke-linejoin="round" stroke-miterlimit="10" d="M94.2-250
	c14.6,14.8,38.3,24.7,58.9,27.5s41.6,0.2,61.7-5c9.5-2.5,18.9-5.6,27.7-10c9.5-4.8,18.2-11.2,25.6-18.8"/>
<path fill="none" stroke="#231F20" stroke-linecap="round" stroke-linejoin="round" stroke-miterlimit="10" d="M135-149.1
	c5.6,3.9,8.2,11.2,14.3,13.6c3.3,1.3,70.3,1.2,70.3,1.2"/>
<path fill="none" stroke="#231F20" stroke-linecap="round" stroke-linejoin="round" stroke-miterlimit="10" d="M96.3-247.2
	c27.4,25.4,45.2,61,49.2,98.1"/>
<path fill="none" stroke="#231F20" stroke-linecap="round" stroke-linejoin="round" stroke-miterlimit="10" d="M192.6-152
	c8.6-33.7,14.9-63.1,20.3-97.5"/>
<path fill="none" stroke="#231F20" stroke-linecap="round" stroke-linejoin="round" stroke-miterlimit="10" d="M95.1-250
	c59.6,2.4,111.2,1.3,172-5.3"/>
<path fill="none" stroke="#231F20" stroke-linecap="round" stroke-linejoin="round" stroke-miterlimit="10" d="M179.4-150.3
	c0,0,5.7-48.5,4.7-71.6"/>
<path fill="none" stroke="#231F20" stroke-linecap="round" stroke-linejoin="round" stroke-miterlimit="10" d="M140.7-248.9
	c14.8,32.9,8.7,64.1,17.3,99.2"/>
<path fill="none" stroke="#231F20" stroke-linecap="round" stroke-linejoin="round" stroke-miterlimit="10" d="M148.2-135.5
	c1.3,2.2,2.5,4.4,3.8,6.6c0.3,0.4,0.5,0.9,1,1.2c0.4,0.3,1,0.3,1.5,0.3c20.7,0.1,41.4,0.3,62.1,0.4l10.7-24.8c0,0-61.3,2.3-92.2,2.7
	"/>
<path fill="none" stroke="#231F20" stroke-linecap="round" stroke-linejoin="round" stroke-miterlimit="10" d="M125.9-248.6
	c0.1,0.1,0.2,0.3,0.2,0.4c7.8,12.7,15.5,25.4,23.3,38.1"/>
<path fill="none" stroke="#231F20" stroke-linecap="round" stroke-linejoin="round" stroke-miterlimit="10" d="M149.9-210.6
	c1.3-12.8,3.3-25.5,6-38.1"/>
<path fill="none" stroke="#231F20" stroke-linecap="round" stroke-linejoin="round" stroke-miterlimit="10" d="M195.7-249.5
	c2.6,12.8,5.8,24.1,10.1,36.5"/>
<path fill="none" stroke="#231F20" stroke-linecap="round" stroke-linejoin="round" stroke-miterlimit="10" d="M206-210.6
	c5.7-9.5,25.1-41.4,25.1-41.4"/>
<path fill="none" stroke="#231F20" stroke-linecap="round" stroke-linejoin="round" stroke-miterlimit="10" d="M224.2-151.7
	c6.7-0.2,13.4-0.4,20.1-0.6"/>
<path fill="none" stroke="#231F20" stroke-linecap="round" stroke-linejoin="round" stroke-miterlimit="10" d="M243.5-152.7
	c2.7-7.1,6.8-13.5,10.9-19.9c0.6-0.9,1.4-2,2.5-1.9c1.4,0,2.2,1.8,2,3.2c-0.3,2.3-1.8,4.3-3.3,6.1c-4,4.8-7.9,9.7-11.9,14.5"/>
<path fill="none" stroke="#231F20" stroke-linecap="round" stroke-linejoin="round" stroke-miterlimit="10" d="M242.4-150.9
	c1.4,3.5,2.8,7,4.3,10.4c2,4.9,4,9.8,7,14.2c0.9,1.3,2.3,2.7,3.7,2.2c1.1-0.3,1.7-1.6,1.6-2.8c-0.1-1.2-0.7-2.2-1.3-3.2
	c-4.8-8.1-9.6-16.1-15.5-23.3"/>
<path fill="none" stroke="#231F20" stroke-linecap="round" stroke-linejoin="round" stroke-miterlimit="10" d="M141.3-247.7
	c-3.2-6.5-4.7-13.5-6.1-20.6c-0.6-3-1-6.2-0.5-9.2c0.6-3,2.3-6,5.1-7.3"/>
<path fill="none" stroke="#231F20" stroke-linecap="round" stroke-linejoin="round" stroke-miterlimit="10" d="M213.2-251.1
	c4.1-10.7,4.8-22.6,1.9-33.6c-0.1-0.3-0.2-0.6-0.5-0.6s-0.2,0.6,0,0.4"/>
<path fill="none" stroke="#231F20" stroke-linecap="round" stroke-linejoin="round" stroke-miterlimit="10" d="M176.6-220.4
	c2,5.1,5.2,9.7,7.2,14.8"/>
<path fill="none" stroke="#231F20" stroke-linecap="round" stroke-linejoin="round" stroke-miterlimit="10" d="M183.8-205.6
	c1.4-6.2,4.1-12,7.9-17"/>
<path fill="none" stroke="#231F20" stroke-linecap="round" stroke-linejoin="round" stroke-miterlimit="10" d="M267.1-256.1
	c4.6-6.9,12.2-11.9,20.5-12c4.9-0.1,9.8,1.6,14.7,1.4c6.8-0.3,13-4,18.8-7.5"/>
<path fill="none" stroke="#231F20" stroke-linecap="round" stroke-linejoin="round" stroke-miterlimit="10" d="M268.3-256.1
	c5.2-3.6,12-4.9,18.1-3.2c4.3,1.2,8.3,3.7,12.7,3.8c2.9,0.1,5.8-0.9,8.5-2c5.9-2.3,11.5-5,17-8.1c-2.7-0.2-5.4-0.4-8.1-0.6
	c1.8-2.7,3.6-5.4,5.4-8.1"/>
<path fill="none" stroke="#231F20" stroke-linecap="round" stroke-linejoin="round" stroke-miterlimit="10" d="M260.8-249.8
	c-27.4,25.4-45.2,61-49.2,98.1"/>
<g>
	<path fill="none" stroke="#221F1F" stroke-width="2" stroke-linecap="round" stroke-linejoin="round" stroke-miterlimit="10" d="
		M95.5,158.7c15.1-17.3,35.4-30,57.5-36.1c10.5-2.9,21.5-4.3,32.4-3.6c27.6,1.7,58,19.1,81.7,33.3"/>
	<path fill="none" stroke="#221F1F" stroke-width="2" stroke-linecap="round" stroke-linejoin="round" stroke-miterlimit="10" d="
		M95.5,158.7c14.6,14.8,38.3,24.7,58.9,27.5s41.6,0.2,61.7-5c9.5-2.5,18.9-5.6,27.7-10c9.5-4.8,18.2-11.2,25.6-18.8"/>
	<path fill="none" stroke="#221F1F" stroke-width="2" stroke-linecap="round" stroke-linejoin="round" stroke-miterlimit="10" d="
		M136.3,259.6c5.6,3.9,8.2,11.2,14.3,13.6c3.3,1.3,70.3,1.2,70.3,1.2"/>
	<path fill="none" stroke="#221F1F" stroke-width="2" stroke-linecap="round" stroke-linejoin="round" stroke-miterlimit="10" d="
		M98.4,161.5c27.4,25.4,45.2,61,49.2,98.1"/>
	<path fill="none" stroke="#221F1F" stroke-width="2" stroke-linecap="round" stroke-linejoin="round" stroke-miterlimit="10" d="
		M193.9,256.7c8.6-33.7,14.9-63.1,20.3-97.5"/>
	<path fill="none" stroke="#221F1F" stroke-width="2" stroke-linecap="round" stroke-linejoin="round" stroke-miterlimit="10" d="
		M96.4,158.7c59.6,2.4,111.2,1.3,172-5.3"/>
	<path fill="none" stroke="#221F1F" stroke-width="2" stroke-linecap="round" stroke-linejoin="round" stroke-miterlimit="10" d="
		M180.7,258.4c0,0,5.7-48.5,4.7-71.6"/>
	<path fill="none" stroke="#221F1F" stroke-width="2" stroke-linecap="round" stroke-linejoin="round" stroke-miterlimit="10" d="
		M142,159.8c14.8,32.9,8.7,64.1,17.3,99.2"/>
	<path fill="none" stroke="#221F1F" stroke-width="2" stroke-linecap="round" stroke-linejoin="round" stroke-miterlimit="10" d="
		M149.5,273.2c1.3,2.2,2.5,4.4,3.8,6.6c0.3,0.4,0.5,0.9,1,1.2c0.4,0.3,1,0.3,1.5,0.3c20.7,0.1,41.4,0.3,62.1,0.4l10.7-24.8
		c0,0-61.3,2.3-92.2,2.7"/>
	<path fill="none" stroke="#221F1F" stroke-width="2" stroke-linecap="round" stroke-linejoin="round" stroke-miterlimit="10" d="
		M127.2,160.1c0.1,0.1,0.2,0.3,0.2,0.4c7.8,12.7,15.5,25.4,23.3,38.1"/>
	<path fill="none" stroke="#221F1F" stroke-width="2" stroke-linecap="round" stroke-linejoin="round" stroke-miterlimit="10" d="
		M151.2,198.1c1.3-12.8,3.3-25.5,6-38.1"/>
	<path fill="none" stroke="#221F1F" stroke-width="2" stroke-linecap="round" stroke-linejoin="round" stroke-miterlimit="10" d="
		M197,159.2c2.6,12.8,5.8,24.1,10.1,36.5"/>
	<path fill="none" stroke="#221F1F" stroke-width="2" stroke-linecap="round" stroke-linejoin="round" stroke-miterlimit="10" d="
		M207.3,198.1c5.7-9.5,25.1-41.4,25.1-41.4"/>
	<path fill="none" stroke="#221F1F" stroke-width="2" stroke-linecap="round" stroke-linejoin="round" stroke-miterlimit="10" d="
		M225.5,257c6.7-0.2,13.4-0.4,20.1-0.6"/>
	<path fill="none" stroke="#221F1F" stroke-width="2" stroke-linecap="round" stroke-linejoin="round" stroke-miterlimit="10" d="
		M244.8,256c2.7-7.1,6.8-13.5,10.9-19.9c0.6-0.9,1.4-2,2.5-1.9c1.4,0,2.2,1.8,2,3.2c-0.3,2.3-1.8,4.3-3.3,6.1
		c-4,4.8-7.9,9.7-11.9,14.5"/>
	<path fill="none" stroke="#221F1F" stroke-width="2" stroke-linecap="round" stroke-linejoin="round" stroke-miterlimit="10" d="
		M243.7,257.8c1.4,3.5,2.8,7,4.3,10.4c2,4.9,4,9.8,7,14.2c0.9,1.3,2.3,2.7,3.7,2.2c1.1-0.3,1.7-1.6,1.6-2.8
		c-0.1-1.2-0.7-2.2-1.3-3.2c-4.8-8.1-9.6-16.1-15.5-23.3"/>
	<path fill="none" stroke="#221F1F" stroke-width="2" stroke-linecap="round" stroke-linejoin="round" stroke-miterlimit="10" d="
		M142.6,161c-3.2-6.5-4.7-13.5-6.1-20.6c-0.6-3-1-6.2-0.5-9.2c0.6-3,2.3-6,5.1-7.3"/>
	<path fill="none" stroke="#221F1F" stroke-width="2" stroke-linecap="round" stroke-linejoin="round" stroke-miterlimit="10" d="
		M214.5,157.6c4.1-10.7,4.8-22.6,1.9-33.6c-0.1-0.3-0.2-0.6-0.5-0.6s-0.2,0.6,0,0.4"/>
	<path fill="none" stroke="#221F1F" stroke-width="2" stroke-linecap="round" stroke-linejoin="round" stroke-miterlimit="10" d="
		M177.9,188.3c2,5.1,5.2,9.7,7.2,14.8"/>
	<path fill="none" stroke="#221F1F" stroke-width="2" stroke-linecap="round" stroke-linejoin="round" stroke-miterlimit="10" d="
		M185.1,203.1c1.4-6.2,4.1-12,7.9-17"/>
	<path fill="none" stroke="#221F1F" stroke-width="2" stroke-linecap="round" stroke-linejoin="round" stroke-miterlimit="10" d="
		M268.4,152.6c4.6-6.9,12.2-11.9,20.5-12c4.9-0.1,9.8,1.6,14.7,1.4c6.8-0.3,13-4,18.8-7.5"/>
	<path fill="none" stroke="#221F1F" stroke-width="2" stroke-linecap="round" stroke-linejoin="round" stroke-miterlimit="10" d="
		M269.6,152.6c5.2-3.6,12-4.9,18.1-3.2c4.3,1.2,8.3,3.7,12.7,3.8c2.9,0.1,5.8-0.9,8.5-2c5.9-2.3,11.5-5,17-8.1
		c-2.7-0.2-5.4-0.4-8.1-0.6c1.8-2.7,3.6-5.4,5.4-8.1"/>
	<path fill="none" stroke="#221F1F" stroke-width="2" stroke-linecap="round" stroke-linejoin="round" stroke-miterlimit="10" d="
		M262.1,158.9c-27.4,25.4-45.2,61-49.2,98.1"/>
	<path fill="none" stroke="#221F1F" stroke-width="2" stroke-linecap="round" stroke-linejoin="round" stroke-miterlimit="10" d="
		M259.9,158.9c-27.4,25.4-45.2,61-49.2,98.1"/>
	<path fill="none" stroke="#221F1F" stroke-width="2" stroke-linecap="round" stroke-linejoin="round" stroke-miterlimit="10" d="
		M94,159c11.3-11.7,23.3-23.2,38.3-29.4c12.6-5.3,26.5-6.5,40.2-7.2c15-0.7,30.3-0.9,44.9,2.8c19.1,4.8,36,15.8,52.4,26.7"/>
	<path fill="none" stroke="#221F1F" stroke-width="2" stroke-linecap="round" stroke-linejoin="round" stroke-miterlimit="10" d="
		M92.1,160.2c19.1,16.3,44.7,23,69.8,25.3c22.6,2,45.6,0.7,67.5-5.3c14.5-4,28.7-10.3,39.3-21"/>
	<path fill="none" stroke="#221F1F" stroke-width="2" stroke-linecap="round" stroke-linejoin="round" stroke-miterlimit="10" d="
		M136.6,259.6c6.4,6.6,12.1,14,16.7,22"/>
	<path fill="none" stroke="#221F1F" stroke-width="2" stroke-linecap="round" stroke-linejoin="round" stroke-miterlimit="10" d="
		M136.5,259.9c30.2-7.6,62.2-0.4,93-4.6"/>
	<path fill="none" stroke="#221F1F" stroke-width="2" stroke-linecap="round" stroke-linejoin="round" stroke-miterlimit="10" d="
		M154.2,282.5c21.3,0.2,42.6-0.8,63.8-3.1c1.2-0.1,2.5-0.3,3.5-1.1c0.8-0.6,1.2-1.6,1.6-2.5c3-7.1,4.9-14.6,5.6-22.3"/>
	<path fill="none" stroke="#221F1F" stroke-width="2" stroke-linecap="round" stroke-linejoin="round" stroke-miterlimit="10" d="
		M148.5,274c25.5-5.1,52.5,3,77.8-2.8"/>
	<path fill="none" stroke="#221F1F" stroke-width="2" stroke-linecap="round" stroke-linejoin="round" stroke-miterlimit="10" d="
		M227.5,257.5c5.2,0,10.4-0.1,15.6-0.1"/>
	<path fill="none" stroke="#221F1F" stroke-width="2" stroke-linecap="round" stroke-linejoin="round" stroke-miterlimit="10" d="
		M245,257.4c-0.6,3.1,0,6.2,0.8,9.2c1.4,5.2,3.2,10.3,5.3,15.2c0.7,1.6,1.5,3.2,2.7,4.3c1.3,1.2,3.2,1.8,4.8,1.1
		c2.2-0.9,2.8-3.8,2.3-6.2c-1.1-5.4-5.8-9.1-9.5-13.1c-3.2-3.4-5.9-7.3-7.9-11.6"/>
	<path fill="none" stroke="#221F1F" stroke-width="2" stroke-linecap="round" stroke-linejoin="round" stroke-miterlimit="10" d="
		M243.8,254.8c4.8-7.6,9.6-15.2,14.4-22.8c0.7-1.1,1.5-2.3,2.8-2.3c2.2-0.1,2.9,2.9,2.8,5.1c-0.2,3.6-0.7,7.5-3,10.3
		c-2.3,2.7-5.9,3.8-9.2,5.3c-3.7,1.6-7.2,3.9-10.2,6.6"/>
	<path fill="none" stroke="#221F1F" stroke-width="2" stroke-linecap="round" stroke-linejoin="round" stroke-miterlimit="10" d="
		M100.5,166.2c26.3,25,42.7,60.2,45,96.4"/>
	<path fill="none" stroke="#221F1F" stroke-width="2" stroke-linecap="round" stroke-linejoin="round" stroke-miterlimit="10" d="
		M95.9,160.7c56.9-6.8,115.7,7.1,171.4-6.4"/>
	<path fill="none" stroke="#221F1F" stroke-width="2" stroke-linecap="round" stroke-linejoin="round" stroke-miterlimit="10" d="
		M265.7,151.7c6.9-4.6,14.7-7.7,22.9-9.1c12.3-2,25.8-0.3,36.1-7.3c-2.6,2.9-5.4,5.5-8.4,7.9c3.1,1.4,6.5,2.3,9.9,2.6
		c-11.6,5.6-24.6,11.3-37,7.9c-6.4-1.8-12.9-5.9-19-3.4c-3.2,1.3-5.4,4.1-7.5,6.8"/>
	<path fill="none" stroke="#221F1F" stroke-width="2" stroke-linecap="round" stroke-linejoin="round" stroke-miterlimit="10" d="
		M183.2,186.3c1.5,23.4,0,46.9-4.4,69.9"/>
	<path fill="none" stroke="#221F1F" stroke-width="2" stroke-linecap="round" stroke-linejoin="round" stroke-miterlimit="10" d="
		M142.5,126.3c-3.6-0.2-6.7,3-7.6,6.5c-0.9,3.5-0.1,7.2,0.8,10.7c3.3,13.5,7.2,26.8,10.8,40.2c6.8,25.1,12.4,50.5,18,75.8"/>
	<path fill="none" stroke="#221F1F" stroke-width="2" stroke-linecap="round" stroke-linejoin="round" stroke-miterlimit="10" d="
		M196.3,258c1.9-17.2,3.8-34.5,7.5-51.4c4.8-22,12.5-43.3,15.4-65.6c0.9-7.1,0.9-15.5-4.7-20.1"/>
</g>
</svg>
