<?xml version="1.0" encoding="utf-8"?>
<!-- Generator: Adobe Illustrator 18.1.1, SVG Export Plug-In . SVG Version: 6.00 Build 0)  -->
<!DOCTYPE svg PUBLIC "-//W3C//DTD SVG 1.1//EN" "http://www.w3.org/Graphics/SVG/1.1/DTD/svg11.dtd">
<svg version="1.1" id="Layer_1" xmlns="http://www.w3.org/2000/svg" xmlns:xlink="http://www.w3.org/1999/xlink" x="0px" y="0px"
	 width="800px" height="530px" viewBox="0 0 800 530" enable-background="new 0 0 800 530" xml:space="preserve">
<rect x="0.5" fill="#C9DBDE" width="800" height="530"/>
<g>
	<g>
		<g>
			<path fill="#CC3B38" d="M342.2,271.3h-10.6c0,0.1,0,0.2,0,0.2c-0.9,11.2-4.2,70.4-4.2,72.2c0,5.1,4,9.8,9.4,9.8
				c5.4,0,9.4-4.6,9.4-9.8c0-1.8-3.3-60.9-4.2-72.2C342.1,271.5,342.2,271.4,342.2,271.3z M336.9,344.6c-5.2-0.1-1.8-7.7-0.4-10.1
				c0.1-0.1,0.2-0.2,0.4-0.2c0.1,0,0.3,0.1,0.4,0.2C338.6,336.9,342,344.5,336.9,344.6z"/>
		</g>
	</g>
	<g>
		<path fill="#857F7A" d="M312.6,196.7c0,7,2.7,12.8,5.9,19.5c2.3,4.9,4.9,10.5,6.7,17.2c2.8,10.8,4.7,20.5,5.3,23.1
			c0,0.3,0,0.4,0,0.5c0,0.7,0.6,1.4,1.4,1.4c0.1,0,0.1,0,0.2,0c0.1,0,0.2,0,0.3,0c0.8-0.1,1.3-0.8,1.1-1.6c0,0,0-0.2-0.1-0.5
			c0.1-2.9,0.1-13.6-1.8-25.6c-1.2-7.6-3-13.7-4.5-19.2c-2-7.1-3.7-13.2-3.7-20.3c0-4.8,0.9-9.2,2.3-13c2.9-1.9,6.3-3,10-3.3v82.1
			c0,0.7,0.6,1.3,1.4,1.3c0.8,0,1.4-0.6,1.4-1.3V175c3.6,0.2,7,1.4,10,3.3c1.5,3.8,2.3,8.3,2.3,13c0,7.1-1.7,13.3-3.7,20.3
			c-1.5,5.4-3.3,11.6-4.5,19.2c-1.9,12-1.9,22.7-1.8,25.6c-0.1,0.3-0.1,0.5-0.1,0.5c-0.1,0.7,0.4,1.4,1.1,1.6c0.1,0,0.2,0,0.3,0
			c0.1,0,0.1,0,0.2,0c0.8,0,1.4-0.7,1.4-1.4c0,0,0-0.2,0-0.5c0.5-2.7,2.4-12.3,5.3-23.1c1.8-6.8,4.4-12.3,6.7-17.2
			c3.2-6.7,5.9-12.5,5.9-19.5c0-8.3-4.2-15.7-10.5-20.1c-2.9-7.2-8-11.8-13.8-11.8c-5.8,0-10.9,4.6-13.8,11.8
			C316.7,181,312.6,188.4,312.6,196.7z M358.3,196.7c0,6.4-2.6,12-5.6,18.4c-2.3,5-5,10.7-6.8,17.7c-0.7,2.6-1.3,5.1-1.9,7.5
			c0.3-2.9,0.6-5.9,1.1-9.1c1.2-7.4,2.9-13.5,4.4-18.9c2.1-7.3,3.8-13.5,3.8-21c0-3.5-0.4-6.7-1.1-9.7
			C356,185.5,358.3,190.8,358.3,196.7z M336.9,167.5c3.6,0,6.9,2.5,9.3,6.6c-2.5-1-5.1-1.7-7.9-1.8v-1.2c0-0.7-0.6-1.3-1.4-1.3
			c-0.8,0-1.4,0.6-1.4,1.3v1.2c-2.8,0.2-5.5,0.8-7.9,1.8C330,170.1,333.3,167.5,336.9,167.5z M324.2,212.3
			c1.5,5.4,3.3,11.4,4.4,18.9c0.5,3.2,0.9,6.2,1.1,9.1c-0.6-2.4-1.2-4.9-1.9-7.5c-1.8-7-4.5-12.7-6.8-17.7c-3-6.4-5.6-12-5.6-18.4
			c0-5.9,2.3-11.2,6.1-15.1c-0.7,3-1.1,6.3-1.1,9.7C320.3,198.8,322.1,205.1,324.2,212.3z"/>
	</g>
	<g>
		<g>
			<path fill="#FFEBC6" d="M343.8,271.8h-13.9c-0.2,0-0.4-0.2-0.4-0.4v-13.8c0-0.2,0.2-0.4,0.4-0.4h13.9c0.2,0,0.4,0.2,0.4,0.4v13.8
				C344.2,271.6,344,271.8,343.8,271.8z"/>
		</g>
	</g>
	<g>
		<g>
			<path fill="#4E4A47" d="M344.4,259.6h-15.1c-0.1,0-0.1,0-0.1-0.1v-3c0-0.1,0-0.1,0.1-0.1h15.1c0.1,0,0.1,0,0.1,0.1L344.4,259.6
				C344.5,259.6,344.4,259.6,344.4,259.6z"/>
		</g>
	</g>
</g>
<g>
	<g>
		<path fill="#CC3B38" d="M452.9,267.2h-5.3c-0.9,25.9-2.5,68.5-2.5,72.4c0,1.6,0,3.3,0,4.9c0,4.9,2.2,8.9,5.1,9
			c0.2,0,0.4,0,0.6-0.1c0.2,0,0.4,0.1,0.6,0.1c2.8,0,5.1-4,5.1-9c0-1.6,0-3.2,0-4.9C456.4,335.3,454.3,294.7,452.9,267.2z"/>
	</g>
	<g>
		<path fill="#857F7A" d="M453.1,260.2c-0.1-2.2-0.2-4.3-0.3-6.3c7-4.8,7.8-5.5,7.8-11.5c0-9.4-5.2-53.9-6.6-59.2
			c-0.8-3-2.6-5.4-3.7-3.9c-0.8,1.2-0.9,6.1-0.9,6.1c-0.4,9.7-1.2,42.1-2.1,74.8H453.1z"/>
	</g>
	<g>
		<path fill="#FFEBC6" d="M455,272.8h-8.8c-0.2,0-0.4-0.2-0.4-0.4v-10.3c0-0.2,0.2-0.4,0.4-0.4h8.8c0.2,0,0.4,0.2,0.4,0.4v10.3
			C455.5,272.6,455.3,272.8,455,272.8z"/>
	</g>
	<g opacity="7.000000e-02">
		<g>
			<path d="M460.4,237.6c-0.1,8-4.9,14.4-13,16.3c0,0.4,0,1.1,0,1.5c0.3,0,0.6-0.1,1.1-0.3l0,6.5h1.4l-0.2-6.8c2-0.3,3.2-1,3.2-1
				c6.9-4.8,7.7-5.5,7.7-11.4C460.6,242.1,460.4,238,460.4,237.6z"/>
		</g>
	</g>
	<g>
		<path fill="#423E3C" d="M455.6,261.8h-9.9c-0.1,0-0.1,0-0.1-0.1v-2.4c0-0.1,0-0.1,0.1-0.1h9.9c0.1,0,0.1,0,0.1,0.1L455.6,261.8
			C455.7,261.7,455.6,261.8,455.6,261.8z"/>
	</g>
</g>
<g>
	<g>
		<path fill="#857F7A" d="M250.3,225.4c3.7,4.2,7.4,8.3,11.1,12.5c3.8,4.4,6.8,9.2,6.6,15.2c-0.1,2.1-0.2,4.6-0.3,7.4h6.6
			c-0.1-2.1-0.2-4.3-0.3-6.4c-0.2-3.4,0.7-7.4,2.5-10.3c3.1-5,7.2-9.5,11-14c3.5-4.1,7.2-8,7.2-13.9c-0.1-15-0.1-30-0.2-45
			c0-4-1.7-5.5-5.8-5.5c-12.1,0-24.2,0.1-36.3,0.1c-4.3,0-5.7,1.5-5.7,5.8c0,14.8,0.1,29.6,0.2,44.3
			C246.9,219.3,247.9,222.6,250.3,225.4z M280.6,182.1c0-1.3,1-2.3,2.3-2.3c1.3,0,2.3,1,2.3,2.3v29.7c0,1.3-1,2.3-2.3,2.3
			c-1.3,0-2.3-1-2.3-2.3V182.1z M268.4,182.1c0-1.3,1-2.3,2.3-2.3c1.3,0,2.3,1,2.3,2.3v29.7c0,1.3-1,2.3-2.3,2.3
			c-1.3,0-2.3-1-2.3-2.3V182.1z M256.2,182.1c0-1.3,1-2.3,2.3-2.3c1.3,0,2.3,1,2.3,2.3v29.7c0,1.3-1,2.3-2.3,2.3
			c-1.3,0-2.3-1-2.3-2.3V182.1z"/>
	</g>
	<g opacity="7.000000e-02">
		<g>
			<path d="M248.9,223.5c0.4,0.7,0.9,1.3,1.4,1.9c3.7,4.2,7.4,8.3,11.1,12.5c3.8,4.4,6.8,9.2,6.6,15.2c-0.1,2.1-0.2,4.6-0.3,7.4h6.6
				c-0.1-2.1-0.2-4.3-0.3-6.4c-0.2-3.4,0.7-7.4,2.5-10.3c3.1-5,7.2-9.5,11-14c1.8-2.1,3.6-4.1,4.9-6.4H248.9z"/>
		</g>
	</g>
	<g>
		<g>
			<path fill="#CC3B38" d="M275.6,273h-9.9c0,0.1,0,0.1,0,0.2c-0.8,11-3.9,69-3.9,70.7c0,5,3.7,9.6,8.8,9.6c5,0,8.8-4.5,8.8-9.6
				c0-1.7-3.1-59.7-3.9-70.7C275.6,273.2,275.6,273.1,275.6,273z M270.7,344.8c-4.8-0.1-1.7-7.5-0.3-9.9c0.1-0.1,0.2-0.2,0.3-0.2
				c0.1,0,0.3,0.1,0.3,0.2C272.3,337.3,275.5,344.7,270.7,344.8z"/>
		</g>
		<g>
			<path fill="#FFEBC6" d="M275.7,273.5h-10c-0.2,0-0.4-0.2-0.4-0.4v-13.5c0-0.2,0.2-0.4,0.4-0.4h10c0.2,0,0.4,0.2,0.4,0.4V273
				C276.1,273.3,275.9,273.5,275.7,273.5z"/>
		</g>
		<g>
			<path fill="#4E4A47" d="M276.2,261.2h-11c-0.1,0-0.1,0-0.1-0.1v-2.6c0-0.1,0-0.1,0.1-0.1h11c0.1,0,0.1,0,0.1,0.1L276.2,261.2
				C276.3,261.2,276.3,261.2,276.2,261.2z"/>
		</g>
	</g>
</g>
<g>
	<g>
		<path fill="#857F7A" d="M400.1,260.5c-0.4-6.4-0.6-11.8-0.8-15.5c0.5-5.7,6.5-11.5,8.2-13.5c1.9-2.1,2.4-4.7,2.2-7.4
			c-0.3-7.7-0.7-15.4-1.1-23.1c-0.4-6.5-1-13-1.5-19.4c-0.2,0-0.5,0-0.7,0c-0.1,0.7-1,37.3-1,37.3c0,1-0.8,1.9-1.9,1.9
			c-1,0-1.9-0.8-1.9-1.9v-15.1c-0.2-7.5-0.5-21.3-0.7-22.2c-0.2,0-0.5,0-0.7,0c-0.2,1.8-0.9,37.3-0.9,37.3c0,1-0.8,1.9-1.9,1.9
			c-1,0-1.9-0.8-1.9-1.9l-1-37.3H394l-0.7,37.3c0,1-0.8,1.9-1.9,1.9c-1,0-1.9-0.8-1.9-1.9l-0.7-37.3h-0.7c0,0-1,12.2-1.3,17.7
			c-0.4,7.9-0.6,15.8-1,23.7c-0.2,3.5,0.5,6.6,2.7,9.4c1.3,1.7,5.8,7.4,6.4,12.7c0,0-0.3,6.3-0.7,15.5H400.1z"/>
	</g>
	<g>
		<path fill="#CC3B38" d="M400.3,267.6h-6.2c-1.1,25.8-2.9,68.2-2.9,72.1c0,1.6,0,3.2,0,4.8c0,4.9,2.6,8.9,5.9,8.9
			c0.2,0,0.5,0,0.7-0.1c0.2,0,0.5,0.1,0.7,0.1c3.3,0,6-4,5.9-8.9c0-1.6,0-3.2,0-4.8C404.4,335.4,401.9,295,400.3,267.6z"/>
	</g>
	<g>
		<path fill="#FFEBC6" d="M403,273h-10.4c-0.2,0-0.4-0.2-0.4-0.4v-10.2c0-0.2,0.2-0.4,0.4-0.4H403c0.2,0,0.4,0.2,0.4,0.4v10.2
			C403.5,272.8,403.3,273,403,273z"/>
	</g>
	<g opacity="7.000000e-02">
		<g>
			<polygon points="397.2,261.9 397,239.2 396.4,239.2 395.8,239.2 395.8,239.9 395.8,261.9 			"/>
		</g>
	</g>
	<g>
		<path fill="#423E3C" d="M403.6,262h-11.5c-0.1,0-0.1,0-0.1-0.1v-2.4c0-0.1,0-0.1,0.1-0.1h11.5c0.1,0,0.1,0,0.1,0.1L403.6,262
			C403.7,262,403.7,262,403.6,262z"/>
	</g>
</g>
<g>
	<g>
		<path fill="#857F7A" d="M501.2,236.8c0.2,0.1,0.6,0.4,0.5,1.4c-0.1,1.9-0.6,13.7-1.3,28.6h7.8c-0.6-14.9-1.2-26.7-1.3-28.6
			c-0.1-1,0.3-1.3,0.5-1.4c8.8-2.5,16.7-14.4,16.6-28.5c-0.1-15.6-9.7-28.2-19.8-28.7c-10.1,0.5-19.7,13.1-19.8,28.7
			C484.5,222.4,492.5,234.3,501.2,236.8z"/>
	</g>
	<g opacity="4.000000e-02">
		<g>
			<path d="M499.2,235.6c-1.4-2-6.5-11.8-6.1-28.2c0.4-16.9,10.5-27,10.9-27.7c-9.9,0.8-19.2,13.2-19.4,28.6
				c-0.1,13.1,6.7,24.3,14.7,27.8C499.3,235.9,499.3,235.8,499.2,235.6z"/>
		</g>
	</g>
	<g>
		<path fill="#CC3B38" d="M508.2,266.7h-7.6c-1.2,27.7-2.9,68.4-2.9,72.8c0,1.7,0,3.3,0,4.9c0,5,2.6,9,6,9.1c0.2,0,0.5,0,0.7-0.1
			c0.2,0,0.5,0.1,0.7,0.1c3.4,0,6-4.1,6-9.1c0-1.6,0-3.3,0-4.9C511.1,335.1,509.4,294.5,508.2,266.7z"/>
	</g>
	<g>
		<path fill="#FFEBC6" d="M509.7,272.2h-10.5c-0.2,0-0.4-0.2-0.4-0.4v-10.4c0-0.2,0.2-0.4,0.4-0.4h10.5c0.2,0,0.4,0.2,0.4,0.4v10.4
			C510.1,272,509.9,272.2,509.7,272.2z"/>
	</g>
	<g opacity="7.000000e-02">
		<g>
			<polygon points="504.4,260.3 504.2,237.2 502.7,237.2 502.7,260.3 			"/>
		</g>
	</g>
	<g>
		<path fill="#423E3C" d="M510.3,261.1h-11.7c-0.1,0-0.1,0-0.1-0.1v-2.4c0-0.1,0-0.1,0.1-0.1h11.7c0.1,0,0.1,0,0.1,0.1L510.3,261.1
			C510.4,261,510.3,261.1,510.3,261.1z"/>
	</g>
</g>
</svg>
