<?xml version="1.0" encoding="utf-8"?>
<!-- Generator: Adobe Illustrator 18.1.0, SVG Export Plug-In . SVG Version: 6.00 Build 0)  -->
<!DOCTYPE svg PUBLIC "-//W3C//DTD SVG 1.1//EN" "http://www.w3.org/Graphics/SVG/1.1/DTD/svg11.dtd">
<svg version="1.1" id="Layer_1" xmlns="http://www.w3.org/2000/svg" xmlns:xlink="http://www.w3.org/1999/xlink" x="0px" y="0px"
	 viewBox="0 0 500 500" enable-background="new 0 0 500 500" xml:space="preserve">
<rect fill="#D33E27" width="500" height="500"/>
<path d="M384.5,129.5c-0.8-0.5-96.8,19.6-96.8,19.6L168.5,82.5l-19.4,89.8l-38.5-26.2c0,0-4-1.9-7.6,1.3c-2.8,2.4-8.4,10.2-8.4,10.2
	l-13-7.6c0,0-0.6-0.2-1.4-0.3c1.7,4.2,8.1,85.2,9,85.5c2.3,0.9,86.8,48.7,86.8,48.7L73.5,304.6l77.8,43.7l-3.6,39.8l204.8,114.6
	L500,500V194C500,194,386.9,130.8,384.5,129.5z"/>
<g>
	<path fill="#FFFFFF" d="M443.1,358.5c-1.4-0.3-2.8-0.4-4.2-0.5c-8.5-1-56.4,1.6-67.6,2.3c-15.8,0.9-31.5,2.2-47.3,3.3
		c-5,0.4-10,0.7-15,1.1c-1.7,0.1-2.8-0.3-2.8-2.1c0.2-5.5,0.4-11.1,0.6-16.9c0.4,0,58.6-3.9,62.3-4.8c2.1-0.5,4-1.5,4-4
		c0-1.9-1.8-4.1-4.2-4.7c-2.1-0.5-4.4-0.8-6.6-1.1c-1.7-0.2-41.2,2.3-53.9,3.5c-6,0.5-7.1-0.1-9.2-5.3c-1.3-3.2-0.4-4.8,3.3-5
		c5.6-0.2,11.2,0.2,16.8-0.1c8.3-0.4,16.6-0.9,24.9-1.7c3.5-0.4,7.1-1.4,10.5-2.5c2.1-0.7,3.9-2.4,3.4-4.4c-0.4-1.6-2.2-2.9-3.5-4.2
		c-0.4-0.4-1-0.6-1.6-0.6c-5.8-0.7-39-0.1-45.4-0.1c-5.3,0-10.7-0.6-16-1.2c-2.1-0.2-3.8-0.4-5.7,0.6c-1.2,0.6-2.9,0.8-4.2,0.6
		c-3.7-0.4-7.4-1.5-11.1-1.7c-13.7-0.9-27.4-1.4-41.1-0.1c-1.2,0.1-2.8-0.3-3.8-1c-3.2-2.2-3.5-2.3-6.7-0.2
		c-2.5,1.6-5.3,1.7-8.5,1.9c0.3-1.2,0.4-1.8,0.6-2.4c1-2.4,0.5-4.5-1.5-6.3c-2-1.7-4.9-2-7.6-0.8c-3,1.3-3.8,3.7-3.7,6.5
		c0,1.6,0.4,3.3,0,4.9c-1.9,7.5-4,15-6,22.5c-0.2,0.8-0.6,1.5-1.1,2.7c-1.1-1-2-1.5-2.6-2.2c-6.7-7.3-14.1-14-22.6-19.6
		c-2.7-1.8-4.8-4.1-7.3-6.1c-1.5-1.1-3.2-2.2-4.9-2.9c-2-0.9-3.6-3.2-3.4-5.5c0.1-2.3,2.1-2.4,3.8-2.7c8.3-1.3,16.6-2.5,24.9-3.9
		c6.1-1,12.2-2.1,18.2-3.4c0.7-0.1,1.3-0.4,1.8-0.7c0.3,0.4,0.7,0.9,1,1.3c1.7,2.2,4.3,2.8,7,2.2c2.8-0.7,4.3-2.8,4.6-5.6
		c0.3-2.5,0.4-5.1,0.3-7.7c-0.5-13.8-1.3-27.5-1.7-41.3c-0.1-3.1,0.2-6.5,1.3-9.3c2.7-6.7,6-13.1,9-19.6c0.9-2,2.4-2.9,4.6-2.8
		c1.9,0.1,3.9,0,5.8-0.2c5.7-0.7,11.3-1.6,17-2.2c1.3-0.1,3.5,0.2,3.9,1c2,4.1,5.6,13.2,5.6,13.2l-8.1-0.8c0,0,16.6,15.8,18.4,16.9
		c4.5,2.7,9.5,0.2,9.7-5.1c0.1-2.4-0.5-4.8-1.2-7.1c-2-6.3-4.4-12.4-6.4-18.7c-1.1-3.4-0.8-3.8,2.4-5.4c5.2-2.6,14.4-11.3,15.2-11.8
		c0.2,2.7,0.6,5,0.6,7.3c0,6.9,1.5,13.8-0.2,20.8c-0.3,1.3-0.2,3.1,0.4,4.3c1.7,3.6,3.5,7.2,5.7,10.6c0.9,1.4,2.7,2.5,4.3,3.2
		c3.9,1.6,6.8-0.2,7.2-4.5c0.1-1.6,0.2-3.1,0.2-4.7c20,9.2,38.3,8.7,52.3,2.4c5.8-2.6,9.8-7,12.4-12.6c1.9-4.1,1.3-7.7-2.1-10.7
		c-1.5-1.3-3.1-2.5-4.8-3.4c-4.5-2.4-9.2-4.6-13.7-6.8c-4.3-2.1-8.6-4.3-13.2-6.7c1-1.1,31.7-18.5,32-18.6c4-2.3,4.7-6.1,1.5-9.5
		c-1-1.1-2.5-2-3.9-2.5c-5-1.7-10.1-1.4-15.2-0.6c-12.6,2-24.3,6.7-35.5,12.5c-3.5,1.8-6.8,4.1-9.7,6.7c-1.8,1.6-2.9,3.7-3.2,5.9
		c-1-10.4-2.5-20.7-7.2-30.3c-0.2-0.4,0-0.9-0.1-1.7c3-0.2,5.9-0.5,8.8-0.7c20.9-1.6,41.8-3.3,62.7-4.9c5.3-0.4,10.7-0.7,16-1.3
		c3-0.3,4.5-1.9,4.9-4.5c0.4-2.6-0.8-5.1-3.3-6.4c-0.8-0.5-1.8-0.9-2.7-1c-2.6-0.5-5.3-1-7.9-1.2c-11.1-0.9-22.2,0-33.2,0.8
		c-17.5,1.4-35,2.7-52.4,4.4c-12.5,1.2-24.9,3.2-37.4,4.4c-7.1,0.7-14.2,2.6-21.4,0.4c-1.2-0.4-2.7-0.2-4-0.1
		c-2.8,0.1-4.4,1.8-4.8,4.6c-0.3,2.5,1,4.4,3.6,5.1c1.4,0.4,2.9,0.7,4.3,0.7c16.8,0.3,33.6,0.5,50.4,0.6c3.2,0,3.9,0.3,4.7,3.3
		c0.3,0.9,0.5,1.9,0.6,2.9c0.8,7,1.5,14.1,2.3,21.1c0.2,2.1-0.5,3.8-2.1,5.2c-4.4,3.9-9.4,6.5-14.9,8.3
		c-3.5,1.1-11.5-21.2-17.1-29.4c-3.1-4.5-5.8-5.2-10.5-2.6c-5.7,3.1-17.1,23.6-19.7,28.4c-1.5,2.8-3,5.6-4.8,8.2
		c-0.5,0.8-2.1,1.6-2.9,1.3c-1.1-0.3-1.9-1.5-2.7-2.5c-0.3-0.4-0.2-1.2-0.2-1.8c0.1-11.9-1.1-23.6-3-35.3c-0.5-3.1-0.2-6,1.2-8.9
		c0.5-1,0.8-2.1,0.9-3.1c0.9-4.9-2.9-9-7.9-8.5c-4.3,0.5-7.3,4.3-7.2,9.1c0.1,3,0.4,6.1,0.4,9.1c0.1,5.1,0.1,10.2,0,15.3
		c-0.1,4.5-0.3,9-0.5,13.9c-4.9,0-9.5,0-14.1,0.1c-7.1,0.1-6.8,0.1-8.2-7c-1.3-6.4-3.1-12.8-5.1-19c-1.1-3.6-3.9-6.8-8.1-6.6
		c-0.5,0-0.5,0-1.9,0c0.9-7.2,1.5-14.4,2.9-21.4c2.7-13.6,5.8-27.2,8.8-40.7c0.4-2,0.8-4-1.1-5.3c-1.9-1.4-4-0.8-5.9,0.3
		c-0.8,0.5-1.8,1-2.4,1.7c-2.6,3.1-5.2,6.2-7.4,9.5c-1.7,2.5-2.6,5.2-0.7,8.2c0.6,0.9,0.5,2.6,0.2,3.8c-1.1,4.9-2.7,9.6-3.7,14.5
		c-2,9.8-8.8,53.8-10.5,66c-1.6,11.7-3.3,23.4-5,35.1c-0.2,1.1-0.7,2.1-1.1,3.2c-0.3,0-0.6-0.1-0.9-0.1c-0.3-1-0.6-2-0.7-3
		c-1.4-9.6-7.6-47.1-9.5-56.2c-1.2-6-3.6-11.6-7.2-16.7c-2.8-3.9-7-4.6-10.7-1.4c-2.8,2.4-5.2,5.2-7.6,7.8c-0.5,0.6-0.7,1.5-0.8,2.4
		c-1.1,5.1-2.1,10.3-3.2,15.4c-0.1,0.7-0.6,1.3-0.9,2.3c-1.4-6.4-2.6-12.4-4-18.3c-0.4-1.7-1.2-3.5-2.2-4.9c-2.2-3-7.4-3.5-10.2-1.1
		c-3.4,2.9-3.9,6.8-0.7,9.9c2.5,2.4,2.9,5.2,3.2,8.2c0.6,8.3,1.3,16.5,1.8,24.8c0.6,8.4,1.3,16.8,1.5,25.2
		c0.1,6.1,3.2,10.5,6.8,14.8c0.6,0.7,1.6,1.1,2.5,1.5c2.5,0.9,4.4-0.1,4.9-2.7c1.6-7.9,3.4-15.7,4.6-23.7c1.7-11.4,2.9-23,4.3-34.4
		c0.2-1.2,0.6-2.4,0.9-3.7c0.9,0.8,1.3,1.6,1.5,2.3c2,7.7,4.1,15.3,6,23c3.1,12.5,6.2,25.1,9.2,37.6c0.5,2.1,0.6,4.3,1.1,6.4
		c0.3,1.1,0.8,2.3,1.5,3.2c1.9,2.1,3.9,4,6,5.8c1.5,1.2,3.1,2.4,4.9,2.9c3.4,1.1,5.5-0.4,6.4-4c0.9-3.8,1.7-7.7,3.2-11.2
		c4.8-10.8,8-22,9.5-33.7c0.4-3.1,0.9-6.1,1.4-9.1c6.6,0.1,6.6,0.3,6.6,6.1c-0.1,5.6,0.1,11.2,0,16.8c-0.1,3.4,1.6,5.8,4.1,7.7
		c3.8,3,7.5,1.9,8.7-2.7c0.8-3,1.2-6.2,1.4-9.4c0.3-3.8,0.3-7.6,0.4-11.3c0-1.7,0.4-3.3,2.4-3.5c5.3-0.6,10.6-1.1,16.2-1.6
		c0.1,1,0,23.4,0,33.6c0,8.2,0.4,16.3,0.3,24.5c-0.2,8,1.4,16.1-0.5,24.1c-0.2,0.9-0.2,1.9-0.1,2.9c-4.4-0.2-8.7-0.7-13-0.3
		c-10.4,0.9-20.7,2.2-31,3.3c-2.4,0.2-4.9-0.2-7.3-0.1c-2.2,0.1-4.4,0.2-6.5,0.7c-2.7,0.6-5.2,1.9-7.9,2.4
		c-11.1,2.1-22.3,4.1-33.4,5.9c-5.5,0.9-10.9,2.3-16.6,0.7c-3.4-1-6.8,1-7.9,3.5c-1.1,2.5,0,5.1,2.9,7.4c2.9,2.3,6.3,2.8,9.8,3.1
		c10.3,0.9,20.6,0.4,30.7-1.8c6-1.3,12.1-2.6,18.1-3.9c3.4-0.7,3.9-0.4,4.1,2.8c0.3,5.9,2.7,44.4,5.1,57.7
		c0.9,5.2,1.7,10.4,2.6,15.5c0.4,2.3,0.7,4.6,1.4,6.8c0.9,2.9,3.4,4.6,6.2,4.4c4.2-0.2,7.6-3,8-6.9c0.3-2.7,0.4-5.5,0.2-8.2
		c-1.1-15.9-4-50.1-3.8-51.9c3.3,3,6.4,6.2,9.2,8.6c4.6,3.9,9.3,7.7,13.9,11.5c2.3,1.9,4.7,3.6,7,5.5c1.9,1.4,2.5,3.1,2.1,5.5
		c-1.6,9.9-2.2,20-6.2,29.4c-0.9,2.2-0.9,5-0.2,7.3c1.6,5.3,7.1,6.9,12,4c2.8-1.6,4.4-3.8,5.2-6.7c1.9-6.8,3.7-13.5,5.6-20.3
		c0.7-2.6,1.6-5.1,2.4-7.7c4.8,1.9,6.7,4.9,6.3,9.2c-0.1,1.3,0.1,13.6,2.2,18.1c1.6,3.4,3.9,4.7,7.7,4.2c3.2-0.4,4.6-2,5-5.8
		c0.2-1.6,0.2-3.3,0.3-4.9c0.2-5.8,0.4-11.6,0.6-17.4c0-1.8,0.7-3.1,2.7-3.7c7.3-2.5,14.5-4.9,21.7-7.6c8.3-3.2,16.5-6.6,24.7-10.1
		c3.1-1.3,6.1-3,9.4-4.7c0.3,0.9,1.8,13,2.4,18.4c0.2,2.3-0.6,3.8-2.5,5.4c-5.3,4.3-5.9,10.8-1.6,15.8c2.3,2.7,5.5,4,9,4.9
		c5.9,1.5,11.8,1.3,17.8,0.6c7.9-0.9,15.8-1.8,23.7-2.7c8.7-1,17.4-2.3,26.1-3c14.1-1.3,28.2-2.2,42.4-3.3
		c8.9-0.7,17.6-2.3,25.9-5.6c5.1-2.1,10.3-4.1,15.5-6.1c0.5-0.2,0.9-0.6,2-1.3C446.1,359.2,444.6,358.8,443.1,358.5z M353,169.7
		c-2.9,2.4-12.9,10.7-15.2,12.4c-3,2.2-4.4,2.3-7.5,0.1c-1.9-1.4-3.5-3-5.2-4.5C329.7,171.7,347.8,166.4,353,169.7z M310.2,189.4
		c3.9,1,27.5,9.8,35.3,13.2c1.2,0.5,2.4,1.3,4.2,2.2c-1.9,1.2-18.2,12.4-41,14.5c-1.2,0.1-2.2,0.9-3.3,1.4c0-0.2,0-0.5-0.1-0.7
		c-0.3-2.5-0.6-10.7-0.7-11.7c-0.5-7-0.9-14.1-1.5-21.2c-0.1-0.7-0.1-1.5-0.2-2.2C304.2,188,307.2,188.7,310.2,189.4z M240,178
		l6.6,15.2c0,0-17.2,0.7-17.4,0.4C232.4,188.4,240,178,240,178z M158.4,182.8c-2-0.2-2.8-1.4-2.6-3.5c0.6-5.6,0.9-11.2,1.3-16.9
		c0.3,0,0.6,0,0.9,0c0.3,0.7,2,12.1,2.5,17.1C160.6,180.9,160.8,183,158.4,182.8z M214.3,340.4c-0.3,1.6-2.2,2.9-3.3,4.3
		c-0.2-0.1-1.8,0.8-2,0.7c0.1-3.6,0.9-16.4,0.7-18.6c-0.1-1.2-0.3-2.8,1.8-2.9c2.4-0.2,4.3,1,4.2,2.9
		C215.5,331.3,215.1,335.9,214.3,340.4z M230.2,336.7c-0.6-4.7-1.1-8.8-1.4-12.9c0-0.7,1.2-1.7,2.1-2.2c0.7-0.4,1.8-0.4,2.7-0.4
		c9.3-0.3,18.7-0.6,28-0.9c1,0,2.1,0.1,3.1,0.1c0,0.2,0.1,0.5,0.1,0.7C253.6,326.3,242.3,331.3,230.2,336.7z"/>
	<path fill="#FFFFFF" d="M260.2,249c-0.4-0.2-0.8-0.3-1.3-0.3c-1.7-0.1-3.3,0.9-4.3,2.5c-0.1,0.2-0.2,0.4-0.3,0.6
		c0,0.1-0.1,0.2-0.1,0.2l-2,3.1c-2,3-4,6.1-6,9.1c-0.2,0.3-0.4,0.4-0.4,0.4c-0.1,0-0.3-0.2-0.5-0.6c-1.4-2.6-3.1-5.6-4.7-8.7
		c-0.9-1.7-2.3-2.8-4.3-3.3c-1.7-0.5-3.2,0-4.2,1.2c-1.7,2-1,3.7-0.5,4.6l0.4,0.6c0.7,1.1,1.4,2.2,2.4,3.2c1.9,2.1,3.9,4,5.9,6.1
		c0.6,0.6,1.3,1.3,1.9,1.9l-0.1,0.2c-0.5,0.7-1,1.5-1.6,2.2c-1.1,1.5-2.3,2.9-3.5,4.3c-1.5,1.9-3,3.8-4.5,5.7
		c-1.1,1.4-2.2,3.3-1.7,5.7c0.3,1.6,1.2,2.6,2.3,2.8c0.1,0,0.2,0,0.4,0c0.6,0,1.5-0.2,2.5-1.2c0.5-0.5,1.1-1.1,1.6-1.6l0.2-0.2
		c2.4-2.3,4.8-4.7,6.9-7.3c5.4-6.7,10.5-13.8,15.6-20.6l0.4-0.6c1.1-1.4,1.7-3.2,2.1-4.6C263.5,252.2,261.9,249.7,260.2,249z"/>
	<path fill="#FFFFFF" d="M354.6,257.7c-2.4-1.1-5.2-2-7.8-1.9c-5,0.2-9.9,1.1-14.9,1.8c-2.6,0.4-3.7,2.1-3.8,4.6
		c-0.1,3.4-0.2,6.8-0.2,10.1c0,1,0.2,2,0.6,2.8c1.2,2.6,3.5,3,5.4,0.8c1.2-1.5,2.6-1.8,4.3-1.5c4,0.8,8,1.2,11.9,2.4
		c11.2,3.4,22.2,7.1,33.3,10.7c0.8,0.3,1.7,0.5,2.5,0.6c1.6,0.2,3-0.5,3.3-2c0.2-1.2-0.2-2.7-0.8-3.9c-0.4-0.7-1.6-1.1-2.5-1.4
		c-8.1-2.7-16.2-5.3-24.3-7.9c-3.4-1.1-6.9-2.1-11-3.3c2.2-1.6,3.7-2.5,5.1-3.7C358.9,263.1,358.6,259.5,354.6,257.7z M337.2,266.5
		c-0.6,0.2-1.2-2.9-0.6-3c3.4-0.5,6.8-0.8,10.2-1.2c1.2,0.1,1.1,0.7,0.3,1.4C343.8,264.7,340.5,265.7,337.2,266.5z"/>
	<path fill="#FFFFFF" d="M271.6,281.6c7.2-0.6,13.1-2.8,18.5-7.2c2.5-2,5.2-5.7,4.3-9.4c-0.9-3.7-4.1-5.1-7.4-6.1
		c-0.8-0.2-1.6-0.4-2.3-0.5c-5,0-10-0.3-15,0c-5.4,0.3-10.6,7.2-10.1,12.8C260.3,277.8,265.1,282.2,271.6,281.6z M279.3,268.7
		c0.5,4.4-7.7,5.2-8.7,2.6C270.4,266.4,278.5,264,279.3,268.7z"/>
	<path fill="#FFFFFF" d="M315.7,261.8c-0.7,1.3-1.2,8-4.7,8.2c-3.2-0.5-2.2-7.9-2.6-9.2c-0.8-2.3-2.4-3.9-5-3.8
		c-2.7,0.1-3.8,1.9-4.2,4.4c-1,6,0.7,11.2,4.7,15.5c3,3.1,6.9,4,11.1,2.4c6.2-2.3,8.6-7.3,9.2-13.4c0.1-0.6,0.2-1.3,0.2-1.9
		c0.2-2.6,0.2-5.6-2.7-6.5C318.4,256.5,316.6,258.6,315.7,261.8z"/>
</g>
</svg>
