<?xml version="1.0" encoding="utf-8"?>
<!-- Generator: Adobe Illustrator 18.1.1, SVG Export Plug-In . SVG Version: 6.00 Build 0)  -->
<!DOCTYPE svg PUBLIC "-//W3C//DTD SVG 1.1//EN" "http://www.w3.org/Graphics/SVG/1.1/DTD/svg11.dtd">
<svg version="1.1" id="Layer_1" xmlns="http://www.w3.org/2000/svg" xmlns:xlink="http://www.w3.org/1999/xlink" x="0px" y="0px"
	 width="30px" height="30px" viewBox="0 0 30 30" enable-background="new 0 0 30 30" xml:space="preserve">
<rect fill="#D33E27" width="30" height="30"/>
<path d="M23.1,7.8c0,0-5.8,1.2-5.8,1.2l-7.2-4l-1.2,5.4L6.6,8.8c0,0-0.3,0-0.5,0.2C6,9.1,5.7,9.5,5.7,9.5L4.9,9c0,0,0,0-0.1,0
	c0.1,0.3,0.5,5.1,0.5,5.1c0.1,0.1,5.2,2.9,5.2,2.9l-6.1,1.2l4.7,2.6l-0.2,2.4l12.3,6.9L30,30V11.6C30,11.6,23.2,7.8,23.1,7.8z"/>
<g>
	<path fill="#FFFFFF" d="M26.6,21.5c-0.1,0-0.2,0-0.3,0c-0.5-0.1-3.4,0.1-4.1,0.1c-0.9,0.1-1.9,0.1-2.8,0.2c-0.3,0-0.6,0-0.9,0.1
		c-0.1,0-0.2,0-0.2-0.1c0-0.3,0-0.7,0-1c0,0,3.5-0.2,3.7-0.3c0.1,0,0.2-0.1,0.2-0.2c0-0.1-0.1-0.2-0.3-0.3c-0.1,0-2.9,0.1-3.6,0.1
		c-0.4,0-0.4,0-0.6-0.3c-0.1-0.2,0-0.3,0.2-0.3c0.3,0,0.7,0,1,0c0.5,0,1-0.1,1.5-0.1c0.2,0,0.4-0.1,0.6-0.2c0.1,0,0.2-0.1,0.2-0.3
		c0-0.1-0.1-0.2-0.2-0.3c0,0-0.1,0-0.1,0c-0.3,0-2.3,0-2.7,0c-0.3,0-0.6,0-1-0.1c-0.1,0-0.2,0-0.3,0c-0.1,0-0.2,0-0.3,0
		c-0.2,0-0.4-0.1-0.7-0.1c-0.8-0.1-1.6-0.1-2.5,0c-0.1,0-0.2,0-0.2-0.1c-0.2-0.1-0.2-0.1-0.4,0c-0.2,0.1-0.3,0.1-0.5,0.1
		c0-0.1,0-0.1,0-0.1c0.1-0.1,0-0.3-0.1-0.4c-0.1-0.1-0.3-0.1-0.5,0c-0.2,0.1-0.2,0.2-0.2,0.4c0,0.1,0,0.2,0,0.3
		c-0.1,0.4-0.2,0.9-0.4,1.3c0,0,0,0.1-0.1,0.2c-0.1-0.1-0.1-0.1-0.2-0.1c-0.4-0.4-0.8-0.8-1.4-1.2c-0.2-0.1-0.3-0.2-0.4-0.4
		c-0.1-0.1-0.2-0.1-0.3-0.2C9.1,18.3,9,18.2,9,18c0-0.1,0.1-0.1,0.2-0.2c0.5-0.1,1-0.2,1.5-0.2c0.4-0.1,0.7-0.1,1.1-0.2
		c0,0,0.1,0,0.1,0c0,0,0,0.1,0.1,0.1c0.1,0.1,0.3,0.2,0.4,0.1c0.2,0,0.3-0.2,0.3-0.3c0-0.1,0-0.3,0-0.5c0-0.8-0.1-1.6-0.1-2.5
		c0-0.2,0-0.4,0.1-0.6c0.2-0.4,0.4-0.8,0.5-1.2c0.1-0.1,0.1-0.2,0.3-0.2c0.1,0,1-0.1,1.4-0.1c0.1,0,0.2,0,0.2,0.1
		c0.1,0.2,0.8,1.7,1,1.8c0.3,0.2,0.8,0.1,0.8-0.2c0-0.1-0.1-0.5-0.1-0.6c-0.1-0.4-0.3-0.6-0.4-1c-0.1-0.2-0.2-0.3,0-0.4
		c0.3-0.2,0.9-0.7,0.9-0.7c0,0.2,0,0.3,0,0.4c0,0.4,0.1,0.8,0,1.2c0,0.1,0,0.2,0,0.3c0.1,0.2,0.2,0.4,0.3,0.6
		c0.1,0.1,0.2,0.2,0.3,0.2c0.2,0.1,0.4,0,0.4-0.3c0-0.1,0-0.2,0-0.3c1.2,0.6,2.3,0.5,3.1,0.1c0.3-0.2,0.6-0.4,0.7-0.8
		c0.1-0.2,0.1-0.5-0.1-0.6C22,12.1,21.9,12,21.8,12c-0.3-0.1-0.6-0.3-0.8-0.4c-0.3-0.1-0.5-0.3-0.8-0.4c0.1-0.1,1.9-1.1,1.9-1.1
		c0.2-0.1,0.3-0.4,0.1-0.6c-0.1-0.1-0.1-0.1-0.2-0.2c-0.3-0.1-0.6-0.1-0.9,0c-0.8,0.1-1.5,0.4-2.1,0.8c-0.2,0.1-0.4,0.2-0.6,0.4
		c-0.1,0.1-0.2,0.4-0.2,0.4s-0.4-1.9-0.4-1.9c0.2,0,0.4,0,0.5,0c1.3-0.1,2.5-0.2,3.8-0.3c0.3,0,0.6,0,1-0.1c0.2,0,0.3-0.1,0.3-0.3
		c0-0.2,0-0.3-0.2-0.4c0,0-0.1-0.1-0.2-0.1c-0.2,0-0.3-0.1-0.5-0.1c-0.7-0.1-1.3,0-2,0c-1.1,0.1-2.1,0.2-3.1,0.3
		c-0.8,0.1-1.5,0.2-2.2,0.3c-0.4,0-0.9,0.2-1.3,0c-0.1,0-0.2,0-0.2,0c-0.2,0-0.3,0.1-0.3,0.3c0,0.2,0.1,0.3,0.2,0.3
		c0.1,0,0.2,0,0.3,0c1,0,2,0,3,0c0.2,0,0.2,0,0.3,0.2c0,0.1,0.1,1,0.2,1.4c0,0.1,0,0.2-0.1,0.3c-0.3,0.2-0.6,0.5-1,0.6
		c-0.2,0.1-0.6-1.4-1-1.8c-0.2-0.3-0.3-0.3-0.6-0.2c-0.3,0.2-1,1.4-1.2,1.7c-0.1,0.2-0.2,0.3-0.3,0.5c0,0-0.1,0.1-0.2,0.1
		c-0.1,0-0.1-0.1-0.2-0.2c0,0-0.2-2.6-0.1-2.8c0-0.1,0-0.1,0.1-0.2c0.1-0.3-0.2-0.5-0.5-0.5c-0.3,0-0.4,0.3-0.4,0.5
		c0,0.2,0,0.4,0,0.5c0,0.3,0,1.5,0,1.8c-0.3,0-0.6,0-0.8,0c-0.4,0-0.4,0-0.5-0.4c-0.1-0.4-0.2-0.8-0.3-1.1C10,9.2,9.9,9,9.6,9
		c0,0,0,0-0.1,0c0.1-0.4,0.1-0.9,0.2-1.3c0.2-0.8,0.3-1.6,0.5-2.4c0-0.1,0-0.2-0.1-0.3c-0.1-0.1-0.2,0-0.4,0c0,0-0.1,0.1-0.1,0.1
		C9.5,5.3,9.3,5.5,9.2,5.7C9.1,5.8,9,6,9.1,6.1c0,0.1,0,0.2,0,0.2C9.1,6.7,9,7,8.9,7.2c-0.1,0.6-0.5,3.2-0.6,4
		c-0.1,0.7-0.2,1.4-0.3,2.1c0,0.1,0,0.1-0.1,0.2c0,0,0,0-0.1,0c0-0.1,0-0.1,0-0.2c-0.1-0.6-0.5-2.8-0.6-3.4C7.2,9.6,7,9.3,6.8,8.9
		C6.7,8.7,6.4,8.7,6.2,8.9C6,9,5.9,9.2,5.7,9.3c0,0,0,0.1,0,0.1c-0.1,0.3-0.1,0.6-0.2,0.9c0,0,0,0.1-0.1,0.1
		c-0.1-0.4-0.2-0.7-0.2-1.1c0-0.1-0.1-0.2-0.1-0.3C4.9,9,4.6,8.9,4.5,9.1c-0.2,0.2-0.2,0.4,0,0.6c0.1,0.1,0.2,0.3,0.2,0.5
		c0,0.5,0.1,1,0.1,1.5c0,0.5,0.1,1,0.1,1.5c0,0.4,0.2,0.6,0.4,0.9c0,0,0.1,0.1,0.2,0.1c0.2,0.1,0.3,0,0.3-0.2
		c0.1-0.5,0.2-0.9,0.3-1.4c0.1-0.7,0.2-1.4,0.3-2.1c0-0.1,0-0.1,0.1-0.2c0.1,0,0.1,0.1,0.1,0.1c0.1,0.5,0.2,0.9,0.4,1.4
		c0.2,0.8,0.4,1.5,0.6,2.3c0,0.1,0,0.3,0.1,0.4c0,0.1,0,0.1,0.1,0.2c0.1,0.1,0.2,0.2,0.4,0.3c0.1,0.1,0.2,0.1,0.3,0.2
		c0.2,0.1,0.3,0,0.4-0.2c0.1-0.2,0.7-2,0.8-2.7c0-0.2,0.1-0.4,0.1-0.5c0.4,0,0.4,0,0.4,0.4c0,0.3,0,0.7,0,1c0,0.2,0.1,0.3,0.2,0.5
		c0.2,0.2,0.4,0.1,0.5-0.2c0-0.2,0.1-0.4,0.1-0.6c0-0.2,0-0.5,0-0.7c0-0.1,0-0.2,0.1-0.2c0.3,0,0.6-0.1,1-0.1c0,0.1,0,1.4,0,2
		c0,0.5,0,1,0,1.5c0,0.5,0.1,1,0,1.4c0,0.1,0,0.1,0,0.2c-0.3,0-0.5,0-0.8,0C10.3,16.9,9.6,17,9,17.1c-0.1,0-0.3,0-0.4,0
		c-0.1,0-0.3,0-0.4,0c-0.2,0-0.3,0.1-0.5,0.1c-0.7,0.1-1.3,0.2-2,0.4c-0.3,0.1-0.7,0.1-1,0c-0.2-0.1-0.4,0.1-0.5,0.2
		c-0.1,0.1,0,0.3,0.2,0.4c0.2,0.1,0.4,0.2,0.6,0.2c0.6,0.1,1.2,0,1.8-0.1c0.4-0.1,0.7-0.2,1.1-0.2c0.2,0,0.2,0,0.2,0.2
		c0,0.4,0.4,4.1,0.5,4.4c0,0.1,0,0.3,0.1,0.4c0.1,0.2,0.2,0.3,0.4,0.3c0.3,0,0.5-0.2,0.5-0.4c0-0.2,0-0.3,0-0.5
		c-0.1-1-0.2-3-0.2-3.1c0.2,0.2,0.4,0.4,0.6,0.5c0.3,0.2,0.6,0.5,0.8,0.7c0.1,0.1,0.3,0.2,0.4,0.3c0.1,0.1,0.2,0.2,0.1,0.3
		c-0.1,0.6-0.1,1.2-0.4,1.8c-0.1,0.1-0.1,0.3,0,0.4c0.1,0.3,0.4,0.4,0.7,0.2c0.2-0.1,0.3-0.2,0.3-0.4c0.1-0.4,0.2-0.8,0.3-1.2
		c0-0.2,0.1-0.3,0.1-0.5c0.3,0.1,0.4,0.3,0.4,0.6c0,0.1,0,0.8,0.1,1.1c0.1,0.2,0.2,0.3,0.5,0.3c0.2,0,0.3-0.1,0.3-0.3
		c0-0.1,0-0.2,0-0.3c0-0.3,0-0.7,0-1c0-0.1,0-0.2,0.2-0.2c0.4-0.1,0.9-0.3,1.3-0.5c0.5-0.2,1-0.4,1.5-0.6c0.2-0.1,0.4-0.2,0.6-0.3
		c0,0.1,0.1,0.8,0.1,1.1c0,0.1,0,0.2-0.1,0.3c-0.3,0.3-0.4,0.6-0.1,0.9c0.1,0.2,0.3,0.2,0.5,0.3c0.4,0.1,0.7,0.1,1.1,0
		c0.5-0.1,0.9-0.1,1.4-0.2c0.5-0.1,1-0.1,1.6-0.2c0.8-0.1,1.7-0.1,2.5-0.2c0.5,0,1.1-0.1,1.6-0.3c0.3-0.1,0.6-0.2,0.9-0.4
		c0,0,0.1,0,0.1-0.1C26.8,21.6,26.7,21.5,26.6,21.5z M21.2,10.2c-0.2,0.1-0.8,0.6-0.9,0.7c-0.2,0.1-0.3,0.1-0.5,0
		c-0.1-0.1-0.2-0.2-0.3-0.3C19.8,10.3,20.9,10,21.2,10.2z M20.7,12.2c0.1,0,0.1,0.1,0.3,0.1c-0.1,0.1-1.1,0.7-2.5,0.9
		c-0.1,0-0.1,0.1-0.2,0.1c0,0,0,0,0,0c0-0.1,0-0.6,0-0.7c0-0.4-0.1-0.8-0.1-1.3c0,0,0-0.1,0-0.1C18.3,11.3,20.3,12,20.7,12.2z
		 M14.4,10.7l0.4,0.9c0,0-1,0-1,0C13.9,11.3,14.4,10.7,14.4,10.7z M9.5,11c-0.1,0-0.2-0.1-0.2-0.2c0-0.3,0.1-0.7,0.1-1
		c0,0,0,0,0.1,0c0,0,0.1,0.7,0.2,1C9.6,10.9,9.6,11,9.5,11z M12.9,20.4c0,0.1-0.1,0.2-0.2,0.3c0,0-0.1,0-0.1,0c0-0.2,0.1-1,0-1.1
		c0-0.1,0-0.2,0.1-0.2c0.1,0,0.3,0.1,0.3,0.2C12.9,19.9,12.9,20.2,12.9,20.4z M13.8,20.2c0-0.3-0.1-0.5-0.1-0.8c0,0,0.1-0.1,0.1-0.1
		c0,0,0.1,0,0.2,0c0.6,0,1.1,0,1.7-0.1c0.1,0,0.1,0,0.2,0c0,0,0,0,0,0C15.2,19.6,14.5,19.9,13.8,20.2z"/>
	<path fill="#FFFFFF" d="M15.6,14.9C15.6,14.9,15.6,14.9,15.6,14.9c-0.2,0-0.3,0-0.3,0.1c0,0,0,0,0,0c0,0,0,0,0,0l-0.1,0.2
		c-0.1,0.2-0.2,0.4-0.4,0.5c0,0,0,0,0,0c0,0,0,0,0,0c-0.1-0.2-0.2-0.3-0.3-0.5c-0.1-0.1-0.1-0.2-0.3-0.2c-0.1,0-0.2,0-0.3,0.1
		c-0.1,0.1-0.1,0.2,0,0.3l0,0c0,0.1,0.1,0.1,0.1,0.2c0.1,0.1,0.2,0.2,0.4,0.4c0,0,0.1,0.1,0.1,0.1l0,0c0,0-0.1,0.1-0.1,0.1
		c-0.1,0.1-0.1,0.2-0.2,0.3c-0.1,0.1-0.2,0.2-0.3,0.3c-0.1,0.1-0.1,0.2-0.1,0.3c0,0.1,0.1,0.2,0.1,0.2c0,0,0,0,0,0
		c0,0,0.1,0,0.2-0.1c0,0,0.1-0.1,0.1-0.1l0,0c0.1-0.1,0.3-0.3,0.4-0.4c0.3-0.4,0.6-0.8,0.9-1.2l0,0c0.1-0.1,0.1-0.2,0.1-0.3
		C15.8,15.1,15.7,15,15.6,14.9z"/>
	<path fill="#FFFFFF" d="M21.3,15.5c-0.1-0.1-0.3-0.1-0.5-0.1c-0.3,0-0.6,0.1-0.9,0.1c-0.2,0-0.2,0.1-0.2,0.3c0,0.2,0,0.4,0,0.6
		c0,0.1,0,0.1,0,0.2c0.1,0.2,0.2,0.2,0.3,0c0.1-0.1,0.2-0.1,0.3-0.1c0.2,0,0.5,0.1,0.7,0.1c0.7,0.2,1.3,0.4,2,0.6c0,0,0.1,0,0.1,0
		c0.1,0,0.2,0,0.2-0.1c0-0.1,0-0.2,0-0.2c0,0-0.1-0.1-0.1-0.1c-0.5-0.2-1-0.3-1.5-0.5c-0.2-0.1-0.4-0.1-0.7-0.2
		c0.1-0.1,0.2-0.2,0.3-0.2C21.5,15.8,21.5,15.6,21.3,15.5z M20.2,16c0,0-0.1-0.2,0-0.2c0.2,0,0.4,0,0.6-0.1c0.1,0,0.1,0,0,0.1
		C20.6,15.9,20.4,15.9,20.2,16z"/>
	<path fill="#FFFFFF" d="M16.3,16.9c0.4,0,0.8-0.2,1.1-0.4c0.1-0.1,0.3-0.3,0.3-0.6c-0.1-0.2-0.2-0.3-0.4-0.4c0,0-0.7,0-1,0
		c-0.3,0-0.6,0.4-0.6,0.8C15.6,16.7,15.9,16.9,16.3,16.9z M16.8,16.1c0,0.3-0.5,0.3-0.5,0.2C16.2,16,16.7,15.8,16.8,16.1z"/>
	<path fill="#FFFFFF" d="M18.9,15.7c0,0.1-0.1,0.5-0.3,0.5c-0.2,0-0.1-0.5-0.2-0.6c0-0.1-0.1-0.2-0.3-0.2c-0.2,0-0.2,0.1-0.3,0.3
		c-0.1,0.4,0,0.7,0.3,0.9c0.2,0.2,0.4,0.2,0.7,0.1c0.4-0.1,0.5-0.4,0.6-0.8c0,0,0-0.1,0-0.1c0-0.2,0-0.3-0.2-0.4
		C19.1,15.4,19,15.5,18.9,15.7z"/>
</g>
</svg>
