<?xml version="1.0" encoding="utf-8"?>
<!-- Generator: Adobe Illustrator 18.1.0, SVG Export Plug-In . SVG Version: 6.00 Build 0)  -->
<!DOCTYPE svg PUBLIC "-//W3C//DTD SVG 1.1//EN" "http://www.w3.org/Graphics/SVG/1.1/DTD/svg11.dtd">
<svg version="1.1" id="Layer_1" xmlns="http://www.w3.org/2000/svg" xmlns:xlink="http://www.w3.org/1999/xlink" x="0px" y="0px"
	 viewBox="135 0 530 530" enable-background="new 135 0 530 530" xml:space="preserve">
<rect x="220.6" y="76.5" fill="#FFDA00" width="353.3" height="265"/>
<rect x="135" fill="#F37573" width="530" height="530"/>
<path d="M665.1,227.5l-129.7-72.7c-0.1,0-0.2,0-0.2-0.1l-0.1,0.1c-1.9-0.7-6.8,1.2-7.2,0.6c7.5,10.4-4.2,19.2-18.6,25.8l-87.8-49.5
	c-0.5,2.4-1.5,4.9-2.4,7.2c0.2,0.6,0.3,1.3,0.1,2.1c-1.3,4.5-2.4,8.8-3.7,13.2c-0.7,2.8-1.3,5.5-1.8,8.3c2.8,1.3,2.3,6.3-1.4,6.3
	c-0.4,0-0.8,0-1.3,0c-0.3,0.2-0.7,0.2-1.3,0.2c-0.3,0.3-0.7,0.4-1.2,0.5c-1.5,0.3-3,0.4-4.5,0.7l0,0c-0.2,0.1-0.5,0.1-0.8,0.1
	c-0.6,0-1.3-0.2-1.7-0.4c-2.2,0.2-4.1,0.3-4.1,0.3l11.2,6.6c0,0-0.6,1.9-0.6,2.3l-14.1-7.9l-4.6,4.5l-77.2-41.3l0.6,26.9l-22-12.4
	l-1.7,4c0.7,0.2,1.3,0.7,1.7,1.6c0.1,0.1,0.1,0.1,0.2,0.2h-0.1v0.1c1.5,6.3,1.3,12.9,4.5,18.8c2.9,5.3,4,9,4,15.1
	c-0.1,2.1-2.1,3-3.6,2.3c0,0.3-0.1,0.7-0.1,1L253.4,168c0,0-2.3-0.3-4.3-0.4c0.2,0.8,0.1,1.7-0.3,2.3c0,0.1,0,0.1,0,0.2
	c-0.1,4-0.8,7.7-1.8,11.4c0.8,0.8,1.3,1.9,0.8,3.4c-1.6,6.6-1.5,13-1.5,19.8c0.6,1.2-1.6,3.8-1.6,3.8l49.6,28.1
	c-0.1,1.2-0.2,2.3-0.3,3.4l-15.2-8.6l-0.4,0.4c-0.3,0-1,0.5-0.8,0.8c0,0-6.1,14.9-4.2,20.4c-0.2,2.2-2.1,14,1.8,17.7
	c0.2,0.2,20.2,11.4,20.2,11.4s-10.8,2.2-14,2.9l-0.2-0.1h-2.2l-12.6,5.5l-2.5,3.5c-2.2,1.4-4.5,2.9-6.6,4.6
	c-0.6,0.4-1.2,0.6-1.7,0.7c-0.1,0.2-0.2,0.3-0.4,0.4c-4.3,4.1-7.4,9.8-9.4,15.9c-0.5,3.8-0.6,7.7-0.6,11.8c0,1.2-0.4,2-1.2,2.6
	c0,0.2,0.1,0.2,0.1,0.4c0.7,8.3,1.9,16.7,7.2,23c1.1,3,1.8,5.1,1.7,5.3l4.9,2.8l0,0h0.1l297.6,168.8L665,530L665.1,227.5
	L665.1,227.5z M250,207.3c-0.2-0.1,0.3,0.1,1.4,0.5C250.9,207.8,250.4,207.7,250,207.3z"/>
<g>
	<path fill="#FFFFFF" d="M249.7,209.7c8.9,0,14.7-4.5,18.8-10.8c1.5,4.5,4.1,8.4,8.5,10.1c5.1,1.9,12.8,1.2,17.4-1.7
		c19.1-11.6,5-43.9-3.2-58c-0.8-1.5-7.5,0.6-7.6,0.3c7.4,12.8,15.1,30.5,11.4,45.8c-0.8,3.8-2.5,7.1-5.3,9.8
		c-3.4,3.2-5.9,4.2-9.3,0.4c-5.5-5.9-6.4-15.7-5.9-23.3c0-0.4-7.5-0.8-7.6,0.2c-1,5.2-2.2,10.4-4.7,15.2c-1.8,3.4-7.9,12.5-11.9,9.6
		c-4.1-3-2.2-14-1.8-18.2c0.7-7.2,2.4-14.2,5-21c-0.1,0.2-7.2-1.3-7.6,0.2c-3.6,10-5.6,20.5-5.3,31.2
		C240.4,206.5,242.6,209.7,249.7,209.7z"/>
	<path fill="#FFFFFF" d="M307.8,209.7c0,0.5,7.6,0.7,7.6-0.2c1-8.3,1.6-16.7,4.5-24.7c1.3-3.4,2.9-6.6,5-9.4c1.7-2.3,4.8-6.1,8-8.3
		c3,3.8,2.8,12.5,3.3,16.3c1,6.9,1.9,14.1,4.1,20.8c1.9,5.5,5.3,8.4,11.2,8.4c4.8,0,7.3-2,9.2-5.2c2.8,3,6.6,4.8,11.6,4.8
		c7.5-0.1,12.1-3.3,15.5-8.3c1.7,3.3,4.1,6,7.8,7.8c7.5,3.7,16.5,2.1,22.7-3c4.9,4.2,11.1,5.5,17.7,4.5c8.9-1.5,12.5-14.4,14.7-22.5
		c3,3.9,6.1,7.5,9.2,11.4c-13.1,8.8-23.5,21.8-20,38.7c1.9,9.3,8.2,15.6,17.8,15.4c8.1-0.2,14.4-3.8,17.9-11.2
		c5.1-10.4,2.8-23.1-1.9-33.1c-1.7-3.6-3.9-6.8-6.3-9.9c7.5-5,16.1-8.5,24.5-11.4c10.3-3.6,57-16.7,43.7-35.2
		c-1.2-1.6-7.2,0.7-7.6,0.2c14.2,19.6-40.3,33.5-51.1,37.8c-3.8,1.5-7.8,3.4-11.8,5.6c-4.1-5.1-8.5-10.1-11.4-16
		c-2.6-5.4-4-12.6-0.4-17.9c0.5-0.7,1.3-1.4,2-2.1c3.2-0.8,6.5-1.9,9.6-3c0.5-0.2,0.6-0.3,0-0.5c-4.9-1-10.9-0.8-15.2,1.8
		c-0.8,0.5-1.5,1.1-2.1,1.7c-1,0.2-1.9,0.5-2.9,0.7c-9.4,2.3-19,4-28.6,5.1c0.2-1.7,0.2-3.3,0.4-5c1-10.7,2.7-21.4,5-31.9
		c0-0.2-7.4-1-7.7,0.3c-2.5,12.3-4.5,24.7-5.4,37.3c-2.9,0.2-5.7,0.5-8.6,0.7c-5.4,0.3-0.4,1.1,2.1,0.8c2.1-0.2,4.3-0.2,6.5-0.4
		c-0.1,0.8-0.1,1.8-0.2,2.7c-0.6,11.6,0.1,24.6,8.3,33.6c0.1,0.1,0.1,0.1,0.2,0.2c-1.7-0.2-3.4-0.4-4.2,0.3
		c-3.7,3.8-7.1,5.9-11.8,2.3c-3.4-2.6-5.5-6.7-6.7-10.8c-2.5-8.9-1.1-18.4,0.3-27.3c0-0.3-7.5-0.8-7.7,0.2c0,0.2-0.1,0.3-0.1,0.4
		c-4.3-2.9-9.4-3.7-15.4-2.5c-11,2-16,14.9-15.2,25c0.2,1.8,0.4,3.4,0.8,5c-0.2,0.1-0.5,0.3-0.6,0.4c-1,2.9-2.2,7.3-4.5,10
		c-5.7-4.7-6.6-18.6-7.3-24.1c-0.8-5.1-0.2-20-6.7-21.3c-9.1-1.8-16.5,5.1-21.2,12.1c-0.3,0.6-0.7,1.3-1.2,1.8
		c-0.4-14.6-1.4-29.4-2.8-43.9c-0.1-0.8-7.7-0.3-7.6,0.2C306.9,159.7,308.1,184.7,307.8,209.7z M464.1,208.3
		c4.5,8.2,7.2,17.4,6.4,26.7c-0.8,7.4-8.2,25.7-17.4,16.3c-6.3-6.3-7.2-16.3-5.1-24.6c2.3-9.1,7.6-16.1,14.3-21.5
		C463,206.4,463.6,207.3,464.1,208.3z M416.1,169.8c9.9-1,19.9-2.4,29.6-4.6c-3.2,5.2-2.4,12.3,0.3,17.8c1,2,2.2,4,3.5,5.8
		c-2.2-0.3-5.7-0.5-6.1,0.4c-1.4,4.6-3,9.1-5.1,13.5c-1.3,2.5-3.5,8.8-6.8,8.9c-3.8,0.2-8.4-5.9-10.2-8.8c-2.1-3.4-3.5-7.1-4.5-10.9
		C415.3,184.8,415.5,177.2,416.1,169.8z M367.4,177.5c1.8-2.9,4.6-6.6,8.2-6.6c4,0.1,7.3,4.6,9.3,7.5c0.1,0.2,0.2,0.2,0.4,0.3
		c-0.6,4.9-1,10.2-0.4,15.2c-0.2,0.1-0.4,0.2-0.5,0.4c-1.1,3-2,6-3.7,8.8c-1.3,2.3-4.8,7.4-7.8,7.4c-5.9-0.1-8.9-11-9.4-15.5
		C362.9,189.1,364.2,182.7,367.4,177.5z"/>
	<path fill="#FFFFFF" d="M365.2,272.2c5.7,0,9.6-2.9,12.5-6.8c1.3,3,3.4,5.1,6.5,6.1c2.9,1,6.8,0.8,9.6,0.2c0.5-0.1,1-0.2,1.5-0.4
		v0.1c0,0.7,7.7,0.5,7.7-0.2c0-1,0-1.9,0-3c0.1-5.6,0.8-11.3,3.1-16.6c2.3-5.5,7.7-12.9,14.7-12.2c1.6,0.2,3.9,0.3,5.5-0.2
		c1-0.3,1.6-0.5,0-0.7c-7.1-0.8-15.4-0.5-21.2,4c-0.7,0.6-1.5,1.3-2.1,1.9c0-2.3,0-4.7,0-7.1c0-0.6-7.7-0.6-7.7,0.2
		c-0.1,7.9,0,16,0.1,24c-0.4,0.1-0.8,0.2-0.8,0.5c-0.6,1.8-2.4,7.7-4.7,8c-2.6,0.2-4.6-6.6-5-8.5c-0.6-2.5-0.8-5.2-1-7.9
		c0.1-0.2,0.2-0.3,0.2-0.6c0,0-0.1,0-0.2,0c-0.2-5.5,0.5-10.9,1.8-16.1c0-0.1-7.3-1.1-7.7,0.2c-1,4.1-2.2,10.9-2,17.4
		c-0.8,2.1-1.9,4.1-2.9,6.1c-1,1.9-1.9,3.6-3.2,5.3c-0.7,1-1.4,1.9-2.2,2.7c-0.3,0.4-0.7,0.8-1.3,1.3c-9.6-6.5-6.9-24.2-5.8-33.6
		c0-0.3-7.6-0.8-7.6,0.2c-0.2,2.3-0.6,5.1-0.7,8.3c-0.1,0.1-0.2,0.1-0.3,0.2c-2.8,1.9-5.7,3.6-8.8,4.8c-1.4-7.2-6.1-13.8-13-16
		c-3.9-1.3-9.4-1.2-13.4,0.3c-2.8,1.1-4.2,2.9-4.8,5.1c-6.4,6.1-8.3,17.3-3.7,25.4c5.1,9.3,19.6,9.4,27.8,4.2
		c5.9-3.8,8.2-10.5,7.4-17.2c3-0.5,5.8-1.4,8.7-2.7C351.6,260.3,353.7,272.3,365.2,272.2z M332.7,243.9c1.3,2.4,2.2,5,2.6,7.7
		c-2.9,0.1-5.6-0.2-8.5-1.3c-4.7-1.7-9.8-6.7-7.4-12c1.5-1.3,3.4-2.2,5.5-2.4C328.1,237.2,331.3,241.6,332.7,243.9z M335.3,258.7
		c-0.8,4.5-3.9,9.6-8.4,11.3c-6.5,2.4-11.1-3.3-12.7-9c-1-3.5-1.1-8.7,0.2-13.4c0.3,0.3,0.7,0.6,1.1,0.8c5.4,4.1,13.6,4.5,20.2,4.2
		C335.8,254.8,335.7,256.7,335.3,258.7z"/>
	<path fill="#FFFFFF" d="M494.1,317.9c-3.2,6.8-6.7,14.3-12.5,19.3c-7.2,6.1-16.9,3.2-22.5-3.7c-0.7-0.8-1.3-1.9-1.8-2.9
		c2.1-2.1,4-4.5,5.5-7.1c2.5-4.2,8.8-16.1,5.3-21c-2.2-3-9.2-1.9-12.1-0.7c-5.6,2.2-8,8.8-8.6,14.4c-0.6,5.5,0.2,10.4,2.4,14.3
		c-7.1,7-16,8.3-25.1,6.6c6.8-2.2,12.7-7.6,13.7-14.9c0.8-6.7-3-17.1-10-19.1c-5.9-1.7-11.9-0.5-17.4,1.8c0-0.5,0-1,0-1.5
		c0-0.7-7.6-0.5-7.6,0.2c0,1.8,0.2,15.1,0.2,19.9c-3.7,6.3-8.7,11.3-14,16.1c-0.2-12.1-0.8-24.2-0.1-36.3c0-0.5-7.6-0.7-7.7,0.2
		c-0.5,8.5-0.4,17-0.2,25.4c-0.1,0.1-0.2,0.2-0.2,0.3c-1.2,2.7-3.9,8.7-7.2,9.2c-4.2,0.6-5.4-5.5-5.8-8.6
		c-1.4-9.3-1.2-19.1-0.2-28.4c-0.1,0-0.1-0.1-0.2-0.1c-7.5-4-15.6-7.4-23.8-10.3c0.5-5.3,1.1-10.7,1.3-16c0-0.5-7.6-0.7-7.6,0.2
		c-0.3,4.5-0.7,9-1.2,13.5c-2.9-0.8-5.6-1.6-8.5-2.2c-8.7-2-18.4-3.7-28.2-4c0.3-16.7,0.1-33.6,2-50c0-0.3-7.6-0.8-7.6,0.2
		c-0.8,6.9-1.3,13.8-1.5,20.8c-0.1,0.1-0.2,0.2-0.2,0.2c-2.2,5-5.1,9.8-9.2,13.5c-0.8,0.8-1.8,1.5-2.8,2.1c-0.2-0.2-0.4-0.4-1-0.8
		c-1.7-1.4-2.2-3.7-2.7-5.7c-2.2-10.1-0.7-21.3,1.8-31.1c0,0-7.3-1.1-7.6,0.2c-2,8.2-3,16.5-2.4,24.9c0.3,5.1,0.7,12.5,6.7,14
		c6.9,1.9,12.7-1,17.2-5.5c-0.1,5.7-0.2,11.4-0.2,17.2c-9.8,0.4-19.4,2.4-27.7,6.6c-11.1,5.8-18.8,16-21.4,28.2
		c-2.9,12.5-1.7,29.9,7.8,39.4c6,6,16.3,7.5,24.3,4.7c11.2-4,15.9-19.9,18.9-30.2c4.3-15.5,5.5-31.4,5.8-47.3
		c3.5,0.2,7.2,0.5,10.6,1.1c8.7,1.3,17.4,3.6,25.8,6.6c-0.4,4.7-0.8,9.3-1.3,14c-0.6,9.2-1.5,19.4,0.6,28.5c1.3,5.5,4.9,5.8,10,5.3
		c6-0.6,10.5-4.7,14.6-8.9c0.6,3.6,1.9,7,5,8.7c3.4,1.8,8.7,1.4,12.3,0.7c1.6-0.2,2.9-0.8,4.1-1.6c0.1,2.6,0.1,5.2,0.1,7.8
		c-5.7,4.8-11.6,9.6-16.3,15.5c-5.1,6.1-9.1,13.9-7.3,22c1.3,5.8,5.2,10.3,11.3,10.6c5,0.2,9.3-0.5,12.4-4.8c5-7.1,6-17.7,7-26.1
		c0.6-6,0.7-12,0.7-18c4.9-4,9.9-7.9,14.1-12.5c0.2,17.8,0.5,35.5,0.7,53.2c0,0.7,7.7,0.5,7.7-0.2c-0.2-16.3-0.5-32.6-0.8-49
		c2.5,0.7,5.2,1.1,7.4,1c9.6,2,19.9,2,28.8-1.3c1.7-0.6,3.4-1.5,4.9-2.4c4,4.3,9.9,7.1,17.1,7.4c6.1,0.3,13-0.1,18-3.8
		c6.7-5,10.6-13.2,14-20.6C501.5,318,494.8,316.3,494.1,317.9z M271.8,360c-6.7,4.9-14-2.8-17.2-8.6c-3.4-6.3-4.7-13.6-5-20.7
		c-0.4-14.2,4.8-28.4,16.2-37.1c7.7-5.8,16.9-8.4,26.3-9c-0.3,12.5-1.1,25.1-3.4,37.4C286.5,334.1,282.6,352.2,271.8,360z
		 M352.7,331c-1.9,1.9-4.2,4.8-6.8,6c-2,1-0.6,1.1-1.5-0.1c-0.6-0.7-0.7-1.9-0.8-2.8c-1.4-6-1.3-12.9-1.2-19.3
		c0.2-6.8,0.7-13.5,1.4-20.4c3.2,1.3,6.4,2.5,9.4,4c1.5,0.7,5.5,1.8,6.6,3.2s0.3,2.9,0.2,5.1c-0.4,4.8-0.4,9.5-0.2,14.2
		c0.1,2.8,0.1,6.4,0.6,9.8C359.5,331.7,354.2,329.4,352.7,331z M381.8,353.1c-0.2,8.1-1,16.1-2.9,24c-1,3.9-1.9,8.1-3.9,11.6
		c-0.8,1.5-1.9,3.1-3.4,4c-0.7-0.4-1.3-1-1.9-1.6c-12.1-11.9,2.2-28.8,10.9-37.4c0.3-0.3,0.7-0.7,1.1-1.1
		C381.8,352.8,381.8,353,381.8,353.1z M421,304c2.8,0,4.7,2.3,6.1,4.5c2.3,3.6,4,8.7,3.9,13c-0.2,5.5-4,10.7-8.6,13.5
		c-0.8,0.5-1.6,0.8-2.3,1.2c-2.5-0.8-5.1-1.8-7.7-2.9c-0.1-0.2-0.2-0.2-0.3-0.4c-0.2-0.3-0.4-0.6-0.6-1c0-2.8-0.2-18.7-0.3-23.1
		C413.8,307.1,418.1,304,421,304z M454.9,316.8c0.2-3.4,1.9-10.7,5.4-13.6c3.1,4.2-1.4,14-5.3,20.5
		C454.8,321.4,454.8,319.1,454.9,316.8z"/>
	<path fill="#FFFFFF" d="M546.4,272.2c-9.3-10.4-25-11.9-37.9-10.7c-10.7,1-37.2,8.3-30.5,24c0.6,1.4,7.6-0.4,7.6-0.2
		c-2.9-6.8,1.5-12.6,7.2-16.2c9.3-5.9,20.6-8.3,31.4-5.1c14.6,4.5,22.7,16.1,18.2,31.3c-4.1,14.2-13.8,25.1-24.7,34.7
		c-9.6,8.4-20.6,19.8-15.4,33.7c0.5,1.3,7.6-0.3,7.6-0.2c-7.4-19.5,14.9-31.4,25.7-43.4C546.2,308.2,559.1,286.3,546.4,272.2z"/>
	<circle fill="#FFFFFF" cx="509.4" cy="381.4" r="5.6"/>
</g>
</svg>
