<?xml version="1.0" encoding="utf-8"?>
<!-- Generator: Adobe Illustrator 18.1.1, SVG Export Plug-In . SVG Version: 6.00 Build 0)  -->
<!DOCTYPE svg PUBLIC "-//W3C//DTD SVG 1.1//EN" "http://www.w3.org/Graphics/SVG/1.1/DTD/svg11.dtd">
<svg version="1.1" id="Layer_1" xmlns="http://www.w3.org/2000/svg" xmlns:xlink="http://www.w3.org/1999/xlink" x="0px" y="0px"
	 width="100px" height="100px" viewBox="-369 301 100 100" enable-background="new -369 301 100 100" xml:space="preserve">
<rect x="-369" y="301" fill="#D33F27" width="100" height="100"/>
<g>
	<g>
		<path fill="#FFFFFF" d="M-319,367.9c-1.3,0-3.1-1-3.1-2.5c0,0,0,0,0,0l0.4-17.1c0-0.3,0.1-0.5,0.4-0.7c0.2-0.2,0.5-0.3,0.8-0.2
			c0.5,0.1,1,0.1,1.6,0.1c5.5,0,10-4.5,10-10c0-5.5-4.5-10-10-10c-5.5,0-10,4.5-10,10c0,3.4,1.7,6.6,4.6,8.5
			c0.5,0.3,0.6,0.9,0.3,1.4c-0.3,0.5-0.9,0.6-1.4,0.3c-3.5-2.2-5.6-6-5.6-10.1c0-6.6,5.4-12,12-12c6.6,0,12,5.4,12,12
			c0,6.6-5.4,12-12,12c-0.3,0-0.5,0-0.8,0l-0.4,16c0.1,0.2,0.7,0.6,1.2,0.6c0.4,0,1.1-0.4,1.2-0.6l-0.6-12.2c0-0.5,0.4-1,0.9-1
			c0.5,0,1,0.4,1,0.9l0.6,12.2c0,0,0,0,0,0C-315.8,366.9-317.7,367.9-319,367.9z"/>
	</g>
	<g>
		<path fill="#FFFFFF" d="M-319,376.6c-1.8,0-3.3-1.5-3.3-3.3c0-1.8,1.5-3.3,3.3-3.3c1.8,0,3.3,1.5,3.3,3.3
			C-315.7,375.1-317.2,376.6-319,376.6z M-319,371.7c-0.8,0-1.5,0.7-1.5,1.5c0,0.8,0.7,1.5,1.5,1.5c0.8,0,1.5-0.7,1.5-1.5
			C-317.5,372.4-318.2,371.7-319,371.7z"/>
	</g>
</g>
</svg>
