<?xml version="1.0" encoding="utf-8"?>
<!-- Generator: Adobe Illustrator 18.1.0, SVG Export Plug-In . SVG Version: 6.00 Build 0)  -->
<!DOCTYPE svg PUBLIC "-//W3C//DTD SVG 1.1//EN" "http://www.w3.org/Graphics/SVG/1.1/DTD/svg11.dtd">
<svg version="1.1" id="Layer_1" xmlns="http://www.w3.org/2000/svg" xmlns:xlink="http://www.w3.org/1999/xlink" x="0px" y="0px"
	 viewBox="0 0 600 600" enable-background="new 0 0 600 600" xml:space="preserve">
<rect x="97" y="86.7" fill="#FFDA00" width="400" height="300"/>
<rect fill="#D3EBD9" width="600" height="600"/>
<path fill="#101010" d="M600.1,257.5l-146.9-82.3c-0.1,0-0.2,0-0.3-0.1c0,0-0.1,0.1-0.1,0.1c-2.1-0.8-7.7,1.3-8.1,0.7
	c8.5,11.8-4.8,21.7-21,29.2l-99.3-56c-0.6,2.8-1.7,5.5-2.8,8.2c0.3,0.7,0.4,1.5,0.1,2.4c-1.4,5-2.8,10-4.2,15
	c-0.8,3.1-1.4,6.2-2,9.3c3.1,1.4,2.6,7.1-1.6,7.1c-0.5,0-1,0-1.5,0c-0.4,0.2-0.9,0.3-1.4,0.3c-0.4,0.3-0.8,0.5-1.3,0.6
	c-1.7,0.4-3.4,0.5-5.1,0.8c0,0,0,0,0,0c-0.3,0.1-0.6,0.1-1,0.1c-0.7,0-1.4-0.2-1.9-0.5c-2.5,0.2-4.7,0.4-4.7,0.4l12.7,7.4
	c0,0-0.7,2.2-0.7,2.6l-16-9l-5.1,5l-87.4-46.8l0.7,30.5l-25-14l-1.9,4.6c0.8,0.2,1.5,0.8,1.9,1.8c0.1,0.1,0.1,0.1,0.2,0.2
	c0,0-0.1,0-0.1,0c0,0,0,0.1,0,0.1c1.7,7.1,1.5,14.6,5,21.2c3.2,6,4.6,10.2,4.5,17.1c-0.1,2.4-2.4,3.3-4.1,2.7c0,0.4-0.1,0.8-0.1,1.1
	l-47.9-27c0,0-2.6-0.4-4.9-0.5c0.2,0.9,0.1,1.9-0.3,2.7c0,0.1,0,0.1,0,0.2c-0.1,4.5-1,8.8-2.1,13c0.9,0.9,1.4,2.2,1,3.8
	c-1.8,7.4-1.7,14.8-1.7,22.4c0.7,1.3-1.8,4.3-1.8,4.3L180,268c-0.1,1.3-0.3,2.6-0.4,3.9l-17.2-9.7l-0.5,0.5c-0.4,0-1.1,0.6-1,1
	c0,0-6.9,16.9-4.8,23.1c-0.3,2.5-2.4,15.8,2,20c0.2,0.2,22.9,12.9,22.9,12.9s-12.3,2.5-15.8,3.2l-0.2-0.1h-2.5l-14.3,6.2l-2.9,4
	c-2.5,1.6-5,3.3-7.4,5.2c-0.7,0.5-1.3,0.7-1.9,0.8c-0.1,0.2-0.3,0.4-0.5,0.5c-4.9,4.7-8.4,11.1-10.7,18c-0.6,4.3-0.7,8.8-0.7,13.3
	c0,1.3-0.5,2.3-1.3,3c0,0.2,0.1,0.3,0.1,0.5c0.8,9.4,2.2,19,8.2,26c1.2,3.3,2,5.8,1.9,6l5.5,3.1c0,0,0,0,0,0c0,0,0.1,0,0.1,0
	l337,191.1l124.4-0.5V257.5z M130.2,234.7c-0.2-0.1,0.4,0.1,1.6,0.6C131.2,235.2,130.7,235.1,130.2,234.7z"/>
<g>
	<path fill="#F37573" d="M129.9,237.3c10.1,0,16.7-5.1,21.2-12.3c1.7,5.1,4.7,9.5,9.6,11.4c5.8,2.2,14.5,1.3,19.7-1.9
		c21.6-13.1,5.6-49.7-3.6-65.6c-1-1.7-8.5,0.7-8.7,0.3c8.4,14.5,17,34.6,13,51.8c-1,4.3-2.9,8-6,11c-3.8,3.6-6.7,4.8-10.6,0.5
		c-6.2-6.7-7.2-17.8-6.7-26.4c0-0.5-8.5-0.9-8.7,0.3c-1.1,5.9-2.5,11.8-5.3,17.1c-2,3.8-9,14.2-13.5,10.9c-4.7-3.4-2.5-15.8-2-20.6
		c0.8-8.2,2.8-16.1,5.6-23.8c-0.1,0.2-8.1-1.4-8.7,0.3c-4.1,11.3-6.4,23.2-6,35.3C119.3,233.7,121.8,237.3,129.9,237.3z"/>
	<path fill="#F37573" d="M195.6,237.4c0,0.6,8.6,0.8,8.7-0.3c1.1-9.4,1.8-19,5-28c1.4-3.8,3.2-7.4,5.6-10.7c1.9-2.6,5.4-7,9-9.4
		c3.3,4.3,3.1,14.1,3.7,18.5c1.1,7.8,2.1,16,4.7,23.5c2.2,6.2,6,9.5,12.7,9.5c5.4,0,8.3-2.3,10.4-5.9c3.1,3.4,7.4,5.4,13.1,5.4
		c8.5-0.1,13.7-3.7,17.5-9.4c1.9,3.7,4.7,6.8,8.9,8.9c8.5,4.2,18.7,2.4,25.7-3.4c5.5,4.8,12.6,6.3,20,5
		c10.1-1.7,14.1-16.3,16.7-25.4c3.3,4.4,7,8.5,10.4,12.9c-14.9,10-26.7,24.7-22.7,43.8c2.2,10.6,9.2,17.6,20.1,17.4
		c9.1-0.2,16.3-4.3,20.3-12.7c5.7-11.8,3.1-26.1-2.2-37.5c-1.9-4.1-4.4-7.7-7.1-11.2c8.5-5.6,18.3-9.6,27.7-12.9
		c11.6-4.1,64.6-19,49.5-39.9c-1.3-1.8-8.2,0.9-8.7,0.3c16.1,22.2-45.6,37.9-57.8,42.8c-4.3,1.7-8.9,3.9-13.3,6.4
		c-4.7-5.8-9.6-11.4-12.9-18.1c-3-6.1-4.5-14.3-0.5-20.3c0.6-0.9,1.5-1.6,2.3-2.4c3.6-1,7.3-2.1,10.9-3.3c0.6-0.2,0.7-0.4,0-0.6
		c-5.5-1.1-12.4-1-17.2,2c-0.9,0.6-1.7,1.2-2.4,1.9c-1.1,0.3-2.1,0.6-3.2,0.9c-10.7,2.7-21.5,4.5-32.4,5.8c0.2-1.9,0.3-3.7,0.5-5.6
		c1.1-12.1,3-24.2,5.6-36.1c0-0.2-8.4-1.1-8.7,0.3c-2.9,13.9-5.1,28-6.1,42.2c-3.2,0.3-6.5,0.6-9.7,0.8c-6.1,0.4-0.5,1.2,2.4,1
		c2.4-0.2,4.9-0.3,7.3-0.5c-0.1,1-0.1,2-0.2,3c-0.7,13.1,0.1,27.8,9.3,38c0.1,0.1,0.1,0.1,0.2,0.2c-1.9-0.3-3.9-0.5-4.8,0.4
		c-4.2,4.3-8,6.7-13.3,2.6c-3.9-3-6.3-7.6-7.6-12.2c-2.9-10.1-1.2-20.9,0.4-31c0-0.3-8.5-1-8.7,0.3c0,0.2-0.1,0.4-0.1,0.5
		c-4.9-3.2-10.7-4.2-17.4-2.9c-12.5,2.3-18.1,16.9-17.2,28.3c0.2,2,0.5,3.9,1,5.7c-0.3,0.1-0.6,0.3-0.7,0.5
		c-1.1,3.2-2.5,8.3-5.1,11.3c-6.5-5.3-7.4-21-8.3-27.2c-0.9-5.8-0.2-22.7-7.6-24.1c-10.3-2-18.7,5.8-24,13.7c-0.4,0.7-0.9,1.4-1.3,2
		c-0.5-16.6-1.6-33.2-3.1-49.7c-0.1-1-8.8-0.4-8.7,0.3C194.7,180.9,196,209.1,195.6,237.4z M372.6,235.8c5,9.2,8.2,19.7,7.2,30.3
		c-0.9,8.4-9.2,29.1-19.7,18.5c-7.1-7.1-8.1-18.5-5.7-27.8c2.6-10.3,8.6-18.2,16.2-24.4C371.3,233.6,372,234.7,372.6,235.8z
		 M318.2,192.2c11.2-1.1,22.5-2.8,33.5-5.2c-3.6,5.9-2.7,13.9,0.4,20.2c1.1,2.3,2.5,4.5,4,6.6c-2.5-0.3-6.5-0.6-6.9,0.5
		c-1.6,5.2-3.4,10.3-5.8,15.2c-1.4,2.9-4,10-7.7,10.1c-4.3,0.2-9.5-6.7-11.5-10c-2.4-3.8-4-8-5-12.4
		C317.3,209.2,317.5,200.6,318.2,192.2z M263.1,201c2-3.2,5.2-7.5,9.3-7.4c4.5,0.1,8.3,5.2,10.6,8.5c0.1,0.2,0.3,0.3,0.5,0.4
		c-0.7,5.5-1.1,11.5-0.5,17.2c-0.3,0.1-0.5,0.3-0.6,0.5c-1.2,3.4-2.3,6.9-4.2,10c-1.5,2.6-5.4,8.4-8.9,8.4
		c-6.7-0.1-10.1-12.5-10.7-17.5C258,214.1,259.4,206.9,263.1,201z"/>
	<path fill="#F37573" d="M260.7,308.2c6.5,0,10.9-3.2,14.2-7.7c1.5,3.3,3.8,5.8,7.3,7c3.2,1.1,7.7,0.9,10.9,0.2
		c0.6-0.1,1.1-0.3,1.7-0.5c0,0,0,0.1,0,0.1c0,0.8,8.7,0.6,8.7-0.3c0-1.1,0-2.2,0-3.3c0.1-6.4,1-12.8,3.5-18.8
		c2.6-6.2,8.8-14.7,16.7-13.8c1.8,0.2,4.4,0.4,6.2-0.2c1.1-0.4,1.8-0.6,0-0.8c-8-1-17.4-0.6-24,4.6c-0.9,0.7-1.7,1.4-2.4,2.2
		c0-2.7,0-5.3,0-8c0-0.7-8.7-0.7-8.7,0.3c-0.1,9,0,18.1,0.1,27.1c-0.5,0.1-0.9,0.3-1,0.6c-0.7,2-2.8,8.8-5.3,9
		c-3,0.2-5.2-7.5-5.6-9.6c-0.7-2.9-1-5.9-1.1-9c0.1-0.2,0.2-0.4,0.3-0.7c0,0-0.1,0-0.3,0c-0.2-6.2,0.6-12.4,2-18.3
		c0-0.1-8.3-1.2-8.7,0.3c-1.1,4.7-2.5,12.4-2.3,19.7c-1,2.4-2.1,4.7-3.3,7c-1.1,2.1-2.2,4.1-3.6,6c-0.8,1.1-1.6,2.1-2.5,3
		c-0.4,0.5-0.9,1-1.5,1.4c-10.9-7.3-7.8-27.3-6.6-38c0-0.4-8.6-0.9-8.7,0.3c-0.3,2.6-0.7,5.8-0.9,9.4c-0.1,0.1-0.2,0.1-0.3,0.2
		c-3.1,2.2-6.5,4.1-10,5.4c-1.6-8.1-6.9-15.6-14.8-18.1c-4.4-1.4-10.7-1.3-15.1,0.4c-3.1,1.2-4.8,3.3-5.4,5.8
		c-7.2,7-9.3,19.6-4.2,28.8c5.7,10.5,22.2,10.7,31.4,4.8c6.7-4.3,9.2-11.9,8.4-19.5c3.4-0.6,6.6-1.6,9.8-3
		C245.2,294.7,247.6,308.3,260.7,308.2z M223.8,276.1c1.5,2.7,2.5,5.6,3,8.7c-3.2,0.1-6.4-0.3-9.6-1.5c-5.3-1.9-11-7.6-8.4-13.6
		c1.7-1.5,3.8-2.5,6.3-2.8C218.7,268.5,222.3,273.5,223.8,276.1z M226.8,292.9c-1,5.1-4.4,10.9-9.5,12.8
		c-7.3,2.7-12.6-3.7-14.4-10.2c-1.1-4-1.2-9.8,0.2-15.1c0.4,0.4,0.8,0.7,1.2,1c6.1,4.7,15.4,5.1,22.9,4.8
		C227.3,288.5,227.2,290.7,226.8,292.9z"/>
	<path fill="#F37573" d="M406.5,359.9c-3.6,7.7-7.6,16.2-14.2,21.8c-8.1,6.9-19.1,3.6-25.4-4.2c-0.8-1-1.4-2.1-2-3.2
		c2.4-2.4,4.5-5.1,6.2-8c2.9-4.8,10-18.2,6-23.7c-2.5-3.4-10.4-2.1-13.7-0.8c-6.4,2.5-9,10-9.7,16.3c-0.7,6.2,0.3,11.7,2.8,16.2
		c-8,7.9-18.1,9.4-28.4,7.5c7.7-2.5,14.4-8.6,15.5-16.9c1-7.6-3.3-19.3-11.3-21.6c-6.7-1.9-13.5-0.6-19.7,2c0-0.6,0-1.1,0-1.7
		c0-0.8-8.7-0.6-8.7,0.3c0,2,0.2,17.1,0.3,22.6c-4.2,7.1-9.8,12.8-15.9,18.2c-0.2-13.7-1-27.4-0.1-41c0-0.6-8.6-0.8-8.7,0.3
		c-0.6,9.6-0.5,19.2-0.3,28.8c-0.1,0.1-0.3,0.2-0.3,0.4c-1.3,3-4.4,9.9-8.2,10.4c-4.8,0.7-6.1-6.3-6.6-9.7
		c-1.6-10.6-1.3-21.6-0.2-32.2c-0.1,0-0.1-0.1-0.2-0.1c-8.5-4.6-17.7-8.4-27-11.6c0.6-6,1.2-12.1,1.5-18.1c0-0.6-8.6-0.8-8.7,0.3
		c-0.3,5.1-0.8,10.2-1.3,15.2c-3.2-0.9-6.4-1.8-9.6-2.5c-9.8-2.3-20.9-4.2-31.9-4.5c0.4-19,0.1-38,2.3-56.7c0-0.4-8.6-0.9-8.7,0.3
		c-0.9,7.8-1.4,15.6-1.7,23.5c-0.1,0.1-0.2,0.2-0.3,0.3c-2.5,5.6-5.8,11-10.4,15.2c-0.9,0.9-2,1.7-3.1,2.4c-0.2-0.2-0.5-0.5-1.1-0.9
		c-1.9-1.6-2.5-4.2-3-6.5c-2.5-11.4-0.8-24.1,2-35.2c0,0-8.3-1.2-8.7,0.3c-2.3,9.3-3.4,18.7-2.8,28.2c0.4,5.8,0.8,14.1,7.6,15.9
		c7.8,2.2,14.4-1.1,19.5-6.3c-0.1,6.5-0.2,13-0.3,19.5c-11.1,0.5-22,2.7-31.3,7.5c-12.6,6.6-21.2,18.1-24.3,31.9
		c-3.2,14.1-1.9,33.9,8.9,44.7c6.8,6.8,18.5,8.5,27.5,5.3c12.7-4.5,18-22.6,21.3-34.2c4.9-17.5,6.2-35.5,6.6-53.5
		c4,0.2,8.1,0.6,12,1.2c9.9,1.5,19.7,4.1,29.2,7.4c-0.5,5.3-1,10.5-1.4,15.8c-0.7,10.4-1.7,22,0.7,32.3c1.5,6.2,5.5,6.6,11.3,6
		c6.9-0.7,11.9-5.3,16.5-10.1c0.7,4.1,2.2,7.9,5.6,9.8c3.9,2,9.8,1.6,13.9,0.8c1.8-0.3,3.3-1,4.7-1.8c0.1,3,0.1,5.9,0.1,8.9
		c-6.5,5.4-13.1,10.9-18.5,17.5c-5.7,7-10.3,15.7-8.3,25c1.4,6.6,5.9,11.6,12.8,12c5.6,0.3,10.6-0.6,14-5.4c5.6-8,6.9-20,7.9-29.5
		c0.7-6.8,0.9-13.6,0.9-20.4c5.5-4.6,11.1-9,16-14.1c0.3,20.1,0.6,40.2,0.9,60.3c0,0.8,8.7,0.6,8.7-0.3c-0.3-18.5-0.6-36.9-0.9-55.4
		c2.9,0.8,5.9,1.2,8.4,1.1c10.9,2.3,22.5,2.3,32.7-1.5c1.9-0.7,3.8-1.7,5.5-2.8c4.5,4.9,11.2,8,19.3,8.4c6.9,0.4,14.7-0.1,20.4-4.3
		c7.6-5.6,12-15,15.9-23.3C415,360,407.3,358.1,406.5,359.9z M154.9,407.5c-7.6,5.5-15.9-3.1-19.5-9.7c-3.8-7.1-5.3-15.4-5.6-23.4
		c-0.5-16.1,5.4-32.1,18.4-42c8.8-6.6,19.1-9.5,29.8-10.2c-0.4,14.2-1.2,28.4-3.9,42.4C171.5,378.2,167,398.8,154.9,407.5z
		 M246.5,374.8c-2.1,2.2-4.8,5.4-7.7,6.8c-2.3,1.1-0.7,1.2-1.7-0.1c-0.7-0.8-0.8-2.1-1-3.1c-1.6-6.9-1.4-14.7-1.3-21.8
		c0.2-7.7,0.8-15.3,1.6-23c3.6,1.4,7.2,2.9,10.7,4.5c1.7,0.8,6.2,2,7.4,3.6c1.2,1.6,0.4,3.2,0.2,5.7c-0.5,5.4-0.5,10.8-0.2,16.1
		c0.1,3.1,0.1,7.2,0.7,11C254.2,375.5,248.2,373,246.5,374.8z M279.4,399.7c-0.3,9.1-1.1,18.2-3.2,27.1c-1.1,4.4-2.2,9.1-4.4,13.1
		c-1,1.7-2.1,3.5-3.8,4.6c-0.8-0.5-1.5-1.1-2.1-1.8c-13.7-13.5,2.5-32.7,12.4-42.4c0.4-0.4,0.8-0.8,1.2-1.2
		C279.4,399.4,279.4,399.6,279.4,399.7z M323.7,344.1c3.1,0,5.3,2.7,6.9,5c2.7,4.1,4.6,9.9,4.4,14.8c-0.3,6.2-4.5,12.1-9.7,15.3
		c-0.9,0.6-1.8,1-2.6,1.3c-2.9-0.9-5.8-2-8.7-3.2c-0.1-0.2-0.3-0.3-0.4-0.5c-0.3-0.4-0.5-0.7-0.7-1.1c0-3.1-0.3-21.1-0.4-26.1
		C315.6,347.6,320.5,344.1,323.7,344.1z M362.2,358.7c0.3-3.8,2.1-12.1,6.1-15.4c3.5,4.8-1.6,15.9-6,23.2
		C362,363.8,362,361.2,362.2,358.7z"/>
	<path fill="#F37573" d="M465.7,308.1c-10.5-11.7-28.3-13.5-43-12.1c-12.1,1.1-42.1,9.3-34.5,27.1c0.7,1.6,8.6-0.5,8.7-0.3
		c-3.3-7.7,1.7-14.3,8.2-18.4c10.5-6.7,23.3-9.4,35.5-5.7c16.5,5,25.7,18.3,20.7,35.4c-4.7,16.1-15.6,28.4-28,39.2
		c-10.9,9.5-23.3,22.4-17.4,38.2c0.6,1.5,8.7-0.4,8.7-0.3c-8.4-22.1,16.9-35.5,29.1-49.1C465.5,348.9,480.1,324.1,465.7,308.1z"/>
	<circle fill="#F37573" cx="423.9" cy="431.7" r="6.4"/>
</g>
</svg>
