<?xml version="1.0" encoding="utf-8"?>
<!-- Generator: Adobe Illustrator 18.1.0, SVG Export Plug-In . SVG Version: 6.00 Build 0)  -->
<!DOCTYPE svg PUBLIC "-//W3C//DTD SVG 1.1//EN" "http://www.w3.org/Graphics/SVG/1.1/DTD/svg11.dtd">
<svg version="1.1" id="Layer_1" xmlns="http://www.w3.org/2000/svg" xmlns:xlink="http://www.w3.org/1999/xlink" x="0px" y="0px"
	 viewBox="0 0 1224 792" enable-background="new 0 0 1224 792" xml:space="preserve">
<rect fill="#CEEAD6" width="1224" height="792"/>
<g>
	<g opacity="0.8">
		<path fill="#F26A24" d="M361.7-260.8l-11.7-6.9l37.2-1.9l32.4,20.8l-16.7-0.1l0,0c-0.6,0-1.2,0.4-1.3,1l-4.5,15.1
			c-0.9-0.6-1.8-1.3-2.4-2.1c0.4-0.6,0.6-1.2,0.6-1.9c0-0.9-0.3-1.8-0.9-2.4l1.5-6.4c0.1-0.4,0-0.7-0.1-1.2l-8.4-12.1
			c0.3-0.4,0.3-0.9,0.3-1.3c-0.1-1.5-1.6-2.5-3.9-2.4c-2.1,0.1-3.6,1.5-3.4,3c0.1,1.3,1.3,2.2,3,2.4l8.2,11.7l-1.3,6
			c-0.9,0.6-1.3,1.6-1.3,2.8c0,1,0.4,1.9,1.2,2.5c0,1,0,2.4,0.3,3.9c-16.6-1.8-29.4-9.1-32.9-11.2l5.2-17.5
			C362.6-259.7,362.3-260.3,361.7-260.8z"/>
	</g>
	<g opacity="0.8">
		<path fill="#F26A24" d="M663.9-242.6v49.9h-8.2v-49.9L663.9-242.6L663.9-242.6z M552.8-242.6v49.9h-8.2v-49.9L552.8-242.6
			L552.8-242.6z M544.6-137.8v-52h8.2v52H544.6z M655.6-137.8v-52h8.2v52H655.6z"/>
		<circle fill="#F26A24" cx="548.5" cy="-198.8" r="1.8"/>
		<circle fill="#F26A24" cx="659.8" cy="-215.2" r="1.8"/>
		<circle fill="#F26A24" cx="659.8" cy="-207" r="1.8"/>
		<circle fill="#F26A24" cx="659.8" cy="-198.8" r="1.8"/>
	</g>
	<g opacity="0.8">
		<path fill="#F26A24" d="M785-199.4c0,0.1,3.3,21.1,1.2,30.8c0,0.1,0,0.3,0,0.3c0,1.2,0.7,28.4,2.7,36.3c-1.5,1-5.2,3.4-10,3.4
			c-3.7,0-7.3-1.3-10.8-4.2c0.7-4.6,4-26.7,2.5-33.9c-1.5-7.3-0.6-29.6-0.6-29.7l1.6-20.8l13,0.4C784.7-212.7,784.7-201.3,785-199.4
			z"/>
	</g>
	<g opacity="0.8">
		<g>
			<path fill="#F26A24" d="M863.9-138.1l-0.6-22.6l-7.5-9c-0.3-0.3-0.4-0.7-0.3-1.2c0.6-3.4-1.9-7.5-3.1-9c-0.9,0.3-1.9,0.4-3.3,0.4
				c-4.9,0-10.9-2.2-11.2-2.2c-0.3-0.1-0.6-0.4-0.9-0.7c-4.3-9.4-7.9-10.9-9.6-10.9c-0.9,0-1.6,0.4-2.1,0.7v0.6l0,0l-0.3,39.6
				c0,0.3-0.1,0.6-0.3,0.7c-1.9,2.8-1.3,12.3-0.6,17.6c0.3,0.6,0.4,0.6,0.6,0.6c1.6,0,4.9-3.4,6.7-5.7c0.3-0.4,0.9-0.6,1.3-0.6
				l26.6,3.7c0.1,0,0.3,0,0.4,0.1c2.7,1.3,3.1,0.7,3.4,0.4C863.9-135.9,863.9-137.4,863.9-138.1z M844.7-173.1c1.2,0,2.2,1,2.2,2.2
				s-1,2.2-2.2,2.2c-1.2,0-2.2-1-2.2-2.2C842.3-172,843.3-173.1,844.7-173.1z M835.7-175.3c1.2,0,2.2,1,2.2,2.2c0,1.2-1,2.2-2.2,2.2
				c-1.2,0-2.2-1-2.2-2.2C833.5-174.3,834.5-175.3,835.7-175.3z M861.3-151.1c-0.4,2.7-2.5,4.9-6.6,6.4c-0.1,0-0.3,0.1-0.4,0.1
				c-0.1,0-0.1,0-0.3,0l-21.7-3.7c-1.3-0.1-4.2-1.2-4.5-4.2l0.1-9.1c0-0.3,0-0.4,0.1-0.6c0.1-0.3,1.6-2.5,6.6-2.5
				c1.3,0,2.7,0.1,4.3,0.4c0.1,0,13.6,2.8,16.3,3.4c0.1,0,0.4,0.1,0.6,0.3C856.2-160.7,862-156,861.3-151.1z"/>
		</g>
	</g>
	<path opacity="0.8" fill="#F26A24" enable-background="new    " d="M925.8-178l-6.9-1.5c-6.9-41.8,2.7-64.9,5.4-70.1l24.2,9.7
		c0.1,2.4,0.3,9.4-1.6,19C944.6-210.1,939.1-194.1,925.8-178z M1091.8-179.8h-4.9c-23.9-31.2-23-57.4-22.6-62.5l21.4-7.5
		c1.3,1.6,4.6,6.3,7,14.8C1095.4-224.8,1097.5-207.1,1091.8-179.8z"/>
	<path opacity="0.8" fill="#F26A24" enable-background="new    " d="M196.9-250.5l-2.1,5.8h-8.2l-2.1-6l6-6.7L196.9-250.5z"/>
	<polygon opacity="0.8" fill="#F26A24" enable-background="new    " points="186.4,-242.6 182.7,-184.1 190.3,-174.7 198.5,-184.1 
		193.7,-242.6 	"/>
</g>
<g>
	<path fill="#3C9372" d="M244.1,338.6c-0.1-0.3-0.4-0.6-0.7-0.7l-22.9-9.1c-0.3-3.3-1.8-13.9-10.2-13.9h-32.4
		c-0.3,0-7.6,0.4-10.6,13.7c-3.7,1-18.5,4.8-22.4,5.7c-0.4,0.1-0.9,0.4-1,1c-0.1,0.6-17.2,59.3-23.3,136.9c0,0.6,0.1,1,0.7,1.3
		c0.3,0.1,8.8,5.4,18.8,5.4c1.2,0,2.2,0,3.4-0.1c0.6-0.1,1.2-0.6,1.2-1.2l14.2-80.2c0.3-0.7,0.7-1.5,1-1.9c0.3,0.9,0.6,2.8,0.6,7
		l-6.4,54.1c0,0.6,0.3,1.2,0.7,1.5c0.7,0.4,17.6,9.3,40,9.3l0,0c13.2,0,25.4-3.1,36.3-9.3c0.4-0.3,0.7-0.9,0.7-1.5l-6.9-58.3
		c0-1.3,0-2.8,0.1-3.9c0.6,1,1.3,3,2.5,6.6l14.2,76.5c0.1,0.6,0.6,1.2,1.3,1.2c0,0,1,0.1,2.5,0.1c5.4,0,15.1-0.9,20-7.2
		c0.3-0.3,0.3-0.7,0.3-1C265.9,466.1,253.7,361.2,244.1,338.6z M217.6,329.8L217.6,329.8L217.6,329.8c0.4,10.2-6.7,18.8-9,21.2
		c-3.6-1.8-9.7-9-13-12.9c4.5-2.4,17-9.7,19.1-17.9C217.5,323.7,217.6,329.7,217.6,329.8z M199.4,348.2l-2.1,5.8h-8.2l-2.1-6l6-6.7
		L199.4,348.2z M178,317.7h32.3c0.7,0,1.3,0.1,1.8,0.3c-0.1,7-12.9,14.9-18.7,17.8c-5.2-3-16.3-10.8-17-17.6
		C177.4,317.8,178,317.7,178,317.7z M174,320.5c2.2,7.6,12.6,14.6,16.9,17.2c-0.9,0.9-1.9,2.2-3.4,4.2c-2.7,3.4-7.3,9.3-9.6,9.4
		c-0.3,0-0.4,0-0.6-0.3c-0.4-0.4-0.9-1.2-1.3-1.9c-3.1-5.7-5.2-17.3-5.7-19.3C171.2,325,172.7,322.2,174,320.5z M192.4,464
		c-17.5-0.6-31.5-6.7-35.1-8.4l6.4-53.2c0-7.6-0.9-10.5-3.3-10.5c-1.8,0-3.3,2.4-4,4.3c0,0.1,0,0.1-0.1,0.3l-14,79.3
		c-0.6,0-1.3,0.1-1.9,0.1c-7.6,0-14.3-3.3-16.6-4.5c0.3-2.8,1.2-11.4,1-11.5c6.3-66.2,20-116.1,22-123.1c4.6-1,16.7-4.2,20.9-5.4
		c0.7,3.7,2.7,13.6,5.7,18.8c0.6,1,1.2,1.9,1.8,2.5c0.7,0.7,1.8,1.2,2.8,1.2c2.1-0.1,4.2-1.8,6.6-4.3l2.1,6.1c0,0,0,0.1,0.1,0.1
		l-3.7,59.6c0,0.3,0.1,0.7,0.3,1l9.1,11.1V464z M193.6,424.7l-7.6-9.3l3.7-58.4h7.5l4.8,58.4L193.6,424.7z M246.2,475.8
		c-0.4,0-0.9,0-1.2,0l-14-75.6V400c-2.7-8.1-4.2-9.7-5.7-9.7c-0.6,0-1,0.1-1.5,0.6c-1.2,1.3-1.3,5.1-1.3,7.3l6.9,57.4
		c-10.3,5.5-21.7,8.4-33.9,8.4l0,0v-37.1l9.1-10.3c0.3-0.3,0.4-0.7,0.3-1l-4.9-60.1l2.2-6.3c2.4,2.2,4.8,4,6.6,4.6
		c0.1,0,0.3,0,0.4,0c0.3,0,0.7-0.1,1-0.4c0.4-0.4,10-9.7,10.5-21.8l21.1,8.5c7.8,19.1,21.8,128.8,22,129.9
		C259,475.2,249.9,475.8,246.2,475.8z"/>
	<g>
		<path fill="#3C9372" d="M850.9,314c0-0.4-0.4-0.9-0.9-1.2l-4.9-2.1c-0.1,0-0.3-0.1-0.6-0.1l-17.9-0.4c-0.4,0-0.7,0.1-1,0.4
			s-0.4,0.6-0.4,1l-1,94.7c0,0,0,0,0,0.1l-0.3,40.5c-2.8,5.1-1,17.9-0.7,19.4c0,0.1,0,0.3,0.1,0.3c0.9,2.1,2.5,2.5,3.4,2.5
			c3.1,0,7-4.3,8.5-6.3l25.6,3.6c1.3,0.7,2.5,1,3.7,1c1.2,0,2.2-0.4,3-1.3c1.6-1.8,1.2-4.8,1.2-4.9l-0.6-22.9c0-0.3-0.1-0.6-0.3-0.9
			l-7.3-8.8c0.4-4.2-2.1-8.2-3.3-9.9c1.5-0.6,2.7-1.2,3.1-1.5l4.8-1.2c0.6-0.1,1-0.6,1-1.2c0.1-0.6-0.1-1.2-0.6-1.5l-3.9-2.5
			l3.1-1.9c0.4-0.3,0.7-0.7,0.7-1.3c0-0.6-0.3-1-0.9-1.2l-3.6-1.8l2.5-2.2c0.3-0.3,0.6-0.7,0.4-1.2c0-0.4-0.3-0.9-0.7-1l-4.5-2.4
			l2.8-2.5c0.3-0.3,0.4-0.6,0.4-1s-0.1-0.7-0.4-1l-2.5-2.2l3.1-1.3c0.4-0.3,0.9-0.7,0.9-1.3s-0.3-1-0.9-1.3l-4.6-2.1l3-1.6
			c0.4-0.3,0.7-0.7,0.7-1.2s-0.3-1-0.7-1.2l-4.3-2.7l4-2.4c0.4-0.3,0.7-0.7,0.7-1.3c0-0.6-0.4-1-0.9-1.2l-4.2-1.6l3.4-2.7
			c0.4-0.3,0.6-0.9,0.6-1.3s-0.4-0.9-0.9-1.2l-4-1.5l3-2.7c0.3-0.3,0.6-0.7,0.4-1.3c0-0.4-0.3-0.9-0.7-1l-3.4-1.8l2.4-2.4
			c0.3-0.3,0.4-0.7,0.4-1.2c0-0.4-0.3-0.9-0.7-1l-3.3-1.8l3.9-2.8c0.4-0.3,0.6-0.7,0.6-1.3c0-0.4-0.3-0.9-0.9-1.2l-5.2-2.4l3-2.4
			c0.4-0.3,0.6-0.7,0.6-1.2s-0.3-0.9-0.7-1.2l-3.6-2.1l2.5-1.5c0.4-0.3,0.7-0.7,0.7-1.3c0-0.6-0.3-1-0.7-1.2l-3.6-1.9l3.1-2.5
			c0.4-0.3,0.6-0.7,0.4-1.3c0-0.4-0.4-0.9-0.9-1.2l-3.7-1.8l3-2.5c0.3-0.3,0.4-0.7,0.6-1c0.1-0.3-0.1-0.9-0.4-1l-3.1-2.7l2.2-1.6
			C850.8,315,850.9,314.4,850.9,314z M857.5,429.9l7.5,9l0.6,22.6c0.1,0.6,0.1,2.2-0.4,2.8c-0.3,0.3-0.6,0.9-3.4-0.4
			c-0.1,0-0.3-0.1-0.4-0.1l-26.6-3.7c-0.4,0-1,0.1-1.3,0.6c-1.8,2.2-5.1,5.7-6.7,5.7c-0.1,0-0.3,0-0.6-0.6
			c-0.7-5.4-1.3-14.8,0.6-17.6c0.1-0.3,0.3-0.4,0.3-0.7l0.3-39.6l0,0v-0.6c0.4-0.3,1-0.7,2.1-0.7c1.8,0,5.2,1.3,9.6,10.9
			c0.1,0.3,0.4,0.6,0.9,0.7c0.3,0.1,6.3,2.2,11.2,2.2c1.2,0,2.4-0.1,3.3-0.4c1.2,1.5,3.9,5.4,3.1,9
			C857.1,429.2,857.2,429.6,857.5,429.9z M848.7,327.7l-3,2.5c-0.3,0.3-0.6,0.7-0.4,1.2c0,0.4,0.3,0.9,0.7,1.2l3.3,1.8l-2.4,1.3
			c-0.4,0.3-0.7,0.7-0.7,1.2s0.3,1,0.7,1.2l3.9,2.2l-3.1,2.4c-0.4,0.3-0.6,0.7-0.6,1.3c0,0.4,0.4,0.9,0.9,1.2l5.1,2.4l-3.7,2.7
			c-0.4,0.3-0.6,0.7-0.6,1.3c0,0.4,0.3,0.9,0.7,1.2l3.6,1.9l-2.4,2.4c-0.3,0.3-0.4,0.7-0.4,1.2s0.3,0.9,0.7,1l3.4,1.6l-3.3,2.8
			c-0.4,0.3-0.6,0.9-0.4,1.3c0.1,0.4,0.4,0.9,0.9,1l3.9,1.3l-3.3,2.5c-0.4,0.3-0.6,0.9-0.6,1.3c0.1,0.4,0.4,0.9,0.9,1.2l3.7,1.5
			l-3.6,2.1c-0.4,0.3-0.7,0.7-0.7,1.2s0.3,1,0.7,1.2l4.3,2.7l-3.3,1.8c-0.4,0.3-0.7,0.7-0.7,1.3s0.3,1,0.9,1.2l4.2,1.9l-2.2,1
			c-0.4,0.1-0.7,0.6-0.9,1c-0.1,0.4,0.1,1,0.4,1.3l3,2.7l-3.1,2.8c-0.3,0.3-0.6,0.7-0.4,1.2c0,0.4,0.3,0.9,0.7,1l4.5,2.4l-2.7,2.4
			c-0.3,0.3-0.6,0.7-0.4,1.3c0,0.4,0.3,0.9,0.7,1l3.1,1.5l-2.8,1.6c-0.4,0.3-0.7,0.7-0.7,1.2s0.1,0.9,0.6,1.2l2.8,1.9l-1.8,0.4
			c-0.1,0-0.3,0-0.3,0.1c0,0-2.8,1.5-5.1,2.1c-0.3,0-0.4,0.1-0.6,0.3c-0.6,0.1-1.3,0.3-2.2,0.3c-3.6,0-8.1-1.3-9.7-1.9
			c-3.7-7.9-7.8-12-12-12c-0.7,0-1.5,0.1-1.9,0.3l1-90.7l16.1,0.4l2.2,1l-1.8,1.3c-0.3,0.3-0.6,0.7-0.6,1.2s0.1,0.9,0.4,1.2l3.3,2.7
			l-3.4,2.8c-0.4,0.3-0.6,0.7-0.4,1.3c0,0.4,0.4,0.9,0.9,1.2L848.7,327.7z"/>
		<path fill="#3C9372" d="M836.3,434.4c-4.9,0-6.3,2.2-6.6,2.5c-0.1,0.1-0.1,0.4-0.1,0.6l-0.1,9.1c0.3,3,3.1,4,4.5,4.2l21.7,3.7
			c0.1,0,0.1,0,0.3,0c0.1,0,0.3,0,0.4-0.1c3.9-1.5,6.1-3.7,6.6-6.4c0.7-4.9-5.1-9.4-5.4-9.7c-0.1-0.1-0.3-0.1-0.6-0.3
			c-2.7-0.6-16.1-3.4-16.3-3.4C839.1,434.6,837.6,434.4,836.3,434.4z M860.2,448c-0.3,1.6-1.8,3-4.5,4.2l-21.4-3.7
			c-0.1,0-1.9-0.3-2.1-1.6l0.1-8.5c0.4-0.3,1.5-1,4-1c1,0,2.4,0.1,3.7,0.4c0.3,0,13.7,3,16,3.4C857.5,442.2,860.5,445.3,860.2,448z"
			/>
		<path fill="#3C9372" d="M837.3,428.7c1.2,0,2.2-1,2.2-2.2c0-1.2-1-2.2-2.2-2.2s-2.2,1-2.2,2.2C835.1,427.7,836,428.7,837.3,428.7z
			"/>
		<path fill="#3C9372" d="M846.2,431c1.2,0,2.2-1,2.2-2.2c0-1.2-1-2.2-2.2-2.2s-2.2,1-2.2,2.2C843.9,429.9,845,431,846.2,431z"/>
		<path fill="#3C9372" d="M786.7,343.7c0.7,0,1.3-0.4,1.5-1.2l1.2-5.5c0.3-0.6,1.8-3.6,6.1-3.6c1,0,2.1,0.1,3.1,0.4l1,1.6
			c0.3,0.4,0.7,0.6,1.2,0.6l10-0.1c0.6,0,1.2-0.4,1.3-1.2c0.3-1.3,3-13.4-0.3-19c-0.3-0.4-0.7-0.7-1.3-0.7l-9.1,0.6
			c-0.3,0-0.4,0.1-0.7,0.3c-1.2,0.7-4.8,2.7-7.8,2.7c-1,0-1.9-0.3-2.5-0.7c-1.6-1.5-3.6-3.9-3.9-4.8c-0.1-0.7-0.7-1.2-1.5-1.2
			c-0.4,0-10.8,0.4-16.9,3.4c-0.7,0.3-17.3,7-25.3,27c0,0.1-0.1,0.3-0.1,0.3c0,0.4-0.1,1.8,0.6,2.7c0.4,0.4,1,0.7,1.6,0.7l0,0
			c1.2,0,2.5-0.9,4.5-2.8l0.1-0.1c0.1-0.1,9-12.6,21.2-11.8l1.6,10.8c0.1,0.7,0.7,1.2,1.3,1.2h0.3l-0.3,35h-1.6
			c-0.7,0-1.5,0.6-1.5,1.3l-1.8,22.3c0,0.9-1,22.9,0.6,30.6c1.5,7.2-2.7,33.3-2.7,33.6c-0.1,0.4,0.1,1,0.4,1.3
			c4.2,3.6,8.7,5.4,13.3,5.4c7.3,0,12.6-4.6,12.7-4.8c0.4-0.4,0.6-1,0.4-1.6c-1.8-4.6-2.7-27.5-2.8-36.2c2.1-10.2-1-30.8-1.2-31.5
			c-0.1-1.9-0.1-13.9-0.1-18.4c0-0.7-0.6-1.5-1.3-1.5h-1.9l-0.3-35L786.7,343.7z M787.1,399c0,0.1,3.3,21.1,1.2,30.8
			c0,0.1,0,0.3,0,0.3c0,1.2,0.7,28.4,2.7,36.3c-1.5,1-5.2,3.4-10,3.4c-3.7,0-7.3-1.3-10.8-4.2c0.7-4.6,4-26.7,2.5-33.9
			c-1.5-7.3-0.6-29.6-0.6-29.7l1.6-20.8l13,0.4C786.8,385.5,786.8,396.9,787.1,399z M783.4,378.5l-6.4-0.1l0.3-35l5.8,0.1
			L783.4,378.5z M773.8,329.8c-0.1-0.6-0.6-1.2-1.2-1.2c-0.7-0.1-1.6-0.1-2.4-0.1c-12.7,0-21.5,11.7-22.6,13c-0.6,0.6-1,1-1.5,1.3
			c7.5-18.4,23.2-24.7,23.5-24.8c4.6-2.2,12.1-3,14.8-3.1c1,2.2,3.7,4.6,4.3,5.2c1.2,1,2.7,1.5,4.5,1.5c3.7,0,7.8-2.2,9-3l7.8-0.4
			c1.5,3.9,0.6,11.2-0.1,15.1l-8.1,0l-0.9-1.5c-0.1-0.3-0.4-0.4-0.7-0.6c-1.6-0.4-3.1-0.7-4.5-0.7c-6.7,0-8.8,5.4-9,5.8l-1,4.5
			l-10.2-0.3L773.8,329.8z"/>
	</g>
	<path fill="#3C9372" d="M1088.5,348.8c-0.4-0.4-1-0.4-1.5-0.3l-23.2,8.1c-0.4,0.1-0.9,0.6-1,1.2c0,0.3-0.1,1.5-0.3,3.4l-5.2,1.9
		c-0.3,0.1-0.6,0.3-0.7,0.6c-0.1,0.1-1,1.8-1.8,4.9h-9c-1.8-1.2-9.1-5.8-18.5-9.4c-14.3-5.5-26.6-6-35.6-1.2
		c-0.4,0.3-12,7.3-18.2,14.9c-0.1,0-0.1,0-0.3,0c-6.3,0.6-11.8-3-11.8-3l0,0c0-1.6,0-2.5,0-2.7c0-0.6-0.4-1-0.9-1.3l-7.6-3.1
		c0-1.3-0.1-2.2-0.1-2.4c0-0.6-0.4-1-0.9-1.2l-26.3-10.6c-0.7-0.3-1.5,0-1.8,0.6c-0.6,1-14.6,24.7-6.1,74.1c0.1,0.6,0.6,1,1.2,1.2
		l8.8,1.9c0.1,0,0.1,0,0.3,0c0.4,0,0.9-0.1,1.2-0.6c1-1.3,2.1-2.5,3.1-3.9l7,2.7c0.1,0,0.3,0.1,0.6,0.1s0.6-0.1,0.9-0.3
		c4.8-3.9,8.8-9,12.1-15.2l4,2.7c-1.9,3.3-2.2,6.3-2.2,6.4c-0.3,6.1,5.2,9.1,8.8,10c0.9,3.1,2.4,5.2,4.6,6.3c2.1,0.9,4,0.6,5.5,0.1
		c1.2,2.8,2.8,4.8,4.9,6c1.9,1,3.9,1,5.1,0.9c2.7,3.4,5.7,5.5,9,6c3.4,0.6,6.3-0.6,7.6-1.5c2.5,1.3,4.6,1.9,6.7,1.9
		c4.9,0,8.2-3.3,9.7-4.9c2.5,0.9,4.8,1,7,0.1c3.3-1.2,5.2-4.2,6.1-5.8c5.5,0.4,10-4.9,10.2-5.1l0.1-0.1c0.7-1.2,0.9-2.8,0.7-4.5
		l0.1,0.1c1.6,1.6,3.4,1.5,3.6,1.5c3.7,0,6.7-1.2,8.7-3.4c2.1-2.4,3-5.8,3-10.2l12.3-1.3c1.3,2.2,3,4.6,4.6,7
		c0.3,0.4,0.7,0.6,1.2,0.6c0.1,0,0.3,0,0.6-0.1l8.1-3.1c1.2,1.6,2.4,3.3,3.6,4.9c0.3,0.3,0.7,0.6,1.2,0.6h6.9c0.7,0,1.3-0.4,1.5-1.2
		C1107.8,368.1,1089.4,349.7,1088.5,348.8z M927.3,423.3l-6.9-1.5c-6.9-41.8,2.7-64.9,5.4-70.1l24.2,9.7c0.1,2.4,0.3,9.4-1.6,19
		C946,391.2,940.6,407.2,927.3,423.3z M939.4,421.7l-5.5-2.1c16.3-22.4,18.8-43.6,19-53.5l5.5,2.4
		C958.5,374.3,957.9,406.2,939.4,421.7z M957.3,418.7c0,0,0.1-3.3,2.5-6.1v-0.1c0,0,0,0,0.1-0.1c0,0,2.5-4.8,5.1-3.7
		c1.3,0.6,0.9,2.4,0.7,2.8c-0.4,0.9-3,7.3-3,13.9C960.8,424.5,957.2,422.6,957.3,418.7z M969.1,432c-1.3-0.6-2.4-2.2-3-4.8
		c-0.7-6.3,2.1-13.3,2.5-14.6c0.6-0.6,2.1-1.8,3.4-1.5c1.2,0.1,2.1,1.5,2.8,3c-0.9,2.4-3,9.1-2.2,17.9
		C971.7,432.3,970.3,432.6,969.1,432z M975.7,432.8c-0.9-7.6,0.7-13.9,1.6-16.7c0.1,0,0.3-0.1,0.4-0.3c0,0,1.3-1,2.5-0.6
		c0.7,0.3,2.7,1.8,3.6,9.3c-1.3,2.1-3.9,7-1.9,14.6C980.1,438.9,977.4,437.8,975.7,432.8z M992.8,444.9c-2.7-0.4-5.2-2.2-7.6-5.5
		l-0.1-0.1c-2.2-7.3,0.3-11.8,1.3-13.3c0.4-0.1,1.2-0.3,1.9,0.1c1.5,0.7,2.7,3.3,3.3,7v0.1c0.1,0.3,2.2,7.2,5.7,11.1
		C996.2,444.7,994.6,445.2,992.8,444.9z M1050.7,424.2c-1.5,1.6-3.6,2.4-6.4,2.4c-1.3,0-3.7-2.1-3.7-9.9c0-0.4-0.1-0.7-0.4-1
		l-12.4-13.4c-0.6-0.6-1.5-0.6-2.1-0.1c-0.6,0.4-0.7,1.3-0.3,2.1c5.8,7.8,14,21.8,11.7,26.6c-0.6,0.6-3.9,4.5-7.8,3.9v-0.1
		c-1.9-3-12.9-20.8-12.9-20.8l-2.5,1.6c0,0,10.9,17.6,12.9,20.8c0,0,0,0,0.1,0.1c-0.6,1.2-2.2,3.6-4.6,4.6c-1.6,0.6-3.6,0.4-5.5-0.4
		v-0.1c-1.5-3-11.2-15.2-12.4-16.7c-0.4-0.6-1.5-0.7-2.1-0.3s-0.7,1.5-0.3,2.1c3,3.7,10.9,13.9,12.1,16.1l0,0
		c-1.5,1.9-6.1,6.4-13.3,1.9c-2.8-2.1-5.4-8.5-6.1-10.9c-0.7-4.9-2.4-8.1-4.9-9.3c-1-0.4-2.1-0.6-3-0.4c-0.9-6-2.7-9.4-5.4-10.5
		c-1.3-0.6-2.8-0.3-3.9,0.1c-1.2-2.5-2.8-4-4.8-4.3c-1.3-0.3-2.7,0.1-3.7,0.7c-0.3-1.2-1-2.4-2.5-3c-3.4-1.5-6.3,1.2-8.1,3.7
		l-4.3-2.8c2.4-5.2,4.2-11.1,5.5-17.5c1.2-6.1,1.6-11.7,1.9-15.7c2.1,1,6,2.7,10.6,2.7c0,0,0,0,0.1,0c0.1,0.9,1.3,6.9,5.8,9
		c1,0.4,2.1,0.7,3.3,0.7c2.2,0,4.8-0.9,7.5-2.7c0.1,0,0.1-0.1,0.1-0.1c0.7-0.7,7.5-7,9.7-10.2c0.7,0,1.8,0.1,2.8,0.1
		c0.1,0.1,0.3,0.3,0.4,0.3c0.1,0.1,20.9,9.6,24.2,11.5c0.1,0.1,12.3,9.1,17.8,14.9l0.1,0.1c0,0,7.3,5.5,8.5,12.6
		c0,0.1,0,0.3,0.1,0.6C1053.4,418.3,1052.7,422,1050.7,424.2z M1037.7,418.1c-0.3-0.6-0.6-1.2-0.9-1.8l0.9,0.9
		C1037.6,417.5,1037.6,417.8,1037.7,418.1z M1055.8,413c0-0.1,0-0.1,0-0.3c0-0.3,0-0.4-0.1-0.7c-1.3-7.9-8.5-13.7-9.6-14.5
		c-1.5-1.5-3.3-3.3-5.2-4.9c1.8-0.7,3.6-2.2,4.6-4.9c0.3-0.7-0.1-1.6-0.9-1.9c-0.7-0.3-1.6,0.1-1.9,0.9c-1.2,3.1-3.6,3.6-4.6,3.7
		c-4.9-4.2-9.9-7.8-10.2-8.1c-2.5-1.6-14.2-7-20.5-9.9c1.8-0.4,3.4-1,4.2-2.2c0.4-0.7,0.3-1.6-0.4-2.1c-0.7-0.4-1.6-0.3-2.1,0.4
		c-0.7,1-5.8,1.6-11.1,1.2c-0.6,0-1.2,0.3-1.5,0.7c-0.9,1.8-6.3,7.2-9.6,10.2c-3.1,1.9-5.8,2.5-7.8,1.6c-2.7-1.2-3.7-4.9-4-6.3
		c5.5-7.6,18.2-15.4,18.2-15.4c19.9-10.5,51,10.6,51.3,10.8c0.3,0.1,0.6,0.3,0.9,0.3l0,0h9c-0.7,7.6,0.7,20.6,12.3,40L1055.8,413z
		 M1074.6,419c-22.9-33.6-17-50.5-15.7-53.2l3.7-1.3c0.1,9.7,2.8,29,18.4,52.2L1074.6,419z M1093.2,421.6h-4.9
		c-23.9-31.2-23-57.4-22.6-62.5l21.4-7.5c1.3,1.6,4.6,6.3,7,14.8C1096.9,376.6,1099,394.2,1093.2,421.6z"/>
	<g>
		<path fill="#3C9372" d="M478.9,389.3c-1.8-0.6-4.3,0.1-5.1,2.2c-1.2,3.7-3.6,4.8-5.8,4.9c0.3-0.3,0.4-0.6,0.7-0.7
			c2.8-3.6,1.6-8.8-0.7-12c-1.2-1.5-3.1-2.5-5.4-2.8c-2.8-0.3-5.8,0.6-7.5,2.1c-4.5,3.9-4.2,9.6-1.9,13.7c-0.9,0.3-1.8,0.4-2.5,0.7
			c-0.9-3.4-0.9-4.2-0.9-4.2c0-0.1,0-0.1,0-0.3c-5.2-19.1-20.2-31.2-43-35.4l1-3.7l20.6,0.1l0,0c0.6,0,1.2-0.4,1.3-1
			c0.1-0.6,0-1.3-0.6-1.6l-36.9-23.6c-0.3-0.1-0.6-0.3-0.9-0.1l-42.3,2.2c-0.6,0-1.2,0.4-1.3,1c-0.1,0.6,0.1,1.2,0.6,1.6l14.8,8.8
			l-3.6,12.3c-5.2-3.6-11.4-5.7-13.9-4.5c-0.9,0.4-1.3,1.2-1.3,2.2c0,0.9,0.1,1.9,0.4,3.1c0.6,3,1.3,7.2-0.7,14
			c-7.9,5.8-18.7,23.3-20.9,27.2c-1.5,0-4.5,0-6.9,1c-1,0.4-1.8,1.5-2.4,3.3c-1.8,5.8-1.2,19.4,1.5,23.8c0,0.1,0.1,0.1,0.1,0.3
			c1.9,1.9,5.4,1.8,7.2,1.5c6.6,12.4,24.5,26.9,28.4,30c-0.4,2.4-1.2,7.5,0.4,9.4c1,1.3,6.9,1.6,12.7,1.6c6.3,0,12.6-0.4,13.2-0.7
			c0.1,0,0.1-0.1,0.3-0.3c0.7-0.7,1.2-3.9,1-6.7c11.2,1.3,21.2,0.6,25.1,0c-0.3,2.2-0.4,4.3,0.3,5.7c0.4,0.7,1.3,1,2.1,1.2
			c4.3,1,20.6,0.7,22.7-0.7c3-2.1,2.7-10.2,2.4-13.6c17.2-14.2,20.2-34.5,20.6-43.5c1.3-0.6,2.8-1.3,4.3-2.1c1.5-0.7,2.8-1.5,4-1.9
			c13.6,2.7,18.1-1.9,20.9-10.2C481.5,391.2,480.3,389.7,478.9,389.3z M365.3,339.2l-11.7-6.9l37.2-1.9l32.4,20.8l-16.7-0.1l0,0
			c-0.6,0-1.2,0.4-1.3,1l-4.5,15.1c-0.9-0.6-1.8-1.3-2.4-2.1c0.4-0.6,0.6-1.2,0.6-1.9c0-0.9-0.3-1.8-0.9-2.4l1.5-6.4
			c0.1-0.4,0-0.7-0.1-1.2L391,341c0.3-0.4,0.3-0.9,0.3-1.3c-0.1-1.5-1.6-2.5-3.9-2.4c-2.1,0.1-3.6,1.5-3.4,3c0.1,1.3,1.3,2.2,3,2.4
			l8.2,11.7l-1.3,6c-0.9,0.6-1.3,1.6-1.3,2.8c0,1,0.4,1.9,1.2,2.5c0,1,0,2.4,0.3,3.9c-16.6-1.8-29.4-9.1-32.9-11.2l5.2-17.5
			C366.2,340.3,365.9,339.5,365.3,339.2z M478.1,392.6c-2.1,6.3-4.8,10.9-18.1,8.1c-0.3,0-0.6,0-0.9,0.1c-1.2,0.4-2.8,1.3-4.6,2.2
			c-1.8,0.9-3.6,1.8-4.9,2.4c-0.4,0.1-0.9,0.7-0.9,1.3c-0.3,10.2-3.3,29.3-20.2,42.7c-0.4,0.3-0.6,0.7-0.6,1.2
			c0.4,4.9,0.1,10.8-1,11.7c-1.9,0.9-17.9,1.3-20.8,0.3c-0.3-1,0-3.6,0.1-4.5c0.1-0.9,0.1-1.2,0.1-1.5c-0.1-0.7-0.9-1.2-1.6-1.2
			c-0.1,0-13.4,2.1-27.9,0c-0.4,0-0.9,0.1-1.2,0.4c-0.3,0.3-0.4,0.9-0.3,1.3c0.4,2.1,0.1,4.6-0.1,5.8c-3.7,0.4-19.6,0.7-21.8-0.3
			c-0.6-0.9-0.4-4.3,0.3-7.8c0.1-0.6-0.1-1-0.6-1.5c-0.1-0.1-22.4-17.3-28.7-30.5c-0.3-0.6-0.9-0.9-1.6-0.7
			c-1.3,0.3-4.5,0.6-5.5-0.4c-3-5.1-2.2-21.5-0.4-22.7c2.7-1.2,6.4-0.9,6.4-0.9c0.6,0,1-0.3,1.3-0.7c0.1-0.1,12.9-21.7,21.1-27.3
			c0.3-0.1,0.4-0.4,0.6-0.7c2.4-7.9,1.5-12.7,0.9-15.8c-0.1-0.9-0.3-1.6-0.3-2.2c1.3-0.3,6.6,1,11.7,4.9l-0.7,2.2
			c-0.1,0.6,0,1.2,0.6,1.6s15.5,10.5,36,12.3c1,3.3,3.4,6.4,8.5,6.9h0.1c0.3,0,0.7-0.1,1-0.4l6.4-6c0.4-0.3,0.6-0.9,0.4-1.5
			c-0.1-0.4-0.6-0.9-1-1c-1.5-0.3-4-1-6.6-2.1l2.4-8.1c22.3,3.9,36,15.1,41.1,33.3c0.1,0.6,0.4,2.4,1.3,5.8c0.1,0.7,0.9,1.2,1.6,1
			c1.8-0.3,4.5-1,6.1-1.6c0.4-0.1,0.7-0.4,0.9-0.9s0-0.9-0.1-1.2c-2.4-3.3-3.3-8.2,0.4-11.5c1-1,3.3-1.5,5.4-1.3
			c0.9,0.1,2.5,0.4,3.4,1.6c1.8,2.4,2.7,6.1,0.9,8.5c-0.6,0.7-1.5,1.6-2.5,2.5c-0.4,0.3-0.6,0.9-0.4,1.3c0.1,0.6,0.4,0.9,1,1
			c5.7,1.5,10.2-0.9,12.1-6.4c0.1-0.4,0.9-0.7,1.5-0.6C478.1,392,478.3,392,478.1,392.6z"/>
		<path fill="#3C9372" d="M463.2,388.7c-0.7-1.6-1.8-2.5-2.8-2.5c-0.7,0-1.3,0.4-1.6,1c-1.9,3.1-1.3,6.7,1.6,9.4
			c0.3,0.1,0.6,0.3,0.9,0.3s0.6-0.1,0.9-0.3C464.2,394.1,463.9,390.8,463.2,388.7z M460.8,393.5c-0.7-1.2-1.3-2.7-0.4-4.6
			c0.3,0.4,0.6,1,0.7,2.1C461.2,391.5,461.2,392.6,460.8,393.5z"/>
		<circle fill="#3C9372" cx="343.6" cy="392.3" r="3.9"/>
	</g>
	<g>
		<path fill="#3C9372" d="M686.7,353.7h-17.6h-14h-19.9V335c0-3.1-2.4-5.5-5.2-5.5h-45.3c-2.8,0-5.2,2.5-5.2,5.5v18.7h-21.2h-14
			h-16.3c-3.9,0-7,3.1-7,7v41.7c0,2.7,1.5,4.9,3.7,6.1v42.1c0,7.5,6.1,13.6,13.6,13.6h6h14h97h14h7.3c7.5,0,13.6-6.1,13.6-13.6
			v-42.1c2.2-1.2,3.7-3.4,3.7-6.1v-41.7C693.7,356.8,690.6,353.7,686.7,353.7z M666.1,356.5v49.9h-8.2v-49.9H666.1z M582.1,335
			c0-1.5,1-2.7,2.4-2.7h45.3c1.3,0,2.4,1.2,2.4,2.7v18.7h-50.1V335z M655,356.5v49.9h-35.3c0-4.2-3.4-7.5-7.5-7.5h-10
			c-4.2,0-7.5,3.3-7.5,7.5h-36.6v-49.9H655z M616.9,406.6v9.3c0,2.5-2.1,4.6-4.6,4.6h-10c-2.5,0-4.6-2.1-4.6-4.6v-9.3
			c0-2.5,2.1-4.6,4.6-4.6h10C614.8,402,616.9,404.1,616.9,406.6z M555.2,356.5v49.9H547v-49.9H555.2z M523.7,360.7
			c0-2.2,1.8-4,4.2-4h16.3v49.8h-16.3c-2.2,0-4.2-1.8-4.2-4.2V360.7z M538,461.5c-5.8,0-10.8-4.8-10.8-10.8v-41.2c0.1,0,0.3,0,0.3,0
			h16.3v52H538z M547,461.5v-52h8.2v52H547z M558.1,461.5v-52h36.6v6.4c0,4.2,3.4,7.5,7.5,7.5h10c4.2,0,7.5-3.4,7.5-7.5v-6.4h35.3
			v52H558.1z M657.9,461.5v-52h8.2v52H657.9z M687,450.8c0,6-4.8,10.8-10.8,10.8h-7.3v-52.2h17.8c0.1,0,0.3,0,0.3,0V450.8z
			 M690.8,402.4c0,2.2-1.8,4.2-4.2,4.2h-17.6v-49.9h17.8c2.2,0,4.2,1.8,4.2,4v41.7H690.8z"/>
		<g>
			<path fill="#3C9372" d="M610.1,418.3h-5.8c-1.9,0-3.4-1.5-3.4-3.4V408c0-1.9,1.5-3.4,3.4-3.4h5.8c1.9,0,3.4,1.5,3.4,3.4v6.9
				C613.5,416.6,612,418.3,610.1,418.3z M604.4,407.1c-0.4,0-0.9,0.4-0.9,0.9v6.9c0,0.4,0.4,0.9,0.9,0.9h5.8c0.4,0,0.9-0.4,0.9-0.9
				V408c0-0.4-0.4-0.9-0.9-0.9H604.4z"/>
		</g>
		<g>
			<path fill="#3C9372" d="M551,431.1c-0.4,0-0.7-0.1-1-0.4l-5.7-7.3c-0.4-0.6-0.3-1.3,0.3-1.8c0.6-0.4,1.3-0.3,1.8,0.3l4.6,6
				l4.2-5.8c0.4-0.6,1.2-0.7,1.8-0.3c0.6,0.4,0.7,1.2,0.3,1.8l-5.2,7.3C551.9,431,551.5,431.1,551,431.1
				C551.2,431.1,551.2,431.1,551,431.1z"/>
		</g>
		<g>
			<path fill="#3C9372" d="M662.4,431.1c-0.4,0-0.7-0.1-1-0.4l-5.7-7.3c-0.4-0.6-0.3-1.3,0.3-1.8c0.6-0.4,1.3-0.3,1.8,0.3l4.6,6
				l4.2-5.8c0.4-0.6,1.2-0.7,1.8-0.3c0.6,0.4,0.7,1.2,0.3,1.8l-5.2,7.3C663.1,431,662.8,431.1,662.4,431.1L662.4,431.1z"/>
		</g>
		<circle fill="#3C9372" cx="550.9" cy="384" r="1.8"/>
		<circle fill="#3C9372" cx="550.9" cy="392.3" r="1.8"/>
		<circle fill="#3C9372" cx="550.9" cy="400.5" r="1.8"/>
		<circle fill="#3C9372" cx="662.1" cy="384" r="1.8"/>
		<circle fill="#3C9372" cx="662.1" cy="392.3" r="1.8"/>
		<circle fill="#3C9372" cx="662.1" cy="400.5" r="1.8"/>
	</g>
	<circle fill="#3C9372" cx="259.3" cy="464.6" r="1.8"/>
	<circle fill="#3C9372" cx="127.5" cy="465.5" r="1.8"/>
	<g>
		<path fill="#3C9372" d="M145.8,462.8c-14,0-21.2-4-21.5-4.3c-0.7-0.4-0.9-1.3-0.6-2.1c0.4-0.7,1.3-0.9,2.1-0.6
			c0.1,0,6.9,3.9,20,3.9c0.9,0,1.5,0.6,1.5,1.5S146.5,462.8,145.8,462.8z"/>
	</g>
	<g>
		<path fill="#3C9372" d="M241.6,460.1c-0.9,0-1.5-0.6-1.5-1.5c0-0.9,0.6-1.5,1.5-1.5c13.2,0,20-3.9,20-3.9c0.7-0.4,1.6-0.1,2.1,0.6
			s0.1,1.6-0.6,2.1C262.8,455.9,255.6,460.1,241.6,460.1z"/>
	</g>
</g>
</svg>
