<?xml version="1.0" encoding="utf-8"?>
<!-- Generator: Adobe Illustrator 18.1.1, SVG Export Plug-In . SVG Version: 6.00 Build 0)  -->
<!DOCTYPE svg PUBLIC "-//W3C//DTD SVG 1.1//EN" "http://www.w3.org/Graphics/SVG/1.1/DTD/svg11.dtd">
<svg version="1.1" id="Layer_1" xmlns="http://www.w3.org/2000/svg" xmlns:xlink="http://www.w3.org/1999/xlink" x="0px" y="0px"
	 width="792px" height="522.3px" viewBox="0 49.8 792 522.3" enable-background="new 0 49.8 792 522.3" xml:space="preserve">
<rect y="49.8" fill="#CEEAD6" width="792" height="522.3"/>
<g>
	<path fill="#3C9372" d="M157.9,275.9c-0.1-0.2-0.3-0.4-0.5-0.5l-14.8-5.9c-0.2-2.1-1.2-9-6.6-9h-21c-0.2,0-4.9,0.3-6.9,8.9
		c-2.4,0.6-12,3.1-14.5,3.7c-0.3,0.1-0.6,0.3-0.6,0.6C93,274.1,82,312.1,78,362.3c0,0.4,0.1,0.6,0.5,0.8c0.2,0.1,5.7,3.5,12.2,3.5
		c0.8,0,1.4,0,2.2-0.1c0.4-0.1,0.8-0.4,0.8-0.8l9.2-51.9c0.2-0.5,0.5-1,0.6-1.2c0.2,0.6,0.4,1.8,0.4,4.5l-4.1,35
		c0,0.4,0.2,0.8,0.5,1c0.5,0.3,11.4,6,25.9,6l0,0c8.5,0,16.4-2,23.5-6c0.3-0.2,0.5-0.6,0.5-1l-4.5-37.7c0-0.8,0-1.8,0.1-2.5
		c0.4,0.6,0.8,1.9,1.6,4.3l9.2,49.5c0.1,0.4,0.4,0.8,0.8,0.8c0,0,0.6,0.1,1.6,0.1c3.5,0,9.8-0.6,12.9-4.7c0.2-0.2,0.2-0.5,0.2-0.6
		C172.1,358.4,164.2,290.5,157.9,275.9z M140.8,270.2L140.8,270.2L140.8,270.2c0.3,6.6-4.3,12.2-5.8,13.7c-2.3-1.2-6.3-5.8-8.4-8.3
		c2.9-1.6,11-6.3,12.4-11.6C140.7,266.2,140.8,270.1,140.8,270.2z M129,282.1l-1.4,3.8h-5.3l-1.4-3.9l3.9-4.3L129,282.1z
		 M115.2,262.3h20.9c0.5,0,0.8,0.1,1.2,0.2c-0.1,4.5-8.3,9.6-12.1,11.5c-3.4-1.9-10.5-7-11-11.4
		C114.8,262.4,115.2,262.3,115.2,262.3z M112.6,264.1c1.4,4.9,8.2,9.4,10.9,11.1c-0.6,0.6-1.2,1.4-2.2,2.7c-1.7,2.2-4.7,6-6.2,6.1
		c-0.2,0-0.3,0-0.4-0.2c-0.3-0.3-0.6-0.8-0.8-1.2c-2-3.7-3.4-11.2-3.7-12.5C110.8,267.1,111.7,265.2,112.6,264.1z M124.5,357
		c-11.3-0.4-20.4-4.3-22.7-5.4l4.1-34.4c0-4.9-0.6-6.8-2.1-6.8c-1.2,0-2.1,1.6-2.6,2.8c0,0.1,0,0.1-0.1,0.2l-9.1,51.3
		c-0.4,0-0.8,0.1-1.2,0.1c-4.9,0-9.3-2.1-10.7-2.9c0.2-1.8,0.8-7.4,0.6-7.4c4.1-42.8,12.9-75.1,14.2-79.7c3-0.6,10.8-2.7,13.5-3.5
		c0.5,2.4,1.7,8.8,3.7,12.2c0.4,0.6,0.8,1.2,1.2,1.6c0.5,0.5,1.2,0.8,1.8,0.8c1.4-0.1,2.7-1.2,4.3-2.8l1.4,3.9c0,0,0,0.1,0.1,0.1
		l-2.4,38.6c0,0.2,0.1,0.5,0.2,0.6l5.9,7.2L124.5,357L124.5,357z M125.3,331.6l-4.9-6l2.4-37.8h4.9l3.1,37.8L125.3,331.6z
		 M159.3,364.6c-0.3,0-0.6,0-0.8,0l-9.1-48.9v-0.1c-1.7-5.2-2.7-6.3-3.7-6.3c-0.4,0-0.6,0.1-1,0.4c-0.8,0.8-0.8,3.3-0.8,4.7
		l4.5,37.1c-6.7,3.6-14,5.4-21.9,5.4l0,0v-24l5.9-6.7c0.2-0.2,0.3-0.5,0.2-0.6l-3.2-38.9l1.4-4.1c1.6,1.4,3.1,2.6,4.3,3
		c0.1,0,0.2,0,0.3,0c0.2,0,0.5-0.1,0.6-0.3c0.3-0.3,6.5-6.3,6.8-14.1l13.7,5.5c5,12.4,14.1,83.3,14.2,84.1
		C167.6,364.2,161.7,364.6,159.3,364.6z"/>
	<g>
		<path fill="#3C9372" d="M550.6,259.9c0-0.3-0.3-0.6-0.6-0.8l-3.2-1.4c-0.1,0-0.2-0.1-0.4-0.1l-11.6-0.3c-0.3,0-0.5,0.1-0.6,0.3
			c-0.2,0.2-0.3,0.4-0.3,0.6l-0.6,61.3c0,0,0,0,0,0.1l-0.2,26.2c-1.8,3.3-0.6,11.6-0.5,12.6c0,0.1,0,0.2,0.1,0.2
			c0.6,1.4,1.6,1.6,2.2,1.6c2,0,4.5-2.8,5.5-4.1l16.6,2.3c0.8,0.5,1.6,0.6,2.4,0.6s1.4-0.3,1.9-0.8c1-1.2,0.8-3.1,0.8-3.2l-0.4-14.8
			c0-0.2-0.1-0.4-0.2-0.6l-4.7-5.7c0.3-2.7-1.4-5.3-2.1-6.4c1-0.4,1.7-0.8,2-1l3.1-0.8c0.4-0.1,0.6-0.4,0.6-0.8
			c0.1-0.4-0.1-0.8-0.4-1l-2.5-1.6l2-1.2c0.3-0.2,0.5-0.5,0.5-0.8c0-0.4-0.2-0.6-0.6-0.8l-2.3-1.2l1.6-1.4c0.2-0.2,0.4-0.5,0.3-0.8
			c0-0.3-0.2-0.6-0.5-0.6l-2.9-1.6l1.8-1.6c0.2-0.2,0.3-0.4,0.3-0.6s-0.1-0.5-0.3-0.6l-1.6-1.4l2-0.8c0.3-0.2,0.6-0.5,0.6-0.8
			s-0.2-0.6-0.6-0.8l-3-1.4l1.9-1c0.3-0.2,0.5-0.5,0.5-0.8s-0.2-0.6-0.5-0.8l-2.8-1.7l2.6-1.6c0.3-0.2,0.5-0.5,0.5-0.8
			c0-0.4-0.3-0.6-0.6-0.8l-2.7-1l2.2-1.7c0.3-0.2,0.4-0.6,0.4-0.8s-0.3-0.6-0.6-0.8l-2.6-1l1.9-1.7c0.2-0.2,0.4-0.5,0.3-0.8
			c0-0.3-0.2-0.6-0.5-0.6l-2.2-1.2l1.6-1.6c0.2-0.2,0.3-0.5,0.3-0.8c0-0.3-0.2-0.6-0.5-0.6l-2.1-1.2l2.5-1.8
			c0.3-0.2,0.4-0.5,0.4-0.8c0-0.3-0.2-0.6-0.6-0.8l-3.4-1.6l1.9-1.6c0.3-0.2,0.4-0.5,0.4-0.8c0-0.3-0.2-0.6-0.5-0.8l-2.3-1.4l1.6-1
			c0.3-0.2,0.5-0.5,0.5-0.8c0-0.4-0.2-0.6-0.5-0.8l-2.3-1.2l2-1.6c0.3-0.2,0.4-0.5,0.3-0.8c0-0.3-0.3-0.6-0.6-0.8l-2.4-1.2l1.9-1.6
			c0.2-0.2,0.3-0.5,0.4-0.6c0.1-0.2-0.1-0.6-0.3-0.6l-2-1.7l1.4-1C550.5,260.6,550.6,260.2,550.6,259.9z M554.9,334.9l4.9,5.8
			l0.4,14.6c0.1,0.4,0.1,1.4-0.3,1.8c-0.2,0.2-0.4,0.6-2.2-0.3c-0.1,0-0.2-0.1-0.3-0.1l-17.2-2.4c-0.3,0-0.6,0.1-0.8,0.4
			c-1.2,1.4-3.3,3.7-4.3,3.7c-0.1,0-0.2,0-0.4-0.4c-0.5-3.5-0.8-9.6,0.4-11.4c0.1-0.2,0.2-0.3,0.2-0.5l0.2-25.6l0,0v-0.4
			c0.3-0.2,0.6-0.5,1.4-0.5c1.2,0,3.4,0.8,6.2,7.1c0.1,0.2,0.3,0.4,0.6,0.5c0.2,0.1,4.1,1.4,7.2,1.4c0.8,0,1.6-0.1,2.1-0.3
			c0.8,1,2.5,3.5,2,5.8C554.6,334.5,554.7,334.7,554.9,334.9z M549.2,268.8l-1.9,1.6c-0.2,0.2-0.4,0.5-0.3,0.8
			c0,0.3,0.2,0.6,0.5,0.8l2.1,1.2L548,274c-0.3,0.2-0.5,0.5-0.5,0.8s0.2,0.6,0.5,0.8l2.5,1.4l-2,1.6c-0.3,0.2-0.4,0.5-0.4,0.8
			c0,0.3,0.3,0.6,0.6,0.8l3.3,1.6l-2.4,1.7c-0.3,0.2-0.4,0.5-0.4,0.8c0,0.3,0.2,0.6,0.5,0.8l2.3,1.2l-1.6,1.6
			c-0.2,0.2-0.3,0.5-0.3,0.8s0.2,0.6,0.5,0.6l2.2,1l-2.1,1.8c-0.3,0.2-0.4,0.6-0.3,0.8c0.1,0.3,0.3,0.6,0.6,0.6l2.5,0.8l-2.1,1.6
			c-0.3,0.2-0.4,0.6-0.4,0.8c0.1,0.3,0.3,0.6,0.6,0.8l2.4,1l-2.3,1.4c-0.3,0.2-0.5,0.5-0.5,0.8c0,0.3,0.2,0.6,0.5,0.8l2.8,1.7
			l-2.1,1.2c-0.3,0.2-0.5,0.5-0.5,0.8c0,0.4,0.2,0.6,0.6,0.8l2.7,1.2l-1.4,0.6c-0.3,0.1-0.5,0.4-0.6,0.6c-0.1,0.3,0.1,0.6,0.3,0.8
			l1.9,1.7l-2,1.8c-0.2,0.2-0.4,0.5-0.3,0.8c0,0.3,0.2,0.6,0.5,0.6l2.9,1.6l-1.7,1.6c-0.2,0.2-0.4,0.5-0.3,0.8
			c0,0.3,0.2,0.6,0.5,0.6l2,1l-1.8,1c-0.3,0.2-0.5,0.5-0.5,0.8c0,0.3,0.1,0.6,0.4,0.8l1.8,1.2l-1.2,0.3c-0.1,0-0.2,0-0.2,0.1
			c0,0-1.8,1-3.3,1.4c-0.2,0-0.3,0.1-0.4,0.2c-0.4,0.1-0.8,0.2-1.4,0.2c-2.3,0-5.2-0.8-6.3-1.2c-2.4-5.1-5-7.8-7.8-7.8
			c-0.5,0-1,0.1-1.2,0.2l0.6-58.7l10.4,0.3l1.4,0.6l-1.2,0.8c-0.2,0.2-0.4,0.5-0.4,0.8c0,0.3,0.1,0.6,0.3,0.8l2.1,1.7l-2.2,1.8
			c-0.3,0.2-0.4,0.5-0.3,0.8c0,0.3,0.3,0.6,0.6,0.8L549.2,268.8z"/>
		<path fill="#3C9372" d="M541.1,337.8c-3.2,0-4.1,1.4-4.3,1.6c-0.1,0.1-0.1,0.3-0.1,0.4l-0.1,5.9c0.2,1.9,2,2.6,2.9,2.7l14,2.4
			c0.1,0,0.1,0,0.2,0c0.1,0,0.2,0,0.3-0.1c2.5-1,3.9-2.4,4.3-4.1c0.5-3.2-3.3-6.1-3.5-6.3c-0.1-0.1-0.2-0.1-0.4-0.2
			c-1.7-0.4-10.4-2.2-10.5-2.2C542.9,338,542,337.8,541.1,337.8z M556.6,346.6c-0.2,1-1.2,1.9-2.9,2.7l-13.8-2.4
			c-0.1,0-1.2-0.2-1.4-1l0.1-5.5c0.3-0.2,1-0.6,2.6-0.6c0.6,0,1.6,0.1,2.4,0.3c0.2,0,8.9,1.9,10.4,2.2
			C554.9,342.9,556.8,344.9,556.6,346.6z"/>
		<path fill="#3C9372" d="M541.8,334.2c0.8,0,1.4-0.6,1.4-1.4c0-0.8-0.6-1.4-1.4-1.4s-1.4,0.6-1.4,1.4
			C540.4,333.5,540.9,334.2,541.8,334.2z"/>
		<path fill="#3C9372" d="M547.5,335.6c0.8,0,1.4-0.6,1.4-1.4c0-0.8-0.6-1.4-1.4-1.4s-1.4,0.6-1.4,1.4
			C546.1,334.9,546.8,335.6,547.5,335.6z"/>
		<path fill="#3C9372" d="M509,279.2c0.5,0,0.8-0.3,1-0.8l0.8-3.6c0.2-0.4,1.2-2.3,3.9-2.3c0.6,0,1.4,0.1,2,0.3l0.6,1
			c0.2,0.3,0.5,0.4,0.8,0.4l6.5-0.1c0.4,0,0.8-0.3,0.8-0.8c0.2-0.8,1.9-8.7-0.2-12.3c-0.2-0.3-0.5-0.5-0.8-0.5l-5.9,0.4
			c-0.2,0-0.3,0.1-0.5,0.2c-0.8,0.5-3.1,1.7-5,1.7c-0.6,0-1.2-0.2-1.6-0.5c-1-1-2.3-2.5-2.5-3.1c-0.1-0.5-0.5-0.8-1-0.8
			c-0.3,0-7,0.3-10.9,2.2c-0.5,0.2-11.2,4.5-16.4,17.5c0,0.1-0.1,0.2-0.1,0.2c0,0.3-0.1,1.2,0.4,1.7c0.3,0.3,0.6,0.5,1,0.5l0,0
			c0.8,0,1.6-0.6,2.9-1.8l0.1-0.1c0.1-0.1,5.8-8.2,13.7-7.6l1,7c0.1,0.5,0.5,0.8,0.8,0.8h0.2l-0.2,22.6h-1c-0.5,0-1,0.4-1,0.8
			l-1.2,14.4c0,0.6-0.6,14.8,0.4,19.8c1,4.7-1.7,21.5-1.7,21.7c-0.1,0.3,0.1,0.6,0.3,0.8c2.7,2.3,5.6,3.5,8.6,3.5
			c4.7,0,8.2-3,8.2-3.1c0.3-0.3,0.4-0.6,0.3-1c-1.2-3-1.7-17.8-1.8-23.4c1.4-6.6-0.6-19.9-0.8-20.4c-0.1-1.2-0.1-9-0.1-11.9
			c0-0.5-0.4-1-0.8-1h-1.2l-0.2-22.6L509,279.2z M509.3,314.9c0,0.1,2.1,13.7,0.8,19.9c0,0.1,0,0.2,0,0.2c0,0.8,0.5,18.4,1.7,23.5
			c-1,0.6-3.4,2.2-6.5,2.2c-2.4,0-4.7-0.8-7-2.7c0.5-3,2.6-17.3,1.6-21.9c-1-4.7-0.4-19.2-0.4-19.2l1-13.5l8.4,0.3
			C509.1,306.2,509.1,313.6,509.3,314.9z M506.9,301.7l-4.1-0.1L503,279l3.8,0.1L506.9,301.7z M500.7,270.2
			c-0.1-0.4-0.4-0.8-0.8-0.8c-0.5-0.1-1-0.1-1.6-0.1c-8.2,0-13.9,7.6-14.6,8.4c-0.4,0.4-0.6,0.6-1,0.8c4.9-11.9,15-16,15.2-16
			c3-1.4,7.8-1.9,9.6-2c0.6,1.4,2.4,3,2.8,3.4c0.8,0.6,1.7,1,2.9,1c2.4,0,5-1.4,5.8-1.9l5-0.3c1,2.5,0.4,7.2-0.1,9.8h-5.2l-0.6-1
			c-0.1-0.2-0.3-0.3-0.5-0.4c-1-0.3-2-0.5-2.9-0.5c-4.3,0-5.7,3.5-5.8,3.8l-0.6,2.9l-6.6-0.2L500.7,270.2z"/>
	</g>
	<path fill="#3C9372" d="M704.3,282.5c-0.3-0.3-0.6-0.3-1-0.2l-15,5.2c-0.3,0.1-0.6,0.4-0.6,0.8c0,0.2-0.1,1-0.2,2.2l-3.4,1.2
		c-0.2,0.1-0.4,0.2-0.5,0.4c-0.1,0.1-0.6,1.2-1.2,3.2h-5.8c-1.2-0.8-5.9-3.8-12-6.1c-9.3-3.6-17.2-3.9-23-0.8
		c-0.3,0.2-7.8,4.7-11.8,9.6c-0.1,0-0.1,0-0.2,0c-4.1,0.4-7.6-1.9-7.6-1.9l0,0c0-1,0-1.6,0-1.7c0-0.4-0.3-0.6-0.6-0.8l-4.9-2
		c0-0.8-0.1-1.4-0.1-1.6c0-0.4-0.3-0.6-0.6-0.8l-17-6.9c-0.5-0.2-1,0-1.2,0.4c-0.4,0.6-9.4,16-3.9,47.9c0.1,0.4,0.4,0.6,0.8,0.8
		l5.7,1.2c0.1,0,0.1,0,0.2,0c0.3,0,0.6-0.1,0.8-0.4c0.6-0.8,1.4-1.6,2-2.5l4.5,1.7c0.1,0,0.2,0.1,0.4,0.1s0.4-0.1,0.6-0.2
		c3.1-2.5,5.7-5.8,7.8-9.8l2.6,1.7c-1.2,2.1-1.4,4.1-1.4,4.1c-0.2,3.9,3.4,5.9,5.7,6.5c0.6,2,1.6,3.4,3,4.1c1.4,0.6,2.6,0.4,3.6,0.1
		c0.8,1.8,1.8,3.1,3.2,3.9c1.2,0.6,2.5,0.6,3.3,0.6c1.7,2.2,3.7,3.6,5.8,3.9c2.2,0.4,4.1-0.4,4.9-1c1.6,0.8,3,1.2,4.3,1.2
		c3.2,0,5.3-2.1,6.3-3.2c1.6,0.6,3.1,0.6,4.5,0.1c2.1-0.8,3.4-2.7,3.9-3.8c3.6,0.3,6.5-3.2,6.6-3.3l0.1-0.1c0.5-0.8,0.6-1.8,0.5-2.9
		l0.1,0.1c1,1,2.2,1,2.3,1c2.4,0,4.3-0.8,5.6-2.2c1.4-1.6,1.9-3.8,1.9-6.6l8-0.8c0.8,1.4,1.9,3,3,4.5c0.2,0.3,0.5,0.4,0.8,0.4
		c0.1,0,0.2,0,0.4-0.1l5.2-2c0.8,1,1.6,2.1,2.3,3.2c0.2,0.2,0.5,0.4,0.8,0.4h4.5c0.5,0,0.8-0.3,1-0.8
		C716.8,294.9,704.9,283,704.3,282.5z M600,330.7l-4.5-1c-4.5-27,1.7-42,3.5-45.4l15.7,6.3c0.1,1.6,0.2,6.1-1,12.3
		C612.1,309.9,608.6,320.2,600,330.7z M607.8,329.6l-3.6-1.4c10.5-14.5,12.2-28.2,12.3-34.6l3.6,1.6
		C620.2,299,619.8,319.6,607.8,329.6z M619.4,327.7c0,0,0.1-2.1,1.6-3.9v-0.1c0,0,0,0,0.1-0.1c0,0,1.6-3.1,3.3-2.4
		c0.8,0.4,0.6,1.6,0.5,1.8c-0.3,0.6-1.9,4.7-1.9,9C621.7,331.4,619.4,330.2,619.4,327.7z M627.1,336.3c-0.8-0.4-1.6-1.4-1.9-3.1
		c-0.5-4.1,1.4-8.6,1.6-9.4c0.4-0.4,1.4-1.2,2.2-1c0.8,0.1,1.4,1,1.8,1.9c-0.6,1.6-1.9,5.9-1.4,11.6
		C628.7,336.5,627.8,336.7,627.1,336.3z M631.3,336.8c-0.6-4.9,0.5-9,1-10.8c0.1,0,0.2-0.1,0.3-0.2c0,0,0.8-0.6,1.6-0.4
		c0.5,0.2,1.7,1.2,2.3,6c-0.8,1.4-2.5,4.5-1.2,9.4C634.2,340.8,632.4,340,631.3,336.8z M642.4,344.6c-1.7-0.3-3.4-1.4-4.9-3.6
		l-0.1-0.1c-1.4-4.7,0.2-7.6,0.8-8.6c0.3-0.1,0.8-0.2,1.2,0.1c1,0.5,1.7,2.1,2.1,4.5v0.1c0.1,0.2,1.4,4.7,3.7,7.2
		C644.6,344.5,643.6,344.8,642.4,344.6z M679.9,331.2c-1,1-2.3,1.6-4.1,1.6c-0.8,0-2.4-1.4-2.4-6.4c0-0.3-0.1-0.5-0.3-0.6l-8-8.7
		c-0.4-0.4-1-0.4-1.4-0.1c-0.4,0.3-0.5,0.8-0.2,1.4c3.8,5,9.1,14.1,7.6,17.2c-0.4,0.4-2.5,2.9-5,2.5V338c-1.2-1.9-8.3-13.5-8.3-13.5
		l-1.6,1c0,0,7.1,11.4,8.3,13.5c0,0,0,0,0.1,0.1c-0.4,0.8-1.4,2.3-3,3c-1,0.4-2.3,0.3-3.6-0.3v-0.1c-1-1.9-7.2-9.8-8-10.8
		c-0.3-0.4-1-0.5-1.4-0.2c-0.4,0.3-0.5,1-0.2,1.4c1.9,2.4,7.1,9,7.8,10.4l0,0c-1,1.2-3.9,4.1-8.6,1.2c-1.8-1.4-3.5-5.5-3.9-7.1
		c-0.5-3.2-1.6-5.2-3.2-6c-0.6-0.3-1.4-0.4-1.9-0.3c-0.6-3.9-1.7-6.1-3.5-6.8c-0.8-0.4-1.8-0.2-2.5,0.1c-0.8-1.6-1.8-2.6-3.1-2.8
		c-0.8-0.2-1.7,0.1-2.4,0.5c-0.2-0.8-0.6-1.6-1.6-1.9c-2.2-1-4.1,0.8-5.2,2.4l-2.8-1.8c1.6-3.4,2.7-7.2,3.6-11.3
		c0.8-3.9,1-7.6,1.2-10.2c1.4,0.6,3.9,1.7,6.9,1.7c0,0,0,0,0.1,0c0.1,0.6,0.8,4.5,3.8,5.8c0.6,0.3,1.4,0.5,2.1,0.5
		c1.4,0,3.1-0.6,4.9-1.7c0.1,0,0.1-0.1,0.1-0.1c0.5-0.5,4.9-4.5,6.3-6.6c0.5,0,1.2,0.1,1.8,0.1c0.1,0.1,0.2,0.2,0.3,0.2
		c0.1,0.1,13.5,6.2,15.7,7.4c0.1,0.1,8,5.9,11.5,9.6l0.1,0.1c0,0,4.7,3.6,5.5,8.2c0,0.1,0,0.2,0.1,0.4
		C681.6,327.4,681.2,329.8,679.9,331.2z M671.5,327.3c-0.2-0.4-0.4-0.8-0.6-1.2l0.6,0.6C671.4,326.9,671.4,327.1,671.5,327.3z
		 M683.2,324c0-0.1,0-0.1,0-0.2c0-0.2,0-0.3-0.1-0.5c-0.8-5.1-5.5-8.9-6.2-9.4c-1-1-2.1-2.1-3.4-3.2c1.2-0.5,2.3-1.4,3-3.2
		c0.2-0.5-0.1-1-0.6-1.2c-0.5-0.2-1,0.1-1.2,0.6c-0.8,2-2.3,2.3-3,2.4c-3.2-2.7-6.4-5-6.6-5.2c-1.6-1-9.2-4.5-13.3-6.4
		c1.2-0.3,2.2-0.6,2.7-1.4c0.3-0.5,0.2-1-0.3-1.4c-0.5-0.3-1-0.2-1.4,0.3c-0.5,0.6-3.8,1-7.2,0.8c-0.4,0-0.8,0.2-1,0.5
		c-0.6,1.2-4.1,4.7-6.2,6.6c-2,1.2-3.8,1.6-5,1c-1.7-0.8-2.4-3.2-2.6-4.1c3.6-4.9,11.8-10,11.8-10c12.9-6.8,33,6.9,33.2,7
		c0.2,0.1,0.4,0.2,0.6,0.2l0,0h5.8c-0.5,4.9,0.5,13.3,8,25.9L683.2,324z M695.3,327.9c-14.8-21.7-11-32.7-10.2-34.4l2.4-0.8
		c0.1,6.3,1.8,18.8,11.9,33.8L695.3,327.9z M707.4,329.6h-3.2c-15.5-20.2-14.9-37.1-14.6-40.4l13.8-4.9c0.8,1,3,4.1,4.5,9.6
		C709.8,300.4,711.1,311.8,707.4,329.6z"/>
	<g>
		<path fill="#3C9372" d="M309.9,308.7c-1.2-0.4-2.8,0.1-3.3,1.4c-0.8,2.4-2.3,3.1-3.8,3.2c0.2-0.2,0.3-0.4,0.5-0.5
			c1.8-2.3,1-5.7-0.5-7.8c-0.8-1-2-1.6-3.5-1.8c-1.8-0.2-3.8,0.4-4.9,1.4c-2.9,2.5-2.7,6.2-1.2,8.9c-0.6,0.2-1.2,0.3-1.6,0.5
			c-0.6-2.2-0.6-2.7-0.6-2.7c0-0.1,0-0.1,0-0.2c-3.4-12.4-13.1-20.2-27.8-22.9l0.6-2.4l13.3,0.1l0,0c0.4,0,0.8-0.3,0.8-0.6
			s0-0.8-0.4-1l-23.9-15.3c-0.2-0.1-0.4-0.2-0.6-0.1l-27.4,1.4c-0.4,0-0.8,0.3-0.8,0.6c-0.1,0.4,0.1,0.8,0.4,1l9.6,5.7l-2.3,8
			c-3.4-2.3-7.4-3.7-9-2.9c-0.6,0.3-0.8,0.8-0.8,1.4c0,0.6,0.1,1.2,0.3,2c0.4,1.9,0.8,4.7-0.5,9.1c-5.1,3.8-12.1,15.1-13.5,17.6
			c-1,0-2.9,0-4.5,0.6c-0.6,0.3-1.2,1-1.6,2.1c-1.2,3.8-0.8,12.6,1,15.4c0,0.1,0.1,0.1,0.1,0.2c1.2,1.2,3.5,1.2,4.7,1
			c4.3,8,15.9,17.4,18.4,19.4c-0.3,1.6-0.8,4.9,0.3,6.1c0.6,0.8,4.5,1,8.2,1c4.1,0,8.2-0.3,8.5-0.5c0.1,0,0.1-0.1,0.2-0.2
			c0.5-0.5,0.8-2.5,0.6-4.3c7.2,0.8,13.7,0.4,16.2,0c-0.2,1.4-0.3,2.8,0.2,3.7c0.3,0.5,0.8,0.6,1.4,0.8c2.8,0.6,13.3,0.5,14.7-0.5
			c1.9-1.4,1.7-6.6,1.6-8.8c11.1-9.2,13.1-22.3,13.3-28.1c0.8-0.4,1.8-0.8,2.8-1.4c1-0.5,1.8-1,2.6-1.2c8.8,1.7,11.7-1.2,13.5-6.6
			C311.6,309.9,310.8,308.9,309.9,308.7z M236.4,276.2l-7.6-4.5l24.1-1.2l21,13.5l-10.8-0.1l0,0c-0.4,0-0.8,0.3-0.8,0.6l-2.9,9.8
			c-0.6-0.4-1.2-0.8-1.6-1.4c0.3-0.4,0.4-0.8,0.4-1.2c0-0.6-0.2-1.2-0.6-1.6l1-4.1c0.1-0.3,0-0.5-0.1-0.8l-5.4-7.9
			c0.2-0.3,0.2-0.6,0.2-0.8c-0.1-1-1-1.6-2.5-1.6c-1.4,0.1-2.3,1-2.2,1.9c0.1,0.8,0.8,1.4,1.9,1.6l5.3,7.6l-0.8,3.9
			c-0.6,0.4-0.8,1-0.8,1.8c0,0.6,0.3,1.2,0.8,1.6c0,0.6,0,1.6,0.2,2.5c-10.7-1.2-19-5.9-21.3-7.2l3.4-11.3
			C237,277,236.8,276.4,236.4,276.2z M309.4,310.8c-1.4,4.1-3.1,7.1-11.7,5.2c-0.2,0-0.4,0-0.6,0.1c-0.8,0.3-1.8,0.8-3,1.4
			c-1.2,0.6-2.3,1.2-3.2,1.6c-0.3,0.1-0.6,0.5-0.6,0.8c-0.2,6.6-2.1,19-13.1,27.6c-0.3,0.2-0.4,0.5-0.4,0.8c0.3,3.2,0.1,7-0.6,7.6
			c-1.2,0.6-11.6,0.8-13.5,0.2c-0.2-0.6,0-2.3,0.1-2.9c0.1-0.6,0.1-0.8,0.1-1c-0.1-0.5-0.6-0.8-1-0.8c-0.1,0-8.7,1.4-18.1,0
			c-0.3,0-0.6,0.1-0.8,0.3c-0.2,0.2-0.3,0.6-0.2,0.8c0.3,1.4,0.1,3-0.1,3.8c-2.4,0.3-12.7,0.5-14.1-0.2c-0.4-0.6-0.3-2.8,0.2-5
			c0.1-0.4-0.1-0.6-0.4-1c-0.1-0.1-14.5-11.2-18.6-19.7c-0.2-0.4-0.6-0.6-1-0.5c-0.8,0.2-2.9,0.4-3.6-0.3
			c-1.9-3.3-1.4-13.9-0.3-14.7c1.7-0.8,4.1-0.6,4.1-0.6c0.4,0,0.6-0.2,0.8-0.5c0.1-0.1,8.3-14,13.7-17.7c0.2-0.1,0.3-0.3,0.4-0.5
			c1.6-5.1,1-8.2,0.6-10.2c-0.1-0.6-0.2-1-0.2-1.4c0.8-0.2,4.3,0.6,7.6,3.2l-0.5,1.4c-0.1,0.4,0,0.8,0.4,1s10,6.8,23.3,8
			c0.6,2.1,2.2,4.1,5.5,4.5h0.1c0.2,0,0.5-0.1,0.6-0.3l4.1-3.9c0.3-0.2,0.4-0.6,0.3-1c-0.1-0.3-0.4-0.6-0.6-0.6
			c-1-0.2-2.6-0.6-4.3-1.4l1.6-5.2c14.4,2.5,23.3,9.8,26.6,21.5c0.1,0.4,0.3,1.6,0.8,3.8c0.1,0.5,0.6,0.8,1,0.6
			c1.2-0.2,2.9-0.6,3.9-1c0.3-0.1,0.5-0.3,0.6-0.6c0.1-0.3,0-0.6-0.1-0.8c-1.6-2.1-2.1-5.3,0.3-7.4c0.6-0.6,2.1-1,3.5-0.8
			c0.6,0.1,1.6,0.3,2.2,1c1.2,1.6,1.7,3.9,0.6,5.5c-0.4,0.5-1,1-1.6,1.6c-0.3,0.2-0.4,0.6-0.3,0.8c0.1,0.4,0.3,0.6,0.6,0.6
			c3.7,1,6.6-0.6,7.8-4.1c0.1-0.3,0.6-0.5,1-0.4C309.4,310.4,309.5,310.4,309.4,310.8z"/>
		<path fill="#3C9372" d="M299.7,308.3c-0.5-1-1.2-1.6-1.8-1.6c-0.5,0-0.8,0.3-1,0.6c-1.2,2-0.8,4.3,1,6.1c0.2,0.1,0.4,0.2,0.6,0.2
			c0.2,0,0.4-0.1,0.6-0.2C300.4,311.8,300.2,309.6,299.7,308.3z M298.2,311.4c-0.5-0.8-0.8-1.7-0.3-3c0.2,0.3,0.4,0.6,0.5,1.4
			C298.4,310.1,298.4,310.8,298.2,311.4z"/>
		<circle fill="#3C9372" cx="222.3" cy="310.6" r="2.5"/>
	</g>
	<g>
		<path fill="#3C9372" d="M444.3,285.6h-11.4h-9.1H411v-12.1c0-2-1.6-3.6-3.4-3.6h-29.3c-1.8,0-3.4,1.6-3.4,3.6v12.1h-13.7h-9.1
			h-10.5c-2.5,0-4.5,2-4.5,4.5v27c0,1.7,1,3.2,2.4,3.9v27.2c0,4.9,3.9,8.8,8.8,8.8h3.9h9.1H424h9.1h4.7c4.9,0,8.8-3.9,8.8-8.8v-27.2
			c1.4-0.8,2.4-2.2,2.4-3.9v-27C448.9,287.6,446.9,285.6,444.3,285.6z M431,287.4v32.3h-5.3v-32.3H431z M376.7,273.5
			c0-1,0.6-1.7,1.6-1.7h29.3c0.8,0,1.6,0.8,1.6,1.7v12.1h-32.4L376.7,273.5L376.7,273.5z M423.8,287.4v32.3H401
			c0-2.7-2.2-4.9-4.9-4.9h-6.5c-2.7,0-4.9,2.1-4.9,4.9h-23.7v-32.3H423.8z M399.2,319.9v6c0,1.6-1.4,3-3,3h-6.5c-1.6,0-3-1.4-3-3v-6
			c0-1.6,1.4-3,3-3h6.5C397.8,316.9,399.2,318.2,399.2,319.9z M359.2,287.4v32.3h-5.3v-32.3H359.2z M338.9,290.2
			c0-1.4,1.2-2.6,2.7-2.6h10.5v32.2h-10.5c-1.4,0-2.7-1.2-2.7-2.7V290.2z M348.1,355.4c-3.8,0-7-3.1-7-7v-26.7c0.1,0,0.2,0,0.2,0
			h10.5v33.6H348.1z M353.9,355.4v-33.6h5.3v33.6H353.9z M361.1,355.4v-33.6h23.7v4.1c0,2.7,2.2,4.9,4.9,4.9h6.5
			c2.7,0,4.9-2.2,4.9-4.9v-4.1h22.8v33.6H361.1z M425.7,355.4v-33.6h5.3v33.6H425.7z M444.5,348.5c0,3.9-3.1,7-7,7h-4.7v-33.8h11.5
			c0.1,0,0.2,0,0.2,0V348.5z M447,317.1c0,1.4-1.2,2.7-2.7,2.7h-11.4v-32.3h11.5c1.4,0,2.7,1.2,2.7,2.6v27L447,317.1L447,317.1z"/>
		<g>
			<path fill="#3C9372" d="M394.8,327.4H391c-1.2,0-2.2-1-2.2-2.2v-4.5c0-1.2,1-2.2,2.2-2.2h3.8c1.2,0,2.2,1,2.2,2.2v4.5
				C397,326.3,396,327.4,394.8,327.4z M391.1,320.2c-0.3,0-0.6,0.3-0.6,0.6v4.5c0,0.3,0.3,0.6,0.6,0.6h3.8c0.3,0,0.6-0.3,0.6-0.6
				v-4.5c0-0.3-0.3-0.6-0.6-0.6H391.1z"/>
		</g>
		<g>
			<path fill="#3C9372" d="M356.5,335.7c-0.3,0-0.5-0.1-0.6-0.3l-3.7-4.7c-0.3-0.4-0.2-0.8,0.2-1.2c0.4-0.3,0.8-0.2,1.2,0.2l3,3.9
				l2.7-3.8c0.3-0.4,0.8-0.5,1.2-0.2s0.5,0.8,0.2,1.2l-3.4,4.7C357.1,335.6,356.9,335.7,356.5,335.7
				C356.7,335.7,356.7,335.7,356.5,335.7z"/>
		</g>
		<g>
			<path fill="#3C9372" d="M428.6,335.7c-0.3,0-0.5-0.1-0.6-0.3l-3.7-4.7c-0.3-0.4-0.2-0.8,0.2-1.2c0.4-0.3,0.8-0.2,1.2,0.2l3,3.9
				l2.7-3.8c0.3-0.4,0.8-0.5,1.2-0.2s0.5,0.8,0.2,1.2l-3.4,4.7C429.1,335.6,428.9,335.7,428.6,335.7L428.6,335.7z"/>
		</g>
		<circle fill="#3C9372" cx="356.5" cy="305.2" r="1.2"/>
		<circle fill="#3C9372" cx="356.5" cy="310.6" r="1.2"/>
		<circle fill="#3C9372" cx="356.5" cy="315.9" r="1.2"/>
		<circle fill="#3C9372" cx="428.4" cy="305.2" r="1.2"/>
		<circle fill="#3C9372" cx="428.4" cy="310.6" r="1.2"/>
		<circle fill="#3C9372" cx="428.4" cy="315.9" r="1.2"/>
	</g>
	<circle fill="#3C9372" cx="167.8" cy="357.4" r="1.2"/>
	<circle fill="#3C9372" cx="82.5" cy="358" r="1.2"/>
	<g>
		<path fill="#3C9372" d="M94.3,356.2c-9.1,0-13.7-2.6-13.9-2.8c-0.5-0.3-0.6-0.8-0.4-1.4c0.3-0.5,0.8-0.6,1.4-0.4
			c0.1,0,4.5,2.5,12.9,2.5c0.6,0,1,0.4,1,1C95.3,355.8,94.8,356.2,94.3,356.2z"/>
	</g>
	<g>
		<path fill="#3C9372" d="M156.3,354.5c-0.6,0-1-0.4-1-1c0-0.6,0.4-1,1-1c8.5,0,12.9-2.5,12.9-2.5c0.5-0.3,1-0.1,1.4,0.4
			s0.1,1-0.4,1.4C170,351.8,165.4,354.5,156.3,354.5z"/>
	</g>
</g>
</svg>
